<svg width="42" height="13" viewBox="0 0 42 13" fill="none" xmlns="http://www.w3.org/2000/svg">
<path d="M0.48 12L4.608 0.799999H6.032L10.144 12H8.72L7.696 9.12H2.928L1.888 12H0.48ZM3.328 8.032H7.296L5.312 2.496L3.328 8.032ZM11.8954 12V5.2H10.6954V4.064H11.8954V2.688C11.8954 1.92 12.0874 1.36 12.4714 1.008C12.8554 0.656 13.4154 0.48 14.1514 0.48H14.9514V1.632H14.3594C13.954 1.632 13.666 1.71733 13.4954 1.888C13.3247 2.048 13.2394 2.32533 13.2394 2.72V4.064H15.1914V5.2H13.2394V12H11.8954ZM17.2235 12V5.2H16.0235V4.064H17.2235V2.688C17.2235 1.92 17.4155 1.36 17.7995 1.008C18.1835 0.656 18.7435 0.48 19.4795 0.48H20.2795V1.632H19.6875C19.2822 1.632 18.9942 1.71733 18.8235 1.888C18.6528 2.048 18.5675 2.32533 18.5675 2.72V4.064H20.5195V5.2H18.5675V12H17.2235ZM25.3751 12.192C24.6178 12.192 23.9458 12.0213 23.3591 11.68C22.7725 11.328 22.3085 10.8427 21.9671 10.224C21.6365 9.60533 21.4711 8.87467 21.4711 8.032C21.4711 7.2 21.6365 6.47467 21.9671 5.856C22.2978 5.22667 22.7565 4.74133 23.3431 4.4C23.9405 4.048 24.6285 3.872 25.4071 3.872C26.1751 3.872 26.8365 4.048 27.3911 4.4C27.9565 4.74133 28.3885 5.19467 28.6871 5.76C28.9858 6.32533 29.1351 6.93333 29.1351 7.584C29.1351 7.70133 29.1298 7.81867 29.1191 7.936C29.1191 8.05333 29.1191 8.18667 29.1191 8.336H22.7991C22.8311 8.944 22.9698 9.45067 23.2151 9.856C23.4711 10.2507 23.7858 10.5493 24.1591 10.752C24.5431 10.9547 24.9485 11.056 25.3751 11.056C25.9298 11.056 26.3938 10.928 26.7671 10.672C27.1405 10.416 27.4125 10.0693 27.5831 9.632H28.9111C28.6978 10.368 28.2871 10.9813 27.6791 11.472C27.0818 11.952 26.3138 12.192 25.3751 12.192ZM25.3751 5.008C24.7351 5.008 24.1645 5.20533 23.6631 5.6C23.1725 5.984 22.8898 6.54933 22.8151 7.296H27.8071C27.7751 6.58133 27.5298 6.02133 27.0711 5.616C26.6125 5.21067 26.0471 5.008 25.3751 5.008ZM30.9165 12V4.064H32.1325L32.2445 5.584C32.4898 5.06133 32.8632 4.64533 33.3645 4.336C33.8658 4.02667 34.4845 3.872 35.2205 3.872V5.28H34.8525C34.3832 5.28 33.9512 5.36533 33.5565 5.536C33.1618 5.696 32.8472 5.97333 32.6125 6.368C32.3778 6.76267 32.2605 7.30667 32.2605 8V12H30.9165ZM39.865 12C39.1397 12 38.569 11.824 38.153 11.472C37.737 11.12 37.529 10.4853 37.529 9.568V5.2H36.153V4.064H37.529L37.705 2.16H38.873V4.064H41.209V5.2H38.873V9.568C38.873 10.0693 38.9743 10.4107 39.177 10.592C39.3797 10.7627 39.737 10.848 40.249 10.848H41.081V12H39.865Z" fill="black" fill-opacity="0.5"/>
</svg>
