<svg width="52" height="16" viewBox="0 0 52 16" fill="none" xmlns="http://www.w3.org/2000/svg">
<path d="M0.368 12L4.464 0.799999H6.768L10.864 12H8.688L7.792 9.408H3.424L2.512 12H0.368ZM3.984 7.808H7.232L5.6 3.152L3.984 7.808ZM12.2588 15.52V4.064H14.0828L14.3068 5.2C14.5628 4.848 14.8988 4.53867 15.3148 4.272C15.7414 4.00533 16.2908 3.872 16.9628 3.872C17.7094 3.872 18.3761 4.05333 18.9628 4.416C19.5494 4.77867 20.0134 5.27467 20.3548 5.904C20.6961 6.53333 20.8668 7.248 20.8668 8.048C20.8668 8.848 20.6961 9.56267 20.3548 10.192C20.0134 10.8107 19.5494 11.3013 18.9628 11.664C18.3761 12.016 17.7094 12.192 16.9628 12.192C16.3654 12.192 15.8428 12.08 15.3948 11.856C14.9468 11.632 14.5841 11.3173 14.3068 10.912V15.52H12.2588ZM16.5308 10.4C17.1814 10.4 17.7201 10.1813 18.1468 9.744C18.5734 9.30667 18.7868 8.74133 18.7868 8.048C18.7868 7.35467 18.5734 6.784 18.1468 6.336C17.7201 5.888 17.1814 5.664 16.5308 5.664C15.8694 5.664 15.3254 5.888 14.8988 6.336C14.4828 6.77333 14.2748 7.33867 14.2748 8.032C14.2748 8.72533 14.4828 9.296 14.8988 9.744C15.3254 10.1813 15.8694 10.4 16.5308 10.4ZM26.5523 12.192C25.7523 12.192 25.0429 12.0213 24.4243 11.68C23.8056 11.3387 23.3203 10.8587 22.9683 10.24C22.6163 9.62133 22.4403 8.90667 22.4403 8.096C22.4403 7.27467 22.6109 6.544 22.9523 5.904C23.3043 5.264 23.7843 4.768 24.3923 4.416C25.0109 4.05333 25.7363 3.872 26.5683 3.872C27.3469 3.872 28.0349 4.04267 28.6323 4.384C29.2296 4.72533 29.6936 5.19467 30.0243 5.792C30.3656 6.37867 30.5363 7.03467 30.5363 7.76C30.5363 7.87733 30.5309 8 30.5203 8.128C30.5203 8.256 30.5149 8.38933 30.5043 8.528H24.4723C24.5149 9.14667 24.7283 9.632 25.1123 9.984C25.5069 10.336 25.9816 10.512 26.5363 10.512C26.9523 10.512 27.2989 10.4213 27.5763 10.24C27.8643 10.048 28.0776 9.80267 28.2163 9.504H30.2963C30.1469 10.0053 29.8963 10.464 29.5443 10.88C29.2029 11.2853 28.7763 11.6053 28.2643 11.84C27.7629 12.0747 27.1923 12.192 26.5523 12.192ZM26.5683 5.536C26.0669 5.536 25.6243 5.68 25.2403 5.968C24.8563 6.24533 24.6109 6.672 24.5043 7.248H28.4563C28.4243 6.72533 28.2323 6.30933 27.8803 6C27.5283 5.69067 27.0909 5.536 26.5683 5.536ZM32.2588 12V4.064H34.0828L34.2748 5.552C34.5628 5.04 34.9521 4.63467 35.4427 4.336C35.9441 4.02667 36.5308 3.872 37.2028 3.872V6.032H36.6268C36.1788 6.032 35.7788 6.10133 35.4268 6.24C35.0748 6.37867 34.7974 6.61867 34.5948 6.96C34.4028 7.30133 34.3068 7.776 34.3068 8.384V12H32.2588ZM39.7065 2.832C39.3332 2.832 39.0238 2.72 38.7785 2.496C38.5438 2.272 38.4265 1.98933 38.4265 1.648C38.4265 1.30667 38.5438 1.02933 38.7785 0.815999C39.0238 0.591999 39.3332 0.48 39.7065 0.48C40.0798 0.48 40.3838 0.591999 40.6185 0.815999C40.8638 1.02933 40.9865 1.30667 40.9865 1.648C40.9865 1.98933 40.8638 2.272 40.6185 2.496C40.3838 2.72 40.0798 2.832 39.7065 2.832ZM38.6825 12V4.064H40.7305V12H38.6825ZM42.8681 12V4.064H44.6921L44.8841 5.552C45.1721 5.04 45.5615 4.63467 46.0521 4.336C46.5535 4.02667 47.1401 3.872 47.8121 3.872V6.032H47.2361C46.7881 6.032 46.3881 6.10133 46.0361 6.24C45.6841 6.37867 45.4068 6.61867 45.2041 6.96C45.0121 7.30133 44.9161 7.776 44.9161 8.384V12H42.8681ZM50.3159 2.832C49.9425 2.832 49.6332 2.72 49.3879 2.496C49.1532 2.272 49.0359 1.98933 49.0359 1.648C49.0359 1.30667 49.1532 1.02933 49.3879 0.815999C49.6332 0.591999 49.9425 0.48 50.3159 0.48C50.6892 0.48 50.9932 0.591999 51.2279 0.815999C51.4732 1.02933 51.5959 1.30667 51.5959 1.648C51.5959 1.98933 51.4732 2.272 51.2279 2.496C50.9932 2.72 50.6892 2.832 50.3159 2.832ZM49.2919 12V4.064H51.3399V12H49.2919Z" fill="black"/>
</svg>
