<svg width="48" height="13" viewBox="0 0 48 13" fill="none" xmlns="http://www.w3.org/2000/svg">
<path d="M0.48 12L4.608 0.799999H6.032L10.144 12H8.72L7.696 9.12H2.928L1.888 12H0.48ZM3.328 8.032H7.296L5.312 2.496L3.328 8.032ZM18.5011 4.064V12H17.2851L17.2051 10.576C16.9491 11.0773 16.5811 11.472 16.1011 11.76C15.6211 12.048 15.0771 12.192 14.4691 12.192C13.5305 12.192 12.7785 11.9093 12.2131 11.344C11.6585 10.768 11.3811 9.888 11.3811 8.704V4.064H12.7251V8.56C12.7251 10.2133 13.4078 11.04 14.7731 11.04C15.4558 11.04 16.0211 10.7947 16.4691 10.304C16.9278 9.80267 17.1571 9.09333 17.1571 8.176V4.064H18.5011ZM24.3134 12.192C23.524 12.192 22.8307 12.0107 22.2334 11.648C21.6467 11.2853 21.188 10.7893 20.8574 10.16C20.5374 9.53067 20.3774 8.816 20.3774 8.016C20.3774 7.216 20.5427 6.50667 20.8734 5.888C21.204 5.25867 21.6627 4.768 22.2494 4.416C22.836 4.05333 23.5294 3.872 24.3294 3.872C24.98 3.872 25.556 4.00533 26.0574 4.272C26.5587 4.53867 26.948 4.912 27.2254 5.392V0.48H28.5694V12H27.3534L27.2254 10.688C26.9694 11.072 26.6014 11.4187 26.1214 11.728C25.6414 12.0373 25.0387 12.192 24.3134 12.192ZM24.4574 11.024C24.9907 11.024 25.46 10.9013 25.8654 10.656C26.2814 10.4 26.6014 10.048 26.8254 9.6C27.06 9.152 27.1774 8.62933 27.1774 8.032C27.1774 7.43467 27.06 6.912 26.8254 6.464C26.6014 6.016 26.2814 5.66933 25.8654 5.424C25.46 5.168 24.9907 5.04 24.4574 5.04C23.9347 5.04 23.4654 5.168 23.0494 5.424C22.644 5.66933 22.324 6.016 22.0894 6.464C21.8654 6.912 21.7534 7.43467 21.7534 8.032C21.7534 8.62933 21.8654 9.152 22.0894 9.6C22.324 10.048 22.644 10.4 23.0494 10.656C23.4654 10.9013 23.9347 11.024 24.4574 11.024ZM31.5763 2.304C31.3096 2.304 31.0856 2.21867 30.9043 2.048C30.7336 1.86667 30.6483 1.64267 30.6483 1.376C30.6483 1.12 30.7336 0.906666 30.9043 0.735999C31.0856 0.565333 31.3096 0.48 31.5763 0.48C31.8323 0.48 32.0509 0.565333 32.2323 0.735999C32.4136 0.906666 32.5043 1.12 32.5043 1.376C32.5043 1.64267 32.4136 1.86667 32.2323 2.048C32.0509 2.21867 31.8323 2.304 31.5763 2.304ZM30.9043 12V4.064H32.2483V12H30.9043ZM34.5884 12V4.064H35.8044L35.9164 5.584C36.1617 5.06133 36.535 4.64533 37.0364 4.336C37.5377 4.02667 38.1564 3.872 38.8924 3.872V5.28H38.5244C38.055 5.28 37.623 5.36533 37.2284 5.536C36.8337 5.696 36.519 5.97333 36.2844 6.368C36.0497 6.76267 35.9324 7.30667 35.9324 8V12H34.5884ZM43.672 12.192C42.9147 12.192 42.2427 12.0213 41.656 11.68C41.0693 11.328 40.6053 10.8427 40.264 10.224C39.9333 9.60533 39.768 8.87467 39.768 8.032C39.768 7.2 39.9333 6.47467 40.264 5.856C40.5947 5.22667 41.0533 4.74133 41.64 4.4C42.2373 4.048 42.9253 3.872 43.704 3.872C44.472 3.872 45.1333 4.048 45.688 4.4C46.2533 4.74133 46.6853 5.19467 46.984 5.76C47.2827 6.32533 47.432 6.93333 47.432 7.584C47.432 7.70133 47.4267 7.81867 47.416 7.936C47.416 8.05333 47.416 8.18667 47.416 8.336H41.096C41.128 8.944 41.2667 9.45067 41.512 9.856C41.768 10.2507 42.0827 10.5493 42.456 10.752C42.84 10.9547 43.2453 11.056 43.672 11.056C44.2267 11.056 44.6907 10.928 45.064 10.672C45.4373 10.416 45.7093 10.0693 45.88 9.632H47.208C46.9947 10.368 46.584 10.9813 45.976 11.472C45.3787 11.952 44.6107 12.192 43.672 12.192ZM43.672 5.008C43.032 5.008 42.4613 5.20533 41.96 5.6C41.4693 5.984 41.1867 6.54933 41.112 7.296H46.104C46.072 6.58133 45.8267 6.02133 45.368 5.616C44.9093 5.21067 44.344 5.008 43.672 5.008Z" fill="black" fill-opacity="0.5"/>
</svg>
