<svg width="161" height="24" viewBox="0 0 161 24" fill="none" xmlns="http://www.w3.org/2000/svg">
<path d="M8.04 18.432C7.016 18.432 6.048 18.248 5.136 17.88L4.08 19.368C5.12 19.624 6.304 19.896 7.632 20.184C8.976 20.488 10.296 20.776 11.592 21.048C12.216 21.176 12.68 21.232 12.984 21.216C13.304 21.216 13.592 21.136 13.848 20.976L14.496 20.568L14.688 20.832L13.464 22.152C13.112 22.52 12.768 22.816 12.432 23.04C12.096 23.28 11.72 23.4 11.304 23.4C10.968 23.4 10.488 23.344 9.864 23.232C9.24 23.136 8.544 23.008 7.776 22.848C7.008 22.704 6.24 22.544 5.472 22.368C4.704 22.208 4.008 22.064 3.384 21.936C3.128 21.872 2.896 21.856 2.688 21.888C2.48 21.936 2.28 22.064 2.088 22.272L1.8 22.56L1.512 22.344L4.536 17.592C3.368 17 2.4 16.08 1.632 14.832C0.864 13.568 0.48 11.984 0.48 10.08C0.48 8.704 0.688 7.496 1.104 6.456C1.52 5.416 2.088 4.552 2.808 3.864C3.528 3.16 4.336 2.632 5.232 2.28C6.144 1.912 7.08 1.728 8.04 1.728C9.016 1.728 9.952 1.904 10.848 2.256C11.76 2.592 12.568 3.112 13.272 3.816C13.992 4.504 14.56 5.376 14.976 6.432C15.392 7.472 15.6 8.688 15.6 10.08C15.6 11.44 15.392 12.648 14.976 13.704C14.56 14.744 13.992 15.616 13.272 16.32C12.568 17.008 11.76 17.536 10.848 17.904C9.952 18.256 9.016 18.432 8.04 18.432ZM8.04 17.928C8.92 17.928 9.632 17.696 10.176 17.232C10.72 16.752 11.112 15.944 11.352 14.808C11.608 13.656 11.736 12.08 11.736 10.08C11.736 8.064 11.608 6.488 11.352 5.352C11.112 4.2 10.72 3.392 10.176 2.928C9.632 2.448 8.92 2.208 8.04 2.208C7.176 2.208 6.472 2.448 5.928 2.928C5.384 3.392 4.984 4.2 4.728 5.352C4.488 6.488 4.368 8.064 4.368 10.08C4.368 12.08 4.488 13.656 4.728 14.808C4.984 15.944 5.384 16.752 5.928 17.232C6.472 17.696 7.176 17.928 8.04 17.928ZM20.9021 18.36C20.2781 18.36 19.7021 18.24 19.1741 18C18.6621 17.76 18.2541 17.376 17.9501 16.848C17.6621 16.304 17.5261 15.592 17.5421 14.712L17.6141 8.544C17.6141 8.176 17.5501 7.912 17.4221 7.752C17.2941 7.592 17.0941 7.48 16.8221 7.416L16.5341 7.32V7.08L20.8301 6.24L21.0701 6.48L20.9501 9.888V15.672C20.9501 16.184 21.0941 16.56 21.3821 16.8C21.6861 17.04 22.0621 17.16 22.5101 17.16C22.9581 17.16 23.3581 17.096 23.7101 16.968C24.0621 16.84 24.4141 16.648 24.7661 16.392L24.8621 8.568C24.8621 8.2 24.8061 7.944 24.6941 7.8C24.5821 7.64 24.3741 7.528 24.0701 7.464L23.8301 7.392V7.152L28.0301 6.24L28.2701 6.48L28.1981 9.888V16.392C28.1981 16.744 28.2461 17.016 28.3421 17.208C28.4381 17.4 28.6461 17.56 28.9661 17.688L29.2061 17.76V18L25.0061 18.24L24.7901 16.824C24.2621 17.256 23.6861 17.624 23.0621 17.928C22.4541 18.216 21.7341 18.36 20.9021 18.36ZM33.0553 4.848C32.5113 4.848 32.0473 4.68 31.6633 4.344C31.2953 3.992 31.1113 3.552 31.1113 3.024C31.1113 2.48 31.2953 2.04 31.6633 1.704C32.0473 1.368 32.5113 1.2 33.0553 1.2C33.5993 1.2 34.0553 1.368 34.4233 1.704C34.7913 2.04 34.9753 2.48 34.9753 3.024C34.9753 3.552 34.7913 3.992 34.4233 4.344C34.0553 4.68 33.5993 4.848 33.0553 4.848ZM30.2233 18V17.76L30.5593 17.664C30.8793 17.568 31.0953 17.424 31.2073 17.232C31.3353 17.04 31.3993 16.784 31.3993 16.464V8.952C31.3993 8.616 31.3353 8.368 31.2073 8.208C31.0953 8.032 30.8793 7.912 30.5593 7.848L30.2233 7.776V7.536L34.6153 6.12L34.8553 6.36L34.7833 9.768V16.488C34.7833 16.808 34.8393 17.064 34.9513 17.256C35.0793 17.448 35.2953 17.592 35.5993 17.688L35.8393 17.76V18H30.2233ZM41.9899 18.36C41.0459 18.36 40.1979 18.152 39.4459 17.736C38.6939 17.304 38.0939 16.648 37.6459 15.768C37.2139 14.872 36.9979 13.728 36.9979 12.336C36.9979 10.928 37.2459 9.768 37.7419 8.856C38.2379 7.928 38.8939 7.24 39.7099 6.792C40.5259 6.328 41.4139 6.096 42.3739 6.096C42.9339 6.096 43.4699 6.152 43.9819 6.264C44.4939 6.376 44.9499 6.544 45.3499 6.768V3.648C45.3499 3.312 45.2939 3.064 45.1819 2.904C45.0859 2.744 44.8699 2.632 44.5339 2.568L44.0779 2.472V2.232L48.4459 1.176L48.7099 1.392L48.6139 4.752V16.488C48.6139 16.808 48.6699 17.072 48.7819 17.28C48.8939 17.472 49.1019 17.608 49.4059 17.688L49.6219 17.76V18L45.5179 18.264L45.3019 17.4C44.8699 17.688 44.3739 17.92 43.8139 18.096C43.2699 18.272 42.6619 18.36 41.9899 18.36ZM43.3819 17.472C44.0539 17.472 44.6699 17.272 45.2299 16.872V7.344C44.6379 6.96 44.0299 6.768 43.4059 6.768C42.6379 6.768 41.9819 7.216 41.4379 8.112C40.8939 8.992 40.6219 10.384 40.6219 12.288C40.6219 14.192 40.8779 15.536 41.3899 16.32C41.9019 17.088 42.5659 17.472 43.3819 17.472ZM53.9528 18.36C53.0248 18.36 52.2408 18.096 51.6008 17.568C50.9768 17.04 50.6648 16.28 50.6648 15.288C50.6648 14.536 51.0488 13.848 51.8168 13.224C52.5848 12.584 53.7928 12.104 55.4408 11.784C55.6968 11.736 55.9848 11.688 56.3047 11.64C56.6248 11.576 56.9608 11.512 57.3128 11.448V9.552C57.3128 8.464 57.1768 7.704 56.9048 7.272C56.6488 6.824 56.2408 6.6 55.6808 6.6C55.2968 6.6 54.9928 6.728 54.7688 6.984C54.5448 7.224 54.4008 7.648 54.3368 8.256L54.2888 8.52C54.2568 9.208 54.0888 9.712 53.7848 10.032C53.4808 10.352 53.1048 10.512 52.6568 10.512C52.2408 10.512 51.8968 10.384 51.6248 10.128C51.3528 9.872 51.2168 9.528 51.2168 9.096C51.2168 8.44 51.4408 7.888 51.8888 7.44C52.3528 6.992 52.9608 6.656 53.7128 6.432C54.4648 6.208 55.2808 6.096 56.1608 6.096C57.5848 6.096 58.6808 6.448 59.4488 7.152C60.2328 7.84 60.6248 8.968 60.6248 10.536V15.84C60.6248 16.56 60.9608 16.92 61.6328 16.92H62.1608L62.3768 17.112C62.0728 17.496 61.7368 17.792 61.3688 18C61.0168 18.208 60.5128 18.312 59.8568 18.312C59.1528 18.312 58.5928 18.152 58.1768 17.832C57.7768 17.496 57.5128 17.056 57.3848 16.512C56.9048 17.024 56.4088 17.464 55.8968 17.832C55.4008 18.184 54.7528 18.36 53.9528 18.36ZM55.4168 16.896C55.7368 16.896 56.0328 16.824 56.3047 16.68C56.5928 16.52 56.9288 16.28 57.3128 15.96V11.928C57.1528 11.96 56.9928 11.992 56.8328 12.024C56.6728 12.056 56.4888 12.088 56.2808 12.12C55.5448 12.312 54.9528 12.64 54.5048 13.104C54.0728 13.552 53.8568 14.16 53.8568 14.928C53.8568 15.584 54.0088 16.08 54.3128 16.416C54.6168 16.736 54.9848 16.896 55.4168 16.896ZM62.8238 18V17.76L63.1598 17.664C63.4638 17.584 63.6718 17.448 63.7838 17.256C63.9118 17.064 63.9838 16.808 63.9998 16.488V8.976C63.9998 8.624 63.9438 8.368 63.8318 8.208C63.7198 8.032 63.5038 7.912 63.1838 7.848L62.8238 7.752V7.512L66.9278 6.12L67.1678 6.36L67.3598 7.992C67.8878 7.464 68.4878 7.016 69.1598 6.648C69.8478 6.28 70.5598 6.096 71.2958 6.096C72.0638 6.096 72.6798 6.256 73.1438 6.576C73.6078 6.88 73.9598 7.36 74.1998 8.016C74.8238 7.424 75.4958 6.96 76.2158 6.624C76.9518 6.272 77.6638 6.096 78.3518 6.096C79.4878 6.096 80.3198 6.368 80.8478 6.912C81.3918 7.456 81.6638 8.312 81.6638 9.48V16.512C81.6638 17.136 81.9518 17.528 82.5278 17.688L82.7918 17.76V18H77.2478V17.76L77.4878 17.688C77.7918 17.592 77.9998 17.448 78.1118 17.256C78.2398 17.064 78.3038 16.808 78.3038 16.488V9.144C78.3038 8.472 78.1838 8.016 77.9438 7.776C77.7038 7.52 77.3198 7.392 76.7918 7.392C76.3758 7.392 75.9678 7.488 75.5677 7.68C75.1838 7.856 74.7758 8.128 74.3438 8.496C74.4237 8.752 74.4718 9.032 74.4878 9.336C74.5198 9.64 74.5358 9.96 74.5358 10.296V16.512C74.5518 17.136 74.8398 17.528 75.3998 17.688L75.6158 17.76V18H70.0478V17.76L70.3838 17.664C70.6878 17.568 70.8958 17.432 71.0078 17.256C71.1358 17.064 71.1998 16.808 71.1998 16.488V9.168C71.1998 8.528 71.0798 8.072 70.8398 7.8C70.6158 7.528 70.2238 7.392 69.6638 7.392C69.2958 7.392 68.9278 7.488 68.5598 7.68C68.1918 7.856 67.8078 8.12 67.4078 8.472V16.512C67.4078 17.136 67.6878 17.528 68.2478 17.688L68.4638 17.76V18H62.8238ZM95.0286 18.36C93.8126 18.36 92.7566 18.112 91.8606 17.616C90.9646 17.104 90.2686 16.384 89.7726 15.456C89.2926 14.528 89.0526 13.44 89.0526 12.192C89.0526 10.944 89.3086 9.864 89.8206 8.952C90.3486 8.04 91.0606 7.336 91.9566 6.84C92.8686 6.344 93.8926 6.096 95.0286 6.096C96.1646 6.096 97.1806 6.344 98.0766 6.84C98.9726 7.32 99.6766 8.016 100.189 8.928C100.717 9.84 100.981 10.928 100.981 12.192C100.981 13.456 100.733 14.552 100.237 15.48C99.7566 16.392 99.0686 17.104 98.1726 17.616C97.2926 18.112 96.2446 18.36 95.0286 18.36ZM95.0286 17.88C95.5886 17.88 96.0366 17.72 96.3726 17.4C96.7086 17.08 96.9486 16.512 97.0926 15.696C97.2526 14.88 97.3326 13.728 97.3326 12.24C97.3326 10.736 97.2526 9.576 97.0926 8.76C96.9486 7.944 96.7086 7.376 96.3726 7.056C96.0366 6.736 95.5886 6.576 95.0286 6.576C94.4686 6.576 94.0126 6.736 93.6606 7.056C93.3246 7.376 93.0766 7.944 92.9166 8.76C92.7726 9.576 92.7006 10.736 92.7006 12.24C92.7006 13.728 92.7726 14.88 92.9166 15.696C93.0766 16.512 93.3246 17.08 93.6606 17.4C94.0126 17.72 94.4686 17.88 95.0286 17.88ZM102.083 18V17.76L102.395 17.688C102.699 17.608 102.939 17.472 103.115 17.28C103.291 17.072 103.379 16.808 103.379 16.488C103.379 15.896 103.379 15.312 103.379 14.736C103.395 14.144 103.403 13.552 103.403 12.96V6.936H102.059V6.672L102.587 6.576C102.907 6.544 103.139 6.432 103.283 6.24C103.427 6.048 103.531 5.784 103.595 5.448C103.755 4.824 103.987 4.28 104.291 3.816C104.611 3.336 104.971 2.896 105.371 2.496C105.979 1.92 106.619 1.52 107.291 1.296C107.979 1.056 108.651 0.935999 109.307 0.935999C109.947 0.935999 110.531 1.072 111.059 1.344C111.587 1.6 111.851 2.032 111.851 2.64C111.851 3.072 111.723 3.416 111.467 3.672C111.211 3.912 110.851 4.032 110.387 4.032C110.003 4.032 109.651 3.928 109.331 3.72C109.011 3.512 108.699 3.144 108.395 2.616L108.059 2.208C107.883 1.984 107.707 1.88 107.531 1.896C107.355 1.896 107.227 2.024 107.147 2.28C107.035 2.84 106.947 3.496 106.883 4.248C106.835 5 106.811 5.736 106.811 6.456H109.499V6.936H106.811V16.44C106.811 17.048 107.131 17.44 107.771 17.616L108.371 17.76V18H102.083ZM110.309 18V17.76L110.621 17.688C110.925 17.608 111.165 17.472 111.341 17.28C111.517 17.072 111.605 16.808 111.605 16.488C111.605 15.896 111.605 15.312 111.605 14.736C111.621 14.144 111.629 13.552 111.629 12.96V6.936H110.285V6.672L110.813 6.576C111.133 6.544 111.365 6.432 111.509 6.24C111.653 6.048 111.757 5.784 111.821 5.448C111.981 4.824 112.213 4.28 112.517 3.816C112.837 3.336 113.197 2.896 113.597 2.496C114.205 1.92 114.845 1.52 115.517 1.296C116.205 1.056 116.877 0.935999 117.533 0.935999C118.173 0.935999 118.757 1.072 119.285 1.344C119.813 1.6 120.077 2.032 120.077 2.64C120.077 3.072 119.949 3.416 119.693 3.672C119.437 3.912 119.077 4.032 118.613 4.032C118.229 4.032 117.877 3.928 117.557 3.72C117.237 3.512 116.925 3.144 116.621 2.616L116.285 2.208C116.109 1.984 115.933 1.88 115.757 1.896C115.581 1.896 115.453 2.024 115.373 2.28C115.261 2.84 115.173 3.496 115.109 4.248C115.061 5 115.037 5.736 115.037 6.456H117.725V6.936H115.037V16.44C115.037 17.048 115.357 17.44 115.997 17.616L116.597 17.76V18H110.309ZM122.352 4.848C121.808 4.848 121.344 4.68 120.96 4.344C120.592 3.992 120.408 3.552 120.408 3.024C120.408 2.48 120.592 2.04 120.96 1.704C121.344 1.368 121.808 1.2 122.352 1.2C122.896 1.2 123.352 1.368 123.72 1.704C124.088 2.04 124.272 2.48 124.272 3.024C124.272 3.552 124.088 3.992 123.72 4.344C123.352 4.68 122.896 4.848 122.352 4.848ZM119.52 18V17.76L119.856 17.664C120.176 17.568 120.392 17.424 120.504 17.232C120.632 17.04 120.696 16.784 120.696 16.464V8.952C120.696 8.616 120.632 8.368 120.504 8.208C120.392 8.032 120.176 7.912 119.856 7.848L119.52 7.776V7.536L123.912 6.12L124.152 6.36L124.08 9.768V16.488C124.08 16.808 124.136 17.064 124.248 17.256C124.376 17.448 124.592 17.592 124.896 17.688L125.136 17.76V18H119.52ZM132.151 18.36C131.063 18.36 130.071 18.128 129.175 17.664C128.295 17.184 127.591 16.496 127.063 15.6C126.551 14.688 126.295 13.576 126.295 12.264C126.295 10.968 126.575 9.864 127.135 8.952C127.711 8.024 128.471 7.32 129.415 6.84C130.375 6.344 131.423 6.096 132.559 6.096C133.487 6.096 134.271 6.248 134.911 6.552C135.551 6.856 136.039 7.256 136.375 7.752C136.711 8.232 136.879 8.736 136.879 9.264C136.879 9.712 136.743 10.064 136.471 10.32C136.199 10.56 135.847 10.68 135.415 10.68C134.951 10.68 134.575 10.512 134.287 10.176C133.999 9.84 133.831 9.4 133.783 8.856C133.767 8.504 133.775 8.208 133.807 7.968C133.839 7.712 133.839 7.456 133.807 7.2C133.743 6.928 133.639 6.752 133.495 6.672C133.367 6.576 133.183 6.528 132.943 6.528C131.967 6.528 131.207 6.952 130.663 7.8C130.135 8.648 129.871 10 129.871 11.856C129.871 13.472 130.167 14.712 130.759 15.576C131.367 16.424 132.295 16.848 133.543 16.848C134.295 16.848 134.903 16.712 135.367 16.44C135.831 16.168 136.279 15.76 136.711 15.216L136.951 15.408C136.551 16.352 135.935 17.08 135.103 17.592C134.271 18.104 133.287 18.36 132.151 18.36ZM140.938 4.848C140.394 4.848 139.93 4.68 139.546 4.344C139.178 3.992 138.994 3.552 138.994 3.024C138.994 2.48 139.178 2.04 139.546 1.704C139.93 1.368 140.394 1.2 140.938 1.2C141.482 1.2 141.938 1.368 142.306 1.704C142.674 2.04 142.858 2.48 142.858 3.024C142.858 3.552 142.674 3.992 142.306 4.344C141.938 4.68 141.482 4.848 140.938 4.848ZM138.106 18V17.76L138.442 17.664C138.762 17.568 138.978 17.424 139.09 17.232C139.218 17.04 139.282 16.784 139.282 16.464V8.952C139.282 8.616 139.218 8.368 139.09 8.208C138.978 8.032 138.762 7.912 138.442 7.848L138.106 7.776V7.536L142.498 6.12L142.738 6.36L142.666 9.768V16.488C142.666 16.808 142.722 17.064 142.834 17.256C142.962 17.448 143.178 17.592 143.482 17.688L143.722 17.76V18H138.106ZM147.665 4.848C147.121 4.848 146.657 4.68 146.273 4.344C145.905 3.992 145.721 3.552 145.721 3.024C145.721 2.48 145.905 2.04 146.273 1.704C146.657 1.368 147.121 1.2 147.665 1.2C148.209 1.2 148.665 1.368 149.033 1.704C149.401 2.04 149.585 2.48 149.585 3.024C149.585 3.552 149.401 3.992 149.033 4.344C148.665 4.68 148.209 4.848 147.665 4.848ZM144.833 18V17.76L145.169 17.664C145.489 17.568 145.705 17.424 145.817 17.232C145.945 17.04 146.009 16.784 146.009 16.464V8.952C146.009 8.616 145.945 8.368 145.817 8.208C145.705 8.032 145.489 7.912 145.169 7.848L144.833 7.776V7.536L149.225 6.12L149.465 6.36L149.393 9.768V16.488C149.393 16.808 149.449 17.064 149.561 17.256C149.689 17.448 149.905 17.592 150.209 17.688L150.449 17.76V18H144.833ZM155.663 18.36C154.879 18.36 154.175 18.264 153.551 18.072C152.927 17.896 152.351 17.672 151.823 17.4L151.847 14.544H152.087L152.903 15.984C153.255 16.624 153.639 17.104 154.055 17.424C154.487 17.728 155.031 17.88 155.687 17.88C156.455 17.88 157.071 17.712 157.535 17.376C158.015 17.024 158.255 16.56 158.255 15.984C158.255 15.456 158.087 15.024 157.751 14.688C157.415 14.352 156.791 14.048 155.879 13.776L154.871 13.464C153.895 13.176 153.127 12.728 152.567 12.12C152.007 11.512 151.727 10.768 151.727 9.888C151.727 8.832 152.143 7.936 152.975 7.2C153.807 6.464 154.999 6.096 156.551 6.096C157.175 6.096 157.759 6.168 158.303 6.312C158.863 6.44 159.399 6.64 159.911 6.912L159.767 9.504H159.527L158.687 8.016C158.383 7.488 158.079 7.12 157.775 6.912C157.487 6.688 157.047 6.576 156.455 6.576C155.911 6.576 155.399 6.728 154.919 7.032C154.439 7.336 154.199 7.768 154.199 8.328C154.199 8.872 154.399 9.304 154.799 9.624C155.215 9.944 155.823 10.24 156.623 10.512L157.703 10.824C158.855 11.176 159.679 11.664 160.175 12.288C160.671 12.896 160.919 13.632 160.919 14.496C160.919 15.664 160.455 16.6 159.527 17.304C158.615 18.008 157.327 18.36 155.663 18.36Z" fill="black"/>
</svg>
