<svg width="72" height="12" viewBox="0 0 72 12" fill="none" xmlns="http://www.w3.org/2000/svg">
<path d="M3.012 9.144C2.196 9.144 1.54 8.916 1.044 8.46C0.556 7.996 0.312 7.34 0.312 6.492H1.848C1.856 6.884 1.948 7.196 2.124 7.428C2.3 7.66 2.584 7.776 2.976 7.776C3.344 7.776 3.612 7.668 3.78 7.452C3.948 7.228 4.032 6.936 4.032 6.576V0.599999H5.568V6.576C5.568 7.4 5.336 8.036 4.872 8.484C4.416 8.924 3.796 9.144 3.012 9.144ZM12.9027 3.048V9H11.5467L11.4267 7.992C11.2427 8.344 10.9747 8.624 10.6227 8.832C10.2787 9.04 9.87072 9.144 9.39872 9.144C8.66272 9.144 8.09072 8.912 7.68272 8.448C7.27472 7.984 7.07072 7.304 7.07072 6.408V3.048H8.60672V6.264C8.60672 6.776 8.71072 7.168 8.91872 7.44C9.12672 7.712 9.45072 7.848 9.89072 7.848C10.3227 7.848 10.6747 7.696 10.9467 7.392C11.2267 7.088 11.3667 6.664 11.3667 6.12V3.048H12.9027ZM14.4675 9V0.36H16.0035V9H14.4675ZM18.317 11.64L19.697 8.604H19.337L17.021 3.048H18.689L20.357 7.236L22.097 3.048H23.729L19.949 11.64H18.317ZM28.5405 9V2.352L27.1605 2.676V1.5L29.1885 0.599999H30.1365V9H28.5405ZM35.2092 9.144C34.4332 9.144 33.7692 8.964 33.2172 8.604C32.6652 8.236 32.2372 7.728 31.9332 7.08C31.6372 6.424 31.4892 5.664 31.4892 4.8C31.4892 3.944 31.6372 3.188 31.9332 2.532C32.2372 1.876 32.6652 1.368 33.2172 1.008C33.7692 0.64 34.4332 0.456 35.2092 0.456C35.9852 0.456 36.6492 0.64 37.2012 1.008C37.7532 1.368 38.1772 1.876 38.4732 2.532C38.7772 3.188 38.9292 3.944 38.9292 4.8C38.9292 5.664 38.7772 6.424 38.4732 7.08C38.1772 7.728 37.7532 8.236 37.2012 8.604C36.6492 8.964 35.9852 9.144 35.2092 9.144ZM35.2092 7.764C35.8412 7.764 36.3572 7.5 36.7572 6.972C37.1572 6.444 37.3572 5.72 37.3572 4.8C37.3572 3.88 37.1572 3.156 36.7572 2.628C36.3572 2.1 35.8412 1.836 35.2092 1.836C34.5692 1.836 34.0492 2.1 33.6492 2.628C33.2572 3.156 33.0612 3.88 33.0612 4.8C33.0612 5.72 33.2572 6.444 33.6492 6.972C34.0492 7.5 34.5692 7.764 35.2092 7.764ZM39.2735 10.392L39.9575 7.404H41.4455L40.2815 10.392H39.2735ZM45.3542 9V7.884C45.8662 7.46 46.3622 7.04 46.8422 6.624C47.3302 6.208 47.7622 5.796 48.1382 5.388C48.5222 4.98 48.8262 4.584 49.0502 4.2C49.2822 3.808 49.3982 3.428 49.3982 3.06C49.3982 2.716 49.3022 2.412 49.1102 2.148C48.9262 1.884 48.6182 1.752 48.1862 1.752C47.7462 1.752 47.4142 1.896 47.1902 2.184C46.9662 2.472 46.8542 2.82 46.8542 3.228H45.3662C45.3822 2.612 45.5182 2.1 45.7742 1.692C46.0302 1.276 46.3702 0.968 46.7942 0.767999C47.2182 0.56 47.6942 0.456 48.2222 0.456C49.0782 0.456 49.7422 0.692 50.2142 1.164C50.6942 1.628 50.9342 2.232 50.9342 2.976C50.9342 3.44 50.8262 3.892 50.6102 4.332C50.4022 4.772 50.1262 5.196 49.7822 5.604C49.4382 6.012 49.0662 6.396 48.6662 6.756C48.2662 7.108 47.8782 7.436 47.5022 7.74H51.1382V9H45.3542ZM55.7991 9.144C55.0231 9.144 54.3591 8.964 53.8071 8.604C53.2551 8.236 52.8271 7.728 52.5231 7.08C52.2271 6.424 52.0791 5.664 52.0791 4.8C52.0791 3.944 52.2271 3.188 52.5231 2.532C52.8271 1.876 53.2551 1.368 53.8071 1.008C54.3591 0.64 55.0231 0.456 55.7991 0.456C56.5751 0.456 57.2391 0.64 57.7911 1.008C58.3431 1.368 58.7671 1.876 59.0631 2.532C59.3671 3.188 59.5191 3.944 59.5191 4.8C59.5191 5.664 59.3671 6.424 59.0631 7.08C58.7671 7.728 58.3431 8.236 57.7911 8.604C57.2391 8.964 56.5751 9.144 55.7991 9.144ZM55.7991 7.764C56.4311 7.764 56.9471 7.5 57.3471 6.972C57.7471 6.444 57.9471 5.72 57.9471 4.8C57.9471 3.88 57.7471 3.156 57.3471 2.628C56.9471 2.1 56.4311 1.836 55.7991 1.836C55.1591 1.836 54.6391 2.1 54.2391 2.628C53.8471 3.156 53.6511 3.88 53.6511 4.8C53.6511 5.72 53.8471 6.444 54.2391 6.972C54.6391 7.5 55.1591 7.764 55.7991 7.764ZM61.7866 9V2.352L60.4066 2.676V1.5L62.4346 0.599999H63.3826V9H61.7866ZM67.8313 0.456C68.4633 0.456 68.9953 0.572 69.4273 0.804C69.8593 1.036 70.2073 1.348 70.4713 1.74C70.7353 2.132 70.9233 2.568 71.0353 3.048C71.1553 3.528 71.2153 4.02 71.2153 4.524C71.2153 5.46 71.0833 6.276 70.8193 6.972C70.5553 7.66 70.1753 8.196 69.6793 8.58C69.1833 8.956 68.5833 9.144 67.8793 9.144C67.3033 9.144 66.8113 9.032 66.4033 8.808C66.0033 8.576 65.6913 8.276 65.4673 7.908C65.2433 7.54 65.1113 7.144 65.0713 6.72H66.4993C66.5713 7.088 66.7273 7.372 66.9673 7.572C67.2073 7.772 67.5153 7.872 67.8913 7.872C68.4273 7.872 68.8593 7.628 69.1873 7.14C69.5153 6.644 69.6913 5.892 69.7153 4.884C69.5233 5.212 69.2353 5.484 68.8513 5.7C68.4673 5.916 68.0393 6.024 67.5673 6.024C67.1033 6.024 66.6673 5.912 66.2593 5.688C65.8513 5.464 65.5193 5.148 65.2633 4.74C65.0153 4.332 64.8913 3.852 64.8913 3.3C64.8913 2.796 65.0113 2.328 65.2513 1.896C65.4993 1.464 65.8433 1.116 66.2833 0.852C66.7313 0.588 67.2473 0.456 67.8313 0.456ZM67.9153 1.776C67.4673 1.776 67.0953 1.916 66.7993 2.196C66.5113 2.468 66.3673 2.816 66.3673 3.24C66.3673 3.688 66.5153 4.048 66.8113 4.32C67.1073 4.592 67.4833 4.728 67.9393 4.728C68.2353 4.728 68.4993 4.664 68.7313 4.536C68.9713 4.4 69.1593 4.224 69.2953 4.008C69.4313 3.784 69.4993 3.536 69.4993 3.264C69.4993 2.832 69.3473 2.476 69.0433 2.196C68.7473 1.916 68.3713 1.776 67.9153 1.776Z" fill="black"/>
</svg>
