<svg width="563" height="52" viewBox="0 0 563 52" fill="none" xmlns="http://www.w3.org/2000/svg">
<path d="M0.351094 15V0.999999H9.01109V2.38H2.03109V7.26H8.41109V8.62H2.03109V13.62H9.01109V15H0.351094ZM20.2202 5.08V15H18.7002L18.6002 13.22C18.2802 13.8467 17.8202 14.34 17.2202 14.7C16.6202 15.06 15.9402 15.24 15.1802 15.24C14.0068 15.24 13.0668 14.8867 12.3602 14.18C11.6668 13.46 11.3202 12.36 11.3202 10.88V5.08H13.0002V10.7C13.0002 12.7667 13.8535 13.8 15.5602 13.8C16.4135 13.8 17.1202 13.4933 17.6802 12.88C18.2535 12.2533 18.5402 11.3667 18.5402 10.22V5.08H20.2202ZM28.2784 15V5.08H29.7984L29.9184 6.52C30.2384 5.98667 30.6651 5.57333 31.1984 5.28C31.7318 4.98667 32.3318 4.84 32.9984 4.84C33.7851 4.84 34.4584 5 35.0184 5.32C35.5918 5.64 36.0318 6.12667 36.3384 6.78C36.6851 6.18 37.1584 5.70667 37.7584 5.36C38.3718 5.01333 39.0318 4.84 39.7384 4.84C40.9251 4.84 41.8718 5.2 42.5784 5.92C43.2851 6.62667 43.6384 7.72 43.6384 9.2V15H41.9784V9.38C41.9784 8.35333 41.7718 7.58 41.3584 7.06C40.9451 6.54 40.3518 6.28 39.5784 6.28C38.7784 6.28 38.1118 6.59333 37.5784 7.22C37.0584 7.83333 36.7984 8.71333 36.7984 9.86V15H35.1184V9.38C35.1184 8.35333 34.9118 7.58 34.4984 7.06C34.0851 6.54 33.4918 6.28 32.7184 6.28C31.9318 6.28 31.2718 6.59333 30.7384 7.22C30.2184 7.83333 29.9584 8.71333 29.9584 9.86V15H28.2784ZM47.1891 2.88C46.8557 2.88 46.5757 2.77333 46.3491 2.56C46.1357 2.33333 46.0291 2.05333 46.0291 1.72C46.0291 1.4 46.1357 1.13333 46.3491 0.919999C46.5757 0.706666 46.8557 0.599999 47.1891 0.599999C47.5091 0.599999 47.7824 0.706666 48.0091 0.919999C48.2357 1.13333 48.3491 1.4 48.3491 1.72C48.3491 2.05333 48.2357 2.33333 48.0091 2.56C47.7824 2.77333 47.5091 2.88 47.1891 2.88ZM46.3491 15V5.08H48.0291V15H46.3491ZM50.9542 15V5.08H52.4742L52.5742 6.86C52.8942 6.23333 53.3542 5.74 53.9542 5.38C54.5542 5.02 55.2342 4.84 55.9942 4.84C57.1676 4.84 58.1009 5.2 58.7942 5.92C59.5009 6.62667 59.8542 7.72 59.8542 9.2V15H58.1742V9.38C58.1742 7.31333 57.3209 6.28 55.6142 6.28C54.7609 6.28 54.0476 6.59333 53.4742 7.22C52.9142 7.83333 52.6342 8.71333 52.6342 9.86V15H50.9542ZM63.4195 2.88C63.0862 2.88 62.8062 2.77333 62.5795 2.56C62.3662 2.33333 62.2595 2.05333 62.2595 1.72C62.2595 1.4 62.3662 1.13333 62.5795 0.919999C62.8062 0.706666 63.0862 0.599999 63.4195 0.599999C63.7395 0.599999 64.0129 0.706666 64.2395 0.919999C64.4662 1.13333 64.5795 1.4 64.5795 1.72C64.5795 2.05333 64.4662 2.33333 64.2395 2.56C64.0129 2.77333 63.7395 2.88 63.4195 2.88ZM62.5795 15V5.08H64.2595V15H62.5795ZM67.1847 15V5.08H68.7047L68.8247 6.52C69.1447 5.98667 69.5714 5.57333 70.1047 5.28C70.638 4.98667 71.238 4.84 71.9047 4.84C72.6914 4.84 73.3647 5 73.9247 5.32C74.498 5.64 74.938 6.12667 75.2447 6.78C75.5914 6.18 76.0647 5.70667 76.6647 5.36C77.278 5.01333 77.938 4.84 78.6447 4.84C79.8314 4.84 80.778 5.2 81.4847 5.92C82.1914 6.62667 82.5447 7.72 82.5447 9.2V15H80.8847V9.38C80.8847 8.35333 80.678 7.58 80.2647 7.06C79.8514 6.54 79.258 6.28 78.4847 6.28C77.6847 6.28 77.018 6.59333 76.4847 7.22C75.9647 7.83333 75.7047 8.71333 75.7047 9.86V15H74.0247V9.38C74.0247 8.35333 73.818 7.58 73.4047 7.06C72.9914 6.54 72.398 6.28 71.6247 6.28C70.838 6.28 70.178 6.59333 69.6447 7.22C69.1247 7.83333 68.8647 8.71333 68.8647 9.86V15H67.1847ZM90.3683 15V5.08H91.8883L92.0083 6.52C92.3283 5.98667 92.7549 5.57333 93.2883 5.28C93.8216 4.98667 94.4216 4.84 95.0883 4.84C95.8749 4.84 96.5483 5 97.1083 5.32C97.6816 5.64 98.1216 6.12667 98.4283 6.78C98.7749 6.18 99.2483 5.70667 99.8483 5.36C100.462 5.01333 101.122 4.84 101.828 4.84C103.015 4.84 103.962 5.2 104.668 5.92C105.375 6.62667 105.728 7.72 105.728 9.2V15H104.068V9.38C104.068 8.35333 103.862 7.58 103.448 7.06C103.035 6.54 102.442 6.28 101.668 6.28C100.868 6.28 100.202 6.59333 99.6683 7.22C99.1483 7.83333 98.8883 8.71333 98.8883 9.86V15H97.2083V9.38C97.2083 8.35333 97.0016 7.58 96.5883 7.06C96.1749 6.54 95.5816 6.28 94.8083 6.28C94.0216 6.28 93.3616 6.59333 92.8283 7.22C92.3083 7.83333 92.0483 8.71333 92.0483 9.86V15H90.3683ZM112.779 15.24C111.846 15.24 111.006 15.0267 110.259 14.6C109.512 14.1733 108.919 13.5733 108.479 12.8C108.052 12.0133 107.839 11.0933 107.839 10.04C107.839 8.98667 108.059 8.07333 108.499 7.3C108.939 6.51333 109.532 5.90667 110.279 5.48C111.039 5.05333 111.886 4.84 112.819 4.84C113.752 4.84 114.592 5.05333 115.339 5.48C116.086 5.90667 116.672 6.51333 117.099 7.3C117.539 8.07333 117.759 8.98667 117.759 10.04C117.759 11.0933 117.539 12.0133 117.099 12.8C116.659 13.5733 116.059 14.1733 115.299 14.6C114.552 15.0267 113.712 15.24 112.779 15.24ZM112.779 13.8C113.352 13.8 113.886 13.66 114.379 13.38C114.872 13.1 115.272 12.68 115.579 12.12C115.886 11.56 116.039 10.8667 116.039 10.04C116.039 9.21333 115.886 8.52 115.579 7.96C115.286 7.4 114.892 6.98 114.399 6.7C113.906 6.42 113.379 6.28 112.819 6.28C112.246 6.28 111.712 6.42 111.219 6.7C110.726 6.98 110.326 7.4 110.019 7.96C109.712 8.52 109.559 9.21333 109.559 10.04C109.559 10.8667 109.712 11.56 110.019 12.12C110.326 12.68 110.719 13.1 111.199 13.38C111.692 13.66 112.219 13.8 112.779 13.8ZM122.447 15L118.687 5.08H120.447L123.427 13.38L126.427 5.08H128.147L124.387 15H122.447ZM133.969 15.24C133.022 15.24 132.182 15.0267 131.449 14.6C130.716 14.16 130.136 13.5533 129.709 12.78C129.296 12.0067 129.089 11.0933 129.089 10.04C129.089 9 129.296 8.09333 129.709 7.32C130.122 6.53333 130.696 5.92667 131.429 5.5C132.176 5.06 133.036 4.84 134.009 4.84C134.969 4.84 135.796 5.06 136.489 5.5C137.196 5.92667 137.736 6.49333 138.109 7.2C138.482 7.90667 138.669 8.66667 138.669 9.48C138.669 9.62667 138.662 9.77333 138.649 9.92C138.649 10.0667 138.649 10.2333 138.649 10.42H130.749C130.789 11.18 130.962 11.8133 131.269 12.32C131.589 12.8133 131.982 13.1867 132.449 13.44C132.929 13.6933 133.436 13.82 133.969 13.82C134.662 13.82 135.242 13.66 135.709 13.34C136.176 13.02 136.516 12.5867 136.729 12.04H138.389C138.122 12.96 137.609 13.7267 136.849 14.34C136.102 14.94 135.142 15.24 133.969 15.24ZM133.969 6.26C133.169 6.26 132.456 6.50667 131.829 7C131.216 7.48 130.862 8.18667 130.769 9.12H137.009C136.969 8.22667 136.662 7.52667 136.089 7.02C135.516 6.51333 134.809 6.26 133.969 6.26ZM144.484 15C143.577 15 142.864 14.78 142.344 14.34C141.824 13.9 141.564 13.1067 141.564 11.96V6.5H139.844V5.08H141.564L141.784 2.7H143.244V5.08H146.164V6.5H143.244V11.96C143.244 12.5867 143.37 13.0133 143.624 13.24C143.877 13.4533 144.324 13.56 144.964 13.56H146.004V15H144.484ZM161.731 19.4V13.36C161.411 13.84 160.951 14.2733 160.351 14.66C159.751 15.0467 158.998 15.24 158.091 15.24C157.104 15.24 156.238 15.0133 155.491 14.56C154.758 14.1067 154.184 13.4867 153.771 12.7C153.371 11.9133 153.171 11.02 153.171 10.02C153.171 9.02 153.378 8.13333 153.791 7.36C154.204 6.57333 154.778 5.96 155.511 5.52C156.244 5.06667 157.111 4.84 158.111 4.84C158.924 4.84 159.644 5.00667 160.271 5.34C160.898 5.67333 161.384 6.14 161.731 6.74L161.891 5.08H163.411V19.4H161.731ZM158.271 13.78C158.938 13.78 159.524 13.6267 160.031 13.32C160.551 13 160.951 12.56 161.231 12C161.524 11.44 161.671 10.7867 161.671 10.04C161.671 9.29333 161.524 8.64 161.231 8.08C160.951 7.52 160.551 7.08667 160.031 6.78C159.524 6.46 158.938 6.3 158.271 6.3C157.618 6.3 157.031 6.46 156.511 6.78C156.004 7.08667 155.604 7.52 155.311 8.08C155.031 8.64 154.891 9.29333 154.891 10.04C154.891 10.7867 155.031 11.44 155.311 12C155.604 12.56 156.004 13 156.511 13.32C157.031 13.6267 157.618 13.78 158.271 13.78ZM174.83 5.08V15H173.31L173.21 13.22C172.89 13.8467 172.43 14.34 171.83 14.7C171.23 15.06 170.55 15.24 169.79 15.24C168.616 15.24 167.676 14.8867 166.97 14.18C166.276 13.46 165.93 12.36 165.93 10.88V5.08H167.61V10.7C167.61 12.7667 168.463 13.8 170.17 13.8C171.023 13.8 171.73 13.4933 172.29 12.88C172.863 12.2533 173.15 11.3667 173.15 10.22V5.08H174.83ZM182.115 15.24C181.182 15.24 180.342 15.0267 179.595 14.6C178.848 14.1733 178.255 13.5733 177.815 12.8C177.388 12.0133 177.175 11.0933 177.175 10.04C177.175 8.98667 177.395 8.07333 177.835 7.3C178.275 6.51333 178.868 5.90667 179.615 5.48C180.375 5.05333 181.222 4.84 182.155 4.84C183.088 4.84 183.928 5.05333 184.675 5.48C185.422 5.90667 186.008 6.51333 186.435 7.3C186.875 8.07333 187.095 8.98667 187.095 10.04C187.095 11.0933 186.875 12.0133 186.435 12.8C185.995 13.5733 185.395 14.1733 184.635 14.6C183.888 15.0267 183.048 15.24 182.115 15.24ZM182.115 13.8C182.688 13.8 183.222 13.66 183.715 13.38C184.208 13.1 184.608 12.68 184.915 12.12C185.222 11.56 185.375 10.8667 185.375 10.04C185.375 9.21333 185.222 8.52 184.915 7.96C184.622 7.4 184.228 6.98 183.735 6.7C183.242 6.42 182.715 6.28 182.155 6.28C181.582 6.28 181.048 6.42 180.555 6.7C180.062 6.98 179.662 7.4 179.355 7.96C179.048 8.52 178.895 9.21333 178.895 10.04C178.895 10.8667 179.048 11.56 179.355 12.12C179.662 12.68 180.055 13.1 180.535 13.38C181.028 13.66 181.555 13.8 182.115 13.8ZM193.931 15.24C192.944 15.24 192.077 15.0133 191.331 14.56C190.597 14.1067 190.024 13.4867 189.611 12.7C189.211 11.9133 189.011 11.02 189.011 10.02C189.011 9.02 189.217 8.13333 189.631 7.36C190.044 6.57333 190.617 5.96 191.351 5.52C192.084 5.06667 192.951 4.84 193.951 4.84C194.764 4.84 195.484 5.00667 196.111 5.34C196.737 5.67333 197.224 6.14 197.571 6.74V0.599999H199.251V15H197.731L197.571 13.36C197.251 13.84 196.791 14.2733 196.191 14.66C195.591 15.0467 194.837 15.24 193.931 15.24ZM194.111 13.78C194.777 13.78 195.364 13.6267 195.871 13.32C196.391 13 196.791 12.56 197.071 12C197.364 11.44 197.511 10.7867 197.511 10.04C197.511 9.29333 197.364 8.64 197.071 8.08C196.791 7.52 196.391 7.08667 195.871 6.78C195.364 6.46 194.777 6.3 194.111 6.3C193.457 6.3 192.871 6.46 192.351 6.78C191.844 7.08667 191.444 7.52 191.151 8.08C190.871 8.64 190.731 9.29333 190.731 10.04C190.731 10.7867 190.871 11.44 191.151 12C191.444 12.56 191.844 13 192.351 13.32C192.871 13.6267 193.457 13.78 194.111 13.78ZM205.789 15.24C204.603 15.24 203.616 14.94 202.829 14.34C202.043 13.74 201.583 12.9267 201.449 11.9H203.169C203.276 12.42 203.549 12.8733 203.989 13.26C204.443 13.6333 205.049 13.82 205.809 13.82C206.516 13.82 207.036 13.6733 207.369 13.38C207.703 13.0733 207.869 12.7133 207.869 12.3C207.869 11.7 207.649 11.3 207.209 11.1C206.783 10.9 206.176 10.72 205.389 10.56C204.856 10.4533 204.323 10.3 203.789 10.1C203.256 9.9 202.809 9.62 202.449 9.26C202.089 8.88667 201.909 8.4 201.909 7.8C201.909 6.93333 202.229 6.22667 202.869 5.68C203.523 5.12 204.403 4.84 205.509 4.84C206.563 4.84 207.423 5.10667 208.089 5.64C208.769 6.16 209.163 6.90667 209.269 7.88H207.609C207.543 7.37333 207.323 6.98 206.949 6.7C206.589 6.40667 206.103 6.26 205.489 6.26C204.889 6.26 204.423 6.38667 204.089 6.64C203.769 6.89333 203.609 7.22667 203.609 7.64C203.609 8.04 203.816 8.35333 204.229 8.58C204.656 8.80667 205.229 9 205.949 9.16C206.563 9.29333 207.143 9.46 207.689 9.66C208.249 9.84667 208.703 10.1333 209.049 10.52C209.409 10.8933 209.589 11.44 209.589 12.16C209.603 13.0533 209.263 13.7933 208.569 14.38C207.889 14.9533 206.963 15.24 205.789 15.24ZM213.009 2.88C212.676 2.88 212.396 2.77333 212.169 2.56C211.956 2.33333 211.849 2.05333 211.849 1.72C211.849 1.4 211.956 1.13333 212.169 0.919999C212.396 0.706666 212.676 0.599999 213.009 0.599999C213.329 0.599999 213.603 0.706666 213.829 0.919999C214.056 1.13333 214.169 1.4 214.169 1.72C214.169 2.05333 214.056 2.33333 213.829 2.56C213.603 2.77333 213.329 2.88 213.009 2.88ZM212.169 15V5.08H213.849V15H212.169ZM226.528 15.24C225.581 15.24 224.741 15.0267 224.008 14.6C223.274 14.16 222.694 13.5533 222.268 12.78C221.854 12.0067 221.648 11.0933 221.648 10.04C221.648 9 221.854 8.09333 222.268 7.32C222.681 6.53333 223.254 5.92667 223.988 5.5C224.734 5.06 225.594 4.84 226.567 4.84C227.528 4.84 228.354 5.06 229.048 5.5C229.754 5.92667 230.294 6.49333 230.668 7.2C231.041 7.90667 231.228 8.66667 231.228 9.48C231.228 9.62667 231.221 9.77333 231.208 9.92C231.208 10.0667 231.208 10.2333 231.208 10.42H223.308C223.348 11.18 223.521 11.8133 223.828 12.32C224.148 12.8133 224.541 13.1867 225.008 13.44C225.488 13.6933 225.994 13.82 226.528 13.82C227.221 13.82 227.801 13.66 228.268 13.34C228.734 13.02 229.074 12.5867 229.288 12.04H230.948C230.681 12.96 230.168 13.7267 229.408 14.34C228.661 14.94 227.701 15.24 226.528 15.24ZM226.528 6.26C225.728 6.26 225.014 6.50667 224.388 7C223.774 7.48 223.421 8.18667 223.327 9.12H229.568C229.528 8.22667 229.221 7.52667 228.648 7.02C228.074 6.51333 227.368 6.26 226.528 6.26ZM242.134 5.08V15H240.614L240.514 13.22C240.194 13.8467 239.734 14.34 239.134 14.7C238.534 15.06 237.854 15.24 237.094 15.24C235.921 15.24 234.981 14.8867 234.274 14.18C233.581 13.46 233.234 12.36 233.234 10.88V5.08H234.914V10.7C234.914 12.7667 235.768 13.8 237.474 13.8C238.328 13.8 239.034 13.4933 239.594 12.88C240.168 12.2533 240.454 11.3667 240.454 10.22V5.08H242.134ZM244.9 15V5.08H246.42L246.54 6.52C246.86 5.98667 247.286 5.57333 247.82 5.28C248.353 4.98667 248.953 4.84 249.62 4.84C250.406 4.84 251.08 5 251.64 5.32C252.213 5.64 252.653 6.12667 252.96 6.78C253.306 6.18 253.78 5.70667 254.38 5.36C254.993 5.01333 255.653 4.84 256.36 4.84C257.546 4.84 258.493 5.2 259.2 5.92C259.906 6.62667 260.26 7.72 260.26 9.2V15H258.6V9.38C258.6 8.35333 258.393 7.58 257.98 7.06C257.566 6.54 256.973 6.28 256.2 6.28C255.4 6.28 254.733 6.59333 254.2 7.22C253.68 7.83333 253.42 8.71333 253.42 9.86V15H251.74V9.38C251.74 8.35333 251.533 7.58 251.12 7.06C250.706 6.54 250.113 6.28 249.34 6.28C248.553 6.28 247.893 6.59333 247.36 7.22C246.84 7.83333 246.58 8.71333 246.58 9.86V15H244.9ZM263.37 15.1C263.037 15.1 262.757 14.9933 262.53 14.78C262.317 14.5533 262.21 14.28 262.21 13.96C262.21 13.64 262.317 13.3733 262.53 13.16C262.757 12.9333 263.037 12.82 263.37 12.82C263.69 12.82 263.957 12.9333 264.17 13.16C264.397 13.3733 264.51 13.64 264.51 13.96C264.51 14.28 264.397 14.5533 264.17 14.78C263.957 14.9933 263.69 15.1 263.37 15.1ZM272.089 15V0.999999H280.749V2.38H273.769V7.26H280.149V8.62H273.769V13.62H280.749V15H272.089ZM287.198 15C286.292 15 285.578 14.78 285.058 14.34C284.538 13.9 284.278 13.1067 284.278 11.96V6.5H282.558V5.08H284.278L284.498 2.7H285.958V5.08H288.878V6.5H285.958V11.96C285.958 12.5867 286.085 13.0133 286.338 13.24C286.592 13.4533 287.038 13.56 287.678 13.56H288.718V15H287.198ZM299.166 15L295.406 5.08H297.166L300.146 13.38L303.146 5.08H304.866L301.106 15H299.166ZM307.755 2.88C307.422 2.88 307.142 2.77333 306.915 2.56C306.702 2.33333 306.595 2.05333 306.595 1.72C306.595 1.4 306.702 1.13333 306.915 0.919999C307.142 0.706666 307.422 0.599999 307.755 0.599999C308.075 0.599999 308.349 0.706666 308.575 0.919999C308.802 1.13333 308.915 1.4 308.915 1.72C308.915 2.05333 308.802 2.33333 308.575 2.56C308.349 2.77333 308.075 2.88 307.755 2.88ZM306.915 15V5.08H308.595V15H306.915ZM311.521 15V5.08H313.041L313.161 6.52C313.481 5.98667 313.907 5.57333 314.441 5.28C314.974 4.98667 315.574 4.84 316.241 4.84C317.027 4.84 317.701 5 318.261 5.32C318.834 5.64 319.274 6.12667 319.581 6.78C319.927 6.18 320.401 5.70667 321.001 5.36C321.614 5.01333 322.274 4.84 322.981 4.84C324.167 4.84 325.114 5.2 325.821 5.92C326.527 6.62667 326.881 7.72 326.881 9.2V15H325.221V9.38C325.221 8.35333 325.014 7.58 324.601 7.06C324.187 6.54 323.594 6.28 322.821 6.28C322.021 6.28 321.354 6.59333 320.821 7.22C320.301 7.83333 320.041 8.71333 320.041 9.86V15H318.361V9.38C318.361 8.35333 318.154 7.58 317.741 7.06C317.327 6.54 316.734 6.28 315.961 6.28C315.174 6.28 314.514 6.59333 313.981 7.22C313.461 7.83333 313.201 8.71333 313.201 9.86V15H311.521ZM339.204 15.24C338.218 15.24 337.351 15.0133 336.604 14.56C335.871 14.1067 335.298 13.4867 334.884 12.7C334.484 11.9133 334.284 11.02 334.284 10.02C334.284 9.02 334.491 8.13333 334.904 7.36C335.318 6.57333 335.891 5.96 336.624 5.52C337.358 5.06667 338.224 4.84 339.224 4.84C340.038 4.84 340.758 5.00667 341.384 5.34C342.011 5.67333 342.498 6.14 342.844 6.74V0.599999H344.524V15H343.004L342.844 13.36C342.524 13.84 342.064 14.2733 341.464 14.66C340.864 15.0467 340.111 15.24 339.204 15.24ZM339.384 13.78C340.051 13.78 340.638 13.6267 341.144 13.32C341.664 13 342.064 12.56 342.344 12C342.638 11.44 342.784 10.7867 342.784 10.04C342.784 9.29333 342.638 8.64 342.344 8.08C342.064 7.52 341.664 7.08667 341.144 6.78C340.638 6.46 340.051 6.3 339.384 6.3C338.731 6.3 338.144 6.46 337.624 6.78C337.118 7.08667 336.718 7.52 336.424 8.08C336.144 8.64 336.004 9.29333 336.004 10.04C336.004 10.7867 336.144 11.44 336.424 12C336.718 12.56 337.118 13 337.624 13.32C338.144 13.6267 338.731 13.78 339.384 13.78ZM351.783 15.24C350.849 15.24 350.009 15.0267 349.263 14.6C348.516 14.1733 347.923 13.5733 347.483 12.8C347.056 12.0133 346.843 11.0933 346.843 10.04C346.843 8.98667 347.063 8.07333 347.503 7.3C347.943 6.51333 348.536 5.90667 349.283 5.48C350.043 5.05333 350.889 4.84 351.823 4.84C352.756 4.84 353.596 5.05333 354.343 5.48C355.089 5.90667 355.676 6.51333 356.103 7.3C356.543 8.07333 356.763 8.98667 356.763 10.04C356.763 11.0933 356.543 12.0133 356.103 12.8C355.663 13.5733 355.063 14.1733 354.303 14.6C353.556 15.0267 352.716 15.24 351.783 15.24ZM351.783 13.8C352.356 13.8 352.889 13.66 353.383 13.38C353.876 13.1 354.276 12.68 354.583 12.12C354.889 11.56 355.043 10.8667 355.043 10.04C355.043 9.21333 354.889 8.52 354.583 7.96C354.289 7.4 353.896 6.98 353.403 6.7C352.909 6.42 352.383 6.28 351.823 6.28C351.249 6.28 350.716 6.42 350.223 6.7C349.729 6.98 349.329 7.4 349.023 7.96C348.716 8.52 348.563 9.21333 348.563 10.04C348.563 10.8667 348.716 11.56 349.023 12.12C349.329 12.68 349.723 13.1 350.203 13.38C350.696 13.66 351.223 13.8 351.783 13.8ZM359.099 15V0.599999H360.779V15H359.099ZM368.052 15.24C367.119 15.24 366.279 15.0267 365.532 14.6C364.786 14.1733 364.192 13.5733 363.752 12.8C363.326 12.0133 363.112 11.0933 363.112 10.04C363.112 8.98667 363.332 8.07333 363.772 7.3C364.212 6.51333 364.806 5.90667 365.552 5.48C366.312 5.05333 367.159 4.84 368.092 4.84C369.026 4.84 369.866 5.05333 370.612 5.48C371.359 5.90667 371.946 6.51333 372.372 7.3C372.812 8.07333 373.032 8.98667 373.032 10.04C373.032 11.0933 372.812 12.0133 372.372 12.8C371.932 13.5733 371.332 14.1733 370.572 14.6C369.826 15.0267 368.986 15.24 368.052 15.24ZM368.052 13.8C368.626 13.8 369.159 13.66 369.652 13.38C370.146 13.1 370.546 12.68 370.852 12.12C371.159 11.56 371.312 10.8667 371.312 10.04C371.312 9.21333 371.159 8.52 370.852 7.96C370.559 7.4 370.166 6.98 369.672 6.7C369.179 6.42 368.652 6.28 368.092 6.28C367.519 6.28 366.986 6.42 366.492 6.7C365.999 6.98 365.599 7.4 365.292 7.96C364.986 8.52 364.832 9.21333 364.832 10.04C364.832 10.8667 364.986 11.56 365.292 12.12C365.599 12.68 365.992 13.1 366.472 13.38C366.966 13.66 367.492 13.8 368.052 13.8ZM375.368 15V5.08H376.888L377.028 6.98C377.335 6.32667 377.802 5.80667 378.428 5.42C379.055 5.03333 379.828 4.84 380.748 4.84V6.6H380.288C379.702 6.6 379.162 6.70667 378.668 6.92C378.175 7.12 377.782 7.46667 377.488 7.96C377.195 8.45333 377.048 9.13333 377.048 10V15H375.368ZM386.723 15.24C385.776 15.24 384.936 15.0267 384.203 14.6C383.469 14.16 382.889 13.5533 382.463 12.78C382.049 12.0067 381.843 11.0933 381.843 10.04C381.843 9 382.049 8.09333 382.463 7.32C382.876 6.53333 383.449 5.92667 384.183 5.5C384.929 5.06 385.789 4.84 386.763 4.84C387.723 4.84 388.549 5.06 389.243 5.5C389.949 5.92667 390.489 6.49333 390.863 7.2C391.236 7.90667 391.423 8.66667 391.423 9.48C391.423 9.62667 391.416 9.77333 391.403 9.92C391.403 10.0667 391.403 10.2333 391.403 10.42H383.503C383.543 11.18 383.716 11.8133 384.023 12.32C384.343 12.8133 384.736 13.1867 385.203 13.44C385.683 13.6933 386.189 13.82 386.723 13.82C387.416 13.82 387.996 13.66 388.463 13.34C388.929 13.02 389.269 12.5867 389.483 12.04H391.143C390.876 12.96 390.363 13.7267 389.603 14.34C388.856 14.94 387.896 15.24 386.723 15.24ZM386.723 6.26C385.923 6.26 385.209 6.50667 384.583 7C383.969 7.48 383.616 8.18667 383.523 9.12H389.763C389.723 8.22667 389.416 7.52667 388.843 7.02C388.269 6.51333 387.563 6.26 386.723 6.26ZM403.403 15.24C402.456 15.24 401.616 15.0267 400.883 14.6C400.149 14.16 399.569 13.5533 399.143 12.78C398.729 12.0067 398.523 11.0933 398.523 10.04C398.523 9 398.729 8.09333 399.143 7.32C399.556 6.53333 400.129 5.92667 400.863 5.5C401.609 5.06 402.469 4.84 403.442 4.84C404.403 4.84 405.229 5.06 405.923 5.5C406.629 5.92667 407.169 6.49333 407.543 7.2C407.916 7.90667 408.103 8.66667 408.103 9.48C408.103 9.62667 408.096 9.77333 408.083 9.92C408.083 10.0667 408.083 10.2333 408.083 10.42H400.183C400.223 11.18 400.396 11.8133 400.703 12.32C401.023 12.8133 401.416 13.1867 401.883 13.44C402.363 13.6933 402.869 13.82 403.403 13.82C404.096 13.82 404.676 13.66 405.143 13.34C405.609 13.02 405.949 12.5867 406.163 12.04H407.823C407.556 12.96 407.043 13.7267 406.283 14.34C405.536 14.94 404.576 15.24 403.403 15.24ZM403.403 6.26C402.603 6.26 401.889 6.50667 401.263 7C400.649 7.48 400.296 8.18667 400.202 9.12H406.443C406.403 8.22667 406.096 7.52667 405.523 7.02C404.949 6.51333 404.243 6.26 403.403 6.26ZM410.329 19.4V5.08H411.849L412.009 6.72C412.329 6.24 412.783 5.80667 413.369 5.42C413.969 5.03333 414.729 4.84 415.649 4.84C416.636 4.84 417.496 5.06667 418.229 5.52C418.963 5.97333 419.529 6.59333 419.929 7.38C420.343 8.16667 420.549 9.06 420.549 10.06C420.549 11.06 420.343 11.9533 419.929 12.74C419.529 13.5133 418.956 14.1267 418.209 14.58C417.476 15.02 416.616 15.24 415.629 15.24C414.816 15.24 414.089 15.0733 413.449 14.74C412.823 14.4067 412.343 13.94 412.009 13.34V19.4H410.329ZM415.449 13.78C416.116 13.78 416.703 13.6267 417.209 13.32C417.716 13 418.116 12.56 418.409 12C418.703 11.44 418.849 10.7867 418.849 10.04C418.849 9.29333 418.703 8.64 418.409 8.08C418.116 7.52 417.716 7.08667 417.209 6.78C416.703 6.46 416.116 6.3 415.449 6.3C414.783 6.3 414.196 6.46 413.689 6.78C413.183 7.08667 412.783 7.52 412.489 8.08C412.196 8.64 412.049 9.29333 412.049 10.04C412.049 10.7867 412.196 11.44 412.489 12C412.783 12.56 413.183 13 413.689 13.32C414.196 13.6267 414.783 13.78 415.449 13.78ZM423.908 2.88C423.574 2.88 423.294 2.77333 423.068 2.56C422.854 2.33333 422.748 2.05333 422.748 1.72C422.748 1.4 422.854 1.13333 423.068 0.919999C423.294 0.706666 423.574 0.599999 423.908 0.599999C424.228 0.599999 424.501 0.706666 424.728 0.919999C424.954 1.13333 425.068 1.4 425.068 1.72C425.068 2.05333 424.954 2.33333 424.728 2.56C424.501 2.77333 424.228 2.88 423.908 2.88ZM423.068 15V5.08H424.748V15H423.068ZM432.233 15.24C431.286 15.24 430.433 15.0267 429.673 14.6C428.926 14.16 428.333 13.5533 427.893 12.78C427.466 11.9933 427.253 11.08 427.253 10.04C427.253 9 427.466 8.09333 427.893 7.32C428.333 6.53333 428.926 5.92667 429.673 5.5C430.433 5.06 431.286 4.84 432.233 4.84C433.406 4.84 434.393 5.14667 435.193 5.76C436.006 6.37333 436.52 7.19333 436.733 8.22H435.013C434.88 7.60667 434.553 7.13333 434.033 6.8C433.513 6.45333 432.906 6.28 432.213 6.28C431.653 6.28 431.126 6.42 430.633 6.7C430.14 6.98 429.74 7.4 429.433 7.96C429.126 8.52 428.973 9.21333 428.973 10.04C428.973 10.8667 429.126 11.56 429.433 12.12C429.74 12.68 430.14 13.1067 430.633 13.4C431.126 13.68 431.653 13.82 432.213 13.82C432.906 13.82 433.513 13.6533 434.033 13.32C434.553 12.9733 434.88 12.4867 435.013 11.86H436.733C436.533 12.86 436.026 13.6733 435.213 14.3C434.4 14.9267 433.406 15.24 432.233 15.24ZM447.759 5.08V15H446.239L446.139 13.22C445.819 13.8467 445.359 14.34 444.759 14.7C444.159 15.06 443.479 15.24 442.719 15.24C441.546 15.24 440.606 14.8867 439.899 14.18C439.206 13.46 438.859 12.36 438.859 10.88V5.08H440.539V10.7C440.539 12.7667 441.393 13.8 443.099 13.8C443.953 13.8 444.659 13.4933 445.219 12.88C445.793 12.2533 446.079 11.3667 446.079 10.22V5.08H447.759ZM450.525 15V5.08H452.045L452.185 6.98C452.491 6.32667 452.958 5.80667 453.585 5.42C454.211 5.03333 454.985 4.84 455.905 4.84V6.6H455.445C454.858 6.6 454.318 6.70667 453.825 6.92C453.331 7.12 452.938 7.46667 452.645 7.96C452.351 8.45333 452.205 9.13333 452.205 10V15H450.525ZM461.879 15.24C460.932 15.24 460.092 15.0267 459.359 14.6C458.626 14.16 458.046 13.5533 457.619 12.78C457.206 12.0067 456.999 11.0933 456.999 10.04C456.999 9 457.206 8.09333 457.619 7.32C458.032 6.53333 458.606 5.92667 459.339 5.5C460.086 5.06 460.946 4.84 461.919 4.84C462.879 4.84 463.706 5.06 464.399 5.5C465.106 5.92667 465.646 6.49333 466.019 7.2C466.392 7.90667 466.579 8.66667 466.579 9.48C466.579 9.62667 466.572 9.77333 466.559 9.92C466.559 10.0667 466.559 10.2333 466.559 10.42H458.659C458.699 11.18 458.872 11.8133 459.179 12.32C459.499 12.8133 459.892 13.1867 460.359 13.44C460.839 13.6933 461.346 13.82 461.879 13.82C462.572 13.82 463.152 13.66 463.619 13.34C464.086 13.02 464.426 12.5867 464.639 12.04H466.299C466.032 12.96 465.519 13.7267 464.759 14.34C464.012 14.94 463.052 15.24 461.879 15.24ZM461.879 6.26C461.079 6.26 460.366 6.50667 459.739 7C459.126 7.48 458.772 8.18667 458.679 9.12H464.919C464.879 8.22667 464.572 7.52667 463.999 7.02C463.426 6.51333 462.719 6.26 461.879 6.26ZM469.826 2.88C469.492 2.88 469.212 2.77333 468.986 2.56C468.772 2.33333 468.666 2.05333 468.666 1.72C468.666 1.4 468.772 1.13333 468.986 0.919999C469.212 0.706666 469.492 0.599999 469.826 0.599999C470.146 0.599999 470.419 0.706666 470.646 0.919999C470.872 1.13333 470.986 1.4 470.986 1.72C470.986 2.05333 470.872 2.33333 470.646 2.56C470.419 2.77333 470.146 2.88 469.826 2.88ZM468.986 15V5.08H470.666V15H468.986ZM472.251 17.38L473.411 12.96H475.151L473.411 17.38H472.251ZM491.119 5.08V15H489.599L489.499 13.22C489.179 13.8467 488.719 14.34 488.119 14.7C487.519 15.06 486.839 15.24 486.079 15.24C484.905 15.24 483.965 14.8867 483.259 14.18C482.565 13.46 482.219 12.36 482.219 10.88V5.08H483.899V10.7C483.899 12.7667 484.752 13.8 486.459 13.8C487.312 13.8 488.019 13.4933 488.579 12.88C489.152 12.2533 489.439 11.3667 489.439 10.22V5.08H491.119ZM497.804 15C496.897 15 496.184 14.78 495.664 14.34C495.144 13.9 494.884 13.1067 494.884 11.96V6.5H493.164V5.08H494.884L495.104 2.7H496.564V5.08H499.484V6.5H496.564V11.96C496.564 12.5867 496.691 13.0133 496.944 13.24C497.197 13.4533 497.644 13.56 498.284 13.56H499.324V15H497.804ZM510.211 15.24C509.385 15.24 508.698 15.1 508.151 14.82C507.605 14.54 507.198 14.1667 506.931 13.7C506.665 13.2333 506.531 12.7267 506.531 12.18C506.531 11.1667 506.918 10.3867 507.691 9.84C508.465 9.29333 509.518 9.02 510.851 9.02H513.531V8.9C513.531 8.03333 513.305 7.38 512.851 6.94C512.398 6.48667 511.791 6.26 511.031 6.26C510.378 6.26 509.811 6.42667 509.331 6.76C508.865 7.08 508.571 7.55333 508.451 8.18H506.731C506.798 7.46 507.038 6.85333 507.451 6.36C507.878 5.86667 508.405 5.49333 509.031 5.24C509.658 4.97333 510.325 4.84 511.031 4.84C512.418 4.84 513.458 5.21333 514.151 5.96C514.858 6.69333 515.211 7.67333 515.211 8.9V15H513.711L513.611 13.22C513.331 13.78 512.918 14.26 512.371 14.66C511.838 15.0467 511.118 15.24 510.211 15.24ZM510.471 13.82C511.111 13.82 511.658 13.6533 512.111 13.32C512.578 12.9867 512.931 12.5533 513.171 12.02C513.411 11.4867 513.531 10.9267 513.531 10.34V10.32H510.991C510.005 10.32 509.305 10.4933 508.891 10.84C508.491 11.1733 508.291 11.5933 508.291 12.1C508.291 12.62 508.478 13.04 508.851 13.36C509.238 13.6667 509.778 13.82 510.471 13.82ZM522.192 15.24C521.245 15.24 520.405 15.0267 519.672 14.6C518.938 14.16 518.358 13.5533 517.932 12.78C517.518 12.0067 517.312 11.0933 517.312 10.04C517.312 9 517.518 8.09333 517.932 7.32C518.345 6.53333 518.918 5.92667 519.652 5.5C520.398 5.06 521.258 4.84 522.232 4.84C523.192 4.84 524.018 5.06 524.712 5.5C525.418 5.92667 525.958 6.49333 526.332 7.2C526.705 7.90667 526.892 8.66667 526.892 9.48C526.892 9.62667 526.885 9.77333 526.872 9.92C526.872 10.0667 526.872 10.2333 526.872 10.42H518.972C519.012 11.18 519.185 11.8133 519.492 12.32C519.812 12.8133 520.205 13.1867 520.672 13.44C521.152 13.6933 521.658 13.82 522.192 13.82C522.885 13.82 523.465 13.66 523.932 13.34C524.398 13.02 524.738 12.5867 524.952 12.04H526.612C526.345 12.96 525.832 13.7267 525.072 14.34C524.325 14.94 523.365 15.24 522.192 15.24ZM522.192 6.26C521.392 6.26 520.678 6.50667 520.052 7C519.438 7.48 519.085 8.18667 518.992 9.12H525.232C525.192 8.22667 524.885 7.52667 524.312 7.02C523.738 6.51333 523.032 6.26 522.192 6.26ZM537.258 19.4V13.36C536.938 13.84 536.478 14.2733 535.878 14.66C535.278 15.0467 534.525 15.24 533.618 15.24C532.632 15.24 531.765 15.0133 531.018 14.56C530.285 14.1067 529.712 13.4867 529.298 12.7C528.898 11.9133 528.698 11.02 528.698 10.02C528.698 9.02 528.905 8.13333 529.318 7.36C529.732 6.57333 530.305 5.96 531.038 5.52C531.772 5.06667 532.638 4.84 533.638 4.84C534.452 4.84 535.172 5.00667 535.798 5.34C536.425 5.67333 536.912 6.14 537.258 6.74L537.418 5.08H538.938V19.4H537.258ZM533.798 13.78C534.465 13.78 535.052 13.6267 535.558 13.32C536.078 13 536.478 12.56 536.758 12C537.052 11.44 537.198 10.7867 537.198 10.04C537.198 9.29333 537.052 8.64 536.758 8.08C536.478 7.52 536.078 7.08667 535.558 6.78C535.052 6.46 534.465 6.3 533.798 6.3C533.145 6.3 532.558 6.46 532.038 6.78C531.532 7.08667 531.132 7.52 530.838 8.08C530.558 8.64 530.418 9.29333 530.418 10.04C530.418 10.7867 530.558 11.44 530.838 12C531.132 12.56 531.532 13 532.038 13.32C532.558 13.6267 533.145 13.78 533.798 13.78ZM550.357 5.08V15H548.837L548.737 13.22C548.417 13.8467 547.957 14.34 547.357 14.7C546.757 15.06 546.077 15.24 545.317 15.24C544.144 15.24 543.204 14.8867 542.497 14.18C541.804 13.46 541.457 12.36 541.457 10.88V5.08H543.137V10.7C543.137 12.7667 543.99 13.8 545.697 13.8C546.55 13.8 547.257 13.4933 547.817 12.88C548.39 12.2533 548.677 11.3667 548.677 10.22V5.08H550.357ZM557.582 15.24C556.636 15.24 555.796 15.0267 555.062 14.6C554.329 14.16 553.749 13.5533 553.322 12.78C552.909 12.0067 552.702 11.0933 552.702 10.04C552.702 9 552.909 8.09333 553.322 7.32C553.736 6.53333 554.309 5.92667 555.042 5.5C555.789 5.06 556.649 4.84 557.622 4.84C558.582 4.84 559.409 5.06 560.102 5.5C560.809 5.92667 561.349 6.49333 561.722 7.2C562.096 7.90667 562.282 8.66667 562.282 9.48C562.282 9.62667 562.276 9.77333 562.262 9.92C562.262 10.0667 562.262 10.2333 562.262 10.42H554.362C554.402 11.18 554.576 11.8133 554.882 12.32C555.202 12.8133 555.596 13.1867 556.062 13.44C556.542 13.6933 557.049 13.82 557.582 13.82C558.276 13.82 558.856 13.66 559.322 13.34C559.789 13.02 560.129 12.5867 560.342 12.04H562.002C561.736 12.96 561.222 13.7267 560.462 14.34C559.716 14.94 558.756 15.24 557.582 15.24ZM557.582 6.26C556.782 6.26 556.069 6.50667 555.442 7C554.829 7.48 554.476 8.18667 554.382 9.12H560.622C560.582 8.22667 560.276 7.52667 559.702 7.02C559.129 6.51333 558.422 6.26 557.582 6.26ZM138.65 51.4V37.08H140.17L140.33 38.72C140.65 38.24 141.103 37.8067 141.69 37.42C142.29 37.0333 143.05 36.84 143.97 36.84C144.956 36.84 145.816 37.0667 146.55 37.52C147.283 37.9733 147.85 38.5933 148.25 39.38C148.663 40.1667 148.87 41.06 148.87 42.06C148.87 43.06 148.663 43.9533 148.25 44.74C147.85 45.5133 147.276 46.1267 146.53 46.58C145.796 47.02 144.936 47.24 143.95 47.24C143.136 47.24 142.41 47.0733 141.77 46.74C141.143 46.4067 140.663 45.94 140.33 45.34V51.4H138.65ZM143.77 45.78C144.436 45.78 145.023 45.6267 145.53 45.32C146.036 45 146.436 44.56 146.73 44C147.023 43.44 147.17 42.7867 147.17 42.04C147.17 41.2933 147.023 40.64 146.73 40.08C146.436 39.52 146.036 39.0867 145.53 38.78C145.023 38.46 144.436 38.3 143.77 38.3C143.103 38.3 142.516 38.46 142.01 38.78C141.503 39.0867 141.103 39.52 140.81 40.08C140.516 40.64 140.37 41.2933 140.37 42.04C140.37 42.7867 140.516 43.44 140.81 44C141.103 44.56 141.503 45 142.01 45.32C142.516 45.6267 143.103 45.78 143.77 45.78ZM155.728 47.24C154.795 47.24 153.955 47.0267 153.208 46.6C152.461 46.1733 151.868 45.5733 151.428 44.8C151.001 44.0133 150.788 43.0933 150.788 42.04C150.788 40.9867 151.008 40.0733 151.448 39.3C151.888 38.5133 152.481 37.9067 153.228 37.48C153.988 37.0533 154.835 36.84 155.768 36.84C156.701 36.84 157.541 37.0533 158.288 37.48C159.035 37.9067 159.621 38.5133 160.048 39.3C160.488 40.0733 160.708 40.9867 160.708 42.04C160.708 43.0933 160.488 44.0133 160.048 44.8C159.608 45.5733 159.008 46.1733 158.248 46.6C157.501 47.0267 156.661 47.24 155.728 47.24ZM155.728 45.8C156.301 45.8 156.835 45.66 157.328 45.38C157.821 45.1 158.221 44.68 158.528 44.12C158.835 43.56 158.988 42.8667 158.988 42.04C158.988 41.2133 158.835 40.52 158.528 39.96C158.235 39.4 157.841 38.98 157.348 38.7C156.855 38.42 156.328 38.28 155.768 38.28C155.195 38.28 154.661 38.42 154.168 38.7C153.675 38.98 153.275 39.4 152.968 39.96C152.661 40.52 152.508 41.2133 152.508 42.04C152.508 42.8667 152.661 43.56 152.968 44.12C153.275 44.68 153.668 45.1 154.148 45.38C154.641 45.66 155.168 45.8 155.728 45.8ZM166.844 47.24C165.657 47.24 164.671 46.94 163.884 46.34C163.097 45.74 162.637 44.9267 162.504 43.9H164.224C164.331 44.42 164.604 44.8733 165.044 45.26C165.497 45.6333 166.104 45.82 166.864 45.82C167.571 45.82 168.091 45.6733 168.424 45.38C168.757 45.0733 168.924 44.7133 168.924 44.3C168.924 43.7 168.704 43.3 168.264 43.1C167.837 42.9 167.231 42.72 166.444 42.56C165.911 42.4533 165.377 42.3 164.844 42.1C164.311 41.9 163.864 41.62 163.504 41.26C163.144 40.8867 162.964 40.4 162.964 39.8C162.964 38.9333 163.284 38.2267 163.924 37.68C164.577 37.12 165.457 36.84 166.564 36.84C167.617 36.84 168.477 37.1067 169.144 37.64C169.824 38.16 170.217 38.9067 170.324 39.88H168.664C168.597 39.3733 168.377 38.98 168.004 38.7C167.644 38.4067 167.157 38.26 166.544 38.26C165.944 38.26 165.477 38.3867 165.144 38.64C164.824 38.8933 164.664 39.2267 164.664 39.64C164.664 40.04 164.871 40.3533 165.284 40.58C165.711 40.8067 166.284 41 167.004 41.16C167.617 41.2933 168.197 41.46 168.744 41.66C169.304 41.8467 169.757 42.1333 170.104 42.52C170.464 42.8933 170.644 43.44 170.644 44.16C170.657 45.0533 170.317 45.7933 169.624 46.38C168.944 46.9533 168.017 47.24 166.844 47.24ZM176.515 47C175.608 47 174.895 46.78 174.375 46.34C173.855 45.9 173.595 45.1067 173.595 43.96V38.5H171.875V37.08H173.595L173.815 34.7H175.275V37.08H178.195V38.5H175.275V43.96C175.275 44.5867 175.402 45.0133 175.655 45.24C175.908 45.4533 176.355 45.56 176.995 45.56H178.035V47H176.515ZM184.516 47.24C183.569 47.24 182.729 47.0267 181.996 46.6C181.262 46.16 180.682 45.5533 180.256 44.78C179.842 44.0067 179.636 43.0933 179.636 42.04C179.636 41 179.842 40.0933 180.256 39.32C180.669 38.5333 181.242 37.9267 181.976 37.5C182.722 37.06 183.582 36.84 184.556 36.84C185.516 36.84 186.342 37.06 187.036 37.5C187.742 37.9267 188.282 38.4933 188.656 39.2C189.029 39.9067 189.216 40.6667 189.216 41.48C189.216 41.6267 189.209 41.7733 189.196 41.92C189.196 42.0667 189.196 42.2333 189.196 42.42H181.296C181.336 43.18 181.509 43.8133 181.816 44.32C182.136 44.8133 182.529 45.1867 182.996 45.44C183.476 45.6933 183.982 45.82 184.516 45.82C185.209 45.82 185.789 45.66 186.256 45.34C186.722 45.02 187.062 44.5867 187.276 44.04H188.936C188.669 44.96 188.156 45.7267 187.396 46.34C186.649 46.94 185.689 47.24 184.516 47.24ZM184.516 38.26C183.716 38.26 183.002 38.5067 182.376 39C181.762 39.48 181.409 40.1867 181.316 41.12H187.556C187.516 40.2267 187.209 39.5267 186.636 39.02C186.062 38.5133 185.356 38.26 184.516 38.26ZM194.743 47.24C193.916 47.24 193.229 47.1 192.683 46.82C192.136 46.54 191.729 46.1667 191.463 45.7C191.196 45.2333 191.063 44.7267 191.063 44.18C191.063 43.1667 191.449 42.3867 192.223 41.84C192.996 41.2933 194.049 41.02 195.383 41.02H198.063V40.9C198.063 40.0333 197.836 39.38 197.383 38.94C196.929 38.4867 196.323 38.26 195.563 38.26C194.909 38.26 194.343 38.4267 193.863 38.76C193.396 39.08 193.103 39.5533 192.983 40.18H191.263C191.329 39.46 191.569 38.8533 191.983 38.36C192.409 37.8667 192.936 37.4933 193.563 37.24C194.189 36.9733 194.856 36.84 195.563 36.84C196.949 36.84 197.989 37.2133 198.683 37.96C199.389 38.6933 199.743 39.6733 199.743 40.9V47H198.243L198.143 45.22C197.863 45.78 197.449 46.26 196.903 46.66C196.369 47.0467 195.649 47.24 194.743 47.24ZM195.003 45.82C195.643 45.82 196.189 45.6533 196.643 45.32C197.109 44.9867 197.463 44.5533 197.703 44.02C197.943 43.4867 198.063 42.9267 198.063 42.34V42.32H195.523C194.536 42.32 193.836 42.4933 193.423 42.84C193.023 43.1733 192.823 43.5933 192.823 44.1C192.823 44.62 193.009 45.04 193.383 45.36C193.769 45.6667 194.309 45.82 195.003 45.82ZM207.556 47V37.08H209.076L209.176 38.86C209.496 38.2333 209.956 37.74 210.556 37.38C211.156 37.02 211.836 36.84 212.596 36.84C213.769 36.84 214.702 37.2 215.396 37.92C216.102 38.6267 216.456 39.72 216.456 41.2V47H214.776V41.38C214.776 39.3133 213.922 38.28 212.216 38.28C211.362 38.28 210.649 38.5933 210.076 39.22C209.516 39.8333 209.236 40.7133 209.236 41.86V47H207.556ZM222.301 47.24C221.474 47.24 220.788 47.1 220.241 46.82C219.694 46.54 219.288 46.1667 219.021 45.7C218.754 45.2333 218.621 44.7267 218.621 44.18C218.621 43.1667 219.008 42.3867 219.781 41.84C220.554 41.2933 221.608 41.02 222.941 41.02H225.621V40.9C225.621 40.0333 225.394 39.38 224.941 38.94C224.488 38.4867 223.881 38.26 223.121 38.26C222.468 38.26 221.901 38.4267 221.421 38.76C220.954 39.08 220.661 39.5533 220.541 40.18H218.821C218.888 39.46 219.128 38.8533 219.541 38.36C219.968 37.8667 220.494 37.4933 221.121 37.24C221.748 36.9733 222.414 36.84 223.121 36.84C224.508 36.84 225.548 37.2133 226.241 37.96C226.948 38.6933 227.301 39.6733 227.301 40.9V47H225.801L225.701 45.22C225.421 45.78 225.008 46.26 224.461 46.66C223.928 47.0467 223.208 47.24 222.301 47.24ZM222.561 45.82C223.201 45.82 223.748 45.6533 224.201 45.32C224.668 44.9867 225.021 44.5533 225.261 44.02C225.501 43.4867 225.621 42.9267 225.621 42.34V42.32H223.081C222.094 42.32 221.394 42.4933 220.981 42.84C220.581 43.1733 220.381 43.5933 220.381 44.1C220.381 44.62 220.568 45.04 220.941 45.36C221.328 45.6667 221.868 45.82 222.561 45.82ZM229.821 47V37.08H231.341L231.461 38.52C231.781 37.9867 232.208 37.5733 232.741 37.28C233.275 36.9867 233.875 36.84 234.541 36.84C235.328 36.84 236.001 37 236.561 37.32C237.135 37.64 237.575 38.1267 237.881 38.78C238.228 38.18 238.701 37.7067 239.301 37.36C239.915 37.0133 240.575 36.84 241.281 36.84C242.468 36.84 243.415 37.2 244.121 37.92C244.828 38.6267 245.181 39.72 245.181 41.2V47H243.521V41.38C243.521 40.3533 243.315 39.58 242.901 39.06C242.488 38.54 241.895 38.28 241.121 38.28C240.321 38.28 239.655 38.5933 239.121 39.22C238.601 39.8333 238.341 40.7133 238.341 41.86V47H236.661V41.38C236.661 40.3533 236.455 39.58 236.041 39.06C235.628 38.54 235.035 38.28 234.261 38.28C233.475 38.28 232.815 38.5933 232.281 39.22C231.761 39.8333 231.501 40.7133 231.501 41.86V47H229.821ZM246.372 49.38L247.532 44.96H249.272L247.532 49.38H246.372ZM259.86 47.24C259.033 47.24 258.346 47.1 257.8 46.82C257.253 46.54 256.846 46.1667 256.58 45.7C256.313 45.2333 256.18 44.7267 256.18 44.18C256.18 43.1667 256.566 42.3867 257.34 41.84C258.113 41.2933 259.166 41.02 260.5 41.02H263.18V40.9C263.18 40.0333 262.953 39.38 262.5 38.94C262.046 38.4867 261.44 38.26 260.68 38.26C260.026 38.26 259.46 38.4267 258.98 38.76C258.513 39.08 258.22 39.5533 258.1 40.18H256.38C256.446 39.46 256.686 38.8533 257.1 38.36C257.526 37.8667 258.053 37.4933 258.68 37.24C259.306 36.9733 259.973 36.84 260.68 36.84C262.066 36.84 263.106 37.2133 263.8 37.96C264.506 38.6933 264.86 39.6733 264.86 40.9V47H263.36L263.26 45.22C262.98 45.78 262.566 46.26 262.02 46.66C261.486 47.0467 260.766 47.24 259.86 47.24ZM260.12 45.82C260.76 45.82 261.306 45.6533 261.76 45.32C262.226 44.9867 262.58 44.5533 262.82 44.02C263.06 43.4867 263.18 42.9267 263.18 42.34V42.32H260.64C259.653 42.32 258.953 42.4933 258.54 42.84C258.14 43.1733 257.94 43.5933 257.94 44.1C257.94 44.62 258.126 45.04 258.5 45.36C258.886 45.6667 259.426 45.82 260.12 45.82ZM271.027 47C270.12 47 269.407 46.78 268.887 46.34C268.367 45.9 268.107 45.1067 268.107 43.96V38.5H266.387V37.08H268.107L268.327 34.7H269.787V37.08H272.707V38.5H269.787V43.96C269.787 44.5867 269.913 45.0133 270.167 45.24C270.42 45.4533 270.867 45.56 271.507 45.56H272.547V47H271.027ZM280.134 51.4V37.08H281.654L281.814 38.72C282.134 38.24 282.587 37.8067 283.174 37.42C283.774 37.0333 284.534 36.84 285.454 36.84C286.441 36.84 287.301 37.0667 288.034 37.52C288.767 37.9733 289.334 38.5933 289.734 39.38C290.147 40.1667 290.354 41.06 290.354 42.06C290.354 43.06 290.147 43.9533 289.734 44.74C289.334 45.5133 288.761 46.1267 288.014 46.58C287.281 47.02 286.421 47.24 285.434 47.24C284.621 47.24 283.894 47.0733 283.254 46.74C282.627 46.4067 282.147 45.94 281.814 45.34V51.4H280.134ZM285.254 45.78C285.921 45.78 286.507 45.6267 287.014 45.32C287.521 45 287.921 44.56 288.214 44C288.507 43.44 288.654 42.7867 288.654 42.04C288.654 41.2933 288.507 40.64 288.214 40.08C287.921 39.52 287.521 39.0867 287.014 38.78C286.507 38.46 285.921 38.3 285.254 38.3C284.587 38.3 284.001 38.46 283.494 38.78C282.987 39.0867 282.587 39.52 282.294 40.08C282.001 40.64 281.854 41.2933 281.854 42.04C281.854 42.7867 282.001 43.44 282.294 44C282.587 44.56 282.987 45 283.494 45.32C284.001 45.6267 284.587 45.78 285.254 45.78ZM297.213 47.24C296.279 47.24 295.439 47.0267 294.693 46.6C293.946 46.1733 293.353 45.5733 292.913 44.8C292.486 44.0133 292.273 43.0933 292.273 42.04C292.273 40.9867 292.493 40.0733 292.933 39.3C293.373 38.5133 293.966 37.9067 294.713 37.48C295.473 37.0533 296.319 36.84 297.253 36.84C298.186 36.84 299.026 37.0533 299.773 37.48C300.519 37.9067 301.106 38.5133 301.533 39.3C301.973 40.0733 302.193 40.9867 302.193 42.04C302.193 43.0933 301.973 44.0133 301.533 44.8C301.093 45.5733 300.493 46.1733 299.733 46.6C298.986 47.0267 298.146 47.24 297.213 47.24ZM297.213 45.8C297.786 45.8 298.319 45.66 298.813 45.38C299.306 45.1 299.706 44.68 300.013 44.12C300.319 43.56 300.473 42.8667 300.473 42.04C300.473 41.2133 300.319 40.52 300.013 39.96C299.719 39.4 299.326 38.98 298.833 38.7C298.339 38.42 297.813 38.28 297.253 38.28C296.679 38.28 296.146 38.42 295.653 38.7C295.159 38.98 294.759 39.4 294.453 39.96C294.146 40.52 293.993 41.2133 293.993 42.04C293.993 42.8667 294.146 43.56 294.453 44.12C294.759 44.68 295.153 45.1 295.633 45.38C296.126 45.66 296.653 45.8 297.213 45.8ZM308.328 47.24C307.142 47.24 306.155 46.94 305.368 46.34C304.582 45.74 304.122 44.9267 303.988 43.9H305.708C305.815 44.42 306.088 44.8733 306.528 45.26C306.982 45.6333 307.588 45.82 308.348 45.82C309.055 45.82 309.575 45.6733 309.908 45.38C310.242 45.0733 310.408 44.7133 310.408 44.3C310.408 43.7 310.188 43.3 309.748 43.1C309.322 42.9 308.715 42.72 307.928 42.56C307.395 42.4533 306.862 42.3 306.328 42.1C305.795 41.9 305.348 41.62 304.988 41.26C304.628 40.8867 304.448 40.4 304.448 39.8C304.448 38.9333 304.768 38.2267 305.408 37.68C306.062 37.12 306.942 36.84 308.048 36.84C309.102 36.84 309.962 37.1067 310.628 37.64C311.308 38.16 311.702 38.9067 311.808 39.88H310.148C310.082 39.3733 309.862 38.98 309.488 38.7C309.128 38.4067 308.642 38.26 308.028 38.26C307.428 38.26 306.962 38.3867 306.628 38.64C306.308 38.8933 306.148 39.2267 306.148 39.64C306.148 40.04 306.355 40.3533 306.768 40.58C307.195 40.8067 307.768 41 308.488 41.16C309.102 41.2933 309.682 41.46 310.228 41.66C310.788 41.8467 311.242 42.1333 311.588 42.52C311.948 42.8933 312.128 43.44 312.128 44.16C312.142 45.0533 311.802 45.7933 311.108 46.38C310.428 46.9533 309.502 47.24 308.328 47.24ZM318.328 47.24C317.142 47.24 316.155 46.94 315.368 46.34C314.582 45.74 314.122 44.9267 313.988 43.9H315.708C315.815 44.42 316.088 44.8733 316.528 45.26C316.982 45.6333 317.588 45.82 318.348 45.82C319.055 45.82 319.575 45.6733 319.908 45.38C320.242 45.0733 320.408 44.7133 320.408 44.3C320.408 43.7 320.188 43.3 319.748 43.1C319.322 42.9 318.715 42.72 317.928 42.56C317.395 42.4533 316.862 42.3 316.328 42.1C315.795 41.9 315.348 41.62 314.988 41.26C314.628 40.8867 314.448 40.4 314.448 39.8C314.448 38.9333 314.768 38.2267 315.408 37.68C316.062 37.12 316.942 36.84 318.048 36.84C319.102 36.84 319.962 37.1067 320.628 37.64C321.308 38.16 321.702 38.9067 321.808 39.88H320.148C320.082 39.3733 319.862 38.98 319.488 38.7C319.128 38.4067 318.642 38.26 318.028 38.26C317.428 38.26 316.962 38.3867 316.628 38.64C316.308 38.8933 316.148 39.2267 316.148 39.64C316.148 40.04 316.355 40.3533 316.768 40.58C317.195 40.8067 317.768 41 318.488 41.16C319.102 41.2933 319.682 41.46 320.228 41.66C320.788 41.8467 321.242 42.1333 321.588 42.52C321.948 42.8933 322.128 43.44 322.128 44.16C322.142 45.0533 321.802 45.7933 321.108 46.38C320.428 46.9533 319.502 47.24 318.328 47.24ZM328.988 47.24C328.042 47.24 327.202 47.0267 326.468 46.6C325.735 46.16 325.155 45.5533 324.728 44.78C324.315 44.0067 324.108 43.0933 324.108 42.04C324.108 41 324.315 40.0933 324.728 39.32C325.142 38.5333 325.715 37.9267 326.448 37.5C327.195 37.06 328.055 36.84 329.028 36.84C329.988 36.84 330.815 37.06 331.508 37.5C332.215 37.9267 332.755 38.4933 333.128 39.2C333.502 39.9067 333.688 40.6667 333.688 41.48C333.688 41.6267 333.682 41.7733 333.668 41.92C333.668 42.0667 333.668 42.2333 333.668 42.42H325.768C325.808 43.18 325.982 43.8133 326.288 44.32C326.608 44.8133 327.002 45.1867 327.468 45.44C327.948 45.6933 328.455 45.82 328.988 45.82C329.682 45.82 330.262 45.66 330.728 45.34C331.195 45.02 331.535 44.5867 331.748 44.04H333.408C333.142 44.96 332.628 45.7267 331.868 46.34C331.122 46.94 330.162 47.24 328.988 47.24ZM328.988 38.26C328.188 38.26 327.475 38.5067 326.848 39C326.235 39.48 325.882 40.1867 325.788 41.12H332.028C331.988 40.2267 331.682 39.5267 331.108 39.02C330.535 38.5133 329.828 38.26 328.988 38.26ZM345.708 47.24C344.721 47.24 343.855 47.0133 343.108 46.56C342.375 46.1067 341.801 45.4867 341.388 44.7C340.988 43.9133 340.788 43.02 340.788 42.02C340.788 41.02 340.995 40.1333 341.408 39.36C341.821 38.5733 342.395 37.96 343.128 37.52C343.861 37.0667 344.728 36.84 345.728 36.84C346.541 36.84 347.261 37.0067 347.888 37.34C348.515 37.6733 349.001 38.14 349.348 38.74V32.6H351.028V47H349.508L349.348 45.36C349.028 45.84 348.568 46.2733 347.968 46.66C347.368 47.0467 346.615 47.24 345.708 47.24ZM345.888 45.78C346.555 45.78 347.141 45.6267 347.648 45.32C348.168 45 348.568 44.56 348.848 44C349.141 43.44 349.288 42.7867 349.288 42.04C349.288 41.2933 349.141 40.64 348.848 40.08C348.568 39.52 348.168 39.0867 347.648 38.78C347.141 38.46 346.555 38.3 345.888 38.3C345.235 38.3 344.648 38.46 344.128 38.78C343.621 39.0867 343.221 39.52 342.928 40.08C342.648 40.64 342.508 41.2933 342.508 42.04C342.508 42.7867 342.648 43.44 342.928 44C343.221 44.56 343.621 45 344.128 45.32C344.648 45.6267 345.235 45.78 345.888 45.78ZM354.787 34.88C354.453 34.88 354.173 34.7733 353.947 34.56C353.733 34.3333 353.627 34.0533 353.627 33.72C353.627 33.4 353.733 33.1333 353.947 32.92C354.173 32.7067 354.453 32.6 354.787 32.6C355.107 32.6 355.38 32.7067 355.607 32.92C355.833 33.1333 355.947 33.4 355.947 33.72C355.947 34.0533 355.833 34.3333 355.607 34.56C355.38 34.7733 355.107 34.88 354.787 34.88ZM353.947 47V37.08H355.627V47H353.947ZM363.112 47.24C362.165 47.24 361.312 47.0267 360.552 46.6C359.805 46.16 359.212 45.5533 358.772 44.78C358.345 43.9933 358.132 43.08 358.132 42.04C358.132 41 358.345 40.0933 358.772 39.32C359.212 38.5333 359.805 37.9267 360.552 37.5C361.312 37.06 362.165 36.84 363.112 36.84C364.285 36.84 365.272 37.1467 366.072 37.76C366.885 38.3733 367.399 39.1933 367.612 40.22H365.892C365.759 39.6067 365.432 39.1333 364.912 38.8C364.392 38.4533 363.785 38.28 363.092 38.28C362.532 38.28 362.005 38.42 361.512 38.7C361.019 38.98 360.619 39.4 360.312 39.96C360.005 40.52 359.852 41.2133 359.852 42.04C359.852 42.8667 360.005 43.56 360.312 44.12C360.619 44.68 361.019 45.1067 361.512 45.4C362.005 45.68 362.532 45.82 363.092 45.82C363.785 45.82 364.392 45.6533 364.912 45.32C365.432 44.9733 365.759 44.4867 365.892 43.86H367.612C367.412 44.86 366.905 45.6733 366.092 46.3C365.279 46.9267 364.285 47.24 363.112 47.24ZM373.605 47C372.698 47 371.985 46.78 371.465 46.34C370.945 45.9 370.685 45.1067 370.685 43.96V38.5H368.965V37.08H370.685L370.905 34.7H372.365V37.08H375.285V38.5H372.365V43.96C372.365 44.5867 372.491 45.0133 372.745 45.24C372.998 45.4533 373.445 45.56 374.085 45.56H375.125V47H373.605ZM380.719 47.24C379.892 47.24 379.206 47.1 378.659 46.82C378.112 46.54 377.706 46.1667 377.439 45.7C377.172 45.2333 377.039 44.7267 377.039 44.18C377.039 43.1667 377.426 42.3867 378.199 41.84C378.972 41.2933 380.026 41.02 381.359 41.02H384.039V40.9C384.039 40.0333 383.812 39.38 383.359 38.94C382.906 38.4867 382.299 38.26 381.539 38.26C380.886 38.26 380.319 38.4267 379.839 38.76C379.372 39.08 379.079 39.5533 378.959 40.18H377.239C377.306 39.46 377.546 38.8533 377.959 38.36C378.386 37.8667 378.912 37.4933 379.539 37.24C380.166 36.9733 380.832 36.84 381.539 36.84C382.926 36.84 383.966 37.2133 384.659 37.96C385.366 38.6933 385.719 39.6733 385.719 40.9V47H384.219L384.119 45.22C383.839 45.78 383.426 46.26 382.879 46.66C382.346 47.0467 381.626 47.24 380.719 47.24ZM380.979 45.82C381.619 45.82 382.166 45.6533 382.619 45.32C383.086 44.9867 383.439 44.5533 383.679 44.02C383.919 43.4867 384.039 42.9267 384.039 42.34V42.32H381.499C380.512 42.32 379.812 42.4933 379.399 42.84C378.999 43.1733 378.799 43.5933 378.799 44.1C378.799 44.62 378.986 45.04 379.359 45.36C379.746 45.6667 380.286 45.82 380.979 45.82ZM397.992 47.24C397.046 47.24 396.206 47.0267 395.472 46.6C394.739 46.16 394.159 45.5533 393.732 44.78C393.319 44.0067 393.112 43.0933 393.112 42.04C393.112 41 393.319 40.0933 393.732 39.32C394.146 38.5333 394.719 37.9267 395.452 37.5C396.199 37.06 397.059 36.84 398.032 36.84C398.992 36.84 399.819 37.06 400.512 37.5C401.219 37.9267 401.759 38.4933 402.132 39.2C402.506 39.9067 402.692 40.6667 402.692 41.48C402.692 41.6267 402.686 41.7733 402.672 41.92C402.672 42.0667 402.672 42.2333 402.672 42.42H394.772C394.812 43.18 394.986 43.8133 395.292 44.32C395.612 44.8133 396.006 45.1867 396.472 45.44C396.952 45.6933 397.459 45.82 397.992 45.82C398.686 45.82 399.266 45.66 399.732 45.34C400.199 45.02 400.539 44.5867 400.752 44.04H402.412C402.146 44.96 401.632 45.7267 400.872 46.34C400.126 46.94 399.166 47.24 397.992 47.24ZM397.992 38.26C397.192 38.26 396.479 38.5067 395.852 39C395.239 39.48 394.886 40.1867 394.792 41.12H401.032C400.992 40.2267 400.686 39.5267 400.112 39.02C399.539 38.5133 398.832 38.26 397.992 38.26ZM408.719 47.24C407.532 47.24 406.546 46.94 405.759 46.34C404.972 45.74 404.512 44.9267 404.379 43.9H406.099C406.206 44.42 406.479 44.8733 406.919 45.26C407.372 45.6333 407.979 45.82 408.739 45.82C409.446 45.82 409.966 45.6733 410.299 45.38C410.632 45.0733 410.799 44.7133 410.799 44.3C410.799 43.7 410.579 43.3 410.139 43.1C409.712 42.9 409.106 42.72 408.319 42.56C407.786 42.4533 407.252 42.3 406.719 42.1C406.186 41.9 405.739 41.62 405.379 41.26C405.019 40.8867 404.839 40.4 404.839 39.8C404.839 38.9333 405.159 38.2267 405.799 37.68C406.452 37.12 407.332 36.84 408.439 36.84C409.492 36.84 410.352 37.1067 411.019 37.64C411.699 38.16 412.092 38.9067 412.199 39.88H410.539C410.472 39.3733 410.252 38.98 409.879 38.7C409.519 38.4067 409.032 38.26 408.419 38.26C407.819 38.26 407.352 38.3867 407.019 38.64C406.699 38.8933 406.539 39.2267 406.539 39.64C406.539 40.04 406.746 40.3533 407.159 40.58C407.586 40.8067 408.159 41 408.879 41.16C409.492 41.2933 410.072 41.46 410.619 41.66C411.179 41.8467 411.632 42.1333 411.979 42.52C412.339 42.8933 412.519 43.44 412.519 44.16C412.532 45.0533 412.192 45.7933 411.499 46.38C410.819 46.9533 409.892 47.24 408.719 47.24ZM418.39 47C417.483 47 416.77 46.78 416.25 46.34C415.73 45.9 415.47 45.1067 415.47 43.96V38.5H413.75V37.08H415.47L415.69 34.7H417.15V37.08H420.07V38.5H417.15V43.96C417.15 44.5867 417.277 45.0133 417.53 45.24C417.783 45.4533 418.23 45.56 418.87 45.56H419.91V47H418.39ZM422.784 47.1C422.451 47.1 422.171 46.9933 421.944 46.78C421.731 46.5533 421.624 46.28 421.624 45.96C421.624 45.64 421.731 45.3733 421.944 45.16C422.171 44.9333 422.451 44.82 422.784 44.82C423.104 44.82 423.371 44.9333 423.584 45.16C423.811 45.3733 423.924 45.64 423.924 45.96C423.924 46.28 423.811 46.5533 423.584 46.78C423.371 46.9933 423.104 47.1 422.784 47.1Z" fill="black"/>
</svg>
