<svg width="47" height="13" viewBox="0 0 47 13" fill="none" xmlns="http://www.w3.org/2000/svg">
<path d="M0.184 12V0.799999H3.624C5.59733 0.799999 7.048 1.30133 7.976 2.304C8.91467 3.30667 9.384 4.68267 9.384 6.432C9.384 8.14933 8.91467 9.50933 7.976 10.512C7.048 11.504 5.59733 12 3.624 12H0.184ZM1.528 10.88H3.592C4.68 10.88 5.544 10.704 6.184 10.352C6.83467 9.98933 7.29867 9.47733 7.576 8.816C7.85333 8.144 7.992 7.34933 7.992 6.432C7.992 5.49333 7.85333 4.688 7.576 4.016C7.29867 3.344 6.83467 2.82667 6.184 2.464C5.544 2.10133 4.68 1.92 3.592 1.92H1.528V10.88ZM12.0606 2.304C11.794 2.304 11.57 2.21867 11.3886 2.048C11.218 1.86667 11.1326 1.64267 11.1326 1.376C11.1326 1.12 11.218 0.906666 11.3886 0.735999C11.57 0.565333 11.794 0.48 12.0606 0.48C12.3166 0.48 12.5353 0.565333 12.7166 0.735999C12.898 0.906666 12.9886 1.12 12.9886 1.376C12.9886 1.64267 12.898 1.86667 12.7166 2.048C12.5353 2.21867 12.3166 2.304 12.0606 2.304ZM11.3886 12V4.064H12.7326V12H11.3886ZM18.7208 12.192C17.9634 12.192 17.2808 12.0213 16.6728 11.68C16.0754 11.328 15.6008 10.8427 15.2488 10.224C14.9074 9.59467 14.7368 8.864 14.7368 8.032C14.7368 7.2 14.9074 6.47467 15.2488 5.856C15.6008 5.22667 16.0754 4.74133 16.6728 4.4C17.2808 4.048 17.9634 3.872 18.7208 3.872C19.6594 3.872 20.4488 4.11733 21.0888 4.608C21.7394 5.09867 22.1501 5.75467 22.3208 6.576H20.9448C20.8381 6.08533 20.5768 5.70667 20.1608 5.44C19.7448 5.16267 19.2594 5.024 18.7048 5.024C18.2568 5.024 17.8354 5.136 17.4408 5.36C17.0461 5.584 16.7261 5.92 16.4808 6.368C16.2354 6.816 16.1128 7.37067 16.1128 8.032C16.1128 8.69333 16.2354 9.248 16.4808 9.696C16.7261 10.144 17.0461 10.4853 17.4408 10.72C17.8354 10.944 18.2568 11.056 18.7048 11.056C19.2594 11.056 19.7448 10.9227 20.1608 10.656C20.5768 10.3787 20.8381 9.98933 20.9448 9.488H22.3208C22.1608 10.288 21.7554 10.9387 21.1048 11.44C20.4541 11.9413 19.6594 12.192 18.7208 12.192ZM31.1418 4.064V12H29.9258L29.8458 10.576C29.5898 11.0773 29.2218 11.472 28.7418 11.76C28.2618 12.048 27.7178 12.192 27.1098 12.192C26.1711 12.192 25.4191 11.9093 24.8538 11.344C24.2991 10.768 24.0218 9.888 24.0218 8.704V4.064H25.3658V8.56C25.3658 10.2133 26.0484 11.04 27.4138 11.04C28.0964 11.04 28.6618 10.7947 29.1098 10.304C29.5684 9.80267 29.7978 9.09333 29.7978 8.176V4.064H31.1418ZM33.354 12V4.064H34.57L34.65 5.488C34.906 4.98667 35.274 4.592 35.754 4.304C36.234 4.016 36.778 3.872 37.386 3.872C38.3247 3.872 39.0713 4.16 39.626 4.736C40.1913 5.30133 40.474 6.176 40.474 7.36V12H39.13V7.504C39.13 5.85067 38.4473 5.024 37.082 5.024C36.3993 5.024 35.8287 5.27467 35.37 5.776C34.922 6.26667 34.698 6.97067 34.698 7.888V12H33.354ZM45.6463 12C44.9209 12 44.3503 11.824 43.9343 11.472C43.5183 11.12 43.3103 10.4853 43.3103 9.568V5.2H41.9342V4.064H43.3103L43.4863 2.16H44.6543V4.064H46.9903V5.2H44.6543V9.568C44.6543 10.0693 44.7556 10.4107 44.9583 10.592C45.1609 10.7627 45.5183 10.848 46.0303 10.848H46.8623V12H45.6463Z" fill="black" fill-opacity="0.5"/>
</svg>
