<svg width="71" height="12" viewBox="0 0 71 12" fill="none" xmlns="http://www.w3.org/2000/svg">
<path d="M3.012 9.144C2.196 9.144 1.54 8.916 1.044 8.46C0.556 7.996 0.312 7.34 0.312 6.492H1.848C1.856 6.884 1.948 7.196 2.124 7.428C2.3 7.66 2.584 7.776 2.976 7.776C3.344 7.776 3.612 7.668 3.78 7.452C3.948 7.228 4.032 6.936 4.032 6.576V0.599999H5.568V6.576C5.568 7.4 5.336 8.036 4.872 8.484C4.416 8.924 3.796 9.144 3.012 9.144ZM12.9027 3.048V9H11.5467L11.4267 7.992C11.2427 8.344 10.9747 8.624 10.6227 8.832C10.2787 9.04 9.87072 9.144 9.39872 9.144C8.66272 9.144 8.09072 8.912 7.68272 8.448C7.27472 7.984 7.07072 7.304 7.07072 6.408V3.048H8.60672V6.264C8.60672 6.776 8.71072 7.168 8.91872 7.44C9.12672 7.712 9.45072 7.848 9.89072 7.848C10.3227 7.848 10.6747 7.696 10.9467 7.392C11.2267 7.088 11.3667 6.664 11.3667 6.12V3.048H12.9027ZM14.4675 9V0.36H16.0035V9H14.4675ZM18.317 11.64L19.697 8.604H19.337L17.021 3.048H18.689L20.357 7.236L22.097 3.048H23.729L19.949 11.64H18.317ZM28.5405 9V2.352L27.1605 2.676V1.5L29.1885 0.599999H30.1365V9H28.5405ZM34.7772 9.144C34.1612 9.144 33.6292 9.036 33.1812 8.82C32.7412 8.604 32.3932 8.308 32.1372 7.932C31.8892 7.548 31.7452 7.116 31.7052 6.636H33.2052C33.2772 6.98 33.4532 7.268 33.7332 7.5C34.0132 7.724 34.3612 7.836 34.7772 7.836C35.2252 7.836 35.5892 7.672 35.8692 7.344C36.1572 7.016 36.3012 6.608 36.3012 6.12C36.3012 5.616 36.1572 5.216 35.8692 4.92C35.5892 4.624 35.2332 4.476 34.8012 4.476C34.4412 4.476 34.1292 4.564 33.8652 4.74C33.6012 4.916 33.4132 5.136 33.3012 5.4H31.8252L32.5452 0.599999H37.2012V1.944H33.6972L33.3132 3.888C33.4892 3.696 33.7292 3.54 34.0332 3.42C34.3372 3.292 34.6772 3.228 35.0532 3.228C35.6532 3.228 36.1532 3.364 36.5532 3.636C36.9532 3.9 37.2572 4.252 37.4652 4.692C37.6732 5.124 37.7772 5.596 37.7772 6.108C37.7772 6.692 37.6492 7.212 37.3932 7.668C37.1452 8.124 36.7932 8.484 36.3372 8.748C35.8892 9.012 35.3692 9.144 34.7772 9.144ZM38.5586 10.392L39.2426 7.404H40.7306L39.5666 10.392H38.5586ZM44.6393 9V7.884C45.1513 7.46 45.6473 7.04 46.1273 6.624C46.6153 6.208 47.0473 5.796 47.4233 5.388C47.8073 4.98 48.1113 4.584 48.3353 4.2C48.5673 3.808 48.6833 3.428 48.6833 3.06C48.6833 2.716 48.5873 2.412 48.3953 2.148C48.2113 1.884 47.9033 1.752 47.4713 1.752C47.0313 1.752 46.6993 1.896 46.4753 2.184C46.2513 2.472 46.1393 2.82 46.1393 3.228H44.6513C44.6673 2.612 44.8033 2.1 45.0593 1.692C45.3153 1.276 45.6553 0.968 46.0793 0.767999C46.5033 0.56 46.9793 0.456 47.5073 0.456C48.3633 0.456 49.0273 0.692 49.4993 1.164C49.9793 1.628 50.2193 2.232 50.2193 2.976C50.2193 3.44 50.1113 3.892 49.8953 4.332C49.6873 4.772 49.4113 5.196 49.0673 5.604C48.7233 6.012 48.3513 6.396 47.9513 6.756C47.5513 7.108 47.1633 7.436 46.7873 7.74H50.4233V9H44.6393ZM55.0842 9.144C54.3082 9.144 53.6442 8.964 53.0922 8.604C52.5402 8.236 52.1122 7.728 51.8082 7.08C51.5122 6.424 51.3642 5.664 51.3642 4.8C51.3642 3.944 51.5122 3.188 51.8082 2.532C52.1122 1.876 52.5402 1.368 53.0922 1.008C53.6442 0.64 54.3082 0.456 55.0842 0.456C55.8602 0.456 56.5242 0.64 57.0762 1.008C57.6282 1.368 58.0522 1.876 58.3482 2.532C58.6522 3.188 58.8042 3.944 58.8042 4.8C58.8042 5.664 58.6522 6.424 58.3482 7.08C58.0522 7.728 57.6282 8.236 57.0762 8.604C56.5242 8.964 55.8602 9.144 55.0842 9.144ZM55.0842 7.764C55.7162 7.764 56.2322 7.5 56.6322 6.972C57.0322 6.444 57.2322 5.72 57.2322 4.8C57.2322 3.88 57.0322 3.156 56.6322 2.628C56.2322 2.1 55.7162 1.836 55.0842 1.836C54.4442 1.836 53.9242 2.1 53.5242 2.628C53.1322 3.156 52.9362 3.88 52.9362 4.8C52.9362 5.72 53.1322 6.444 53.5242 6.972C53.9242 7.5 54.4442 7.764 55.0842 7.764ZM61.0718 9V2.352L59.6918 2.676V1.5L61.7198 0.599999H62.6678V9H61.0718ZM67.1165 0.456C67.7485 0.456 68.2805 0.572 68.7125 0.804C69.1445 1.036 69.4925 1.348 69.7565 1.74C70.0205 2.132 70.2085 2.568 70.3205 3.048C70.4405 3.528 70.5005 4.02 70.5005 4.524C70.5005 5.46 70.3685 6.276 70.1045 6.972C69.8405 7.66 69.4605 8.196 68.9645 8.58C68.4685 8.956 67.8685 9.144 67.1645 9.144C66.5885 9.144 66.0965 9.032 65.6885 8.808C65.2885 8.576 64.9765 8.276 64.7525 7.908C64.5285 7.54 64.3965 7.144 64.3565 6.72H65.7845C65.8565 7.088 66.0125 7.372 66.2525 7.572C66.4925 7.772 66.8005 7.872 67.1765 7.872C67.7125 7.872 68.1445 7.628 68.4725 7.14C68.8005 6.644 68.9765 5.892 69.0005 4.884C68.8085 5.212 68.5205 5.484 68.1365 5.7C67.7525 5.916 67.3245 6.024 66.8525 6.024C66.3885 6.024 65.9525 5.912 65.5445 5.688C65.1365 5.464 64.8045 5.148 64.5485 4.74C64.3005 4.332 64.1765 3.852 64.1765 3.3C64.1765 2.796 64.2965 2.328 64.5365 1.896C64.7845 1.464 65.1285 1.116 65.5685 0.852C66.0165 0.588 66.5325 0.456 67.1165 0.456ZM67.2005 1.776C66.7525 1.776 66.3805 1.916 66.0845 2.196C65.7965 2.468 65.6525 2.816 65.6525 3.24C65.6525 3.688 65.8005 4.048 66.0965 4.32C66.3925 4.592 66.7685 4.728 67.2245 4.728C67.5205 4.728 67.7845 4.664 68.0165 4.536C68.2565 4.4 68.4445 4.224 68.5805 4.008C68.7165 3.784 68.7845 3.536 68.7845 3.264C68.7845 2.832 68.6325 2.476 68.3285 2.196C68.0325 1.916 67.6565 1.776 67.2005 1.776Z" fill="black"/>
</svg>
