<svg width="174" height="23" viewBox="0 0 174 23" fill="none" xmlns="http://www.w3.org/2000/svg">
<path d="M0.528 17V16.76L1.008 16.568C1.328 16.456 1.536 16.304 1.632 16.112C1.744 15.92 1.8 15.664 1.8 15.344V2.816C1.8 2.496 1.752 2.24 1.656 2.048C1.56 1.856 1.344 1.704 1.008 1.592L0.528 1.4V1.16H6.696V1.4L6.216 1.592C5.896 1.704 5.68 1.856 5.568 2.048C5.472 2.24 5.424 2.496 5.424 2.816V15.344C5.424 15.664 5.472 15.92 5.568 16.112C5.68 16.288 5.896 16.44 6.216 16.568L6.696 16.76V17H0.528ZM12.1539 17.36C11.2099 17.36 10.3619 17.152 9.60994 16.736C8.85794 16.304 8.25794 15.648 7.80994 14.768C7.37794 13.872 7.16194 12.728 7.16194 11.336C7.16194 9.928 7.40994 8.768 7.90594 7.856C8.40194 6.928 9.05794 6.24 9.87394 5.792C10.6899 5.328 11.5779 5.096 12.5379 5.096C13.0979 5.096 13.6339 5.152 14.1459 5.264C14.6579 5.376 15.1139 5.544 15.5139 5.768V2.648C15.5139 2.312 15.4579 2.064 15.3459 1.904C15.2499 1.744 15.0339 1.632 14.6979 1.568L14.2419 1.472V1.232L18.6099 0.175999L18.8739 0.391999L18.7779 3.752V15.488C18.7779 15.808 18.8339 16.072 18.9459 16.28C19.0579 16.472 19.2659 16.608 19.5699 16.688L19.7859 16.76V17L15.6819 17.264L15.4659 16.4C15.0339 16.688 14.5379 16.92 13.9779 17.096C13.4339 17.272 12.8259 17.36 12.1539 17.36ZM13.5459 16.472C14.2179 16.472 14.8339 16.272 15.3939 15.872V6.344C14.8019 5.96 14.1939 5.768 13.5699 5.768C12.8019 5.768 12.1459 6.216 11.6019 7.112C11.0579 7.992 10.7859 9.384 10.7859 11.288C10.7859 13.192 11.0419 14.536 11.5539 15.32C12.0659 16.088 12.7299 16.472 13.5459 16.472ZM27.8552 22.52V22.28L28.3592 22.16C28.9672 21.984 29.2712 21.584 29.2712 20.96V16.184C28.8072 16.536 28.2712 16.816 27.6632 17.024C27.0712 17.248 26.4072 17.36 25.6712 17.36C24.3112 17.36 23.1832 16.848 22.2872 15.824C21.3912 14.8 20.9432 13.312 20.9432 11.36C20.9432 10.016 21.1672 8.88 21.6152 7.952C22.0632 7.024 22.6792 6.32 23.4632 5.84C24.2632 5.344 25.1832 5.096 26.2232 5.096C26.9272 5.096 27.5672 5.2 28.1432 5.408C28.7352 5.616 29.2552 5.88 29.7032 6.2L32.4392 5.096L32.6792 5.336L32.6072 8.576V21.032C32.6072 21.688 32.8952 22.08 33.4712 22.208L33.6872 22.28V22.52H27.8552ZM27.2552 16.4C27.9272 16.4 28.5752 16.144 29.1992 15.632V6.512C28.9272 6.336 28.6472 6.208 28.3592 6.128C28.0712 6.048 27.7272 6.008 27.3272 6.008C26.4792 6.008 25.8072 6.424 25.3112 7.256C24.8152 8.072 24.5672 9.424 24.5672 11.312C24.5672 13.152 24.8072 14.464 25.2872 15.248C25.7672 16.016 26.4232 16.4 27.2552 16.4ZM38.6912 17.36C38.0672 17.36 37.4912 17.24 36.9632 17C36.4512 16.76 36.0432 16.376 35.7392 15.848C35.4512 15.304 35.3152 14.592 35.3312 13.712L35.4032 7.544C35.4032 7.176 35.3392 6.912 35.2112 6.752C35.0832 6.592 34.8832 6.48 34.6112 6.416L34.3232 6.32V6.08L38.6192 5.24L38.8592 5.48L38.7392 8.888V14.672C38.7392 15.184 38.8832 15.56 39.1712 15.8C39.4752 16.04 39.8512 16.16 40.2992 16.16C40.7472 16.16 41.1472 16.096 41.4992 15.968C41.8512 15.84 42.2032 15.648 42.5552 15.392L42.6512 7.568C42.6512 7.2 42.5952 6.944 42.4832 6.8C42.3712 6.64 42.1632 6.528 41.8592 6.464L41.6192 6.392V6.152L45.8192 5.24L46.0592 5.48L45.9872 8.888V15.392C45.9872 15.744 46.0352 16.016 46.1312 16.208C46.2272 16.4 46.4352 16.56 46.7552 16.688L46.9952 16.76V17L42.7952 17.24L42.5792 15.824C42.0512 16.256 41.4752 16.624 40.8512 16.928C40.2432 17.216 39.5232 17.36 38.6912 17.36ZM53.8946 5.096C54.9346 5.096 55.8226 5.312 56.5586 5.744C57.2946 6.16 57.8546 6.736 58.2386 7.472C58.6386 8.192 58.8386 9.016 58.8386 9.944C58.8386 10.12 58.8306 10.304 58.8146 10.496C58.7986 10.672 58.7666 10.832 58.7186 10.976H51.5666C51.5826 12.704 51.8866 13.952 52.4786 14.72C53.0866 15.472 53.9826 15.848 55.1666 15.848C55.9666 15.848 56.6146 15.72 57.1106 15.464C57.6066 15.208 58.0706 14.832 58.5026 14.336L58.7426 14.552C58.2466 15.432 57.5826 16.12 56.7506 16.616C55.9346 17.112 54.9506 17.36 53.7986 17.36C52.6626 17.36 51.6546 17.12 50.7746 16.64C49.8946 16.144 49.2066 15.44 48.7106 14.528C48.2146 13.616 47.9666 12.528 47.9666 11.264C47.9666 9.952 48.2546 8.84 48.8306 7.928C49.4066 7 50.1426 6.296 51.0386 5.816C51.9506 5.336 52.9026 5.096 53.8946 5.096ZM53.8226 5.576C53.3586 5.576 52.9586 5.72 52.6226 6.008C52.3026 6.28 52.0466 6.776 51.8546 7.496C51.6786 8.2 51.5826 9.2 51.5666 10.496H55.6706C55.8306 8.752 55.7666 7.496 55.4786 6.728C55.1906 5.96 54.6386 5.576 53.8226 5.576ZM65.2613 17V16.76L65.5973 16.664C65.9013 16.584 66.1093 16.448 66.2213 16.256C66.3493 16.064 66.4213 15.808 66.4373 15.488V7.976C66.4373 7.624 66.3813 7.368 66.2693 7.208C66.1573 7.032 65.9413 6.912 65.6213 6.848L65.2613 6.752V6.512L69.3653 5.12L69.6053 5.36L69.7973 6.992C70.3253 6.464 70.9253 6.016 71.5973 5.648C72.2853 5.28 72.9973 5.096 73.7333 5.096C74.5013 5.096 75.1173 5.256 75.5813 5.576C76.0453 5.88 76.3973 6.36 76.6373 7.016C77.2613 6.424 77.9333 5.96 78.6533 5.624C79.3893 5.272 80.1013 5.096 80.7893 5.096C81.9253 5.096 82.7573 5.368 83.2853 5.912C83.8293 6.456 84.1013 7.312 84.1013 8.48V15.512C84.1013 16.136 84.3893 16.528 84.9653 16.688L85.2293 16.76V17H79.6853V16.76L79.9253 16.688C80.2293 16.592 80.4373 16.448 80.5493 16.256C80.6773 16.064 80.7413 15.808 80.7413 15.488V8.144C80.7413 7.472 80.6213 7.016 80.3813 6.776C80.1413 6.52 79.7573 6.392 79.2293 6.392C78.8133 6.392 78.4053 6.488 78.0052 6.68C77.6213 6.856 77.2133 7.128 76.7812 7.496C76.8612 7.752 76.9093 8.032 76.9253 8.336C76.9573 8.64 76.9733 8.96 76.9733 9.296V15.512C76.9893 16.136 77.2773 16.528 77.8373 16.688L78.0533 16.76V17H72.4853V16.76L72.8213 16.664C73.1253 16.568 73.3333 16.432 73.4453 16.256C73.5733 16.064 73.6373 15.808 73.6373 15.488V8.168C73.6373 7.528 73.5173 7.072 73.2773 6.8C73.0533 6.528 72.6613 6.392 72.1013 6.392C71.7333 6.392 71.3653 6.488 70.9973 6.68C70.6293 6.856 70.2453 7.12 69.8453 7.472V15.512C69.8453 16.136 70.1253 16.528 70.6853 16.688L70.9013 16.76V17H65.2613ZM89.5309 17.36C88.6029 17.36 87.8189 17.096 87.1789 16.568C86.5549 16.04 86.2429 15.28 86.2429 14.288C86.2429 13.536 86.6269 12.848 87.3949 12.224C88.1629 11.584 89.3709 11.104 91.0189 10.784C91.2749 10.736 91.5629 10.688 91.8829 10.64C92.2029 10.576 92.5389 10.512 92.8909 10.448V8.552C92.8909 7.464 92.7549 6.704 92.4829 6.272C92.2269 5.824 91.8189 5.6 91.2589 5.6C90.8749 5.6 90.5709 5.728 90.3469 5.984C90.1229 6.224 89.9789 6.648 89.9149 7.256L89.8669 7.52C89.8349 8.208 89.6669 8.712 89.3629 9.032C89.0589 9.352 88.6829 9.512 88.2349 9.512C87.8189 9.512 87.4749 9.384 87.2029 9.128C86.9309 8.872 86.7949 8.528 86.7949 8.096C86.7949 7.44 87.0189 6.888 87.4669 6.44C87.9309 5.992 88.5389 5.656 89.2909 5.432C90.0429 5.208 90.8589 5.096 91.7389 5.096C93.1629 5.096 94.2589 5.448 95.0269 6.152C95.8109 6.84 96.2029 7.968 96.2029 9.536V14.84C96.2029 15.56 96.5389 15.92 97.2109 15.92H97.7389L97.9549 16.112C97.6509 16.496 97.3149 16.792 96.9469 17C96.5949 17.208 96.0909 17.312 95.4349 17.312C94.7309 17.312 94.1709 17.152 93.7549 16.832C93.3549 16.496 93.0909 16.056 92.9629 15.512C92.4829 16.024 91.9869 16.464 91.4749 16.832C90.9789 17.184 90.3309 17.36 89.5309 17.36ZM90.9949 15.896C91.3149 15.896 91.6109 15.824 91.8829 15.68C92.1709 15.52 92.5069 15.28 92.8909 14.96V10.928C92.7309 10.96 92.5709 10.992 92.4109 11.024C92.2509 11.056 92.0669 11.088 91.8589 11.12C91.1229 11.312 90.5309 11.64 90.0829 12.104C89.6509 12.552 89.4349 13.16 89.4349 13.928C89.4349 14.584 89.5869 15.08 89.8909 15.416C90.1949 15.736 90.5629 15.896 90.9949 15.896ZM101.329 3.848C100.785 3.848 100.321 3.68 99.9368 3.344C99.5688 2.992 99.3848 2.552 99.3848 2.024C99.3848 1.48 99.5688 1.04 99.9368 0.704C100.321 0.367999 100.785 0.199999 101.329 0.199999C101.873 0.199999 102.329 0.367999 102.697 0.704C103.065 1.04 103.249 1.48 103.249 2.024C103.249 2.552 103.065 2.992 102.697 3.344C102.329 3.68 101.873 3.848 101.329 3.848ZM98.4968 17V16.76L98.8328 16.664C99.1528 16.568 99.3688 16.424 99.4808 16.232C99.6088 16.04 99.6728 15.784 99.6728 15.464V7.952C99.6728 7.616 99.6088 7.368 99.4808 7.208C99.3688 7.032 99.1528 6.912 98.8328 6.848L98.4968 6.776V6.536L102.889 5.12L103.129 5.36L103.057 8.768V15.488C103.057 15.808 103.113 16.064 103.225 16.256C103.353 16.448 103.569 16.592 103.873 16.688L104.113 16.76V17H98.4968ZM111.199 5.096C112.239 5.096 113.127 5.312 113.863 5.744C114.599 6.16 115.159 6.736 115.543 7.472C115.943 8.192 116.143 9.016 116.143 9.944C116.143 10.12 116.135 10.304 116.119 10.496C116.103 10.672 116.071 10.832 116.023 10.976H108.871C108.887 12.704 109.191 13.952 109.783 14.72C110.391 15.472 111.287 15.848 112.471 15.848C113.271 15.848 113.919 15.72 114.415 15.464C114.911 15.208 115.375 14.832 115.807 14.336L116.047 14.552C115.551 15.432 114.887 16.12 114.055 16.616C113.239 17.112 112.255 17.36 111.103 17.36C109.967 17.36 108.959 17.12 108.079 16.64C107.199 16.144 106.511 15.44 106.015 14.528C105.519 13.616 105.271 12.528 105.271 11.264C105.271 9.952 105.559 8.84 106.135 7.928C106.711 7 107.447 6.296 108.343 5.816C109.255 5.336 110.207 5.096 111.199 5.096ZM111.127 5.576C110.663 5.576 110.263 5.72 109.927 6.008C109.607 6.28 109.351 6.776 109.159 7.496C108.983 8.2 108.887 9.2 108.871 10.496H112.975C113.135 8.752 113.071 7.496 112.783 6.728C112.495 5.96 111.943 5.576 111.127 5.576ZM121.491 17.36C120.707 17.36 120.003 17.264 119.379 17.072C118.755 16.896 118.179 16.672 117.651 16.4L117.675 13.544H117.915L118.731 14.984C119.083 15.624 119.467 16.104 119.883 16.424C120.315 16.728 120.859 16.88 121.515 16.88C122.283 16.88 122.899 16.712 123.363 16.376C123.843 16.024 124.083 15.56 124.083 14.984C124.083 14.456 123.915 14.024 123.579 13.688C123.243 13.352 122.619 13.048 121.707 12.776L120.699 12.464C119.723 12.176 118.955 11.728 118.395 11.12C117.835 10.512 117.555 9.768 117.555 8.888C117.555 7.832 117.971 6.936 118.803 6.2C119.635 5.464 120.827 5.096 122.379 5.096C123.003 5.096 123.587 5.168 124.131 5.312C124.691 5.44 125.227 5.64 125.739 5.912L125.595 8.504H125.355L124.515 7.016C124.211 6.488 123.907 6.12 123.603 5.912C123.315 5.688 122.875 5.576 122.283 5.576C121.739 5.576 121.227 5.728 120.747 6.032C120.267 6.336 120.027 6.768 120.027 7.328C120.027 7.872 120.227 8.304 120.627 8.624C121.043 8.944 121.651 9.24 122.451 9.512L123.531 9.824C124.683 10.176 125.507 10.664 126.003 11.288C126.499 11.896 126.747 12.632 126.747 13.496C126.747 14.664 126.283 15.6 125.355 16.304C124.443 17.008 123.155 17.36 121.491 17.36ZM132.353 17.36C131.329 17.36 130.529 17.104 129.953 16.592C129.393 16.08 129.113 15.264 129.113 14.144V5.936H127.457V5.696L128.033 5.6C128.529 5.488 128.953 5.328 129.305 5.12C129.673 4.912 130.033 4.632 130.385 4.28L132.353 2.096H132.593L132.521 5.456H135.209V5.936H132.497V14.576C132.497 15.136 132.617 15.56 132.857 15.848C133.113 16.136 133.433 16.28 133.817 16.28C134.153 16.28 134.449 16.2 134.705 16.04C134.961 15.864 135.217 15.632 135.473 15.344L135.713 15.584C135.393 16.128 134.953 16.56 134.393 16.88C133.833 17.2 133.153 17.36 132.353 17.36ZM139.968 17.36C139.04 17.36 138.256 17.096 137.616 16.568C136.992 16.04 136.68 15.28 136.68 14.288C136.68 13.536 137.064 12.848 137.832 12.224C138.6 11.584 139.808 11.104 141.456 10.784C141.712 10.736 142 10.688 142.32 10.64C142.64 10.576 142.976 10.512 143.328 10.448V8.552C143.328 7.464 143.192 6.704 142.92 6.272C142.664 5.824 142.256 5.6 141.696 5.6C141.312 5.6 141.008 5.728 140.784 5.984C140.56 6.224 140.416 6.648 140.352 7.256L140.304 7.52C140.272 8.208 140.104 8.712 139.8 9.032C139.496 9.352 139.12 9.512 138.672 9.512C138.256 9.512 137.912 9.384 137.64 9.128C137.368 8.872 137.232 8.528 137.232 8.096C137.232 7.44 137.456 6.888 137.904 6.44C138.368 5.992 138.976 5.656 139.728 5.432C140.48 5.208 141.296 5.096 142.176 5.096C143.6 5.096 144.696 5.448 145.464 6.152C146.248 6.84 146.64 7.968 146.64 9.536V14.84C146.64 15.56 146.976 15.92 147.648 15.92H148.176L148.392 16.112C148.088 16.496 147.752 16.792 147.384 17C147.032 17.208 146.528 17.312 145.872 17.312C145.168 17.312 144.608 17.152 144.192 16.832C143.792 16.496 143.528 16.056 143.4 15.512C142.92 16.024 142.424 16.464 141.912 16.832C141.416 17.184 140.768 17.36 139.968 17.36ZM141.432 15.896C141.752 15.896 142.048 15.824 142.32 15.68C142.608 15.52 142.944 15.28 143.328 14.96V10.928C143.168 10.96 143.008 10.992 142.848 11.024C142.688 11.056 142.504 11.088 142.296 11.12C141.56 11.312 140.968 11.64 140.52 12.104C140.088 12.552 139.872 13.16 139.872 13.928C139.872 14.584 140.024 15.08 140.328 15.416C140.632 15.736 141 15.896 141.432 15.896ZM153.446 17.36C152.422 17.36 151.622 17.104 151.046 16.592C150.486 16.08 150.206 15.264 150.206 14.144V5.936H148.55V5.696L149.126 5.6C149.622 5.488 150.046 5.328 150.398 5.12C150.766 4.912 151.126 4.632 151.478 4.28L153.446 2.096H153.686L153.614 5.456H156.302V5.936H153.59V14.576C153.59 15.136 153.71 15.56 153.95 15.848C154.206 16.136 154.526 16.28 154.91 16.28C155.246 16.28 155.542 16.2 155.798 16.04C156.054 15.864 156.31 15.632 156.566 15.344L156.806 15.584C156.486 16.128 156.046 16.56 155.486 16.88C154.926 17.2 154.246 17.36 153.446 17.36ZM160.438 3.848C159.894 3.848 159.43 3.68 159.046 3.344C158.678 2.992 158.494 2.552 158.494 2.024C158.494 1.48 158.678 1.04 159.046 0.704C159.43 0.367999 159.894 0.199999 160.438 0.199999C160.982 0.199999 161.438 0.367999 161.806 0.704C162.174 1.04 162.358 1.48 162.358 2.024C162.358 2.552 162.174 2.992 161.806 3.344C161.438 3.68 160.982 3.848 160.438 3.848ZM157.606 17V16.76L157.942 16.664C158.262 16.568 158.478 16.424 158.59 16.232C158.718 16.04 158.782 15.784 158.782 15.464V7.952C158.782 7.616 158.718 7.368 158.59 7.208C158.478 7.032 158.262 6.912 157.942 6.848L157.606 6.776V6.536L161.998 5.12L162.238 5.36L162.166 8.768V15.488C162.166 15.808 162.222 16.064 162.334 16.256C162.462 16.448 162.678 16.592 162.982 16.688L163.222 16.76V17H157.606ZM168.437 17.36C167.653 17.36 166.949 17.264 166.325 17.072C165.701 16.896 165.125 16.672 164.597 16.4L164.621 13.544H164.861L165.677 14.984C166.029 15.624 166.413 16.104 166.829 16.424C167.261 16.728 167.805 16.88 168.461 16.88C169.229 16.88 169.845 16.712 170.309 16.376C170.789 16.024 171.029 15.56 171.029 14.984C171.029 14.456 170.861 14.024 170.525 13.688C170.189 13.352 169.565 13.048 168.653 12.776L167.645 12.464C166.669 12.176 165.901 11.728 165.341 11.12C164.781 10.512 164.501 9.768 164.501 8.888C164.501 7.832 164.917 6.936 165.749 6.2C166.581 5.464 167.773 5.096 169.325 5.096C169.949 5.096 170.533 5.168 171.077 5.312C171.637 5.44 172.173 5.64 172.685 5.912L172.541 8.504H172.301L171.461 7.016C171.157 6.488 170.853 6.12 170.549 5.912C170.261 5.688 169.821 5.576 169.229 5.576C168.685 5.576 168.173 5.728 167.693 6.032C167.213 6.336 166.973 6.768 166.973 7.328C166.973 7.872 167.173 8.304 167.573 8.624C167.989 8.944 168.597 9.24 169.397 9.512L170.477 9.824C171.629 10.176 172.453 10.664 172.949 11.288C173.445 11.896 173.693 12.632 173.693 13.496C173.693 14.664 173.229 15.6 172.301 16.304C171.389 17.008 170.101 17.36 168.437 17.36Z" fill="black"/>
</svg>
