<svg width="498" height="133" viewBox="0 0 498 133" fill="none" xmlns="http://www.w3.org/2000/svg">
<path d="M0.584 51V50.28L2.096 49.704C3.632 49.08 4.4 47.856 4.4 46.032V8.448C4.4 6.528 3.632 5.304 2.096 4.776L0.584 4.2V3.48H19.592C24.68 3.48 29.048 4.44 32.696 6.36C36.392 8.232 39.224 10.944 41.192 14.496C43.208 18 44.216 22.224 44.216 27.168C44.216 32.208 43.136 36.504 40.976 40.056C38.816 43.608 35.792 46.32 31.904 48.192C28.064 50.064 23.528 51 18.296 51H0.584ZM15.2 49.56H18.296C21.752 49.56 24.536 48.888 26.648 47.544C28.76 46.152 30.296 43.848 31.256 40.632C32.264 37.368 32.768 32.904 32.768 27.24C32.768 21.576 32.264 17.136 31.256 13.92C30.296 10.656 28.784 8.352 26.72 7.008C24.656 5.616 21.944 4.92 18.584 4.92H15.2V49.56ZM60.1595 52.08C58.2875 52.08 56.5595 51.72 54.9755 51C53.4395 50.28 52.2155 49.128 51.3035 47.544C50.4395 45.912 50.0315 43.776 50.0795 41.136L50.2955 22.632C50.2955 21.528 50.1035 20.736 49.7195 20.256C49.3355 19.776 48.7355 19.44 47.9195 19.248L47.0555 18.96V18.24L59.9435 15.72L60.6635 16.44L60.3035 26.664V44.016C60.3035 45.552 60.7355 46.68 61.5995 47.4C62.5115 48.12 63.6395 48.48 64.9835 48.48C66.3275 48.48 67.5275 48.288 68.5835 47.904C69.6395 47.52 70.6955 46.944 71.7515 46.176L72.0395 22.704C72.0395 21.6 71.8715 20.832 71.5355 20.4C71.1995 19.92 70.5755 19.584 69.6635 19.392L68.9435 19.176V18.456L81.5435 15.72L82.2635 16.44L82.0475 26.664V46.176C82.0475 47.232 82.1915 48.048 82.4795 48.624C82.7675 49.2 83.3915 49.68 84.3515 50.064L85.0715 50.28V51L72.4715 51.72L71.8235 47.472C70.2395 48.768 68.5115 49.872 66.6395 50.784C64.8155 51.648 62.6555 52.08 60.1595 52.08ZM105.914 52.08C102.266 52.08 99.0978 51.336 96.4098 49.848C93.7218 48.312 91.6338 46.152 90.1458 43.368C88.7058 40.584 87.9858 37.32 87.9858 33.576C87.9858 29.832 88.7538 26.592 90.2898 23.856C91.8738 21.12 94.0098 19.008 96.6978 17.52C99.4338 16.032 102.506 15.288 105.914 15.288C109.322 15.288 112.37 16.032 115.058 17.52C117.746 18.96 119.858 21.048 121.394 23.784C122.978 26.52 123.77 29.784 123.77 33.576C123.77 37.368 123.026 40.656 121.538 43.44C120.098 46.176 118.034 48.312 115.346 49.848C112.706 51.336 109.562 52.08 105.914 52.08ZM105.914 50.64C107.594 50.64 108.938 50.16 109.946 49.2C110.954 48.24 111.674 46.536 112.106 44.088C112.586 41.64 112.826 38.184 112.826 33.72C112.826 29.208 112.586 25.728 112.106 23.28C111.674 20.832 110.954 19.128 109.946 18.168C108.938 17.208 107.594 16.728 105.914 16.728C104.234 16.728 102.866 17.208 101.81 18.168C100.802 19.128 100.058 20.832 99.5778 23.28C99.1458 25.728 98.9298 29.208 98.9298 33.72C98.9298 38.184 99.1458 41.64 99.5778 44.088C100.058 46.536 100.802 48.24 101.81 49.2C102.866 50.16 104.234 50.64 105.914 50.64ZM158.74 51.216L145.996 20.616C145.324 18.984 144.172 17.904 142.54 17.376L141.532 17.088V16.368H160.18V17.088L158.884 17.376C157.012 17.856 156.436 19.104 157.156 21.12L164.716 41.208L171.772 21.264C172.156 20.304 172.252 19.512 172.06 18.888C171.868 18.264 171.292 17.808 170.332 17.52L168.532 17.088V16.368H178.972V17.088L176.884 17.592C175.972 17.832 175.252 18.192 174.724 18.672C174.244 19.152 173.836 19.872 173.5 20.832L162.916 51.216H158.74ZM196.965 15.288C200.085 15.288 202.749 15.936 204.957 17.232C207.165 18.48 208.845 20.208 209.997 22.416C211.197 24.576 211.797 27.048 211.797 29.832C211.797 30.36 211.773 30.912 211.725 31.488C211.677 32.016 211.581 32.496 211.437 32.928H189.981C190.029 38.112 190.941 41.856 192.717 44.16C194.541 46.416 197.229 47.544 200.781 47.544C203.181 47.544 205.125 47.16 206.613 46.392C208.101 45.624 209.493 44.496 210.789 43.008L211.509 43.656C210.021 46.296 208.029 48.36 205.533 49.848C203.085 51.336 200.133 52.08 196.677 52.08C193.269 52.08 190.245 51.36 187.605 49.92C184.965 48.432 182.901 46.32 181.413 43.584C179.925 40.848 179.181 37.584 179.181 33.792C179.181 29.856 180.045 26.52 181.773 23.784C183.501 21 185.709 18.888 188.397 17.448C191.133 16.008 193.989 15.288 196.965 15.288ZM196.749 16.728C195.357 16.728 194.157 17.16 193.149 18.024C192.189 18.84 191.421 20.328 190.845 22.488C190.317 24.6 190.029 27.6 189.981 31.488H202.293C202.773 26.256 202.581 22.488 201.717 20.184C200.853 17.88 199.197 16.728 196.749 16.728ZM215.385 51V50.28L216.465 49.992C217.425 49.704 218.073 49.272 218.409 48.696C218.793 48.12 218.985 47.376 218.985 46.464V23.928C218.985 22.872 218.793 22.104 218.409 21.624C218.073 21.096 217.425 20.736 216.465 20.544L215.385 20.256V19.536L227.769 15.36L228.489 16.08L229.137 22.272V22.848C229.809 21.504 230.673 20.28 231.729 19.176C232.833 18.024 234.033 17.088 235.329 16.368C236.673 15.648 237.993 15.288 239.289 15.288C241.113 15.288 242.505 15.792 243.465 16.8C244.425 17.808 244.905 19.08 244.905 20.616C244.905 22.248 244.425 23.52 243.465 24.432C242.553 25.296 241.449 25.728 240.153 25.728C238.137 25.728 236.361 24.72 234.825 22.704L234.681 22.56C234.201 21.888 233.649 21.528 233.025 21.48C232.401 21.384 231.825 21.672 231.297 22.344C230.817 22.776 230.409 23.304 230.073 23.928C229.785 24.504 229.497 25.176 229.209 25.944V46.032C229.209 47.952 230.049 49.152 231.729 49.632L234.033 50.28V51H215.385ZM255.807 11.544C254.175 11.544 252.783 11.04 251.631 10.032C250.527 8.976 249.975 7.656 249.975 6.072C249.975 4.44 250.527 3.12 251.631 2.112C252.783 1.104 254.175 0.599997 255.807 0.599997C257.439 0.599997 258.807 1.104 259.911 2.112C261.015 3.12 261.567 4.44 261.567 6.072C261.567 7.656 261.015 8.976 259.911 10.032C258.807 11.04 257.439 11.544 255.807 11.544ZM247.311 51V50.28L248.319 49.992C249.279 49.704 249.927 49.272 250.263 48.696C250.647 48.12 250.839 47.352 250.839 46.392V23.856C250.839 22.848 250.647 22.104 250.263 21.624C249.927 21.096 249.279 20.736 248.319 20.544L247.311 20.328V19.608L260.487 15.36L261.207 16.08L260.991 26.304V46.464C260.991 47.424 261.159 48.192 261.495 48.768C261.879 49.344 262.527 49.776 263.439 50.064L264.159 50.28V51H247.311ZM301.098 15.288C304.218 15.288 306.882 15.936 309.09 17.232C311.298 18.48 312.978 20.208 314.13 22.416C315.33 24.576 315.93 27.048 315.93 29.832C315.93 30.36 315.906 30.912 315.858 31.488C315.81 32.016 315.714 32.496 315.57 32.928H294.114C294.162 38.112 295.074 41.856 296.85 44.16C298.674 46.416 301.362 47.544 304.914 47.544C307.314 47.544 309.258 47.16 310.746 46.392C312.234 45.624 313.626 44.496 314.922 43.008L315.642 43.656C314.154 46.296 312.162 48.36 309.666 49.848C307.218 51.336 304.266 52.08 300.81 52.08C297.402 52.08 294.378 51.36 291.738 49.92C289.098 48.432 287.034 46.32 285.546 43.584C284.058 40.848 283.314 37.584 283.314 33.792C283.314 29.856 284.178 26.52 285.906 23.784C287.634 21 289.842 18.888 292.53 17.448C295.266 16.008 298.122 15.288 301.098 15.288ZM300.882 16.728C299.49 16.728 298.29 17.16 297.282 18.024C296.322 18.84 295.554 20.328 294.978 22.488C294.45 24.6 294.162 27.6 294.114 31.488H306.426C306.906 26.256 306.714 22.488 305.85 20.184C304.986 17.88 303.33 16.728 300.882 16.728ZM319.518 51V50.28L320.598 49.992C321.558 49.704 322.206 49.272 322.542 48.696C322.926 48.12 323.118 47.376 323.118 46.464V23.928C323.118 22.872 322.926 22.104 322.542 21.624C322.206 21.096 321.558 20.736 320.598 20.544L319.518 20.256V19.536L331.902 15.36L332.622 16.08L333.27 22.272V22.848C333.942 21.504 334.806 20.28 335.862 19.176C336.966 18.024 338.166 17.088 339.462 16.368C340.806 15.648 342.126 15.288 343.422 15.288C345.246 15.288 346.638 15.792 347.598 16.8C348.558 17.808 349.038 19.08 349.038 20.616C349.038 22.248 348.558 23.52 347.598 24.432C346.686 25.296 345.582 25.728 344.286 25.728C342.27 25.728 340.494 24.72 338.958 22.704L338.814 22.56C338.334 21.888 337.782 21.528 337.158 21.48C336.534 21.384 335.958 21.672 335.43 22.344C334.95 22.776 334.542 23.304 334.206 23.928C333.918 24.504 333.63 25.176 333.342 25.944V46.032C333.342 47.952 334.182 49.152 335.862 49.632L338.166 50.28V51H319.518ZM359.939 11.544C358.307 11.544 356.915 11.04 355.763 10.032C354.659 8.976 354.107 7.656 354.107 6.072C354.107 4.44 354.659 3.12 355.763 2.112C356.915 1.104 358.307 0.599997 359.939 0.599997C361.571 0.599997 362.939 1.104 364.043 2.112C365.147 3.12 365.699 4.44 365.699 6.072C365.699 7.656 365.147 8.976 364.043 10.032C362.939 11.04 361.571 11.544 359.939 11.544ZM351.443 51V50.28L352.451 49.992C353.411 49.704 354.059 49.272 354.395 48.696C354.779 48.12 354.971 47.352 354.971 46.392V23.856C354.971 22.848 354.779 22.104 354.395 21.624C354.059 21.096 353.411 20.736 352.451 20.544L351.443 20.328V19.608L364.619 15.36L365.339 16.08L365.123 26.304V46.464C365.123 47.424 365.291 48.192 365.627 48.768C366.011 49.344 366.659 49.776 367.571 50.064L368.291 50.28V51H351.443ZM371.198 67.56V66.84L372.062 66.552C373.838 66.072 374.726 64.92 374.726 63.096V23.928C374.726 22.872 374.534 22.08 374.15 21.552C373.814 21.024 373.166 20.664 372.206 20.472L371.198 20.256V19.536L383.438 15.36L384.158 16.08L384.806 18.312C386.39 17.352 388.142 16.608 390.062 16.08C392.03 15.552 394.046 15.288 396.11 15.288C400.238 15.288 403.502 16.872 405.902 20.04C408.35 23.16 409.574 27.648 409.574 33.504C409.574 39.264 408.23 43.8 405.542 47.112C402.902 50.424 399.158 52.08 394.31 52.08C390.518 52.08 387.326 51.528 384.734 50.424V62.88C384.734 64.8 385.598 66 387.326 66.48L388.694 66.84V67.56H371.198ZM390.854 49.992C393.254 49.992 395.15 48.744 396.542 46.248C397.982 43.752 398.702 39.6 398.702 33.792C398.702 27.984 398.03 23.928 396.686 21.624C395.342 19.272 393.398 18.096 390.854 18.096C389.078 18.096 387.11 18.672 384.95 19.824V48.84C386.774 49.608 388.742 49.992 390.854 49.992ZM425.574 52.08C423.702 52.08 421.974 51.72 420.39 51C418.854 50.28 417.63 49.128 416.718 47.544C415.854 45.912 415.446 43.776 415.494 41.136L415.71 22.632C415.71 21.528 415.518 20.736 415.134 20.256C414.75 19.776 414.15 19.44 413.334 19.248L412.47 18.96V18.24L425.358 15.72L426.078 16.44L425.718 26.664V44.016C425.718 45.552 426.15 46.68 427.014 47.4C427.926 48.12 429.054 48.48 430.398 48.48C431.742 48.48 432.942 48.288 433.998 47.904C435.054 47.52 436.11 46.944 437.166 46.176L437.454 22.704C437.454 21.6 437.286 20.832 436.95 20.4C436.614 19.92 435.99 19.584 435.078 19.392L434.358 19.176V18.456L446.958 15.72L447.678 16.44L447.462 26.664V46.176C447.462 47.232 447.606 48.048 447.894 48.624C448.182 49.2 448.806 49.68 449.766 50.064L450.486 50.28V51L437.886 51.72L437.238 47.472C435.654 48.768 433.926 49.872 432.054 50.784C430.23 51.648 428.07 52.08 425.574 52.08ZM462.033 11.544C460.401 11.544 459.009 11.04 457.857 10.032C456.753 8.976 456.201 7.656 456.201 6.072C456.201 4.44 456.753 3.12 457.857 2.112C459.009 1.104 460.401 0.599997 462.033 0.599997C463.665 0.599997 465.033 1.104 466.137 2.112C467.241 3.12 467.793 4.44 467.793 6.072C467.793 7.656 467.241 8.976 466.137 10.032C465.033 11.04 463.665 11.544 462.033 11.544ZM453.537 51V50.28L454.545 49.992C455.505 49.704 456.153 49.272 456.489 48.696C456.873 48.12 457.065 47.352 457.065 46.392V23.856C457.065 22.848 456.873 22.104 456.489 21.624C456.153 21.096 455.505 20.736 454.545 20.544L453.537 20.328V19.608L466.713 15.36L467.433 16.08L467.217 26.304V46.464C467.217 47.424 467.385 48.192 467.721 48.768C468.105 49.344 468.753 49.776 469.665 50.064L470.385 50.28V51H453.537ZM487.253 52.08C484.181 52.08 481.781 51.312 480.053 49.776C478.373 48.24 477.533 45.792 477.533 42.432V17.808H472.565V17.088L474.293 16.8C475.781 16.464 477.053 15.984 478.109 15.36C479.213 14.736 480.293 13.896 481.349 12.84L487.253 6.288H487.973L487.757 16.368H495.821V17.808H487.685V43.728C487.685 45.408 488.045 46.68 488.765 47.544C489.533 48.408 490.493 48.84 491.645 48.84C492.653 48.84 493.541 48.6 494.309 48.12C495.077 47.592 495.845 46.896 496.613 46.032L497.333 46.752C496.373 48.384 495.053 49.68 493.373 50.64C491.693 51.6 489.653 52.08 487.253 52.08ZM0.656 131V130.28L1.52 129.992C3.248 129.416 4.112 128.216 4.112 126.392V87.944C4.112 86.936 3.944 86.192 3.608 85.712C3.272 85.232 2.624 84.872 1.664 84.632L0.584 84.344V83.624L13.256 80.528L14.408 81.176L14.12 91.328V100.328C15.8 98.936 17.6 97.76 19.52 96.8C21.488 95.792 23.648 95.288 26 95.288C29.12 95.288 31.592 96.176 33.416 97.952C35.288 99.728 36.224 102.464 36.224 106.16V126.464C36.224 127.424 36.416 128.192 36.8 128.768C37.184 129.344 37.856 129.776 38.816 130.064L39.392 130.28V131H22.544V130.28L23.408 130.064C25.136 129.488 26 128.264 26 126.392V103.784C26 101.864 25.664 100.544 24.992 99.824C24.368 99.104 23.24 98.744 21.608 98.744C20.552 98.744 19.4 98.96 18.152 99.392C16.904 99.776 15.632 100.472 14.336 101.48V126.536C14.336 128.408 15.2 129.608 16.928 130.136L17.504 130.28V131H0.656ZM60.4216 132.08C56.7736 132.08 53.6056 131.336 50.9176 129.848C48.2296 128.312 46.1416 126.152 44.6536 123.368C43.2136 120.584 42.4936 117.32 42.4936 113.576C42.4936 109.832 43.2616 106.592 44.7976 103.856C46.3816 101.12 48.5176 99.008 51.2056 97.52C53.9416 96.032 57.0136 95.288 60.4216 95.288C63.8296 95.288 66.8776 96.032 69.5656 97.52C72.2536 98.96 74.3656 101.048 75.9016 103.784C77.4856 106.52 78.2776 109.784 78.2776 113.576C78.2776 117.368 77.5336 120.656 76.0456 123.44C74.6056 126.176 72.5416 128.312 69.8536 129.848C67.2136 131.336 64.0696 132.08 60.4216 132.08ZM60.4216 130.64C62.1016 130.64 63.4456 130.16 64.4536 129.2C65.4616 128.24 66.1816 126.536 66.6136 124.088C67.0936 121.64 67.3336 118.184 67.3336 113.72C67.3336 109.208 67.0936 105.728 66.6136 103.28C66.1816 100.832 65.4616 99.128 64.4536 98.168C63.4456 97.208 62.1016 96.728 60.4216 96.728C58.7416 96.728 57.3736 97.208 56.3176 98.168C55.3096 99.128 54.5656 100.832 54.0856 103.28C53.6536 105.728 53.4376 109.208 53.4376 113.72C53.4376 118.184 53.6536 121.64 54.0856 124.088C54.5656 126.536 55.3096 128.24 56.3176 129.2C57.3736 130.16 58.7416 130.64 60.4216 130.64ZM81.44 131V130.28L82.448 129.992C84.128 129.512 84.968 128.336 84.968 126.464V103.928C84.968 102.872 84.8 102.104 84.464 101.624C84.128 101.096 83.48 100.736 82.52 100.544L81.44 100.256V99.536L93.752 95.36L94.472 96.08L95.048 100.4C96.728 98.912 98.624 97.688 100.736 96.728C102.848 95.768 104.936 95.288 107 95.288C110.168 95.288 112.592 96.152 114.272 97.88C116 99.608 116.864 102.248 116.864 105.8V126.536C116.864 128.408 117.776 129.584 119.6 130.064L120.248 130.28V131H103.256V130.28L104.192 129.992C105.872 129.464 106.712 128.288 106.712 126.464V103.496C106.712 100.424 105.176 98.888 102.104 98.888C99.992 98.888 97.688 99.944 95.192 102.056V126.536C95.192 128.408 96.032 129.584 97.712 130.064L98.36 130.28V131H81.44ZM141.137 95.288C144.257 95.288 146.921 95.936 149.129 97.232C151.337 98.48 153.017 100.208 154.169 102.416C155.369 104.576 155.969 107.048 155.969 109.832C155.969 110.36 155.945 110.912 155.897 111.488C155.849 112.016 155.753 112.496 155.609 112.928H134.153C134.201 118.112 135.113 121.856 136.889 124.16C138.713 126.416 141.401 127.544 144.953 127.544C147.353 127.544 149.297 127.16 150.785 126.392C152.273 125.624 153.665 124.496 154.961 123.008L155.681 123.656C154.193 126.296 152.201 128.36 149.705 129.848C147.257 131.336 144.305 132.08 140.849 132.08C137.441 132.08 134.417 131.36 131.777 129.92C129.137 128.432 127.073 126.32 125.585 123.584C124.097 120.848 123.353 117.584 123.353 113.792C123.353 109.856 124.217 106.52 125.945 103.784C127.673 101 129.881 98.888 132.569 97.448C135.305 96.008 138.161 95.288 141.137 95.288ZM140.921 96.728C139.529 96.728 138.329 97.16 137.321 98.024C136.361 98.84 135.593 100.328 135.017 102.488C134.489 104.6 134.201 107.6 134.153 111.488H146.465C146.945 106.256 146.753 102.488 145.889 100.184C145.025 97.88 143.369 96.728 140.921 96.728ZM172.013 132.08C169.661 132.08 167.549 131.792 165.677 131.216C163.805 130.688 162.077 130.016 160.493 129.2L160.565 120.632H161.285L163.733 124.952C164.789 126.872 165.941 128.312 167.189 129.272C168.485 130.184 170.117 130.64 172.085 130.64C174.389 130.64 176.237 130.136 177.629 129.128C179.069 128.072 179.789 126.68 179.789 124.952C179.789 123.368 179.285 122.072 178.277 121.064C177.269 120.056 175.397 119.144 172.661 118.328L169.637 117.392C166.709 116.528 164.405 115.184 162.725 113.36C161.045 111.536 160.205 109.304 160.205 106.664C160.205 103.496 161.453 100.808 163.949 98.6C166.445 96.392 170.021 95.288 174.677 95.288C176.549 95.288 178.301 95.504 179.933 95.936C181.613 96.32 183.221 96.92 184.757 97.736L184.325 105.512H183.605L181.085 101.048C180.173 99.464 179.261 98.36 178.349 97.736C177.485 97.064 176.165 96.728 174.389 96.728C172.757 96.728 171.221 97.184 169.781 98.096C168.341 99.008 167.621 100.304 167.621 101.984C167.621 103.616 168.221 104.912 169.421 105.872C170.669 106.832 172.493 107.72 174.893 108.536L178.133 109.472C181.589 110.528 184.061 111.992 185.549 113.864C187.037 115.688 187.781 117.896 187.781 120.488C187.781 123.992 186.389 126.8 183.605 128.912C180.869 131.024 177.005 132.08 172.013 132.08ZM204.597 132.08C201.525 132.08 199.125 131.312 197.397 129.776C195.717 128.24 194.877 125.792 194.877 122.432V97.808H189.909V97.088L191.637 96.8C193.125 96.464 194.397 95.984 195.453 95.36C196.557 94.736 197.637 93.896 198.693 92.84L204.597 86.288H205.317L205.101 96.368H213.165V97.808H205.029V123.728C205.029 125.408 205.389 126.68 206.109 127.544C206.877 128.408 207.837 128.84 208.989 128.84C209.997 128.84 210.885 128.6 211.653 128.12C212.421 127.592 213.189 126.896 213.957 126.032L214.677 126.752C213.717 128.384 212.397 129.68 210.717 130.64C209.037 131.6 206.997 132.08 204.597 132.08ZM227.444 132.08C224.66 132.08 222.308 131.288 220.388 129.704C218.516 128.12 217.58 125.84 217.58 122.864C217.58 120.608 218.732 118.544 221.036 116.672C223.34 114.752 226.964 113.312 231.908 112.352C232.676 112.208 233.54 112.064 234.5 111.92C235.46 111.728 236.468 111.536 237.524 111.344V105.656C237.524 102.392 237.116 100.112 236.3 98.816C235.532 97.472 234.308 96.8 232.628 96.8C231.476 96.8 230.564 97.184 229.892 97.952C229.22 98.672 228.788 99.944 228.596 101.768L228.452 102.56C228.356 104.624 227.852 106.136 226.94 107.096C226.028 108.056 224.9 108.536 223.556 108.536C222.308 108.536 221.276 108.152 220.46 107.384C219.644 106.616 219.236 105.584 219.236 104.288C219.236 102.32 219.908 100.664 221.252 99.32C222.644 97.976 224.468 96.968 226.724 96.296C228.98 95.624 231.428 95.288 234.068 95.288C238.34 95.288 241.628 96.344 243.932 98.456C246.284 100.52 247.46 103.904 247.46 108.608V124.52C247.46 126.68 248.468 127.76 250.484 127.76H252.068L252.716 128.336C251.804 129.488 250.796 130.376 249.692 131C248.636 131.624 247.124 131.936 245.156 131.936C243.044 131.936 241.364 131.456 240.116 130.496C238.916 129.488 238.124 128.168 237.74 126.536C236.3 128.072 234.812 129.392 233.276 130.496C231.788 131.552 229.844 132.08 227.444 132.08ZM231.836 127.688C232.796 127.688 233.684 127.472 234.5 127.04C235.364 126.56 236.372 125.84 237.524 124.88V112.784C237.044 112.88 236.564 112.976 236.084 113.072C235.604 113.168 235.052 113.264 234.428 113.36C232.22 113.936 230.444 114.92 229.1 116.312C227.804 117.656 227.156 119.48 227.156 121.784C227.156 123.752 227.612 125.24 228.524 126.248C229.436 127.208 230.54 127.688 231.836 127.688ZM267.878 132.08C264.806 132.08 262.406 131.312 260.678 129.776C258.998 128.24 258.158 125.792 258.158 122.432V97.808H253.19V97.088L254.918 96.8C256.406 96.464 257.678 95.984 258.734 95.36C259.838 94.736 260.918 93.896 261.974 92.84L267.878 86.288H268.598L268.382 96.368H276.446V97.808H268.31V123.728C268.31 125.408 268.67 126.68 269.39 127.544C270.158 128.408 271.118 128.84 272.27 128.84C273.278 128.84 274.166 128.6 274.934 128.12C275.702 127.592 276.47 126.896 277.238 126.032L277.958 126.752C276.998 128.384 275.678 129.68 273.998 130.64C272.318 131.6 270.278 132.08 267.878 132.08ZM288.853 91.544C287.221 91.544 285.829 91.04 284.677 90.032C283.573 88.976 283.021 87.656 283.021 86.072C283.021 84.44 283.573 83.12 284.677 82.112C285.829 81.104 287.221 80.6 288.853 80.6C290.485 80.6 291.853 81.104 292.957 82.112C294.061 83.12 294.613 84.44 294.613 86.072C294.613 87.656 294.061 88.976 292.957 90.032C291.853 91.04 290.485 91.544 288.853 91.544ZM280.357 131V130.28L281.365 129.992C282.325 129.704 282.973 129.272 283.309 128.696C283.693 128.12 283.885 127.352 283.885 126.392V103.856C283.885 102.848 283.693 102.104 283.309 101.624C282.973 101.096 282.325 100.736 281.365 100.544L280.357 100.328V99.608L293.533 95.36L294.253 96.08L294.037 106.304V126.464C294.037 127.424 294.205 128.192 294.541 128.768C294.925 129.344 295.573 129.776 296.485 130.064L297.205 130.28V131H280.357ZM312.849 132.08C310.497 132.08 308.385 131.792 306.513 131.216C304.641 130.688 302.913 130.016 301.329 129.2L301.401 120.632H302.121L304.569 124.952C305.625 126.872 306.777 128.312 308.025 129.272C309.321 130.184 310.953 130.64 312.921 130.64C315.225 130.64 317.073 130.136 318.465 129.128C319.905 128.072 320.625 126.68 320.625 124.952C320.625 123.368 320.121 122.072 319.113 121.064C318.105 120.056 316.233 119.144 313.497 118.328L310.473 117.392C307.545 116.528 305.241 115.184 303.561 113.36C301.881 111.536 301.041 109.304 301.041 106.664C301.041 103.496 302.289 100.808 304.785 98.6C307.281 96.392 310.857 95.288 315.513 95.288C317.385 95.288 319.137 95.504 320.769 95.936C322.449 96.32 324.057 96.92 325.593 97.736L325.161 105.512H324.441L321.921 101.048C321.009 99.464 320.097 98.36 319.185 97.736C318.321 97.064 317.001 96.728 315.225 96.728C313.593 96.728 312.057 97.184 310.617 98.096C309.177 99.008 308.457 100.304 308.457 101.984C308.457 103.616 309.057 104.912 310.257 105.872C311.505 106.832 313.329 107.72 315.729 108.536L318.969 109.472C322.425 110.528 324.897 111.992 326.385 113.864C327.873 115.688 328.617 117.896 328.617 120.488C328.617 123.992 327.225 126.8 324.441 128.912C321.705 131.024 317.841 132.08 312.849 132.08Z" fill="white"/>
</svg>
