<svg width="124" height="12" viewBox="0 0 124 12" fill="none" xmlns="http://www.w3.org/2000/svg">
<path d="M0.184 12V0.799999H7.112V1.904H1.528V5.808H6.632V6.896H1.528V10.896H7.112V12H0.184ZM13.4393 12L16.8633 6.352L13.4393 0.799999H14.9593L17.7113 5.28L20.3353 0.799999H21.8393L18.4153 6.416L21.8553 12H20.3353L17.5673 7.504L14.9593 12H13.4393ZM28.4403 12V0.799999H32.1203C32.9949 0.799999 33.7149 0.943999 34.2803 1.232C34.8456 1.52 35.2616 1.90933 35.5283 2.4C35.8056 2.89067 35.9443 3.44533 35.9443 4.064C35.9443 4.672 35.8109 5.22133 35.5443 5.712C35.2776 6.20267 34.8616 6.59733 34.2963 6.896C33.7309 7.184 33.0056 7.328 32.1203 7.328H29.7843V12H28.4403ZM29.7843 6.192H32.0883C32.9843 6.192 33.6189 6.00533 33.9923 5.632C34.3763 5.248 34.5683 4.72533 34.5683 4.064C34.5683 3.392 34.3763 2.86933 33.9923 2.496C33.6189 2.112 32.9843 1.92 32.0883 1.92H29.7843V6.192ZM42.5059 12V0.799999H49.4339V1.904H43.8499V5.808H48.9539V6.896H43.8499V10.896H49.4339V12H42.5059ZM58.9611 12V1.904H55.6171V0.799999H63.6491V1.904H60.3051V12H58.9611ZM70.0903 12V0.799999H77.0183V1.904H71.4343V5.808H76.5383V6.896H71.4343V10.896H77.0183V12H70.0903ZM83.9215 12V0.799999H85.2655L91.2335 9.776V0.799999H92.5775V12H91.2335L85.2655 3.024V12H83.9215ZM99.7527 12V0.799999H103.193C105.166 0.799999 106.617 1.30133 107.545 2.304C108.483 3.30667 108.953 4.68267 108.953 6.432C108.953 8.14933 108.483 9.50933 107.545 10.512C106.617 11.504 105.166 12 103.193 12H99.7527ZM101.097 10.88H103.161C104.249 10.88 105.113 10.704 105.753 10.352C106.403 9.98933 106.867 9.47733 107.145 8.816C107.422 8.144 107.561 7.34933 107.561 6.432C107.561 5.49333 107.422 4.688 107.145 4.016C106.867 3.344 106.403 2.82667 105.753 2.464C105.113 2.10133 104.249 1.92 103.161 1.92H101.097V10.88ZM114.193 12L118.321 0.799999H119.745L123.857 12H122.433L121.409 9.12H116.641L115.601 12H114.193ZM117.041 8.032H121.009L119.025 2.496L117.041 8.032Z" fill="white"/>
</svg>
