<svg width="242" height="40" viewBox="0 0 242 40" fill="none" xmlns="http://www.w3.org/2000/svg">
<path d="M0.48 12L4.608 0.799999H6.032L10.144 12H8.72L7.696 9.12H2.928L1.888 12H0.48ZM3.328 8.032H7.296L5.312 2.496L3.328 8.032ZM11.729 12V4.064H12.945L13.025 5.488C13.281 4.98667 13.649 4.592 14.129 4.304C14.609 4.016 15.153 3.872 15.761 3.872C16.6997 3.872 17.4463 4.16 18.001 4.736C18.5663 5.30133 18.849 6.176 18.849 7.36V12H17.505V7.504C17.505 5.85067 16.8223 5.024 15.457 5.024C14.7743 5.024 14.2037 5.27467 13.745 5.776C13.297 6.26667 13.073 6.97067 13.073 7.888V12H11.729ZM25.1196 12V4.064H26.3356L26.4316 5.216C26.6876 4.78933 27.029 4.45867 27.4556 4.224C27.8823 3.98933 28.3623 3.872 28.8956 3.872C29.525 3.872 30.0636 4 30.5116 4.256C30.9703 4.512 31.3223 4.90133 31.5676 5.424C31.845 4.944 32.2236 4.56533 32.7036 4.288C33.1943 4.01067 33.7223 3.872 34.2876 3.872C35.237 3.872 35.9943 4.16 36.5596 4.736C37.125 5.30133 37.4076 6.176 37.4076 7.36V12H36.0796V7.504C36.0796 6.68267 35.9143 6.064 35.5836 5.648C35.253 5.232 34.7783 5.024 34.1596 5.024C33.5196 5.024 32.9863 5.27467 32.5596 5.776C32.1436 6.26667 31.9356 6.97067 31.9356 7.888V12H30.5916V7.504C30.5916 6.68267 30.4263 6.064 30.0956 5.648C29.765 5.232 29.2903 5.024 28.6716 5.024C28.0423 5.024 27.5143 5.27467 27.0876 5.776C26.6716 6.26667 26.4636 6.97067 26.4636 7.888V12H25.1196ZM43.0001 12.192C42.2428 12.192 41.5708 12.0213 40.9841 11.68C40.3975 11.328 39.9335 10.8427 39.5921 10.224C39.2615 9.60533 39.0961 8.87467 39.0961 8.032C39.0961 7.2 39.2615 6.47467 39.5921 5.856C39.9228 5.22667 40.3815 4.74133 40.9681 4.4C41.5655 4.048 42.2535 3.872 43.0321 3.872C43.8001 3.872 44.4615 4.048 45.0161 4.4C45.5815 4.74133 46.0135 5.19467 46.3121 5.76C46.6108 6.32533 46.7601 6.93333 46.7601 7.584C46.7601 7.70133 46.7548 7.81867 46.7441 7.936C46.7441 8.05333 46.7441 8.18667 46.7441 8.336H40.4241C40.4561 8.944 40.5948 9.45067 40.8401 9.856C41.0961 10.2507 41.4108 10.5493 41.7841 10.752C42.1681 10.9547 42.5735 11.056 43.0001 11.056C43.5548 11.056 44.0188 10.928 44.3921 10.672C44.7655 10.416 45.0375 10.0693 45.2081 9.632H46.5361C46.3228 10.368 45.9121 10.9813 45.3041 11.472C44.7068 11.952 43.9388 12.192 43.0001 12.192ZM43.0001 5.008C42.3601 5.008 41.7895 5.20533 41.2881 5.6C40.7975 5.984 40.5148 6.54933 40.4401 7.296H45.4321C45.4001 6.58133 45.1548 6.02133 44.6961 5.616C44.2375 5.21067 43.6721 5.008 43.0001 5.008ZM48.5415 12V0.48H49.8855V12H48.5415ZM59.8908 12.192C59.1334 12.192 58.4614 12.0213 57.8748 11.68C57.2881 11.328 56.8241 10.8427 56.4828 10.224C56.1521 9.60533 55.9868 8.87467 55.9868 8.032C55.9868 7.2 56.1521 6.47467 56.4828 5.856C56.8134 5.22667 57.2721 4.74133 57.8588 4.4C58.4561 4.048 59.1441 3.872 59.9227 3.872C60.6908 3.872 61.3521 4.048 61.9068 4.4C62.4721 4.74133 62.9041 5.19467 63.2028 5.76C63.5014 6.32533 63.6508 6.93333 63.6508 7.584C63.6508 7.70133 63.6454 7.81867 63.6348 7.936C63.6348 8.05333 63.6348 8.18667 63.6348 8.336H57.3148C57.3468 8.944 57.4854 9.45067 57.7308 9.856C57.9868 10.2507 58.3014 10.5493 58.6748 10.752C59.0588 10.9547 59.4641 11.056 59.8908 11.056C60.4454 11.056 60.9094 10.928 61.2828 10.672C61.6561 10.416 61.9281 10.0693 62.0988 9.632H63.4268C63.2134 10.368 62.8028 10.9813 62.1948 11.472C61.5974 11.952 60.8294 12.192 59.8908 12.192ZM59.8908 5.008C59.2508 5.008 58.6801 5.20533 58.1788 5.6C57.6881 5.984 57.4054 6.54933 57.3307 7.296H62.3228C62.2908 6.58133 62.0454 6.02133 61.5868 5.616C61.1281 5.21067 60.5628 5.008 59.8908 5.008ZM67.4076 12L64.3996 4.064H65.8076L68.1916 10.704L70.5916 4.064H71.9676L68.9596 12H67.4076ZM76.6251 12.192C75.8678 12.192 75.1958 12.0213 74.6091 11.68C74.0225 11.328 73.5585 10.8427 73.2171 10.224C72.8865 9.60533 72.7211 8.87467 72.7211 8.032C72.7211 7.2 72.8865 6.47467 73.2171 5.856C73.5478 5.22667 74.0065 4.74133 74.5931 4.4C75.1905 4.048 75.8785 3.872 76.6571 3.872C77.4251 3.872 78.0865 4.048 78.6411 4.4C79.2065 4.74133 79.6385 5.19467 79.9371 5.76C80.2358 6.32533 80.3851 6.93333 80.3851 7.584C80.3851 7.70133 80.3798 7.81867 80.3691 7.936C80.3691 8.05333 80.3691 8.18667 80.3691 8.336H74.0491C74.0811 8.944 74.2198 9.45067 74.4651 9.856C74.7211 10.2507 75.0358 10.5493 75.4091 10.752C75.7931 10.9547 76.1985 11.056 76.6251 11.056C77.1798 11.056 77.6438 10.928 78.0171 10.672C78.3905 10.416 78.6625 10.0693 78.8331 9.632H80.1611C79.9478 10.368 79.5371 10.9813 78.9291 11.472C78.3318 11.952 77.5638 12.192 76.6251 12.192ZM76.6251 5.008C75.9851 5.008 75.4145 5.20533 74.9131 5.6C74.4225 5.984 74.1398 6.54933 74.0651 7.296H79.0571C79.0251 6.58133 78.7798 6.02133 78.3211 5.616C77.8625 5.21067 77.2971 5.008 76.6251 5.008ZM82.1665 12V4.064H83.3825L83.4945 5.584C83.7398 5.06133 84.1132 4.64533 84.6145 4.336C85.1158 4.02667 85.7345 3.872 86.4705 3.872V5.28H86.1025C85.6332 5.28 85.2012 5.36533 84.8065 5.536C84.4118 5.696 84.0972 5.97333 83.8625 6.368C83.6278 6.76267 83.5105 7.30667 83.5105 8V12H82.1665ZM91.115 12C90.3897 12 89.819 11.824 89.403 11.472C88.987 11.12 88.779 10.4853 88.779 9.568V5.2H87.403V4.064H88.779L88.955 2.16H90.123V4.064H92.459V5.2H90.123V9.568C90.123 10.0693 90.2243 10.4107 90.427 10.592C90.6297 10.7627 90.987 10.848 91.499 10.848H92.331V12H91.115ZM94.9825 2.304C94.7158 2.304 94.4918 2.21867 94.3105 2.048C94.1398 1.86667 94.0545 1.64267 94.0545 1.376C94.0545 1.12 94.1398 0.906666 94.3105 0.735999C94.4918 0.565333 94.7158 0.48 94.9825 0.48C95.2385 0.48 95.4572 0.565333 95.6385 0.735999C95.8198 0.906666 95.9105 1.12 95.9105 1.376C95.9105 1.64267 95.8198 1.86667 95.6385 2.048C95.4572 2.21867 95.2385 2.304 94.9825 2.304ZM94.3105 12V4.064H95.6545V12H94.3105ZM103.045 2.304C102.778 2.304 102.554 2.21867 102.373 2.048C102.202 1.86667 102.117 1.64267 102.117 1.376C102.117 1.12 102.202 0.906666 102.373 0.735999C102.554 0.565333 102.778 0.48 103.045 0.48C103.301 0.48 103.52 0.565333 103.701 0.735999C103.882 0.906666 103.973 1.12 103.973 1.376C103.973 1.64267 103.882 1.86667 103.701 2.048C103.52 2.21867 103.301 2.304 103.045 2.304ZM102.373 12V4.064H103.717V12H102.373ZM106.057 12V4.064H107.273L107.353 5.488C107.609 4.98667 107.977 4.592 108.457 4.304C108.937 4.016 109.481 3.872 110.089 3.872C111.028 3.872 111.774 4.16 112.329 4.736C112.894 5.30133 113.177 6.176 113.177 7.36V12H111.833V7.504C111.833 5.85067 111.15 5.024 109.785 5.024C109.102 5.024 108.532 5.27467 108.073 5.776C107.625 6.26667 107.401 6.97067 107.401 7.888V12H106.057ZM117.345 12L114.337 4.064H115.745L118.129 10.704L120.529 4.064H121.905L118.897 12H117.345ZM126.563 12.192C125.805 12.192 125.133 12.0213 124.547 11.68C123.96 11.328 123.496 10.8427 123.155 10.224C122.824 9.60533 122.659 8.87467 122.659 8.032C122.659 7.2 122.824 6.47467 123.155 5.856C123.485 5.22667 123.944 4.74133 124.531 4.4C125.128 4.048 125.816 3.872 126.595 3.872C127.363 3.872 128.024 4.048 128.579 4.4C129.144 4.74133 129.576 5.19467 129.875 5.76C130.173 6.32533 130.323 6.93333 130.323 7.584C130.323 7.70133 130.317 7.81867 130.307 7.936C130.307 8.05333 130.307 8.18667 130.307 8.336H123.987C124.019 8.944 124.157 9.45067 124.403 9.856C124.659 10.2507 124.973 10.5493 125.347 10.752C125.731 10.9547 126.136 11.056 126.563 11.056C127.117 11.056 127.581 10.928 127.955 10.672C128.328 10.416 128.6 10.0693 128.771 9.632H130.099C129.885 10.368 129.475 10.9813 128.867 11.472C128.269 11.952 127.501 12.192 126.563 12.192ZM126.563 5.008C125.923 5.008 125.352 5.20533 124.851 5.6C124.36 5.984 124.077 6.54933 124.003 7.296H128.995C128.963 6.58133 128.717 6.02133 128.259 5.616C127.8 5.21067 127.235 5.008 126.563 5.008ZM132.104 12V4.064H133.32L133.4 5.488C133.656 4.98667 134.024 4.592 134.504 4.304C134.984 4.016 135.528 3.872 136.136 3.872C137.075 3.872 137.821 4.16 138.376 4.736C138.941 5.30133 139.224 6.176 139.224 7.36V12H137.88V7.504C137.88 5.85067 137.197 5.024 135.832 5.024C135.149 5.024 134.579 5.27467 134.12 5.776C133.672 6.26667 133.448 6.97067 133.448 7.888V12H132.104ZM142.076 2.304C141.81 2.304 141.586 2.21867 141.404 2.048C141.234 1.86667 141.148 1.64267 141.148 1.376C141.148 1.12 141.234 0.906666 141.404 0.735999C141.586 0.565333 141.81 0.48 142.076 0.48C142.332 0.48 142.551 0.565333 142.732 0.735999C142.914 0.906666 143.004 1.12 143.004 1.376C143.004 1.64267 142.914 1.86667 142.732 2.048C142.551 2.21867 142.332 2.304 142.076 2.304ZM141.404 12V4.064H142.748V12H141.404ZM145.088 12V4.064H146.304L146.416 5.584C146.662 5.06133 147.035 4.64533 147.536 4.336C148.038 4.02667 148.656 3.872 149.392 3.872V5.28H149.024C148.555 5.28 148.123 5.36533 147.728 5.536C147.334 5.696 147.019 5.97333 146.784 6.368C146.55 6.76267 146.432 7.30667 146.432 8V12H145.088ZM154.172 12.192C153.415 12.192 152.743 12.0213 152.156 11.68C151.569 11.328 151.105 10.8427 150.764 10.224C150.433 9.60533 150.268 8.87467 150.268 8.032C150.268 7.2 150.433 6.47467 150.764 5.856C151.095 5.22667 151.553 4.74133 152.14 4.4C152.737 4.048 153.425 3.872 154.204 3.872C154.972 3.872 155.633 4.048 156.188 4.4C156.753 4.74133 157.185 5.19467 157.484 5.76C157.783 6.32533 157.932 6.93333 157.932 7.584C157.932 7.70133 157.927 7.81867 157.916 7.936C157.916 8.05333 157.916 8.18667 157.916 8.336H151.596C151.628 8.944 151.767 9.45067 152.012 9.856C152.268 10.2507 152.583 10.5493 152.956 10.752C153.34 10.9547 153.745 11.056 154.172 11.056C154.727 11.056 155.191 10.928 155.564 10.672C155.937 10.416 156.209 10.0693 156.38 9.632H157.708C157.495 10.368 157.084 10.9813 156.476 11.472C155.879 11.952 155.111 12.192 154.172 12.192ZM154.172 5.008C153.532 5.008 152.961 5.20533 152.46 5.6C151.969 5.984 151.687 6.54933 151.612 7.296H156.604C156.572 6.58133 156.327 6.02133 155.868 5.616C155.409 5.21067 154.844 5.008 154.172 5.008ZM164.764 2.304C164.497 2.304 164.273 2.21867 164.092 2.048C163.921 1.86667 163.836 1.64267 163.836 1.376C163.836 1.12 163.921 0.906666 164.092 0.735999C164.273 0.565333 164.497 0.48 164.764 0.48C165.02 0.48 165.238 0.565333 165.42 0.735999C165.601 0.906666 165.692 1.12 165.692 1.376C165.692 1.64267 165.601 1.86667 165.42 2.048C165.238 2.21867 165.02 2.304 164.764 2.304ZM164.092 12V4.064H165.436V12H164.092ZM167.776 12V4.064H168.992L169.072 5.488C169.328 4.98667 169.696 4.592 170.176 4.304C170.656 4.016 171.2 3.872 171.808 3.872C172.747 3.872 173.493 4.16 174.048 4.736C174.613 5.30133 174.896 6.176 174.896 7.36V12H173.552V7.504C173.552 5.85067 172.869 5.024 171.504 5.024C170.821 5.024 170.251 5.27467 169.792 5.776C169.344 6.26667 169.12 6.97067 169.12 7.888V12H167.776ZM180.068 12C179.343 12 178.772 11.824 178.356 11.472C177.94 11.12 177.732 10.4853 177.732 9.568V5.2H176.356V4.064H177.732L177.908 2.16H179.076V4.064H181.412V5.2H179.076V9.568C179.076 10.0693 179.177 10.4107 179.38 10.592C179.583 10.7627 179.94 10.848 180.452 10.848H181.284V12H180.068ZM186.469 12.192C185.712 12.192 185.04 12.0213 184.453 11.68C183.866 11.328 183.402 10.8427 183.061 10.224C182.73 9.60533 182.565 8.87467 182.565 8.032C182.565 7.2 182.73 6.47467 183.061 5.856C183.392 5.22667 183.85 4.74133 184.437 4.4C185.034 4.048 185.722 3.872 186.501 3.872C187.269 3.872 187.93 4.048 188.485 4.4C189.05 4.74133 189.482 5.19467 189.781 5.76C190.08 6.32533 190.229 6.93333 190.229 7.584C190.229 7.70133 190.224 7.81867 190.213 7.936C190.213 8.05333 190.213 8.18667 190.213 8.336H183.893C183.925 8.944 184.064 9.45067 184.309 9.856C184.565 10.2507 184.88 10.5493 185.253 10.752C185.637 10.9547 186.042 11.056 186.469 11.056C187.024 11.056 187.488 10.928 187.861 10.672C188.234 10.416 188.506 10.0693 188.677 9.632H190.005C189.792 10.368 189.381 10.9813 188.773 11.472C188.176 11.952 187.408 12.192 186.469 12.192ZM186.469 5.008C185.829 5.008 185.258 5.20533 184.757 5.6C184.266 5.984 183.984 6.54933 183.909 7.296H188.901C188.869 6.58133 188.624 6.02133 188.165 5.616C187.706 5.21067 187.141 5.008 186.469 5.008ZM192.01 12V0.48H193.354V12H192.01ZM195.557 12V0.48H196.901V12H195.557ZM202.672 12.192C201.915 12.192 201.243 12.0213 200.656 11.68C200.069 11.328 199.605 10.8427 199.264 10.224C198.933 9.60533 198.768 8.87467 198.768 8.032C198.768 7.2 198.933 6.47467 199.264 5.856C199.595 5.22667 200.053 4.74133 200.64 4.4C201.237 4.048 201.925 3.872 202.704 3.872C203.472 3.872 204.133 4.048 204.688 4.4C205.253 4.74133 205.685 5.19467 205.984 5.76C206.283 6.32533 206.432 6.93333 206.432 7.584C206.432 7.70133 206.427 7.81867 206.416 7.936C206.416 8.05333 206.416 8.18667 206.416 8.336H200.096C200.128 8.944 200.267 9.45067 200.512 9.856C200.768 10.2507 201.083 10.5493 201.456 10.752C201.84 10.9547 202.245 11.056 202.672 11.056C203.227 11.056 203.691 10.928 204.064 10.672C204.437 10.416 204.709 10.0693 204.88 9.632H206.208C205.995 10.368 205.584 10.9813 204.976 11.472C204.379 11.952 203.611 12.192 202.672 12.192ZM202.672 5.008C202.032 5.008 201.461 5.20533 200.96 5.6C200.469 5.984 200.187 6.54933 200.112 7.296H205.104C205.072 6.58133 204.827 6.02133 204.368 5.616C203.909 5.21067 203.344 5.008 202.672 5.008ZM211.303 9.504C210.855 9.504 210.444 9.44533 210.071 9.328L209.271 10.08C209.388 10.1653 209.532 10.24 209.703 10.304C209.884 10.3573 210.14 10.4107 210.471 10.464C210.801 10.5067 211.265 10.5547 211.863 10.608C212.929 10.6827 213.692 10.928 214.151 11.344C214.609 11.76 214.839 12.304 214.839 12.976C214.839 13.4347 214.711 13.872 214.455 14.288C214.209 14.704 213.825 15.0453 213.303 15.312C212.791 15.5787 212.129 15.712 211.319 15.712C210.604 15.712 209.969 15.616 209.414 15.424C208.86 15.2427 208.428 14.96 208.118 14.576C207.809 14.2027 207.655 13.728 207.655 13.152C207.655 12.8533 207.735 12.528 207.895 12.176C208.055 11.8347 208.353 11.5093 208.791 11.2C208.556 11.104 208.353 11.0027 208.183 10.896C208.023 10.7787 207.873 10.6507 207.735 10.512V10.144L209.095 8.8C208.465 8.26667 208.151 7.56267 208.151 6.688C208.151 6.16533 208.273 5.69067 208.519 5.264C208.764 4.83733 209.121 4.50133 209.591 4.256C210.06 4 210.631 3.872 211.303 3.872C211.761 3.872 212.177 3.936 212.551 4.064H215.479V5.072L213.991 5.136C214.3 5.584 214.455 6.10133 214.455 6.688C214.455 7.21067 214.327 7.68533 214.071 8.112C213.825 8.53867 213.468 8.88 212.999 9.136C212.54 9.38133 211.975 9.504 211.303 9.504ZM211.303 8.4C211.868 8.4 212.316 8.256 212.647 7.968C212.988 7.66933 213.159 7.24267 213.159 6.688C213.159 6.144 212.988 5.728 212.647 5.44C212.316 5.14133 211.868 4.992 211.303 4.992C210.727 4.992 210.268 5.14133 209.927 5.44C209.596 5.728 209.431 6.144 209.431 6.688C209.431 7.24267 209.596 7.66933 209.927 7.968C210.268 8.256 210.727 8.4 211.303 8.4ZM208.967 13.024C208.967 13.5573 209.191 13.952 209.639 14.208C210.087 14.4747 210.647 14.608 211.319 14.608C211.98 14.608 212.508 14.464 212.903 14.176C213.308 13.888 213.511 13.504 213.511 13.024C213.511 12.6827 213.372 12.384 213.095 12.128C212.817 11.8827 212.305 11.7387 211.559 11.696C210.972 11.6533 210.465 11.6 210.039 11.536C209.601 11.7707 209.313 12.0213 209.174 12.288C209.036 12.5653 208.967 12.8107 208.967 13.024ZM219.635 12.192C218.973 12.192 218.424 12.08 217.987 11.856C217.549 11.632 217.224 11.3333 217.011 10.96C216.797 10.5867 216.691 10.1813 216.691 9.744C216.691 8.93333 217 8.30933 217.619 7.872C218.237 7.43467 219.08 7.216 220.147 7.216H222.291V7.12C222.291 6.42667 222.109 5.904 221.747 5.552C221.384 5.18933 220.899 5.008 220.291 5.008C219.768 5.008 219.315 5.14133 218.931 5.408C218.557 5.664 218.323 6.04267 218.227 6.544H216.851C216.904 5.968 217.096 5.48267 217.427 5.088C217.768 4.69333 218.189 4.39467 218.691 4.192C219.192 3.97867 219.725 3.872 220.291 3.872C221.4 3.872 222.232 4.17067 222.787 4.768C223.352 5.35467 223.635 6.13867 223.635 7.12V12H222.435L222.355 10.576C222.131 11.024 221.8 11.408 221.363 11.728C220.936 12.0373 220.36 12.192 219.635 12.192ZM219.843 11.056C220.355 11.056 220.792 10.9227 221.155 10.656C221.528 10.3893 221.811 10.0427 222.003 9.616C222.195 9.18933 222.291 8.74133 222.291 8.272V8.256H220.259C219.469 8.256 218.909 8.39467 218.579 8.672C218.259 8.93867 218.099 9.27467 218.099 9.68C218.099 10.096 218.248 10.432 218.547 10.688C218.856 10.9333 219.288 11.056 219.843 11.056ZM225.651 12V4.064H226.867L226.963 5.216C227.219 4.78933 227.56 4.45867 227.987 4.224C228.414 3.98933 228.894 3.872 229.427 3.872C230.056 3.872 230.595 4 231.043 4.256C231.502 4.512 231.854 4.90133 232.099 5.424C232.376 4.944 232.755 4.56533 233.235 4.288C233.726 4.01067 234.254 3.872 234.819 3.872C235.768 3.872 236.526 4.16 237.091 4.736C237.656 5.30133 237.939 6.176 237.939 7.36V12H236.611V7.504C236.611 6.68267 236.446 6.064 236.115 5.648C235.784 5.232 235.31 5.024 234.691 5.024C234.051 5.024 233.518 5.27467 233.091 5.776C232.675 6.26667 232.467 6.97067 232.467 7.888V12H231.123V7.504C231.123 6.68267 230.958 6.064 230.627 5.648C230.296 5.232 229.822 5.024 229.203 5.024C228.574 5.024 228.046 5.27467 227.619 5.776C227.203 6.26667 226.995 6.97067 226.995 7.888V12H225.651ZM238.891 13.904L239.819 10.368H241.211L239.819 13.904H238.891ZM1.104 36V24.48H2.448V36H1.104ZM8.21888 36.192C7.46154 36.192 6.78954 36.0213 6.20288 35.68C5.61621 35.328 5.15221 34.8427 4.81088 34.224C4.48021 33.6053 4.31488 32.8747 4.31488 32.032C4.31488 31.2 4.48021 30.4747 4.81088 29.856C5.14154 29.2267 5.60021 28.7413 6.18688 28.4C6.78421 28.048 7.47221 27.872 8.25087 27.872C9.01888 27.872 9.68021 28.048 10.2349 28.4C10.8002 28.7413 11.2322 29.1947 11.5309 29.76C11.8295 30.3253 11.9789 30.9333 11.9789 31.584C11.9789 31.7013 11.9735 31.8187 11.9629 31.936C11.9629 32.0533 11.9629 32.1867 11.9629 32.336H5.64288C5.67488 32.944 5.81354 33.4507 6.05888 33.856C6.31488 34.2507 6.62954 34.5493 7.00288 34.752C7.38688 34.9547 7.79221 35.056 8.21888 35.056C8.77354 35.056 9.23754 34.928 9.61088 34.672C9.98421 34.416 10.2562 34.0693 10.4269 33.632H11.7549C11.5415 34.368 11.1309 34.9813 10.5229 35.472C9.92554 35.952 9.15754 36.192 8.21888 36.192ZM8.21888 29.008C7.57888 29.008 7.00821 29.2053 6.50688 29.6C6.01621 29.984 5.73354 30.5493 5.65887 31.296H10.6509C10.6189 30.5813 10.3735 30.0213 9.91488 29.616C9.45621 29.2107 8.89088 29.008 8.21888 29.008ZM16.8494 33.504C16.4014 33.504 15.9907 33.4453 15.6174 33.328L14.8174 34.08C14.9347 34.1653 15.0787 34.24 15.2494 34.304C15.4307 34.3573 15.6867 34.4107 16.0174 34.464C16.348 34.5067 16.812 34.5547 17.4094 34.608C18.476 34.6827 19.2387 34.928 19.6974 35.344C20.156 35.76 20.3854 36.304 20.3854 36.976C20.3854 37.4347 20.2574 37.872 20.0014 38.288C19.756 38.704 19.372 39.0453 18.8494 39.312C18.3374 39.5787 17.676 39.712 16.8654 39.712C16.1507 39.712 15.516 39.616 14.9614 39.424C14.4067 39.2427 13.9747 38.96 13.6654 38.576C13.356 38.2027 13.2014 37.728 13.2014 37.152C13.2014 36.8533 13.2814 36.528 13.4414 36.176C13.6014 35.8347 13.9 35.5093 14.3374 35.2C14.1027 35.104 13.9 35.0027 13.7294 34.896C13.5694 34.7787 13.42 34.6507 13.2814 34.512V34.144L14.6414 32.8C14.012 32.2667 13.6974 31.5627 13.6974 30.688C13.6974 30.1653 13.82 29.6907 14.0654 29.264C14.3107 28.8373 14.668 28.5013 15.1374 28.256C15.6067 28 16.1774 27.872 16.8494 27.872C17.308 27.872 17.724 27.936 18.0974 28.064H21.0254V29.072L19.5374 29.136C19.8467 29.584 20.0014 30.1013 20.0014 30.688C20.0014 31.2107 19.8734 31.6853 19.6174 32.112C19.372 32.5387 19.0147 32.88 18.5454 33.136C18.0867 33.3813 17.5214 33.504 16.8494 33.504ZM16.8494 32.4C17.4147 32.4 17.8627 32.256 18.1934 31.968C18.5347 31.6693 18.7054 31.2427 18.7054 30.688C18.7054 30.144 18.5347 29.728 18.1934 29.44C17.8627 29.1413 17.4147 28.992 16.8494 28.992C16.2734 28.992 15.8147 29.1413 15.4734 29.44C15.1427 29.728 14.9774 30.144 14.9774 30.688C14.9774 31.2427 15.1427 31.6693 15.4734 31.968C15.8147 32.256 16.2734 32.4 16.8494 32.4ZM14.5134 37.024C14.5134 37.5573 14.7374 37.952 15.1854 38.208C15.6334 38.4747 16.1934 38.608 16.8654 38.608C17.5267 38.608 18.0547 38.464 18.4494 38.176C18.8547 37.888 19.0574 37.504 19.0574 37.024C19.0574 36.6827 18.9187 36.384 18.6414 36.128C18.364 35.8827 17.852 35.7387 17.1054 35.696C16.5187 35.6533 16.012 35.6 15.5854 35.536C15.148 35.7707 14.86 36.0213 14.7214 36.288C14.5827 36.5653 14.5134 36.8107 14.5134 37.024ZM25.797 36.192C25.0397 36.192 24.3677 36.0213 23.781 35.68C23.1943 35.328 22.7303 34.8427 22.389 34.224C22.0583 33.6053 21.893 32.8747 21.893 32.032C21.893 31.2 22.0583 30.4747 22.389 29.856C22.7197 29.2267 23.1783 28.7413 23.765 28.4C24.3623 28.048 25.0503 27.872 25.829 27.872C26.597 27.872 27.2583 28.048 27.813 28.4C28.3783 28.7413 28.8103 29.1947 29.109 29.76C29.4077 30.3253 29.557 30.9333 29.557 31.584C29.557 31.7013 29.5517 31.8187 29.541 31.936C29.541 32.0533 29.541 32.1867 29.541 32.336H23.221C23.253 32.944 23.3917 33.4507 23.637 33.856C23.893 34.2507 24.2077 34.5493 24.581 34.752C24.965 34.9547 25.3703 35.056 25.797 35.056C26.3517 35.056 26.8157 34.928 27.189 34.672C27.5623 34.416 27.8343 34.0693 28.005 33.632H29.333C29.1197 34.368 28.709 34.9813 28.101 35.472C27.5037 35.952 26.7357 36.192 25.797 36.192ZM25.797 29.008C25.157 29.008 24.5863 29.2053 24.085 29.6C23.5943 29.984 23.3117 30.5493 23.237 31.296H28.229C28.197 30.5813 27.9517 30.0213 27.493 29.616C27.0343 29.2107 26.469 29.008 25.797 29.008ZM31.3384 36V28.064H32.5544L32.6344 29.488C32.8904 28.9867 33.2584 28.592 33.7384 28.304C34.2184 28.016 34.7624 27.872 35.3704 27.872C36.309 27.872 37.0557 28.16 37.6104 28.736C38.1757 29.3013 38.4584 30.176 38.4584 31.36V36H37.1144V31.504C37.1144 29.8507 36.4317 29.024 35.0664 29.024C34.3837 29.024 33.813 29.2747 33.3544 29.776C32.9064 30.2667 32.6824 30.9707 32.6824 31.888V36H31.3384ZM44.0946 36.192C43.3053 36.192 42.612 36.0107 42.0146 35.648C41.428 35.2853 40.9693 34.7893 40.6386 34.16C40.3186 33.5307 40.1586 32.816 40.1586 32.016C40.1586 31.216 40.324 30.5067 40.6546 29.888C40.9853 29.2587 41.444 28.768 42.0306 28.416C42.6173 28.0533 43.3106 27.872 44.1106 27.872C44.7613 27.872 45.3373 28.0053 45.8386 28.272C46.34 28.5387 46.7293 28.912 47.0066 29.392V24.48H48.3506V36H47.1346L47.0066 34.688C46.7506 35.072 46.3826 35.4187 45.9026 35.728C45.4226 36.0373 44.82 36.192 44.0946 36.192ZM44.2386 35.024C44.772 35.024 45.2413 34.9013 45.6466 34.656C46.0626 34.4 46.3826 34.048 46.6066 33.6C46.8413 33.152 46.9586 32.6293 46.9586 32.032C46.9586 31.4347 46.8413 30.912 46.6066 30.464C46.3826 30.016 46.0626 29.6693 45.6466 29.424C45.2413 29.168 44.772 29.04 44.2386 29.04C43.716 29.04 43.2466 29.168 42.8306 29.424C42.4253 29.6693 42.1053 30.016 41.8706 30.464C41.6466 30.912 41.5346 31.4347 41.5346 32.032C41.5346 32.6293 41.6466 33.152 41.8706 33.6C42.1053 34.048 42.4253 34.4 42.8306 34.656C43.2466 34.9013 43.716 35.024 44.2386 35.024ZM54.1575 36.192C53.4108 36.192 52.7388 36.0213 52.1415 35.68C51.5442 35.3387 51.0695 34.8587 50.7175 34.24C50.3762 33.6107 50.2055 32.8747 50.2055 32.032C50.2055 31.1893 50.3815 30.4587 50.7335 29.84C51.0855 29.2107 51.5602 28.7253 52.1575 28.384C52.7655 28.0427 53.4428 27.872 54.1895 27.872C54.9362 27.872 55.6082 28.0427 56.2055 28.384C56.8028 28.7253 57.2722 29.2107 57.6135 29.84C57.9655 30.4587 58.1415 31.1893 58.1415 32.032C58.1415 32.8747 57.9655 33.6107 57.6135 34.24C57.2615 34.8587 56.7815 35.3387 56.1735 35.68C55.5762 36.0213 54.9042 36.192 54.1575 36.192ZM54.1575 35.04C54.6162 35.04 55.0428 34.928 55.4375 34.704C55.8322 34.48 56.1522 34.144 56.3975 33.696C56.6428 33.248 56.7655 32.6933 56.7655 32.032C56.7655 31.3707 56.6428 30.816 56.3975 30.368C56.1628 29.92 55.8482 29.584 55.4535 29.36C55.0588 29.136 54.6375 29.024 54.1895 29.024C53.7308 29.024 53.3042 29.136 52.9095 29.36C52.5148 29.584 52.1948 29.92 51.9495 30.368C51.7042 30.816 51.5815 31.3707 51.5815 32.032C51.5815 32.6933 51.7042 33.248 51.9495 33.696C52.1948 34.144 52.5095 34.48 52.8935 34.704C53.2882 34.928 53.7095 35.04 54.1575 35.04ZM63.0503 36.192C62.1009 36.192 61.3116 35.952 60.6823 35.472C60.0529 34.992 59.6849 34.3413 59.5783 33.52H60.9543C61.0396 33.936 61.2583 34.2987 61.6103 34.608C61.9729 34.9067 62.4583 35.056 63.0663 35.056C63.6316 35.056 64.0476 34.9387 64.3143 34.704C64.5809 34.4587 64.7143 34.1707 64.7143 33.84C64.7143 33.36 64.5383 33.04 64.1863 32.88C63.8449 32.72 63.3596 32.576 62.7303 32.448C62.3036 32.3627 61.8769 32.24 61.4503 32.08C61.0236 31.92 60.6663 31.696 60.3783 31.408C60.0903 31.1093 59.9463 30.72 59.9463 30.24C59.9463 29.5467 60.2023 28.9813 60.7143 28.544C61.2369 28.096 61.9409 27.872 62.8263 27.872C63.6689 27.872 64.3569 28.0853 64.8903 28.512C65.4343 28.928 65.7489 29.5253 65.8343 30.304H64.5063C64.4529 29.8987 64.2769 29.584 63.9783 29.36C63.6903 29.1253 63.3009 29.008 62.8103 29.008C62.3303 29.008 61.9569 29.1093 61.6903 29.312C61.4343 29.5147 61.3063 29.7813 61.3063 30.112C61.3063 30.432 61.4716 30.6827 61.8023 30.864C62.1436 31.0453 62.6023 31.2 63.1783 31.328C63.6689 31.4347 64.1329 31.568 64.5703 31.728C65.0183 31.8773 65.3809 32.1067 65.6583 32.416C65.9463 32.7147 66.0903 33.152 66.0903 33.728C66.1009 34.4427 65.8289 35.0347 65.2743 35.504C64.7303 35.9627 63.9889 36.192 63.0503 36.192ZM75.8926 36.192C75.1353 36.192 74.4526 36.0213 73.8446 35.68C73.2473 35.328 72.7726 34.8427 72.4206 34.224C72.0793 33.5947 71.9086 32.864 71.9086 32.032C71.9086 31.2 72.0793 30.4747 72.4206 29.856C72.7726 29.2267 73.2473 28.7413 73.8446 28.4C74.4526 28.048 75.1353 27.872 75.8926 27.872C76.8313 27.872 77.6206 28.1173 78.2606 28.608C78.9113 29.0987 79.322 29.7547 79.4926 30.576H78.1166C78.01 30.0853 77.7486 29.7067 77.3326 29.44C76.9166 29.1627 76.4313 29.024 75.8766 29.024C75.4286 29.024 75.0073 29.136 74.6126 29.36C74.218 29.584 73.898 29.92 73.6526 30.368C73.4073 30.816 73.2846 31.3707 73.2846 32.032C73.2846 32.6933 73.4073 33.248 73.6526 33.696C73.898 34.144 74.218 34.4853 74.6126 34.72C75.0073 34.944 75.4286 35.056 75.8766 35.056C76.4313 35.056 76.9166 34.9227 77.3326 34.656C77.7486 34.3787 78.01 33.9893 78.1166 33.488H79.4926C79.3326 34.288 78.9273 34.9387 78.2766 35.44C77.626 35.9413 76.8313 36.192 75.8926 36.192ZM84.9856 36.192C84.239 36.192 83.567 36.0213 82.9696 35.68C82.3723 35.3387 81.8976 34.8587 81.5456 34.24C81.2043 33.6107 81.0336 32.8747 81.0336 32.032C81.0336 31.1893 81.2096 30.4587 81.5616 29.84C81.9136 29.2107 82.3883 28.7253 82.9856 28.384C83.5936 28.0427 84.271 27.872 85.0176 27.872C85.7643 27.872 86.4363 28.0427 87.0336 28.384C87.631 28.7253 88.1003 29.2107 88.4416 29.84C88.7936 30.4587 88.9696 31.1893 88.9696 32.032C88.9696 32.8747 88.7936 33.6107 88.4416 34.24C88.0896 34.8587 87.6096 35.3387 87.0016 35.68C86.4043 36.0213 85.7323 36.192 84.9856 36.192ZM84.9856 35.04C85.4443 35.04 85.871 34.928 86.2656 34.704C86.6603 34.48 86.9803 34.144 87.2256 33.696C87.471 33.248 87.5936 32.6933 87.5936 32.032C87.5936 31.3707 87.471 30.816 87.2256 30.368C86.991 29.92 86.6763 29.584 86.2816 29.36C85.887 29.136 85.4656 29.024 85.0176 29.024C84.559 29.024 84.1323 29.136 83.7376 29.36C83.343 29.584 83.023 29.92 82.7776 30.368C82.5323 30.816 82.4096 31.3707 82.4096 32.032C82.4096 32.6933 82.5323 33.248 82.7776 33.696C83.023 34.144 83.3376 34.48 83.7216 34.704C84.1163 34.928 84.5376 35.04 84.9856 35.04ZM90.8384 36V28.064H92.0544L92.1344 29.488C92.3904 28.9867 92.7584 28.592 93.2384 28.304C93.7184 28.016 94.2624 27.872 94.8704 27.872C95.809 27.872 96.5557 28.16 97.1104 28.736C97.6757 29.3013 97.9584 30.176 97.9584 31.36V36H96.6144V31.504C96.6144 29.8507 95.9317 29.024 94.5664 29.024C93.8837 29.024 93.313 29.2747 92.8544 29.776C92.4064 30.2667 92.1824 30.9707 92.1824 31.888V36H90.8384ZM103.035 36.192C102.085 36.192 101.296 35.952 100.667 35.472C100.037 34.992 99.6693 34.3413 99.5626 33.52H100.939C101.024 33.936 101.243 34.2987 101.595 34.608C101.957 34.9067 102.443 35.056 103.051 35.056C103.616 35.056 104.032 34.9387 104.299 34.704C104.565 34.4587 104.699 34.1707 104.699 33.84C104.699 33.36 104.523 33.04 104.171 32.88C103.829 32.72 103.344 32.576 102.715 32.448C102.288 32.3627 101.861 32.24 101.435 32.08C101.008 31.92 100.651 31.696 100.363 31.408C100.075 31.1093 99.9306 30.72 99.9306 30.24C99.9306 29.5467 100.187 28.9813 100.699 28.544C101.221 28.096 101.925 27.872 102.811 27.872C103.653 27.872 104.341 28.0853 104.875 28.512C105.419 28.928 105.733 29.5253 105.819 30.304H104.491C104.437 29.8987 104.261 29.584 103.963 29.36C103.675 29.1253 103.285 29.008 102.795 29.008C102.315 29.008 101.941 29.1093 101.675 29.312C101.419 29.5147 101.291 29.7813 101.291 30.112C101.291 30.432 101.456 30.6827 101.787 30.864C102.128 31.0453 102.587 31.2 103.163 31.328C103.653 31.4347 104.117 31.568 104.555 31.728C105.003 31.8773 105.365 32.1067 105.643 32.416C105.931 32.7147 106.075 33.152 106.075 33.728C106.085 34.4427 105.813 35.0347 105.259 35.504C104.715 35.9627 103.973 36.192 103.035 36.192ZM111.563 36.192C110.805 36.192 110.133 36.0213 109.547 35.68C108.96 35.328 108.496 34.8427 108.155 34.224C107.824 33.6053 107.659 32.8747 107.659 32.032C107.659 31.2 107.824 30.4747 108.155 29.856C108.485 29.2267 108.944 28.7413 109.531 28.4C110.128 28.048 110.816 27.872 111.595 27.872C112.363 27.872 113.024 28.048 113.579 28.4C114.144 28.7413 114.576 29.1947 114.875 29.76C115.173 30.3253 115.323 30.9333 115.323 31.584C115.323 31.7013 115.317 31.8187 115.307 31.936C115.307 32.0533 115.307 32.1867 115.307 32.336H108.987C109.019 32.944 109.157 33.4507 109.403 33.856C109.659 34.2507 109.973 34.5493 110.347 34.752C110.731 34.9547 111.136 35.056 111.563 35.056C112.117 35.056 112.581 34.928 112.955 34.672C113.328 34.416 113.6 34.0693 113.771 33.632H115.099C114.885 34.368 114.475 34.9813 113.867 35.472C113.269 35.952 112.501 36.192 111.563 36.192ZM111.563 29.008C110.923 29.008 110.352 29.2053 109.851 29.6C109.36 29.984 109.077 30.5493 109.003 31.296H113.995C113.963 30.5813 113.717 30.0213 113.259 29.616C112.8 29.2107 112.235 29.008 111.563 29.008ZM123.616 39.52V34.688C123.36 35.072 122.992 35.4187 122.512 35.728C122.032 36.0373 121.429 36.192 120.704 36.192C119.915 36.192 119.221 36.0107 118.624 35.648C118.037 35.2853 117.579 34.7893 117.248 34.16C116.928 33.5307 116.768 32.816 116.768 32.016C116.768 31.216 116.933 30.5067 117.264 29.888C117.595 29.2587 118.053 28.768 118.64 28.416C119.227 28.0533 119.92 27.872 120.72 27.872C121.371 27.872 121.947 28.0053 122.448 28.272C122.949 28.5387 123.339 28.912 123.616 29.392L123.744 28.064H124.96V39.52H123.616ZM120.848 35.024C121.381 35.024 121.851 34.9013 122.256 34.656C122.672 34.4 122.992 34.048 123.216 33.6C123.451 33.152 123.568 32.6293 123.568 32.032C123.568 31.4347 123.451 30.912 123.216 30.464C122.992 30.016 122.672 29.6693 122.256 29.424C121.851 29.168 121.381 29.04 120.848 29.04C120.325 29.04 119.856 29.168 119.44 29.424C119.035 29.6693 118.715 30.016 118.48 30.464C118.256 30.912 118.144 31.4347 118.144 32.032C118.144 32.6293 118.256 33.152 118.48 33.6C118.715 34.048 119.035 34.4 119.44 34.656C119.856 34.9013 120.325 35.024 120.848 35.024ZM134.095 28.064V36H132.879L132.799 34.576C132.543 35.0773 132.175 35.472 131.695 35.76C131.215 36.048 130.671 36.192 130.063 36.192C129.124 36.192 128.372 35.9093 127.807 35.344C127.252 34.768 126.975 33.888 126.975 32.704V28.064H128.319V32.56C128.319 34.2133 129.002 35.04 130.367 35.04C131.05 35.04 131.615 34.7947 132.063 34.304C132.522 33.8027 132.751 33.0933 132.751 32.176V28.064H134.095ZM143.251 28.064V36H142.035L141.955 34.576C141.699 35.0773 141.331 35.472 140.851 35.76C140.371 36.048 139.827 36.192 139.219 36.192C138.28 36.192 137.528 35.9093 136.963 35.344C136.408 34.768 136.131 33.888 136.131 32.704V28.064H137.475V32.56C137.475 34.2133 138.158 35.04 139.523 35.04C140.206 35.04 140.771 34.7947 141.219 34.304C141.678 33.8027 141.907 33.0933 141.907 32.176V28.064H143.251ZM145.463 36V28.064H146.679L146.759 29.488C147.015 28.9867 147.383 28.592 147.863 28.304C148.343 28.016 148.887 27.872 149.495 27.872C150.434 27.872 151.181 28.16 151.735 28.736C152.301 29.3013 152.583 30.176 152.583 31.36V36H151.239V31.504C151.239 29.8507 150.557 29.024 149.191 29.024C148.509 29.024 147.938 29.2747 147.479 29.776C147.031 30.2667 146.807 30.9707 146.807 31.888V36H145.463ZM157.756 36C157.03 36 156.46 35.824 156.044 35.472C155.628 35.12 155.42 34.4853 155.42 33.568V29.2H154.044V28.064H155.42L155.596 26.16H156.764V28.064H159.1V29.2H156.764V33.568C156.764 34.0693 156.865 34.4107 157.068 34.592C157.27 34.7627 157.628 34.848 158.14 34.848H158.972V36H157.756ZM167.751 28.064V36H166.535L166.455 34.576C166.199 35.0773 165.831 35.472 165.351 35.76C164.871 36.048 164.327 36.192 163.719 36.192C162.78 36.192 162.028 35.9093 161.463 35.344C160.908 34.768 160.631 33.888 160.631 32.704V28.064H161.975V32.56C161.975 34.2133 162.658 35.04 164.023 35.04C164.706 35.04 165.271 34.7947 165.719 34.304C166.178 33.8027 166.407 33.0933 166.407 32.176V28.064H167.751ZM169.963 36V28.064H171.179L171.291 29.584C171.537 29.0613 171.91 28.6453 172.411 28.336C172.913 28.0267 173.531 27.872 174.267 27.872V29.28H173.899C173.43 29.28 172.998 29.3653 172.603 29.536C172.209 29.696 171.894 29.9733 171.659 30.368C171.425 30.7627 171.307 31.3067 171.307 32V36H169.963ZM183.578 36.192C182.821 36.192 182.149 36.0213 181.562 35.68C180.976 35.328 180.512 34.8427 180.17 34.224C179.84 33.6053 179.674 32.8747 179.674 32.032C179.674 31.2 179.84 30.4747 180.17 29.856C180.501 29.2267 180.96 28.7413 181.546 28.4C182.144 28.048 182.832 27.872 183.61 27.872C184.378 27.872 185.04 28.048 185.594 28.4C186.16 28.7413 186.592 29.1947 186.89 29.76C187.189 30.3253 187.338 30.9333 187.338 31.584C187.338 31.7013 187.333 31.8187 187.322 31.936C187.322 32.0533 187.322 32.1867 187.322 32.336H181.002C181.034 32.944 181.173 33.4507 181.418 33.856C181.674 34.2507 181.989 34.5493 182.362 34.752C182.746 34.9547 183.152 35.056 183.578 35.056C184.133 35.056 184.597 34.928 184.97 34.672C185.344 34.416 185.616 34.0693 185.786 33.632H187.114C186.901 34.368 186.49 34.9813 185.882 35.472C185.285 35.952 184.517 36.192 183.578 36.192ZM183.578 29.008C182.938 29.008 182.368 29.2053 181.866 29.6C181.376 29.984 181.093 30.5493 181.018 31.296H186.01C185.978 30.5813 185.733 30.0213 185.274 29.616C184.816 29.2107 184.25 29.008 183.578 29.008ZM196.064 28.064V36H194.848L194.768 34.576C194.512 35.0773 194.144 35.472 193.664 35.76C193.184 36.048 192.64 36.192 192.032 36.192C191.093 36.192 190.341 35.9093 189.776 35.344C189.221 34.768 188.944 33.888 188.944 32.704V28.064H190.288V32.56C190.288 34.2133 190.97 35.04 192.336 35.04C193.018 35.04 193.584 34.7947 194.032 34.304C194.49 33.8027 194.72 33.0933 194.72 32.176V28.064H196.064ZM205.55 36.192C204.601 36.192 203.812 35.952 203.182 35.472C202.553 34.992 202.185 34.3413 202.078 33.52H203.454C203.54 33.936 203.758 34.2987 204.11 34.608C204.473 34.9067 204.958 35.056 205.566 35.056C206.132 35.056 206.548 34.9387 206.814 34.704C207.081 34.4587 207.214 34.1707 207.214 33.84C207.214 33.36 207.038 33.04 206.686 32.88C206.345 32.72 205.86 32.576 205.23 32.448C204.804 32.3627 204.377 32.24 203.95 32.08C203.524 31.92 203.166 31.696 202.878 31.408C202.59 31.1093 202.446 30.72 202.446 30.24C202.446 29.5467 202.702 28.9813 203.214 28.544C203.737 28.096 204.441 27.872 205.326 27.872C206.169 27.872 206.857 28.0853 207.39 28.512C207.934 28.928 208.249 29.5253 208.334 30.304H207.006C206.953 29.8987 206.777 29.584 206.478 29.36C206.19 29.1253 205.801 29.008 205.31 29.008C204.83 29.008 204.457 29.1093 204.19 29.312C203.934 29.5147 203.806 29.7813 203.806 30.112C203.806 30.432 203.972 30.6827 204.302 30.864C204.644 31.0453 205.102 31.2 205.678 31.328C206.169 31.4347 206.633 31.568 207.07 31.728C207.518 31.8773 207.881 32.1067 208.158 32.416C208.446 32.7147 208.59 33.152 208.59 33.728C208.601 34.4427 208.329 35.0347 207.774 35.504C207.23 35.9627 206.489 36.192 205.55 36.192ZM211.326 26.304C211.06 26.304 210.836 26.2187 210.654 26.048C210.484 25.8667 210.398 25.6427 210.398 25.376C210.398 25.12 210.484 24.9067 210.654 24.736C210.836 24.5653 211.06 24.48 211.326 24.48C211.582 24.48 211.801 24.5653 211.982 24.736C212.164 24.9067 212.254 25.12 212.254 25.376C212.254 25.6427 212.164 25.8667 211.982 26.048C211.801 26.2187 211.582 26.304 211.326 26.304ZM210.654 36V28.064H211.998V36H210.654ZM217.474 36C216.749 36 216.178 35.824 215.762 35.472C215.346 35.12 215.138 34.4853 215.138 33.568V29.2H213.762V28.064H215.138L215.314 26.16H216.482V28.064H218.818V29.2H216.482V33.568C216.482 34.0693 216.584 34.4107 216.786 34.592C216.989 34.7627 217.346 34.848 217.858 34.848H218.69V36H217.474ZM220.99 36.08C220.723 36.08 220.499 35.9947 220.318 35.824C220.147 35.6427 220.062 35.424 220.062 35.168C220.062 34.912 220.147 34.6987 220.318 34.528C220.499 34.3467 220.723 34.256 220.99 34.256C221.246 34.256 221.459 34.3467 221.63 34.528C221.811 34.6987 221.902 34.912 221.902 35.168C221.902 35.424 221.811 35.6427 221.63 35.824C221.459 35.9947 221.246 36.08 220.99 36.08Z" fill="black" fill-opacity="0.5"/>
</svg>
