<svg width="392" height="87" viewBox="0 0 392 87" fill="none" xmlns="http://www.w3.org/2000/svg">
<path d="M0.88 29V28.6L1.72 28.28C2.57333 27.9333 3 27.2533 3 26.24V5.36C3 4.29333 2.57333 3.61333 1.72 3.32L0.88 3V2.6H11.44C14.2667 2.6 16.6933 3.13333 18.72 4.2C20.7733 5.24 22.3467 6.74667 23.44 8.72C24.56 10.6667 25.12 13.0133 25.12 15.76C25.12 18.56 24.52 20.9467 23.32 22.92C22.12 24.8933 20.44 26.4 18.28 27.44C16.1467 28.48 13.6267 29 10.72 29H0.88ZM9 28.2H10.72C12.64 28.2 14.1867 27.8267 15.36 27.08C16.5333 26.3067 17.3867 25.0267 17.92 23.24C18.48 21.4267 18.76 18.9467 18.76 15.8C18.76 12.6533 18.48 10.1867 17.92 8.4C17.3867 6.58667 16.5467 5.30667 15.4 4.56C14.2533 3.78667 12.7467 3.4 10.88 3.4H9V28.2ZM36.8575 29.6C34.8308 29.6 33.0708 29.1867 31.5775 28.36C30.0842 27.5067 28.9242 26.3067 28.0975 24.76C27.2975 23.2133 26.8975 21.4 26.8975 19.32C26.8975 17.24 27.3242 15.44 28.1775 13.92C29.0575 12.4 30.2442 11.2267 31.7375 10.4C33.2575 9.57333 34.9642 9.16 36.8575 9.16C38.7508 9.16 40.4442 9.57333 41.9375 10.4C43.4308 11.2 44.6042 12.36 45.4575 13.88C46.3375 15.4 46.7775 17.2133 46.7775 19.32C46.7775 21.4267 46.3642 23.2533 45.5375 24.8C44.7375 26.32 43.5908 27.5067 42.0975 28.36C40.6308 29.1867 38.8842 29.6 36.8575 29.6ZM36.8575 28.8C37.7908 28.8 38.5375 28.5333 39.0975 28C39.6575 27.4667 40.0575 26.52 40.2975 25.16C40.5642 23.8 40.6975 21.88 40.6975 19.4C40.6975 16.8933 40.5642 14.96 40.2975 13.6C40.0575 12.24 39.6575 11.2933 39.0975 10.76C38.5375 10.2267 37.7908 9.96 36.8575 9.96C35.9242 9.96 35.1642 10.2267 34.5775 10.76C34.0175 11.2933 33.6042 12.24 33.3375 13.6C33.0975 14.96 32.9775 16.8933 32.9775 19.4C32.9775 21.88 33.0975 23.8 33.3375 25.16C33.6042 26.52 34.0175 27.4667 34.5775 28C35.1642 28.5333 35.9242 28.8 36.8575 28.8ZM48.4981 29V28.6L48.9781 28.44C49.9381 28.12 50.4181 27.4533 50.4181 26.44V5.04C50.4181 4.50667 50.3115 4.10667 50.0981 3.84C49.8848 3.54667 49.5115 3.33333 48.9781 3.2L48.4581 3.08V2.68L55.7781 0.959999L56.2581 1.32L56.0981 6.92V20.6C56.0981 21.5867 56.0981 22.5733 56.0981 23.56C56.1248 24.52 56.1381 25.48 56.1381 26.44C56.1381 26.9733 56.2448 27.4133 56.4581 27.76C56.6715 28.08 57.0315 28.32 57.5381 28.48L58.0581 28.6V29H48.4981ZM69.9434 29.6C67.9168 29.6 66.1568 29.1867 64.6634 28.36C63.1701 27.5067 62.0101 26.3067 61.1834 24.76C60.3834 23.2133 59.9834 21.4 59.9834 19.32C59.9834 17.24 60.4101 15.44 61.2634 13.92C62.1434 12.4 63.3301 11.2267 64.8234 10.4C66.3434 9.57333 68.0501 9.16 69.9434 9.16C71.8368 9.16 73.5301 9.57333 75.0234 10.4C76.5168 11.2 77.6901 12.36 78.5434 13.88C79.4234 15.4 79.8634 17.2133 79.8634 19.32C79.8634 21.4267 79.4501 23.2533 78.6234 24.8C77.8234 26.32 76.6768 27.5067 75.1834 28.36C73.7168 29.1867 71.9701 29.6 69.9434 29.6ZM69.9434 28.8C70.8768 28.8 71.6234 28.5333 72.1834 28C72.7434 27.4667 73.1434 26.52 73.3834 25.16C73.6501 23.8 73.7834 21.88 73.7834 19.4C73.7834 16.8933 73.6501 14.96 73.3834 13.6C73.1434 12.24 72.7434 11.2933 72.1834 10.76C71.6234 10.2267 70.8768 9.96 69.9434 9.96C69.0101 9.96 68.2501 10.2267 67.6634 10.76C67.1034 11.2933 66.6901 12.24 66.4234 13.6C66.1834 14.96 66.0634 16.8933 66.0634 19.4C66.0634 21.88 66.1834 23.8 66.4234 25.16C66.6901 26.52 67.1034 27.4667 67.6634 28C68.2501 28.5333 69.0101 28.8 69.9434 28.8ZM81.6203 29V28.6L82.2203 28.44C82.7536 28.28 83.1136 28.04 83.3003 27.72C83.5136 27.4 83.6203 26.9867 83.6203 26.48V13.96C83.6203 13.3733 83.5136 12.9467 83.3003 12.68C83.1136 12.3867 82.7536 12.1867 82.2203 12.08L81.6203 11.92V11.52L88.5003 9.2L88.9003 9.6L89.2603 13.04V13.36C89.6336 12.6133 90.1136 11.9333 90.7003 11.32C91.3136 10.68 91.9803 10.16 92.7003 9.76C93.447 9.36 94.1803 9.16 94.9003 9.16C95.9136 9.16 96.687 9.44 97.2203 10C97.7536 10.56 98.0203 11.2667 98.0203 12.12C98.0203 13.0267 97.7536 13.7333 97.2203 14.24C96.7136 14.72 96.1003 14.96 95.3803 14.96C94.2603 14.96 93.2736 14.4 92.4203 13.28L92.3403 13.2C92.0736 12.8267 91.767 12.6267 91.4203 12.6C91.0736 12.5467 90.7536 12.7067 90.4603 13.08C90.1936 13.32 89.967 13.6133 89.7803 13.96C89.6203 14.28 89.4603 14.6533 89.3003 15.08V26.24C89.3003 27.3067 89.767 27.9733 90.7003 28.24L91.9803 28.6V29H81.6203ZM108.692 9.16C110.425 9.16 111.905 9.52 113.132 10.24C114.358 10.9333 115.292 11.8933 115.932 13.12C116.598 14.32 116.932 15.6933 116.932 17.24C116.932 17.5333 116.918 17.84 116.892 18.16C116.865 18.4533 116.812 18.72 116.732 18.96H104.812C104.838 21.84 105.345 23.92 106.332 25.2C107.345 26.4533 108.838 27.08 110.812 27.08C112.145 27.08 113.225 26.8667 114.052 26.44C114.878 26.0133 115.652 25.3867 116.372 24.56L116.772 24.92C115.945 26.3867 114.838 27.5333 113.452 28.36C112.092 29.1867 110.452 29.6 108.532 29.6C106.638 29.6 104.958 29.2 103.492 28.4C102.025 27.5733 100.878 26.4 100.052 24.88C99.2249 23.36 98.8116 21.5467 98.8116 19.44C98.8116 17.2533 99.2916 15.4 100.252 13.88C101.212 12.3333 102.438 11.16 103.932 10.36C105.452 9.56 107.038 9.16 108.692 9.16ZM108.572 9.96C107.798 9.96 107.132 10.2 106.572 10.68C106.038 11.1333 105.612 11.96 105.292 13.16C104.998 14.3333 104.838 16 104.812 18.16H111.652C111.918 15.2533 111.812 13.16 111.332 11.88C110.852 10.6 109.932 9.96 108.572 9.96ZM118.925 29V28.6L119.485 28.44C119.992 28.3067 120.338 28.08 120.525 27.76C120.738 27.44 120.858 27.0133 120.885 26.48V13.96C120.885 13.3733 120.792 12.9467 120.605 12.68C120.418 12.3867 120.058 12.1867 119.525 12.08L118.925 11.92V11.52L125.765 9.2L126.165 9.6L126.485 12.32C127.365 11.44 128.365 10.6933 129.485 10.08C130.632 9.46667 131.818 9.16 133.045 9.16C134.325 9.16 135.352 9.42667 136.125 9.96C136.898 10.4667 137.485 11.2667 137.885 12.36C138.925 11.3733 140.045 10.6 141.245 10.04C142.472 9.45333 143.658 9.16 144.805 9.16C146.698 9.16 148.085 9.61333 148.965 10.52C149.872 11.4267 150.325 12.8533 150.325 14.8V26.52C150.325 27.56 150.805 28.2133 151.765 28.48L152.205 28.6V29H142.965V28.6L143.365 28.48C143.872 28.32 144.218 28.08 144.405 27.76C144.618 27.44 144.725 27.0133 144.725 26.48V14.24C144.725 13.12 144.525 12.36 144.125 11.96C143.725 11.5333 143.085 11.32 142.205 11.32C141.512 11.32 140.832 11.48 140.165 11.8C139.525 12.0933 138.845 12.5467 138.125 13.16C138.258 13.5867 138.338 14.0533 138.365 14.56C138.418 15.0667 138.445 15.6 138.445 16.16V26.52C138.472 27.56 138.952 28.2133 139.885 28.48L140.245 28.6V29H130.965V28.6L131.525 28.44C132.032 28.28 132.378 28.0533 132.565 27.76C132.778 27.44 132.885 27.0133 132.885 26.48V14.28C132.885 13.2133 132.685 12.4533 132.285 12C131.912 11.5467 131.258 11.32 130.325 11.32C129.712 11.32 129.098 11.48 128.485 11.8C127.872 12.0933 127.232 12.5333 126.565 13.12V26.52C126.565 27.56 127.032 28.2133 127.965 28.48L128.325 28.6V29H118.925ZM162.6 29V28.6L163.08 28.44C164.04 28.12 164.52 27.4533 164.52 26.44V5.08C164.52 4.52 164.426 4.10667 164.24 3.84C164.053 3.57333 163.693 3.37333 163.16 3.24L162.56 3.08V2.68L169.6 0.959999L170.24 1.32L170.08 6.96V11.96C171.013 11.1867 172.013 10.5333 173.08 10C174.173 9.44 175.373 9.16 176.68 9.16C178.413 9.16 179.786 9.65333 180.8 10.64C181.84 11.6267 182.36 13.1467 182.36 15.2V26.48C182.36 27.0133 182.466 27.44 182.68 27.76C182.893 28.08 183.266 28.32 183.8 28.48L184.12 28.6V29H174.76V28.6L175.24 28.48C176.2 28.16 176.68 27.48 176.68 26.44V13.88C176.68 12.8133 176.493 12.08 176.12 11.68C175.773 11.28 175.146 11.08 174.24 11.08C173.653 11.08 173.013 11.2 172.32 11.44C171.626 11.6533 170.92 12.04 170.2 12.6V26.52C170.2 27.56 170.68 28.2267 171.64 28.52L171.96 28.6V29H162.6ZM191.288 29.6C189.742 29.6 188.435 29.16 187.368 28.28C186.328 27.4 185.808 26.1333 185.808 24.48C185.808 23.2267 186.448 22.08 187.728 21.04C189.008 19.9733 191.022 19.1733 193.768 18.64C194.195 18.56 194.675 18.48 195.208 18.4C195.742 18.2933 196.302 18.1867 196.888 18.08V14.92C196.888 13.1067 196.662 11.84 196.208 11.12C195.782 10.3733 195.102 10 194.168 10C193.528 10 193.022 10.2133 192.648 10.64C192.275 11.04 192.035 11.7467 191.928 12.76L191.848 13.2C191.795 14.3467 191.515 15.1867 191.008 15.72C190.502 16.2533 189.875 16.52 189.128 16.52C188.435 16.52 187.862 16.3067 187.408 15.88C186.955 15.4533 186.728 14.88 186.728 14.16C186.728 13.0667 187.102 12.1467 187.848 11.4C188.622 10.6533 189.635 10.0933 190.888 9.72C192.142 9.34667 193.502 9.16 194.968 9.16C197.342 9.16 199.168 9.74667 200.448 10.92C201.755 12.0667 202.408 13.9467 202.408 16.56V25.4C202.408 26.6 202.968 27.2 204.088 27.2H204.968L205.328 27.52C204.822 28.16 204.262 28.6533 203.648 29C203.062 29.3467 202.222 29.52 201.128 29.52C199.955 29.52 199.022 29.2533 198.328 28.72C197.662 28.16 197.222 27.4267 197.008 26.52C196.208 27.3733 195.382 28.1067 194.528 28.72C193.702 29.3067 192.622 29.6 191.288 29.6ZM193.728 27.16C194.262 27.16 194.755 27.04 195.208 26.8C195.688 26.5333 196.248 26.1333 196.888 25.6V18.88C196.622 18.9333 196.355 18.9867 196.088 19.04C195.822 19.0933 195.515 19.1467 195.168 19.2C193.942 19.52 192.955 20.0667 192.208 20.84C191.488 21.5867 191.128 22.6 191.128 23.88C191.128 24.9733 191.382 25.8 191.888 26.36C192.395 26.8933 193.008 27.16 193.728 27.16ZM212.992 29.52L206.232 29V28.6L206.632 28.52C207.672 28.28 208.192 27.6133 208.192 26.52V5.12C208.192 4.56 208.098 4.13333 207.912 3.84C207.752 3.54667 207.405 3.34666 206.872 3.24L206.312 3.08V2.68L213.432 0.959999L213.912 1.32L213.752 6.96V11C214.632 10.3867 215.592 9.93333 216.632 9.64C217.672 9.32 218.725 9.16 219.792 9.16C221.312 9.16 222.658 9.52 223.832 10.24C225.005 10.9333 225.925 12.0267 226.592 13.52C227.285 14.9867 227.632 16.88 227.632 19.2C227.632 21.52 227.245 23.4533 226.472 25C225.725 26.52 224.712 27.6667 223.432 28.44C222.178 29.2133 220.792 29.6 219.272 29.6C218.285 29.6 217.285 29.4667 216.272 29.2C215.285 28.9333 214.405 28.56 213.632 28.08L212.992 29.52ZM217.272 28.24C218.125 28.24 218.872 27.9733 219.512 27.44C220.152 26.9067 220.658 26 221.032 24.72C221.405 23.4133 221.592 21.6267 221.592 19.36C221.592 17.0933 221.418 15.3467 221.072 14.12C220.725 12.8933 220.232 12.04 219.592 11.56C218.978 11.08 218.232 10.84 217.352 10.84C216.098 10.84 214.938 11.1867 213.872 11.88V27.24C214.378 27.56 214.898 27.8133 215.432 28C215.965 28.16 216.578 28.24 217.272 28.24ZM239.668 9.16C241.401 9.16 242.881 9.52 244.108 10.24C245.335 10.9333 246.268 11.8933 246.908 13.12C247.575 14.32 247.908 15.6933 247.908 17.24C247.908 17.5333 247.895 17.84 247.868 18.16C247.841 18.4533 247.788 18.72 247.708 18.96H235.788C235.815 21.84 236.321 23.92 237.308 25.2C238.321 26.4533 239.815 27.08 241.788 27.08C243.121 27.08 244.201 26.8667 245.028 26.44C245.855 26.0133 246.628 25.3867 247.348 24.56L247.748 24.92C246.921 26.3867 245.815 27.5333 244.428 28.36C243.068 29.1867 241.428 29.6 239.508 29.6C237.615 29.6 235.935 29.2 234.468 28.4C233.001 27.5733 231.855 26.4 231.028 24.88C230.201 23.36 229.788 21.5467 229.788 19.44C229.788 17.2533 230.268 15.4 231.228 13.88C232.188 12.3333 233.415 11.16 234.908 10.36C236.428 9.56 238.015 9.16 239.668 9.16ZM239.548 9.96C238.775 9.96 238.108 10.2 237.548 10.68C237.015 11.1333 236.588 11.96 236.268 13.16C235.975 14.3333 235.815 16 235.788 18.16H242.628C242.895 15.2533 242.788 13.16 242.308 11.88C241.828 10.6 240.908 9.96 239.548 9.96ZM249.902 29V28.6L250.462 28.44C250.968 28.3067 251.315 28.08 251.502 27.76C251.715 27.44 251.835 27.0133 251.862 26.48V13.96C251.862 13.3733 251.768 12.9467 251.582 12.68C251.395 12.3867 251.035 12.1867 250.502 12.08L249.902 11.92V11.52L256.742 9.2L257.142 9.6L257.462 12.32C258.342 11.44 259.342 10.6933 260.462 10.08C261.608 9.46667 262.795 9.16 264.022 9.16C265.302 9.16 266.328 9.42667 267.102 9.96C267.875 10.4667 268.462 11.2667 268.862 12.36C269.902 11.3733 271.022 10.6 272.222 10.04C273.448 9.45333 274.635 9.16 275.782 9.16C277.675 9.16 279.062 9.61333 279.942 10.52C280.848 11.4267 281.302 12.8533 281.302 14.8V26.52C281.302 27.56 281.782 28.2133 282.742 28.48L283.182 28.6V29H273.942V28.6L274.342 28.48C274.848 28.32 275.195 28.08 275.382 27.76C275.595 27.44 275.702 27.0133 275.702 26.48V14.24C275.702 13.12 275.502 12.36 275.102 11.96C274.702 11.5333 274.062 11.32 273.182 11.32C272.488 11.32 271.808 11.48 271.142 11.8C270.502 12.0933 269.822 12.5467 269.102 13.16C269.235 13.5867 269.315 14.0533 269.342 14.56C269.395 15.0667 269.422 15.6 269.422 16.16V26.52C269.448 27.56 269.928 28.2133 270.862 28.48L271.222 28.6V29H261.942V28.6L262.502 28.44C263.008 28.28 263.355 28.0533 263.542 27.76C263.755 27.44 263.862 27.0133 263.862 26.48V14.28C263.862 13.2133 263.662 12.4533 263.262 12C262.888 11.5467 262.235 11.32 261.302 11.32C260.688 11.32 260.075 11.48 259.462 11.8C258.848 12.0933 258.208 12.5333 257.542 13.12V26.52C257.542 27.56 258.008 28.2133 258.942 28.48L259.302 28.6V29H249.902ZM291.79 29.6C290.75 29.6 289.79 29.4 288.91 29C288.057 28.6 287.377 27.96 286.87 27.08C286.39 26.1733 286.163 24.9867 286.19 23.52L286.31 13.24C286.31 12.6267 286.203 12.1867 285.99 11.92C285.777 11.6533 285.443 11.4667 284.99 11.36L284.51 11.2V10.8L291.67 9.4L292.07 9.8L291.87 15.48V25.12C291.87 25.9733 292.11 26.6 292.59 27C293.097 27.4 293.723 27.6 294.47 27.6C295.217 27.6 295.883 27.4933 296.47 27.28C297.057 27.0667 297.643 26.7467 298.23 26.32L298.39 13.28C298.39 12.6667 298.297 12.24 298.11 12C297.923 11.7333 297.577 11.5467 297.07 11.44L296.67 11.32V10.92L303.67 9.4L304.07 9.8L303.95 15.48V26.32C303.95 26.9067 304.03 27.36 304.19 27.68C304.35 28 304.697 28.2667 305.23 28.48L305.63 28.6V29L298.63 29.4L298.27 27.04C297.39 27.76 296.43 28.3733 295.39 28.88C294.377 29.36 293.177 29.6 291.79 29.6ZM314.4 29.6C313.093 29.6 311.92 29.44 310.88 29.12C309.84 28.8267 308.88 28.4533 308 28L308.04 23.24H308.44L309.8 25.64C310.386 26.7067 311.026 27.5067 311.72 28.04C312.44 28.5467 313.346 28.8 314.44 28.8C315.72 28.8 316.746 28.52 317.52 27.96C318.32 27.3733 318.72 26.6 318.72 25.64C318.72 24.76 318.44 24.04 317.88 23.48C317.32 22.92 316.28 22.4133 314.76 21.96L313.08 21.44C311.453 20.96 310.173 20.2133 309.24 19.2C308.306 18.1867 307.84 16.9467 307.84 15.48C307.84 13.72 308.533 12.2267 309.92 11C311.306 9.77333 313.293 9.16 315.88 9.16C316.92 9.16 317.893 9.28 318.8 9.52C319.733 9.73333 320.626 10.0667 321.48 10.52L321.24 14.84H320.84L319.44 12.36C318.933 11.48 318.426 10.8667 317.92 10.52C317.44 10.1467 316.706 9.96 315.72 9.96C314.813 9.96 313.96 10.2133 313.16 10.72C312.36 11.2267 311.96 11.9467 311.96 12.88C311.96 13.7867 312.293 14.5067 312.96 15.04C313.653 15.5733 314.666 16.0667 316 16.52L317.8 17.04C319.72 17.6267 321.093 18.44 321.92 19.48C322.746 20.4933 323.16 21.72 323.16 23.16C323.16 25.1067 322.386 26.6667 320.84 27.84C319.32 29.0133 317.173 29.6 314.4 29.6ZM0.8 77V76.6L1.36 76.44C1.86667 76.3067 2.21333 76.08 2.4 75.76C2.61333 75.44 2.73333 75.0133 2.76 74.48V61.96C2.76 61.3733 2.66667 60.9467 2.48 60.68C2.29333 60.3867 1.93333 60.1867 1.4 60.08L0.8 59.92V59.52L7.64 57.2L8.04 57.6L8.36 60.32C9.24 59.44 10.24 58.6933 11.36 58.08C12.5067 57.4667 13.6933 57.16 14.92 57.16C16.2 57.16 17.2267 57.4267 18 57.96C18.7733 58.4667 19.36 59.2667 19.76 60.36C20.8 59.3733 21.92 58.6 23.12 58.04C24.3467 57.4533 25.5333 57.16 26.68 57.16C28.5733 57.16 29.96 57.6133 30.84 58.52C31.7467 59.4267 32.2 60.8533 32.2 62.8V74.52C32.2 75.56 32.68 76.2133 33.64 76.48L34.08 76.6V77H24.84V76.6L25.24 76.48C25.7467 76.32 26.0933 76.08 26.28 75.76C26.4933 75.44 26.6 75.0133 26.6 74.48V62.24C26.6 61.12 26.4 60.36 26 59.96C25.6 59.5333 24.96 59.32 24.08 59.32C23.3867 59.32 22.7067 59.48 22.04 59.8C21.4 60.0933 20.72 60.5467 20 61.16C20.1333 61.5867 20.2133 62.0533 20.24 62.56C20.2933 63.0667 20.32 63.6 20.32 64.16V74.52C20.3467 75.56 20.8267 76.2133 21.76 76.48L22.12 76.6V77H12.84V76.6L13.4 76.44C13.9067 76.28 14.2533 76.0533 14.44 75.76C14.6533 75.44 14.76 75.0133 14.76 74.48V62.28C14.76 61.2133 14.56 60.4533 14.16 60C13.7867 59.5467 13.1333 59.32 12.2 59.32C11.5867 59.32 10.9733 59.48 10.36 59.8C9.74667 60.0933 9.10667 60.5333 8.44 61.12V74.52C8.44 75.56 8.90667 76.2133 9.84 76.48L10.2 76.6V77H0.8ZM41.2494 77.6C39.7027 77.6 38.396 77.16 37.3294 76.28C36.2894 75.4 35.7694 74.1333 35.7694 72.48C35.7694 71.2267 36.4094 70.08 37.6894 69.04C38.9694 67.9733 40.9827 67.1733 43.7294 66.64C44.156 66.56 44.636 66.48 45.1694 66.4C45.7027 66.2933 46.2627 66.1867 46.8494 66.08V62.92C46.8494 61.1067 46.6227 59.84 46.1694 59.12C45.7427 58.3733 45.0627 58 44.1294 58C43.4894 58 42.9827 58.2133 42.6094 58.64C42.236 59.04 41.996 59.7467 41.8894 60.76L41.8094 61.2C41.756 62.3467 41.476 63.1867 40.9694 63.72C40.4627 64.2533 39.836 64.52 39.0894 64.52C38.396 64.52 37.8227 64.3067 37.3694 63.88C36.916 63.4533 36.6894 62.88 36.6894 62.16C36.6894 61.0667 37.0627 60.1467 37.8094 59.4C38.5827 58.6533 39.596 58.0933 40.8494 57.72C42.1027 57.3467 43.4627 57.16 44.9294 57.16C47.3027 57.16 49.1294 57.7467 50.4094 58.92C51.716 60.0667 52.3694 61.9467 52.3694 64.56V73.4C52.3694 74.6 52.9294 75.2 54.0494 75.2H54.9294L55.2894 75.52C54.7827 76.16 54.2227 76.6533 53.6094 77C53.0227 77.3467 52.1827 77.52 51.0894 77.52C49.916 77.52 48.9827 77.2533 48.2894 76.72C47.6227 76.16 47.1827 75.4267 46.9694 74.52C46.1694 75.3733 45.3427 76.1067 44.4894 76.72C43.6627 77.3067 42.5827 77.6 41.2494 77.6ZM43.6894 75.16C44.2227 75.16 44.716 75.04 45.1694 74.8C45.6494 74.5333 46.2094 74.1333 46.8494 73.6V66.88C46.5827 66.9333 46.316 66.9867 46.0494 67.04C45.7827 67.0933 45.476 67.1467 45.1294 67.2C43.9027 67.52 42.916 68.0667 42.1694 68.84C41.4494 69.5867 41.0894 70.6 41.0894 71.88C41.0894 72.9733 41.3427 73.8 41.8494 74.36C42.356 74.8933 42.9694 75.16 43.6894 75.16ZM56.0344 77V76.6L56.5944 76.44C57.5277 76.1733 57.9944 75.52 57.9944 74.48V61.96C57.9944 61.3733 57.901 60.9467 57.7144 60.68C57.5277 60.3867 57.1677 60.1867 56.6344 60.08L56.0344 59.92V59.52L62.8744 57.2L63.2744 57.6L63.5944 60C64.5277 59.1733 65.581 58.4933 66.7544 57.96C67.9277 57.4267 69.0877 57.16 70.2344 57.16C71.9944 57.16 73.341 57.64 74.2744 58.6C75.2344 59.56 75.7144 61.0267 75.7144 63V74.52C75.7144 75.56 76.221 76.2133 77.2344 76.48L77.5944 76.6V77H68.1544V76.6L68.6744 76.44C69.6077 76.1467 70.0744 75.4933 70.0744 74.48V61.72C70.0744 60.0133 69.221 59.16 67.5144 59.16C66.341 59.16 65.061 59.7467 63.6744 60.92V74.52C63.6744 75.56 64.141 76.2133 65.0744 76.48L65.4344 76.6V77H56.0344ZM87.6394 77.6C86.066 77.6 84.6527 77.2533 83.3994 76.56C82.146 75.84 81.146 74.7467 80.3994 73.28C79.6794 71.7867 79.3194 69.88 79.3194 67.56C79.3194 65.2133 79.7327 63.28 80.5594 61.76C81.386 60.2133 82.4794 59.0667 83.8394 58.32C85.1994 57.5467 86.6794 57.16 88.2794 57.16C89.2127 57.16 90.106 57.2533 90.9594 57.44C91.8127 57.6267 92.5727 57.9067 93.2394 58.28V53.08C93.2394 52.52 93.146 52.1067 92.9594 51.84C92.7994 51.5733 92.4394 51.3867 91.8794 51.28L91.1194 51.12V50.72L98.3994 48.96L98.8394 49.32L98.6794 54.92V74.48C98.6794 75.0133 98.7727 75.4533 98.9594 75.8C99.146 76.12 99.4927 76.3467 99.9994 76.48L100.359 76.6V77L93.5194 77.44L93.1594 76C92.4394 76.48 91.6127 76.8667 90.6794 77.16C89.7727 77.4533 88.7594 77.6 87.6394 77.6ZM89.9594 76.12C91.0794 76.12 92.106 75.7867 93.0394 75.12V59.24C92.0527 58.6 91.0394 58.28 89.9994 58.28C88.7194 58.28 87.626 59.0267 86.7194 60.52C85.8127 61.9867 85.3594 64.3067 85.3594 67.48C85.3594 70.6533 85.786 72.8933 86.6394 74.2C87.4927 75.48 88.5994 76.12 89.9594 76.12ZM107.578 77.6C106.031 77.6 104.724 77.16 103.658 76.28C102.618 75.4 102.098 74.1333 102.098 72.48C102.098 71.2267 102.738 70.08 104.018 69.04C105.298 67.9733 107.311 67.1733 110.058 66.64C110.484 66.56 110.964 66.48 111.497 66.4C112.031 66.2933 112.591 66.1867 113.178 66.08V62.92C113.178 61.1067 112.951 59.84 112.498 59.12C112.071 58.3733 111.391 58 110.458 58C109.818 58 109.311 58.2133 108.938 58.64C108.564 59.04 108.324 59.7467 108.218 60.76L108.138 61.2C108.084 62.3467 107.804 63.1867 107.298 63.72C106.791 64.2533 106.164 64.52 105.418 64.52C104.724 64.52 104.151 64.3067 103.698 63.88C103.244 63.4533 103.018 62.88 103.018 62.16C103.018 61.0667 103.391 60.1467 104.138 59.4C104.911 58.6533 105.924 58.0933 107.178 57.72C108.431 57.3467 109.791 57.16 111.258 57.16C113.631 57.16 115.458 57.7467 116.738 58.92C118.044 60.0667 118.698 61.9467 118.698 64.56V73.4C118.698 74.6 119.258 75.2 120.378 75.2H121.258L121.618 75.52C121.111 76.16 120.551 76.6533 119.938 77C119.351 77.3467 118.511 77.52 117.418 77.52C116.244 77.52 115.311 77.2533 114.618 76.72C113.951 76.16 113.511 75.4267 113.298 74.52C112.498 75.3733 111.671 76.1067 110.818 76.72C109.991 77.3067 108.911 77.6 107.578 77.6ZM110.018 75.16C110.551 75.16 111.044 75.04 111.497 74.8C111.978 74.5333 112.538 74.1333 113.178 73.6V66.88C112.911 66.9333 112.644 66.9867 112.378 67.04C112.111 67.0933 111.804 67.1467 111.458 67.2C110.231 67.52 109.244 68.0667 108.498 68.84C107.778 69.5867 107.418 70.6 107.418 71.88C107.418 72.9733 107.671 73.8 108.178 74.36C108.684 74.8933 109.298 75.16 110.018 75.16ZM122.363 77V76.6L122.923 76.44C123.429 76.3067 123.776 76.08 123.963 75.76C124.176 75.44 124.296 75.0133 124.323 74.48V61.96C124.323 61.3733 124.229 60.9467 124.043 60.68C123.856 60.3867 123.496 60.1867 122.963 60.08L122.363 59.92V59.52L129.203 57.2L129.603 57.6L129.923 60.32C130.803 59.44 131.803 58.6933 132.923 58.08C134.069 57.4667 135.256 57.16 136.483 57.16C137.763 57.16 138.789 57.4267 139.563 57.96C140.336 58.4667 140.923 59.2667 141.323 60.36C142.363 59.3733 143.483 58.6 144.683 58.04C145.909 57.4533 147.096 57.16 148.243 57.16C150.136 57.16 151.523 57.6133 152.403 58.52C153.309 59.4267 153.763 60.8533 153.763 62.8V74.52C153.763 75.56 154.243 76.2133 155.203 76.48L155.643 76.6V77H146.403V76.6L146.803 76.48C147.309 76.32 147.656 76.08 147.843 75.76C148.056 75.44 148.163 75.0133 148.163 74.48V62.24C148.163 61.12 147.963 60.36 147.563 59.96C147.163 59.5333 146.523 59.32 145.643 59.32C144.949 59.32 144.269 59.48 143.602 59.8C142.963 60.0933 142.283 60.5467 141.562 61.16C141.696 61.5867 141.776 62.0533 141.803 62.56C141.856 63.0667 141.883 63.6 141.883 64.16V74.52C141.909 75.56 142.389 76.2133 143.323 76.48L143.683 76.6V77H134.403V76.6L134.963 76.44C135.469 76.28 135.816 76.0533 136.003 75.76C136.216 75.44 136.323 75.0133 136.323 74.48V62.28C136.323 61.2133 136.123 60.4533 135.723 60C135.349 59.5467 134.696 59.32 133.763 59.32C133.149 59.32 132.536 59.48 131.923 59.8C131.309 60.0933 130.669 60.5333 130.003 61.12V74.52C130.003 75.56 130.469 76.2133 131.403 76.48L131.763 76.6V77H122.363ZM164.251 77.6C163.211 77.6 162.251 77.4 161.371 77C160.518 76.6 159.838 75.96 159.331 75.08C158.851 74.1733 158.624 72.9867 158.651 71.52L158.771 61.24C158.771 60.6267 158.664 60.1867 158.451 59.92C158.238 59.6533 157.904 59.4667 157.451 59.36L156.971 59.2V58.8L164.131 57.4L164.531 57.8L164.331 63.48V73.12C164.331 73.9733 164.571 74.6 165.051 75C165.558 75.4 166.184 75.6 166.931 75.6C167.678 75.6 168.344 75.4933 168.931 75.28C169.518 75.0667 170.104 74.7467 170.691 74.32L170.851 61.28C170.851 60.6667 170.758 60.24 170.571 60C170.384 59.7333 170.038 59.5467 169.531 59.44L169.131 59.32V58.92L176.131 57.4L176.531 57.8L176.411 63.48V74.32C176.411 74.9067 176.491 75.36 176.651 75.68C176.811 76 177.158 76.2667 177.691 76.48L178.091 76.6V77L171.091 77.4L170.731 75.04C169.851 75.76 168.891 76.3733 167.851 76.88C166.838 77.36 165.638 77.6 164.251 77.6ZM186.861 77.6C185.554 77.6 184.381 77.44 183.341 77.12C182.301 76.8267 181.341 76.4533 180.461 76L180.501 71.24H180.901L182.261 73.64C182.847 74.7067 183.487 75.5067 184.181 76.04C184.901 76.5467 185.807 76.8 186.901 76.8C188.181 76.8 189.207 76.52 189.981 75.96C190.781 75.3733 191.181 74.6 191.181 73.64C191.181 72.76 190.901 72.04 190.341 71.48C189.781 70.92 188.741 70.4133 187.221 69.96L185.541 69.44C183.914 68.96 182.634 68.2133 181.701 67.2C180.767 66.1867 180.301 64.9467 180.301 63.48C180.301 61.72 180.994 60.2267 182.381 59C183.767 57.7733 185.754 57.16 188.341 57.16C189.381 57.16 190.354 57.28 191.261 57.52C192.194 57.7333 193.087 58.0667 193.941 58.52L193.701 62.84H193.301L191.901 60.36C191.394 59.48 190.887 58.8667 190.381 58.52C189.901 58.1467 189.167 57.96 188.181 57.96C187.274 57.96 186.421 58.2133 185.621 58.72C184.821 59.2267 184.421 59.9467 184.421 60.88C184.421 61.7867 184.754 62.5067 185.421 63.04C186.114 63.5733 187.127 64.0667 188.461 64.52L190.261 65.04C192.181 65.6267 193.554 66.44 194.381 67.48C195.207 68.4933 195.621 69.72 195.621 71.16C195.621 73.1067 194.847 74.6667 193.301 75.84C191.781 77.0133 189.634 77.6 186.861 77.6ZM206.073 86.2V85.8L206.553 85.64C207.54 85.3733 208.033 84.7333 208.033 83.72V61.96C208.033 61.3733 207.927 60.9333 207.713 60.64C207.527 60.3467 207.167 60.1467 206.633 60.04L206.073 59.92V59.52L212.873 57.2L213.273 57.6L213.633 58.84C214.513 58.3067 215.487 57.8933 216.553 57.6C217.647 57.3067 218.767 57.16 219.913 57.16C222.207 57.16 224.02 58.04 225.353 59.8C226.713 61.5333 227.393 64.0267 227.393 67.28C227.393 70.48 226.647 73 225.153 74.84C223.687 76.68 221.607 77.6 218.913 77.6C216.807 77.6 215.033 77.2933 213.593 76.68V83.6C213.593 84.6667 214.073 85.3333 215.033 85.6L215.793 85.8V86.2H206.073ZM216.993 76.44C218.327 76.44 219.38 75.7467 220.153 74.36C220.953 72.9733 221.353 70.6667 221.353 67.44C221.353 64.2133 220.98 61.96 220.233 60.68C219.487 59.3733 218.407 58.72 216.993 58.72C216.007 58.72 214.913 59.04 213.713 59.68V75.8C214.727 76.2267 215.82 76.44 216.993 76.44ZM239.553 77.6C237.526 77.6 235.766 77.1867 234.273 76.36C232.779 75.5067 231.619 74.3067 230.793 72.76C229.993 71.2133 229.593 69.4 229.593 67.32C229.593 65.24 230.019 63.44 230.873 61.92C231.753 60.4 232.939 59.2267 234.433 58.4C235.953 57.5733 237.659 57.16 239.553 57.16C241.446 57.16 243.139 57.5733 244.633 58.4C246.126 59.2 247.299 60.36 248.153 61.88C249.033 63.4 249.473 65.2133 249.473 67.32C249.473 69.4267 249.059 71.2533 248.233 72.8C247.433 74.32 246.286 75.5067 244.793 76.36C243.326 77.1867 241.579 77.6 239.553 77.6ZM239.553 76.8C240.486 76.8 241.233 76.5333 241.793 76C242.353 75.4667 242.753 74.52 242.993 73.16C243.259 71.8 243.393 69.88 243.393 67.4C243.393 64.8933 243.259 62.96 242.993 61.6C242.753 60.24 242.353 59.2933 241.793 58.76C241.233 58.2267 240.486 57.96 239.553 57.96C238.619 57.96 237.859 58.2267 237.273 58.76C236.713 59.2933 236.299 60.24 236.033 61.6C235.793 62.96 235.673 64.8933 235.673 67.4C235.673 69.88 235.793 71.8 236.033 73.16C236.299 74.52 236.713 75.4667 237.273 76C237.859 76.5333 238.619 76.8 239.553 76.8ZM251.23 77V76.6L251.79 76.44C252.723 76.1733 253.19 75.52 253.19 74.48V61.96C253.19 61.3733 253.096 60.9467 252.91 60.68C252.723 60.3867 252.363 60.1867 251.83 60.08L251.23 59.92V59.52L258.07 57.2L258.47 57.6L258.79 60C259.723 59.1733 260.776 58.4933 261.95 57.96C263.123 57.4267 264.283 57.16 265.43 57.16C267.19 57.16 268.536 57.64 269.47 58.6C270.43 59.56 270.91 61.0267 270.91 63V74.52C270.91 75.56 271.416 76.2133 272.43 76.48L272.79 76.6V77H263.35V76.6L263.87 76.44C264.803 76.1467 265.27 75.4933 265.27 74.48V61.72C265.27 60.0133 264.416 59.16 262.71 59.16C261.536 59.16 260.256 59.7467 258.87 60.92V74.52C258.87 75.56 259.336 76.2133 260.27 76.48L260.63 76.6V77H251.23ZM282.835 77.6C281.261 77.6 279.848 77.2533 278.595 76.56C277.341 75.84 276.341 74.7467 275.595 73.28C274.875 71.7867 274.515 69.88 274.515 67.56C274.515 65.2133 274.928 63.28 275.755 61.76C276.581 60.2133 277.675 59.0667 279.035 58.32C280.395 57.5467 281.875 57.16 283.475 57.16C284.408 57.16 285.301 57.2533 286.155 57.44C287.008 57.6267 287.768 57.9067 288.435 58.28V53.08C288.435 52.52 288.341 52.1067 288.155 51.84C287.995 51.5733 287.635 51.3867 287.075 51.28L286.315 51.12V50.72L293.595 48.96L294.035 49.32L293.875 54.92V74.48C293.875 75.0133 293.968 75.4533 294.155 75.8C294.341 76.12 294.688 76.3467 295.195 76.48L295.555 76.6V77L288.715 77.44L288.355 76C287.635 76.48 286.808 76.8667 285.875 77.16C284.968 77.4533 283.955 77.6 282.835 77.6ZM285.155 76.12C286.275 76.12 287.301 75.7867 288.235 75.12V59.24C287.248 58.6 286.235 58.28 285.195 58.28C283.915 58.28 282.821 59.0267 281.915 60.52C281.008 61.9867 280.555 64.3067 280.555 67.48C280.555 70.6533 280.981 72.8933 281.835 74.2C282.688 75.48 283.795 76.12 285.155 76.12ZM307.363 57.16C309.097 57.16 310.577 57.52 311.803 58.24C313.03 58.9333 313.963 59.8933 314.603 61.12C315.27 62.32 315.603 63.6933 315.603 65.24C315.603 65.5333 315.59 65.84 315.563 66.16C315.537 66.4533 315.483 66.72 315.403 66.96H303.483C303.51 69.84 304.017 71.92 305.003 73.2C306.017 74.4533 307.51 75.08 309.483 75.08C310.817 75.08 311.897 74.8667 312.723 74.44C313.55 74.0133 314.323 73.3867 315.043 72.56L315.443 72.92C314.617 74.3867 313.51 75.5333 312.123 76.36C310.763 77.1867 309.123 77.6 307.203 77.6C305.31 77.6 303.63 77.2 302.163 76.4C300.697 75.5733 299.55 74.4 298.723 72.88C297.897 71.36 297.483 69.5467 297.483 67.44C297.483 65.2533 297.963 63.4 298.923 61.88C299.883 60.3333 301.11 59.16 302.603 58.36C304.123 57.56 305.71 57.16 307.363 57.16ZM307.243 57.96C306.47 57.96 305.803 58.2 305.243 58.68C304.71 59.1333 304.283 59.96 303.963 61.16C303.67 62.3333 303.51 64 303.483 66.16H310.323C310.59 63.2533 310.483 61.16 310.003 59.88C309.523 58.6 308.603 57.96 307.243 57.96ZM317.597 77V76.6L318.197 76.44C318.73 76.28 319.09 76.04 319.277 75.72C319.49 75.4 319.597 74.9867 319.597 74.48V61.96C319.597 61.3733 319.49 60.9467 319.277 60.68C319.09 60.3867 318.73 60.1867 318.197 60.08L317.597 59.92V59.52L324.477 57.2L324.877 57.6L325.237 61.04V61.36C325.61 60.6133 326.09 59.9333 326.677 59.32C327.29 58.68 327.957 58.16 328.677 57.76C329.424 57.36 330.157 57.16 330.877 57.16C331.89 57.16 332.664 57.44 333.197 58C333.73 58.56 333.997 59.2667 333.997 60.12C333.997 61.0267 333.73 61.7333 333.197 62.24C332.69 62.72 332.077 62.96 331.357 62.96C330.237 62.96 329.25 62.4 328.397 61.28L328.317 61.2C328.05 60.8267 327.744 60.6267 327.397 60.6C327.05 60.5467 326.73 60.7067 326.437 61.08C326.17 61.32 325.944 61.6133 325.757 61.96C325.597 62.28 325.437 62.6533 325.277 63.08V74.24C325.277 75.3067 325.744 75.9733 326.677 76.24L327.957 76.6V77H317.597ZM342.493 77.6C341.453 77.6 340.493 77.4 339.613 77C338.76 76.6 338.08 75.96 337.573 75.08C337.093 74.1733 336.866 72.9867 336.893 71.52L337.013 61.24C337.013 60.6267 336.906 60.1867 336.693 59.92C336.48 59.6533 336.146 59.4667 335.693 59.36L335.213 59.2V58.8L342.373 57.4L342.773 57.8L342.573 63.48V73.12C342.573 73.9733 342.813 74.6 343.293 75C343.8 75.4 344.426 75.6 345.173 75.6C345.92 75.6 346.586 75.4933 347.173 75.28C347.76 75.0667 348.346 74.7467 348.933 74.32L349.093 61.28C349.093 60.6667 349 60.24 348.813 60C348.626 59.7333 348.28 59.5467 347.773 59.44L347.373 59.32V58.92L354.373 57.4L354.773 57.8L354.653 63.48V74.32C354.653 74.9067 354.733 75.36 354.893 75.68C355.053 76 355.4 76.2667 355.933 76.48L356.333 76.6V77L349.333 77.4L348.973 75.04C348.093 75.76 347.133 76.3733 346.093 76.88C345.08 77.36 343.88 77.6 342.493 77.6ZM357.948 77V76.6L358.508 76.44C359.015 76.3067 359.362 76.08 359.548 75.76C359.762 75.44 359.882 75.0133 359.908 74.48V61.96C359.908 61.3733 359.815 60.9467 359.628 60.68C359.442 60.3867 359.082 60.1867 358.548 60.08L357.948 59.92V59.52L364.788 57.2L365.188 57.6L365.508 60.32C366.388 59.44 367.388 58.6933 368.508 58.08C369.655 57.4667 370.842 57.16 372.068 57.16C373.348 57.16 374.375 57.4267 375.148 57.96C375.922 58.4667 376.508 59.2667 376.908 60.36C377.948 59.3733 379.068 58.6 380.268 58.04C381.495 57.4533 382.682 57.16 383.828 57.16C385.722 57.16 387.108 57.6133 387.988 58.52C388.895 59.4267 389.348 60.8533 389.348 62.8V74.52C389.348 75.56 389.828 76.2133 390.788 76.48L391.228 76.6V77H381.988V76.6L382.388 76.48C382.895 76.32 383.242 76.08 383.428 75.76C383.642 75.44 383.748 75.0133 383.748 74.48V62.24C383.748 61.12 383.548 60.36 383.148 59.96C382.748 59.5333 382.108 59.32 381.228 59.32C380.535 59.32 379.855 59.48 379.188 59.8C378.548 60.0933 377.868 60.5467 377.148 61.16C377.282 61.5867 377.362 62.0533 377.388 62.56C377.442 63.0667 377.468 63.6 377.468 64.16V74.52C377.495 75.56 377.975 76.2133 378.908 76.48L379.268 76.6V77H369.988V76.6L370.548 76.44C371.055 76.28 371.402 76.0533 371.588 75.76C371.802 75.44 371.908 75.0133 371.908 74.48V62.28C371.908 61.2133 371.708 60.4533 371.308 60C370.935 59.5467 370.282 59.32 369.348 59.32C368.735 59.32 368.122 59.48 367.508 59.8C366.895 60.0933 366.255 60.5333 365.588 61.12V74.52C365.588 75.56 366.055 76.2133 366.988 76.48L367.348 76.6V77H357.948Z" fill="black"/>
</svg>
