<svg width="157" height="18" viewBox="0 0 157 18" fill="none" xmlns="http://www.w3.org/2000/svg">
<path d="M0.48 17V16.76L0.96 16.592C1.504 16.416 1.776 15.96 1.776 15.224V2.936C1.776 2.616 1.736 2.36 1.656 2.168C1.592 1.976 1.408 1.816 1.104 1.688L0.48 1.4V1.16H5.112L9.552 12.776L13.728 1.16H18.456V1.4L18.072 1.544C17.768 1.656 17.56 1.816 17.448 2.024C17.336 2.216 17.28 2.472 17.28 2.792V15.344C17.28 15.664 17.32 15.912 17.4 16.088C17.48 16.264 17.672 16.416 17.976 16.544L18.456 16.76V17H12.48V16.76L12.984 16.544C13.288 16.416 13.48 16.264 13.56 16.088C13.64 15.912 13.68 15.664 13.68 15.344V9.944L13.728 3.08L8.712 17H7.512L2.28 3.248L2.352 9.224V15.272C2.352 15.624 2.4 15.912 2.496 16.136C2.608 16.344 2.816 16.496 3.12 16.592L3.648 16.76V17H0.48ZM22.4996 17.36C21.5716 17.36 20.7876 17.096 20.1476 16.568C19.5236 16.04 19.2116 15.28 19.2116 14.288C19.2116 13.536 19.5956 12.848 20.3636 12.224C21.1316 11.584 22.3396 11.104 23.9876 10.784C24.2436 10.736 24.5316 10.688 24.8516 10.64C25.1716 10.576 25.5076 10.512 25.8596 10.448V8.552C25.8596 7.464 25.7236 6.704 25.4516 6.272C25.1956 5.824 24.7876 5.6 24.2276 5.6C23.8436 5.6 23.5396 5.728 23.3156 5.984C23.0916 6.224 22.9476 6.648 22.8836 7.256L22.8356 7.52C22.8036 8.208 22.6356 8.712 22.3316 9.032C22.0276 9.352 21.6516 9.512 21.2036 9.512C20.7876 9.512 20.4436 9.384 20.1716 9.128C19.8996 8.872 19.7636 8.528 19.7636 8.096C19.7636 7.44 19.9876 6.888 20.4356 6.44C20.8996 5.992 21.5076 5.656 22.2596 5.432C23.0116 5.208 23.8276 5.096 24.7076 5.096C26.1316 5.096 27.2276 5.448 27.9956 6.152C28.7796 6.84 29.1716 7.968 29.1716 9.536V14.84C29.1716 15.56 29.5076 15.92 30.1796 15.92H30.7076L30.9236 16.112C30.6196 16.496 30.2836 16.792 29.9156 17C29.5636 17.208 29.0596 17.312 28.4036 17.312C27.6996 17.312 27.1396 17.152 26.7236 16.832C26.3236 16.496 26.0596 16.056 25.9316 15.512C25.4516 16.024 24.9556 16.464 24.4436 16.832C23.9476 17.184 23.2996 17.36 22.4996 17.36ZM23.9636 15.896C24.2836 15.896 24.5796 15.824 24.8516 15.68C25.1396 15.52 25.4756 15.28 25.8596 14.96V10.928C25.6996 10.96 25.5396 10.992 25.3796 11.024C25.2196 11.056 25.0356 11.088 24.8276 11.12C24.0916 11.312 23.4996 11.64 23.0516 12.104C22.6196 12.552 22.4036 13.16 22.4036 13.928C22.4036 14.584 22.5556 15.08 22.8596 15.416C23.1636 15.736 23.5316 15.896 23.9636 15.896ZM31.4895 17V16.616L38.0415 5.936H34.4175C34.0015 5.936 33.6735 6.048 33.4335 6.272C33.1935 6.496 32.9695 6.792 32.7615 7.16L31.8975 8.768H31.6575L31.8255 5.456H41.4255V5.792L35.0175 16.52H38.7855C39.2975 16.52 39.6735 16.4 39.9135 16.16C40.1535 15.92 40.3775 15.592 40.5855 15.176L41.4255 13.4H41.6655L41.4495 17H31.4895ZM45.4538 3.848C44.9098 3.848 44.4458 3.68 44.0618 3.344C43.6938 2.992 43.5098 2.552 43.5098 2.024C43.5098 1.48 43.6938 1.04 44.0618 0.704C44.4458 0.367999 44.9098 0.199999 45.4538 0.199999C45.9978 0.199999 46.4538 0.367999 46.8218 0.704C47.1898 1.04 47.3738 1.48 47.3738 2.024C47.3738 2.552 47.1898 2.992 46.8218 3.344C46.4538 3.68 45.9978 3.848 45.4538 3.848ZM42.6218 17V16.76L42.9578 16.664C43.2778 16.568 43.4938 16.424 43.6058 16.232C43.7338 16.04 43.7978 15.784 43.7978 15.464V7.952C43.7978 7.616 43.7338 7.368 43.6058 7.208C43.4938 7.032 43.2778 6.912 42.9578 6.848L42.6218 6.776V6.536L47.0138 5.12L47.2538 5.36L47.1818 8.768V15.488C47.1818 15.808 47.2378 16.064 47.3498 16.256C47.4778 16.448 47.6938 16.592 47.9978 16.688L48.2378 16.76V17H42.6218ZM49.3003 17V16.76L49.6363 16.664C49.9403 16.584 50.1483 16.448 50.2603 16.256C50.3883 16.064 50.4603 15.808 50.4763 15.488V7.976C50.4763 7.624 50.4203 7.368 50.3083 7.208C50.1963 7.032 49.9803 6.912 49.6603 6.848L49.3003 6.752V6.512L53.4043 5.12L53.6443 5.36L53.8363 6.992C54.3643 6.464 54.9643 6.016 55.6363 5.648C56.3243 5.28 57.0363 5.096 57.7723 5.096C58.5403 5.096 59.1563 5.256 59.6203 5.576C60.0843 5.88 60.4363 6.36 60.6763 7.016C61.3003 6.424 61.9723 5.96 62.6923 5.624C63.4283 5.272 64.1403 5.096 64.8283 5.096C65.9643 5.096 66.7963 5.368 67.3243 5.912C67.8683 6.456 68.1403 7.312 68.1403 8.48V15.512C68.1403 16.136 68.4283 16.528 69.0043 16.688L69.2683 16.76V17H63.7243V16.76L63.9643 16.688C64.2683 16.592 64.4763 16.448 64.5883 16.256C64.7163 16.064 64.7803 15.808 64.7803 15.488V8.144C64.7803 7.472 64.6603 7.016 64.4203 6.776C64.1803 6.52 63.7963 6.392 63.2683 6.392C62.8523 6.392 62.4443 6.488 62.0443 6.68C61.6603 6.856 61.2523 7.128 60.8203 7.496C60.9003 7.752 60.9483 8.032 60.9643 8.336C60.9963 8.64 61.0123 8.96 61.0123 9.296V15.512C61.0283 16.136 61.3163 16.528 61.8763 16.688L62.0923 16.76V17H56.5243V16.76L56.8603 16.664C57.1643 16.568 57.3723 16.432 57.4843 16.256C57.6123 16.064 57.6763 15.808 57.6763 15.488V8.168C57.6763 7.528 57.5563 7.072 57.3163 6.8C57.0923 6.528 56.7003 6.392 56.1403 6.392C55.7723 6.392 55.4043 6.488 55.0363 6.68C54.6683 6.856 54.2843 7.12 53.8843 7.472V15.512C53.8843 16.136 54.1643 16.528 54.7243 16.688L54.9403 16.76V17H49.3003ZM75.4331 17V16.76L75.7691 16.664C76.3291 16.504 76.6091 16.112 76.6091 15.488V7.976C76.6091 7.624 76.5531 7.368 76.4411 7.208C76.3291 7.032 76.1131 6.912 75.7931 6.848L75.4331 6.752V6.512L79.5371 5.12L79.7771 5.36L79.9691 6.8C80.5291 6.304 81.1611 5.896 81.8651 5.576C82.5691 5.256 83.2651 5.096 83.9531 5.096C85.0091 5.096 85.8171 5.384 86.3771 5.96C86.9531 6.536 87.2411 7.416 87.2411 8.6V15.512C87.2411 16.136 87.5451 16.528 88.1531 16.688L88.3691 16.76V17H82.7051V16.76L83.0171 16.664C83.5771 16.488 83.8571 16.096 83.8571 15.488V7.832C83.8571 6.808 83.3451 6.296 82.3211 6.296C81.6171 6.296 80.8491 6.648 80.0171 7.352V15.512C80.0171 16.136 80.2971 16.528 80.8571 16.688L81.0731 16.76V17H75.4331ZM95.3321 5.096C96.3721 5.096 97.2601 5.312 97.9961 5.744C98.7321 6.16 99.2921 6.736 99.6761 7.472C100.076 8.192 100.276 9.016 100.276 9.944C100.276 10.12 100.268 10.304 100.252 10.496C100.236 10.672 100.204 10.832 100.156 10.976H93.0041C93.0201 12.704 93.3241 13.952 93.9161 14.72C94.5241 15.472 95.4201 15.848 96.6041 15.848C97.4041 15.848 98.0521 15.72 98.5481 15.464C99.0441 15.208 99.5081 14.832 99.9401 14.336L100.18 14.552C99.6841 15.432 99.0201 16.12 98.1881 16.616C97.3721 17.112 96.3881 17.36 95.2361 17.36C94.1001 17.36 93.0921 17.12 92.2121 16.64C91.3321 16.144 90.6441 15.44 90.1481 14.528C89.6521 13.616 89.4041 12.528 89.4041 11.264C89.4041 9.952 89.6921 8.84 90.2681 7.928C90.8441 7 91.5801 6.296 92.4761 5.816C93.3881 5.336 94.3401 5.096 95.3321 5.096ZM95.2601 5.576C94.7961 5.576 94.3961 5.72 94.0601 6.008C93.7401 6.28 93.4841 6.776 93.2921 7.496C93.1161 8.2 93.0201 9.2 93.0041 10.496H97.1081C97.2681 8.752 97.2041 7.496 96.9161 6.728C96.6281 5.96 96.0761 5.576 95.2601 5.576ZM101.472 17V16.76L101.808 16.664C102.112 16.584 102.32 16.448 102.432 16.256C102.56 16.064 102.632 15.808 102.648 15.488V7.976C102.648 7.624 102.592 7.368 102.48 7.208C102.368 7.032 102.152 6.912 101.832 6.848L101.472 6.752V6.512L105.576 5.12L105.816 5.36L106.008 6.992C106.536 6.464 107.136 6.016 107.808 5.648C108.496 5.28 109.208 5.096 109.944 5.096C110.712 5.096 111.328 5.256 111.792 5.576C112.256 5.88 112.608 6.36 112.848 7.016C113.472 6.424 114.144 5.96 114.864 5.624C115.6 5.272 116.312 5.096 117 5.096C118.136 5.096 118.968 5.368 119.496 5.912C120.04 6.456 120.312 7.312 120.312 8.48V15.512C120.312 16.136 120.6 16.528 121.176 16.688L121.44 16.76V17H115.896V16.76L116.136 16.688C116.44 16.592 116.648 16.448 116.76 16.256C116.888 16.064 116.952 15.808 116.952 15.488V8.144C116.952 7.472 116.832 7.016 116.592 6.776C116.352 6.52 115.968 6.392 115.44 6.392C115.024 6.392 114.616 6.488 114.216 6.68C113.832 6.856 113.424 7.128 112.992 7.496C113.072 7.752 113.12 8.032 113.136 8.336C113.168 8.64 113.184 8.96 113.184 9.296V15.512C113.2 16.136 113.488 16.528 114.048 16.688L114.264 16.76V17H108.696V16.76L109.032 16.664C109.336 16.568 109.544 16.432 109.656 16.256C109.784 16.064 109.848 15.808 109.848 15.488V8.168C109.848 7.528 109.728 7.072 109.488 6.8C109.264 6.528 108.872 6.392 108.312 6.392C107.944 6.392 107.576 6.488 107.208 6.68C106.84 6.856 106.456 7.12 106.056 7.472V15.512C106.056 16.136 106.336 16.528 106.896 16.688L107.112 16.76V17H101.472ZM128.45 17.36C127.234 17.36 126.178 17.112 125.282 16.616C124.386 16.104 123.69 15.384 123.194 14.456C122.714 13.528 122.474 12.44 122.474 11.192C122.474 9.944 122.73 8.864 123.242 7.952C123.77 7.04 124.482 6.336 125.378 5.84C126.29 5.344 127.314 5.096 128.45 5.096C129.586 5.096 130.602 5.344 131.498 5.84C132.394 6.32 133.098 7.016 133.61 7.928C134.138 8.84 134.402 9.928 134.402 11.192C134.402 12.456 134.154 13.552 133.658 14.48C133.178 15.392 132.49 16.104 131.594 16.616C130.714 17.112 129.666 17.36 128.45 17.36ZM128.45 16.88C129.01 16.88 129.458 16.72 129.794 16.4C130.13 16.08 130.37 15.512 130.514 14.696C130.674 13.88 130.754 12.728 130.754 11.24C130.754 9.736 130.674 8.576 130.514 7.76C130.37 6.944 130.13 6.376 129.794 6.056C129.458 5.736 129.01 5.576 128.45 5.576C127.89 5.576 127.434 5.736 127.082 6.056C126.746 6.376 126.498 6.944 126.338 7.76C126.194 8.576 126.122 9.736 126.122 11.24C126.122 12.728 126.194 13.88 126.338 14.696C126.498 15.512 126.746 16.08 127.082 16.4C127.434 16.72 127.89 16.88 128.45 16.88ZM135.457 17V16.76L135.817 16.664C136.137 16.568 136.353 16.424 136.465 16.232C136.593 16.04 136.657 15.792 136.657 15.488V7.976C136.657 7.624 136.593 7.368 136.465 7.208C136.353 7.032 136.137 6.912 135.817 6.848L135.457 6.752V6.512L139.585 5.12L139.825 5.36L140.041 7.424V7.616C140.265 7.168 140.553 6.76 140.905 6.392C141.273 6.008 141.673 5.696 142.105 5.456C142.553 5.216 142.993 5.096 143.425 5.096C144.033 5.096 144.497 5.264 144.817 5.6C145.137 5.936 145.297 6.36 145.297 6.872C145.297 7.416 145.137 7.84 144.817 8.144C144.513 8.432 144.145 8.576 143.713 8.576C143.041 8.576 142.449 8.24 141.937 7.568L141.889 7.52C141.729 7.296 141.545 7.176 141.337 7.16C141.129 7.128 140.937 7.224 140.761 7.448C140.601 7.592 140.465 7.768 140.353 7.976C140.257 8.168 140.161 8.392 140.065 8.648V15.344C140.065 15.984 140.345 16.384 140.905 16.544L141.673 16.76V17H135.457ZM151.699 5.096C152.739 5.096 153.627 5.312 154.363 5.744C155.099 6.16 155.659 6.736 156.043 7.472C156.443 8.192 156.643 9.016 156.643 9.944C156.643 10.12 156.635 10.304 156.619 10.496C156.603 10.672 156.571 10.832 156.523 10.976H149.371C149.387 12.704 149.691 13.952 150.283 14.72C150.891 15.472 151.787 15.848 152.971 15.848C153.771 15.848 154.419 15.72 154.915 15.464C155.411 15.208 155.875 14.832 156.307 14.336L156.547 14.552C156.051 15.432 155.387 16.12 154.555 16.616C153.739 17.112 152.755 17.36 151.603 17.36C150.467 17.36 149.459 17.12 148.579 16.64C147.699 16.144 147.011 15.44 146.515 14.528C146.019 13.616 145.771 12.528 145.771 11.264C145.771 9.952 146.059 8.84 146.635 7.928C147.211 7 147.947 6.296 148.843 5.816C149.755 5.336 150.707 5.096 151.699 5.096ZM151.627 5.576C151.163 5.576 150.763 5.72 150.427 6.008C150.107 6.28 149.851 6.776 149.659 7.496C149.483 8.2 149.387 9.2 149.371 10.496H153.475C153.635 8.752 153.571 7.496 153.283 6.728C152.995 5.96 152.443 5.576 151.627 5.576Z" fill="black"/>
</svg>
