<svg width="61" height="18" viewBox="0 0 61 18" fill="none" xmlns="http://www.w3.org/2000/svg">
<path d="M0.528 17V16.76L1.032 16.568C1.368 16.44 1.576 16.288 1.656 16.112C1.752 15.92 1.8 15.664 1.8 15.344V2.816C1.8 2.496 1.752 2.24 1.656 2.048C1.56 1.856 1.352 1.704 1.032 1.592L0.528 1.4V1.16H6.648V1.4L6.216 1.592C5.912 1.704 5.704 1.864 5.592 2.072C5.48 2.264 5.424 2.52 5.424 2.84V16.52H9.12C9.712 16.52 10.144 16.376 10.416 16.088C10.704 15.8 10.976 15.384 11.232 14.84L12.168 12.824H12.408L12.192 17H0.528ZM20.6728 17.432C19.6968 17.432 18.7528 17.256 17.8408 16.904C16.9448 16.552 16.1368 16.032 15.4168 15.344C14.7128 14.64 14.1528 13.768 13.7368 12.728C13.3208 11.688 13.1128 10.472 13.1128 9.08C13.1128 7.704 13.3208 6.496 13.7368 5.456C14.1528 4.416 14.7208 3.552 15.4408 2.864C16.1608 2.16 16.9688 1.632 17.8648 1.28C18.7768 0.911999 19.7128 0.727999 20.6728 0.727999C21.6488 0.727999 22.5848 0.903999 23.4808 1.256C24.3928 1.592 25.2008 2.112 25.9048 2.816C26.6248 3.504 27.1928 4.376 27.6088 5.432C28.0248 6.472 28.2328 7.688 28.2328 9.08C28.2328 10.44 28.0248 11.648 27.6088 12.704C27.1928 13.744 26.6248 14.616 25.9048 15.32C25.2008 16.008 24.3928 16.536 23.4808 16.904C22.5848 17.256 21.6488 17.432 20.6728 17.432ZM20.6728 16.928C21.5528 16.928 22.2648 16.696 22.8088 16.232C23.3528 15.752 23.7448 14.944 23.9848 13.808C24.2408 12.656 24.3688 11.08 24.3688 9.08C24.3688 7.064 24.2408 5.488 23.9848 4.352C23.7448 3.2 23.3528 2.392 22.8088 1.928C22.2648 1.448 21.5528 1.208 20.6728 1.208C19.8088 1.208 19.1048 1.448 18.5608 1.928C18.0168 2.392 17.6168 3.2 17.3608 4.352C17.1208 5.488 17.0008 7.064 17.0008 9.08C17.0008 11.08 17.1208 12.656 17.3608 13.808C17.6168 14.944 18.0168 15.752 18.5608 16.232C19.1048 16.696 19.8088 16.928 20.6728 16.928ZM37.8219 17.432C36.1899 17.432 34.7499 17.096 33.5019 16.424C32.2699 15.736 31.3019 14.768 30.5979 13.52C29.9099 12.256 29.5659 10.768 29.5659 9.056C29.5659 7.392 29.9099 5.936 30.5979 4.688C31.2859 3.44 32.2779 2.472 33.5739 1.784C34.8859 1.08 36.4699 0.727999 38.3259 0.727999C39.1739 0.727999 39.9579 0.823999 40.6779 1.016C41.4139 1.208 42.1099 1.488 42.7659 1.856L42.8619 5.216H42.6219L41.2779 2.72C41.0699 2.32 40.8779 2.032 40.7019 1.856C40.5259 1.68 40.3019 1.544 40.0299 1.448C39.7739 1.368 39.5339 1.312 39.3099 1.28C39.1019 1.232 38.8219 1.208 38.4699 1.208C37.4779 1.208 36.5979 1.472 35.8299 2C35.0779 2.528 34.4939 3.368 34.0779 4.52C33.6619 5.672 33.4539 7.184 33.4539 9.056C33.4539 10.912 33.6459 12.424 34.0299 13.592C34.4299 14.76 34.9899 15.616 35.7099 16.16C36.4299 16.688 37.2619 16.952 38.2059 16.952C38.3499 16.952 38.4859 16.944 38.6139 16.928C38.7579 16.896 38.8939 16.864 39.0219 16.832C39.3259 16.784 39.5259 16.656 39.6219 16.448C39.7179 16.24 39.7659 15.992 39.7659 15.704V10.952C39.7659 10.328 39.4459 9.944 38.8059 9.8L37.7019 9.512V9.272H44.4699V9.512L44.1339 9.608C43.5259 9.8 43.2219 10.2 43.2219 10.808V16.016C42.3899 16.48 41.5419 16.832 40.6779 17.072C39.8299 17.312 38.8779 17.432 37.8219 17.432ZM53.1103 17.432C52.1343 17.432 51.1903 17.256 50.2783 16.904C49.3823 16.552 48.5743 16.032 47.8543 15.344C47.1503 14.64 46.5903 13.768 46.1743 12.728C45.7583 11.688 45.5503 10.472 45.5503 9.08C45.5503 7.704 45.7583 6.496 46.1743 5.456C46.5903 4.416 47.1583 3.552 47.8783 2.864C48.5983 2.16 49.4063 1.632 50.3023 1.28C51.2143 0.911999 52.1503 0.727999 53.1103 0.727999C54.0863 0.727999 55.0223 0.903999 55.9183 1.256C56.8303 1.592 57.6383 2.112 58.3423 2.816C59.0623 3.504 59.6303 4.376 60.0463 5.432C60.4623 6.472 60.6703 7.688 60.6703 9.08C60.6703 10.44 60.4623 11.648 60.0463 12.704C59.6303 13.744 59.0623 14.616 58.3423 15.32C57.6383 16.008 56.8303 16.536 55.9183 16.904C55.0223 17.256 54.0863 17.432 53.1103 17.432ZM53.1103 16.928C53.9903 16.928 54.7023 16.696 55.2463 16.232C55.7903 15.752 56.1823 14.944 56.4223 13.808C56.6783 12.656 56.8063 11.08 56.8063 9.08C56.8063 7.064 56.6783 5.488 56.4223 4.352C56.1823 3.2 55.7903 2.392 55.2463 1.928C54.7023 1.448 53.9903 1.208 53.1103 1.208C52.2463 1.208 51.5423 1.448 50.9983 1.928C50.4543 2.392 50.0543 3.2 49.7983 4.352C49.5583 5.488 49.4383 7.064 49.4383 9.08C49.4383 11.08 49.5583 12.656 49.7983 13.808C50.0543 14.944 50.4543 15.752 50.9983 16.232C51.5423 16.696 52.2463 16.928 53.1103 16.928Z" fill="black"/>
</svg>
