<svg width="263" height="64" viewBox="0 0 263 64" fill="none" xmlns="http://www.w3.org/2000/svg">
<path d="M1.184 12V0.799999H4.864C5.73867 0.799999 6.45867 0.943999 7.024 1.232C7.58933 1.52 8.00533 1.90933 8.272 2.4C8.54933 2.89067 8.688 3.44533 8.688 4.064C8.688 4.672 8.55467 5.22133 8.288 5.712C8.02133 6.20267 7.60533 6.59733 7.04 6.896C6.47467 7.184 5.74933 7.328 4.864 7.328H2.528V12H1.184ZM2.528 6.192H4.832C5.728 6.192 6.36267 6.00533 6.736 5.632C7.12 5.248 7.312 4.72533 7.312 4.064C7.312 3.392 7.12 2.86933 6.736 2.496C6.36267 2.112 5.728 1.92 4.832 1.92H2.528V6.192ZM10.3696 12V4.064H11.5856L11.6976 5.584C11.943 5.06133 12.3163 4.64533 12.8176 4.336C13.319 4.02667 13.9376 3.872 14.6736 3.872V5.28H14.3056C13.8363 5.28 13.4043 5.36533 13.0096 5.536C12.615 5.696 12.3003 5.97333 12.0656 6.368C11.831 6.76267 11.7136 7.30667 11.7136 8V12H10.3696ZM19.5013 12.192C18.7546 12.192 18.0826 12.0213 17.4853 11.68C16.8879 11.3387 16.4133 10.8587 16.0613 10.24C15.7199 9.61067 15.5493 8.87467 15.5493 8.032C15.5493 7.18933 15.7253 6.45867 16.0773 5.84C16.4293 5.21067 16.9039 4.72533 17.5013 4.384C18.1093 4.04267 18.7866 3.872 19.5333 3.872C20.2799 3.872 20.9519 4.04267 21.5493 4.384C22.1466 4.72533 22.6159 5.21067 22.9573 5.84C23.3093 6.45867 23.4853 7.18933 23.4853 8.032C23.4853 8.87467 23.3093 9.61067 22.9573 10.24C22.6053 10.8587 22.1253 11.3387 21.5173 11.68C20.9199 12.0213 20.2479 12.192 19.5013 12.192ZM19.5013 11.04C19.9599 11.04 20.3866 10.928 20.7813 10.704C21.1759 10.48 21.4959 10.144 21.7413 9.696C21.9866 9.248 22.1093 8.69333 22.1093 8.032C22.1093 7.37067 21.9866 6.816 21.7413 6.368C21.5066 5.92 21.1919 5.584 20.7973 5.36C20.4026 5.136 19.9813 5.024 19.5333 5.024C19.0746 5.024 18.6479 5.136 18.2533 5.36C17.8586 5.584 17.5386 5.92 17.2933 6.368C17.0479 6.816 16.9253 7.37067 16.9253 8.032C16.9253 8.69333 17.0479 9.248 17.2933 9.696C17.5386 10.144 17.8533 10.48 18.2373 10.704C18.6319 10.928 19.0533 11.04 19.5013 11.04ZM33.1564 12.192C32.399 12.192 31.727 12.0213 31.1404 11.68C30.5537 11.328 30.0897 10.8427 29.7484 10.224C29.4177 9.60533 29.2524 8.87467 29.2524 8.032C29.2524 7.2 29.4177 6.47467 29.7484 5.856C30.079 5.22667 30.5377 4.74133 31.1244 4.4C31.7217 4.048 32.4097 3.872 33.1884 3.872C33.9564 3.872 34.6177 4.048 35.1724 4.4C35.7377 4.74133 36.1697 5.19467 36.4684 5.76C36.767 6.32533 36.9164 6.93333 36.9164 7.584C36.9164 7.70133 36.911 7.81867 36.9004 7.936C36.9004 8.05333 36.9004 8.18667 36.9004 8.336H30.5804C30.6124 8.944 30.751 9.45067 30.9964 9.856C31.2524 10.2507 31.567 10.5493 31.9404 10.752C32.3244 10.9547 32.7297 11.056 33.1564 11.056C33.711 11.056 34.175 10.928 34.5484 10.672C34.9217 10.416 35.1937 10.0693 35.3644 9.632H36.6924C36.479 10.368 36.0684 10.9813 35.4604 11.472C34.863 11.952 34.095 12.192 33.1564 12.192ZM33.1564 5.008C32.5164 5.008 31.9457 5.20533 31.4444 5.6C30.9537 5.984 30.671 6.54933 30.5964 7.296H35.5884C35.5564 6.58133 35.311 6.02133 34.8524 5.616C34.3937 5.21067 33.8284 5.008 33.1564 5.008ZM45.6418 4.064V12H44.4258L44.3458 10.576C44.0898 11.0773 43.7218 11.472 43.2418 11.76C42.7618 12.048 42.2178 12.192 41.6098 12.192C40.6711 12.192 39.9191 11.9093 39.3538 11.344C38.7991 10.768 38.5218 9.888 38.5218 8.704V4.064H39.8658V8.56C39.8658 10.2133 40.5484 11.04 41.9138 11.04C42.5964 11.04 43.1618 10.7947 43.6098 10.304C44.0684 9.80267 44.2978 9.09333 44.2978 8.176V4.064H45.6418ZM54.7284 12.192C54.067 12.192 53.5177 12.08 53.0804 11.856C52.643 11.632 52.3177 11.3333 52.1044 10.96C51.891 10.5867 51.7844 10.1813 51.7844 9.744C51.7844 8.93333 52.0937 8.30933 52.7124 7.872C53.331 7.43467 54.1737 7.216 55.2404 7.216H57.3844V7.12C57.3844 6.42667 57.203 5.904 56.8404 5.552C56.4777 5.18933 55.9924 5.008 55.3844 5.008C54.8617 5.008 54.4084 5.14133 54.0244 5.408C53.651 5.664 53.4164 6.04267 53.3204 6.544H51.9444C51.9977 5.968 52.1897 5.48267 52.5204 5.088C52.8617 4.69333 53.283 4.39467 53.7844 4.192C54.2857 3.97867 54.819 3.872 55.3844 3.872C56.4937 3.872 57.3257 4.17067 57.8804 4.768C58.4457 5.35467 58.7284 6.13867 58.7284 7.12V12H57.5284L57.4484 10.576C57.2244 11.024 56.8937 11.408 56.4564 11.728C56.0297 12.0373 55.4537 12.192 54.7284 12.192ZM54.9364 11.056C55.4484 11.056 55.8857 10.9227 56.2484 10.656C56.6217 10.3893 56.9044 10.0427 57.0964 9.616C57.2884 9.18933 57.3844 8.74133 57.3844 8.272V8.256H55.3524C54.563 8.256 54.003 8.39467 53.6724 8.672C53.3524 8.93867 53.1924 9.27467 53.1924 9.68C53.1924 10.096 53.3417 10.432 53.6404 10.688C53.9497 10.9333 54.3817 11.056 54.9364 11.056ZM60.7446 15.52V4.064H61.9606L62.0886 5.376C62.3446 4.992 62.7073 4.64533 63.1766 4.336C63.6566 4.02667 64.2646 3.872 65.0006 3.872C65.79 3.872 66.478 4.05333 67.0646 4.416C67.6513 4.77867 68.1046 5.27467 68.4246 5.904C68.7553 6.53333 68.9206 7.248 68.9206 8.048C68.9206 8.848 68.7553 9.56267 68.4246 10.192C68.1046 10.8107 67.646 11.3013 67.0486 11.664C66.462 12.016 65.774 12.192 64.9846 12.192C64.334 12.192 63.7526 12.0587 63.2406 11.792C62.7393 11.5253 62.3553 11.152 62.0886 10.672V15.52H60.7446ZM64.8406 11.024C65.374 11.024 65.8433 10.9013 66.2486 10.656C66.654 10.4 66.974 10.048 67.2086 9.6C67.4433 9.152 67.5606 8.62933 67.5606 8.032C67.5606 7.43467 67.4433 6.912 67.2086 6.464C66.974 6.016 66.654 5.66933 66.2486 5.424C65.8433 5.168 65.374 5.04 64.8406 5.04C64.3073 5.04 63.838 5.168 63.4326 5.424C63.0273 5.66933 62.7073 6.016 62.4726 6.464C62.238 6.912 62.1206 7.43467 62.1206 8.032C62.1206 8.62933 62.238 9.152 62.4726 9.6C62.7073 10.048 63.0273 10.4 63.4326 10.656C63.838 10.9013 64.3073 11.024 64.8406 11.024ZM74.3595 12.192C73.6022 12.192 72.9302 12.0213 72.3435 11.68C71.7568 11.328 71.2928 10.8427 70.9515 10.224C70.6208 9.60533 70.4555 8.87467 70.4555 8.032C70.4555 7.2 70.6208 6.47467 70.9515 5.856C71.2822 5.22667 71.7408 4.74133 72.3275 4.4C72.9248 4.048 73.6128 3.872 74.3915 3.872C75.1595 3.872 75.8208 4.048 76.3755 4.4C76.9408 4.74133 77.3728 5.19467 77.6715 5.76C77.9702 6.32533 78.1195 6.93333 78.1195 7.584C78.1195 7.70133 78.1142 7.81867 78.1035 7.936C78.1035 8.05333 78.1035 8.18667 78.1035 8.336H71.7835C71.8155 8.944 71.9542 9.45067 72.1995 9.856C72.4555 10.2507 72.7702 10.5493 73.1435 10.752C73.5275 10.9547 73.9328 11.056 74.3595 11.056C74.9142 11.056 75.3782 10.928 75.7515 10.672C76.1248 10.416 76.3968 10.0693 76.5675 9.632H77.8955C77.6822 10.368 77.2715 10.9813 76.6635 11.472C76.0662 11.952 75.2982 12.192 74.3595 12.192ZM74.3595 5.008C73.7195 5.008 73.1488 5.20533 72.6475 5.6C72.1568 5.984 71.8742 6.54933 71.7995 7.296H76.7915C76.7595 6.58133 76.5142 6.02133 76.0555 5.616C75.5968 5.21067 75.0315 5.008 74.3595 5.008ZM80.7169 2.304C80.4502 2.304 80.2262 2.21867 80.0449 2.048C79.8742 1.86667 79.7889 1.64267 79.7889 1.376C79.7889 1.12 79.8742 0.906666 80.0449 0.735999C80.2262 0.565333 80.4502 0.48 80.7169 0.48C80.9729 0.48 81.1915 0.565333 81.3729 0.735999C81.5542 0.906666 81.6449 1.12 81.6449 1.376C81.6449 1.64267 81.5542 1.86667 81.3729 2.048C81.1915 2.21867 80.9729 2.304 80.7169 2.304ZM80.0449 12V4.064H81.3889V12H80.0449ZM83.729 12V4.064H84.945L85.057 5.584C85.3023 5.06133 85.6757 4.64533 86.177 4.336C86.6783 4.02667 87.297 3.872 88.033 3.872V5.28H87.665C87.1957 5.28 86.7637 5.36533 86.369 5.536C85.9743 5.696 85.6597 5.97333 85.425 6.368C85.1903 6.76267 85.073 7.30667 85.073 8V12H83.729ZM90.3575 2.304C90.0908 2.304 89.8668 2.21867 89.6855 2.048C89.5148 1.86667 89.4295 1.64267 89.4295 1.376C89.4295 1.12 89.5148 0.906666 89.6855 0.735999C89.8668 0.565333 90.0908 0.48 90.3575 0.48C90.6135 0.48 90.8322 0.565333 91.0135 0.735999C91.1948 0.906666 91.2855 1.12 91.2855 1.376C91.2855 1.64267 91.1948 1.86667 91.0135 2.048C90.8322 2.21867 90.6135 2.304 90.3575 2.304ZM89.6855 12V4.064H91.0295V12H89.6855ZM96.0096 12.192C95.3483 12.192 94.799 12.08 94.3616 11.856C93.9243 11.632 93.599 11.3333 93.3856 10.96C93.1723 10.5867 93.0656 10.1813 93.0656 9.744C93.0656 8.93333 93.375 8.30933 93.9936 7.872C94.6123 7.43467 95.455 7.216 96.5216 7.216H98.6656V7.12C98.6656 6.42667 98.4843 5.904 98.1216 5.552C97.759 5.18933 97.2736 5.008 96.6656 5.008C96.143 5.008 95.6896 5.14133 95.3056 5.408C94.9323 5.664 94.6976 6.04267 94.6016 6.544H93.2256C93.279 5.968 93.471 5.48267 93.8016 5.088C94.143 4.69333 94.5643 4.39467 95.0656 4.192C95.567 3.97867 96.1003 3.872 96.6656 3.872C97.775 3.872 98.607 4.17067 99.1616 4.768C99.727 5.35467 100.01 6.13867 100.01 7.12V12H98.8096L98.7296 10.576C98.5056 11.024 98.175 11.408 97.7376 11.728C97.311 12.0373 96.735 12.192 96.0096 12.192ZM96.2176 11.056C96.7296 11.056 97.167 10.9227 97.5296 10.656C97.903 10.3893 98.1856 10.0427 98.3776 9.616C98.5696 9.18933 98.6656 8.74133 98.6656 8.272V8.256H96.6336C95.8443 8.256 95.2843 8.39467 94.9536 8.672C94.6336 8.93867 94.4736 9.27467 94.4736 9.68C94.4736 10.096 94.623 10.432 94.9216 10.688C95.231 10.9333 95.663 11.056 96.2176 11.056ZM102.026 12V4.064H103.242L103.322 5.488C103.578 4.98667 103.946 4.592 104.426 4.304C104.906 4.016 105.45 3.872 106.058 3.872C106.997 3.872 107.743 4.16 108.298 4.736C108.863 5.30133 109.146 6.176 109.146 7.36V12H107.802V7.504C107.802 5.85067 107.119 5.024 105.754 5.024C105.071 5.024 104.501 5.27467 104.042 5.776C103.594 6.26667 103.37 6.97067 103.37 7.888V12H102.026ZM118.457 12.192C117.507 12.192 116.718 11.952 116.089 11.472C115.459 10.992 115.091 10.3413 114.985 9.52H116.361C116.446 9.936 116.665 10.2987 117.017 10.608C117.379 10.9067 117.865 11.056 118.473 11.056C119.038 11.056 119.454 10.9387 119.721 10.704C119.987 10.4587 120.121 10.1707 120.121 9.84C120.121 9.36 119.945 9.04 119.593 8.88C119.251 8.72 118.766 8.576 118.137 8.448C117.71 8.36267 117.283 8.24 116.857 8.08C116.43 7.92 116.073 7.696 115.785 7.408C115.497 7.10933 115.353 6.72 115.353 6.24C115.353 5.54667 115.609 4.98133 116.121 4.544C116.643 4.096 117.347 3.872 118.233 3.872C119.075 3.872 119.763 4.08533 120.297 4.512C120.841 4.928 121.155 5.52533 121.241 6.304H119.913C119.859 5.89867 119.683 5.584 119.385 5.36C119.097 5.12533 118.707 5.008 118.217 5.008C117.737 5.008 117.363 5.10933 117.097 5.312C116.841 5.51467 116.713 5.78133 116.713 6.112C116.713 6.432 116.878 6.68267 117.209 6.864C117.55 7.04533 118.009 7.2 118.585 7.328C119.075 7.43467 119.539 7.568 119.977 7.728C120.425 7.87733 120.787 8.10667 121.065 8.416C121.353 8.71467 121.497 9.152 121.497 9.728C121.507 10.4427 121.235 11.0347 120.681 11.504C120.137 11.9627 119.395 12.192 118.457 12.192ZM130.361 4.064V12H129.145L129.065 10.576C128.809 11.0773 128.441 11.472 127.961 11.76C127.481 12.048 126.937 12.192 126.329 12.192C125.39 12.192 124.638 11.9093 124.073 11.344C123.518 10.768 123.241 9.888 123.241 8.704V4.064H124.585V8.56C124.585 10.2133 125.267 11.04 126.633 11.04C127.315 11.04 127.881 10.7947 128.329 10.304C128.787 9.80267 129.017 9.09333 129.017 8.176V4.064H130.361ZM135.213 12.192C134.551 12.192 134.002 12.08 133.565 11.856C133.127 11.632 132.802 11.3333 132.589 10.96C132.375 10.5867 132.269 10.1813 132.269 9.744C132.269 8.93333 132.578 8.30933 133.197 7.872C133.815 7.43467 134.658 7.216 135.725 7.216H137.869V7.12C137.869 6.42667 137.687 5.904 137.325 5.552C136.962 5.18933 136.477 5.008 135.869 5.008C135.346 5.008 134.893 5.14133 134.509 5.408C134.135 5.664 133.901 6.04267 133.805 6.544H132.429C132.482 5.968 132.674 5.48267 133.005 5.088C133.346 4.69333 133.767 4.39467 134.269 4.192C134.77 3.97867 135.303 3.872 135.869 3.872C136.978 3.872 137.81 4.17067 138.365 4.768C138.93 5.35467 139.213 6.13867 139.213 7.12V12H138.013L137.933 10.576C137.709 11.024 137.378 11.408 136.941 11.728C136.514 12.0373 135.938 12.192 135.213 12.192ZM135.421 11.056C135.933 11.056 136.37 10.9227 136.733 10.656C137.106 10.3893 137.389 10.0427 137.581 9.616C137.773 9.18933 137.869 8.74133 137.869 8.272V8.256H135.837C135.047 8.256 134.487 8.39467 134.157 8.672C133.837 8.93867 133.677 9.27467 133.677 9.68C133.677 10.096 133.826 10.432 134.125 10.688C134.434 10.9333 134.866 11.056 135.421 11.056ZM143.22 12L140.212 4.064H141.62L144.004 10.704L146.404 4.064H147.78L144.772 12H143.22ZM150.092 2.304C149.825 2.304 149.601 2.21867 149.42 2.048C149.249 1.86667 149.164 1.64267 149.164 1.376C149.164 1.12 149.249 0.906666 149.42 0.735999C149.601 0.565333 149.825 0.48 150.092 0.48C150.348 0.48 150.567 0.565333 150.748 0.735999C150.929 0.906666 151.02 1.12 151.02 1.376C151.02 1.64267 150.929 1.86667 150.748 2.048C150.567 2.21867 150.348 2.304 150.092 2.304ZM149.42 12V4.064H150.764V12H149.42ZM156.24 12C155.515 12 154.944 11.824 154.528 11.472C154.112 11.12 153.904 10.4853 153.904 9.568V5.2H152.528V4.064H153.904L154.08 2.16H155.248V4.064H157.584V5.2H155.248V9.568C155.248 10.0693 155.349 10.4107 155.552 10.592C155.755 10.7627 156.112 10.848 156.624 10.848H157.456V12H156.24ZM161.932 12.192C161.27 12.192 160.721 12.08 160.284 11.856C159.846 11.632 159.521 11.3333 159.308 10.96C159.094 10.5867 158.988 10.1813 158.988 9.744C158.988 8.93333 159.297 8.30933 159.916 7.872C160.534 7.43467 161.377 7.216 162.444 7.216H164.588V7.12C164.588 6.42667 164.406 5.904 164.044 5.552C163.681 5.18933 163.196 5.008 162.588 5.008C162.065 5.008 161.612 5.14133 161.228 5.408C160.854 5.664 160.62 6.04267 160.524 6.544H159.148C159.201 5.968 159.393 5.48267 159.724 5.088C160.065 4.69333 160.486 4.39467 160.988 4.192C161.489 3.97867 162.022 3.872 162.588 3.872C163.697 3.872 164.529 4.17067 165.084 4.768C165.649 5.35467 165.932 6.13867 165.932 7.12V12H164.732L164.652 10.576C164.428 11.024 164.097 11.408 163.66 11.728C163.233 12.0373 162.657 12.192 161.932 12.192ZM162.14 11.056C162.652 11.056 163.089 10.9227 163.452 10.656C163.825 10.3893 164.108 10.0427 164.3 9.616C164.492 9.18933 164.588 8.74133 164.588 8.272V8.256H162.556C161.766 8.256 161.206 8.39467 160.876 8.672C160.556 8.93867 160.396 9.27467 160.396 9.68C160.396 10.096 160.545 10.432 160.844 10.688C161.153 10.9333 161.585 11.056 162.14 11.056ZM170.865 12C170.14 12 169.569 11.824 169.153 11.472C168.737 11.12 168.529 10.4853 168.529 9.568V5.2H167.153V4.064H168.529L168.705 2.16H169.873V4.064H172.209V5.2H169.873V9.568C169.873 10.0693 169.974 10.4107 170.177 10.592C170.38 10.7627 170.737 10.848 171.249 10.848H172.081V12H170.865ZM177.266 12.192C176.508 12.192 175.836 12.0213 175.25 11.68C174.663 11.328 174.199 10.8427 173.858 10.224C173.527 9.60533 173.362 8.87467 173.362 8.032C173.362 7.2 173.527 6.47467 173.858 5.856C174.188 5.22667 174.647 4.74133 175.234 4.4C175.831 4.048 176.519 3.872 177.298 3.872C178.066 3.872 178.727 4.048 179.282 4.4C179.847 4.74133 180.279 5.19467 180.578 5.76C180.876 6.32533 181.026 6.93333 181.026 7.584C181.026 7.70133 181.02 7.81867 181.01 7.936C181.01 8.05333 181.01 8.18667 181.01 8.336H174.69C174.722 8.944 174.86 9.45067 175.106 9.856C175.362 10.2507 175.676 10.5493 176.05 10.752C176.434 10.9547 176.839 11.056 177.266 11.056C177.82 11.056 178.284 10.928 178.658 10.672C179.031 10.416 179.303 10.0693 179.474 9.632H180.802C180.588 10.368 180.178 10.9813 179.57 11.472C178.972 11.952 178.204 12.192 177.266 12.192ZM177.266 5.008C176.626 5.008 176.055 5.20533 175.554 5.6C175.063 5.984 174.78 6.54933 174.706 7.296H179.698C179.666 6.58133 179.42 6.02133 178.962 5.616C178.503 5.21067 177.938 5.008 177.266 5.008ZM190.641 12.192C189.852 12.192 189.159 12.0107 188.562 11.648C187.975 11.2853 187.516 10.7893 187.186 10.16C186.866 9.53067 186.706 8.816 186.706 8.016C186.706 7.216 186.871 6.50667 187.202 5.888C187.532 5.25867 187.991 4.768 188.578 4.416C189.164 4.05333 189.858 3.872 190.658 3.872C191.308 3.872 191.884 4.00533 192.386 4.272C192.887 4.53867 193.276 4.912 193.554 5.392V0.48H194.898V12H193.682L193.554 10.688C193.298 11.072 192.93 11.4187 192.45 11.728C191.97 12.0373 191.367 12.192 190.641 12.192ZM190.786 11.024C191.319 11.024 191.788 10.9013 192.194 10.656C192.61 10.4 192.93 10.048 193.154 9.6C193.388 9.152 193.506 8.62933 193.506 8.032C193.506 7.43467 193.388 6.912 193.154 6.464C192.93 6.016 192.61 5.66933 192.194 5.424C191.788 5.168 191.319 5.04 190.786 5.04C190.263 5.04 189.794 5.168 189.378 5.424C188.972 5.66933 188.652 6.016 188.418 6.464C188.194 6.912 188.082 7.43467 188.082 8.032C188.082 8.62933 188.194 9.152 188.418 9.6C188.652 10.048 188.972 10.4 189.378 10.656C189.794 10.9013 190.263 11.024 190.786 11.024ZM197.904 2.304C197.638 2.304 197.414 2.21867 197.232 2.048C197.062 1.86667 196.976 1.64267 196.976 1.376C196.976 1.12 197.062 0.906666 197.232 0.735999C197.414 0.565333 197.638 0.48 197.904 0.48C198.16 0.48 198.379 0.565333 198.56 0.735999C198.742 0.906666 198.832 1.12 198.832 1.376C198.832 1.64267 198.742 1.86667 198.56 2.048C198.379 2.21867 198.16 2.304 197.904 2.304ZM197.232 12V4.064H198.576V12H197.232ZM203.957 12.192C203.007 12.192 202.218 11.952 201.589 11.472C200.959 10.992 200.591 10.3413 200.485 9.52H201.861C201.946 9.936 202.165 10.2987 202.517 10.608C202.879 10.9067 203.365 11.056 203.973 11.056C204.538 11.056 204.954 10.9387 205.221 10.704C205.487 10.4587 205.621 10.1707 205.621 9.84C205.621 9.36 205.445 9.04 205.093 8.88C204.751 8.72 204.266 8.576 203.637 8.448C203.21 8.36267 202.783 8.24 202.357 8.08C201.93 7.92 201.573 7.696 201.285 7.408C200.997 7.10933 200.853 6.72 200.853 6.24C200.853 5.54667 201.109 4.98133 201.621 4.544C202.143 4.096 202.847 3.872 203.733 3.872C204.575 3.872 205.263 4.08533 205.797 4.512C206.341 4.928 206.655 5.52533 206.741 6.304H205.413C205.359 5.89867 205.183 5.584 204.885 5.36C204.597 5.12533 204.207 5.008 203.717 5.008C203.237 5.008 202.863 5.10933 202.597 5.312C202.341 5.51467 202.213 5.78133 202.213 6.112C202.213 6.432 202.378 6.68267 202.709 6.864C203.05 7.04533 203.509 7.2 204.085 7.328C204.575 7.43467 205.039 7.568 205.477 7.728C205.925 7.87733 206.287 8.10667 206.565 8.416C206.853 8.71467 206.997 9.152 206.997 9.728C207.007 10.4427 206.735 11.0347 206.181 11.504C205.637 11.9627 204.895 12.192 203.957 12.192ZM211.957 12.192C211.007 12.192 210.218 11.952 209.589 11.472C208.959 10.992 208.591 10.3413 208.485 9.52H209.861C209.946 9.936 210.165 10.2987 210.517 10.608C210.879 10.9067 211.365 11.056 211.973 11.056C212.538 11.056 212.954 10.9387 213.221 10.704C213.487 10.4587 213.621 10.1707 213.621 9.84C213.621 9.36 213.445 9.04 213.093 8.88C212.751 8.72 212.266 8.576 211.637 8.448C211.21 8.36267 210.783 8.24 210.357 8.08C209.93 7.92 209.573 7.696 209.285 7.408C208.997 7.10933 208.853 6.72 208.853 6.24C208.853 5.54667 209.109 4.98133 209.621 4.544C210.143 4.096 210.847 3.872 211.733 3.872C212.575 3.872 213.263 4.08533 213.797 4.512C214.341 4.928 214.655 5.52533 214.741 6.304H213.413C213.359 5.89867 213.183 5.584 212.885 5.36C212.597 5.12533 212.207 5.008 211.717 5.008C211.237 5.008 210.863 5.10933 210.597 5.312C210.341 5.51467 210.213 5.78133 210.213 6.112C210.213 6.432 210.378 6.68267 210.709 6.864C211.05 7.04533 211.509 7.2 212.085 7.328C212.575 7.43467 213.039 7.568 213.477 7.728C213.925 7.87733 214.287 8.10667 214.565 8.416C214.853 8.71467 214.997 9.152 214.997 9.728C215.007 10.4427 214.735 11.0347 214.181 11.504C213.637 11.9627 212.895 12.192 211.957 12.192ZM220.485 12.192C219.727 12.192 219.055 12.0213 218.469 11.68C217.882 11.328 217.418 10.8427 217.077 10.224C216.746 9.60533 216.581 8.87467 216.581 8.032C216.581 7.2 216.746 6.47467 217.077 5.856C217.407 5.22667 217.866 4.74133 218.453 4.4C219.05 4.048 219.738 3.872 220.516 3.872C221.285 3.872 221.946 4.048 222.501 4.4C223.066 4.74133 223.498 5.19467 223.797 5.76C224.095 6.32533 224.245 6.93333 224.245 7.584C224.245 7.70133 224.239 7.81867 224.229 7.936C224.229 8.05333 224.229 8.18667 224.229 8.336H217.909C217.941 8.944 218.079 9.45067 218.325 9.856C218.581 10.2507 218.895 10.5493 219.269 10.752C219.653 10.9547 220.058 11.056 220.485 11.056C221.039 11.056 221.503 10.928 221.877 10.672C222.25 10.416 222.522 10.0693 222.693 9.632H224.021C223.807 10.368 223.397 10.9813 222.789 11.472C222.191 11.952 221.423 12.192 220.485 12.192ZM220.485 5.008C219.845 5.008 219.274 5.20533 218.773 5.6C218.282 5.984 217.999 6.54933 217.924 7.296H222.917C222.885 6.58133 222.639 6.02133 222.181 5.616C221.722 5.21067 221.157 5.008 220.485 5.008ZM226.026 12V4.064H227.242L227.322 5.488C227.578 4.98667 227.946 4.592 228.426 4.304C228.906 4.016 229.45 3.872 230.058 3.872C230.997 3.872 231.743 4.16 232.298 4.736C232.863 5.30133 233.146 6.176 233.146 7.36V12H231.802V7.504C231.802 5.85067 231.119 5.024 229.754 5.024C229.071 5.024 228.501 5.27467 228.042 5.776C227.594 6.26667 227.37 6.97067 227.37 7.888V12H226.026ZM238.318 12C237.593 12 237.022 11.824 236.606 11.472C236.19 11.12 235.982 10.4853 235.982 9.568V5.2H234.606V4.064H235.982L236.158 2.16H237.326V4.064H239.662V5.2H237.326V9.568C237.326 10.0693 237.427 10.4107 237.63 10.592C237.833 10.7627 238.19 10.848 238.702 10.848H239.534V12H238.318ZM242.186 2.304C241.919 2.304 241.695 2.21867 241.514 2.048C241.343 1.86667 241.258 1.64267 241.258 1.376C241.258 1.12 241.343 0.906666 241.514 0.735999C241.695 0.565333 241.919 0.48 242.186 0.48C242.442 0.48 242.66 0.565333 242.842 0.735999C243.023 0.906666 243.114 1.12 243.114 1.376C243.114 1.64267 243.023 1.86667 242.842 2.048C242.66 2.21867 242.442 2.304 242.186 2.304ZM241.514 12V4.064H242.858V12H241.514ZM248.766 12.192C248.008 12.192 247.336 12.0213 246.75 11.68C246.163 11.328 245.699 10.8427 245.358 10.224C245.027 9.60533 244.862 8.87467 244.862 8.032C244.862 7.2 245.027 6.47467 245.358 5.856C245.688 5.22667 246.147 4.74133 246.734 4.4C247.331 4.048 248.019 3.872 248.798 3.872C249.566 3.872 250.227 4.048 250.782 4.4C251.347 4.74133 251.779 5.19467 252.078 5.76C252.376 6.32533 252.526 6.93333 252.526 7.584C252.526 7.70133 252.52 7.81867 252.51 7.936C252.51 8.05333 252.51 8.18667 252.51 8.336H246.19C246.222 8.944 246.36 9.45067 246.606 9.856C246.862 10.2507 247.176 10.5493 247.55 10.752C247.934 10.9547 248.339 11.056 248.766 11.056C249.32 11.056 249.784 10.928 250.158 10.672C250.531 10.416 250.803 10.0693 250.974 9.632H252.302C252.088 10.368 251.678 10.9813 251.07 11.472C250.472 11.952 249.704 12.192 248.766 12.192ZM248.766 5.008C248.126 5.008 247.555 5.20533 247.054 5.6C246.563 5.984 246.28 6.54933 246.206 7.296H251.198C251.166 6.58133 250.92 6.02133 250.462 5.616C250.003 5.21067 249.438 5.008 248.766 5.008ZM257.178 12C256.452 12 255.882 11.824 255.466 11.472C255.05 11.12 254.842 10.4853 254.842 9.568V5.2H253.465V4.064H254.842L255.018 2.16H256.186V4.064H258.522V5.2H256.186V9.568C256.186 10.0693 256.287 10.4107 256.49 10.592C256.692 10.7627 257.05 10.848 257.562 10.848H258.394V12H257.178ZM259.985 13.904L260.913 10.368H262.305L260.913 13.904H259.985ZM7.616 39.52V34.688C7.36 35.072 6.992 35.4187 6.512 35.728C6.032 36.0373 5.42933 36.192 4.704 36.192C3.91467 36.192 3.22133 36.0107 2.624 35.648C2.03733 35.2853 1.57867 34.7893 1.248 34.16C0.928 33.5307 0.768 32.816 0.768 32.016C0.768 31.216 0.933333 30.5067 1.264 29.888C1.59467 29.2587 2.05333 28.768 2.64 28.416C3.22667 28.0533 3.92 27.872 4.72 27.872C5.37067 27.872 5.94667 28.0053 6.448 28.272C6.94933 28.5387 7.33867 28.912 7.616 29.392L7.744 28.064H8.96V39.52H7.616ZM4.848 35.024C5.38133 35.024 5.85067 34.9013 6.256 34.656C6.672 34.4 6.992 34.048 7.216 33.6C7.45067 33.152 7.568 32.6293 7.568 32.032C7.568 31.4347 7.45067 30.912 7.216 30.464C6.992 30.016 6.672 29.6693 6.256 29.424C5.85067 29.168 5.38133 29.04 4.848 29.04C4.32533 29.04 3.856 29.168 3.44 29.424C3.03467 29.6693 2.71467 30.016 2.48 30.464C2.256 30.912 2.144 31.4347 2.144 32.032C2.144 32.6293 2.256 33.152 2.48 33.6C2.71467 34.048 3.03467 34.4 3.44 34.656C3.856 34.9013 4.32533 35.024 4.848 35.024ZM18.0949 28.064V36H16.8789L16.7989 34.576C16.5429 35.0773 16.1749 35.472 15.6949 35.76C15.2149 36.048 14.6709 36.192 14.0629 36.192C13.1242 36.192 12.3722 35.9093 11.8069 35.344C11.2522 34.768 10.9749 33.888 10.9749 32.704V28.064H12.3189V32.56C12.3189 34.2133 13.0015 35.04 14.3669 35.04C15.0495 35.04 15.6149 34.7947 16.0629 34.304C16.5215 33.8027 16.7509 33.0933 16.7509 32.176V28.064H18.0949ZM21.1231 26.304C20.8565 26.304 20.6325 26.2187 20.4511 26.048C20.2805 25.8667 20.1951 25.6427 20.1951 25.376C20.1951 25.12 20.2805 24.9067 20.4511 24.736C20.6325 24.5653 20.8565 24.48 21.1231 24.48C21.3791 24.48 21.5978 24.5653 21.7791 24.736C21.9605 24.9067 22.0511 25.12 22.0511 25.376C22.0511 25.6427 21.9605 25.8667 21.7791 26.048C21.5978 26.2187 21.3791 26.304 21.1231 26.304ZM20.4511 36V28.064H21.7951V36H20.4511ZM31.9696 36.192C31.1803 36.192 30.487 36.0107 29.8896 35.648C29.303 35.2853 28.8443 34.7893 28.5136 34.16C28.1936 33.5307 28.0336 32.816 28.0336 32.016C28.0336 31.216 28.199 30.5067 28.5296 29.888C28.8603 29.2587 29.319 28.768 29.9056 28.416C30.4923 28.0533 31.1856 27.872 31.9856 27.872C32.6363 27.872 33.2123 28.0053 33.7136 28.272C34.215 28.5387 34.6043 28.912 34.8816 29.392V24.48H36.2256V36H35.0096L34.8816 34.688C34.6256 35.072 34.2576 35.4187 33.7776 35.728C33.2976 36.0373 32.695 36.192 31.9696 36.192ZM32.1136 35.024C32.647 35.024 33.1163 34.9013 33.5216 34.656C33.9376 34.4 34.2576 34.048 34.4816 33.6C34.7163 33.152 34.8336 32.6293 34.8336 32.032C34.8336 31.4347 34.7163 30.912 34.4816 30.464C34.2576 30.016 33.9376 29.6693 33.5216 29.424C33.1163 29.168 32.647 29.04 32.1136 29.04C31.591 29.04 31.1216 29.168 30.7056 29.424C30.3003 29.6693 29.9803 30.016 29.7456 30.464C29.5216 30.912 29.4096 31.4347 29.4096 32.032C29.4096 32.6293 29.5216 33.152 29.7456 33.6C29.9803 34.048 30.3003 34.4 30.7056 34.656C31.1216 34.9013 31.591 35.024 32.1136 35.024ZM39.2325 26.304C38.9658 26.304 38.7418 26.2187 38.5605 26.048C38.3898 25.8667 38.3045 25.6427 38.3045 25.376C38.3045 25.12 38.3898 24.9067 38.5605 24.736C38.7418 24.5653 38.9658 24.48 39.2325 24.48C39.4885 24.48 39.7072 24.5653 39.8885 24.736C40.0698 24.9067 40.1605 25.12 40.1605 25.376C40.1605 25.6427 40.0698 25.8667 39.8885 26.048C39.7072 26.2187 39.4885 26.304 39.2325 26.304ZM38.5605 36V28.064H39.9045V36H38.5605ZM45.8926 36.192C45.1353 36.192 44.4526 36.0213 43.8446 35.68C43.2473 35.328 42.7726 34.8427 42.4206 34.224C42.0793 33.5947 41.9086 32.864 41.9086 32.032C41.9086 31.2 42.0793 30.4747 42.4206 29.856C42.7726 29.2267 43.2473 28.7413 43.8446 28.4C44.4526 28.048 45.1353 27.872 45.8926 27.872C46.8313 27.872 47.6206 28.1173 48.2606 28.608C48.9113 29.0987 49.322 29.7547 49.4926 30.576H48.1166C48.01 30.0853 47.7486 29.7067 47.3326 29.44C46.9166 29.1627 46.4313 29.024 45.8766 29.024C45.4286 29.024 45.0073 29.136 44.6126 29.36C44.218 29.584 43.898 29.92 43.6526 30.368C43.4073 30.816 43.2846 31.3707 43.2846 32.032C43.2846 32.6933 43.4073 33.248 43.6526 33.696C43.898 34.144 44.218 34.4853 44.6126 34.72C45.0073 34.944 45.4286 35.056 45.8766 35.056C46.4313 35.056 46.9166 34.9227 47.3326 34.656C47.7486 34.3787 48.01 33.9893 48.1166 33.488H49.4926C49.3326 34.288 48.9273 34.9387 48.2766 35.44C47.626 35.9413 46.8313 36.192 45.8926 36.192ZM58.3136 28.064V36H57.0976L57.0176 34.576C56.7616 35.0773 56.3936 35.472 55.9136 35.76C55.4336 36.048 54.8896 36.192 54.2816 36.192C53.343 36.192 52.591 35.9093 52.0256 35.344C51.471 34.768 51.1936 33.888 51.1936 32.704V28.064H52.5376V32.56C52.5376 34.2133 53.2203 35.04 54.5856 35.04C55.2683 35.04 55.8336 34.7947 56.2816 34.304C56.7403 33.8027 56.9696 33.0933 56.9696 32.176V28.064H58.3136ZM60.5259 36V28.064H61.7419L61.8219 29.488C62.0779 28.9867 62.4459 28.592 62.9259 28.304C63.4059 28.016 63.9499 27.872 64.5579 27.872C65.4965 27.872 66.2432 28.16 66.7979 28.736C67.3632 29.3013 67.6459 30.176 67.6459 31.36V36H66.3019V31.504C66.3019 29.8507 65.6192 29.024 64.2539 29.024C63.5712 29.024 63.0005 29.2747 62.5419 29.776C62.0939 30.2667 61.8699 30.9707 61.8699 31.888V36H60.5259ZM72.8181 36C72.0928 36 71.5221 35.824 71.1061 35.472C70.6901 35.12 70.4821 34.4853 70.4821 33.568V29.2H69.1061V28.064H70.4821L70.6581 26.16H71.8261V28.064H74.1621V29.2H71.8261V33.568C71.8261 34.0693 71.9275 34.4107 72.1301 34.592C72.3328 34.7627 72.6901 34.848 73.2021 34.848H74.0341V36H72.8181ZM82.744 36.192C82.0827 36.192 81.5333 36.08 81.096 35.856C80.6587 35.632 80.3333 35.3333 80.12 34.96C79.9067 34.5867 79.8 34.1813 79.8 33.744C79.8 32.9333 80.1093 32.3093 80.728 31.872C81.3467 31.4347 82.1893 31.216 83.256 31.216H85.4V31.12C85.4 30.4267 85.2187 29.904 84.856 29.552C84.4933 29.1893 84.008 29.008 83.4 29.008C82.8773 29.008 82.424 29.1413 82.04 29.408C81.6667 29.664 81.432 30.0427 81.336 30.544H79.96C80.0133 29.968 80.2053 29.4827 80.536 29.088C80.8773 28.6933 81.2987 28.3947 81.8 28.192C82.3013 27.9787 82.8347 27.872 83.4 27.872C84.5093 27.872 85.3413 28.1707 85.896 28.768C86.4613 29.3547 86.744 30.1387 86.744 31.12V36H85.544L85.464 34.576C85.24 35.024 84.9093 35.408 84.472 35.728C84.0453 36.0373 83.4693 36.192 82.744 36.192ZM82.952 35.056C83.464 35.056 83.9013 34.9227 84.264 34.656C84.6373 34.3893 84.92 34.0427 85.112 33.616C85.304 33.1893 85.4 32.7413 85.4 32.272V32.256H83.368C82.5787 32.256 82.0187 32.3947 81.688 32.672C81.368 32.9387 81.208 33.2747 81.208 33.68C81.208 34.096 81.3573 34.432 81.656 34.688C81.9653 34.9333 82.3973 35.056 82.952 35.056ZM88.7603 36V28.064H89.9763L90.0563 29.488C90.3123 28.9867 90.6803 28.592 91.1603 28.304C91.6403 28.016 92.1843 27.872 92.7923 27.872C93.7309 27.872 94.4776 28.16 95.0323 28.736C95.5976 29.3013 95.8802 30.176 95.8802 31.36V36H94.5363V31.504C94.5363 29.8507 93.8536 29.024 92.4883 29.024C91.8056 29.024 91.2349 29.2747 90.7763 29.776C90.3283 30.2667 90.1043 30.9707 90.1043 31.888V36H88.7603ZM101.565 36.192C100.807 36.192 100.125 36.0213 99.5165 35.68C98.9192 35.328 98.4445 34.8427 98.0925 34.224C97.7512 33.5947 97.5805 32.864 97.5805 32.032C97.5805 31.2 97.7512 30.4747 98.0925 29.856C98.4445 29.2267 98.9192 28.7413 99.5165 28.4C100.125 28.048 100.807 27.872 101.565 27.872C102.503 27.872 103.293 28.1173 103.933 28.608C104.583 29.0987 104.994 29.7547 105.165 30.576H103.789C103.682 30.0853 103.421 29.7067 103.005 29.44C102.589 29.1627 102.103 29.024 101.549 29.024C101.101 29.024 100.679 29.136 100.285 29.36C99.8898 29.584 99.5698 29.92 99.3245 30.368C99.0792 30.816 98.9565 31.3707 98.9565 32.032C98.9565 32.6933 99.0792 33.248 99.3245 33.696C99.5698 34.144 99.8898 34.4853 100.285 34.72C100.679 34.944 101.101 35.056 101.549 35.056C102.103 35.056 102.589 34.9227 103.005 34.656C103.421 34.3787 103.682 33.9893 103.789 33.488H105.165C105.005 34.288 104.599 34.9387 103.949 35.44C103.298 35.9413 102.503 36.192 101.565 36.192ZM107.858 26.304C107.591 26.304 107.367 26.2187 107.186 26.048C107.015 25.8667 106.93 25.6427 106.93 25.376C106.93 25.12 107.015 24.9067 107.186 24.736C107.367 24.5653 107.591 24.48 107.858 24.48C108.114 24.48 108.332 24.5653 108.514 24.736C108.695 24.9067 108.786 25.12 108.786 25.376C108.786 25.6427 108.695 25.8667 108.514 26.048C108.332 26.2187 108.114 26.304 107.858 26.304ZM107.186 36V28.064H108.53V36H107.186ZM110.87 36V24.48H112.214V36H110.87ZM114.417 36V24.48H115.761V36H114.417ZM120.603 36.192C119.942 36.192 119.393 36.08 118.955 35.856C118.518 35.632 118.193 35.3333 117.979 34.96C117.766 34.5867 117.659 34.1813 117.659 33.744C117.659 32.9333 117.969 32.3093 118.587 31.872C119.206 31.4347 120.049 31.216 121.115 31.216H123.259V31.12C123.259 30.4267 123.078 29.904 122.715 29.552C122.353 29.1893 121.867 29.008 121.259 29.008C120.737 29.008 120.283 29.1413 119.899 29.408C119.526 29.664 119.291 30.0427 119.195 30.544H117.819C117.873 29.968 118.065 29.4827 118.395 29.088C118.737 28.6933 119.158 28.3947 119.659 28.192C120.161 27.9787 120.694 27.872 121.259 27.872C122.369 27.872 123.201 28.1707 123.755 28.768C124.321 29.3547 124.603 30.1387 124.603 31.12V36H123.403L123.323 34.576C123.099 35.024 122.769 35.408 122.331 35.728C121.905 36.0373 121.329 36.192 120.603 36.192ZM120.811 35.056C121.323 35.056 121.761 34.9227 122.123 34.656C122.497 34.3893 122.779 34.0427 122.971 33.616C123.163 33.1893 123.259 32.7413 123.259 32.272V32.256H121.227C120.438 32.256 119.878 32.3947 119.547 32.672C119.227 32.9387 119.067 33.2747 119.067 33.68C119.067 34.096 119.217 34.432 119.515 34.688C119.825 34.9333 120.257 35.056 120.811 35.056ZM130.188 36.192C129.43 36.192 128.758 36.0213 128.172 35.68C127.585 35.328 127.121 34.8427 126.78 34.224C126.449 33.6053 126.284 32.8747 126.284 32.032C126.284 31.2 126.449 30.4747 126.78 29.856C127.11 29.2267 127.569 28.7413 128.156 28.4C128.753 28.048 129.441 27.872 130.22 27.872C130.988 27.872 131.649 28.048 132.204 28.4C132.769 28.7413 133.201 29.1947 133.5 29.76C133.798 30.3253 133.948 30.9333 133.948 31.584C133.948 31.7013 133.942 31.8187 133.932 31.936C133.932 32.0533 133.932 32.1867 133.932 32.336H127.612C127.644 32.944 127.782 33.4507 128.028 33.856C128.284 34.2507 128.598 34.5493 128.972 34.752C129.356 34.9547 129.761 35.056 130.188 35.056C130.742 35.056 131.206 34.928 131.58 34.672C131.953 34.416 132.225 34.0693 132.396 33.632H133.724C133.51 34.368 133.1 34.9813 132.492 35.472C131.894 35.952 131.126 36.192 130.188 36.192ZM130.188 29.008C129.548 29.008 128.977 29.2053 128.476 29.6C127.985 29.984 127.702 30.5493 127.628 31.296H132.62C132.588 30.5813 132.342 30.0213 131.884 29.616C131.425 29.2107 130.86 29.008 130.188 29.008ZM140.779 26.304C140.513 26.304 140.289 26.2187 140.107 26.048C139.937 25.8667 139.851 25.6427 139.851 25.376C139.851 25.12 139.937 24.9067 140.107 24.736C140.289 24.5653 140.513 24.48 140.779 24.48C141.035 24.48 141.254 24.5653 141.435 24.736C141.617 24.9067 141.707 25.12 141.707 25.376C141.707 25.6427 141.617 25.8667 141.435 26.048C141.254 26.2187 141.035 26.304 140.779 26.304ZM140.107 36V28.064H141.451V36H140.107ZM147.391 36.192C146.602 36.192 145.909 36.0107 145.312 35.648C144.725 35.2853 144.266 34.7893 143.936 34.16C143.616 33.5307 143.456 32.816 143.456 32.016C143.456 31.216 143.621 30.5067 143.952 29.888C144.282 29.2587 144.741 28.768 145.328 28.416C145.914 28.0533 146.608 27.872 147.408 27.872C148.058 27.872 148.634 28.0053 149.136 28.272C149.637 28.5387 150.026 28.912 150.304 29.392V24.48H151.648V36H150.432L150.304 34.688C150.048 35.072 149.68 35.4187 149.2 35.728C148.72 36.0373 148.117 36.192 147.391 36.192ZM147.536 35.024C148.069 35.024 148.538 34.9013 148.944 34.656C149.36 34.4 149.68 34.048 149.904 33.6C150.138 33.152 150.256 32.6293 150.256 32.032C150.256 31.4347 150.138 30.912 149.904 30.464C149.68 30.016 149.36 29.6693 148.944 29.424C148.538 29.168 148.069 29.04 147.536 29.04C147.013 29.04 146.544 29.168 146.128 29.424C145.722 29.6693 145.402 30.016 145.168 30.464C144.944 30.912 144.832 31.4347 144.832 32.032C144.832 32.6293 144.944 33.152 145.168 33.6C145.402 34.048 145.722 34.4 146.128 34.656C146.544 34.9013 147.013 35.024 147.536 35.024ZM152.766 37.904L153.694 34.368H155.086L153.694 37.904H152.766ZM160.917 36V28.064H162.133L162.213 29.488C162.469 28.9867 162.837 28.592 163.317 28.304C163.797 28.016 164.341 27.872 164.949 27.872C165.887 27.872 166.634 28.16 167.189 28.736C167.754 29.3013 168.036 30.176 168.036 31.36V36H166.693V31.504C166.693 29.8507 166.01 29.024 164.645 29.024C163.962 29.024 163.391 29.2747 162.933 29.776C162.485 30.2667 162.261 30.9707 162.261 31.888V36H160.917ZM173.641 36.192C172.883 36.192 172.211 36.0213 171.625 35.68C171.038 35.328 170.574 34.8427 170.233 34.224C169.902 33.6053 169.737 32.8747 169.737 32.032C169.737 31.2 169.902 30.4747 170.233 29.856C170.563 29.2267 171.022 28.7413 171.609 28.4C172.206 28.048 172.894 27.872 173.673 27.872C174.441 27.872 175.102 28.048 175.657 28.4C176.222 28.7413 176.654 29.1947 176.953 29.76C177.251 30.3253 177.401 30.9333 177.401 31.584C177.401 31.7013 177.395 31.8187 177.385 31.936C177.385 32.0533 177.385 32.1867 177.385 32.336H171.065C171.097 32.944 171.235 33.4507 171.481 33.856C171.737 34.2507 172.051 34.5493 172.425 34.752C172.809 34.9547 173.214 35.056 173.641 35.056C174.195 35.056 174.659 34.928 175.033 34.672C175.406 34.416 175.678 34.0693 175.849 33.632H177.177C176.963 34.368 176.553 34.9813 175.945 35.472C175.347 35.952 174.579 36.192 173.641 36.192ZM173.641 29.008C173.001 29.008 172.43 29.2053 171.929 29.6C171.438 29.984 171.155 30.5493 171.081 31.296H176.073C176.041 30.5813 175.795 30.0213 175.337 29.616C174.878 29.2107 174.313 29.008 173.641 29.008ZM183.417 36V28.064H184.633L184.729 29.216C184.985 28.7893 185.326 28.4587 185.753 28.224C186.179 27.9893 186.659 27.872 187.193 27.872C187.822 27.872 188.361 28 188.809 28.256C189.267 28.512 189.619 28.9013 189.865 29.424C190.142 28.944 190.521 28.5653 191.001 28.288C191.491 28.0107 192.019 27.872 192.585 27.872C193.534 27.872 194.291 28.16 194.857 28.736C195.422 29.3013 195.705 30.176 195.705 31.36V36H194.377V31.504C194.377 30.6827 194.211 30.064 193.881 29.648C193.55 29.232 193.075 29.024 192.457 29.024C191.817 29.024 191.283 29.2747 190.857 29.776C190.441 30.2667 190.233 30.9707 190.233 31.888V36H188.889V31.504C188.889 30.6827 188.723 30.064 188.393 29.648C188.062 29.232 187.587 29.024 186.969 29.024C186.339 29.024 185.811 29.2747 185.385 29.776C184.969 30.2667 184.761 30.9707 184.761 31.888V36H183.417ZM201.297 36.192C200.54 36.192 199.868 36.0213 199.281 35.68C198.694 35.328 198.23 34.8427 197.889 34.224C197.558 33.6053 197.393 32.8747 197.393 32.032C197.393 31.2 197.558 30.4747 197.889 29.856C198.22 29.2267 198.678 28.7413 199.265 28.4C199.862 28.048 200.55 27.872 201.329 27.872C202.097 27.872 202.758 28.048 203.313 28.4C203.878 28.7413 204.31 29.1947 204.609 29.76C204.908 30.3253 205.057 30.9333 205.057 31.584C205.057 31.7013 205.052 31.8187 205.041 31.936C205.041 32.0533 205.041 32.1867 205.041 32.336H198.721C198.753 32.944 198.892 33.4507 199.137 33.856C199.393 34.2507 199.708 34.5493 200.081 34.752C200.465 34.9547 200.87 35.056 201.297 35.056C201.852 35.056 202.316 34.928 202.689 34.672C203.062 34.416 203.334 34.0693 203.505 33.632H204.833C204.62 34.368 204.209 34.9813 203.601 35.472C203.004 35.952 202.236 36.192 201.297 36.192ZM201.297 29.008C200.657 29.008 200.086 29.2053 199.585 29.6C199.094 29.984 198.812 30.5493 198.737 31.296H203.729C203.697 30.5813 203.452 30.0213 202.993 29.616C202.534 29.2107 201.969 29.008 201.297 29.008ZM209.478 36.192C208.817 36.192 208.268 36.08 207.83 35.856C207.393 35.632 207.068 35.3333 206.854 34.96C206.641 34.5867 206.534 34.1813 206.534 33.744C206.534 32.9333 206.844 32.3093 207.462 31.872C208.081 31.4347 208.924 31.216 209.99 31.216H212.134V31.12C212.134 30.4267 211.953 29.904 211.59 29.552C211.228 29.1893 210.742 29.008 210.134 29.008C209.612 29.008 209.158 29.1413 208.774 29.408C208.401 29.664 208.166 30.0427 208.07 30.544H206.694C206.748 29.968 206.94 29.4827 207.27 29.088C207.612 28.6933 208.033 28.3947 208.534 28.192C209.036 27.9787 209.569 27.872 210.134 27.872C211.244 27.872 212.076 28.1707 212.63 28.768C213.196 29.3547 213.478 30.1387 213.478 31.12V36H212.278L212.198 34.576C211.974 35.024 211.644 35.408 211.206 35.728C210.78 36.0373 210.204 36.192 209.478 36.192ZM209.686 35.056C210.198 35.056 210.636 34.9227 210.998 34.656C211.372 34.3893 211.654 34.0427 211.846 33.616C212.038 33.1893 212.134 32.7413 212.134 32.272V32.256H210.102C209.313 32.256 208.753 32.3947 208.422 32.672C208.102 32.9387 207.942 33.2747 207.942 33.68C207.942 34.096 208.092 34.432 208.39 34.688C208.7 34.9333 209.132 35.056 209.686 35.056ZM1.104 60V48.48H2.448V53.424C2.71467 52.9333 3.09333 52.5547 3.584 52.288C4.07467 52.0107 4.608 51.872 5.184 51.872C6.10133 51.872 6.83733 52.16 7.392 52.736C7.94667 53.3013 8.224 54.176 8.224 55.36V60H6.896V55.504C6.896 53.8507 6.22933 53.024 4.896 53.024C4.20267 53.024 3.62133 53.2747 3.152 53.776C2.68267 54.2667 2.448 54.9707 2.448 55.888V60H1.104ZM13.8763 60.192C13.1296 60.192 12.4576 60.0213 11.8603 59.68C11.2629 59.3387 10.7883 58.8587 10.4363 58.24C10.0949 57.6107 9.92425 56.8747 9.92425 56.032C9.92425 55.1893 10.1003 54.4587 10.4523 53.84C10.8043 53.2107 11.2789 52.7253 11.8763 52.384C12.4843 52.0427 13.1616 51.872 13.9083 51.872C14.6549 51.872 15.3269 52.0427 15.9243 52.384C16.5216 52.7253 16.9909 53.2107 17.3323 53.84C17.6843 54.4587 17.8603 55.1893 17.8603 56.032C17.8603 56.8747 17.6843 57.6107 17.3323 58.24C16.9803 58.8587 16.5003 59.3387 15.8923 59.68C15.2949 60.0213 14.6229 60.192 13.8763 60.192ZM13.8763 59.04C14.3349 59.04 14.7616 58.928 15.1563 58.704C15.5509 58.48 15.8709 58.144 16.1163 57.696C16.3616 57.248 16.4843 56.6933 16.4843 56.032C16.4843 55.3707 16.3616 54.816 16.1163 54.368C15.8816 53.92 15.5669 53.584 15.1723 53.36C14.7776 53.136 14.3563 53.024 13.9083 53.024C13.4496 53.024 13.0229 53.136 12.6283 53.36C12.2336 53.584 11.9136 53.92 11.6683 54.368C11.4229 54.816 11.3003 55.3707 11.3003 56.032C11.3003 56.6933 11.4229 57.248 11.6683 57.696C11.9136 58.144 12.2283 58.48 12.6123 58.704C13.0069 58.928 13.4283 59.04 13.8763 59.04ZM19.729 60V52.064H20.945L21.041 53.216C21.297 52.7893 21.6383 52.4587 22.065 52.224C22.4917 51.9893 22.9717 51.872 23.505 51.872C24.1343 51.872 24.673 52 25.121 52.256C25.5797 52.512 25.9317 52.9013 26.177 53.424C26.4543 52.944 26.833 52.5653 27.313 52.288C27.8037 52.0107 28.3317 51.872 28.897 51.872C29.8463 51.872 30.6037 52.16 31.169 52.736C31.7343 53.3013 32.017 54.176 32.017 55.36V60H30.689V55.504C30.689 54.6827 30.5237 54.064 30.193 53.648C29.8623 53.232 29.3877 53.024 28.769 53.024C28.129 53.024 27.5957 53.2747 27.169 53.776C26.753 54.2667 26.545 54.9707 26.545 55.888V60H25.201V55.504C25.201 54.6827 25.0357 54.064 24.705 53.648C24.3743 53.232 23.8997 53.024 23.281 53.024C22.6517 53.024 22.1237 53.2747 21.697 53.776C21.281 54.2667 21.073 54.9707 21.073 55.888V60H19.729ZM37.6095 60.192C36.8522 60.192 36.1802 60.0213 35.5935 59.68C35.0068 59.328 34.5428 58.8427 34.2015 58.224C33.8708 57.6053 33.7055 56.8747 33.7055 56.032C33.7055 55.2 33.8708 54.4747 34.2015 53.856C34.5322 53.2267 34.9908 52.7413 35.5775 52.4C36.1748 52.048 36.8628 51.872 37.6415 51.872C38.4095 51.872 39.0708 52.048 39.6255 52.4C40.1908 52.7413 40.6228 53.1947 40.9215 53.76C41.2202 54.3253 41.3695 54.9333 41.3695 55.584C41.3695 55.7013 41.3642 55.8187 41.3535 55.936C41.3535 56.0533 41.3535 56.1867 41.3535 56.336H35.0335C35.0655 56.944 35.2042 57.4507 35.4495 57.856C35.7055 58.2507 36.0202 58.5493 36.3935 58.752C36.7775 58.9547 37.1828 59.056 37.6095 59.056C38.1642 59.056 38.6282 58.928 39.0015 58.672C39.3748 58.416 39.6468 58.0693 39.8175 57.632H41.1455C40.9322 58.368 40.5215 58.9813 39.9135 59.472C39.3162 59.952 38.5482 60.192 37.6095 60.192ZM37.6095 53.008C36.9695 53.008 36.3988 53.2053 35.8975 53.6C35.4068 53.984 35.1242 54.5493 35.0495 55.296H40.0415C40.0095 54.5813 39.7642 54.0213 39.3055 53.616C38.8468 53.2107 38.2815 53.008 37.6095 53.008ZM43.1509 60V52.064H44.3669L44.4789 53.584C44.7242 53.0613 45.0975 52.6453 45.5989 52.336C46.1002 52.0267 46.7189 51.872 47.4549 51.872V53.28H47.0869C46.6175 53.28 46.1855 53.3653 45.7909 53.536C45.3962 53.696 45.0815 53.9733 44.8469 54.368C44.6122 54.7627 44.4949 55.3067 44.4949 56V60H43.1509ZM52.2825 60.192C51.5358 60.192 50.8638 60.0213 50.2665 59.68C49.6692 59.3387 49.1945 58.8587 48.8425 58.24C48.5012 57.6107 48.3305 56.8747 48.3305 56.032C48.3305 55.1893 48.5065 54.4587 48.8585 53.84C49.2105 53.2107 49.6852 52.7253 50.2825 52.384C50.8905 52.0427 51.5678 51.872 52.3145 51.872C53.0612 51.872 53.7332 52.0427 54.3305 52.384C54.9278 52.7253 55.3972 53.2107 55.7385 53.84C56.0905 54.4587 56.2665 55.1893 56.2665 56.032C56.2665 56.8747 56.0905 57.6107 55.7385 58.24C55.3865 58.8587 54.9065 59.3387 54.2985 59.68C53.7012 60.0213 53.0292 60.192 52.2825 60.192ZM52.2825 59.04C52.7412 59.04 53.1678 58.928 53.5625 58.704C53.9572 58.48 54.2772 58.144 54.5225 57.696C54.7678 57.248 54.8905 56.6933 54.8905 56.032C54.8905 55.3707 54.7678 54.816 54.5225 54.368C54.2878 53.92 53.9732 53.584 53.5785 53.36C53.1838 53.136 52.7625 53.024 52.3145 53.024C51.8558 53.024 51.4292 53.136 51.0345 53.36C50.6398 53.584 50.3198 53.92 50.0745 54.368C49.8292 54.816 49.7065 55.3707 49.7065 56.032C49.7065 56.6933 49.8292 57.248 50.0745 57.696C50.3198 58.144 50.6345 58.48 51.0185 58.704C51.4132 58.928 51.8345 59.04 52.2825 59.04ZM62.3696 63.52V52.064H63.5856L63.7136 53.376C63.9696 52.992 64.3323 52.6453 64.8016 52.336C65.2816 52.0267 65.8896 51.872 66.6256 51.872C67.415 51.872 68.103 52.0533 68.6896 52.416C69.2763 52.7787 69.7296 53.2747 70.0496 53.904C70.3803 54.5333 70.5456 55.248 70.5456 56.048C70.5456 56.848 70.3803 57.5627 70.0496 58.192C69.7296 58.8107 69.271 59.3013 68.6736 59.664C68.087 60.016 67.399 60.192 66.6096 60.192C65.959 60.192 65.3776 60.0587 64.8656 59.792C64.3643 59.5253 63.9803 59.152 63.7136 58.672V63.52H62.3696ZM66.4656 59.024C66.999 59.024 67.4683 58.9013 67.8736 58.656C68.279 58.4 68.599 58.048 68.8336 57.6C69.0683 57.152 69.1856 56.6293 69.1856 56.032C69.1856 55.4347 69.0683 54.912 68.8336 54.464C68.599 54.016 68.279 53.6693 67.8736 53.424C67.4683 53.168 66.999 53.04 66.4656 53.04C65.9323 53.04 65.463 53.168 65.0576 53.424C64.6523 53.6693 64.3323 54.016 64.0976 54.464C63.863 54.912 63.7456 55.4347 63.7456 56.032C63.7456 56.6293 63.863 57.152 64.0976 57.6C64.3323 58.048 64.6523 58.4 65.0576 58.656C65.463 58.9013 65.9323 59.024 66.4656 59.024ZM75.9845 60.192C75.2272 60.192 74.5552 60.0213 73.9685 59.68C73.3818 59.328 72.9178 58.8427 72.5765 58.224C72.2458 57.6053 72.0805 56.8747 72.0805 56.032C72.0805 55.2 72.2458 54.4747 72.5765 53.856C72.9072 53.2267 73.3658 52.7413 73.9525 52.4C74.5498 52.048 75.2378 51.872 76.0165 51.872C76.7845 51.872 77.4458 52.048 78.0005 52.4C78.5658 52.7413 78.9978 53.1947 79.2965 53.76C79.5952 54.3253 79.7445 54.9333 79.7445 55.584C79.7445 55.7013 79.7392 55.8187 79.7285 55.936C79.7285 56.0533 79.7285 56.1867 79.7285 56.336H73.4085C73.4405 56.944 73.5792 57.4507 73.8245 57.856C74.0805 58.2507 74.3952 58.5493 74.7685 58.752C75.1525 58.9547 75.5578 59.056 75.9845 59.056C76.5392 59.056 77.0032 58.928 77.3765 58.672C77.7498 58.416 78.0218 58.0693 78.1925 57.632H79.5205C79.3072 58.368 78.8965 58.9813 78.2885 59.472C77.6912 59.952 76.9232 60.192 75.9845 60.192ZM75.9845 53.008C75.3445 53.008 74.7738 53.2053 74.2725 53.6C73.7818 53.984 73.4992 54.5493 73.4245 55.296H78.4165C78.3845 54.5813 78.1392 54.0213 77.6805 53.616C77.2218 53.2107 76.6565 53.008 75.9845 53.008ZM81.5259 60V52.064H82.7419L82.8539 53.584C83.0992 53.0613 83.4725 52.6453 83.9739 52.336C84.4752 52.0267 85.0939 51.872 85.8299 51.872V53.28H85.4619C84.9925 53.28 84.5605 53.3653 84.1659 53.536C83.7712 53.696 83.4565 53.9733 83.2219 54.368C82.9872 54.7627 82.8699 55.3067 82.8699 56V60H81.5259ZM90.3784 60.192C89.429 60.192 88.6397 59.952 88.0104 59.472C87.381 58.992 87.013 58.3413 86.9064 57.52H88.2824C88.3677 57.936 88.5864 58.2987 88.9384 58.608C89.301 58.9067 89.7864 59.056 90.3944 59.056C90.9597 59.056 91.3757 58.9387 91.6424 58.704C91.909 58.4587 92.0424 58.1707 92.0424 57.84C92.0424 57.36 91.8664 57.04 91.5144 56.88C91.173 56.72 90.6877 56.576 90.0584 56.448C89.6317 56.3627 89.205 56.24 88.7784 56.08C88.3517 55.92 87.9944 55.696 87.7064 55.408C87.4184 55.1093 87.2744 54.72 87.2744 54.24C87.2744 53.5467 87.5304 52.9813 88.0424 52.544C88.565 52.096 89.269 51.872 90.1544 51.872C90.997 51.872 91.685 52.0853 92.2184 52.512C92.7624 52.928 93.077 53.5253 93.1624 54.304H91.8344C91.781 53.8987 91.605 53.584 91.3064 53.36C91.0184 53.1253 90.629 53.008 90.1384 53.008C89.6584 53.008 89.285 53.1093 89.0184 53.312C88.7624 53.5147 88.6344 53.7813 88.6344 54.112C88.6344 54.432 88.7997 54.6827 89.1304 54.864C89.4717 55.0453 89.9304 55.2 90.5064 55.328C90.997 55.4347 91.461 55.568 91.8984 55.728C92.3464 55.8773 92.709 56.1067 92.9864 56.416C93.2744 56.7147 93.4184 57.152 93.4184 57.728C93.429 58.4427 93.157 59.0347 92.6024 59.504C92.0584 59.9627 91.317 60.192 90.3784 60.192ZM98.9064 60.192C98.149 60.192 97.477 60.0213 96.8904 59.68C96.3037 59.328 95.8397 58.8427 95.4984 58.224C95.1677 57.6053 95.0024 56.8747 95.0024 56.032C95.0024 55.2 95.1677 54.4747 95.4984 53.856C95.829 53.2267 96.2877 52.7413 96.8744 52.4C97.4717 52.048 98.1597 51.872 98.9384 51.872C99.7064 51.872 100.368 52.048 100.922 52.4C101.488 52.7413 101.92 53.1947 102.218 53.76C102.517 54.3253 102.666 54.9333 102.666 55.584C102.666 55.7013 102.661 55.8187 102.65 55.936C102.65 56.0533 102.65 56.1867 102.65 56.336H96.3304C96.3624 56.944 96.501 57.4507 96.7464 57.856C97.0024 58.2507 97.317 58.5493 97.6904 58.752C98.0744 58.9547 98.4797 59.056 98.9064 59.056C99.461 59.056 99.925 58.928 100.298 58.672C100.672 58.416 100.944 58.0693 101.114 57.632H102.442C102.229 58.368 101.818 58.9813 101.21 59.472C100.613 59.952 99.845 60.192 98.9064 60.192ZM98.9064 53.008C98.2664 53.008 97.6957 53.2053 97.1944 53.6C96.7037 53.984 96.421 54.5493 96.3464 55.296H101.338C101.306 54.5813 101.061 54.0213 100.602 53.616C100.144 53.2107 99.5784 53.008 98.9064 53.008ZM110.96 63.52V58.688C110.704 59.072 110.336 59.4187 109.856 59.728C109.376 60.0373 108.773 60.192 108.048 60.192C107.258 60.192 106.565 60.0107 105.968 59.648C105.381 59.2853 104.922 58.7893 104.592 58.16C104.272 57.5307 104.112 56.816 104.112 56.016C104.112 55.216 104.277 54.5067 104.608 53.888C104.938 53.2587 105.397 52.768 105.984 52.416C106.57 52.0533 107.264 51.872 108.064 51.872C108.714 51.872 109.29 52.0053 109.792 52.272C110.293 52.5387 110.682 52.912 110.96 53.392L111.088 52.064H112.304V63.52H110.96ZM108.192 59.024C108.725 59.024 109.194 58.9013 109.6 58.656C110.016 58.4 110.336 58.048 110.56 57.6C110.794 57.152 110.912 56.6293 110.912 56.032C110.912 55.4347 110.794 54.912 110.56 54.464C110.336 54.016 110.016 53.6693 109.6 53.424C109.194 53.168 108.725 53.04 108.192 53.04C107.669 53.04 107.2 53.168 106.784 53.424C106.378 53.6693 106.058 54.016 105.824 54.464C105.6 54.912 105.488 55.4347 105.488 56.032C105.488 56.6293 105.6 57.152 105.824 57.6C106.058 58.048 106.378 58.4 106.784 58.656C107.2 58.9013 107.669 59.024 108.192 59.024ZM121.439 52.064V60H120.223L120.143 58.576C119.887 59.0773 119.519 59.472 119.039 59.76C118.559 60.048 118.015 60.192 117.407 60.192C116.468 60.192 115.716 59.9093 115.151 59.344C114.596 58.768 114.319 57.888 114.319 56.704V52.064H115.663V56.56C115.663 58.2133 116.345 59.04 117.711 59.04C118.393 59.04 118.959 58.7947 119.407 58.304C119.865 57.8027 120.095 57.0933 120.095 56.176V52.064H121.439ZM127.219 60.192C126.462 60.192 125.79 60.0213 125.203 59.68C124.616 59.328 124.152 58.8427 123.811 58.224C123.48 57.6053 123.315 56.8747 123.315 56.032C123.315 55.2 123.48 54.4747 123.811 53.856C124.142 53.2267 124.6 52.7413 125.187 52.4C125.784 52.048 126.472 51.872 127.251 51.872C128.019 51.872 128.68 52.048 129.235 52.4C129.8 52.7413 130.232 53.1947 130.531 53.76C130.83 54.3253 130.979 54.9333 130.979 55.584C130.979 55.7013 130.974 55.8187 130.963 55.936C130.963 56.0533 130.963 56.1867 130.963 56.336H124.643C124.675 56.944 124.814 57.4507 125.059 57.856C125.315 58.2507 125.63 58.5493 126.003 58.752C126.387 58.9547 126.792 59.056 127.219 59.056C127.774 59.056 128.238 58.928 128.611 58.672C128.984 58.416 129.256 58.0693 129.427 57.632H130.755C130.542 58.368 130.131 58.9813 129.523 59.472C128.926 59.952 128.158 60.192 127.219 60.192ZM127.219 53.008C126.579 53.008 126.008 53.2053 125.507 53.6C125.016 53.984 124.734 54.5493 124.659 55.296H129.651C129.619 54.5813 129.374 54.0213 128.915 53.616C128.456 53.2107 127.891 53.008 127.219 53.008ZM132.76 60V52.064H133.976L134.088 53.584C134.334 53.0613 134.707 52.6453 135.208 52.336C135.71 52.0267 136.328 51.872 137.064 51.872V53.28H136.696C136.227 53.28 135.795 53.3653 135.4 53.536C135.006 53.696 134.691 53.9733 134.456 54.368C134.222 54.7627 134.104 55.3067 134.104 56V60H132.76ZM139.389 50.304C139.122 50.304 138.898 50.2187 138.717 50.048C138.546 49.8667 138.461 49.6427 138.461 49.376C138.461 49.12 138.546 48.9067 138.717 48.736C138.898 48.5653 139.122 48.48 139.389 48.48C139.645 48.48 139.863 48.5653 140.045 48.736C140.226 48.9067 140.317 49.12 140.317 49.376C140.317 49.6427 140.226 49.8667 140.045 50.048C139.863 50.2187 139.645 50.304 139.389 50.304ZM138.717 60V52.064H140.061V60H138.717ZM145.441 60.192C144.492 60.192 143.702 59.952 143.073 59.472C142.444 58.992 142.076 58.3413 141.969 57.52H143.345C143.43 57.936 143.649 58.2987 144.001 58.608C144.364 58.9067 144.849 59.056 145.457 59.056C146.022 59.056 146.438 58.9387 146.705 58.704C146.972 58.4587 147.105 58.1707 147.105 57.84C147.105 57.36 146.929 57.04 146.577 56.88C146.236 56.72 145.75 56.576 145.121 56.448C144.694 56.3627 144.268 56.24 143.841 56.08C143.414 55.92 143.057 55.696 142.769 55.408C142.481 55.1093 142.337 54.72 142.337 54.24C142.337 53.5467 142.593 52.9813 143.105 52.544C143.628 52.096 144.332 51.872 145.217 51.872C146.06 51.872 146.748 52.0853 147.281 52.512C147.825 52.928 148.14 53.5253 148.225 54.304H146.897C146.844 53.8987 146.668 53.584 146.369 53.36C146.081 53.1253 145.692 53.008 145.201 53.008C144.721 53.008 144.348 53.1093 144.081 53.312C143.825 53.5147 143.697 53.7813 143.697 54.112C143.697 54.432 143.862 54.6827 144.193 54.864C144.534 55.0453 144.993 55.2 145.569 55.328C146.06 55.4347 146.524 55.568 146.961 55.728C147.409 55.8773 147.772 56.1067 148.049 56.416C148.337 56.7147 148.481 57.152 148.481 57.728C148.492 58.4427 148.22 59.0347 147.665 59.504C147.121 59.9627 146.38 60.192 145.441 60.192ZM150.865 60.08C150.598 60.08 150.374 59.9947 150.193 59.824C150.022 59.6427 149.937 59.424 149.937 59.168C149.937 58.912 150.022 58.6987 150.193 58.528C150.374 58.3467 150.598 58.256 150.865 58.256C151.121 58.256 151.334 58.3467 151.505 58.528C151.686 58.6987 151.777 58.912 151.777 59.168C151.777 59.424 151.686 59.6427 151.505 59.824C151.334 59.9947 151.121 60.08 150.865 60.08Z" fill="black" fill-opacity="0.5"/>
</svg>
