<svg width="323" height="78" viewBox="0 0 323 78" fill="none" xmlns="http://www.w3.org/2000/svg">
<path d="M1.4 29V28.6L2.72 28.2C3.2 28.0667 3.54667 27.8133 3.76 27.44C3.97333 27.04 4.08 26.5733 4.08 26.04V6.8C3.78667 6.16 3.54667 5.68 3.36 5.36C3.2 5.04 3.01333 4.77333 2.8 4.56C2.58667 4.32 2.29333 4.02667 1.92 3.68L1.24 3V2.6H8.32L21.6 20.72V5.64C21.6 5.10667 21.5067 4.62667 21.32 4.2C21.16 3.77333 20.8133 3.49333 20.28 3.36L18.96 3V2.6H24.68V3L23.6 3.36C23.12 3.52 22.8267 3.8 22.72 4.2C22.6133 4.6 22.56 5.06667 22.56 5.6V29.12H20.32L5.04 8.12V26.04C5.04 26.5733 5.12 27.0267 5.28 27.4C5.44 27.7733 5.77333 28.04 6.28 28.2L7.48 28.6V29H1.4ZM35.6838 9.16C37.4171 9.16 38.8971 9.52 40.1238 10.24C41.3504 10.9333 42.2838 11.8933 42.9238 13.12C43.5904 14.32 43.9238 15.6933 43.9238 17.24C43.9238 17.5333 43.9104 17.84 43.8838 18.16C43.8571 18.4533 43.8038 18.72 43.7238 18.96H31.8038C31.8304 21.84 32.3371 23.92 33.3238 25.2C34.3371 26.4533 35.8304 27.08 37.8038 27.08C39.1371 27.08 40.2171 26.8667 41.0438 26.44C41.8704 26.0133 42.6438 25.3867 43.3638 24.56L43.7638 24.92C42.9371 26.3867 41.8304 27.5333 40.4438 28.36C39.0838 29.1867 37.4438 29.6 35.5238 29.6C33.6304 29.6 31.9504 29.2 30.4838 28.4C29.0171 27.5733 27.8704 26.4 27.0438 24.88C26.2171 23.36 25.8038 21.5467 25.8038 19.44C25.8038 17.2533 26.2838 15.4 27.2438 13.88C28.2038 12.3333 29.4304 11.16 30.9238 10.36C32.4438 9.56 34.0304 9.16 35.6838 9.16ZM35.5638 9.96C34.7904 9.96 34.1238 10.2 33.5638 10.68C33.0304 11.1333 32.6038 11.96 32.2838 13.16C31.9904 14.3333 31.8304 16 31.8038 18.16H38.6438C38.9104 15.2533 38.8038 13.16 38.3238 11.88C37.8438 10.6 36.9238 9.96 35.5638 9.96ZM45.9172 29V28.6L46.4772 28.44C46.9839 28.3067 47.3305 28.08 47.5172 27.76C47.7305 27.44 47.8505 27.0133 47.8772 26.48V13.96C47.8772 13.3733 47.7839 12.9467 47.5972 12.68C47.4105 12.3867 47.0505 12.1867 46.5172 12.08L45.9172 11.92V11.52L52.7572 9.2L53.1572 9.6L53.4772 12.32C54.3572 11.44 55.3572 10.6933 56.4772 10.08C57.6239 9.46667 58.8105 9.16 60.0372 9.16C61.3172 9.16 62.3439 9.42667 63.1172 9.96C63.8905 10.4667 64.4772 11.2667 64.8772 12.36C65.9172 11.3733 67.0372 10.6 68.2372 10.04C69.4639 9.45333 70.6505 9.16 71.7972 9.16C73.6905 9.16 75.0772 9.61333 75.9572 10.52C76.8639 11.4267 77.3172 12.8533 77.3172 14.8V26.52C77.3172 27.56 77.7972 28.2133 78.7572 28.48L79.1972 28.6V29H69.9572V28.6L70.3572 28.48C70.8639 28.32 71.2105 28.08 71.3972 27.76C71.6105 27.44 71.7172 27.0133 71.7172 26.48V14.24C71.7172 13.12 71.5172 12.36 71.1172 11.96C70.7172 11.5333 70.0772 11.32 69.1972 11.32C68.5039 11.32 67.8239 11.48 67.1572 11.8C66.5172 12.0933 65.8372 12.5467 65.1172 13.16C65.2505 13.5867 65.3305 14.0533 65.3572 14.56C65.4105 15.0667 65.4372 15.6 65.4372 16.16V26.52C65.4639 27.56 65.9439 28.2133 66.8772 28.48L67.2372 28.6V29H57.9572V28.6L58.5172 28.44C59.0239 28.28 59.3705 28.0533 59.5572 27.76C59.7705 27.44 59.8772 27.0133 59.8772 26.48V14.28C59.8772 13.2133 59.6772 12.4533 59.2772 12C58.9039 11.5467 58.2505 11.32 57.3172 11.32C56.7039 11.32 56.0905 11.48 55.4772 11.8C54.8639 12.0933 54.2239 12.5333 53.5572 13.12V26.52C53.5572 27.56 54.0239 28.2133 54.9572 28.48L55.3172 28.6V29H45.9172ZM90.8809 29.6C88.8543 29.6 87.0943 29.1867 85.6009 28.36C84.1076 27.5067 82.9476 26.3067 82.1209 24.76C81.3209 23.2133 80.9209 21.4 80.9209 19.32C80.9209 17.24 81.3476 15.44 82.2009 13.92C83.0809 12.4 84.2676 11.2267 85.7609 10.4C87.2809 9.57333 88.9876 9.16 90.8809 9.16C92.7743 9.16 94.4676 9.57333 95.9609 10.4C97.4543 11.2 98.6276 12.36 99.4809 13.88C100.361 15.4 100.801 17.2133 100.801 19.32C100.801 21.4267 100.388 23.2533 99.5609 24.8C98.7609 26.32 97.6143 27.5067 96.1209 28.36C94.6543 29.1867 92.9076 29.6 90.8809 29.6ZM90.8809 28.8C91.8143 28.8 92.5609 28.5333 93.1209 28C93.6809 27.4667 94.0809 26.52 94.3209 25.16C94.5876 23.8 94.7209 21.88 94.7209 19.4C94.7209 16.8933 94.5876 14.96 94.3209 13.6C94.0809 12.24 93.6809 11.2933 93.1209 10.76C92.5609 10.2267 91.8143 9.96 90.8809 9.96C89.9476 9.96 89.1876 10.2267 88.6009 10.76C88.0409 11.2933 87.6276 12.24 87.3609 13.6C87.1209 14.96 87.0009 16.8933 87.0009 19.4C87.0009 21.88 87.1209 23.8 87.3609 25.16C87.6276 26.52 88.0409 27.4667 88.6009 28C89.1876 28.5333 89.9476 28.8 90.8809 28.8ZM102.558 29V28.6L103.158 28.44C103.691 28.28 104.051 28.04 104.238 27.72C104.451 27.4 104.558 26.9867 104.558 26.48V13.96C104.558 13.3733 104.451 12.9467 104.238 12.68C104.051 12.3867 103.691 12.1867 103.158 12.08L102.558 11.92V11.52L109.438 9.2L109.838 9.6L110.198 13.04V13.36C110.571 12.6133 111.051 11.9333 111.638 11.32C112.251 10.68 112.918 10.16 113.638 9.76C114.384 9.36 115.118 9.16 115.838 9.16C116.851 9.16 117.624 9.44 118.158 10C118.691 10.56 118.958 11.2667 118.958 12.12C118.958 13.0267 118.691 13.7333 118.158 14.24C117.651 14.72 117.038 14.96 116.318 14.96C115.198 14.96 114.211 14.4 113.358 13.28L113.278 13.2C113.011 12.8267 112.704 12.6267 112.358 12.6C112.011 12.5467 111.691 12.7067 111.398 13.08C111.131 13.32 110.904 13.6133 110.718 13.96C110.558 14.28 110.398 14.6533 110.238 15.08V26.24C110.238 27.3067 110.704 27.9733 111.638 28.24L112.918 28.6V29H102.558ZM129.629 9.16C131.362 9.16 132.842 9.52 134.069 10.24C135.296 10.9333 136.229 11.8933 136.869 13.12C137.536 14.32 137.869 15.6933 137.869 17.24C137.869 17.5333 137.856 17.84 137.829 18.16C137.802 18.4533 137.749 18.72 137.669 18.96H125.749C125.776 21.84 126.282 23.92 127.269 25.2C128.282 26.4533 129.776 27.08 131.749 27.08C133.082 27.08 134.162 26.8667 134.989 26.44C135.816 26.0133 136.589 25.3867 137.309 24.56L137.709 24.92C136.882 26.3867 135.776 27.5333 134.389 28.36C133.029 29.1867 131.389 29.6 129.469 29.6C127.576 29.6 125.896 29.2 124.429 28.4C122.962 27.5733 121.816 26.4 120.989 24.88C120.162 23.36 119.749 21.5467 119.749 19.44C119.749 17.2533 120.229 15.4 121.189 13.88C122.149 12.3333 123.376 11.16 124.869 10.36C126.389 9.56 127.976 9.16 129.629 9.16ZM129.509 9.96C128.736 9.96 128.069 10.2 127.509 10.68C126.976 11.1333 126.549 11.96 126.229 13.16C125.936 14.3333 125.776 16 125.749 18.16H132.589C132.856 15.2533 132.749 13.16 132.269 11.88C131.789 10.6 130.869 9.96 129.509 9.96ZM148.653 29V28.6L149.173 28.48C149.68 28.3467 150.08 28.12 150.373 27.8C150.667 27.4533 150.813 27.0133 150.813 26.48C150.813 25.4933 150.813 24.52 150.813 23.56C150.84 22.5733 150.853 21.5867 150.853 20.6V10.56H148.613V10.12L149.493 9.96C150.027 9.90667 150.413 9.72 150.653 9.4C150.893 9.08 151.067 8.64 151.173 8.08C151.44 7.04 151.827 6.13333 152.333 5.36C152.867 4.56 153.467 3.82666 154.133 3.16C155.147 2.2 156.213 1.53333 157.333 1.16C158.48 0.759999 159.6 0.559999 160.693 0.559999C161.76 0.559999 162.733 0.786666 163.613 1.24C164.493 1.66667 164.933 2.38667 164.933 3.4C164.933 4.12 164.72 4.69333 164.293 5.12C163.867 5.52 163.267 5.72 162.493 5.72C161.853 5.72 161.267 5.54667 160.733 5.2C160.2 4.85333 159.68 4.24 159.173 3.36L158.613 2.68C158.32 2.30666 158.027 2.13333 157.733 2.16C157.44 2.16 157.227 2.37333 157.093 2.8C156.907 3.73333 156.76 4.82667 156.653 6.08C156.573 7.33333 156.533 8.56 156.533 9.76H161.013V10.56H156.533V26.4C156.533 27.4133 157.067 28.0667 158.133 28.36L159.133 28.6V29H148.653ZM168.124 29.6C166.578 29.6 165.271 29.16 164.204 28.28C163.164 27.4 162.644 26.1333 162.644 24.48C162.644 23.2267 163.284 22.08 164.564 21.04C165.844 19.9733 167.858 19.1733 170.604 18.64C171.031 18.56 171.511 18.48 172.044 18.4C172.578 18.2933 173.138 18.1867 173.724 18.08V14.92C173.724 13.1067 173.498 11.84 173.044 11.12C172.618 10.3733 171.938 10 171.004 10C170.364 10 169.858 10.2133 169.484 10.64C169.111 11.04 168.871 11.7467 168.764 12.76L168.684 13.2C168.631 14.3467 168.351 15.1867 167.844 15.72C167.338 16.2533 166.711 16.52 165.964 16.52C165.271 16.52 164.698 16.3067 164.244 15.88C163.791 15.4533 163.564 14.88 163.564 14.16C163.564 13.0667 163.938 12.1467 164.684 11.4C165.458 10.6533 166.471 10.0933 167.724 9.72C168.978 9.34667 170.338 9.16 171.804 9.16C174.178 9.16 176.004 9.74667 177.284 10.92C178.591 12.0667 179.244 13.9467 179.244 16.56V25.4C179.244 26.6 179.804 27.2 180.924 27.2H181.804L182.164 27.52C181.658 28.16 181.098 28.6533 180.484 29C179.898 29.3467 179.058 29.52 177.964 29.52C176.791 29.52 175.858 29.2533 175.164 28.72C174.498 28.16 174.058 27.4267 173.844 26.52C173.044 27.3733 172.218 28.1067 171.364 28.72C170.538 29.3067 169.458 29.6 168.124 29.6ZM170.564 27.16C171.098 27.16 171.591 27.04 172.044 26.8C172.524 26.5333 173.084 26.1333 173.724 25.6V18.88C173.458 18.9333 173.191 18.9867 172.924 19.04C172.658 19.0933 172.351 19.1467 172.004 19.2C170.778 19.52 169.791 20.0667 169.044 20.84C168.324 21.5867 167.964 22.6 167.964 23.88C167.964 24.9733 168.218 25.8 168.724 26.36C169.231 26.8933 169.844 27.16 170.564 27.16ZM192.908 29.6C191.094 29.6 189.441 29.2133 187.948 28.44C186.481 27.64 185.308 26.4933 184.428 25C183.574 23.48 183.148 21.6267 183.148 19.44C183.148 17.28 183.614 15.44 184.548 13.92C185.508 12.3733 186.774 11.2 188.348 10.4C189.948 9.57333 191.694 9.16 193.588 9.16C195.134 9.16 196.441 9.41333 197.508 9.92C198.574 10.4267 199.388 11.0933 199.948 11.92C200.508 12.72 200.788 13.56 200.788 14.44C200.788 15.1867 200.561 15.7733 200.108 16.2C199.654 16.6 199.068 16.8 198.348 16.8C197.574 16.8 196.948 16.52 196.468 15.96C195.988 15.4 195.708 14.6667 195.628 13.76C195.601 13.1733 195.614 12.68 195.668 12.28C195.721 11.8533 195.721 11.4267 195.668 11C195.561 10.5467 195.388 10.2533 195.148 10.12C194.934 9.96 194.628 9.88 194.228 9.88C192.601 9.88 191.334 10.5867 190.428 12C189.548 13.4133 189.108 15.6667 189.108 18.76C189.108 21.4533 189.601 23.52 190.588 24.96C191.601 26.3733 193.148 27.08 195.228 27.08C196.481 27.08 197.494 26.8533 198.268 26.4C199.041 25.9467 199.788 25.2667 200.508 24.36L200.908 24.68C200.241 26.2533 199.214 27.4667 197.828 28.32C196.441 29.1733 194.801 29.6 192.908 29.6ZM207.553 7.08C206.646 7.08 205.873 6.8 205.233 6.24C204.62 5.65333 204.313 4.92 204.313 4.04C204.313 3.13333 204.62 2.4 205.233 1.84C205.873 1.28 206.646 0.999998 207.553 0.999998C208.46 0.999998 209.22 1.28 209.833 1.84C210.446 2.4 210.753 3.13333 210.753 4.04C210.753 4.92 210.446 5.65333 209.833 6.24C209.22 6.8 208.46 7.08 207.553 7.08ZM202.833 29V28.6L203.393 28.44C203.926 28.28 204.286 28.04 204.473 27.72C204.686 27.4 204.793 26.9733 204.793 26.44V13.92C204.793 13.36 204.686 12.9467 204.473 12.68C204.286 12.3867 203.926 12.1867 203.393 12.08L202.833 11.96V11.56L210.153 9.2L210.553 9.6L210.433 15.28V26.48C210.433 27.0133 210.526 27.44 210.713 27.76C210.926 28.08 211.286 28.32 211.793 28.48L212.193 28.6V29H202.833ZM214.084 29V28.6L214.564 28.44C215.524 28.12 216.004 27.4533 216.004 26.44V5.04C216.004 4.50667 215.897 4.10667 215.684 3.84C215.471 3.54667 215.097 3.33333 214.564 3.2L214.044 3.08V2.68L221.364 0.959999L221.844 1.32L221.684 6.92V20.6C221.684 21.5867 221.684 22.5733 221.684 23.56C221.711 24.52 221.724 25.48 221.724 26.44C221.724 26.9733 221.831 27.4133 222.044 27.76C222.257 28.08 222.617 28.32 223.124 28.48L223.644 28.6V29H214.084ZM230.209 7.08C229.303 7.08 228.529 6.8 227.889 6.24C227.276 5.65333 226.969 4.92 226.969 4.04C226.969 3.13333 227.276 2.4 227.889 1.84C228.529 1.28 229.303 0.999998 230.209 0.999998C231.116 0.999998 231.876 1.28 232.489 1.84C233.103 2.4 233.409 3.13333 233.409 4.04C233.409 4.92 233.103 5.65333 232.489 6.24C231.876 6.8 231.116 7.08 230.209 7.08ZM225.489 29V28.6L226.049 28.44C226.583 28.28 226.943 28.04 227.129 27.72C227.343 27.4 227.449 26.9733 227.449 26.44V13.92C227.449 13.36 227.343 12.9467 227.129 12.68C226.943 12.3867 226.583 12.1867 226.049 12.08L225.489 11.96V11.56L232.809 9.2L233.209 9.6L233.089 15.28V26.48C233.089 27.0133 233.183 27.44 233.369 27.76C233.583 28.08 233.943 28.32 234.449 28.48L234.849 28.6V29H225.489ZM243.54 29.6C242.234 29.6 241.06 29.44 240.02 29.12C238.98 28.8267 238.02 28.4533 237.14 28L237.18 23.24H237.58L238.94 25.64C239.527 26.7067 240.167 27.5067 240.86 28.04C241.58 28.5467 242.487 28.8 243.58 28.8C244.86 28.8 245.887 28.52 246.66 27.96C247.46 27.3733 247.86 26.6 247.86 25.64C247.86 24.76 247.58 24.04 247.02 23.48C246.46 22.92 245.42 22.4133 243.9 21.96L242.22 21.44C240.594 20.96 239.314 20.2133 238.38 19.2C237.447 18.1867 236.98 16.9467 236.98 15.48C236.98 13.72 237.674 12.2267 239.06 11C240.447 9.77333 242.434 9.16 245.02 9.16C246.06 9.16 247.034 9.28 247.94 9.52C248.874 9.73333 249.767 10.0667 250.62 10.52L250.38 14.84H249.98L248.58 12.36C248.074 11.48 247.567 10.8667 247.06 10.52C246.58 10.1467 245.847 9.96 244.86 9.96C243.954 9.96 243.1 10.2133 242.3 10.72C241.5 11.2267 241.1 11.9467 241.1 12.88C241.1 13.7867 241.434 14.5067 242.1 15.04C242.794 15.5733 243.807 16.0667 245.14 16.52L246.94 17.04C248.86 17.6267 250.234 18.44 251.06 19.48C251.887 20.4933 252.3 21.72 252.3 23.16C252.3 25.1067 251.527 26.6667 249.98 27.84C248.46 29.0133 246.314 29.6 243.54 29.6ZM258.725 7.08C257.818 7.08 257.045 6.8 256.405 6.24C255.792 5.65333 255.485 4.92 255.485 4.04C255.485 3.13333 255.792 2.4 256.405 1.84C257.045 1.28 257.818 0.999998 258.725 0.999998C259.632 0.999998 260.392 1.28 261.005 1.84C261.618 2.4 261.925 3.13333 261.925 4.04C261.925 4.92 261.618 5.65333 261.005 6.24C260.392 6.8 259.632 7.08 258.725 7.08ZM254.005 29V28.6L254.565 28.44C255.098 28.28 255.458 28.04 255.645 27.72C255.858 27.4 255.965 26.9733 255.965 26.44V13.92C255.965 13.36 255.858 12.9467 255.645 12.68C255.458 12.3867 255.098 12.1867 254.565 12.08L254.005 11.96V11.56L261.325 9.2L261.725 9.6L261.605 15.28V26.48C261.605 27.0133 261.698 27.44 261.885 27.76C262.098 28.08 262.458 28.32 262.965 28.48L263.365 28.6V29H254.005ZM0.8 77V76.6L1.36 76.44C1.86667 76.3067 2.21333 76.08 2.4 75.76C2.61333 75.44 2.73333 75.0133 2.76 74.48V61.96C2.76 61.3733 2.66667 60.9467 2.48 60.68C2.29333 60.3867 1.93333 60.1867 1.4 60.08L0.8 59.92V59.52L7.64 57.2L8.04 57.6L8.36 60.32C9.24 59.44 10.24 58.6933 11.36 58.08C12.5067 57.4667 13.6933 57.16 14.92 57.16C16.2 57.16 17.2267 57.4267 18 57.96C18.7733 58.4667 19.36 59.2667 19.76 60.36C20.8 59.3733 21.92 58.6 23.12 58.04C24.3467 57.4533 25.5333 57.16 26.68 57.16C28.5733 57.16 29.96 57.6133 30.84 58.52C31.7467 59.4267 32.2 60.8533 32.2 62.8V74.52C32.2 75.56 32.68 76.2133 33.64 76.48L34.08 76.6V77H24.84V76.6L25.24 76.48C25.7467 76.32 26.0933 76.08 26.28 75.76C26.4933 75.44 26.6 75.0133 26.6 74.48V62.24C26.6 61.12 26.4 60.36 26 59.96C25.6 59.5333 24.96 59.32 24.08 59.32C23.3867 59.32 22.7067 59.48 22.04 59.8C21.4 60.0933 20.72 60.5467 20 61.16C20.1333 61.5867 20.2133 62.0533 20.24 62.56C20.2933 63.0667 20.32 63.6 20.32 64.16V74.52C20.3467 75.56 20.8267 76.2133 21.76 76.48L22.12 76.6V77H12.84V76.6L13.4 76.44C13.9067 76.28 14.2533 76.0533 14.44 75.76C14.6533 75.44 14.76 75.0133 14.76 74.48V62.28C14.76 61.2133 14.56 60.4533 14.16 60C13.7867 59.5467 13.1333 59.32 12.2 59.32C11.5867 59.32 10.9733 59.48 10.36 59.8C9.74667 60.0933 9.10667 60.5333 8.44 61.12V74.52C8.44 75.56 8.90667 76.2133 9.84 76.48L10.2 76.6V77H0.8ZM45.6838 57.16C47.4171 57.16 48.8971 57.52 50.1238 58.24C51.3504 58.9333 52.2838 59.8933 52.9238 61.12C53.5904 62.32 53.9238 63.6933 53.9238 65.24C53.9238 65.5333 53.9104 65.84 53.8838 66.16C53.8571 66.4533 53.8038 66.72 53.7238 66.96H41.8038C41.8304 69.84 42.3371 71.92 43.3238 73.2C44.3371 74.4533 45.8304 75.08 47.8038 75.08C49.1371 75.08 50.2171 74.8667 51.0438 74.44C51.8704 74.0133 52.6438 73.3867 53.3638 72.56L53.7638 72.92C52.9371 74.3867 51.8304 75.5333 50.4438 76.36C49.0838 77.1867 47.4438 77.6 45.5238 77.6C43.6304 77.6 41.9504 77.2 40.4838 76.4C39.0171 75.5733 37.8704 74.4 37.0438 72.88C36.2171 71.36 35.8038 69.5467 35.8038 67.44C35.8038 65.2533 36.2838 63.4 37.2438 61.88C38.2038 60.3333 39.4304 59.16 40.9238 58.36C42.4438 57.56 44.0304 57.16 45.6838 57.16ZM45.5638 57.96C44.7904 57.96 44.1238 58.2 43.5638 58.68C43.0304 59.1333 42.6038 59.96 42.2838 61.16C41.9904 62.3333 41.8304 64 41.8038 66.16H48.6438C48.9104 63.2533 48.8038 61.16 48.3238 59.88C47.8438 58.6 46.9238 57.96 45.5638 57.96ZM64.3972 77.6C62.8239 77.6 61.4105 77.2533 60.1572 76.56C58.9039 75.84 57.9039 74.7467 57.1572 73.28C56.4372 71.7867 56.0772 69.88 56.0772 67.56C56.0772 65.2133 56.4905 63.28 57.3172 61.76C58.1439 60.2133 59.2372 59.0667 60.5972 58.32C61.9572 57.5467 63.4372 57.16 65.0372 57.16C65.9705 57.16 66.8639 57.2533 67.7172 57.44C68.5705 57.6267 69.3305 57.9067 69.9972 58.28V53.08C69.9972 52.52 69.9039 52.1067 69.7172 51.84C69.5572 51.5733 69.1972 51.3867 68.6372 51.28L67.8772 51.12V50.72L75.1572 48.96L75.5972 49.32L75.4372 54.92V74.48C75.4372 75.0133 75.5305 75.4533 75.7172 75.8C75.9039 76.12 76.2505 76.3467 76.7572 76.48L77.1172 76.6V77L70.2772 77.44L69.9172 76C69.1972 76.48 68.3705 76.8667 67.4372 77.16C66.5305 77.4533 65.5172 77.6 64.3972 77.6ZM66.7172 76.12C67.8372 76.12 68.8639 75.7867 69.7972 75.12V59.24C68.8105 58.6 67.7972 58.28 66.7572 58.28C65.4772 58.28 64.3839 59.0267 63.4772 60.52C62.5705 61.9867 62.1172 64.3067 62.1172 67.48C62.1172 70.6533 62.5439 72.8933 63.3972 74.2C64.2505 75.48 65.3572 76.12 66.7172 76.12ZM83.6859 55.08C82.7793 55.08 82.0059 54.8 81.3659 54.24C80.7526 53.6533 80.4459 52.92 80.4459 52.04C80.4459 51.1333 80.7526 50.4 81.3659 49.84C82.0059 49.28 82.7793 49 83.6859 49C84.5926 49 85.3526 49.28 85.9659 49.84C86.5793 50.4 86.8859 51.1333 86.8859 52.04C86.8859 52.92 86.5793 53.6533 85.9659 54.24C85.3526 54.8 84.5926 55.08 83.6859 55.08ZM78.9659 77V76.6L79.5259 76.44C80.0593 76.28 80.4193 76.04 80.6059 75.72C80.8193 75.4 80.9259 74.9733 80.9259 74.44V61.92C80.9259 61.36 80.8193 60.9467 80.6059 60.68C80.4193 60.3867 80.0593 60.1867 79.5259 60.08L78.9659 59.96V59.56L86.2859 57.2L86.6859 57.6L86.5659 63.28V74.48C86.5659 75.0133 86.6593 75.44 86.8459 75.76C87.0593 76.08 87.4193 76.32 87.9259 76.48L88.3259 76.6V77H78.9659ZM100.217 77.6C98.1902 77.6 96.4302 77.1867 94.9369 76.36C93.4435 75.5067 92.2835 74.3067 91.4569 72.76C90.6569 71.2133 90.2569 69.4 90.2569 67.32C90.2569 65.24 90.6835 63.44 91.5369 61.92C92.4169 60.4 93.6035 59.2267 95.0969 58.4C96.6169 57.5733 98.3235 57.16 100.217 57.16C102.11 57.16 103.804 57.5733 105.297 58.4C106.79 59.2 107.964 60.36 108.817 61.88C109.697 63.4 110.137 65.2133 110.137 67.32C110.137 69.4267 109.724 71.2533 108.897 72.8C108.097 74.32 106.95 75.5067 105.457 76.36C103.99 77.1867 102.244 77.6 100.217 77.6ZM100.217 76.8C101.15 76.8 101.897 76.5333 102.457 76C103.017 75.4667 103.417 74.52 103.657 73.16C103.924 71.8 104.057 69.88 104.057 67.4C104.057 64.8933 103.924 62.96 103.657 61.6C103.417 60.24 103.017 59.2933 102.457 58.76C101.897 58.2267 101.15 57.96 100.217 57.96C99.2835 57.96 98.5235 58.2267 97.9369 58.76C97.3769 59.2933 96.9635 60.24 96.6969 61.6C96.4569 62.96 96.3369 64.8933 96.3369 67.4C96.3369 69.88 96.4569 71.8 96.6969 73.16C96.9635 74.52 97.3769 75.4667 97.9369 76C98.5235 76.5333 99.2835 76.8 100.217 76.8ZM122.048 77.6C120.235 77.6 118.581 77.2133 117.088 76.44C115.621 75.64 114.448 74.4933 113.568 73C112.715 71.48 112.288 69.6267 112.288 67.44C112.288 65.28 112.755 63.44 113.688 61.92C114.648 60.3733 115.915 59.2 117.488 58.4C119.088 57.5733 120.835 57.16 122.728 57.16C124.275 57.16 125.581 57.4133 126.648 57.92C127.715 58.4267 128.528 59.0933 129.088 59.92C129.648 60.72 129.928 61.56 129.928 62.44C129.928 63.1867 129.701 63.7733 129.248 64.2C128.795 64.6 128.208 64.8 127.488 64.8C126.715 64.8 126.088 64.52 125.608 63.96C125.128 63.4 124.848 62.6667 124.768 61.76C124.741 61.1733 124.755 60.68 124.808 60.28C124.861 59.8533 124.861 59.4267 124.808 59C124.701 58.5467 124.528 58.2533 124.288 58.12C124.075 57.96 123.768 57.88 123.368 57.88C121.741 57.88 120.475 58.5867 119.568 60C118.688 61.4133 118.248 63.6667 118.248 66.76C118.248 69.4533 118.741 71.52 119.728 72.96C120.741 74.3733 122.288 75.08 124.368 75.08C125.621 75.08 126.635 74.8533 127.408 74.4C128.181 73.9467 128.928 73.2667 129.648 72.36L130.048 72.68C129.381 74.2533 128.355 75.4667 126.968 76.32C125.581 77.1733 123.941 77.6 122.048 77.6ZM131.894 77V76.6L132.494 76.44C133.027 76.28 133.387 76.04 133.574 75.72C133.787 75.4 133.894 74.9867 133.894 74.48V61.96C133.894 61.3733 133.787 60.9467 133.574 60.68C133.387 60.3867 133.027 60.1867 132.494 60.08L131.894 59.92V59.52L138.774 57.2L139.174 57.6L139.534 61.04V61.36C139.907 60.6133 140.387 59.9333 140.974 59.32C141.587 58.68 142.254 58.16 142.974 57.76C143.72 57.36 144.454 57.16 145.174 57.16C146.187 57.16 146.96 57.44 147.494 58C148.027 58.56 148.294 59.2667 148.294 60.12C148.294 61.0267 148.027 61.7333 147.494 62.24C146.987 62.72 146.374 62.96 145.654 62.96C144.534 62.96 143.547 62.4 142.694 61.28L142.614 61.2C142.347 60.8267 142.04 60.6267 141.694 60.6C141.347 60.5467 141.027 60.7067 140.734 61.08C140.467 61.32 140.24 61.6133 140.054 61.96C139.894 62.28 139.734 62.6533 139.574 63.08V74.24C139.574 75.3067 140.04 75.9733 140.974 76.24L142.254 76.6V77H131.894ZM158.965 57.16C160.698 57.16 162.178 57.52 163.405 58.24C164.632 58.9333 165.565 59.8933 166.205 61.12C166.872 62.32 167.205 63.6933 167.205 65.24C167.205 65.5333 167.192 65.84 167.165 66.16C167.138 66.4533 167.085 66.72 167.005 66.96H155.085C155.112 69.84 155.618 71.92 156.605 73.2C157.618 74.4533 159.112 75.08 161.085 75.08C162.418 75.08 163.498 74.8667 164.325 74.44C165.152 74.0133 165.925 73.3867 166.645 72.56L167.045 72.92C166.218 74.3867 165.112 75.5333 163.725 76.36C162.365 77.1867 160.725 77.6 158.805 77.6C156.912 77.6 155.232 77.2 153.765 76.4C152.298 75.5733 151.152 74.4 150.325 72.88C149.498 71.36 149.085 69.5467 149.085 67.44C149.085 65.2533 149.565 63.4 150.525 61.88C151.485 60.3333 152.712 59.16 154.205 58.36C155.725 57.56 157.312 57.16 158.965 57.16ZM158.845 57.96C158.072 57.96 157.405 58.2 156.845 58.68C156.312 59.1333 155.885 59.96 155.565 61.16C155.272 62.3333 155.112 64 155.085 66.16H161.925C162.192 63.2533 162.085 61.16 161.605 59.88C161.125 58.6 160.205 57.96 158.845 57.96ZM169.198 77V76.6L169.758 76.44C170.265 76.3067 170.612 76.08 170.798 75.76C171.012 75.44 171.132 75.0133 171.158 74.48V61.96C171.158 61.3733 171.065 60.9467 170.878 60.68C170.692 60.3867 170.332 60.1867 169.798 60.08L169.198 59.92V59.52L176.038 57.2L176.438 57.6L176.758 60.32C177.638 59.44 178.638 58.6933 179.758 58.08C180.905 57.4667 182.092 57.16 183.318 57.16C184.598 57.16 185.625 57.4267 186.398 57.96C187.172 58.4667 187.758 59.2667 188.158 60.36C189.198 59.3733 190.318 58.6 191.518 58.04C192.745 57.4533 193.932 57.16 195.078 57.16C196.972 57.16 198.358 57.6133 199.238 58.52C200.145 59.4267 200.598 60.8533 200.598 62.8V74.52C200.598 75.56 201.078 76.2133 202.038 76.48L202.478 76.6V77H193.238V76.6L193.638 76.48C194.145 76.32 194.492 76.08 194.678 75.76C194.892 75.44 194.998 75.0133 194.998 74.48V62.24C194.998 61.12 194.798 60.36 194.398 59.96C193.998 59.5333 193.358 59.32 192.478 59.32C191.785 59.32 191.105 59.48 190.438 59.8C189.798 60.0933 189.118 60.5467 188.398 61.16C188.532 61.5867 188.612 62.0533 188.638 62.56C188.692 63.0667 188.718 63.6 188.718 64.16V74.52C188.745 75.56 189.225 76.2133 190.158 76.48L190.518 76.6V77H181.238V76.6L181.798 76.44C182.305 76.28 182.652 76.0533 182.838 75.76C183.052 75.44 183.158 75.0133 183.158 74.48V62.28C183.158 61.2133 182.958 60.4533 182.558 60C182.185 59.5467 181.532 59.32 180.598 59.32C179.985 59.32 179.372 59.48 178.758 59.8C178.145 60.0933 177.505 60.5333 176.838 61.12V74.52C176.838 75.56 177.305 76.2133 178.238 76.48L178.598 76.6V77H169.198ZM218.593 77.6C217.046 77.6 215.74 77.16 214.673 76.28C213.633 75.4 213.113 74.1333 213.113 72.48C213.113 71.2267 213.753 70.08 215.033 69.04C216.313 67.9733 218.326 67.1733 221.073 66.64C221.5 66.56 221.98 66.48 222.513 66.4C223.046 66.2933 223.606 66.1867 224.193 66.08V62.92C224.193 61.1067 223.966 59.84 223.513 59.12C223.086 58.3733 222.406 58 221.473 58C220.833 58 220.326 58.2133 219.953 58.64C219.58 59.04 219.34 59.7467 219.233 60.76L219.153 61.2C219.1 62.3467 218.82 63.1867 218.313 63.72C217.806 64.2533 217.18 64.52 216.433 64.52C215.74 64.52 215.166 64.3067 214.713 63.88C214.26 63.4533 214.033 62.88 214.033 62.16C214.033 61.0667 214.406 60.1467 215.153 59.4C215.926 58.6533 216.94 58.0933 218.193 57.72C219.446 57.3467 220.806 57.16 222.273 57.16C224.646 57.16 226.473 57.7467 227.753 58.92C229.06 60.0667 229.713 61.9467 229.713 64.56V73.4C229.713 74.6 230.273 75.2 231.393 75.2H232.273L232.633 75.52C232.126 76.16 231.566 76.6533 230.953 77C230.366 77.3467 229.526 77.52 228.433 77.52C227.26 77.52 226.326 77.2533 225.633 76.72C224.966 76.16 224.526 75.4267 224.313 74.52C223.513 75.3733 222.686 76.1067 221.833 76.72C221.006 77.3067 219.926 77.6 218.593 77.6ZM221.033 75.16C221.566 75.16 222.06 75.04 222.513 74.8C222.993 74.5333 223.553 74.1333 224.193 73.6V66.88C223.926 66.9333 223.66 66.9867 223.393 67.04C223.126 67.0933 222.82 67.1467 222.473 67.2C221.246 67.52 220.26 68.0667 219.513 68.84C218.793 69.5867 218.433 70.6 218.433 71.88C218.433 72.9733 218.686 73.8 219.193 74.36C219.7 74.8933 220.313 75.16 221.033 75.16ZM241.056 77.6C239.35 77.6 238.016 77.1733 237.056 76.32C236.123 75.4667 235.656 74.1067 235.656 72.24V58.56H232.896V58.16L233.856 58C234.683 57.8133 235.39 57.5467 235.976 57.2C236.59 56.8533 237.19 56.3867 237.776 55.8L241.056 52.16H241.456L241.336 57.76H245.816V58.56H241.296V72.96C241.296 73.8933 241.496 74.6 241.896 75.08C242.323 75.56 242.856 75.8 243.496 75.8C244.056 75.8 244.55 75.6667 244.976 75.4C245.403 75.1067 245.83 74.72 246.256 74.24L246.656 74.64C246.123 75.5467 245.39 76.2667 244.456 76.8C243.523 77.3333 242.39 77.6 241.056 77.6ZM265.1 77.6C263.527 77.6 262.114 77.2533 260.86 76.56C259.607 75.84 258.607 74.7467 257.86 73.28C257.14 71.7867 256.78 69.88 256.78 67.56C256.78 65.2133 257.194 63.28 258.02 61.76C258.847 60.2133 259.94 59.0667 261.3 58.32C262.66 57.5467 264.14 57.16 265.74 57.16C266.674 57.16 267.567 57.2533 268.42 57.44C269.274 57.6267 270.034 57.9067 270.7 58.28V53.08C270.7 52.52 270.607 52.1067 270.42 51.84C270.26 51.5733 269.9 51.3867 269.34 51.28L268.58 51.12V50.72L275.86 48.96L276.3 49.32L276.14 54.92V74.48C276.14 75.0133 276.234 75.4533 276.42 75.8C276.607 76.12 276.954 76.3467 277.46 76.48L277.82 76.6V77L270.98 77.44L270.62 76C269.9 76.48 269.074 76.8667 268.14 77.16C267.234 77.4533 266.22 77.6 265.1 77.6ZM267.42 76.12C268.54 76.12 269.567 75.7867 270.5 75.12V59.24C269.514 58.6 268.5 58.28 267.46 58.28C266.18 58.28 265.087 59.0267 264.18 60.52C263.274 61.9867 262.82 64.3067 262.82 67.48C262.82 70.6533 263.247 72.8933 264.1 74.2C264.954 75.48 266.06 76.12 267.42 76.12ZM286.673 77.6C285.633 77.6 284.673 77.4 283.793 77C282.939 76.6 282.259 75.96 281.753 75.08C281.273 74.1733 281.046 72.9867 281.073 71.52L281.193 61.24C281.193 60.6267 281.086 60.1867 280.873 59.92C280.659 59.6533 280.326 59.4667 279.873 59.36L279.393 59.2V58.8L286.553 57.4L286.953 57.8L286.753 63.48V73.12C286.753 73.9733 286.993 74.6 287.473 75C287.979 75.4 288.606 75.6 289.353 75.6C290.099 75.6 290.766 75.4933 291.353 75.28C291.939 75.0667 292.526 74.7467 293.113 74.32L293.273 61.28C293.273 60.6667 293.179 60.24 292.993 60C292.806 59.7333 292.459 59.5467 291.953 59.44L291.553 59.32V58.92L298.553 57.4L298.953 57.8L298.833 63.48V74.32C298.833 74.9067 298.913 75.36 299.073 75.68C299.233 76 299.579 76.2667 300.113 76.48L300.513 76.6V77L293.513 77.4L293.153 75.04C292.273 75.76 291.313 76.3733 290.273 76.88C289.259 77.36 288.059 77.6 286.673 77.6ZM312.092 77.6C310.065 77.6 308.305 77.1867 306.812 76.36C305.319 75.5067 304.159 74.3067 303.332 72.76C302.532 71.2133 302.132 69.4 302.132 67.32C302.132 65.24 302.559 63.44 303.412 61.92C304.292 60.4 305.479 59.2267 306.972 58.4C308.492 57.5733 310.199 57.16 312.092 57.16C313.985 57.16 315.679 57.5733 317.172 58.4C318.665 59.2 319.839 60.36 320.692 61.88C321.572 63.4 322.012 65.2133 322.012 67.32C322.012 69.4267 321.599 71.2533 320.772 72.8C319.972 74.32 318.825 75.5067 317.332 76.36C315.865 77.1867 314.119 77.6 312.092 77.6ZM312.092 76.8C313.025 76.8 313.772 76.5333 314.332 76C314.892 75.4667 315.292 74.52 315.532 73.16C315.799 71.8 315.932 69.88 315.932 67.4C315.932 64.8933 315.799 62.96 315.532 61.6C315.292 60.24 314.892 59.2933 314.332 58.76C313.772 58.2267 313.025 57.96 312.092 57.96C311.159 57.96 310.399 58.2267 309.812 58.76C309.252 59.2933 308.839 60.24 308.572 61.6C308.332 62.96 308.212 64.8933 308.212 67.4C308.212 69.88 308.332 71.8 308.572 73.16C308.839 74.52 309.252 75.4667 309.812 76C310.399 76.5333 311.159 76.8 312.092 76.8Z" fill="black"/>
</svg>
