<svg width="127" height="13" viewBox="0 0 127 13" fill="none" xmlns="http://www.w3.org/2000/svg">
<path d="M4.752 12.192C3.93067 12.192 3.216 12.0427 2.608 11.744C2 11.4453 1.53067 11.0293 1.2 10.496C0.869333 9.96267 0.704 9.344 0.704 8.64H2.112C2.112 9.07733 2.21333 9.48267 2.416 9.856C2.61867 10.2187 2.912 10.512 3.296 10.736C3.69067 10.9493 4.176 11.056 4.752 11.056C5.50933 11.056 6.096 10.8747 6.512 10.512C6.928 10.1493 7.136 9.696 7.136 9.152C7.136 8.704 7.04 8.34667 6.848 8.08C6.656 7.80267 6.39467 7.57867 6.064 7.408C5.744 7.23733 5.37067 7.088 4.944 6.96C4.528 6.832 4.09067 6.688 3.632 6.528C2.768 6.22933 2.128 5.86133 1.712 5.424C1.296 4.976 1.088 4.39467 1.088 3.68C1.07733 3.08267 1.216 2.55467 1.504 2.096C1.792 1.62667 2.19733 1.264 2.72 1.008C3.25333 0.741333 3.88267 0.608 4.608 0.608C5.32267 0.608 5.94133 0.741333 6.464 1.008C6.99733 1.27467 7.408 1.64267 7.696 2.112C7.99467 2.58133 8.14933 3.11467 8.16 3.712H6.752C6.752 3.40267 6.672 3.09867 6.512 2.8C6.352 2.49067 6.10667 2.24 5.776 2.048C5.456 1.856 5.05067 1.76 4.56 1.76C3.952 1.74933 3.45067 1.904 3.056 2.224C2.672 2.544 2.48 2.98667 2.48 3.552C2.48 4.032 2.61333 4.4 2.88 4.656C3.15733 4.912 3.54133 5.12533 4.032 5.296C4.52267 5.456 5.088 5.64267 5.728 5.856C6.26133 6.048 6.74133 6.272 7.168 6.528C7.59467 6.784 7.92533 7.11467 8.16 7.52C8.40533 7.92533 8.528 8.44267 8.528 9.072C8.528 9.60533 8.38933 10.112 8.112 10.592C7.83467 11.0613 7.41333 11.4453 6.848 11.744C6.29333 12.0427 5.59467 12.192 4.752 12.192ZM20.146 12.192C19.0473 12.192 18.098 11.952 17.298 11.472C16.5087 10.9813 15.8953 10.304 15.458 9.44C15.0207 8.56533 14.802 7.552 14.802 6.4C14.802 5.25867 15.0207 4.256 15.458 3.392C15.8953 2.51733 16.5087 1.83467 17.298 1.344C18.098 0.853333 19.0473 0.608 20.146 0.608C21.426 0.608 22.466 0.917333 23.266 1.536C24.0767 2.144 24.594 2.99733 24.818 4.096H23.33C23.1593 3.40267 22.8073 2.848 22.274 2.432C21.7513 2.00533 21.042 1.792 20.146 1.792C19.346 1.792 18.6473 1.97867 18.05 2.352C17.4527 2.71467 16.9887 3.24267 16.658 3.936C16.338 4.61867 16.178 5.44 16.178 6.4C16.178 7.36 16.338 8.18667 16.658 8.88C16.9887 9.56267 17.4527 10.0907 18.05 10.464C18.6473 10.8267 19.346 11.008 20.146 11.008C21.042 11.008 21.7513 10.8053 22.274 10.4C22.8073 9.984 23.1593 9.43467 23.33 8.752H24.818C24.594 9.82933 24.0767 10.672 23.266 11.28C22.466 11.888 21.426 12.192 20.146 12.192ZM31.5496 12V0.799999H35.1656C36.0403 0.799999 36.755 0.943999 37.3096 1.232C37.8643 1.52 38.275 1.91467 38.5416 2.416C38.8083 2.91733 38.9416 3.472 38.9416 4.08C38.9416 4.784 38.7496 5.41867 38.3656 5.984C37.9923 6.54933 37.4056 6.94933 36.6056 7.184L39.0536 12H37.4696L35.1976 7.376H35.1016H32.8936V12H31.5496ZM32.8936 6.32H35.0696C35.9336 6.32 36.563 6.112 36.9576 5.696C37.3523 5.28 37.5496 4.74667 37.5496 4.096C37.5496 3.43467 37.3523 2.912 36.9576 2.528C36.5736 2.13333 35.939 1.936 35.0536 1.936H32.8936V6.32ZM45.834 12V0.799999H47.178V12H45.834ZM54.3528 12V0.799999H58.0328C58.9074 0.799999 59.6274 0.943999 60.1928 1.232C60.7581 1.52 61.1741 1.90933 61.4408 2.4C61.7181 2.89067 61.8568 3.44533 61.8568 4.064C61.8568 4.672 61.7234 5.22133 61.4568 5.712C61.1901 6.20267 60.7741 6.59733 60.2088 6.896C59.6434 7.184 58.9181 7.328 58.0328 7.328H55.6968V12H54.3528ZM55.6968 6.192H58.0008C58.8968 6.192 59.5314 6.00533 59.9048 5.632C60.2888 5.248 60.4808 4.72533 60.4808 4.064C60.4808 3.392 60.2888 2.86933 59.9048 2.496C59.5314 2.112 58.8968 1.92 58.0008 1.92H55.6968V6.192ZM71.9864 12.192C71.165 12.192 70.4504 12.0427 69.8424 11.744C69.2344 11.4453 68.765 11.0293 68.4344 10.496C68.1037 9.96267 67.9384 9.344 67.9384 8.64H69.3464C69.3464 9.07733 69.4477 9.48267 69.6504 9.856C69.853 10.2187 70.1464 10.512 70.5304 10.736C70.925 10.9493 71.4104 11.056 71.9864 11.056C72.7437 11.056 73.3304 10.8747 73.7464 10.512C74.1624 10.1493 74.3704 9.696 74.3704 9.152C74.3704 8.704 74.2744 8.34667 74.0824 8.08C73.8904 7.80267 73.629 7.57867 73.2984 7.408C72.9784 7.23733 72.605 7.088 72.1784 6.96C71.7624 6.832 71.325 6.688 70.8664 6.528C70.0024 6.22933 69.3624 5.86133 68.9464 5.424C68.5304 4.976 68.3224 4.39467 68.3224 3.68C68.3117 3.08267 68.4504 2.55467 68.7384 2.096C69.0264 1.62667 69.4317 1.264 69.9544 1.008C70.4877 0.741333 71.117 0.608 71.8424 0.608C72.557 0.608 73.1757 0.741333 73.6984 1.008C74.2317 1.27467 74.6424 1.64267 74.9304 2.112C75.229 2.58133 75.3837 3.11467 75.3944 3.712H73.9864C73.9864 3.40267 73.9064 3.09867 73.7464 2.8C73.5864 2.49067 73.341 2.24 73.0104 2.048C72.6904 1.856 72.285 1.76 71.7944 1.76C71.1864 1.74933 70.685 1.904 70.2904 2.224C69.9064 2.544 69.7144 2.98667 69.7144 3.552C69.7144 4.032 69.8477 4.4 70.1144 4.656C70.3917 4.912 70.7757 5.12533 71.2664 5.296C71.757 5.456 72.3224 5.64267 72.9624 5.856C73.4957 6.048 73.9757 6.272 74.4024 6.528C74.829 6.784 75.1597 7.11467 75.3944 7.52C75.6397 7.92533 75.7624 8.44267 75.7624 9.072C75.7624 9.60533 75.6237 10.112 75.3464 10.592C75.069 11.0613 74.6477 11.4453 74.0824 11.744C73.5277 12.0427 72.829 12.192 71.9864 12.192ZM82.4684 12V0.799999H89.3964V1.904H83.8124V5.808H88.9164V6.896H83.8124V10.896H89.3964V12H82.4684ZM96.2996 12V0.799999H99.9156C100.79 0.799999 101.505 0.943999 102.06 1.232C102.614 1.52 103.025 1.91467 103.292 2.416C103.558 2.91733 103.692 3.472 103.692 4.08C103.692 4.784 103.5 5.41867 103.116 5.984C102.742 6.54933 102.156 6.94933 101.356 7.184L103.804 12H102.22L99.9476 7.376H99.8516H97.6436V12H96.2996ZM97.6436 6.32H99.8196C100.684 6.32 101.313 6.112 101.708 5.696C102.102 5.28 102.3 4.74667 102.3 4.096C102.3 3.43467 102.102 2.912 101.708 2.528C101.324 2.13333 100.689 1.936 99.8036 1.936H97.6436V6.32ZM110.584 12V0.799999H111.928V12H110.584ZM121.727 12V1.904H118.383V0.799999H126.415V1.904H123.071V12H121.727Z" fill="white"/>
</svg>
