<svg width="88" height="15" viewBox="0 0 88 15" fill="none" xmlns="http://www.w3.org/2000/svg">
<path d="M0.650311 12L4.77831 0.799999H6.20231L10.3143 12H8.89031L7.86631 9.12H3.09831L2.05831 12H0.650311ZM3.49831 8.032H7.46631L5.48231 2.496L3.49831 8.032ZM16.7793 12V0.799999H18.1233V10.928H23.3393V12H16.7793ZM29.9856 12V0.799999H31.3296V12H29.9856ZM43.5923 12.192C42.4936 12.192 41.5283 11.952 40.6963 11.472C39.875 10.9813 39.2296 10.2987 38.7603 9.424C38.3016 8.54933 38.0723 7.54133 38.0723 6.4C38.0723 5.25867 38.3016 4.256 38.7603 3.392C39.2296 2.51733 39.875 1.83467 40.6963 1.344C41.5283 0.853333 42.4936 0.608 43.5923 0.608C44.7016 0.608 45.667 0.853333 46.4883 1.344C47.3203 1.83467 47.9656 2.51733 48.4243 3.392C48.883 4.256 49.1123 5.25867 49.1123 6.4C49.1123 7.54133 48.883 8.54933 48.4243 9.424C47.9656 10.288 47.3363 10.96 46.5363 11.44L49.3683 14.16H47.6243L45.3523 11.952C44.8083 12.112 44.2216 12.192 43.5923 12.192ZM43.5923 11.008C44.4136 11.008 45.1336 10.8267 45.7523 10.464C46.3816 10.0907 46.867 9.56267 47.2083 8.88C47.5603 8.18667 47.7363 7.36 47.7363 6.4C47.7363 5.44 47.5603 4.61867 47.2083 3.936C46.867 3.25333 46.3816 2.73067 45.7523 2.368C45.1336 1.99467 44.4136 1.808 43.5923 1.808C42.771 1.808 42.0456 1.99467 41.4163 2.368C40.7976 2.73067 40.3123 3.25333 39.9603 3.936C39.619 4.61867 39.4483 5.44 39.4483 6.4C39.4483 7.36 39.619 8.18667 39.9603 8.88C40.3123 9.56267 40.7976 10.0907 41.4163 10.464C42.0456 10.8267 42.771 11.008 43.5923 11.008ZM59.9773 12.192C59.2093 12.192 58.5106 12.0427 57.8813 11.744C57.2626 11.4347 56.7666 10.96 56.3933 10.32C56.02 9.68 55.8333 8.864 55.8333 7.872V0.799999H57.1773V7.888C57.1773 8.976 57.4386 9.76533 57.9613 10.256C58.484 10.7467 59.1666 10.992 60.0093 10.992C60.852 10.992 61.5293 10.7467 62.0413 10.256C62.5533 9.76533 62.8093 8.976 62.8093 7.888V0.799999H64.1533V7.872C64.1533 8.864 63.9666 9.68 63.5933 10.32C63.22 10.96 62.7186 11.4347 62.0893 11.744C61.46 12.0427 60.756 12.192 59.9773 12.192ZM71.2293 12V0.799999H72.5733V12H71.2293ZM79.7481 12V0.799999H83.4281C84.3027 0.799999 85.0227 0.943999 85.5881 1.232C86.1534 1.52 86.5694 1.90933 86.8361 2.4C87.1134 2.89067 87.2521 3.44533 87.2521 4.064C87.2521 4.672 87.1187 5.22133 86.8521 5.712C86.5854 6.20267 86.1694 6.59733 85.6041 6.896C85.0387 7.184 84.3134 7.328 83.4281 7.328H81.0921V12H79.7481ZM81.0921 6.192H83.3961C84.2921 6.192 84.9267 6.00533 85.3001 5.632C85.6841 5.248 85.8761 4.72533 85.8761 4.064C85.8761 3.392 85.6841 2.86933 85.3001 2.496C84.9267 2.112 84.2921 1.92 83.3961 1.92H81.0921V6.192Z" fill="black"/>
</svg>
