<svg width="350" height="51" viewBox="0 0 350 51" fill="none" xmlns="http://www.w3.org/2000/svg">
<path d="M19.6926 39.008C15.8846 39.008 12.5246 38.224 9.61259 36.656C6.73793 35.0507 4.47926 32.792 2.83659 29.88C1.23126 26.9307 0.428594 23.4587 0.428594 19.464C0.428594 15.5813 1.23126 12.184 2.83659 9.272C4.44193 6.36 6.75659 4.10133 9.78059 2.496C12.8419 0.853332 16.5379 0.0319982 20.8686 0.0319982C22.8473 0.0319982 24.6766 0.255999 26.3566 0.704C28.0739 1.152 29.6979 1.80533 31.2286 2.664L31.4526 10.504H30.8926L27.7566 4.68C27.2713 3.74667 26.8233 3.07467 26.4126 2.664C26.0019 2.25333 25.4793 1.936 24.8446 1.712C24.2473 1.52533 23.6873 1.39466 23.1646 1.32C22.6793 1.208 22.0259 1.152 21.2046 1.152C18.8899 1.152 16.8366 1.768 15.0446 3C13.2899 4.232 11.9273 6.192 10.9566 8.88C9.98593 11.568 9.50059 15.096 9.50059 19.464C9.50059 23.7947 9.94859 27.3227 10.8446 30.048C11.7779 32.7733 13.0846 34.7707 14.7646 36.04C16.4446 37.272 18.3859 37.888 20.5886 37.888C20.9246 37.888 21.2419 37.8693 21.5406 37.832C21.8766 37.7573 22.1939 37.6827 22.4926 37.608C23.2019 37.496 23.6686 37.1973 23.8926 36.712C24.1166 36.2267 24.2286 35.648 24.2286 34.976V23.888C24.2286 22.432 23.4819 21.536 21.9886 21.2L19.4126 20.528V19.968H35.2046V20.528L34.4206 20.752C33.0019 21.2 32.2926 22.1333 32.2926 23.552V35.704C30.3513 36.7867 28.3726 37.608 26.3566 38.168C24.3779 38.728 22.1566 39.008 19.6926 39.008ZM37.1786 38V37.44L38.0186 37.216C38.7653 36.992 39.2693 36.656 39.5306 36.208C39.8293 35.76 39.9786 35.1813 39.9786 34.472V16.944C39.9786 16.1227 39.8293 15.5253 39.5306 15.152C39.2693 14.7413 38.7653 14.4613 38.0186 14.312L37.1786 14.088V13.528L46.8106 10.28L47.3706 10.84L47.8746 15.656V16.104C48.3973 15.0587 49.0693 14.1067 49.8906 13.248C50.7493 12.352 51.6826 11.624 52.6906 11.064C53.7359 10.504 54.7626 10.224 55.7706 10.224C57.1893 10.224 58.2719 10.616 59.0186 11.4C59.7653 12.184 60.1386 13.1733 60.1386 14.368C60.1386 15.6373 59.7653 16.6267 59.0186 17.336C58.3093 18.008 57.4506 18.344 56.4426 18.344C54.8746 18.344 53.4933 17.56 52.2986 15.992L52.1866 15.88C51.8133 15.3573 51.3839 15.0773 50.8986 15.04C50.4133 14.9653 49.9653 15.1893 49.5546 15.712C49.1813 16.048 48.8639 16.4587 48.6026 16.944C48.3786 17.392 48.1546 17.9147 47.9306 18.512V34.136C47.9306 35.6293 48.5839 36.5627 49.8906 36.936L51.6826 37.44V38H37.1786ZM68.8702 38.84C66.7049 38.84 64.8756 38.224 63.3822 36.992C61.9262 35.76 61.1982 33.9867 61.1982 31.672C61.1982 29.9173 62.0942 28.312 63.8862 26.856C65.6782 25.3627 68.4969 24.2427 72.3422 23.496C72.9396 23.384 73.6116 23.272 74.3582 23.16C75.1049 23.0107 75.8889 22.8613 76.7102 22.712V18.288C76.7102 15.7493 76.3929 13.976 75.7582 12.968C75.1609 11.9227 74.2089 11.4 72.9022 11.4C72.0062 11.4 71.2969 11.6987 70.7742 12.296C70.2516 12.856 69.9156 13.8453 69.7662 15.264L69.6542 15.88C69.5796 17.4853 69.1876 18.6613 68.4782 19.408C67.7689 20.1547 66.8916 20.528 65.8462 20.528C64.8756 20.528 64.0729 20.2293 63.4382 19.632C62.8036 19.0347 62.4862 18.232 62.4862 17.224C62.4862 15.6933 63.0089 14.4053 64.0542 13.36C65.1369 12.3147 66.5556 11.5307 68.3102 11.008C70.0649 10.4853 71.9689 10.224 74.0222 10.224C77.3449 10.224 79.9022 11.0453 81.6942 12.688C83.5236 14.2933 84.4382 16.9253 84.4382 20.584V32.96C84.4382 34.64 85.2222 35.48 86.7902 35.48H88.0222L88.5262 35.928C87.8169 36.824 87.0329 37.5147 86.1742 38C85.3529 38.4853 84.1769 38.728 82.6462 38.728C81.0036 38.728 79.6969 38.3547 78.7262 37.608C77.7929 36.824 77.1769 35.7973 76.8782 34.528C75.7582 35.7227 74.6009 36.7493 73.4062 37.608C72.2489 38.4293 70.7369 38.84 68.8702 38.84ZM72.2862 35.424C73.0329 35.424 73.7236 35.256 74.3582 34.92C75.0302 34.5467 75.8142 33.9867 76.7102 33.24V23.832C76.3369 23.9067 75.9636 23.9813 75.5902 24.056C75.2169 24.1307 74.7876 24.2053 74.3022 24.28C72.5849 24.728 71.2036 25.4933 70.1582 26.576C69.1502 27.6213 68.6462 29.04 68.6462 30.832C68.6462 32.3627 69.0009 33.52 69.7102 34.304C70.4196 35.0507 71.2782 35.424 72.2862 35.424ZM103.735 10.224C106.161 10.224 108.233 10.728 109.951 11.736C111.668 12.7067 112.975 14.0507 113.871 15.768C114.804 17.448 115.271 19.3707 115.271 21.536C115.271 21.9467 115.252 22.376 115.215 22.824C115.177 23.2347 115.103 23.608 114.991 23.944H98.3026C98.3399 27.976 99.0493 30.888 100.431 32.68C101.849 34.4347 103.94 35.312 106.703 35.312C108.569 35.312 110.081 35.0133 111.239 34.416C112.396 33.8187 113.479 32.9413 114.487 31.784L115.047 32.288C113.889 34.3413 112.34 35.9467 110.399 37.104C108.495 38.2613 106.199 38.84 103.511 38.84C100.86 38.84 98.5079 38.28 96.4546 37.16C94.4013 36.0027 92.7959 34.36 91.6386 32.232C90.4813 30.104 89.9026 27.5653 89.9026 24.616C89.9026 21.5547 90.5746 18.96 91.9186 16.832C93.2626 14.6667 94.9799 13.024 97.0706 11.904C99.1986 10.784 101.42 10.224 103.735 10.224ZM103.567 11.344C102.484 11.344 101.551 11.68 100.767 12.352C100.02 12.9867 99.4226 14.144 98.9746 15.824C98.5639 17.4667 98.3399 19.8 98.3026 22.824H107.879C108.252 18.7547 108.103 15.824 107.431 14.032C106.759 12.24 105.471 11.344 103.567 11.344ZM131.949 38.84C129.411 38.84 127.096 38.2987 125.005 37.216C122.952 36.096 121.309 34.4907 120.077 32.4C118.883 30.272 118.285 27.6773 118.285 24.616C118.285 21.592 118.939 19.016 120.245 16.888C121.589 14.7227 123.363 13.08 125.565 11.96C127.805 10.8027 130.251 10.224 132.901 10.224C135.067 10.224 136.896 10.5787 138.389 11.288C139.883 11.9973 141.021 12.9307 141.805 14.088C142.589 15.208 142.981 16.384 142.981 17.616C142.981 18.6613 142.664 19.4827 142.029 20.08C141.395 20.64 140.573 20.92 139.565 20.92C138.483 20.92 137.605 20.528 136.933 19.744C136.261 18.96 135.869 17.9333 135.757 16.664C135.72 15.8427 135.739 15.152 135.813 14.592C135.888 13.9947 135.888 13.3973 135.813 12.8C135.664 12.1653 135.421 11.7547 135.085 11.568C134.787 11.344 134.357 11.232 133.797 11.232C131.52 11.232 129.747 12.2213 128.477 14.2C127.245 16.1787 126.629 19.3333 126.629 23.664C126.629 27.4347 127.32 30.328 128.701 32.344C130.12 34.3227 132.285 35.312 135.197 35.312C136.952 35.312 138.371 34.9947 139.453 34.36C140.536 33.7253 141.581 32.7733 142.589 31.504L143.149 31.952C142.216 34.1547 140.779 35.8533 138.837 37.048C136.896 38.2427 134.6 38.84 131.949 38.84ZM159.461 10.224C161.888 10.224 163.96 10.728 165.677 11.736C167.394 12.7067 168.701 14.0507 169.597 15.768C170.53 17.448 170.997 19.3707 170.997 21.536C170.997 21.9467 170.978 22.376 170.941 22.824C170.904 23.2347 170.829 23.608 170.717 23.944H154.029C154.066 27.976 154.776 30.888 156.157 32.68C157.576 34.4347 159.666 35.312 162.429 35.312C164.296 35.312 165.808 35.0133 166.965 34.416C168.122 33.8187 169.205 32.9413 170.213 31.784L170.773 32.288C169.616 34.3413 168.066 35.9467 166.125 37.104C164.221 38.2613 161.925 38.84 159.237 38.84C156.586 38.84 154.234 38.28 152.181 37.16C150.128 36.0027 148.522 34.36 147.365 32.232C146.208 30.104 145.629 27.5653 145.629 24.616C145.629 21.5547 146.301 18.96 147.645 16.832C148.989 14.6667 150.706 13.024 152.797 11.904C154.925 10.784 157.146 10.224 159.461 10.224ZM159.293 11.344C158.21 11.344 157.277 11.68 156.493 12.352C155.746 12.9867 155.149 14.144 154.701 15.824C154.29 17.4667 154.066 19.8 154.029 22.824H163.605C163.978 18.7547 163.829 15.824 163.157 14.032C162.485 12.24 161.197 11.344 159.293 11.344ZM185.983 50.88V50.32L186.655 50.096C188.037 49.7227 188.727 48.8267 188.727 47.408V16.944C188.727 16.1227 188.578 15.5067 188.279 15.096C188.018 14.6853 187.514 14.4053 186.767 14.256L185.983 14.088V13.528L195.503 10.28L196.063 10.84L196.567 12.576C197.799 11.8293 199.162 11.2507 200.655 10.84C202.186 10.4293 203.754 10.224 205.359 10.224C208.57 10.224 211.109 11.456 212.975 13.92C214.879 16.3467 215.831 19.8373 215.831 24.392C215.831 28.872 214.786 32.4 212.695 34.976C210.642 37.552 207.73 38.84 203.959 38.84C201.01 38.84 198.527 38.4107 196.511 37.552V47.24C196.511 48.7333 197.183 49.6667 198.527 50.04L199.591 50.32V50.88H185.983ZM201.271 37.216C203.138 37.216 204.613 36.2453 205.695 34.304C206.815 32.3627 207.375 29.1333 207.375 24.616C207.375 20.0987 206.853 16.944 205.807 15.152C204.762 13.3227 203.25 12.408 201.271 12.408C199.89 12.408 198.359 12.856 196.679 13.752V36.32C198.098 36.9173 199.629 37.216 201.271 37.216ZM232.854 38.84C230.017 38.84 227.553 38.2613 225.462 37.104C223.372 35.9093 221.748 34.2293 220.59 32.064C219.47 29.8987 218.91 27.36 218.91 24.448C218.91 21.536 219.508 19.016 220.702 16.888C221.934 14.76 223.596 13.1173 225.686 11.96C227.814 10.8027 230.204 10.224 232.854 10.224C235.505 10.224 237.876 10.8027 239.966 11.96C242.057 13.08 243.7 14.704 244.894 16.832C246.126 18.96 246.742 21.4987 246.742 24.448C246.742 27.3973 246.164 29.9547 245.006 32.12C243.886 34.248 242.281 35.9093 240.19 37.104C238.137 38.2613 235.692 38.84 232.854 38.84ZM232.854 37.72C234.161 37.72 235.206 37.3467 235.99 36.6C236.774 35.8533 237.334 34.528 237.67 32.624C238.044 30.72 238.23 28.032 238.23 24.56C238.23 21.0507 238.044 18.344 237.67 16.44C237.334 14.536 236.774 13.2107 235.99 12.464C235.206 11.7173 234.161 11.344 232.854 11.344C231.548 11.344 230.484 11.7173 229.662 12.464C228.878 13.2107 228.3 14.536 227.926 16.44C227.59 18.344 227.422 21.0507 227.422 24.56C227.422 28.032 227.59 30.72 227.926 32.624C228.3 34.528 228.878 35.8533 229.662 36.6C230.484 37.3467 231.548 37.72 232.854 37.72ZM258.89 38.84C257.061 38.84 255.418 38.616 253.962 38.168C252.506 37.7573 251.162 37.2347 249.93 36.6L249.986 29.936H250.546L252.45 33.296C253.271 34.7893 254.167 35.9093 255.138 36.656C256.146 37.3653 257.415 37.72 258.946 37.72C260.738 37.72 262.175 37.328 263.258 36.544C264.378 35.7227 264.938 34.64 264.938 33.296C264.938 32.064 264.546 31.056 263.762 30.272C262.978 29.488 261.522 28.7787 259.394 28.144L257.042 27.416C254.765 26.744 252.973 25.6987 251.666 24.28C250.359 22.8613 249.706 21.1253 249.706 19.072C249.706 16.608 250.677 14.5173 252.618 12.8C254.559 11.0827 257.341 10.224 260.962 10.224C262.418 10.224 263.781 10.392 265.05 10.728C266.357 11.0267 267.607 11.4933 268.802 12.128L268.466 18.176H267.906L265.946 14.704C265.237 13.472 264.527 12.6133 263.818 12.128C263.146 11.6053 262.119 11.344 260.738 11.344C259.469 11.344 258.274 11.6987 257.154 12.408C256.034 13.1173 255.474 14.1253 255.474 15.432C255.474 16.7013 255.941 17.7093 256.874 18.456C257.845 19.2027 259.263 19.8933 261.13 20.528L263.65 21.256C266.338 22.0773 268.261 23.216 269.418 24.672C270.575 26.0907 271.154 27.808 271.154 29.824C271.154 32.5493 270.071 34.7333 267.906 36.376C265.778 38.0187 262.773 38.84 258.89 38.84ZM284.233 38.84C281.843 38.84 279.977 38.2427 278.633 37.048C277.326 35.8533 276.673 33.9493 276.673 31.336V12.184H272.809V11.624L274.153 11.4C275.31 11.1387 276.299 10.7653 277.121 10.28C277.979 9.79467 278.819 9.14133 279.641 8.32L284.233 3.224H284.793L284.625 11.064H290.897V12.184H284.569V32.344C284.569 33.6507 284.849 34.64 285.409 35.312C286.006 35.984 286.753 36.32 287.649 36.32C288.433 36.32 289.123 36.1333 289.721 35.76C290.318 35.3493 290.915 34.808 291.513 34.136L292.073 34.696C291.326 35.9653 290.299 36.9733 288.993 37.72C287.686 38.4667 286.099 38.84 284.233 38.84ZM307.719 10.224C310.146 10.224 312.218 10.728 313.935 11.736C315.652 12.7067 316.959 14.0507 317.855 15.768C318.788 17.448 319.255 19.3707 319.255 21.536C319.255 21.9467 319.236 22.376 319.199 22.824C319.162 23.2347 319.087 23.608 318.975 23.944H302.287C302.324 27.976 303.034 30.888 304.415 32.68C305.834 34.4347 307.924 35.312 310.687 35.312C312.554 35.312 314.066 35.0133 315.223 34.416C316.38 33.8187 317.463 32.9413 318.471 31.784L319.031 32.288C317.874 34.3413 316.324 35.9467 314.383 37.104C312.479 38.2613 310.183 38.84 307.495 38.84C304.844 38.84 302.492 38.28 300.439 37.16C298.386 36.0027 296.78 34.36 295.623 32.232C294.466 30.104 293.887 27.5653 293.887 24.616C293.887 21.5547 294.559 18.96 295.903 16.832C297.247 14.6667 298.964 13.024 301.055 11.904C303.183 10.784 305.404 10.224 307.719 10.224ZM307.551 11.344C306.468 11.344 305.535 11.68 304.751 12.352C304.004 12.9867 303.407 14.144 302.959 15.824C302.548 17.4667 302.324 19.8 302.287 22.824H311.863C312.236 18.7547 312.087 15.824 311.415 14.032C310.743 12.24 309.455 11.344 307.551 11.344ZM330.003 38.84C327.838 38.84 326.008 38.224 324.515 36.992C323.059 35.76 322.331 33.9867 322.331 31.672C322.331 29.9173 323.227 28.312 325.019 26.856C326.811 25.3627 329.63 24.2427 333.475 23.496C334.072 23.384 334.744 23.272 335.491 23.16C336.238 23.0107 337.022 22.8613 337.843 22.712V18.288C337.843 15.7493 337.526 13.976 336.891 12.968C336.294 11.9227 335.342 11.4 334.035 11.4C333.139 11.4 332.43 11.6987 331.907 12.296C331.384 12.856 331.048 13.8453 330.899 15.264L330.787 15.88C330.712 17.4853 330.32 18.6613 329.611 19.408C328.902 20.1547 328.024 20.528 326.979 20.528C326.008 20.528 325.206 20.2293 324.571 19.632C323.936 19.0347 323.619 18.232 323.619 17.224C323.619 15.6933 324.142 14.4053 325.187 13.36C326.27 12.3147 327.688 11.5307 329.443 11.008C331.198 10.4853 333.102 10.224 335.155 10.224C338.478 10.224 341.035 11.0453 342.827 12.688C344.656 14.2933 345.571 16.9253 345.571 20.584V32.96C345.571 34.64 346.355 35.48 347.923 35.48H349.155L349.659 35.928C348.95 36.824 348.166 37.5147 347.307 38C346.486 38.4853 345.31 38.728 343.779 38.728C342.136 38.728 340.83 38.3547 339.859 37.608C338.926 36.824 338.31 35.7973 338.011 34.528C336.891 35.7227 335.734 36.7493 334.539 37.608C333.382 38.4293 331.87 38.84 330.003 38.84ZM333.419 35.424C334.166 35.424 334.856 35.256 335.491 34.92C336.163 34.5467 336.947 33.9867 337.843 33.24V23.832C337.47 23.9067 337.096 23.9813 336.723 24.056C336.35 24.1307 335.92 24.2053 335.435 24.28C333.718 24.728 332.336 25.4933 331.291 26.576C330.283 27.6213 329.779 29.04 329.779 30.832C329.779 32.3627 330.134 33.52 330.843 34.304C331.552 35.0507 332.411 35.424 333.419 35.424Z" fill="black"/>
</svg>
