<svg width="553" height="52" viewBox="0 0 553 52" fill="none" xmlns="http://www.w3.org/2000/svg">
<path d="M7.73063 15.24C6.35729 15.24 5.15063 14.94 4.11063 14.34C3.08396 13.7267 2.27729 12.8733 1.69063 11.78C1.11729 10.6867 0.830625 9.42667 0.830625 8C0.830625 6.57333 1.11729 5.32 1.69063 4.24C2.27729 3.14667 3.08396 2.29333 4.11063 1.68C5.15063 1.06667 6.35729 0.76 7.73063 0.76C9.11729 0.76 10.324 1.06667 11.3506 1.68C12.3906 2.29333 13.1973 3.14667 13.7706 4.24C14.344 5.32 14.6306 6.57333 14.6306 8C14.6306 9.42667 14.344 10.6867 13.7706 11.78C13.1973 12.86 12.4106 13.7 11.4106 14.3L14.9506 17.7H12.7706L9.93063 14.94C9.25063 15.14 8.51729 15.24 7.73063 15.24ZM7.73063 13.76C8.75729 13.76 9.65729 13.5333 10.4306 13.08C11.2173 12.6133 11.824 11.9533 12.2506 11.1C12.6906 10.2333 12.9106 9.2 12.9106 8C12.9106 6.8 12.6906 5.77333 12.2506 4.92C11.824 4.06667 11.2173 3.41333 10.4306 2.96C9.65729 2.49333 8.75729 2.26 7.73063 2.26C6.70396 2.26 5.79729 2.49333 5.01063 2.96C4.23729 3.41333 3.63063 4.06667 3.19063 4.92C2.76396 5.77333 2.55063 6.8 2.55063 8C2.55063 9.2 2.76396 10.2333 3.19063 11.1C3.63063 11.9533 4.23729 12.6133 5.01063 13.08C5.79729 13.5333 6.70396 13.76 7.73063 13.76ZM25.7905 5.08V15H24.2705L24.1705 13.22C23.8505 13.8467 23.3905 14.34 22.7905 14.7C22.1905 15.06 21.5105 15.24 20.7505 15.24C19.5771 15.24 18.6371 14.8867 17.9305 14.18C17.2371 13.46 16.8905 12.36 16.8905 10.88V5.08H18.5705V10.7C18.5705 12.7667 19.4238 13.8 21.1305 13.8C21.9838 13.8 22.6905 13.4933 23.2505 12.88C23.8238 12.2533 24.1105 11.3667 24.1105 10.22V5.08H25.7905ZM33.0758 15.24C32.1424 15.24 31.3024 15.0267 30.5558 14.6C29.8091 14.1733 29.2158 13.5733 28.7758 12.8C28.3491 12.0133 28.1358 11.0933 28.1358 10.04C28.1358 8.98667 28.3558 8.07333 28.7958 7.3C29.2358 6.51333 29.8291 5.90667 30.5758 5.48C31.3358 5.05333 32.1824 4.84 33.1158 4.84C34.0491 4.84 34.8891 5.05333 35.6358 5.48C36.3824 5.90667 36.9691 6.51333 37.3958 7.3C37.8358 8.07333 38.0558 8.98667 38.0558 10.04C38.0558 11.0933 37.8358 12.0133 37.3958 12.8C36.9558 13.5733 36.3558 14.1733 35.5958 14.6C34.8491 15.0267 34.0091 15.24 33.0758 15.24ZM33.0758 13.8C33.6491 13.8 34.1824 13.66 34.6758 13.38C35.1691 13.1 35.5691 12.68 35.8758 12.12C36.1824 11.56 36.3358 10.8667 36.3358 10.04C36.3358 9.21333 36.1824 8.52 35.8758 7.96C35.5824 7.4 35.1891 6.98 34.6958 6.7C34.2024 6.42 33.6758 6.28 33.1158 6.28C32.5424 6.28 32.0091 6.42 31.5158 6.7C31.0224 6.98 30.6224 7.4 30.3158 7.96C30.0091 8.52 29.8558 9.21333 29.8558 10.04C29.8558 10.8667 30.0091 11.56 30.3158 12.12C30.6224 12.68 31.0158 13.1 31.4958 13.38C31.9891 13.66 32.5158 13.8 33.0758 13.8ZM50.1447 15.24C49.198 15.24 48.358 15.0267 47.6247 14.6C46.8914 14.16 46.3114 13.5533 45.8847 12.78C45.4714 12.0067 45.2647 11.0933 45.2647 10.04C45.2647 9 45.4714 8.09333 45.8847 7.32C46.298 6.53333 46.8714 5.92667 47.6047 5.5C48.3514 5.06 49.2114 4.84 50.1847 4.84C51.1447 4.84 51.9714 5.06 52.6647 5.5C53.3714 5.92667 53.9114 6.49333 54.2847 7.2C54.658 7.90667 54.8447 8.66667 54.8447 9.48C54.8447 9.62667 54.838 9.77333 54.8247 9.92C54.8247 10.0667 54.8247 10.2333 54.8247 10.42H46.9247C46.9647 11.18 47.138 11.8133 47.4447 12.32C47.7647 12.8133 48.158 13.1867 48.6247 13.44C49.1047 13.6933 49.6114 13.82 50.1447 13.82C50.838 13.82 51.418 13.66 51.8847 13.34C52.3514 13.02 52.6914 12.5867 52.9047 12.04H54.5647C54.298 12.96 53.7847 13.7267 53.0247 14.34C52.278 14.94 51.318 15.24 50.1447 15.24ZM50.1447 6.26C49.3447 6.26 48.6314 6.50667 48.0047 7C47.3914 7.48 47.038 8.18667 46.9447 9.12H53.1847C53.1447 8.22667 52.838 7.52667 52.2647 7.02C51.6914 6.51333 50.9847 6.26 50.1447 6.26ZM55.6027 15L59.0427 10.04L55.6027 5.08H57.4227L60.2027 9.18L63.0027 5.08H64.8027L61.3627 10.04L64.8027 15H63.0027L60.2027 10.9L57.4227 15H55.6027ZM76.3766 15.24C75.4432 15.24 74.6032 15.0267 73.8566 14.6C73.1099 14.1733 72.5166 13.5733 72.0766 12.8C71.6499 12.0133 71.4366 11.0933 71.4366 10.04C71.4366 8.98667 71.6566 8.07333 72.0966 7.3C72.5366 6.51333 73.1299 5.90667 73.8766 5.48C74.6366 5.05333 75.4832 4.84 76.4166 4.84C77.3499 4.84 78.1899 5.05333 78.9366 5.48C79.6832 5.90667 80.2699 6.51333 80.6966 7.3C81.1366 8.07333 81.3566 8.98667 81.3566 10.04C81.3566 11.0933 81.1366 12.0133 80.6966 12.8C80.2566 13.5733 79.6566 14.1733 78.8966 14.6C78.1499 15.0267 77.3099 15.24 76.3766 15.24ZM76.3766 13.8C76.9499 13.8 77.4832 13.66 77.9766 13.38C78.4699 13.1 78.8699 12.68 79.1766 12.12C79.4832 11.56 79.6366 10.8667 79.6366 10.04C79.6366 9.21333 79.4832 8.52 79.1766 7.96C78.8832 7.4 78.4899 6.98 77.9966 6.7C77.5032 6.42 76.9766 6.28 76.4166 6.28C75.8432 6.28 75.3099 6.42 74.8166 6.7C74.3232 6.98 73.9232 7.4 73.6166 7.96C73.3099 8.52 73.1566 9.21333 73.1566 10.04C73.1566 10.8667 73.3099 11.56 73.6166 12.12C73.9232 12.68 74.3166 13.1 74.7966 13.38C75.2899 13.66 75.8166 13.8 76.3766 13.8ZM88.2525 15.24C87.3058 15.24 86.4525 15.0267 85.6925 14.6C84.9458 14.16 84.3525 13.5533 83.9125 12.78C83.4858 11.9933 83.2725 11.08 83.2725 10.04C83.2725 9 83.4858 8.09333 83.9125 7.32C84.3525 6.53333 84.9458 5.92667 85.6925 5.5C86.4525 5.06 87.3058 4.84 88.2525 4.84C89.4258 4.84 90.4125 5.14667 91.2125 5.76C92.0258 6.37333 92.5392 7.19333 92.7525 8.22H91.0325C90.8992 7.60667 90.5725 7.13333 90.0525 6.8C89.5325 6.45333 88.9258 6.28 88.2325 6.28C87.6725 6.28 87.1458 6.42 86.6525 6.7C86.1592 6.98 85.7592 7.4 85.4525 7.96C85.1458 8.52 84.9925 9.21333 84.9925 10.04C84.9925 10.8667 85.1458 11.56 85.4525 12.12C85.7592 12.68 86.1592 13.1067 86.6525 13.4C87.1458 13.68 87.6725 13.82 88.2325 13.82C88.9258 13.82 89.5325 13.6533 90.0525 13.32C90.5725 12.9733 90.8992 12.4867 91.0325 11.86H92.7525C92.5525 12.86 92.0458 13.6733 91.2325 14.3C90.4192 14.9267 89.4258 15.24 88.2525 15.24ZM103.779 5.08V15H102.259L102.159 13.22C101.839 13.8467 101.379 14.34 100.779 14.7C100.179 15.06 99.4988 15.24 98.7388 15.24C97.5654 15.24 96.6254 14.8867 95.9188 14.18C95.2254 13.46 94.8788 12.36 94.8788 10.88V5.08H96.5588V10.7C96.5588 12.7667 97.4121 13.8 99.1188 13.8C99.9721 13.8 100.679 13.4933 101.239 12.88C101.812 12.2533 102.099 11.3667 102.099 10.22V5.08H103.779ZM106.544 15V5.08H108.064L108.204 6.98C108.511 6.32667 108.977 5.80667 109.604 5.42C110.231 5.03333 111.004 4.84 111.924 4.84V6.6H111.464C110.877 6.6 110.337 6.70667 109.844 6.92C109.351 7.12 108.957 7.46667 108.664 7.96C108.371 8.45333 108.224 9.13333 108.224 10V15H106.544ZM113.81 15V5.08H115.33L115.47 6.98C115.776 6.32667 116.243 5.80667 116.87 5.42C117.496 5.03333 118.27 4.84 119.19 4.84V6.6H118.73C118.143 6.6 117.603 6.70667 117.11 6.92C116.616 7.12 116.223 7.46667 115.93 7.96C115.636 8.45333 115.49 9.13333 115.49 10V15H113.81ZM125.164 15.24C124.218 15.24 123.378 15.0267 122.644 14.6C121.911 14.16 121.331 13.5533 120.904 12.78C120.491 12.0067 120.284 11.0933 120.284 10.04C120.284 9 120.491 8.09333 120.904 7.32C121.318 6.53333 121.891 5.92667 122.624 5.5C123.371 5.06 124.231 4.84 125.204 4.84C126.164 4.84 126.991 5.06 127.684 5.5C128.391 5.92667 128.931 6.49333 129.304 7.2C129.678 7.90667 129.864 8.66667 129.864 9.48C129.864 9.62667 129.858 9.77333 129.844 9.92C129.844 10.0667 129.844 10.2333 129.844 10.42H121.944C121.984 11.18 122.158 11.8133 122.464 12.32C122.784 12.8133 123.178 13.1867 123.644 13.44C124.124 13.6933 124.631 13.82 125.164 13.82C125.858 13.82 126.438 13.66 126.904 13.34C127.371 13.02 127.711 12.5867 127.924 12.04H129.584C129.318 12.96 128.804 13.7267 128.044 14.34C127.298 14.94 126.338 15.24 125.164 15.24ZM125.164 6.26C124.364 6.26 123.651 6.50667 123.024 7C122.411 7.48 122.058 8.18667 121.964 9.12H128.204C128.164 8.22667 127.858 7.52667 127.284 7.02C126.711 6.51333 126.004 6.26 125.164 6.26ZM132.091 15V5.08H133.611L133.751 6.98C134.058 6.32667 134.524 5.80667 135.151 5.42C135.778 5.03333 136.551 4.84 137.471 4.84V6.6H137.011C136.424 6.6 135.884 6.70667 135.391 6.92C134.898 7.12 134.504 7.46667 134.211 7.96C133.918 8.45333 133.771 9.13333 133.771 10V15H132.091ZM143.445 15.24C142.499 15.24 141.659 15.0267 140.925 14.6C140.192 14.16 139.612 13.5533 139.185 12.78C138.772 12.0067 138.565 11.0933 138.565 10.04C138.565 9 138.772 8.09333 139.185 7.32C139.599 6.53333 140.172 5.92667 140.905 5.5C141.652 5.06 142.512 4.84 143.485 4.84C144.445 4.84 145.272 5.06 145.965 5.5C146.672 5.92667 147.212 6.49333 147.585 7.2C147.959 7.90667 148.145 8.66667 148.145 9.48C148.145 9.62667 148.139 9.77333 148.125 9.92C148.125 10.0667 148.125 10.2333 148.125 10.42H140.225C140.265 11.18 140.439 11.8133 140.745 12.32C141.065 12.8133 141.459 13.1867 141.925 13.44C142.405 13.6933 142.912 13.82 143.445 13.82C144.139 13.82 144.719 13.66 145.185 13.34C145.652 13.02 145.992 12.5867 146.205 12.04H147.865C147.599 12.96 147.085 13.7267 146.325 14.34C145.579 14.94 144.619 15.24 143.445 15.24ZM143.445 6.26C142.645 6.26 141.932 6.50667 141.305 7C140.692 7.48 140.339 8.18667 140.245 9.12H146.485C146.445 8.22667 146.139 7.52667 145.565 7.02C144.992 6.51333 144.285 6.26 143.445 6.26ZM153.96 15C153.053 15 152.34 14.78 151.82 14.34C151.3 13.9 151.04 13.1067 151.04 11.96V6.5H149.32V5.08H151.04L151.26 2.7H152.72V5.08H155.64V6.5H152.72V11.96C152.72 12.5867 152.847 13.0133 153.1 13.24C153.353 13.4533 153.8 13.56 154.44 13.56H155.48V15H153.96ZM171.208 19.4V13.36C170.888 13.84 170.428 14.2733 169.828 14.66C169.228 15.0467 168.474 15.24 167.567 15.24C166.581 15.24 165.714 15.0133 164.968 14.56C164.234 14.1067 163.661 13.4867 163.248 12.7C162.848 11.9133 162.648 11.02 162.648 10.02C162.648 9.02 162.854 8.13333 163.268 7.36C163.681 6.57333 164.254 5.96 164.988 5.52C165.721 5.06667 166.588 4.84 167.588 4.84C168.401 4.84 169.121 5.00667 169.748 5.34C170.374 5.67333 170.861 6.14 171.208 6.74L171.368 5.08H172.888V19.4H171.208ZM167.748 13.78C168.414 13.78 169.001 13.6267 169.508 13.32C170.028 13 170.428 12.56 170.708 12C171.001 11.44 171.148 10.7867 171.148 10.04C171.148 9.29333 171.001 8.64 170.708 8.08C170.428 7.52 170.028 7.08667 169.508 6.78C169.001 6.46 168.414 6.3 167.748 6.3C167.094 6.3 166.508 6.46 165.988 6.78C165.481 7.08667 165.081 7.52 164.788 8.08C164.508 8.64 164.368 9.29333 164.368 10.04C164.368 10.7867 164.508 11.44 164.788 12C165.081 12.56 165.481 13 165.988 13.32C166.508 13.6267 167.094 13.78 167.748 13.78ZM184.306 5.08V15H182.786L182.686 13.22C182.366 13.8467 181.906 14.34 181.306 14.7C180.706 15.06 180.026 15.24 179.266 15.24C178.093 15.24 177.153 14.8867 176.446 14.18C175.753 13.46 175.406 12.36 175.406 10.88V5.08H177.086V10.7C177.086 12.7667 177.939 13.8 179.646 13.8C180.499 13.8 181.206 13.4933 181.766 12.88C182.339 12.2533 182.626 11.3667 182.626 10.22V5.08H184.306ZM190.371 15.24C189.545 15.24 188.858 15.1 188.311 14.82C187.765 14.54 187.358 14.1667 187.091 13.7C186.825 13.2333 186.691 12.7267 186.691 12.18C186.691 11.1667 187.078 10.3867 187.851 9.84C188.625 9.29333 189.678 9.02 191.011 9.02H193.691V8.9C193.691 8.03333 193.465 7.38 193.011 6.94C192.558 6.48667 191.951 6.26 191.191 6.26C190.538 6.26 189.971 6.42667 189.491 6.76C189.025 7.08 188.731 7.55333 188.611 8.18H186.891C186.958 7.46 187.198 6.85333 187.611 6.36C188.038 5.86667 188.565 5.49333 189.191 5.24C189.818 4.97333 190.485 4.84 191.191 4.84C192.578 4.84 193.618 5.21333 194.311 5.96C195.018 6.69333 195.371 7.67333 195.371 8.9V15H193.871L193.771 13.22C193.491 13.78 193.078 14.26 192.531 14.66C191.998 15.0467 191.278 15.24 190.371 15.24ZM190.631 13.82C191.271 13.82 191.818 13.6533 192.271 13.32C192.738 12.9867 193.091 12.5533 193.331 12.02C193.571 11.4867 193.691 10.9267 193.691 10.34V10.32H191.151C190.165 10.32 189.465 10.4933 189.051 10.84C188.651 11.1733 188.451 11.5933 188.451 12.1C188.451 12.62 188.638 13.04 189.011 13.36C189.398 13.6667 189.938 13.82 190.631 13.82ZM202.352 15.24C201.405 15.24 200.565 15.0267 199.832 14.6C199.098 14.16 198.518 13.5533 198.092 12.78C197.678 12.0067 197.472 11.0933 197.472 10.04C197.472 9 197.678 8.09333 198.092 7.32C198.505 6.53333 199.078 5.92667 199.812 5.5C200.558 5.06 201.418 4.84 202.392 4.84C203.352 4.84 204.178 5.06 204.872 5.5C205.578 5.92667 206.118 6.49333 206.492 7.2C206.865 7.90667 207.052 8.66667 207.052 9.48C207.052 9.62667 207.045 9.77333 207.032 9.92C207.032 10.0667 207.032 10.2333 207.032 10.42H199.132C199.172 11.18 199.345 11.8133 199.652 12.32C199.972 12.8133 200.365 13.1867 200.832 13.44C201.312 13.6933 201.818 13.82 202.352 13.82C203.045 13.82 203.625 13.66 204.092 13.34C204.558 13.02 204.898 12.5867 205.112 12.04H206.772C206.505 12.96 205.992 13.7267 205.232 14.34C204.485 14.94 203.525 15.24 202.352 15.24ZM202.352 6.26C201.552 6.26 200.838 6.50667 200.212 7C199.598 7.48 199.245 8.18667 199.152 9.12H205.392C205.352 8.22667 205.045 7.52667 204.472 7.02C203.898 6.51333 203.192 6.26 202.352 6.26ZM209.278 15V5.08H210.798L210.938 6.98C211.245 6.32667 211.712 5.80667 212.338 5.42C212.965 5.03333 213.738 4.84 214.658 4.84V6.6H214.198C213.612 6.6 213.072 6.70667 212.578 6.92C212.085 7.12 211.692 7.46667 211.398 7.96C211.105 8.45333 210.958 9.13333 210.958 10V15H209.278ZM220.633 15.24C219.686 15.24 218.846 15.0267 218.113 14.6C217.38 14.16 216.8 13.5533 216.373 12.78C215.96 12.0067 215.753 11.0933 215.753 10.04C215.753 9 215.96 8.09333 216.373 7.32C216.786 6.53333 217.36 5.92667 218.093 5.5C218.84 5.06 219.7 4.84 220.673 4.84C221.633 4.84 222.46 5.06 223.153 5.5C223.86 5.92667 224.4 6.49333 224.773 7.2C225.146 7.90667 225.333 8.66667 225.333 9.48C225.333 9.62667 225.326 9.77333 225.313 9.92C225.313 10.0667 225.313 10.2333 225.313 10.42H217.413C217.453 11.18 217.626 11.8133 217.933 12.32C218.253 12.8133 218.646 13.1867 219.113 13.44C219.593 13.6933 220.1 13.82 220.633 13.82C221.326 13.82 221.906 13.66 222.373 13.34C222.84 13.02 223.18 12.5867 223.393 12.04H225.053C224.786 12.96 224.273 13.7267 223.513 14.34C222.766 14.94 221.806 15.24 220.633 15.24ZM220.633 6.26C219.833 6.26 219.12 6.50667 218.493 7C217.88 7.48 217.526 8.18667 217.433 9.12H223.673C223.633 8.22667 223.326 7.52667 222.753 7.02C222.18 6.51333 221.473 6.26 220.633 6.26ZM227.56 15V5.08H229.08L229.18 6.86C229.5 6.23333 229.96 5.74 230.56 5.38C231.16 5.02 231.84 4.84 232.6 4.84C233.773 4.84 234.706 5.2 235.4 5.92C236.106 6.62667 236.46 7.72 236.46 9.2V15H234.78V9.38C234.78 7.31333 233.926 6.28 232.22 6.28C231.366 6.28 230.653 6.59333 230.08 7.22C229.52 7.83333 229.24 8.71333 229.24 9.86V15H227.56ZM243.505 15.24C242.518 15.24 241.652 15.0133 240.905 14.56C240.172 14.1067 239.598 13.4867 239.185 12.7C238.785 11.9133 238.585 11.02 238.585 10.02C238.585 9.02 238.792 8.13333 239.205 7.36C239.618 6.57333 240.192 5.96 240.925 5.52C241.658 5.06667 242.525 4.84 243.525 4.84C244.338 4.84 245.058 5.00667 245.685 5.34C246.312 5.67333 246.798 6.14 247.145 6.74V0.599999H248.825V15H247.305L247.145 13.36C246.825 13.84 246.365 14.2733 245.765 14.66C245.165 15.0467 244.412 15.24 243.505 15.24ZM243.685 13.78C244.352 13.78 244.938 13.6267 245.445 13.32C245.965 13 246.365 12.56 246.645 12C246.938 11.44 247.085 10.7867 247.085 10.04C247.085 9.29333 246.938 8.64 246.645 8.08C246.365 7.52 245.965 7.08667 245.445 6.78C244.938 6.46 244.352 6.3 243.685 6.3C243.032 6.3 242.445 6.46 241.925 6.78C241.418 7.08667 241.018 7.52 240.725 8.08C240.445 8.64 240.305 9.29333 240.305 10.04C240.305 10.7867 240.445 11.44 240.725 12C241.018 12.56 241.418 13 241.925 13.32C242.445 13.6267 243.032 13.78 243.685 13.78ZM260.244 5.08V15H258.724L258.624 13.22C258.304 13.8467 257.844 14.34 257.244 14.7C256.644 15.06 255.964 15.24 255.204 15.24C254.03 15.24 253.09 14.8867 252.384 14.18C251.69 13.46 251.344 12.36 251.344 10.88V5.08H253.024V10.7C253.024 12.7667 253.877 13.8 255.584 13.8C256.437 13.8 257.144 13.4933 257.704 12.88C258.277 12.2533 258.564 11.3667 258.564 10.22V5.08H260.244ZM263.009 15V5.08H264.529L264.649 6.52C264.969 5.98667 265.396 5.57333 265.929 5.28C266.462 4.98667 267.062 4.84 267.729 4.84C268.516 4.84 269.189 5 269.749 5.32C270.322 5.64 270.762 6.12667 271.069 6.78C271.416 6.18 271.889 5.70667 272.489 5.36C273.102 5.01333 273.762 4.84 274.469 4.84C275.656 4.84 276.602 5.2 277.309 5.92C278.016 6.62667 278.369 7.72 278.369 9.2V15H276.709V9.38C276.709 8.35333 276.502 7.58 276.089 7.06C275.676 6.54 275.082 6.28 274.309 6.28C273.509 6.28 272.842 6.59333 272.309 7.22C271.789 7.83333 271.529 8.71333 271.529 9.86V15H269.849V9.38C269.849 8.35333 269.642 7.58 269.229 7.06C268.816 6.54 268.222 6.28 267.449 6.28C266.662 6.28 266.002 6.59333 265.469 7.22C264.949 7.83333 264.689 8.71333 264.689 9.86V15H263.009ZM281.48 15.1C281.146 15.1 280.866 14.9933 280.64 14.78C280.426 14.5533 280.32 14.28 280.32 13.96C280.32 13.64 280.426 13.3733 280.64 13.16C280.866 12.9333 281.146 12.82 281.48 12.82C281.8 12.82 282.066 12.9333 282.28 13.16C282.506 13.3733 282.62 13.64 282.62 13.96C282.62 14.28 282.506 14.5533 282.28 14.78C282.066 14.9933 281.8 15.1 281.48 15.1ZM290.199 15V0.999999H292.159L297.199 10.76L302.199 0.999999H304.179V15H302.499V4L297.819 13H296.559L291.879 4.02V15H290.199ZM311.492 15.24C310.546 15.24 309.706 15.0267 308.972 14.6C308.239 14.16 307.659 13.5533 307.232 12.78C306.819 12.0067 306.612 11.0933 306.612 10.04C306.612 9 306.819 8.09333 307.232 7.32C307.646 6.53333 308.219 5.92667 308.952 5.5C309.699 5.06 310.559 4.84 311.532 4.84C312.492 4.84 313.319 5.06 314.012 5.5C314.719 5.92667 315.259 6.49333 315.632 7.2C316.006 7.90667 316.192 8.66667 316.192 9.48C316.192 9.62667 316.186 9.77333 316.172 9.92C316.172 10.0667 316.172 10.2333 316.172 10.42H308.272C308.312 11.18 308.486 11.8133 308.792 12.32C309.112 12.8133 309.506 13.1867 309.972 13.44C310.452 13.6933 310.959 13.82 311.492 13.82C312.186 13.82 312.766 13.66 313.232 13.34C313.699 13.02 314.039 12.5867 314.252 12.04H315.912C315.646 12.96 315.132 13.7267 314.372 14.34C313.626 14.94 312.666 15.24 311.492 15.24ZM311.492 6.26C310.692 6.26 309.979 6.50667 309.352 7C308.739 7.48 308.386 8.18667 308.292 9.12H314.532C314.492 8.22667 314.186 7.52667 313.612 7.02C313.039 6.51333 312.332 6.26 311.492 6.26ZM318.419 15V0.599999H320.099V15H318.419ZM332.706 15.24C331.759 15.24 330.906 15.0267 330.146 14.6C329.399 14.16 328.806 13.5533 328.366 12.78C327.939 11.9933 327.726 11.08 327.726 10.04C327.726 9 327.939 8.09333 328.366 7.32C328.806 6.53333 329.399 5.92667 330.146 5.5C330.906 5.06 331.759 4.84 332.706 4.84C333.879 4.84 334.866 5.14667 335.666 5.76C336.479 6.37333 336.992 7.19333 337.206 8.22H335.486C335.352 7.60667 335.026 7.13333 334.506 6.8C333.986 6.45333 333.379 6.28 332.686 6.28C332.126 6.28 331.599 6.42 331.106 6.7C330.612 6.98 330.212 7.4 329.906 7.96C329.599 8.52 329.446 9.21333 329.446 10.04C329.446 10.8667 329.599 11.56 329.906 12.12C330.212 12.68 330.612 13.1067 331.106 13.4C331.599 13.68 332.126 13.82 332.686 13.82C333.379 13.82 333.986 13.6533 334.506 13.32C335.026 12.9733 335.352 12.4867 335.486 11.86H337.206C337.006 12.86 336.499 13.6733 335.686 14.3C334.872 14.9267 333.879 15.24 332.706 15.24ZM348.232 5.08V15H346.712L346.612 13.22C346.292 13.8467 345.832 14.34 345.232 14.7C344.632 15.06 343.952 15.24 343.192 15.24C342.019 15.24 341.079 14.8867 340.372 14.18C339.679 13.46 339.332 12.36 339.332 10.88V5.08H341.012V10.7C341.012 12.7667 341.865 13.8 343.572 13.8C344.425 13.8 345.132 13.4933 345.692 12.88C346.265 12.2533 346.552 11.3667 346.552 10.22V5.08H348.232ZM359.59 15.24C358.763 15.24 358.077 15.1 357.53 14.82C356.983 14.54 356.577 14.1667 356.31 13.7C356.043 13.2333 355.91 12.7267 355.91 12.18C355.91 11.1667 356.297 10.3867 357.07 9.84C357.843 9.29333 358.897 9.02 360.23 9.02H362.91V8.9C362.91 8.03333 362.683 7.38 362.23 6.94C361.777 6.48667 361.17 6.26 360.41 6.26C359.757 6.26 359.19 6.42667 358.71 6.76C358.243 7.08 357.95 7.55333 357.83 8.18H356.11C356.177 7.46 356.417 6.85333 356.83 6.36C357.257 5.86667 357.783 5.49333 358.41 5.24C359.037 4.97333 359.703 4.84 360.41 4.84C361.797 4.84 362.837 5.21333 363.53 5.96C364.237 6.69333 364.59 7.67333 364.59 8.9V15H363.09L362.99 13.22C362.71 13.78 362.297 14.26 361.75 14.66C361.217 15.0467 360.497 15.24 359.59 15.24ZM359.85 13.82C360.49 13.82 361.037 13.6533 361.49 13.32C361.957 12.9867 362.31 12.5533 362.55 12.02C362.79 11.4867 362.91 10.9267 362.91 10.34V10.32H360.37C359.383 10.32 358.683 10.4933 358.27 10.84C357.87 11.1733 357.67 11.5933 357.67 12.1C357.67 12.62 357.857 13.04 358.23 13.36C358.617 13.6667 359.157 13.82 359.85 13.82ZM367.11 15V5.08H368.63L368.73 6.86C369.05 6.23333 369.51 5.74 370.11 5.38C370.71 5.02 371.39 4.84 372.15 4.84C373.324 4.84 374.257 5.2 374.95 5.92C375.657 6.62667 376.01 7.72 376.01 9.2V15H374.33V9.38C374.33 7.31333 373.477 6.28 371.77 6.28C370.917 6.28 370.204 6.59333 369.63 7.22C369.07 7.83333 368.79 8.71333 368.79 9.86V15H367.11ZM383.116 15.24C382.169 15.24 381.316 15.0267 380.556 14.6C379.809 14.16 379.216 13.5533 378.776 12.78C378.349 11.9933 378.136 11.08 378.136 10.04C378.136 9 378.349 8.09333 378.776 7.32C379.216 6.53333 379.809 5.92667 380.556 5.5C381.316 5.06 382.169 4.84 383.116 4.84C384.289 4.84 385.276 5.14667 386.076 5.76C386.889 6.37333 387.402 7.19333 387.616 8.22H385.896C385.762 7.60667 385.436 7.13333 384.916 6.8C384.396 6.45333 383.789 6.28 383.096 6.28C382.536 6.28 382.009 6.42 381.516 6.7C381.022 6.98 380.622 7.4 380.316 7.96C380.009 8.52 379.856 9.21333 379.856 10.04C379.856 10.8667 380.009 11.56 380.316 12.12C380.622 12.68 381.022 13.1067 381.516 13.4C382.009 13.68 382.536 13.82 383.096 13.82C383.789 13.82 384.396 13.6533 384.916 13.32C385.436 12.9733 385.762 12.4867 385.896 11.86H387.616C387.416 12.86 386.909 13.6733 386.096 14.3C385.282 14.9267 384.289 15.24 383.116 15.24ZM390.982 2.88C390.649 2.88 390.369 2.77333 390.142 2.56C389.929 2.33333 389.822 2.05333 389.822 1.72C389.822 1.4 389.929 1.13333 390.142 0.919999C390.369 0.706666 390.649 0.599999 390.982 0.599999C391.302 0.599999 391.575 0.706666 391.802 0.919999C392.029 1.13333 392.142 1.4 392.142 1.72C392.142 2.05333 392.029 2.33333 391.802 2.56C391.575 2.77333 391.302 2.88 390.982 2.88ZM390.142 15V5.08H391.822V15H390.142ZM394.747 15V0.599999H396.427V15H394.747ZM399.181 15V0.599999H400.861V15H399.181ZM406.914 15.24C406.088 15.24 405.401 15.1 404.854 14.82C404.308 14.54 403.901 14.1667 403.634 13.7C403.368 13.2333 403.234 12.7267 403.234 12.18C403.234 11.1667 403.621 10.3867 404.394 9.84C405.168 9.29333 406.221 9.02 407.554 9.02H410.234V8.9C410.234 8.03333 410.008 7.38 409.554 6.94C409.101 6.48667 408.494 6.26 407.734 6.26C407.081 6.26 406.514 6.42667 406.034 6.76C405.568 7.08 405.274 7.55333 405.154 8.18H403.434C403.501 7.46 403.741 6.85333 404.154 6.36C404.581 5.86667 405.108 5.49333 405.734 5.24C406.361 4.97333 407.028 4.84 407.734 4.84C409.121 4.84 410.161 5.21333 410.854 5.96C411.561 6.69333 411.914 7.67333 411.914 8.9V15H410.414L410.314 13.22C410.034 13.78 409.621 14.26 409.074 14.66C408.541 15.0467 407.821 15.24 406.914 15.24ZM407.174 13.82C407.814 13.82 408.361 13.6533 408.814 13.32C409.281 12.9867 409.634 12.5533 409.874 12.02C410.114 11.4867 410.234 10.9267 410.234 10.34V10.32H407.694C406.708 10.32 406.008 10.4933 405.594 10.84C405.194 11.1733 404.994 11.5933 404.994 12.1C404.994 12.62 405.181 13.04 405.554 13.36C405.941 13.6667 406.481 13.82 407.174 13.82ZM418.895 15.24C417.948 15.24 417.108 15.0267 416.375 14.6C415.641 14.16 415.061 13.5533 414.635 12.78C414.221 12.0067 414.015 11.0933 414.015 10.04C414.015 9 414.221 8.09333 414.635 7.32C415.048 6.53333 415.621 5.92667 416.355 5.5C417.101 5.06 417.961 4.84 418.935 4.84C419.895 4.84 420.721 5.06 421.415 5.5C422.121 5.92667 422.661 6.49333 423.035 7.2C423.408 7.90667 423.595 8.66667 423.595 9.48C423.595 9.62667 423.588 9.77333 423.575 9.92C423.575 10.0667 423.575 10.2333 423.575 10.42H415.675C415.715 11.18 415.888 11.8133 416.195 12.32C416.515 12.8133 416.908 13.1867 417.375 13.44C417.855 13.6933 418.361 13.82 418.895 13.82C419.588 13.82 420.168 13.66 420.635 13.34C421.101 13.02 421.441 12.5867 421.655 12.04H423.315C423.048 12.96 422.535 13.7267 421.775 14.34C421.028 14.94 420.068 15.24 418.895 15.24ZM418.895 6.26C418.095 6.26 417.381 6.50667 416.755 7C416.141 7.48 415.788 8.18667 415.695 9.12H421.935C421.895 8.22667 421.588 7.52667 421.015 7.02C420.441 6.51333 419.735 6.26 418.895 6.26ZM434.914 15.24C433.728 15.24 432.741 14.94 431.954 14.34C431.168 13.74 430.708 12.9267 430.574 11.9H432.294C432.401 12.42 432.674 12.8733 433.114 13.26C433.568 13.6333 434.174 13.82 434.934 13.82C435.641 13.82 436.161 13.6733 436.494 13.38C436.828 13.0733 436.994 12.7133 436.994 12.3C436.994 11.7 436.774 11.3 436.334 11.1C435.908 10.9 435.301 10.72 434.514 10.56C433.981 10.4533 433.448 10.3 432.914 10.1C432.381 9.9 431.934 9.62 431.574 9.26C431.214 8.88667 431.034 8.4 431.034 7.8C431.034 6.93333 431.354 6.22667 431.994 5.68C432.648 5.12 433.528 4.84 434.634 4.84C435.688 4.84 436.548 5.10667 437.214 5.64C437.894 6.16 438.288 6.90667 438.394 7.88H436.734C436.668 7.37333 436.448 6.98 436.074 6.7C435.714 6.40667 435.228 6.26 434.614 6.26C434.014 6.26 433.548 6.38667 433.214 6.64C432.894 6.89333 432.734 7.22667 432.734 7.64C432.734 8.04 432.941 8.35333 433.354 8.58C433.781 8.80667 434.354 9 435.074 9.16C435.688 9.29333 436.268 9.46 436.814 9.66C437.374 9.84667 437.828 10.1333 438.174 10.52C438.534 10.8933 438.714 11.44 438.714 12.16C438.728 13.0533 438.388 13.7933 437.694 14.38C437.014 14.9533 436.088 15.24 434.914 15.24ZM442.134 2.88C441.801 2.88 441.521 2.77333 441.294 2.56C441.081 2.33333 440.974 2.05333 440.974 1.72C440.974 1.4 441.081 1.13333 441.294 0.919999C441.521 0.706666 441.801 0.599999 442.134 0.599999C442.454 0.599999 442.728 0.706666 442.954 0.919999C443.181 1.13333 443.294 1.4 443.294 1.72C443.294 2.05333 443.181 2.33333 442.954 2.56C442.728 2.77333 442.454 2.88 442.134 2.88ZM441.294 15V5.08H442.974V15H441.294ZM445.9 15V5.08H447.42L447.54 6.52C447.86 5.98667 448.286 5.57333 448.82 5.28C449.353 4.98667 449.953 4.84 450.62 4.84C451.406 4.84 452.08 5 452.64 5.32C453.213 5.64 453.653 6.12667 453.96 6.78C454.306 6.18 454.78 5.70667 455.38 5.36C455.993 5.01333 456.653 4.84 457.36 4.84C458.546 4.84 459.493 5.2 460.2 5.92C460.906 6.62667 461.26 7.72 461.26 9.2V15H459.6V9.38C459.6 8.35333 459.393 7.58 458.98 7.06C458.566 6.54 457.973 6.28 457.2 6.28C456.4 6.28 455.733 6.59333 455.2 7.22C454.68 7.83333 454.42 8.71333 454.42 9.86V15H452.74V9.38C452.74 8.35333 452.533 7.58 452.12 7.06C451.706 6.54 451.113 6.28 450.34 6.28C449.553 6.28 448.893 6.59333 448.36 7.22C447.84 7.83333 447.58 8.71333 447.58 9.86V15H445.9ZM464.81 2.88C464.477 2.88 464.197 2.77333 463.97 2.56C463.757 2.33333 463.65 2.05333 463.65 1.72C463.65 1.4 463.757 1.13333 463.97 0.919999C464.197 0.706666 464.477 0.599999 464.81 0.599999C465.13 0.599999 465.403 0.706666 465.63 0.919999C465.857 1.13333 465.97 1.4 465.97 1.72C465.97 2.05333 465.857 2.33333 465.63 2.56C465.403 2.77333 465.13 2.88 464.81 2.88ZM463.97 15V5.08H465.65V15H463.97ZM468.575 15V0.599999H470.255V15H468.575ZM474.029 2.88C473.696 2.88 473.416 2.77333 473.189 2.56C472.976 2.33333 472.869 2.05333 472.869 1.72C472.869 1.4 472.976 1.13333 473.189 0.919999C473.416 0.706666 473.696 0.599999 474.029 0.599999C474.349 0.599999 474.622 0.706666 474.849 0.919999C475.076 1.13333 475.189 1.4 475.189 1.72C475.189 2.05333 475.076 2.33333 474.849 2.56C474.622 2.77333 474.349 2.88 474.029 2.88ZM473.189 15V5.08H474.869V15H473.189ZM485.934 19.4V13.36C485.614 13.84 485.154 14.2733 484.554 14.66C483.954 15.0467 483.201 15.24 482.294 15.24C481.307 15.24 480.441 15.0133 479.694 14.56C478.961 14.1067 478.387 13.4867 477.974 12.7C477.574 11.9133 477.374 11.02 477.374 10.02C477.374 9.02 477.581 8.13333 477.994 7.36C478.407 6.57333 478.981 5.96 479.714 5.52C480.447 5.06667 481.314 4.84 482.314 4.84C483.127 4.84 483.847 5.00667 484.474 5.34C485.101 5.67333 485.587 6.14 485.934 6.74L486.094 5.08H487.614V19.4H485.934ZM482.474 13.78C483.141 13.78 483.727 13.6267 484.234 13.32C484.754 13 485.154 12.56 485.434 12C485.727 11.44 485.874 10.7867 485.874 10.04C485.874 9.29333 485.727 8.64 485.434 8.08C485.154 7.52 484.754 7.08667 484.234 6.78C483.727 6.46 483.141 6.3 482.474 6.3C481.821 6.3 481.234 6.46 480.714 6.78C480.207 7.08667 479.807 7.52 479.514 8.08C479.234 8.64 479.094 9.29333 479.094 10.04C479.094 10.7867 479.234 11.44 479.514 12C479.807 12.56 480.207 13 480.714 13.32C481.234 13.6267 481.821 13.78 482.474 13.78ZM499.033 5.08V15H497.513L497.413 13.22C497.093 13.8467 496.633 14.34 496.033 14.7C495.433 15.06 494.753 15.24 493.993 15.24C492.819 15.24 491.879 14.8867 491.173 14.18C490.479 13.46 490.133 12.36 490.133 10.88V5.08H491.813V10.7C491.813 12.7667 492.666 13.8 494.373 13.8C495.226 13.8 495.933 13.4933 496.493 12.88C497.066 12.2533 497.353 11.3667 497.353 10.22V5.08H499.033ZM506.258 15.24C505.311 15.24 504.471 15.0267 503.738 14.6C503.005 14.16 502.425 13.5533 501.998 12.78C501.585 12.0067 501.378 11.0933 501.378 10.04C501.378 9 501.585 8.09333 501.998 7.32C502.411 6.53333 502.985 5.92667 503.718 5.5C504.465 5.06 505.325 4.84 506.298 4.84C507.258 4.84 508.085 5.06 508.778 5.5C509.485 5.92667 510.025 6.49333 510.398 7.2C510.771 7.90667 510.958 8.66667 510.958 9.48C510.958 9.62667 510.951 9.77333 510.938 9.92C510.938 10.0667 510.938 10.2333 510.938 10.42H503.038C503.078 11.18 503.251 11.8133 503.558 12.32C503.878 12.8133 504.271 13.1867 504.738 13.44C505.218 13.6933 505.725 13.82 506.258 13.82C506.951 13.82 507.531 13.66 507.998 13.34C508.465 13.02 508.805 12.5867 509.018 12.04H510.678C510.411 12.96 509.898 13.7267 509.138 14.34C508.391 14.94 507.431 15.24 506.258 15.24ZM506.258 6.26C505.458 6.26 504.745 6.50667 504.118 7C503.505 7.48 503.151 8.18667 503.058 9.12H509.298C509.258 8.22667 508.951 7.52667 508.378 7.02C507.805 6.51333 507.098 6.26 506.258 6.26ZM513.765 15.1C513.431 15.1 513.151 14.9933 512.925 14.78C512.711 14.5533 512.605 14.28 512.605 13.96C512.605 13.64 512.711 13.3733 512.925 13.16C513.151 12.9333 513.431 12.82 513.765 12.82C514.085 12.82 514.351 12.9333 514.565 13.16C514.791 13.3733 514.905 13.64 514.905 13.96C514.905 14.28 514.791 14.5533 514.565 14.78C514.351 14.9933 514.085 15.1 513.765 15.1ZM522.484 15V0.999999H524.444L529.484 10.76L534.484 0.999999H536.464V15H534.784V4L530.104 13H528.844L524.164 4.02V15H522.484ZM543.778 15.24C542.831 15.24 541.991 15.0267 541.258 14.6C540.524 14.16 539.944 13.5533 539.518 12.78C539.104 12.0067 538.898 11.0933 538.898 10.04C538.898 9 539.104 8.09333 539.518 7.32C539.931 6.53333 540.504 5.92667 541.238 5.5C541.984 5.06 542.844 4.84 543.817 4.84C544.778 4.84 545.604 5.06 546.298 5.5C547.004 5.92667 547.544 6.49333 547.918 7.2C548.291 7.90667 548.478 8.66667 548.478 9.48C548.478 9.62667 548.471 9.77333 548.458 9.92C548.458 10.0667 548.458 10.2333 548.458 10.42H540.558C540.598 11.18 540.771 11.8133 541.078 12.32C541.398 12.8133 541.791 13.1867 542.258 13.44C542.738 13.6933 543.244 13.82 543.778 13.82C544.471 13.82 545.051 13.66 545.518 13.34C545.984 13.02 546.324 12.5867 546.538 12.04H548.198C547.931 12.96 547.418 13.7267 546.658 14.34C545.911 14.94 544.951 15.24 543.778 15.24ZM543.778 6.26C542.978 6.26 542.264 6.50667 541.638 7C541.024 7.48 540.671 8.18667 540.577 9.12H546.818C546.778 8.22667 546.471 7.52667 545.898 7.02C545.324 6.51333 544.618 6.26 543.778 6.26ZM551.724 2.88C551.391 2.88 551.111 2.77333 550.884 2.56C550.671 2.33333 550.564 2.05333 550.564 1.72C550.564 1.4 550.671 1.13333 550.884 0.919999C551.111 0.706666 551.391 0.599999 551.724 0.599999C552.044 0.599999 552.318 0.706666 552.544 0.919999C552.771 1.13333 552.884 1.4 552.884 1.72C552.884 2.05333 552.771 2.33333 552.544 2.56C552.318 2.77333 552.044 2.88 551.724 2.88ZM550.884 15V5.08H552.564V15H550.884ZM32.3644 47V37.08H33.8844L33.9844 38.86C34.3044 38.2333 34.7644 37.74 35.3644 37.38C35.9644 37.02 36.6444 36.84 37.4044 36.84C38.5777 36.84 39.511 37.2 40.2044 37.92C40.911 38.6267 41.2644 39.72 41.2644 41.2V47H39.5844V41.38C39.5844 39.3133 38.731 38.28 37.0244 38.28C36.171 38.28 35.4577 38.5933 34.8844 39.22C34.3244 39.8333 34.0444 40.7133 34.0444 41.86V47H32.3644ZM48.3297 47.24C47.3964 47.24 46.5564 47.0267 45.8097 46.6C45.063 46.1733 44.4697 45.5733 44.0297 44.8C43.603 44.0133 43.3897 43.0933 43.3897 42.04C43.3897 40.9867 43.6097 40.0733 44.0497 39.3C44.4897 38.5133 45.083 37.9067 45.8297 37.48C46.5897 37.0533 47.4364 36.84 48.3697 36.84C49.303 36.84 50.143 37.0533 50.8897 37.48C51.6364 37.9067 52.223 38.5133 52.6497 39.3C53.0897 40.0733 53.3097 40.9867 53.3097 42.04C53.3097 43.0933 53.0897 44.0133 52.6497 44.8C52.2097 45.5733 51.6097 46.1733 50.8497 46.6C50.103 47.0267 49.263 47.24 48.3297 47.24ZM48.3297 45.8C48.903 45.8 49.4364 45.66 49.9297 45.38C50.423 45.1 50.823 44.68 51.1297 44.12C51.4364 43.56 51.5897 42.8667 51.5897 42.04C51.5897 41.2133 51.4364 40.52 51.1297 39.96C50.8364 39.4 50.443 38.98 49.9497 38.7C49.4564 38.42 48.9297 38.28 48.3697 38.28C47.7964 38.28 47.263 38.42 46.7697 38.7C46.2764 38.98 45.8764 39.4 45.5697 39.96C45.263 40.52 45.1097 41.2133 45.1097 42.04C45.1097 42.8667 45.263 43.56 45.5697 44.12C45.8764 44.68 46.2697 45.1 46.7497 45.38C47.243 45.66 47.7697 45.8 48.3297 45.8ZM69.6186 37.08V47H68.0986L67.9986 45.22C67.6786 45.8467 67.2186 46.34 66.6186 46.7C66.0186 47.06 65.3386 47.24 64.5786 47.24C63.4053 47.24 62.4653 46.8867 61.7586 46.18C61.0653 45.46 60.7186 44.36 60.7186 42.88V37.08H62.3986V42.7C62.3986 44.7667 63.2519 45.8 64.9586 45.8C65.8119 45.8 66.5186 45.4933 67.0786 44.88C67.6519 44.2533 67.9386 43.3667 67.9386 42.22V37.08H69.6186ZM77.6839 47.24C76.8706 47.24 76.1439 47.0733 75.5039 46.74C74.8772 46.4067 74.3972 45.94 74.0639 45.34L73.9039 47H72.3839V32.6H74.0639V38.72C74.3839 38.24 74.8372 37.8067 75.4239 37.42C76.0239 37.0333 76.7839 36.84 77.7039 36.84C78.6906 36.84 79.5506 37.0667 80.2839 37.52C81.0172 37.9733 81.5839 38.5933 81.9839 39.38C82.3972 40.1667 82.6039 41.06 82.6039 42.06C82.6039 43.06 82.3972 43.9533 81.9839 44.74C81.5839 45.5133 81.0106 46.1267 80.2639 46.58C79.5306 47.02 78.6706 47.24 77.6839 47.24ZM77.5039 45.78C78.1706 45.78 78.7572 45.6267 79.2639 45.32C79.7706 45 80.1706 44.56 80.4639 44C80.7572 43.44 80.9039 42.7867 80.9039 42.04C80.9039 41.2933 80.7572 40.64 80.4639 40.08C80.1706 39.52 79.7706 39.0867 79.2639 38.78C78.7572 38.46 78.1706 38.3 77.5039 38.3C76.8372 38.3 76.2506 38.46 75.7439 38.78C75.2372 39.0867 74.8372 39.52 74.5439 40.08C74.2506 40.64 74.1039 41.2933 74.1039 42.04C74.1039 42.7867 74.2506 43.44 74.5439 44C74.8372 44.56 75.2372 45 75.7439 45.32C76.2506 45.6267 76.8372 45.78 77.5039 45.78ZM85.9625 34.88C85.6292 34.88 85.3492 34.7733 85.1225 34.56C84.9092 34.3333 84.8025 34.0533 84.8025 33.72C84.8025 33.4 84.9092 33.1333 85.1225 32.92C85.3492 32.7067 85.6292 32.6 85.9625 32.6C86.2825 32.6 86.5558 32.7067 86.7825 32.92C87.0092 33.1333 87.1225 33.4 87.1225 33.72C87.1225 34.0533 87.0092 34.3333 86.7825 34.56C86.5558 34.7733 86.2825 34.88 85.9625 34.88ZM85.1225 47V37.08H86.8025V47H85.1225ZM97.8677 51.4V45.36C97.5477 45.84 97.0877 46.2733 96.4877 46.66C95.8877 47.0467 95.1343 47.24 94.2277 47.24C93.241 47.24 92.3743 47.0133 91.6277 46.56C90.8943 46.1067 90.321 45.4867 89.9077 44.7C89.5077 43.9133 89.3077 43.02 89.3077 42.02C89.3077 41.02 89.5143 40.1333 89.9277 39.36C90.341 38.5733 90.9143 37.96 91.6477 37.52C92.381 37.0667 93.2477 36.84 94.2477 36.84C95.061 36.84 95.781 37.0067 96.4077 37.34C97.0343 37.6733 97.521 38.14 97.8677 38.74L98.0277 37.08H99.5477V51.4H97.8677ZM94.4077 45.78C95.0743 45.78 95.661 45.6267 96.1677 45.32C96.6877 45 97.0877 44.56 97.3677 44C97.661 43.44 97.8077 42.7867 97.8077 42.04C97.8077 41.2933 97.661 40.64 97.3677 40.08C97.0877 39.52 96.6877 39.0867 96.1677 38.78C95.661 38.46 95.0743 38.3 94.4077 38.3C93.7543 38.3 93.1677 38.46 92.6477 38.78C92.141 39.0867 91.741 39.52 91.4477 40.08C91.1677 40.64 91.0277 41.2933 91.0277 42.04C91.0277 42.7867 91.1677 43.44 91.4477 44C91.741 44.56 92.141 45 92.6477 45.32C93.1677 45.6267 93.7543 45.78 94.4077 45.78ZM110.966 37.08V47H109.446L109.346 45.22C109.026 45.8467 108.566 46.34 107.966 46.7C107.366 47.06 106.686 47.24 105.926 47.24C104.753 47.24 103.813 46.8867 103.106 46.18C102.413 45.46 102.066 44.36 102.066 42.88V37.08H103.746V42.7C103.746 44.7667 104.6 45.8 106.306 45.8C107.16 45.8 107.866 45.4933 108.426 44.88C109 44.2533 109.286 43.3667 109.286 42.22V37.08H110.966ZM118.192 47.24C117.245 47.24 116.405 47.0267 115.672 46.6C114.938 46.16 114.358 45.5533 113.932 44.78C113.518 44.0067 113.312 43.0933 113.312 42.04C113.312 41 113.518 40.0933 113.932 39.32C114.345 38.5333 114.918 37.9267 115.652 37.5C116.398 37.06 117.258 36.84 118.232 36.84C119.192 36.84 120.018 37.06 120.712 37.5C121.418 37.9267 121.958 38.4933 122.332 39.2C122.705 39.9067 122.892 40.6667 122.892 41.48C122.892 41.6267 122.885 41.7733 122.872 41.92C122.872 42.0667 122.872 42.2333 122.872 42.42H114.972C115.012 43.18 115.185 43.8133 115.492 44.32C115.812 44.8133 116.205 45.1867 116.672 45.44C117.152 45.6933 117.658 45.82 118.192 45.82C118.885 45.82 119.465 45.66 119.932 45.34C120.398 45.02 120.738 44.5867 120.952 44.04H122.612C122.345 44.96 121.832 45.7267 121.072 46.34C120.325 46.94 119.365 47.24 118.192 47.24ZM118.192 38.26C117.392 38.26 116.678 38.5067 116.052 39C115.438 39.48 115.085 40.1867 114.992 41.12H121.232C121.192 40.2267 120.885 39.5267 120.312 39.02C119.738 38.5133 119.032 38.26 118.192 38.26ZM130.411 51.4V37.08H131.931L132.091 38.72C132.411 38.24 132.865 37.8067 133.451 37.42C134.051 37.0333 134.811 36.84 135.731 36.84C136.718 36.84 137.578 37.0667 138.311 37.52C139.045 37.9733 139.611 38.5933 140.011 39.38C140.425 40.1667 140.631 41.06 140.631 42.06C140.631 43.06 140.425 43.9533 140.011 44.74C139.611 45.5133 139.038 46.1267 138.291 46.58C137.558 47.02 136.698 47.24 135.711 47.24C134.898 47.24 134.171 47.0733 133.531 46.74C132.905 46.4067 132.425 45.94 132.091 45.34V51.4H130.411ZM135.531 45.78C136.198 45.78 136.785 45.6267 137.291 45.32C137.798 45 138.198 44.56 138.491 44C138.785 43.44 138.931 42.7867 138.931 42.04C138.931 41.2933 138.785 40.64 138.491 40.08C138.198 39.52 137.798 39.0867 137.291 38.78C136.785 38.46 136.198 38.3 135.531 38.3C134.865 38.3 134.278 38.46 133.771 38.78C133.265 39.0867 132.865 39.52 132.571 40.08C132.278 40.64 132.131 41.2933 132.131 42.04C132.131 42.7867 132.278 43.44 132.571 44C132.865 44.56 133.265 45 133.771 45.32C134.278 45.6267 134.865 45.78 135.531 45.78ZM147.43 47.24C146.483 47.24 145.643 47.0267 144.91 46.6C144.177 46.16 143.597 45.5533 143.17 44.78C142.757 44.0067 142.55 43.0933 142.55 42.04C142.55 41 142.757 40.0933 143.17 39.32C143.583 38.5333 144.157 37.9267 144.89 37.5C145.637 37.06 146.497 36.84 147.47 36.84C148.43 36.84 149.257 37.06 149.95 37.5C150.657 37.9267 151.197 38.4933 151.57 39.2C151.943 39.9067 152.13 40.6667 152.13 41.48C152.13 41.6267 152.123 41.7733 152.11 41.92C152.11 42.0667 152.11 42.2333 152.11 42.42H144.21C144.25 43.18 144.423 43.8133 144.73 44.32C145.05 44.8133 145.443 45.1867 145.91 45.44C146.39 45.6933 146.897 45.82 147.43 45.82C148.123 45.82 148.703 45.66 149.17 45.34C149.637 45.02 149.977 44.5867 150.19 44.04H151.85C151.583 44.96 151.07 45.7267 150.31 46.34C149.563 46.94 148.603 47.24 147.43 47.24ZM147.43 38.26C146.63 38.26 145.917 38.5067 145.29 39C144.677 39.48 144.323 40.1867 144.23 41.12H150.47C150.43 40.2267 150.123 39.5267 149.55 39.02C148.977 38.5133 148.27 38.26 147.43 38.26ZM154.357 47V37.08H155.877L156.017 38.98C156.323 38.3267 156.79 37.8067 157.417 37.42C158.043 37.0333 158.817 36.84 159.737 36.84V38.6H159.277C158.69 38.6 158.15 38.7067 157.657 38.92C157.163 39.12 156.77 39.4667 156.477 39.96C156.183 40.4533 156.037 41.1333 156.037 42V47H154.357ZM165.422 47.24C164.236 47.24 163.249 46.94 162.462 46.34C161.676 45.74 161.216 44.9267 161.082 43.9H162.802C162.909 44.42 163.182 44.8733 163.622 45.26C164.076 45.6333 164.682 45.82 165.442 45.82C166.149 45.82 166.669 45.6733 167.002 45.38C167.336 45.0733 167.502 44.7133 167.502 44.3C167.502 43.7 167.282 43.3 166.842 43.1C166.416 42.9 165.809 42.72 165.022 42.56C164.489 42.4533 163.956 42.3 163.422 42.1C162.889 41.9 162.442 41.62 162.082 41.26C161.722 40.8867 161.542 40.4 161.542 39.8C161.542 38.9333 161.862 38.2267 162.502 37.68C163.156 37.12 164.036 36.84 165.142 36.84C166.196 36.84 167.056 37.1067 167.722 37.64C168.402 38.16 168.796 38.9067 168.902 39.88H167.242C167.176 39.3733 166.956 38.98 166.582 38.7C166.222 38.4067 165.736 38.26 165.122 38.26C164.522 38.26 164.056 38.3867 163.722 38.64C163.402 38.8933 163.242 39.2267 163.242 39.64C163.242 40.04 163.449 40.3533 163.862 40.58C164.289 40.8067 164.862 41 165.582 41.16C166.196 41.2933 166.776 41.46 167.322 41.66C167.882 41.8467 168.336 42.1333 168.682 42.52C169.042 42.8933 169.222 43.44 169.222 44.16C169.236 45.0533 168.896 45.7933 168.202 46.38C167.522 46.9533 166.596 47.24 165.422 47.24ZM176.082 47.24C175.136 47.24 174.296 47.0267 173.562 46.6C172.829 46.16 172.249 45.5533 171.822 44.78C171.409 44.0067 171.202 43.0933 171.202 42.04C171.202 41 171.409 40.0933 171.822 39.32C172.236 38.5333 172.809 37.9267 173.542 37.5C174.289 37.06 175.149 36.84 176.122 36.84C177.082 36.84 177.909 37.06 178.602 37.5C179.309 37.9267 179.849 38.4933 180.222 39.2C180.596 39.9067 180.782 40.6667 180.782 41.48C180.782 41.6267 180.776 41.7733 180.762 41.92C180.762 42.0667 180.762 42.2333 180.762 42.42H172.862C172.902 43.18 173.076 43.8133 173.382 44.32C173.702 44.8133 174.096 45.1867 174.562 45.44C175.042 45.6933 175.549 45.82 176.082 45.82C176.776 45.82 177.356 45.66 177.822 45.34C178.289 45.02 178.629 44.5867 178.842 44.04H180.502C180.236 44.96 179.722 45.7267 178.962 46.34C178.216 46.94 177.256 47.24 176.082 47.24ZM176.082 38.26C175.282 38.26 174.569 38.5067 173.942 39C173.329 39.48 172.976 40.1867 172.882 41.12H179.122C179.082 40.2267 178.776 39.5267 178.202 39.02C177.629 38.5133 176.922 38.26 176.082 38.26ZM187.569 47.24C186.622 47.24 185.769 47.0267 185.009 46.6C184.262 46.16 183.669 45.5533 183.229 44.78C182.802 43.9933 182.589 43.08 182.589 42.04C182.589 41 182.802 40.0933 183.229 39.32C183.669 38.5333 184.262 37.9267 185.009 37.5C185.769 37.06 186.622 36.84 187.569 36.84C188.742 36.84 189.729 37.1467 190.529 37.76C191.342 38.3733 191.856 39.1933 192.069 40.22H190.349C190.216 39.6067 189.889 39.1333 189.369 38.8C188.849 38.4533 188.242 38.28 187.549 38.28C186.989 38.28 186.462 38.42 185.969 38.7C185.476 38.98 185.076 39.4 184.769 39.96C184.462 40.52 184.309 41.2133 184.309 42.04C184.309 42.8667 184.462 43.56 184.769 44.12C185.076 44.68 185.476 45.1067 185.969 45.4C186.462 45.68 186.989 45.82 187.549 45.82C188.242 45.82 188.849 45.6533 189.369 45.32C189.889 44.9733 190.216 44.4867 190.349 43.86H192.069C191.869 44.86 191.362 45.6733 190.549 46.3C189.736 46.9267 188.742 47.24 187.569 47.24ZM203.095 37.08V47H201.575L201.475 45.22C201.155 45.8467 200.695 46.34 200.095 46.7C199.495 47.06 198.815 47.24 198.055 47.24C196.882 47.24 195.942 46.8867 195.235 46.18C194.542 45.46 194.195 44.36 194.195 42.88V37.08H195.875V42.7C195.875 44.7667 196.728 45.8 198.435 45.8C199.288 45.8 199.995 45.4933 200.555 44.88C201.128 44.2533 201.415 43.3667 201.415 42.22V37.08H203.095ZM209.78 47C208.874 47 208.16 46.78 207.64 46.34C207.12 45.9 206.86 45.1067 206.86 43.96V38.5H205.14V37.08H206.86L207.08 34.7H208.54V37.08H211.46V38.5H208.54V43.96C208.54 44.5867 208.667 45.0133 208.92 45.24C209.174 45.4533 209.62 45.56 210.26 45.56H211.3V47H209.78ZM214.615 34.88C214.282 34.88 214.002 34.7733 213.775 34.56C213.562 34.3333 213.455 34.0533 213.455 33.72C213.455 33.4 213.562 33.1333 213.775 32.92C214.002 32.7067 214.282 32.6 214.615 32.6C214.935 32.6 215.208 32.7067 215.435 32.92C215.662 33.1333 215.775 33.4 215.775 33.72C215.775 34.0533 215.662 34.3333 215.435 34.56C215.208 34.7733 214.935 34.88 214.615 34.88ZM213.775 47V37.08H215.455V47H213.775ZM217.04 49.38L218.2 44.96H219.94L218.2 49.38H217.04ZM230.528 47.24C229.701 47.24 229.014 47.1 228.468 46.82C227.921 46.54 227.514 46.1667 227.248 45.7C226.981 45.2333 226.848 44.7267 226.848 44.18C226.848 43.1667 227.234 42.3867 228.008 41.84C228.781 41.2933 229.834 41.02 231.168 41.02H233.848V40.9C233.848 40.0333 233.621 39.38 233.168 38.94C232.714 38.4867 232.108 38.26 231.348 38.26C230.694 38.26 230.128 38.4267 229.648 38.76C229.181 39.08 228.888 39.5533 228.768 40.18H227.048C227.114 39.46 227.354 38.8533 227.768 38.36C228.194 37.8667 228.721 37.4933 229.348 37.24C229.974 36.9733 230.641 36.84 231.348 36.84C232.734 36.84 233.774 37.2133 234.468 37.96C235.174 38.6933 235.528 39.6733 235.528 40.9V47H234.028L233.928 45.22C233.648 45.78 233.234 46.26 232.688 46.66C232.154 47.0467 231.434 47.24 230.528 47.24ZM230.788 45.82C231.428 45.82 231.974 45.6533 232.428 45.32C232.894 44.9867 233.248 44.5533 233.488 44.02C233.728 43.4867 233.848 42.9267 233.848 42.34V42.32H231.308C230.321 42.32 229.621 42.4933 229.208 42.84C228.808 43.1733 228.608 43.5933 228.608 44.1C228.608 44.62 228.794 45.04 229.168 45.36C229.554 45.6667 230.094 45.82 230.788 45.82ZM241.695 47C240.788 47 240.075 46.78 239.555 46.34C239.035 45.9 238.775 45.1067 238.775 43.96V38.5H237.055V37.08H238.775L238.995 34.7H240.455V37.08H243.375V38.5H240.455V43.96C240.455 44.5867 240.581 45.0133 240.835 45.24C241.088 45.4533 241.535 45.56 242.175 45.56H243.215V47H241.695ZM254.602 47.24C253.415 47.24 252.429 46.94 251.642 46.34C250.855 45.74 250.395 44.9267 250.262 43.9H251.982C252.089 44.42 252.362 44.8733 252.802 45.26C253.255 45.6333 253.862 45.82 254.622 45.82C255.329 45.82 255.849 45.6733 256.182 45.38C256.515 45.0733 256.682 44.7133 256.682 44.3C256.682 43.7 256.462 43.3 256.022 43.1C255.595 42.9 254.989 42.72 254.202 42.56C253.669 42.4533 253.135 42.3 252.602 42.1C252.069 41.9 251.622 41.62 251.262 41.26C250.902 40.8867 250.722 40.4 250.722 39.8C250.722 38.9333 251.042 38.2267 251.682 37.68C252.335 37.12 253.215 36.84 254.322 36.84C255.375 36.84 256.235 37.1067 256.902 37.64C257.582 38.16 257.975 38.9067 258.082 39.88H256.422C256.355 39.3733 256.135 38.98 255.762 38.7C255.402 38.4067 254.915 38.26 254.302 38.26C253.702 38.26 253.235 38.3867 252.902 38.64C252.582 38.8933 252.422 39.2267 252.422 39.64C252.422 40.04 252.629 40.3533 253.042 40.58C253.469 40.8067 254.042 41 254.762 41.16C255.375 41.2933 255.955 41.46 256.502 41.66C257.062 41.8467 257.515 42.1333 257.862 42.52C258.222 42.8933 258.402 43.44 258.402 44.16C258.415 45.0533 258.075 45.7933 257.382 46.38C256.702 46.9533 255.775 47.24 254.602 47.24ZM261.822 34.88C261.489 34.88 261.209 34.7733 260.982 34.56C260.769 34.3333 260.662 34.0533 260.662 33.72C260.662 33.4 260.769 33.1333 260.982 32.92C261.209 32.7067 261.489 32.6 261.822 32.6C262.142 32.6 262.415 32.7067 262.642 32.92C262.869 33.1333 262.982 33.4 262.982 33.72C262.982 34.0533 262.869 34.3333 262.642 34.56C262.415 34.7733 262.142 34.88 261.822 34.88ZM260.982 47V37.08H262.662V47H260.982ZM269.507 47C268.6 47 267.887 46.78 267.367 46.34C266.847 45.9 266.587 45.1067 266.587 43.96V38.5H264.867V37.08H266.587L266.807 34.7H268.267V37.08H271.187V38.5H268.267V43.96C268.267 44.5867 268.394 45.0133 268.647 45.24C268.9 45.4533 269.347 45.56 269.987 45.56H271.027V47H269.507ZM279.634 34.88C279.301 34.88 279.021 34.7733 278.794 34.56C278.581 34.3333 278.474 34.0533 278.474 33.72C278.474 33.4 278.581 33.1333 278.794 32.92C279.021 32.7067 279.301 32.6 279.634 32.6C279.954 32.6 280.228 32.7067 280.454 32.92C280.681 33.1333 280.794 33.4 280.794 33.72C280.794 34.0533 280.681 34.3333 280.454 34.56C280.228 34.7733 279.954 34.88 279.634 34.88ZM278.794 47V37.08H280.474V47H278.794ZM292.08 37.08V47H290.56L290.46 45.22C290.14 45.8467 289.68 46.34 289.08 46.7C288.48 47.06 287.8 47.24 287.04 47.24C285.866 47.24 284.926 46.8867 284.22 46.18C283.526 45.46 283.18 44.36 283.18 42.88V37.08H284.86V42.7C284.86 44.7667 285.713 45.8 287.42 45.8C288.273 45.8 288.98 45.4933 289.54 44.88C290.113 44.2533 290.4 43.3667 290.4 42.22V37.08H292.08ZM298.645 47.24C297.458 47.24 296.472 46.94 295.685 46.34C294.898 45.74 294.438 44.9267 294.305 43.9H296.025C296.132 44.42 296.405 44.8733 296.845 45.26C297.298 45.6333 297.905 45.82 298.665 45.82C299.372 45.82 299.892 45.6733 300.225 45.38C300.558 45.0733 300.725 44.7133 300.725 44.3C300.725 43.7 300.505 43.3 300.065 43.1C299.638 42.9 299.032 42.72 298.245 42.56C297.712 42.4533 297.178 42.3 296.645 42.1C296.112 41.9 295.665 41.62 295.305 41.26C294.945 40.8867 294.765 40.4 294.765 39.8C294.765 38.9333 295.085 38.2267 295.725 37.68C296.378 37.12 297.258 36.84 298.365 36.84C299.418 36.84 300.278 37.1067 300.945 37.64C301.625 38.16 302.018 38.9067 302.125 39.88H300.465C300.398 39.3733 300.178 38.98 299.805 38.7C299.445 38.4067 298.958 38.26 298.345 38.26C297.745 38.26 297.278 38.3867 296.945 38.64C296.625 38.8933 296.465 39.2267 296.465 39.64C296.465 40.04 296.672 40.3533 297.085 40.58C297.512 40.8067 298.085 41 298.805 41.16C299.418 41.2933 299.998 41.46 300.545 41.66C301.105 41.8467 301.558 42.1333 301.905 42.52C302.265 42.8933 302.445 43.44 302.445 44.16C302.458 45.0533 302.118 45.7933 301.425 46.38C300.745 46.9533 299.818 47.24 298.645 47.24ZM308.316 47C307.409 47 306.696 46.78 306.176 46.34C305.656 45.9 305.396 45.1067 305.396 43.96V38.5H303.676V37.08H305.396L305.616 34.7H307.076V37.08H309.996V38.5H307.076V43.96C307.076 44.5867 307.202 45.0133 307.456 45.24C307.709 45.4533 308.156 45.56 308.796 45.56H309.836V47H308.316ZM316.377 47.24C315.443 47.24 314.603 47.0267 313.857 46.6C313.11 46.1733 312.517 45.5733 312.077 44.8C311.65 44.0133 311.437 43.0933 311.437 42.04C311.437 40.9867 311.657 40.0733 312.097 39.3C312.537 38.5133 313.13 37.9067 313.877 37.48C314.637 37.0533 315.483 36.84 316.417 36.84C317.35 36.84 318.19 37.0533 318.937 37.48C319.683 37.9067 320.27 38.5133 320.697 39.3C321.137 40.0733 321.357 40.9867 321.357 42.04C321.357 43.0933 321.137 44.0133 320.697 44.8C320.257 45.5733 319.657 46.1733 318.897 46.6C318.15 47.0267 317.31 47.24 316.377 47.24ZM316.377 45.8C316.95 45.8 317.483 45.66 317.977 45.38C318.47 45.1 318.87 44.68 319.177 44.12C319.483 43.56 319.637 42.8667 319.637 42.04C319.637 41.2133 319.483 40.52 319.177 39.96C318.883 39.4 318.49 38.98 317.997 38.7C317.503 38.42 316.977 38.28 316.417 38.28C315.843 38.28 315.31 38.42 314.817 38.7C314.323 38.98 313.923 39.4 313.617 39.96C313.31 40.52 313.157 41.2133 313.157 42.04C313.157 42.8667 313.31 43.56 313.617 44.12C313.923 44.68 314.317 45.1 314.797 45.38C315.29 45.66 315.817 45.8 316.377 45.8ZM332.285 47.24C331.459 47.24 330.772 47.1 330.225 46.82C329.679 46.54 329.272 46.1667 329.005 45.7C328.739 45.2333 328.605 44.7267 328.605 44.18C328.605 43.1667 328.992 42.3867 329.765 41.84C330.539 41.2933 331.592 41.02 332.925 41.02H335.605V40.9C335.605 40.0333 335.379 39.38 334.925 38.94C334.472 38.4867 333.865 38.26 333.105 38.26C332.452 38.26 331.885 38.4267 331.405 38.76C330.939 39.08 330.645 39.5533 330.525 40.18H328.805C328.872 39.46 329.112 38.8533 329.525 38.36C329.952 37.8667 330.479 37.4933 331.105 37.24C331.732 36.9733 332.399 36.84 333.105 36.84C334.492 36.84 335.532 37.2133 336.225 37.96C336.932 38.6933 337.285 39.6733 337.285 40.9V47H335.785L335.685 45.22C335.405 45.78 334.992 46.26 334.445 46.66C333.912 47.0467 333.192 47.24 332.285 47.24ZM332.545 45.82C333.185 45.82 333.732 45.6533 334.185 45.32C334.652 44.9867 335.005 44.5533 335.245 44.02C335.485 43.4867 335.605 42.9267 335.605 42.34V42.32H333.065C332.079 42.32 331.379 42.4933 330.965 42.84C330.565 43.1733 330.365 43.5933 330.365 44.1C330.365 44.62 330.552 45.04 330.925 45.36C331.312 45.6667 331.852 45.82 332.545 45.82ZM339.806 47V32.6H341.486V47H339.806ZM345.259 34.88C344.926 34.88 344.646 34.7733 344.419 34.56C344.206 34.3333 344.099 34.0533 344.099 33.72C344.099 33.4 344.206 33.1333 344.419 32.92C344.646 32.7067 344.926 32.6 345.259 32.6C345.579 32.6 345.853 32.7067 346.079 32.92C346.306 33.1333 346.419 33.4 346.419 33.72C346.419 34.0533 346.306 34.3333 346.079 34.56C345.853 34.7733 345.579 34.88 345.259 34.88ZM344.419 47V37.08H346.099V47H344.419ZM357.165 51.4V45.36C356.845 45.84 356.385 46.2733 355.785 46.66C355.185 47.0467 354.431 47.24 353.525 47.24C352.538 47.24 351.671 47.0133 350.925 46.56C350.191 46.1067 349.618 45.4867 349.205 44.7C348.805 43.9133 348.605 43.02 348.605 42.02C348.605 41.02 348.811 40.1333 349.225 39.36C349.638 38.5733 350.211 37.96 350.945 37.52C351.678 37.0667 352.545 36.84 353.545 36.84C354.358 36.84 355.078 37.0067 355.705 37.34C356.331 37.6733 356.818 38.14 357.165 38.74L357.325 37.08H358.845V51.4H357.165ZM353.705 45.78C354.371 45.78 354.958 45.6267 355.465 45.32C355.985 45 356.385 44.56 356.665 44C356.958 43.44 357.105 42.7867 357.105 42.04C357.105 41.2933 356.958 40.64 356.665 40.08C356.385 39.52 355.985 39.0867 355.465 38.78C354.958 38.46 354.371 38.3 353.705 38.3C353.051 38.3 352.465 38.46 351.945 38.78C351.438 39.0867 351.038 39.52 350.745 40.08C350.465 40.64 350.325 41.2933 350.325 42.04C350.325 42.7867 350.465 43.44 350.745 44C351.038 44.56 351.438 45 351.945 45.32C352.465 45.6267 353.051 45.78 353.705 45.78ZM370.263 37.08V47H368.743L368.643 45.22C368.323 45.8467 367.863 46.34 367.263 46.7C366.663 47.06 365.983 47.24 365.223 47.24C364.05 47.24 363.11 46.8867 362.403 46.18C361.71 45.46 361.363 44.36 361.363 42.88V37.08H363.043V42.7C363.043 44.7667 363.896 45.8 365.603 45.8C366.456 45.8 367.163 45.4933 367.723 44.88C368.296 44.2533 368.583 43.3667 368.583 42.22V37.08H370.263ZM376.328 47.24C375.502 47.24 374.815 47.1 374.268 46.82C373.722 46.54 373.315 46.1667 373.048 45.7C372.782 45.2333 372.648 44.7267 372.648 44.18C372.648 43.1667 373.035 42.3867 373.808 41.84C374.582 41.2933 375.635 41.02 376.968 41.02H379.648V40.9C379.648 40.0333 379.422 39.38 378.968 38.94C378.515 38.4867 377.908 38.26 377.148 38.26C376.495 38.26 375.928 38.4267 375.448 38.76C374.982 39.08 374.688 39.5533 374.568 40.18H372.848C372.915 39.46 373.155 38.8533 373.568 38.36C373.995 37.8667 374.522 37.4933 375.148 37.24C375.775 36.9733 376.442 36.84 377.148 36.84C378.535 36.84 379.575 37.2133 380.268 37.96C380.975 38.6933 381.328 39.6733 381.328 40.9V47H379.828L379.728 45.22C379.448 45.78 379.035 46.26 378.488 46.66C377.955 47.0467 377.235 47.24 376.328 47.24ZM376.588 45.82C377.228 45.82 377.775 45.6533 378.228 45.32C378.695 44.9867 379.048 44.5533 379.288 44.02C379.528 43.4867 379.648 42.9267 379.648 42.34V42.32H377.108C376.122 42.32 375.422 42.4933 375.008 42.84C374.608 43.1733 374.408 43.5933 374.408 44.1C374.408 44.62 374.595 45.04 374.968 45.36C375.355 45.6667 375.895 45.82 376.588 45.82ZM383.849 47V37.08H385.369L385.489 38.52C385.809 37.9867 386.235 37.5733 386.769 37.28C387.302 36.9867 387.902 36.84 388.569 36.84C389.355 36.84 390.029 37 390.589 37.32C391.162 37.64 391.602 38.1267 391.909 38.78C392.255 38.18 392.729 37.7067 393.329 37.36C393.942 37.0133 394.602 36.84 395.309 36.84C396.495 36.84 397.442 37.2 398.149 37.92C398.855 38.6267 399.209 39.72 399.209 41.2V47H397.549V41.38C397.549 40.3533 397.342 39.58 396.929 39.06C396.515 38.54 395.922 38.28 395.149 38.28C394.349 38.28 393.682 38.5933 393.149 39.22C392.629 39.8333 392.369 40.7133 392.369 41.86V47H390.689V41.38C390.689 40.3533 390.482 39.58 390.069 39.06C389.655 38.54 389.062 38.28 388.289 38.28C387.502 38.28 386.842 38.5933 386.309 39.22C385.789 39.8333 385.529 40.7133 385.529 41.86V47H383.849ZM408.052 34.88C407.719 34.88 407.439 34.7733 407.212 34.56C406.999 34.3333 406.892 34.0533 406.892 33.72C406.892 33.4 406.999 33.1333 407.212 32.92C407.439 32.7067 407.719 32.6 408.052 32.6C408.372 32.6 408.646 32.7067 408.872 32.92C409.099 33.1333 409.212 33.4 409.212 33.72C409.212 34.0533 409.099 34.3333 408.872 34.56C408.646 34.7733 408.372 34.88 408.052 34.88ZM407.212 47V37.08H408.892V47H407.212ZM411.818 47V37.08H413.338L413.438 38.86C413.758 38.2333 414.218 37.74 414.818 37.38C415.418 37.02 416.098 36.84 416.858 36.84C418.031 36.84 418.964 37.2 419.658 37.92C420.364 38.6267 420.717 39.72 420.717 41.2V47H419.038V41.38C419.038 39.3133 418.184 38.28 416.478 38.28C415.624 38.28 414.911 38.5933 414.338 39.22C413.778 39.8333 413.498 40.7133 413.498 41.86V47H411.818ZM427.183 47C426.276 47 425.563 46.78 425.043 46.34C424.523 45.9 424.263 45.1067 424.263 43.96V38.5H422.543V37.08H424.263L424.483 34.7H425.943V37.08H428.863V38.5H425.943V43.96C425.943 44.5867 426.069 45.0133 426.323 45.24C426.576 45.4533 427.023 45.56 427.663 45.56H428.703V47H427.183ZM435.184 47.24C434.237 47.24 433.397 47.0267 432.664 46.6C431.93 46.16 431.35 45.5533 430.924 44.78C430.51 44.0067 430.304 43.0933 430.304 42.04C430.304 41 430.51 40.0933 430.924 39.32C431.337 38.5333 431.91 37.9267 432.644 37.5C433.39 37.06 434.25 36.84 435.224 36.84C436.184 36.84 437.01 37.06 437.704 37.5C438.41 37.9267 438.95 38.4933 439.324 39.2C439.697 39.9067 439.884 40.6667 439.884 41.48C439.884 41.6267 439.877 41.7733 439.864 41.92C439.864 42.0667 439.864 42.2333 439.864 42.42H431.964C432.004 43.18 432.177 43.8133 432.484 44.32C432.804 44.8133 433.197 45.1867 433.664 45.44C434.144 45.6933 434.65 45.82 435.184 45.82C435.877 45.82 436.457 45.66 436.924 45.34C437.39 45.02 437.73 44.5867 437.944 44.04H439.604C439.337 44.96 438.824 45.7267 438.064 46.34C437.317 46.94 436.357 47.24 435.184 47.24ZM435.184 38.26C434.384 38.26 433.67 38.5067 433.044 39C432.43 39.48 432.077 40.1867 431.984 41.12H438.224C438.184 40.2267 437.877 39.5267 437.304 39.02C436.73 38.5133 436.024 38.26 435.184 38.26ZM442.11 47V37.08H443.63L443.77 38.98C444.077 38.3267 444.544 37.8067 445.17 37.42C445.797 37.0333 446.57 36.84 447.49 36.84V38.6H447.03C446.444 38.6 445.904 38.7067 445.41 38.92C444.917 39.12 444.524 39.4667 444.23 39.96C443.937 40.4533 443.79 41.1333 443.79 42V47H442.11ZM449.376 51.4V37.08H450.896L451.056 38.72C451.376 38.24 451.829 37.8067 452.416 37.42C453.016 37.0333 453.776 36.84 454.696 36.84C455.683 36.84 456.543 37.0667 457.276 37.52C458.009 37.9733 458.576 38.5933 458.976 39.38C459.389 40.1667 459.596 41.06 459.596 42.06C459.596 43.06 459.389 43.9533 458.976 44.74C458.576 45.5133 458.003 46.1267 457.256 46.58C456.523 47.02 455.663 47.24 454.676 47.24C453.863 47.24 453.136 47.0733 452.496 46.74C451.869 46.4067 451.389 45.94 451.056 45.34V51.4H449.376ZM454.496 45.78C455.163 45.78 455.749 45.6267 456.256 45.32C456.763 45 457.163 44.56 457.456 44C457.749 43.44 457.896 42.7867 457.896 42.04C457.896 41.2933 457.749 40.64 457.456 40.08C457.163 39.52 456.763 39.0867 456.256 38.78C455.749 38.46 455.163 38.3 454.496 38.3C453.829 38.3 453.243 38.46 452.736 38.78C452.229 39.0867 451.829 39.52 451.536 40.08C451.243 40.64 451.096 41.2933 451.096 42.04C451.096 42.7867 451.243 43.44 451.536 44C451.829 44.56 452.229 45 452.736 45.32C453.243 45.6267 453.829 45.78 454.496 45.78ZM461.935 47V37.08H463.455L463.595 38.98C463.901 38.3267 464.368 37.8067 464.995 37.42C465.621 37.0333 466.395 36.84 467.315 36.84V38.6H466.855C466.268 38.6 465.728 38.7067 465.235 38.92C464.741 39.12 464.348 39.4667 464.055 39.96C463.761 40.4533 463.615 41.1333 463.615 42V47H461.935ZM473.289 47.24C472.343 47.24 471.503 47.0267 470.769 46.6C470.036 46.16 469.456 45.5533 469.029 44.78C468.616 44.0067 468.409 43.0933 468.409 42.04C468.409 41 468.616 40.0933 469.029 39.32C469.443 38.5333 470.016 37.9267 470.749 37.5C471.496 37.06 472.356 36.84 473.329 36.84C474.289 36.84 475.116 37.06 475.809 37.5C476.516 37.9267 477.056 38.4933 477.429 39.2C477.803 39.9067 477.989 40.6667 477.989 41.48C477.989 41.6267 477.983 41.7733 477.969 41.92C477.969 42.0667 477.969 42.2333 477.969 42.42H470.069C470.109 43.18 470.283 43.8133 470.589 44.32C470.909 44.8133 471.303 45.1867 471.769 45.44C472.249 45.6933 472.756 45.82 473.289 45.82C473.983 45.82 474.563 45.66 475.029 45.34C475.496 45.02 475.836 44.5867 476.049 44.04H477.709C477.443 44.96 476.929 45.7267 476.169 46.34C475.423 46.94 474.463 47.24 473.289 47.24ZM473.289 38.26C472.489 38.26 471.776 38.5067 471.149 39C470.536 39.48 470.183 40.1867 470.089 41.12H476.329C476.289 40.2267 475.983 39.5267 475.409 39.02C474.836 38.5133 474.129 38.26 473.289 38.26ZM483.804 47C482.897 47 482.184 46.78 481.664 46.34C481.144 45.9 480.884 45.1067 480.884 43.96V38.5H479.164V37.08H480.884L481.104 34.7H482.564V37.08H485.484V38.5H482.564V43.96C482.564 44.5867 482.691 45.0133 482.944 45.24C483.197 45.4533 483.644 45.56 484.284 45.56H485.324V47H483.804ZM490.918 47.24C490.092 47.24 489.405 47.1 488.858 46.82C488.312 46.54 487.905 46.1667 487.638 45.7C487.372 45.2333 487.238 44.7267 487.238 44.18C487.238 43.1667 487.625 42.3867 488.398 41.84C489.172 41.2933 490.225 41.02 491.558 41.02H494.238V40.9C494.238 40.0333 494.012 39.38 493.558 38.94C493.105 38.4867 492.498 38.26 491.738 38.26C491.085 38.26 490.518 38.4267 490.038 38.76C489.572 39.08 489.278 39.5533 489.158 40.18H487.438C487.505 39.46 487.745 38.8533 488.158 38.36C488.585 37.8667 489.112 37.4933 489.738 37.24C490.365 36.9733 491.032 36.84 491.738 36.84C493.125 36.84 494.165 37.2133 494.858 37.96C495.565 38.6933 495.918 39.6733 495.918 40.9V47H494.418L494.318 45.22C494.038 45.78 493.625 46.26 493.078 46.66C492.545 47.0467 491.825 47.24 490.918 47.24ZM491.178 45.82C491.818 45.82 492.365 45.6533 492.818 45.32C493.285 44.9867 493.638 44.5533 493.878 44.02C494.118 43.4867 494.238 42.9267 494.238 42.34V42.32H491.698C490.712 42.32 490.012 42.4933 489.598 42.84C489.198 43.1733 488.998 43.5933 488.998 44.1C488.998 44.62 489.185 45.04 489.558 45.36C489.945 45.6667 490.485 45.82 491.178 45.82ZM498.439 47V37.08H499.959L500.099 38.98C500.405 38.3267 500.872 37.8067 501.499 37.42C502.125 37.0333 502.899 36.84 503.819 36.84V38.6H503.359C502.772 38.6 502.232 38.7067 501.739 38.92C501.245 39.12 500.852 39.4667 500.559 39.96C500.265 40.4533 500.119 41.1333 500.119 42V47H498.439ZM506.724 34.88C506.391 34.88 506.111 34.7733 505.884 34.56C505.671 34.3333 505.564 34.0533 505.564 33.72C505.564 33.4 505.671 33.1333 505.884 32.92C506.111 32.7067 506.391 32.6 506.724 32.6C507.044 32.6 507.318 32.7067 507.544 32.92C507.771 33.1333 507.884 33.4 507.884 33.72C507.884 34.0533 507.771 34.3333 507.544 34.56C507.318 34.7733 507.044 34.88 506.724 34.88ZM505.884 47V37.08H507.564V47H505.884ZM514.289 47.24C513.103 47.24 512.116 46.94 511.329 46.34C510.543 45.74 510.083 44.9267 509.949 43.9H511.669C511.776 44.42 512.049 44.8733 512.489 45.26C512.943 45.6333 513.549 45.82 514.309 45.82C515.016 45.82 515.536 45.6733 515.869 45.38C516.203 45.0733 516.369 44.7133 516.369 44.3C516.369 43.7 516.149 43.3 515.709 43.1C515.283 42.9 514.676 42.72 513.889 42.56C513.356 42.4533 512.823 42.3 512.289 42.1C511.756 41.9 511.309 41.62 510.949 41.26C510.589 40.8867 510.409 40.4 510.409 39.8C510.409 38.9333 510.729 38.2267 511.369 37.68C512.023 37.12 512.903 36.84 514.009 36.84C515.063 36.84 515.923 37.1067 516.589 37.64C517.269 38.16 517.663 38.9067 517.769 39.88H516.109C516.043 39.3733 515.823 38.98 515.449 38.7C515.089 38.4067 514.603 38.26 513.989 38.26C513.389 38.26 512.923 38.3867 512.589 38.64C512.269 38.8933 512.109 39.2267 512.109 39.64C512.109 40.04 512.316 40.3533 512.729 40.58C513.156 40.8067 513.729 41 514.449 41.16C515.063 41.2933 515.643 41.46 516.189 41.66C516.749 41.8467 517.203 42.1333 517.549 42.52C517.909 42.8933 518.089 43.44 518.089 44.16C518.103 45.0533 517.763 45.7933 517.069 46.38C516.389 46.9533 515.463 47.24 514.289 47.24ZM521.069 47.1C520.736 47.1 520.456 46.9933 520.229 46.78C520.016 46.5533 519.909 46.28 519.909 45.96C519.909 45.64 520.016 45.3733 520.229 45.16C520.456 44.9333 520.736 44.82 521.069 44.82C521.389 44.82 521.656 44.9333 521.869 45.16C522.096 45.3733 522.209 45.64 522.209 45.96C522.209 46.28 522.096 46.5533 521.869 46.78C521.656 46.9933 521.389 47.1 521.069 47.1Z" fill="black"/>
</svg>
