<svg width="86" height="13" viewBox="0 0 86 13" fill="none" xmlns="http://www.w3.org/2000/svg">
<path d="M0.0880001 12V0.799999H2.136V10.4H7.096V12H0.0880001ZM12.3491 12.192C11.5491 12.192 10.8398 12.0213 10.2211 11.68C9.60246 11.3387 9.11713 10.8587 8.76513 10.24C8.41313 9.62133 8.23713 8.90667 8.23713 8.096C8.23713 7.27467 8.40779 6.544 8.74913 5.904C9.10113 5.264 9.58113 4.768 10.1891 4.416C10.8078 4.05333 11.5331 3.872 12.3651 3.872C13.1438 3.872 13.8318 4.04267 14.4291 4.384C15.0265 4.72533 15.4905 5.19467 15.8211 5.792C16.1625 6.37867 16.3331 7.03467 16.3331 7.76C16.3331 7.87733 16.3278 8 16.3171 8.128C16.3171 8.256 16.3118 8.38933 16.3011 8.528H10.2691C10.3118 9.14667 10.5251 9.632 10.9091 9.984C11.3038 10.336 11.7785 10.512 12.3331 10.512C12.7491 10.512 13.0958 10.4213 13.3731 10.24C13.6611 10.048 13.8745 9.80267 14.0131 9.504H16.0931C15.9438 10.0053 15.6931 10.464 15.3411 10.88C14.9998 11.2853 14.5731 11.6053 14.0611 11.84C13.5598 12.0747 12.9891 12.192 12.3491 12.192ZM12.3651 5.536C11.8638 5.536 11.4211 5.68 11.0371 5.968C10.6531 6.24533 10.4078 6.672 10.3011 7.248H14.2531C14.2211 6.72533 14.0291 6.30933 13.6771 6C13.3251 5.69067 12.8878 5.536 12.3651 5.536ZM20.7916 12.192C20.109 12.192 19.549 12.0853 19.1116 11.872C18.6743 11.648 18.349 11.3547 18.1356 10.992C17.9223 10.6293 17.8156 10.2293 17.8156 9.792C17.8156 9.056 18.1036 8.45867 18.6796 8C19.2556 7.54133 20.1196 7.312 21.2716 7.312H23.2876V7.12C23.2876 6.576 23.133 6.176 22.8236 5.92C22.5143 5.664 22.1303 5.536 21.6716 5.536C21.2556 5.536 20.893 5.63733 20.5836 5.84C20.2743 6.032 20.0823 6.32 20.0076 6.704H18.0076C18.061 6.128 18.253 5.62667 18.5836 5.2C18.925 4.77333 19.3623 4.448 19.8956 4.224C20.429 3.98933 21.0263 3.872 21.6876 3.872C22.8183 3.872 23.709 4.15467 24.3596 4.72C25.0103 5.28533 25.3356 6.08533 25.3356 7.12V12H23.5916L23.3996 10.72C23.165 11.1467 22.8343 11.4987 22.4076 11.776C21.9916 12.0533 21.453 12.192 20.7916 12.192ZM21.2556 10.592C21.8423 10.592 22.2956 10.4 22.6156 10.016C22.9463 9.632 23.1543 9.15733 23.2396 8.592H21.4956C20.9516 8.592 20.5623 8.69333 20.3276 8.896C20.093 9.088 19.9756 9.328 19.9756 9.616C19.9756 9.92533 20.093 10.1653 20.3276 10.336C20.5623 10.5067 20.8716 10.592 21.2556 10.592ZM27.29 12V4.064H29.114L29.306 5.552C29.594 5.04 29.9833 4.63467 30.474 4.336C30.9753 4.02667 31.562 3.872 32.234 3.872V6.032H31.658C31.21 6.032 30.81 6.10133 30.458 6.24C30.106 6.37867 29.8287 6.61867 29.626 6.96C29.434 7.30133 29.338 7.776 29.338 8.384V12H27.29ZM33.6338 12V4.064H35.4418L35.6018 5.408C35.8471 4.93867 36.1991 4.56533 36.6578 4.288C37.1271 4.01067 37.6764 3.872 38.3058 3.872C39.2871 3.872 40.0498 4.18133 40.5938 4.8C41.1377 5.41867 41.4097 6.32533 41.4097 7.52V12H39.3618V7.712C39.3618 7.02933 39.2231 6.50667 38.9458 6.144C38.6684 5.78133 38.2364 5.6 37.6498 5.6C37.0738 5.6 36.5991 5.80267 36.2258 6.208C35.8631 6.61333 35.6818 7.17867 35.6818 7.904V12H33.6338ZM47.1806 12V4.064H48.9886L49.1646 5.136C49.4206 4.752 49.7566 4.448 50.1726 4.224C50.5993 3.98933 51.09 3.872 51.6446 3.872C52.8713 3.872 53.7406 4.34667 54.2526 5.296C54.5406 4.85867 54.9246 4.512 55.4046 4.256C55.8953 4 56.4286 3.872 57.0046 3.872C58.0393 3.872 58.834 4.18133 59.3886 4.8C59.9433 5.41867 60.2206 6.32533 60.2206 7.52V12H58.1726V7.712C58.1726 7.02933 58.0393 6.50667 57.7726 6.144C57.5166 5.78133 57.1166 5.6 56.5726 5.6C56.018 5.6 55.57 5.80267 55.2286 6.208C54.898 6.61333 54.7326 7.17867 54.7326 7.904V12H52.6846V7.712C52.6846 7.02933 52.5513 6.50667 52.2846 6.144C52.018 5.78133 51.6073 5.6 51.0526 5.6C50.5086 5.6 50.066 5.80267 49.7246 6.208C49.394 6.61333 49.2286 7.17867 49.2286 7.904V12H47.1806ZM65.973 12.192C65.205 12.192 64.5117 12.016 63.893 11.664C63.285 11.312 62.7997 10.8267 62.437 10.208C62.085 9.57867 61.909 8.85333 61.909 8.032C61.909 7.21067 62.0903 6.49067 62.453 5.872C62.8157 5.24267 63.301 4.752 63.909 4.4C64.5277 4.048 65.221 3.872 65.989 3.872C66.7463 3.872 67.429 4.048 68.037 4.4C68.6557 4.752 69.141 5.24267 69.493 5.872C69.8557 6.49067 70.037 7.21067 70.037 8.032C70.037 8.85333 69.8557 9.57867 69.493 10.208C69.141 10.8267 68.6557 11.312 68.037 11.664C67.4183 12.016 66.7303 12.192 65.973 12.192ZM65.973 10.416C66.5063 10.416 66.9703 10.2187 67.365 9.824C67.7597 9.41867 67.957 8.82133 67.957 8.032C67.957 7.24267 67.7597 6.65067 67.365 6.256C66.9703 5.85067 66.5117 5.648 65.989 5.648C65.445 5.648 64.9757 5.85067 64.581 6.256C64.197 6.65067 64.005 7.24267 64.005 8.032C64.005 8.82133 64.197 9.41867 64.581 9.824C64.9757 10.2187 65.4397 10.416 65.973 10.416ZM71.8681 12V4.064H73.6921L73.8841 5.552C74.1721 5.04 74.5615 4.63467 75.0521 4.336C75.5535 4.02667 76.1401 3.872 76.8121 3.872V6.032H76.2361C75.7881 6.032 75.3881 6.10133 75.0361 6.24C74.6841 6.37867 74.4068 6.61867 74.2041 6.96C74.0121 7.30133 73.9161 7.776 73.9161 8.384V12H71.8681ZM81.9273 12.192C81.1273 12.192 80.4179 12.0213 79.7993 11.68C79.1806 11.3387 78.6953 10.8587 78.3433 10.24C77.9913 9.62133 77.8153 8.90667 77.8153 8.096C77.8153 7.27467 77.9859 6.544 78.3273 5.904C78.6793 5.264 79.1593 4.768 79.7673 4.416C80.3859 4.05333 81.1113 3.872 81.9433 3.872C82.7219 3.872 83.4099 4.04267 84.0073 4.384C84.6046 4.72533 85.0686 5.19467 85.3993 5.792C85.7406 6.37867 85.9113 7.03467 85.9113 7.76C85.9113 7.87733 85.9059 8 85.8953 8.128C85.8953 8.256 85.8899 8.38933 85.8793 8.528H79.8473C79.8899 9.14667 80.1033 9.632 80.4873 9.984C80.8819 10.336 81.3566 10.512 81.9113 10.512C82.3273 10.512 82.6739 10.4213 82.9513 10.24C83.2393 10.048 83.4526 9.80267 83.5913 9.504H85.6713C85.5219 10.0053 85.2713 10.464 84.9193 10.88C84.5779 11.2853 84.1513 11.6053 83.6393 11.84C83.1379 12.0747 82.5673 12.192 81.9273 12.192ZM81.9433 5.536C81.4419 5.536 80.9993 5.68 80.6153 5.968C80.2313 6.24533 79.9859 6.672 79.8793 7.248H83.8313C83.7993 6.72533 83.6073 6.30933 83.2553 6C82.9033 5.69067 82.4659 5.536 81.9433 5.536Z" fill="black"/>
</svg>
