<svg width="290" height="40" viewBox="0 0 290 40" fill="none" xmlns="http://www.w3.org/2000/svg">
<path d="M1.184 12V0.799999H4.864C5.73867 0.799999 6.45867 0.943999 7.024 1.232C7.58933 1.52 8.00533 1.90933 8.272 2.4C8.54933 2.89067 8.688 3.44533 8.688 4.064C8.688 4.672 8.55467 5.22133 8.288 5.712C8.02133 6.20267 7.60533 6.59733 7.04 6.896C6.47467 7.184 5.74933 7.328 4.864 7.328H2.528V12H1.184ZM2.528 6.192H4.832C5.728 6.192 6.36267 6.00533 6.736 5.632C7.12 5.248 7.312 4.72533 7.312 4.064C7.312 3.392 7.12 2.86933 6.736 2.496C6.36267 2.112 5.728 1.92 4.832 1.92H2.528V6.192ZM10.3696 12V4.064H11.5856L11.6976 5.584C11.943 5.06133 12.3163 4.64533 12.8176 4.336C13.319 4.02667 13.9376 3.872 14.6736 3.872V5.28H14.3056C13.8363 5.28 13.4043 5.36533 13.0096 5.536C12.615 5.696 12.3003 5.97333 12.0656 6.368C11.831 6.76267 11.7136 7.30667 11.7136 8V12H10.3696ZM19.5013 12.192C18.7546 12.192 18.0826 12.0213 17.4853 11.68C16.8879 11.3387 16.4133 10.8587 16.0613 10.24C15.7199 9.61067 15.5493 8.87467 15.5493 8.032C15.5493 7.18933 15.7253 6.45867 16.0773 5.84C16.4293 5.21067 16.9039 4.72533 17.5013 4.384C18.1093 4.04267 18.7866 3.872 19.5333 3.872C20.2799 3.872 20.9519 4.04267 21.5493 4.384C22.1466 4.72533 22.6159 5.21067 22.9573 5.84C23.3093 6.45867 23.4853 7.18933 23.4853 8.032C23.4853 8.87467 23.3093 9.61067 22.9573 10.24C22.6053 10.8587 22.1253 11.3387 21.5173 11.68C20.9199 12.0213 20.2479 12.192 19.5013 12.192ZM19.5013 11.04C19.9599 11.04 20.3866 10.928 20.7813 10.704C21.1759 10.48 21.4959 10.144 21.7413 9.696C21.9866 9.248 22.1093 8.69333 22.1093 8.032C22.1093 7.37067 21.9866 6.816 21.7413 6.368C21.5066 5.92 21.1919 5.584 20.7973 5.36C20.4026 5.136 19.9813 5.024 19.5333 5.024C19.0746 5.024 18.6479 5.136 18.2533 5.36C17.8586 5.584 17.5386 5.92 17.2933 6.368C17.0479 6.816 16.9253 7.37067 16.9253 8.032C16.9253 8.69333 17.0479 9.248 17.2933 9.696C17.5386 10.144 17.8533 10.48 18.2373 10.704C18.6319 10.928 19.0533 11.04 19.5013 11.04ZM32.2284 12.192C31.567 12.192 31.0177 12.08 30.5804 11.856C30.143 11.632 29.8177 11.3333 29.6044 10.96C29.391 10.5867 29.2844 10.1813 29.2844 9.744C29.2844 8.93333 29.5937 8.30933 30.2124 7.872C30.831 7.43467 31.6737 7.216 32.7404 7.216H34.8844V7.12C34.8844 6.42667 34.703 5.904 34.3404 5.552C33.9777 5.18933 33.4924 5.008 32.8844 5.008C32.3617 5.008 31.9084 5.14133 31.5244 5.408C31.151 5.664 30.9164 6.04267 30.8204 6.544H29.4444C29.4977 5.968 29.6897 5.48267 30.0204 5.088C30.3617 4.69333 30.783 4.39467 31.2844 4.192C31.7857 3.97867 32.319 3.872 32.8844 3.872C33.9937 3.872 34.8257 4.17067 35.3804 4.768C35.9457 5.35467 36.2284 6.13867 36.2284 7.12V12H35.0284L34.9484 10.576C34.7244 11.024 34.3937 11.408 33.9564 11.728C33.5297 12.0373 32.9537 12.192 32.2284 12.192ZM32.4364 11.056C32.9484 11.056 33.3857 10.9227 33.7484 10.656C34.1217 10.3893 34.4044 10.0427 34.5964 9.616C34.7884 9.18933 34.8844 8.74133 34.8844 8.272V8.256H32.8524C32.063 8.256 31.503 8.39467 31.1724 8.672C30.8524 8.93867 30.6924 9.27467 30.6924 9.68C30.6924 10.096 30.8417 10.432 31.1404 10.688C31.4497 10.9333 31.8817 11.056 32.4364 11.056ZM41.8446 12.192C41.0553 12.192 40.362 12.0107 39.7646 11.648C39.178 11.2853 38.7193 10.7893 38.3886 10.16C38.0686 9.53067 37.9086 8.816 37.9086 8.016C37.9086 7.216 38.074 6.50667 38.4046 5.888C38.7353 5.25867 39.194 4.768 39.7806 4.416C40.3673 4.05333 41.0606 3.872 41.8606 3.872C42.5113 3.872 43.0873 4.00533 43.5886 4.272C44.09 4.53867 44.4793 4.912 44.7566 5.392V0.48H46.1006V12H44.8846L44.7566 10.688C44.5006 11.072 44.1326 11.4187 43.6526 11.728C43.1726 12.0373 42.57 12.192 41.8446 12.192ZM41.9886 11.024C42.522 11.024 42.9913 10.9013 43.3966 10.656C43.8126 10.4 44.1326 10.048 44.3566 9.6C44.5913 9.152 44.7086 8.62933 44.7086 8.032C44.7086 7.43467 44.5913 6.912 44.3566 6.464C44.1326 6.016 43.8126 5.66933 43.3966 5.424C42.9913 5.168 42.522 5.04 41.9886 5.04C41.466 5.04 40.9966 5.168 40.5806 5.424C40.1753 5.66933 39.8553 6.016 39.6206 6.464C39.3966 6.912 39.2846 7.43467 39.2846 8.032C39.2846 8.62933 39.3966 9.152 39.6206 9.6C39.8553 10.048 40.1753 10.4 40.5806 10.656C40.9966 10.9013 41.466 11.024 41.9886 11.024ZM59.4699 4.064V12H58.2539L58.1739 10.576C57.9179 11.0773 57.5499 11.472 57.0699 11.76C56.5899 12.048 56.0459 12.192 55.4379 12.192C54.4992 12.192 53.7472 11.9093 53.1819 11.344C52.6272 10.768 52.3499 9.888 52.3499 8.704V4.064H53.6939V8.56C53.6939 10.2133 54.3765 11.04 55.7419 11.04C56.4245 11.04 56.9899 10.7947 57.4379 10.304C57.8965 9.80267 58.1259 9.09333 58.1259 8.176V4.064H59.4699ZM65.9221 12.192C65.2715 12.192 64.6901 12.0587 64.1781 11.792C63.6768 11.5253 63.2928 11.152 63.0261 10.672L62.8981 12H61.6821V0.48H63.0261V5.376C63.2821 4.992 63.6448 4.64533 64.1141 4.336C64.5941 4.02667 65.2021 3.872 65.9381 3.872C66.7275 3.872 67.4155 4.05333 68.0021 4.416C68.5888 4.77867 69.0421 5.27467 69.3621 5.904C69.6928 6.53333 69.8581 7.248 69.8581 8.048C69.8581 8.848 69.6928 9.56267 69.3621 10.192C69.0421 10.8107 68.5835 11.3013 67.9861 11.664C67.3995 12.016 66.7115 12.192 65.9221 12.192ZM65.7781 11.024C66.3115 11.024 66.7808 10.9013 67.1861 10.656C67.5915 10.4 67.9115 10.048 68.1461 9.6C68.3808 9.152 68.4981 8.62933 68.4981 8.032C68.4981 7.43467 68.3808 6.912 68.1461 6.464C67.9115 6.016 67.5915 5.66933 67.1861 5.424C66.7808 5.168 66.3115 5.04 65.7781 5.04C65.2448 5.04 64.7755 5.168 64.3701 5.424C63.9648 5.66933 63.6448 6.016 63.4101 6.464C63.1755 6.912 63.0581 7.43467 63.0581 8.032C63.0581 8.62933 63.1755 9.152 63.4101 9.6C63.6448 10.048 63.9648 10.4 64.3701 10.656C64.7755 10.9013 65.2448 11.024 65.7781 11.024ZM72.545 2.304C72.2783 2.304 72.0543 2.21867 71.873 2.048C71.7023 1.86667 71.617 1.64267 71.617 1.376C71.617 1.12 71.7023 0.906666 71.873 0.735999C72.0543 0.565333 72.2783 0.48 72.545 0.48C72.801 0.48 73.0197 0.565333 73.201 0.735999C73.3823 0.906666 73.473 1.12 73.473 1.376C73.473 1.64267 73.3823 1.86667 73.201 2.048C73.0197 2.21867 72.801 2.304 72.545 2.304ZM71.873 12V4.064H73.217V12H71.873ZM82.0691 15.52V10.688C81.8131 11.072 81.4451 11.4187 80.9651 11.728C80.4851 12.0373 79.8825 12.192 79.1571 12.192C78.3678 12.192 77.6745 12.0107 77.0771 11.648C76.4905 11.2853 76.0318 10.7893 75.7011 10.16C75.3811 9.53067 75.2211 8.816 75.2211 8.016C75.2211 7.216 75.3865 6.50667 75.7171 5.888C76.0478 5.25867 76.5065 4.768 77.0931 4.416C77.6798 4.05333 78.3731 3.872 79.1731 3.872C79.8238 3.872 80.3998 4.00533 80.9011 4.272C81.4025 4.53867 81.7918 4.912 82.0691 5.392L82.1971 4.064H83.4131V15.52H82.0691ZM79.3011 11.024C79.8345 11.024 80.3038 10.9013 80.7091 10.656C81.1251 10.4 81.4451 10.048 81.6691 9.6C81.9038 9.152 82.0211 8.62933 82.0211 8.032C82.0211 7.43467 81.9038 6.912 81.6691 6.464C81.4451 6.016 81.1251 5.66933 80.7091 5.424C80.3038 5.168 79.8345 5.04 79.3011 5.04C78.7785 5.04 78.3091 5.168 77.8931 5.424C77.4878 5.66933 77.1678 6.016 76.9331 6.464C76.7091 6.912 76.5971 7.43467 76.5971 8.032C76.5971 8.62933 76.7091 9.152 76.9331 9.6C77.1678 10.048 77.4878 10.4 77.8931 10.656C78.3091 10.9013 78.7785 11.024 79.3011 11.024ZM92.548 4.064V12H91.332L91.252 10.576C90.996 11.0773 90.628 11.472 90.148 11.76C89.668 12.048 89.124 12.192 88.516 12.192C87.5773 12.192 86.8253 11.9093 86.26 11.344C85.7053 10.768 85.428 9.888 85.428 8.704V4.064H86.772V8.56C86.772 10.2133 87.4547 11.04 88.82 11.04C89.5027 11.04 90.068 10.7947 90.516 10.304C90.9747 9.80267 91.204 9.09333 91.204 8.176V4.064H92.548ZM98.3283 12.192C97.5709 12.192 96.8989 12.0213 96.3123 11.68C95.7256 11.328 95.2616 10.8427 94.9203 10.224C94.5896 9.60533 94.4243 8.87467 94.4243 8.032C94.4243 7.2 94.5896 6.47467 94.9203 5.856C95.2509 5.22667 95.7096 4.74133 96.2963 4.4C96.8936 4.048 97.5816 3.872 98.3602 3.872C99.1283 3.872 99.7896 4.048 100.344 4.4C100.91 4.74133 101.342 5.19467 101.64 5.76C101.939 6.32533 102.088 6.93333 102.088 7.584C102.088 7.70133 102.083 7.81867 102.072 7.936C102.072 8.05333 102.072 8.18667 102.072 8.336H95.7523C95.7843 8.944 95.9229 9.45067 96.1683 9.856C96.4243 10.2507 96.7389 10.5493 97.1123 10.752C97.4963 10.9547 97.9016 11.056 98.3283 11.056C98.8829 11.056 99.3469 10.928 99.7203 10.672C100.094 10.416 100.366 10.0693 100.536 9.632H101.864C101.651 10.368 101.24 10.9813 100.632 11.472C100.035 11.952 99.2669 12.192 98.3283 12.192ZM98.3283 5.008C97.6883 5.008 97.1176 5.20533 96.6163 5.6C96.1256 5.984 95.8429 6.54933 95.7682 7.296H100.76C100.728 6.58133 100.483 6.02133 100.024 5.616C99.5656 5.21067 99.0003 5.008 98.3283 5.008ZM111.672 12.192C110.915 12.192 110.243 12.0213 109.656 11.68C109.069 11.328 108.605 10.8427 108.264 10.224C107.933 9.60533 107.768 8.87467 107.768 8.032C107.768 7.2 107.933 6.47467 108.264 5.856C108.595 5.22667 109.053 4.74133 109.64 4.4C110.237 4.048 110.925 3.872 111.704 3.872C112.472 3.872 113.133 4.048 113.688 4.4C114.253 4.74133 114.685 5.19467 114.984 5.76C115.283 6.32533 115.432 6.93333 115.432 7.584C115.432 7.70133 115.427 7.81867 115.416 7.936C115.416 8.05333 115.416 8.18667 115.416 8.336H109.096C109.128 8.944 109.267 9.45067 109.512 9.856C109.768 10.2507 110.083 10.5493 110.456 10.752C110.84 10.9547 111.245 11.056 111.672 11.056C112.227 11.056 112.691 10.928 113.064 10.672C113.437 10.416 113.709 10.0693 113.88 9.632H115.208C114.995 10.368 114.584 10.9813 113.976 11.472C113.379 11.952 112.611 12.192 111.672 12.192ZM111.672 5.008C111.032 5.008 110.461 5.20533 109.96 5.6C109.469 5.984 109.187 6.54933 109.112 7.296H114.104C114.072 6.58133 113.827 6.02133 113.368 5.616C112.909 5.21067 112.344 5.008 111.672 5.008ZM117.213 12V4.064H118.429L118.541 5.584C118.787 5.06133 119.16 4.64533 119.661 4.336C120.163 4.02667 120.781 3.872 121.517 3.872V5.28H121.149C120.68 5.28 120.248 5.36533 119.853 5.536C119.459 5.696 119.144 5.97333 118.909 6.368C118.675 6.76267 118.557 7.30667 118.557 8V12H117.213ZM123.026 12V4.064H124.242L124.354 5.584C124.599 5.06133 124.973 4.64533 125.474 4.336C125.975 4.02667 126.594 3.872 127.33 3.872V5.28H126.962C126.493 5.28 126.061 5.36533 125.666 5.536C125.271 5.696 124.957 5.97333 124.722 6.368C124.487 6.76267 124.37 7.30667 124.37 8V12H123.026ZM132.158 12.192C131.411 12.192 130.739 12.0213 130.142 11.68C129.544 11.3387 129.07 10.8587 128.718 10.24C128.376 9.61067 128.206 8.87467 128.206 8.032C128.206 7.18933 128.382 6.45867 128.734 5.84C129.086 5.21067 129.56 4.72533 130.158 4.384C130.766 4.04267 131.443 3.872 132.19 3.872C132.936 3.872 133.608 4.04267 134.206 4.384C134.803 4.72533 135.272 5.21067 135.614 5.84C135.966 6.45867 136.142 7.18933 136.142 8.032C136.142 8.87467 135.966 9.61067 135.614 10.24C135.262 10.8587 134.782 11.3387 134.174 11.68C133.576 12.0213 132.904 12.192 132.158 12.192ZM132.158 11.04C132.616 11.04 133.043 10.928 133.438 10.704C133.832 10.48 134.152 10.144 134.398 9.696C134.643 9.248 134.766 8.69333 134.766 8.032C134.766 7.37067 134.643 6.816 134.398 6.368C134.163 5.92 133.848 5.584 133.454 5.36C133.059 5.136 132.638 5.024 132.19 5.024C131.731 5.024 131.304 5.136 130.91 5.36C130.515 5.584 130.195 5.92 129.95 6.368C129.704 6.816 129.582 7.37067 129.582 8.032C129.582 8.69333 129.704 9.248 129.95 9.696C130.195 10.144 130.51 10.48 130.894 10.704C131.288 10.928 131.71 11.04 132.158 11.04ZM138.01 12V4.064H139.226L139.338 5.584C139.584 5.06133 139.957 4.64533 140.458 4.336C140.96 4.02667 141.578 3.872 142.314 3.872V5.28H141.946C141.477 5.28 141.045 5.36533 140.65 5.536C140.256 5.696 139.941 5.97333 139.706 6.368C139.472 6.76267 139.354 7.30667 139.354 8V12H138.01ZM144.639 2.304C144.372 2.304 144.148 2.21867 143.967 2.048C143.796 1.86667 143.711 1.64267 143.711 1.376C143.711 1.12 143.796 0.906666 143.967 0.735999C144.148 0.565333 144.372 0.48 144.639 0.48C144.895 0.48 145.113 0.565333 145.295 0.735999C145.476 0.906666 145.567 1.12 145.567 1.376C145.567 1.64267 145.476 1.86667 145.295 2.048C145.113 2.21867 144.895 2.304 144.639 2.304ZM143.967 12V4.064H145.311V12H143.967ZM151.891 12.192C151.24 12.192 150.659 12.0587 150.147 11.792C149.646 11.5253 149.262 11.152 148.995 10.672L148.867 12H147.651V0.48H148.995V5.376C149.251 4.992 149.614 4.64533 150.083 4.336C150.563 4.02667 151.171 3.872 151.907 3.872C152.696 3.872 153.384 4.05333 153.971 4.416C154.558 4.77867 155.011 5.27467 155.331 5.904C155.662 6.53333 155.827 7.248 155.827 8.048C155.827 8.848 155.662 9.56267 155.331 10.192C155.011 10.8107 154.552 11.3013 153.955 11.664C153.368 12.016 152.68 12.192 151.891 12.192ZM151.747 11.024C152.28 11.024 152.75 10.9013 153.155 10.656C153.56 10.4 153.88 10.048 154.115 9.6C154.35 9.152 154.467 8.62933 154.467 8.032C154.467 7.43467 154.35 6.912 154.115 6.464C153.88 6.016 153.56 5.66933 153.155 5.424C152.75 5.168 152.28 5.04 151.747 5.04C151.214 5.04 150.744 5.168 150.339 5.424C149.934 5.66933 149.614 6.016 149.379 6.464C149.144 6.912 149.027 7.43467 149.027 8.032C149.027 8.62933 149.144 9.152 149.379 9.6C149.614 10.048 149.934 10.4 150.339 10.656C150.744 10.9013 151.214 11.024 151.747 11.024ZM164.642 4.064V12H163.426L163.346 10.576C163.09 11.0773 162.722 11.472 162.242 11.76C161.762 12.048 161.218 12.192 160.61 12.192C159.671 12.192 158.919 11.9093 158.354 11.344C157.799 10.768 157.522 9.888 157.522 8.704V4.064H158.866V8.56C158.866 10.2133 159.548 11.04 160.914 11.04C161.596 11.04 162.162 10.7947 162.61 10.304C163.068 9.80267 163.298 9.09333 163.298 8.176V4.064H164.642ZM169.894 12.192C168.945 12.192 168.155 11.952 167.526 11.472C166.897 10.992 166.529 10.3413 166.422 9.52H167.798C167.883 9.936 168.102 10.2987 168.454 10.608C168.817 10.9067 169.302 11.056 169.91 11.056C170.475 11.056 170.891 10.9387 171.158 10.704C171.425 10.4587 171.558 10.1707 171.558 9.84C171.558 9.36 171.382 9.04 171.03 8.88C170.689 8.72 170.203 8.576 169.574 8.448C169.147 8.36267 168.721 8.24 168.294 8.08C167.867 7.92 167.51 7.696 167.222 7.408C166.934 7.10933 166.79 6.72 166.79 6.24C166.79 5.54667 167.046 4.98133 167.558 4.544C168.081 4.096 168.785 3.872 169.67 3.872C170.513 3.872 171.201 4.08533 171.734 4.512C172.278 4.928 172.593 5.52533 172.678 6.304H171.35C171.297 5.89867 171.121 5.584 170.822 5.36C170.534 5.12533 170.145 5.008 169.654 5.008C169.174 5.008 168.801 5.10933 168.534 5.312C168.278 5.51467 168.15 5.78133 168.15 6.112C168.15 6.432 168.315 6.68267 168.646 6.864C168.987 7.04533 169.446 7.2 170.022 7.328C170.513 7.43467 170.977 7.568 171.414 7.728C171.862 7.87733 172.225 8.10667 172.502 8.416C172.79 8.71467 172.934 9.152 172.934 9.728C172.945 10.4427 172.673 11.0347 172.118 11.504C171.574 11.9627 170.833 12.192 169.894 12.192ZM173.782 13.904L174.71 10.368H176.102L174.71 13.904H173.782ZM182.748 2.304C182.481 2.304 182.257 2.21867 182.076 2.048C181.905 1.86667 181.82 1.64267 181.82 1.376C181.82 1.12 181.905 0.906666 182.076 0.735999C182.257 0.565333 182.481 0.48 182.748 0.48C183.004 0.48 183.223 0.565333 183.404 0.735999C183.585 0.906666 183.676 1.12 183.676 1.376C183.676 1.64267 183.585 1.86667 183.404 2.048C183.223 2.21867 183.004 2.304 182.748 2.304ZM182.076 12V4.064H183.42V12H182.076ZM185.76 12V4.064H186.976L187.056 5.488C187.312 4.98667 187.68 4.592 188.16 4.304C188.64 4.016 189.184 3.872 189.792 3.872C190.731 3.872 191.478 4.16 192.032 4.736C192.598 5.30133 192.88 6.176 192.88 7.36V12H191.536V7.504C191.536 5.85067 190.854 5.024 189.488 5.024C188.806 5.024 188.235 5.27467 187.776 5.776C187.328 6.26667 187.104 6.97067 187.104 7.888V12H185.76ZM199.151 12V4.064H200.367L200.463 5.216C200.719 4.78933 201.06 4.45867 201.487 4.224C201.914 3.98933 202.394 3.872 202.927 3.872C203.556 3.872 204.095 4 204.543 4.256C205.002 4.512 205.354 4.90133 205.599 5.424C205.876 4.944 206.255 4.56533 206.735 4.288C207.226 4.01067 207.754 3.872 208.319 3.872C209.268 3.872 210.026 4.16 210.591 4.736C211.156 5.30133 211.439 6.176 211.439 7.36V12H210.111V7.504C210.111 6.68267 209.946 6.064 209.615 5.648C209.284 5.232 208.81 5.024 208.191 5.024C207.551 5.024 207.018 5.27467 206.591 5.776C206.175 6.26667 205.967 6.97067 205.967 7.888V12H204.623V7.504C204.623 6.68267 204.458 6.064 204.127 5.648C203.796 5.232 203.322 5.024 202.703 5.024C202.074 5.024 201.546 5.27467 201.119 5.776C200.703 6.26667 200.495 6.97067 200.495 7.888V12H199.151ZM217.079 12.192C216.333 12.192 215.661 12.0213 215.063 11.68C214.466 11.3387 213.991 10.8587 213.639 10.24C213.298 9.61067 213.127 8.87467 213.127 8.032C213.127 7.18933 213.303 6.45867 213.655 5.84C214.007 5.21067 214.482 4.72533 215.079 4.384C215.687 4.04267 216.365 3.872 217.111 3.872C217.858 3.872 218.53 4.04267 219.127 4.384C219.725 4.72533 220.194 5.21067 220.535 5.84C220.887 6.45867 221.063 7.18933 221.063 8.032C221.063 8.87467 220.887 9.61067 220.535 10.24C220.183 10.8587 219.703 11.3387 219.095 11.68C218.498 12.0213 217.826 12.192 217.079 12.192ZM217.079 11.04C217.538 11.04 217.965 10.928 218.359 10.704C218.754 10.48 219.074 10.144 219.319 9.696C219.565 9.248 219.687 8.69333 219.687 8.032C219.687 7.37067 219.565 6.816 219.319 6.368C219.085 5.92 218.77 5.584 218.375 5.36C217.981 5.136 217.559 5.024 217.111 5.024C216.653 5.024 216.226 5.136 215.831 5.36C215.437 5.584 215.117 5.92 214.871 6.368C214.626 6.816 214.503 7.37067 214.503 8.032C214.503 8.69333 214.626 9.248 214.871 9.696C215.117 10.144 215.431 10.48 215.815 10.704C216.21 10.928 216.631 11.04 217.079 11.04ZM226.532 12.192C225.743 12.192 225.049 12.0107 224.452 11.648C223.865 11.2853 223.407 10.7893 223.076 10.16C222.756 9.53067 222.596 8.816 222.596 8.016C222.596 7.216 222.761 6.50667 223.092 5.888C223.423 5.25867 223.881 4.768 224.468 4.416C225.055 4.05333 225.748 3.872 226.548 3.872C227.199 3.872 227.775 4.00533 228.276 4.272C228.777 4.53867 229.167 4.912 229.444 5.392V0.48H230.788V12H229.572L229.444 10.688C229.188 11.072 228.82 11.4187 228.34 11.728C227.86 12.0373 227.257 12.192 226.532 12.192ZM226.676 11.024C227.209 11.024 227.679 10.9013 228.084 10.656C228.5 10.4 228.82 10.048 229.044 9.6C229.279 9.152 229.396 8.62933 229.396 8.032C229.396 7.43467 229.279 6.912 229.044 6.464C228.82 6.016 228.5 5.66933 228.084 5.424C227.679 5.168 227.209 5.04 226.676 5.04C226.153 5.04 225.684 5.168 225.268 5.424C224.863 5.66933 224.543 6.016 224.308 6.464C224.084 6.912 223.972 7.43467 223.972 8.032C223.972 8.62933 224.084 9.152 224.308 9.6C224.543 10.048 224.863 10.4 225.268 10.656C225.684 10.9013 226.153 11.024 226.676 11.024ZM236.595 12.192C235.848 12.192 235.176 12.0213 234.579 11.68C233.982 11.3387 233.507 10.8587 233.155 10.24C232.814 9.61067 232.643 8.87467 232.643 8.032C232.643 7.18933 232.819 6.45867 233.171 5.84C233.523 5.21067 233.998 4.72533 234.595 4.384C235.203 4.04267 235.88 3.872 236.627 3.872C237.374 3.872 238.046 4.04267 238.643 4.384C239.24 4.72533 239.71 5.21067 240.051 5.84C240.403 6.45867 240.579 7.18933 240.579 8.032C240.579 8.87467 240.403 9.61067 240.051 10.24C239.699 10.8587 239.219 11.3387 238.611 11.68C238.014 12.0213 237.342 12.192 236.595 12.192ZM236.595 11.04C237.054 11.04 237.48 10.928 237.875 10.704C238.27 10.48 238.59 10.144 238.835 9.696C239.08 9.248 239.203 8.69333 239.203 8.032C239.203 7.37067 239.08 6.816 238.835 6.368C238.6 5.92 238.286 5.584 237.891 5.36C237.496 5.136 237.075 5.024 236.627 5.024C236.168 5.024 235.742 5.136 235.347 5.36C234.952 5.584 234.632 5.92 234.387 6.368C234.142 6.816 234.019 7.37067 234.019 8.032C234.019 8.69333 234.142 9.248 234.387 9.696C234.632 10.144 234.947 10.48 235.331 10.704C235.726 10.928 236.147 11.04 236.595 11.04ZM246.682 12V4.064H247.898L247.994 5.216C248.25 4.78933 248.591 4.45867 249.018 4.224C249.445 3.98933 249.925 3.872 250.458 3.872C251.087 3.872 251.626 4 252.074 4.256C252.533 4.512 252.885 4.90133 253.13 5.424C253.407 4.944 253.786 4.56533 254.266 4.288C254.757 4.01067 255.285 3.872 255.85 3.872C256.799 3.872 257.557 4.16 258.122 4.736C258.687 5.30133 258.97 6.176 258.97 7.36V12H257.642V7.504C257.642 6.68267 257.477 6.064 257.146 5.648C256.815 5.232 256.341 5.024 255.722 5.024C255.082 5.024 254.549 5.27467 254.122 5.776C253.706 6.26667 253.498 6.97067 253.498 7.888V12H252.154V7.504C252.154 6.68267 251.989 6.064 251.658 5.648C251.327 5.232 250.853 5.024 250.234 5.024C249.605 5.024 249.077 5.27467 248.65 5.776C248.234 6.26667 248.026 6.97067 248.026 7.888V12H246.682ZM267.939 4.064V12H266.723L266.643 10.576C266.387 11.0773 266.019 11.472 265.539 11.76C265.059 12.048 264.515 12.192 263.907 12.192C262.968 12.192 262.216 11.9093 261.651 11.344C261.096 10.768 260.819 9.888 260.819 8.704V4.064H262.163V8.56C262.163 10.2133 262.845 11.04 264.211 11.04C264.893 11.04 265.459 10.7947 265.907 10.304C266.365 9.80267 266.595 9.09333 266.595 8.176V4.064H267.939ZM273.287 12C272.562 12 271.991 11.824 271.575 11.472C271.159 11.12 270.951 10.4853 270.951 9.568V5.2H269.575V4.064H270.951L271.127 2.16H272.295V4.064H274.631V5.2H272.295V9.568C272.295 10.0693 272.396 10.4107 272.599 10.592C272.802 10.7627 273.159 10.848 273.671 10.848H274.503V12H273.287ZM278.978 12.192C278.317 12.192 277.768 12.08 277.33 11.856C276.893 11.632 276.568 11.3333 276.354 10.96C276.141 10.5867 276.034 10.1813 276.034 9.744C276.034 8.93333 276.344 8.30933 276.962 7.872C277.581 7.43467 278.424 7.216 279.49 7.216H281.634V7.12C281.634 6.42667 281.453 5.904 281.09 5.552C280.728 5.18933 280.242 5.008 279.634 5.008C279.112 5.008 278.658 5.14133 278.274 5.408C277.901 5.664 277.666 6.04267 277.57 6.544H276.194C276.248 5.968 276.44 5.48267 276.77 5.088C277.112 4.69333 277.533 4.39467 278.034 4.192C278.536 3.97867 279.069 3.872 279.634 3.872C280.744 3.872 281.576 4.17067 282.13 4.768C282.696 5.35467 282.978 6.13867 282.978 7.12V12H281.778L281.698 10.576C281.474 11.024 281.144 11.408 280.706 11.728C280.28 12.0373 279.704 12.192 278.978 12.192ZM279.186 11.056C279.698 11.056 280.136 10.9227 280.498 10.656C280.872 10.3893 281.154 10.0427 281.346 9.616C281.538 9.18933 281.634 8.74133 281.634 8.272V8.256H279.602C278.813 8.256 278.253 8.39467 277.922 8.672C277.602 8.93867 277.442 9.27467 277.442 9.68C277.442 10.096 277.592 10.432 277.89 10.688C278.2 10.9333 278.632 11.056 279.186 11.056ZM287.912 12C287.187 12 286.616 11.824 286.2 11.472C285.784 11.12 285.576 10.4853 285.576 9.568V5.2H284.2V4.064H285.576L285.752 2.16H286.92V4.064H289.256V5.2H286.92V9.568C286.92 10.0693 287.021 10.4107 287.224 10.592C287.427 10.7627 287.784 10.848 288.296 10.848H289.128V12H287.912ZM4.144 36.192C3.19467 36.192 2.40533 35.952 1.776 35.472C1.14667 34.992 0.778667 34.3413 0.672 33.52H2.048C2.13333 33.936 2.352 34.2987 2.704 34.608C3.06667 34.9067 3.552 35.056 4.16 35.056C4.72533 35.056 5.14133 34.9387 5.408 34.704C5.67467 34.4587 5.808 34.1707 5.808 33.84C5.808 33.36 5.632 33.04 5.28 32.88C4.93867 32.72 4.45333 32.576 3.824 32.448C3.39733 32.3627 2.97067 32.24 2.544 32.08C2.11733 31.92 1.76 31.696 1.472 31.408C1.184 31.1093 1.04 30.72 1.04 30.24C1.04 29.5467 1.296 28.9813 1.808 28.544C2.33067 28.096 3.03467 27.872 3.92 27.872C4.76267 27.872 5.45067 28.0853 5.984 28.512C6.528 28.928 6.84267 29.5253 6.928 30.304H5.6C5.54667 29.8987 5.37067 29.584 5.072 29.36C4.784 29.1253 4.39467 29.008 3.904 29.008C3.424 29.008 3.05067 29.1093 2.784 29.312C2.528 29.5147 2.4 29.7813 2.4 30.112C2.4 30.432 2.56533 30.6827 2.896 30.864C3.23733 31.0453 3.696 31.2 4.272 31.328C4.76267 31.4347 5.22667 31.568 5.664 31.728C6.112 31.8773 6.47467 32.1067 6.752 32.416C7.04 32.7147 7.184 33.152 7.184 33.728C7.19467 34.4427 6.92267 35.0347 6.368 35.504C5.824 35.9627 5.08267 36.192 4.144 36.192ZM12.672 36.192C11.9147 36.192 11.2427 36.0213 10.656 35.68C10.0693 35.328 9.60533 34.8427 9.264 34.224C8.93333 33.6053 8.768 32.8747 8.768 32.032C8.768 31.2 8.93333 30.4747 9.264 29.856C9.59467 29.2267 10.0533 28.7413 10.64 28.4C11.2373 28.048 11.9253 27.872 12.704 27.872C13.472 27.872 14.1333 28.048 14.688 28.4C15.2533 28.7413 15.6853 29.1947 15.984 29.76C16.2827 30.3253 16.432 30.9333 16.432 31.584C16.432 31.7013 16.4267 31.8187 16.416 31.936C16.416 32.0533 16.416 32.1867 16.416 32.336H10.096C10.128 32.944 10.2667 33.4507 10.512 33.856C10.768 34.2507 11.0827 34.5493 11.456 34.752C11.84 34.9547 12.2453 35.056 12.672 35.056C13.2267 35.056 13.6907 34.928 14.064 34.672C14.4373 34.416 14.7093 34.0693 14.88 33.632H16.208C15.9947 34.368 15.584 34.9813 14.976 35.472C14.3787 35.952 13.6107 36.192 12.672 36.192ZM12.672 29.008C12.032 29.008 11.4613 29.2053 10.96 29.6C10.4693 29.984 10.1867 30.5493 10.112 31.296H15.104C15.072 30.5813 14.8267 30.0213 14.368 29.616C13.9093 29.2107 13.344 29.008 12.672 29.008ZM21.8134 36.192C21.024 36.192 20.3307 36.0107 19.7334 35.648C19.1467 35.2853 18.688 34.7893 18.3574 34.16C18.0374 33.5307 17.8774 32.816 17.8774 32.016C17.8774 31.216 18.0427 30.5067 18.3734 29.888C18.704 29.2587 19.1627 28.768 19.7494 28.416C20.336 28.0533 21.0294 27.872 21.8294 27.872C22.48 27.872 23.056 28.0053 23.5574 28.272C24.0587 28.5387 24.448 28.912 24.7254 29.392V24.48H26.0694V36H24.8534L24.7254 34.688C24.4694 35.072 24.1014 35.4187 23.6214 35.728C23.1414 36.0373 22.5387 36.192 21.8134 36.192ZM21.9574 35.024C22.4907 35.024 22.96 34.9013 23.3654 34.656C23.7814 34.4 24.1014 34.048 24.3254 33.6C24.56 33.152 24.6774 32.6293 24.6774 32.032C24.6774 31.4347 24.56 30.912 24.3254 30.464C24.1014 30.016 23.7814 29.6693 23.3654 29.424C22.96 29.168 22.4907 29.04 21.9574 29.04C21.4347 29.04 20.9654 29.168 20.5494 29.424C20.144 29.6693 19.824 30.016 19.5894 30.464C19.3654 30.912 19.2534 31.4347 19.2534 32.032C19.2534 32.6293 19.3654 33.152 19.5894 33.6C19.824 34.048 20.144 34.4 20.5494 34.656C20.9654 34.9013 21.4347 35.024 21.9574 35.024ZM28.7243 36.08C28.4576 36.08 28.2336 35.9947 28.0523 35.824C27.8816 35.6427 27.7963 35.424 27.7963 35.168C27.7963 34.912 27.8816 34.6987 28.0523 34.528C28.2336 34.3467 28.4576 34.256 28.7243 34.256C28.9803 34.256 29.1936 34.3467 29.3643 34.528C29.5456 34.6987 29.6363 34.912 29.6363 35.168C29.6363 35.424 29.5456 35.6427 29.3643 35.824C29.1936 35.9947 28.9803 36.08 28.7243 36.08ZM39.2676 36.192C38.4463 36.192 37.7316 36.0427 37.1236 35.744C36.5156 35.4453 36.0463 35.0293 35.7156 34.496C35.385 33.9627 35.2196 33.344 35.2196 32.64H36.6276C36.6276 33.0773 36.729 33.4827 36.9316 33.856C37.1343 34.2187 37.4276 34.512 37.8116 34.736C38.2063 34.9493 38.6916 35.056 39.2676 35.056C40.025 35.056 40.6116 34.8747 41.0276 34.512C41.4436 34.1493 41.6516 33.696 41.6516 33.152C41.6516 32.704 41.5556 32.3467 41.3636 32.08C41.1716 31.8027 40.9103 31.5787 40.5796 31.408C40.2596 31.2373 39.8863 31.088 39.4596 30.96C39.0436 30.832 38.6063 30.688 38.1476 30.528C37.2836 30.2293 36.6436 29.8613 36.2276 29.424C35.8116 28.976 35.6036 28.3947 35.6036 27.68C35.593 27.0827 35.7316 26.5547 36.0196 26.096C36.3076 25.6267 36.713 25.264 37.2356 25.008C37.769 24.7413 38.3983 24.608 39.1236 24.608C39.8383 24.608 40.457 24.7413 40.9796 25.008C41.513 25.2747 41.9236 25.6427 42.2116 26.112C42.5103 26.5813 42.665 27.1147 42.6756 27.712H41.2676C41.2676 27.4027 41.1876 27.0987 41.0276 26.8C40.8676 26.4907 40.6223 26.24 40.2916 26.048C39.9716 25.856 39.5663 25.76 39.0756 25.76C38.4676 25.7493 37.9663 25.904 37.5716 26.224C37.1876 26.544 36.9956 26.9867 36.9956 27.552C36.9956 28.032 37.129 28.4 37.3956 28.656C37.673 28.912 38.057 29.1253 38.5476 29.296C39.0383 29.456 39.6036 29.6427 40.2436 29.856C40.777 30.048 41.257 30.272 41.6836 30.528C42.1103 30.784 42.441 31.1147 42.6756 31.52C42.921 31.9253 43.0436 32.4427 43.0436 33.072C43.0436 33.6053 42.905 34.112 42.6276 34.592C42.3503 35.0613 41.929 35.4453 41.3636 35.744C40.809 36.0427 40.1103 36.192 39.2676 36.192ZM51.8136 28.064V36H50.5976L50.5176 34.576C50.2616 35.0773 49.8936 35.472 49.4136 35.76C48.9336 36.048 48.3896 36.192 47.7816 36.192C46.843 36.192 46.091 35.9093 45.5256 35.344C44.971 34.768 44.6936 33.888 44.6936 32.704V28.064H46.0376V32.56C46.0376 34.2133 46.7203 35.04 48.0856 35.04C48.7683 35.04 49.3336 34.7947 49.7816 34.304C50.2403 33.8027 50.4696 33.0933 50.4696 32.176V28.064H51.8136ZM57.0659 36.192C56.1165 36.192 55.3272 35.952 54.6979 35.472C54.0685 34.992 53.7005 34.3413 53.5939 33.52H54.9699C55.0552 33.936 55.2739 34.2987 55.6259 34.608C55.9885 34.9067 56.4739 35.056 57.0819 35.056C57.6472 35.056 58.0632 34.9387 58.3299 34.704C58.5965 34.4587 58.7299 34.1707 58.7299 33.84C58.7299 33.36 58.5539 33.04 58.2019 32.88C57.8605 32.72 57.3752 32.576 56.7459 32.448C56.3192 32.3627 55.8925 32.24 55.4659 32.08C55.0392 31.92 54.6819 31.696 54.3939 31.408C54.1059 31.1093 53.9619 30.72 53.9619 30.24C53.9619 29.5467 54.2179 28.9813 54.7299 28.544C55.2525 28.096 55.9565 27.872 56.8419 27.872C57.6845 27.872 58.3725 28.0853 58.9059 28.512C59.4499 28.928 59.7645 29.5253 59.8499 30.304H58.5219C58.4685 29.8987 58.2925 29.584 57.9939 29.36C57.7059 29.1253 57.3165 29.008 56.8259 29.008C56.3459 29.008 55.9725 29.1093 55.7059 29.312C55.4499 29.5147 55.3219 29.7813 55.3219 30.112C55.3219 30.432 55.4872 30.6827 55.8179 30.864C56.1592 31.0453 56.6179 31.2 57.1939 31.328C57.6845 31.4347 58.1485 31.568 58.5859 31.728C59.0339 31.8773 59.3965 32.1067 59.6739 32.416C59.9619 32.7147 60.1059 33.152 60.1059 33.728C60.1165 34.4427 59.8445 35.0347 59.2899 35.504C58.7459 35.9627 58.0045 36.192 57.0659 36.192ZM65.6739 36.192C64.9165 36.192 64.2339 36.0213 63.6259 35.68C63.0285 35.328 62.5539 34.8427 62.2019 34.224C61.8605 33.5947 61.6899 32.864 61.6899 32.032C61.6899 31.2 61.8605 30.4747 62.2019 29.856C62.5539 29.2267 63.0285 28.7413 63.6259 28.4C64.2339 28.048 64.9165 27.872 65.6739 27.872C66.6125 27.872 67.4019 28.1173 68.0419 28.608C68.6925 29.0987 69.1032 29.7547 69.2739 30.576H67.8979C67.7912 30.0853 67.5299 29.7067 67.1139 29.44C66.6979 29.1627 66.2125 29.024 65.6579 29.024C65.2099 29.024 64.7885 29.136 64.3939 29.36C63.9992 29.584 63.6792 29.92 63.4339 30.368C63.1885 30.816 63.0659 31.3707 63.0659 32.032C63.0659 32.6933 63.1885 33.248 63.4339 33.696C63.6792 34.144 63.9992 34.4853 64.3939 34.72C64.7885 34.944 65.2099 35.056 65.6579 35.056C66.2125 35.056 66.6979 34.9227 67.1139 34.656C67.5299 34.3787 67.7912 33.9893 67.8979 33.488H69.2739C69.1139 34.288 68.7085 34.9387 68.0579 35.44C67.4072 35.9413 66.6125 36.192 65.6739 36.192ZM71.9669 26.304C71.7002 26.304 71.4762 26.2187 71.2949 26.048C71.1242 25.8667 71.0389 25.6427 71.0389 25.376C71.0389 25.12 71.1242 24.9067 71.2949 24.736C71.4762 24.5653 71.7002 24.48 71.9669 24.48C72.2229 24.48 72.4415 24.5653 72.6229 24.736C72.8042 24.9067 72.8949 25.12 72.8949 25.376C72.8949 25.6427 72.8042 25.8667 72.6229 26.048C72.4415 26.2187 72.2229 26.304 71.9669 26.304ZM71.2949 36V28.064H72.6389V36H71.2949ZM74.979 39.52V28.064H76.195L76.323 29.376C76.579 28.992 76.9417 28.6453 77.411 28.336C77.891 28.0267 78.499 27.872 79.235 27.872C80.0243 27.872 80.7123 28.0533 81.299 28.416C81.8857 28.7787 82.339 29.2747 82.659 29.904C82.9897 30.5333 83.155 31.248 83.155 32.048C83.155 32.848 82.9897 33.5627 82.659 34.192C82.339 34.8107 81.8803 35.3013 81.283 35.664C80.6963 36.016 80.0083 36.192 79.219 36.192C78.5683 36.192 77.987 36.0587 77.475 35.792C76.9737 35.5253 76.5897 35.152 76.323 34.672V39.52H74.979ZM79.075 35.024C79.6083 35.024 80.0777 34.9013 80.483 34.656C80.8883 34.4 81.2083 34.048 81.443 33.6C81.6777 33.152 81.795 32.6293 81.795 32.032C81.795 31.4347 81.6777 30.912 81.443 30.464C81.2083 30.016 80.8883 29.6693 80.483 29.424C80.0777 29.168 79.6083 29.04 79.075 29.04C78.5417 29.04 78.0723 29.168 77.667 29.424C77.2617 29.6693 76.9417 30.016 76.707 30.464C76.4723 30.912 76.355 31.4347 76.355 32.032C76.355 32.6293 76.4723 33.152 76.707 33.6C76.9417 34.048 77.2617 34.4 77.667 34.656C78.0723 34.9013 78.5417 35.024 79.075 35.024ZM85.8419 26.304C85.5752 26.304 85.3512 26.2187 85.1699 26.048C84.9992 25.8667 84.9139 25.6427 84.9139 25.376C84.9139 25.12 84.9992 24.9067 85.1699 24.736C85.3512 24.5653 85.5752 24.48 85.8419 24.48C86.0979 24.48 86.3165 24.5653 86.4979 24.736C86.6792 24.9067 86.7699 25.12 86.7699 25.376C86.7699 25.6427 86.6792 25.8667 86.4979 26.048C86.3165 26.2187 86.0979 26.304 85.8419 26.304ZM85.1699 36V28.064H86.5139V36H85.1699ZM91.99 36C91.2647 36 90.694 35.824 90.278 35.472C89.862 35.12 89.654 34.4853 89.654 33.568V29.2H88.278V28.064H89.654L89.83 26.16H90.998V28.064H93.334V29.2H90.998V33.568C90.998 34.0693 91.0993 34.4107 91.302 34.592C91.5047 34.7627 91.862 34.848 92.374 34.848H93.206V36H91.99ZM94.7976 37.904L95.7256 34.368H97.1176L95.7256 37.904H94.7976ZM102.948 36V28.064H104.164L104.244 29.488C104.5 28.9867 104.868 28.592 105.348 28.304C105.828 28.016 106.372 27.872 106.98 27.872C107.918 27.872 108.665 28.16 109.22 28.736C109.785 29.3013 110.068 30.176 110.068 31.36V36H108.724V31.504C108.724 29.8507 108.041 29.024 106.676 29.024C105.993 29.024 105.422 29.2747 104.964 29.776C104.516 30.2667 104.292 30.9707 104.292 31.888V36H102.948ZM114.744 36.192C114.083 36.192 113.533 36.08 113.096 35.856C112.659 35.632 112.333 35.3333 112.12 34.96C111.907 34.5867 111.8 34.1813 111.8 33.744C111.8 32.9333 112.109 32.3093 112.728 31.872C113.347 31.4347 114.189 31.216 115.256 31.216H117.4V31.12C117.4 30.4267 117.219 29.904 116.856 29.552C116.493 29.1893 116.008 29.008 115.4 29.008C114.877 29.008 114.424 29.1413 114.04 29.408C113.667 29.664 113.432 30.0427 113.336 30.544H111.96C112.013 29.968 112.205 29.4827 112.536 29.088C112.877 28.6933 113.299 28.3947 113.8 28.192C114.301 27.9787 114.835 27.872 115.4 27.872C116.509 27.872 117.341 28.1707 117.896 28.768C118.461 29.3547 118.744 30.1387 118.744 31.12V36H117.544L117.464 34.576C117.24 35.024 116.909 35.408 116.472 35.728C116.045 36.0373 115.469 36.192 114.744 36.192ZM114.952 35.056C115.464 35.056 115.901 34.9227 116.264 34.656C116.637 34.3893 116.92 34.0427 117.112 33.616C117.304 33.1893 117.4 32.7413 117.4 32.272V32.256H115.368C114.579 32.256 114.019 32.3947 113.688 32.672C113.368 32.9387 113.208 33.2747 113.208 33.68C113.208 34.096 113.357 34.432 113.656 34.688C113.965 34.9333 114.397 35.056 114.952 35.056ZM123.678 36C122.952 36 122.382 35.824 121.966 35.472C121.55 35.12 121.342 34.4853 121.342 33.568V29.2H119.965V28.064H121.342L121.518 26.16H122.686V28.064H125.022V29.2H122.686V33.568C122.686 34.0693 122.787 34.4107 122.99 34.592C123.192 34.7627 123.55 34.848 124.062 34.848H124.894V36H123.678ZM133.673 28.064V36H132.457L132.377 34.576C132.121 35.0773 131.753 35.472 131.273 35.76C130.793 36.048 130.249 36.192 129.641 36.192C128.702 36.192 127.95 35.9093 127.385 35.344C126.83 34.768 126.553 33.888 126.553 32.704V28.064H127.897V32.56C127.897 34.2133 128.58 35.04 129.945 35.04C130.628 35.04 131.193 34.7947 131.641 34.304C132.1 33.8027 132.329 33.0933 132.329 32.176V28.064H133.673ZM135.885 36V28.064H137.101L137.197 29.216C137.453 28.7893 137.795 28.4587 138.221 28.224C138.648 27.9893 139.128 27.872 139.661 27.872C140.291 27.872 140.829 28 141.277 28.256C141.736 28.512 142.088 28.9013 142.333 29.424C142.611 28.944 142.989 28.5653 143.469 28.288C143.96 28.0107 144.488 27.872 145.053 27.872C146.003 27.872 146.76 28.16 147.325 28.736C147.891 29.3013 148.173 30.176 148.173 31.36V36H146.845V31.504C146.845 30.6827 146.68 30.064 146.349 29.648C146.019 29.232 145.544 29.024 144.925 29.024C144.285 29.024 143.752 29.2747 143.325 29.776C142.909 30.2667 142.701 30.9707 142.701 31.888V36H141.357V31.504C141.357 30.6827 141.192 30.064 140.861 29.648C140.531 29.232 140.056 29.024 139.437 29.024C138.808 29.024 138.28 29.2747 137.853 29.776C137.437 30.2667 137.229 30.9707 137.229 31.888V36H135.885ZM157.072 36.192C156.411 36.192 155.861 36.08 155.424 35.856C154.987 35.632 154.661 35.3333 154.448 34.96C154.235 34.5867 154.128 34.1813 154.128 33.744C154.128 32.9333 154.437 32.3093 155.056 31.872C155.675 31.4347 156.517 31.216 157.584 31.216H159.728V31.12C159.728 30.4267 159.547 29.904 159.184 29.552C158.821 29.1893 158.336 29.008 157.728 29.008C157.205 29.008 156.752 29.1413 156.368 29.408C155.995 29.664 155.76 30.0427 155.664 30.544H154.288C154.341 29.968 154.533 29.4827 154.864 29.088C155.205 28.6933 155.627 28.3947 156.128 28.192C156.629 27.9787 157.163 27.872 157.728 27.872C158.837 27.872 159.669 28.1707 160.224 28.768C160.789 29.3547 161.072 30.1387 161.072 31.12V36H159.872L159.792 34.576C159.568 35.024 159.237 35.408 158.8 35.728C158.373 36.0373 157.797 36.192 157.072 36.192ZM157.28 35.056C157.792 35.056 158.229 34.9227 158.592 34.656C158.965 34.3893 159.248 34.0427 159.44 33.616C159.632 33.1893 159.728 32.7413 159.728 32.272V32.256H157.696C156.907 32.256 156.347 32.3947 156.016 32.672C155.696 32.9387 155.536 33.2747 155.536 33.68C155.536 34.096 155.685 34.432 155.984 34.688C156.293 34.9333 156.725 35.056 157.28 35.056ZM163.088 36V28.064H164.304L164.384 29.488C164.64 28.9867 165.008 28.592 165.488 28.304C165.968 28.016 166.512 27.872 167.12 27.872C168.059 27.872 168.806 28.16 169.36 28.736C169.926 29.3013 170.208 30.176 170.208 31.36V36H168.864V31.504C168.864 29.8507 168.182 29.024 166.816 29.024C166.134 29.024 165.563 29.2747 165.104 29.776C164.656 30.2667 164.432 30.9707 164.432 31.888V36H163.088ZM173.061 26.304C172.794 26.304 172.57 26.2187 172.389 26.048C172.218 25.8667 172.133 25.6427 172.133 25.376C172.133 25.12 172.218 24.9067 172.389 24.736C172.57 24.5653 172.794 24.48 173.061 24.48C173.317 24.48 173.535 24.5653 173.717 24.736C173.898 24.9067 173.989 25.12 173.989 25.376C173.989 25.6427 173.898 25.8667 173.717 26.048C173.535 26.2187 173.317 26.304 173.061 26.304ZM172.389 36V28.064H173.733V36H172.389ZM176.073 36V28.064H177.289L177.385 29.216C177.641 28.7893 177.982 28.4587 178.409 28.224C178.835 27.9893 179.315 27.872 179.849 27.872C180.478 27.872 181.017 28 181.465 28.256C181.923 28.512 182.275 28.9013 182.521 29.424C182.798 28.944 183.177 28.5653 183.657 28.288C184.147 28.0107 184.675 27.872 185.241 27.872C186.19 27.872 186.947 28.16 187.513 28.736C188.078 29.3013 188.361 30.176 188.361 31.36V36H187.033V31.504C187.033 30.6827 186.867 30.064 186.537 29.648C186.206 29.232 185.731 29.024 185.113 29.024C184.473 29.024 183.939 29.2747 183.513 29.776C183.097 30.2667 182.889 30.9707 182.889 31.888V36H181.545V31.504C181.545 30.6827 181.379 30.064 181.049 29.648C180.718 29.232 180.243 29.024 179.625 29.024C178.995 29.024 178.467 29.2747 178.041 29.776C177.625 30.2667 177.417 30.9707 177.417 31.888V36H176.073ZM193.025 36.192C192.364 36.192 191.815 36.08 191.377 35.856C190.94 35.632 190.615 35.3333 190.401 34.96C190.188 34.5867 190.081 34.1813 190.081 33.744C190.081 32.9333 190.391 32.3093 191.009 31.872C191.628 31.4347 192.471 31.216 193.537 31.216H195.681V31.12C195.681 30.4267 195.5 29.904 195.137 29.552C194.775 29.1893 194.289 29.008 193.681 29.008C193.159 29.008 192.705 29.1413 192.321 29.408C191.948 29.664 191.713 30.0427 191.617 30.544H190.241C190.295 29.968 190.487 29.4827 190.817 29.088C191.159 28.6933 191.58 28.3947 192.081 28.192C192.583 27.9787 193.116 27.872 193.681 27.872C194.791 27.872 195.623 28.1707 196.177 28.768C196.743 29.3547 197.025 30.1387 197.025 31.12V36H195.825L195.745 34.576C195.521 35.024 195.191 35.408 194.753 35.728C194.327 36.0373 193.751 36.192 193.025 36.192ZM193.233 35.056C193.745 35.056 194.183 34.9227 194.545 34.656C194.919 34.3893 195.201 34.0427 195.393 33.616C195.585 33.1893 195.681 32.7413 195.681 32.272V32.256H193.649C192.86 32.256 192.3 32.3947 191.969 32.672C191.649 32.9387 191.489 33.2747 191.489 33.68C191.489 34.096 191.639 34.432 191.937 34.688C192.247 34.9333 192.679 35.056 193.233 35.056ZM199.042 36V24.48H200.386V36H199.042ZM213.335 39.52V34.688C213.079 35.072 212.711 35.4187 212.231 35.728C211.751 36.0373 211.148 36.192 210.423 36.192C209.633 36.192 208.94 36.0107 208.343 35.648C207.756 35.2853 207.297 34.7893 206.967 34.16C206.647 33.5307 206.487 32.816 206.487 32.016C206.487 31.216 206.652 30.5067 206.983 29.888C207.313 29.2587 207.772 28.768 208.359 28.416C208.945 28.0533 209.639 27.872 210.439 27.872C211.089 27.872 211.665 28.0053 212.167 28.272C212.668 28.5387 213.057 28.912 213.335 29.392L213.463 28.064H214.679V39.52H213.335ZM210.567 35.024C211.1 35.024 211.569 34.9013 211.975 34.656C212.391 34.4 212.711 34.048 212.935 33.6C213.169 33.152 213.287 32.6293 213.287 32.032C213.287 31.4347 213.169 30.912 212.935 30.464C212.711 30.016 212.391 29.6693 211.975 29.424C211.569 29.168 211.1 29.04 210.567 29.04C210.044 29.04 209.575 29.168 209.159 29.424C208.753 29.6693 208.433 30.016 208.199 30.464C207.975 30.912 207.863 31.4347 207.863 32.032C207.863 32.6293 207.975 33.152 208.199 33.6C208.433 34.048 208.753 34.4 209.159 34.656C209.575 34.9013 210.044 35.024 210.567 35.024ZM223.814 28.064V36H222.598L222.518 34.576C222.262 35.0773 221.894 35.472 221.414 35.76C220.934 36.048 220.39 36.192 219.782 36.192C218.843 36.192 218.091 35.9093 217.526 35.344C216.971 34.768 216.694 33.888 216.694 32.704V28.064H218.038V32.56C218.038 34.2133 218.72 35.04 220.086 35.04C220.768 35.04 221.334 34.7947 221.782 34.304C222.24 33.8027 222.47 33.0933 222.47 32.176V28.064H223.814ZM226.842 26.304C226.575 26.304 226.351 26.2187 226.17 26.048C225.999 25.8667 225.914 25.6427 225.914 25.376C225.914 25.12 225.999 24.9067 226.17 24.736C226.351 24.5653 226.575 24.48 226.842 24.48C227.098 24.48 227.317 24.5653 227.498 24.736C227.679 24.9067 227.77 25.12 227.77 25.376C227.77 25.6427 227.679 25.8667 227.498 26.048C227.317 26.2187 227.098 26.304 226.842 26.304ZM226.17 36V28.064H227.514V36H226.17ZM237.656 36.192C236.899 36.192 236.227 36.0213 235.64 35.68C235.054 35.328 234.59 34.8427 234.248 34.224C233.918 33.6053 233.752 32.8747 233.752 32.032C233.752 31.2 233.918 30.4747 234.248 29.856C234.579 29.2267 235.038 28.7413 235.624 28.4C236.222 28.048 236.91 27.872 237.688 27.872C238.456 27.872 239.118 28.048 239.672 28.4C240.238 28.7413 240.67 29.1947 240.968 29.76C241.267 30.3253 241.416 30.9333 241.416 31.584C241.416 31.7013 241.411 31.8187 241.4 31.936C241.4 32.0533 241.4 32.1867 241.4 32.336H235.08C235.112 32.944 235.251 33.4507 235.496 33.856C235.752 34.2507 236.067 34.5493 236.44 34.752C236.824 34.9547 237.23 35.056 237.656 35.056C238.211 35.056 238.675 34.928 239.048 34.672C239.422 34.416 239.694 34.0693 239.864 33.632H241.192C240.979 34.368 240.568 34.9813 239.96 35.472C239.363 35.952 238.595 36.192 237.656 36.192ZM237.656 29.008C237.016 29.008 236.446 29.2053 235.944 29.6C235.454 29.984 235.171 30.5493 235.096 31.296H240.088C240.056 30.5813 239.811 30.0213 239.352 29.616C238.894 29.2107 238.328 29.008 237.656 29.008ZM246.068 36C245.343 36 244.772 35.824 244.356 35.472C243.94 35.12 243.732 34.4853 243.732 33.568V29.2H242.356V28.064H243.732L243.908 26.16H245.076V28.064H247.412V29.2H245.076V33.568C245.076 34.0693 245.177 34.4107 245.38 34.592C245.583 34.7627 245.94 34.848 246.452 34.848H247.284V36H246.068ZM249.584 36.08C249.317 36.08 249.093 35.9947 248.912 35.824C248.741 35.6427 248.656 35.424 248.656 35.168C248.656 34.912 248.741 34.6987 248.912 34.528C249.093 34.3467 249.317 34.256 249.584 34.256C249.84 34.256 250.053 34.3467 250.224 34.528C250.405 34.6987 250.496 34.912 250.496 35.168C250.496 35.424 250.405 35.6427 250.224 35.824C250.053 35.9947 249.84 36.08 249.584 36.08Z" fill="black" fill-opacity="0.5"/>
</svg>
