<svg width="253" height="40" viewBox="0 0 253 40" fill="none" xmlns="http://www.w3.org/2000/svg">
<path d="M0.184 12V0.799999H1.528V12H0.184ZM10.7668 4.064V12H9.55075L9.47075 10.576C9.21475 11.0773 8.84675 11.472 8.36675 11.76C7.88675 12.048 7.34275 12.192 6.73475 12.192C5.79608 12.192 5.04408 11.9093 4.47875 11.344C3.92408 10.768 3.64675 9.888 3.64675 8.704V4.064H4.99075V8.56C4.99075 10.2133 5.67342 11.04 7.03875 11.04C7.72142 11.04 8.28675 10.7947 8.73475 10.304C9.19342 9.80267 9.42275 9.09333 9.42275 8.176V4.064H10.7668ZM16.019 12.192C15.0697 12.192 14.2803 11.952 13.651 11.472C13.0217 10.992 12.6537 10.3413 12.547 9.52H13.923C14.0083 9.936 14.227 10.2987 14.579 10.608C14.9417 10.9067 15.427 11.056 16.035 11.056C16.6003 11.056 17.0163 10.9387 17.283 10.704C17.5497 10.4587 17.683 10.1707 17.683 9.84C17.683 9.36 17.507 9.04 17.155 8.88C16.8137 8.72 16.3283 8.576 15.699 8.448C15.2723 8.36267 14.8457 8.24 14.419 8.08C13.9923 7.92 13.635 7.696 13.347 7.408C13.059 7.10933 12.915 6.72 12.915 6.24C12.915 5.54667 13.171 4.98133 13.683 4.544C14.2057 4.096 14.9097 3.872 15.795 3.872C16.6377 3.872 17.3257 4.08533 17.859 4.512C18.403 4.928 18.7177 5.52533 18.803 6.304H17.475C17.4217 5.89867 17.2457 5.584 16.947 5.36C16.659 5.12533 16.2697 5.008 15.779 5.008C15.299 5.008 14.9257 5.10933 14.659 5.312C14.403 5.51467 14.275 5.78133 14.275 6.112C14.275 6.432 14.4403 6.68267 14.771 6.864C15.1123 7.04533 15.571 7.2 16.147 7.328C16.6377 7.43467 17.1017 7.568 17.539 7.728C17.987 7.87733 18.3497 8.10667 18.627 8.416C18.915 8.71467 19.059 9.152 19.059 9.728C19.0697 10.4427 18.7977 11.0347 18.243 11.504C17.699 11.9627 16.9577 12.192 16.019 12.192ZM28.8134 12.192C28.024 12.192 27.3307 12.0107 26.7334 11.648C26.1467 11.2853 25.688 10.7893 25.3574 10.16C25.0374 9.53067 24.8774 8.816 24.8774 8.016C24.8774 7.216 25.0427 6.50667 25.3734 5.888C25.704 5.25867 26.1627 4.768 26.7494 4.416C27.336 4.05333 28.0294 3.872 28.8294 3.872C29.48 3.872 30.056 4.00533 30.5574 4.272C31.0587 4.53867 31.448 4.912 31.7254 5.392V0.48H33.0694V12H31.8534L31.7254 10.688C31.4694 11.072 31.1014 11.4187 30.6214 11.728C30.1414 12.0373 29.5387 12.192 28.8134 12.192ZM28.9574 11.024C29.4907 11.024 29.96 10.9013 30.3654 10.656C30.7814 10.4 31.1014 10.048 31.3254 9.6C31.56 9.152 31.6774 8.62933 31.6774 8.032C31.6774 7.43467 31.56 6.912 31.3254 6.464C31.1014 6.016 30.7814 5.66933 30.3654 5.424C29.96 5.168 29.4907 5.04 28.9574 5.04C28.4347 5.04 27.9654 5.168 27.5494 5.424C27.144 5.66933 26.824 6.016 26.5894 6.464C26.3654 6.912 26.2534 7.43467 26.2534 8.032C26.2534 8.62933 26.3654 9.152 26.5894 9.6C26.824 10.048 27.144 10.4 27.5494 10.656C27.9654 10.9013 28.4347 11.024 28.9574 11.024ZM38.8283 12.192C38.0709 12.192 37.3989 12.0213 36.8123 11.68C36.2256 11.328 35.7616 10.8427 35.4203 10.224C35.0896 9.60533 34.9243 8.87467 34.9243 8.032C34.9243 7.2 35.0896 6.47467 35.4203 5.856C35.7509 5.22667 36.2096 4.74133 36.7963 4.4C37.3936 4.048 38.0816 3.872 38.8602 3.872C39.6283 3.872 40.2896 4.048 40.8443 4.4C41.4096 4.74133 41.8416 5.19467 42.1403 5.76C42.4389 6.32533 42.5883 6.93333 42.5883 7.584C42.5883 7.70133 42.5829 7.81867 42.5723 7.936C42.5723 8.05333 42.5723 8.18667 42.5723 8.336H36.2523C36.2843 8.944 36.4229 9.45067 36.6683 9.856C36.9243 10.2507 37.2389 10.5493 37.6123 10.752C37.9963 10.9547 38.4016 11.056 38.8283 11.056C39.3829 11.056 39.8469 10.928 40.2203 10.672C40.5936 10.416 40.8656 10.0693 41.0363 9.632H42.3643C42.1509 10.368 41.7403 10.9813 41.1323 11.472C40.5349 11.952 39.7669 12.192 38.8283 12.192ZM38.8283 5.008C38.1883 5.008 37.6176 5.20533 37.1163 5.6C36.6256 5.984 36.3429 6.54933 36.2682 7.296H41.2603C41.2283 6.58133 40.9829 6.02133 40.5243 5.616C40.0656 5.21067 39.5003 5.008 38.8283 5.008ZM44.3696 12V0.48H45.7136V12H44.3696ZM51.4845 12.192C50.7272 12.192 50.0552 12.0213 49.4685 11.68C48.8818 11.328 48.4178 10.8427 48.0765 10.224C47.7458 9.60533 47.5805 8.87467 47.5805 8.032C47.5805 7.2 47.7458 6.47467 48.0765 5.856C48.4072 5.22667 48.8658 4.74133 49.4525 4.4C50.0498 4.048 50.7378 3.872 51.5165 3.872C52.2845 3.872 52.9458 4.048 53.5005 4.4C54.0658 4.74133 54.4978 5.19467 54.7965 5.76C55.0952 6.32533 55.2445 6.93333 55.2445 7.584C55.2445 7.70133 55.2392 7.81867 55.2285 7.936C55.2285 8.05333 55.2285 8.18667 55.2285 8.336H48.9085C48.9405 8.944 49.0792 9.45067 49.3245 9.856C49.5805 10.2507 49.8952 10.5493 50.2685 10.752C50.6525 10.9547 51.0578 11.056 51.4845 11.056C52.0392 11.056 52.5032 10.928 52.8765 10.672C53.2498 10.416 53.5218 10.0693 53.6925 9.632H55.0205C54.8072 10.368 54.3965 10.9813 53.7885 11.472C53.1912 11.952 52.4232 12.192 51.4845 12.192ZM51.4845 5.008C50.8445 5.008 50.2738 5.20533 49.7725 5.6C49.2818 5.984 48.9992 6.54933 48.9245 7.296H53.9165C53.8845 6.58133 53.6392 6.02133 53.1805 5.616C52.7218 5.21067 52.1565 5.008 51.4845 5.008ZM60.6739 12.192C59.9165 12.192 59.2339 12.0213 58.6259 11.68C58.0285 11.328 57.5539 10.8427 57.2019 10.224C56.8605 9.59467 56.6899 8.864 56.6899 8.032C56.6899 7.2 56.8605 6.47467 57.2019 5.856C57.5539 5.22667 58.0285 4.74133 58.6259 4.4C59.2339 4.048 59.9165 3.872 60.6739 3.872C61.6125 3.872 62.4019 4.11733 63.0419 4.608C63.6925 5.09867 64.1032 5.75467 64.2739 6.576H62.8979C62.7912 6.08533 62.5299 5.70667 62.1139 5.44C61.6979 5.16267 61.2125 5.024 60.6579 5.024C60.2099 5.024 59.7885 5.136 59.3939 5.36C58.9992 5.584 58.6792 5.92 58.4339 6.368C58.1885 6.816 58.0659 7.37067 58.0659 8.032C58.0659 8.69333 58.1885 9.248 58.4339 9.696C58.6792 10.144 58.9992 10.4853 59.3939 10.72C59.7885 10.944 60.2099 11.056 60.6579 11.056C61.2125 11.056 61.6979 10.9227 62.1139 10.656C62.5299 10.3787 62.7912 9.98933 62.8979 9.488H64.2739C64.1139 10.288 63.7085 10.9387 63.0579 11.44C62.4072 11.9413 61.6125 12.192 60.6739 12.192ZM69.0681 12C68.3428 12 67.7721 11.824 67.3561 11.472C66.9401 11.12 66.7321 10.4853 66.7321 9.568V5.2H65.3561V4.064H66.7321L66.9081 2.16H68.0761V4.064H70.4121V5.2H68.0761V9.568C68.0761 10.0693 68.1775 10.4107 68.3801 10.592C68.5828 10.7627 68.9401 10.848 69.4521 10.848H70.2841V12H69.0681ZM79.0636 4.064V12H77.8476L77.7676 10.576C77.5116 11.0773 77.1436 11.472 76.6636 11.76C76.1836 12.048 75.6396 12.192 75.0316 12.192C74.093 12.192 73.341 11.9093 72.7756 11.344C72.221 10.768 71.9436 9.888 71.9436 8.704V4.064H73.2876V8.56C73.2876 10.2133 73.9703 11.04 75.3356 11.04C76.0183 11.04 76.5836 10.7947 77.0316 10.304C77.4903 9.80267 77.7196 9.09333 77.7196 8.176V4.064H79.0636ZM84.3159 12.192C83.3665 12.192 82.5772 11.952 81.9479 11.472C81.3185 10.992 80.9505 10.3413 80.8439 9.52H82.2199C82.3052 9.936 82.5239 10.2987 82.8759 10.608C83.2385 10.9067 83.7239 11.056 84.3319 11.056C84.8972 11.056 85.3132 10.9387 85.5799 10.704C85.8465 10.4587 85.9799 10.1707 85.9799 9.84C85.9799 9.36 85.8039 9.04 85.4519 8.88C85.1105 8.72 84.6252 8.576 83.9959 8.448C83.5692 8.36267 83.1425 8.24 82.7159 8.08C82.2892 7.92 81.9319 7.696 81.6439 7.408C81.3559 7.10933 81.2119 6.72 81.2119 6.24C81.2119 5.54667 81.4679 4.98133 81.9799 4.544C82.5025 4.096 83.2065 3.872 84.0919 3.872C84.9345 3.872 85.6225 4.08533 86.1559 4.512C86.6999 4.928 87.0145 5.52533 87.0999 6.304H85.7719C85.7185 5.89867 85.5425 5.584 85.2439 5.36C84.9559 5.12533 84.5665 5.008 84.0759 5.008C83.5959 5.008 83.2225 5.10933 82.9559 5.312C82.6999 5.51467 82.5719 5.78133 82.5719 6.112C82.5719 6.432 82.7372 6.68267 83.0679 6.864C83.4092 7.04533 83.8679 7.2 84.4439 7.328C84.9345 7.43467 85.3985 7.568 85.8359 7.728C86.2839 7.87733 86.6465 8.10667 86.9239 8.416C87.2119 8.71467 87.3559 9.152 87.3559 9.728C87.3665 10.4427 87.0945 11.0347 86.5399 11.504C85.9959 11.9627 85.2545 12.192 84.3159 12.192ZM94.3263 2.304C94.0596 2.304 93.8356 2.21867 93.6543 2.048C93.4836 1.86667 93.3983 1.64267 93.3983 1.376C93.3983 1.12 93.4836 0.906666 93.6543 0.735999C93.8356 0.565333 94.0596 0.48 94.3263 0.48C94.5823 0.48 94.8009 0.565333 94.9823 0.735999C95.1636 0.906666 95.2543 1.12 95.2543 1.376C95.2543 1.64267 95.1636 1.86667 94.9823 2.048C94.8009 2.21867 94.5823 2.304 94.3263 2.304ZM93.6543 12V4.064H94.9983V12H93.6543ZM97.3384 12V4.064H98.5544L98.6344 5.488C98.8904 4.98667 99.2584 4.592 99.7384 4.304C100.218 4.016 100.762 3.872 101.37 3.872C102.309 3.872 103.056 4.16 103.61 4.736C104.176 5.30133 104.458 6.176 104.458 7.36V12H103.114V7.504C103.114 5.85067 102.432 5.024 101.066 5.024C100.384 5.024 99.813 5.27467 99.3544 5.776C98.9064 6.26667 98.6824 6.97067 98.6824 7.888V12H97.3384ZM109.535 12.192C108.585 12.192 107.796 11.952 107.167 11.472C106.537 10.992 106.169 10.3413 106.063 9.52H107.439C107.524 9.936 107.743 10.2987 108.095 10.608C108.457 10.9067 108.943 11.056 109.551 11.056C110.116 11.056 110.532 10.9387 110.799 10.704C111.065 10.4587 111.199 10.1707 111.199 9.84C111.199 9.36 111.023 9.04 110.671 8.88C110.329 8.72 109.844 8.576 109.215 8.448C108.788 8.36267 108.361 8.24 107.935 8.08C107.508 7.92 107.151 7.696 106.863 7.408C106.575 7.10933 106.431 6.72 106.431 6.24C106.431 5.54667 106.687 4.98133 107.199 4.544C107.721 4.096 108.425 3.872 109.311 3.872C110.153 3.872 110.841 4.08533 111.375 4.512C111.919 4.928 112.233 5.52533 112.319 6.304H110.991C110.937 5.89867 110.761 5.584 110.463 5.36C110.175 5.12533 109.785 5.008 109.295 5.008C108.815 5.008 108.441 5.10933 108.175 5.312C107.919 5.51467 107.791 5.78133 107.791 6.112C107.791 6.432 107.956 6.68267 108.287 6.864C108.628 7.04533 109.087 7.2 109.663 7.328C110.153 7.43467 110.617 7.568 111.055 7.728C111.503 7.87733 111.865 8.10667 112.143 8.416C112.431 8.71467 112.575 9.152 112.575 9.728C112.585 10.4427 112.313 11.0347 111.759 11.504C111.215 11.9627 110.473 12.192 109.535 12.192ZM117.271 12C116.546 12 115.975 11.824 115.559 11.472C115.143 11.12 114.935 10.4853 114.935 9.568V5.2H113.559V4.064H114.935L115.111 2.16H116.279V4.064H118.615V5.2H116.279V9.568C116.279 10.0693 116.381 10.4107 116.583 10.592C116.786 10.7627 117.143 10.848 117.655 10.848H118.487V12H117.271ZM120.323 12V4.064H121.539L121.651 5.584C121.896 5.06133 122.269 4.64533 122.771 4.336C123.272 4.02667 123.891 3.872 124.627 3.872V5.28H124.259C123.789 5.28 123.357 5.36533 122.963 5.536C122.568 5.696 122.253 5.97333 122.019 6.368C121.784 6.76267 121.667 7.30667 121.667 8V12H120.323ZM133.079 4.064V12H131.863L131.783 10.576C131.527 11.0773 131.159 11.472 130.679 11.76C130.199 12.048 129.655 12.192 129.047 12.192C128.109 12.192 127.357 11.9093 126.791 11.344C126.237 10.768 125.959 9.888 125.959 8.704V4.064H127.303V8.56C127.303 10.2133 127.986 11.04 129.351 11.04C130.034 11.04 130.599 10.7947 131.047 10.304C131.506 9.80267 131.735 9.09333 131.735 8.176V4.064H133.079ZM138.94 12.192C138.182 12.192 137.5 12.0213 136.892 11.68C136.294 11.328 135.82 10.8427 135.468 10.224C135.126 9.59467 134.956 8.864 134.956 8.032C134.956 7.2 135.126 6.47467 135.468 5.856C135.82 5.22667 136.294 4.74133 136.892 4.4C137.5 4.048 138.182 3.872 138.94 3.872C139.878 3.872 140.668 4.11733 141.308 4.608C141.958 5.09867 142.369 5.75467 142.54 6.576H141.164C141.057 6.08533 140.796 5.70667 140.38 5.44C139.964 5.16267 139.478 5.024 138.924 5.024C138.476 5.024 138.054 5.136 137.66 5.36C137.265 5.584 136.945 5.92 136.7 6.368C136.454 6.816 136.332 7.37067 136.332 8.032C136.332 8.69333 136.454 9.248 136.7 9.696C136.945 10.144 137.265 10.4853 137.66 10.72C138.054 10.944 138.476 11.056 138.924 11.056C139.478 11.056 139.964 10.9227 140.38 10.656C140.796 10.3787 141.057 9.98933 141.164 9.488H142.54C142.38 10.288 141.974 10.9387 141.324 11.44C140.673 11.9413 139.878 12.192 138.94 12.192ZM147.334 12C146.608 12 146.038 11.824 145.622 11.472C145.206 11.12 144.998 10.4853 144.998 9.568V5.2H143.622V4.064H144.998L145.174 2.16H146.342V4.064H148.678V5.2H146.342V9.568C146.342 10.0693 146.443 10.4107 146.646 10.592C146.848 10.7627 147.206 10.848 147.718 10.848H148.55V12H147.334ZM151.201 2.304C150.935 2.304 150.711 2.21867 150.529 2.048C150.359 1.86667 150.273 1.64267 150.273 1.376C150.273 1.12 150.359 0.906666 150.529 0.735999C150.711 0.565333 150.935 0.48 151.201 0.48C151.457 0.48 151.676 0.565333 151.857 0.735999C152.039 0.906666 152.129 1.12 152.129 1.376C152.129 1.64267 152.039 1.86667 151.857 2.048C151.676 2.21867 151.457 2.304 151.201 2.304ZM150.529 12V4.064H151.873V12H150.529ZM157.829 12.192C157.083 12.192 156.411 12.0213 155.813 11.68C155.216 11.3387 154.741 10.8587 154.389 10.24C154.048 9.61067 153.877 8.87467 153.877 8.032C153.877 7.18933 154.053 6.45867 154.405 5.84C154.757 5.21067 155.232 4.72533 155.829 4.384C156.437 4.04267 157.115 3.872 157.861 3.872C158.608 3.872 159.28 4.04267 159.877 4.384C160.475 4.72533 160.944 5.21067 161.285 5.84C161.637 6.45867 161.813 7.18933 161.813 8.032C161.813 8.87467 161.637 9.61067 161.285 10.24C160.933 10.8587 160.453 11.3387 159.845 11.68C159.248 12.0213 158.576 12.192 157.829 12.192ZM157.829 11.04C158.288 11.04 158.715 10.928 159.109 10.704C159.504 10.48 159.824 10.144 160.069 9.696C160.315 9.248 160.437 8.69333 160.437 8.032C160.437 7.37067 160.315 6.816 160.069 6.368C159.835 5.92 159.52 5.584 159.125 5.36C158.731 5.136 158.309 5.024 157.861 5.024C157.403 5.024 156.976 5.136 156.581 5.36C156.187 5.584 155.867 5.92 155.621 6.368C155.376 6.816 155.253 7.37067 155.253 8.032C155.253 8.69333 155.376 9.248 155.621 9.696C155.867 10.144 156.181 10.48 156.565 10.704C156.96 10.928 157.381 11.04 157.829 11.04ZM163.682 12V4.064H164.898L165.01 5.584C165.255 5.06133 165.629 4.64533 166.13 4.336C166.631 4.02667 167.25 3.872 167.986 3.872V5.28H167.618C167.149 5.28 166.717 5.36533 166.322 5.536C165.927 5.696 165.613 5.97333 165.378 6.368C165.143 6.76267 165.026 7.30667 165.026 8V12H163.682ZM177.297 12.192C176.54 12.192 175.868 12.0213 175.281 11.68C174.694 11.328 174.23 10.8427 173.889 10.224C173.558 9.60533 173.393 8.87467 173.393 8.032C173.393 7.2 173.558 6.47467 173.889 5.856C174.22 5.22667 174.678 4.74133 175.265 4.4C175.862 4.048 176.55 3.872 177.329 3.872C178.097 3.872 178.758 4.048 179.313 4.4C179.878 4.74133 180.31 5.19467 180.609 5.76C180.908 6.32533 181.057 6.93333 181.057 7.584C181.057 7.70133 181.052 7.81867 181.041 7.936C181.041 8.05333 181.041 8.18667 181.041 8.336H174.721C174.753 8.944 174.892 9.45067 175.137 9.856C175.393 10.2507 175.708 10.5493 176.081 10.752C176.465 10.9547 176.87 11.056 177.297 11.056C177.852 11.056 178.316 10.928 178.689 10.672C179.062 10.416 179.334 10.0693 179.505 9.632H180.833C180.62 10.368 180.209 10.9813 179.601 11.472C179.004 11.952 178.236 12.192 177.297 12.192ZM177.297 5.008C176.657 5.008 176.086 5.20533 175.585 5.6C175.094 5.984 174.812 6.54933 174.737 7.296H179.729C179.697 6.58133 179.452 6.02133 178.993 5.616C178.534 5.21067 177.969 5.008 177.297 5.008ZM189.782 4.064V12H188.566L188.486 10.576C188.23 11.0773 187.862 11.472 187.382 11.76C186.902 12.048 186.358 12.192 185.75 12.192C184.812 12.192 184.06 11.9093 183.494 11.344C182.94 10.768 182.662 9.888 182.662 8.704V4.064H184.006V8.56C184.006 10.2133 184.689 11.04 186.054 11.04C186.737 11.04 187.302 10.7947 187.75 10.304C188.209 9.80267 188.438 9.09333 188.438 8.176V4.064H189.782ZM190.923 13.904L191.851 10.368H193.243L191.851 13.904H190.923ZM202.641 12.192C201.883 12.192 201.211 12.0213 200.625 11.68C200.038 11.328 199.574 10.8427 199.233 10.224C198.902 9.60533 198.737 8.87467 198.737 8.032C198.737 7.2 198.902 6.47467 199.233 5.856C199.563 5.22667 200.022 4.74133 200.609 4.4C201.206 4.048 201.894 3.872 202.673 3.872C203.441 3.872 204.102 4.048 204.657 4.4C205.222 4.74133 205.654 5.19467 205.953 5.76C206.251 6.32533 206.401 6.93333 206.401 7.584C206.401 7.70133 206.395 7.81867 206.385 7.936C206.385 8.05333 206.385 8.18667 206.385 8.336H200.065C200.097 8.944 200.235 9.45067 200.481 9.856C200.737 10.2507 201.051 10.5493 201.425 10.752C201.809 10.9547 202.214 11.056 202.641 11.056C203.195 11.056 203.659 10.928 204.033 10.672C204.406 10.416 204.678 10.0693 204.849 9.632H206.177C205.963 10.368 205.553 10.9813 204.945 11.472C204.347 11.952 203.579 12.192 202.641 12.192ZM202.641 5.008C202.001 5.008 201.43 5.20533 200.929 5.6C200.438 5.984 200.155 6.54933 200.081 7.296H205.073C205.041 6.58133 204.795 6.02133 204.337 5.616C203.878 5.21067 203.313 5.008 202.641 5.008ZM215.126 4.064V12H213.91L213.83 10.576C213.574 11.0773 213.206 11.472 212.726 11.76C212.246 12.048 211.702 12.192 211.094 12.192C210.155 12.192 209.403 11.9093 208.838 11.344C208.283 10.768 208.006 9.888 208.006 8.704V4.064H209.35V8.56C209.35 10.2133 210.033 11.04 211.398 11.04C212.081 11.04 212.646 10.7947 213.094 10.304C213.553 9.80267 213.782 9.09333 213.782 8.176V4.064H215.126ZM225.141 12.192C224.383 12.192 223.711 12.0213 223.125 11.68C222.538 11.328 222.074 10.8427 221.733 10.224C221.402 9.60533 221.237 8.87467 221.237 8.032C221.237 7.2 221.402 6.47467 221.733 5.856C222.063 5.22667 222.522 4.74133 223.109 4.4C223.706 4.048 224.394 3.872 225.173 3.872C225.941 3.872 226.602 4.048 227.157 4.4C227.722 4.74133 228.154 5.19467 228.453 5.76C228.751 6.32533 228.901 6.93333 228.901 7.584C228.901 7.70133 228.895 7.81867 228.885 7.936C228.885 8.05333 228.885 8.18667 228.885 8.336H222.565C222.597 8.944 222.735 9.45067 222.981 9.856C223.237 10.2507 223.551 10.5493 223.925 10.752C224.309 10.9547 224.714 11.056 225.141 11.056C225.695 11.056 226.159 10.928 226.533 10.672C226.906 10.416 227.178 10.0693 227.349 9.632H228.677C228.463 10.368 228.053 10.9813 227.445 11.472C226.847 11.952 226.079 12.192 225.141 12.192ZM225.141 5.008C224.501 5.008 223.93 5.20533 223.429 5.6C222.938 5.984 222.655 6.54933 222.581 7.296H227.573C227.541 6.58133 227.295 6.02133 226.837 5.616C226.378 5.21067 225.813 5.008 225.141 5.008ZM237.626 4.064V12H236.41L236.33 10.576C236.074 11.0773 235.706 11.472 235.226 11.76C234.746 12.048 234.202 12.192 233.594 12.192C232.655 12.192 231.903 11.9093 231.338 11.344C230.783 10.768 230.506 9.888 230.506 8.704V4.064H231.85V8.56C231.85 10.2133 232.533 11.04 233.898 11.04C234.581 11.04 235.146 10.7947 235.594 10.304C236.053 9.80267 236.282 9.09333 236.282 8.176V4.064H237.626ZM239.838 12V4.064H241.054L241.15 5.216C241.406 4.78933 241.748 4.45867 242.174 4.224C242.601 3.98933 243.081 3.872 243.614 3.872C244.244 3.872 244.782 4 245.23 4.256C245.689 4.512 246.041 4.90133 246.286 5.424C246.564 4.944 246.942 4.56533 247.422 4.288C247.913 4.01067 248.441 3.872 249.006 3.872C249.956 3.872 250.713 4.16 251.278 4.736C251.844 5.30133 252.126 6.176 252.126 7.36V12H250.798V7.504C250.798 6.68267 250.633 6.064 250.302 5.648C249.972 5.232 249.497 5.024 248.878 5.024C248.238 5.024 247.705 5.27467 247.278 5.776C246.862 6.26667 246.654 6.97067 246.654 7.888V12H245.31V7.504C245.31 6.68267 245.145 6.064 244.814 5.648C244.484 5.232 244.009 5.024 243.39 5.024C242.761 5.024 242.233 5.27467 241.806 5.776C241.39 6.26667 241.182 6.97067 241.182 7.888V12H239.838ZM0.104 36V28.064H1.32L1.416 29.216C1.672 28.7893 2.01333 28.4587 2.44 28.224C2.86667 27.9893 3.34667 27.872 3.88 27.872C4.50933 27.872 5.048 28 5.496 28.256C5.95467 28.512 6.30667 28.9013 6.552 29.424C6.82933 28.944 7.208 28.5653 7.688 28.288C8.17867 28.0107 8.70667 27.872 9.272 27.872C10.2213 27.872 10.9787 28.16 11.544 28.736C12.1093 29.3013 12.392 30.176 12.392 31.36V36H11.064V31.504C11.064 30.6827 10.8987 30.064 10.568 29.648C10.2373 29.232 9.76267 29.024 9.144 29.024C8.504 29.024 7.97067 29.2747 7.544 29.776C7.128 30.2667 6.92 30.9707 6.92 31.888V36H5.576V31.504C5.576 30.6827 5.41067 30.064 5.08 29.648C4.74933 29.232 4.27467 29.024 3.656 29.024C3.02667 29.024 2.49867 29.2747 2.072 29.776C1.656 30.2667 1.448 30.9707 1.448 31.888V36H0.104ZM17.9845 36.192C17.2272 36.192 16.5552 36.0213 15.9685 35.68C15.3818 35.328 14.9178 34.8427 14.5765 34.224C14.2458 33.6053 14.0805 32.8747 14.0805 32.032C14.0805 31.2 14.2458 30.4747 14.5765 29.856C14.9072 29.2267 15.3658 28.7413 15.9525 28.4C16.5498 28.048 17.2378 27.872 18.0165 27.872C18.7845 27.872 19.4458 28.048 20.0005 28.4C20.5658 28.7413 20.9978 29.1947 21.2965 29.76C21.5952 30.3253 21.7445 30.9333 21.7445 31.584C21.7445 31.7013 21.7392 31.8187 21.7285 31.936C21.7285 32.0533 21.7285 32.1867 21.7285 32.336H15.4085C15.4405 32.944 15.5792 33.4507 15.8245 33.856C16.0805 34.2507 16.3952 34.5493 16.7685 34.752C17.1525 34.9547 17.5578 35.056 17.9845 35.056C18.5392 35.056 19.0032 34.928 19.3765 34.672C19.7498 34.416 20.0218 34.0693 20.1925 33.632H21.5205C21.3072 34.368 20.8965 34.9813 20.2885 35.472C19.6912 35.952 18.9232 36.192 17.9845 36.192ZM17.9845 29.008C17.3445 29.008 16.7738 29.2053 16.2725 29.6C15.7818 29.984 15.4992 30.5493 15.4245 31.296H20.4165C20.3845 30.5813 20.1392 30.0213 19.6805 29.616C19.2218 29.2107 18.6565 29.008 17.9845 29.008ZM23.5259 36V28.064H24.7419L24.8219 29.488C25.0779 28.9867 25.4459 28.592 25.9259 28.304C26.4059 28.016 26.9499 27.872 27.5579 27.872C28.4965 27.872 29.2432 28.16 29.7979 28.736C30.3632 29.3013 30.6459 30.176 30.6459 31.36V36H29.3019V31.504C29.3019 29.8507 28.6192 29.024 27.2539 29.024C26.5712 29.024 26.0005 29.2747 25.5419 29.776C25.0939 30.2667 24.8699 30.9707 24.8699 31.888V36H23.5259ZM35.8181 36C35.0928 36 34.5221 35.824 34.1061 35.472C33.6901 35.12 33.4821 34.4853 33.4821 33.568V29.2H32.1061V28.064H33.4821L33.6581 26.16H34.8261V28.064H37.1621V29.2H34.8261V33.568C34.8261 34.0693 34.9275 34.4107 35.1301 34.592C35.3328 34.7627 35.6901 34.848 36.2021 34.848H37.0341V36H35.8181ZM39.6856 26.304C39.419 26.304 39.195 26.2187 39.0136 26.048C38.843 25.8667 38.7576 25.6427 38.7576 25.376C38.7576 25.12 38.843 24.9067 39.0136 24.736C39.195 24.5653 39.419 24.48 39.6856 24.48C39.9416 24.48 40.1603 24.5653 40.3416 24.736C40.523 24.9067 40.6136 25.12 40.6136 25.376C40.6136 25.6427 40.523 25.8667 40.3416 26.048C40.1603 26.2187 39.9416 26.304 39.6856 26.304ZM39.0136 36V28.064H40.3576V36H39.0136ZM45.8338 36C45.1084 36 44.5378 35.824 44.1218 35.472C43.7058 35.12 43.4978 34.4853 43.4978 33.568V29.2H42.1217V28.064H43.4978L43.6738 26.16H44.8418V28.064H47.1778V29.2H44.8418V33.568C44.8418 34.0693 44.9431 34.4107 45.1458 34.592C45.3484 34.7627 45.7058 34.848 46.2178 34.848H47.0498V36H45.8338ZM55.8293 28.064V36H54.6133L54.5333 34.576C54.2773 35.0773 53.9093 35.472 53.4293 35.76C52.9493 36.048 52.4053 36.192 51.7973 36.192C50.8586 36.192 50.1066 35.9093 49.5413 35.344C48.9866 34.768 48.7093 33.888 48.7093 32.704V28.064H50.0533V32.56C50.0533 34.2133 50.7359 35.04 52.1013 35.04C52.7839 35.04 53.3493 34.7947 53.7973 34.304C54.2559 33.8027 54.4853 33.0933 54.4853 32.176V28.064H55.8293ZM58.0415 36V28.064H59.2575L59.3535 29.216C59.6095 28.7893 59.9508 28.4587 60.3775 28.224C60.8042 27.9893 61.2842 27.872 61.8175 27.872C62.4468 27.872 62.9855 28 63.4335 28.256C63.8922 28.512 64.2442 28.9013 64.4895 29.424C64.7668 28.944 65.1455 28.5653 65.6255 28.288C66.1162 28.0107 66.6442 27.872 67.2095 27.872C68.1588 27.872 68.9162 28.16 69.4815 28.736C70.0468 29.3013 70.3295 30.176 70.3295 31.36V36H69.0015V31.504C69.0015 30.6827 68.8362 30.064 68.5055 29.648C68.1748 29.232 67.7002 29.024 67.0815 29.024C66.4415 29.024 65.9082 29.2747 65.4815 29.776C65.0655 30.2667 64.8575 30.9707 64.8575 31.888V36H63.5135V31.504C63.5135 30.6827 63.3482 30.064 63.0175 29.648C62.6868 29.232 62.2122 29.024 61.5935 29.024C60.9642 29.024 60.4362 29.2747 60.0095 29.776C59.5935 30.2667 59.3855 30.9707 59.3855 31.888V36H58.0415ZM76.5884 39.52V28.064H77.8044L77.9324 29.376C78.1884 28.992 78.551 28.6453 79.0204 28.336C79.5004 28.0267 80.1084 27.872 80.8444 27.872C81.6337 27.872 82.3217 28.0533 82.9084 28.416C83.495 28.7787 83.9484 29.2747 84.2684 29.904C84.599 30.5333 84.7644 31.248 84.7644 32.048C84.7644 32.848 84.599 33.5627 84.2684 34.192C83.9484 34.8107 83.4897 35.3013 82.8924 35.664C82.3057 36.016 81.6177 36.192 80.8284 36.192C80.1777 36.192 79.5964 36.0587 79.0844 35.792C78.583 35.5253 78.199 35.152 77.9324 34.672V39.52H76.5884ZM80.6844 35.024C81.2177 35.024 81.687 34.9013 82.0924 34.656C82.4977 34.4 82.8177 34.048 83.0524 33.6C83.287 33.152 83.4044 32.6293 83.4044 32.032C83.4044 31.4347 83.287 30.912 83.0524 30.464C82.8177 30.016 82.4977 29.6693 82.0924 29.424C81.687 29.168 81.2177 29.04 80.6844 29.04C80.151 29.04 79.6817 29.168 79.2764 29.424C78.871 29.6693 78.551 30.016 78.3164 30.464C78.0817 30.912 77.9644 31.4347 77.9644 32.032C77.9644 32.6293 78.0817 33.152 78.3164 33.6C78.551 34.048 78.871 34.4 79.2764 34.656C79.6817 34.9013 80.151 35.024 80.6844 35.024ZM90.2033 36.192C89.4459 36.192 88.7739 36.0213 88.1873 35.68C87.6006 35.328 87.1366 34.8427 86.7953 34.224C86.4646 33.6053 86.2993 32.8747 86.2993 32.032C86.2993 31.2 86.4646 30.4747 86.7953 29.856C87.1259 29.2267 87.5846 28.7413 88.1713 28.4C88.7686 28.048 89.4566 27.872 90.2352 27.872C91.0033 27.872 91.6646 28.048 92.2193 28.4C92.7846 28.7413 93.2166 29.1947 93.5153 29.76C93.8139 30.3253 93.9633 30.9333 93.9633 31.584C93.9633 31.7013 93.9579 31.8187 93.9473 31.936C93.9473 32.0533 93.9473 32.1867 93.9473 32.336H87.6273C87.6593 32.944 87.7979 33.4507 88.0433 33.856C88.2993 34.2507 88.6139 34.5493 88.9873 34.752C89.3713 34.9547 89.7766 35.056 90.2033 35.056C90.7579 35.056 91.2219 34.928 91.5953 34.672C91.9686 34.416 92.2406 34.0693 92.4113 33.632H93.7393C93.5259 34.368 93.1153 34.9813 92.5073 35.472C91.9099 35.952 91.1419 36.192 90.2033 36.192ZM90.2033 29.008C89.5633 29.008 88.9926 29.2053 88.4913 29.6C88.0006 29.984 87.7179 30.5493 87.6432 31.296H92.6353C92.6033 30.5813 92.3579 30.0213 91.8993 29.616C91.4406 29.2107 90.8753 29.008 90.2033 29.008ZM95.7446 36V28.064H96.9606L97.0726 29.584C97.318 29.0613 97.6913 28.6453 98.1926 28.336C98.694 28.0267 99.3126 27.872 100.049 27.872V29.28H99.6806C99.2113 29.28 98.7793 29.3653 98.3846 29.536C97.99 29.696 97.6753 29.9733 97.4406 30.368C97.206 30.7627 97.0886 31.3067 97.0886 32V36H95.7446ZM104.908 36.192C104.151 36.192 103.468 36.0213 102.86 35.68C102.263 35.328 101.788 34.8427 101.436 34.224C101.095 33.5947 100.924 32.864 100.924 32.032C100.924 31.2 101.095 30.4747 101.436 29.856C101.788 29.2267 102.263 28.7413 102.86 28.4C103.468 28.048 104.151 27.872 104.908 27.872C105.847 27.872 106.636 28.1173 107.276 28.608C107.927 29.0987 108.338 29.7547 108.508 30.576H107.132C107.026 30.0853 106.764 29.7067 106.348 29.44C105.932 29.1627 105.447 29.024 104.892 29.024C104.444 29.024 104.023 29.136 103.628 29.36C103.234 29.584 102.914 29.92 102.668 30.368C102.423 30.816 102.3 31.3707 102.3 32.032C102.3 32.6933 102.423 33.248 102.668 33.696C102.914 34.144 103.234 34.4853 103.628 34.72C104.023 34.944 104.444 35.056 104.892 35.056C105.447 35.056 105.932 34.9227 106.348 34.656C106.764 34.3787 107.026 33.9893 107.132 33.488H108.508C108.348 34.288 107.943 34.9387 107.292 35.44C106.642 35.9413 105.847 36.192 104.908 36.192ZM111.201 26.304C110.935 26.304 110.711 26.2187 110.529 26.048C110.359 25.8667 110.273 25.6427 110.273 25.376C110.273 25.12 110.359 24.9067 110.529 24.736C110.711 24.5653 110.935 24.48 111.201 24.48C111.457 24.48 111.676 24.5653 111.857 24.736C112.039 24.9067 112.129 25.12 112.129 25.376C112.129 25.6427 112.039 25.8667 111.857 26.048C111.676 26.2187 111.457 26.304 111.201 26.304ZM110.529 36V28.064H111.873V36H110.529ZM114.213 39.52V28.064H115.429L115.557 29.376C115.813 28.992 116.176 28.6453 116.645 28.336C117.125 28.0267 117.733 27.872 118.469 27.872C119.259 27.872 119.947 28.0533 120.533 28.416C121.12 28.7787 121.573 29.2747 121.893 29.904C122.224 30.5333 122.389 31.248 122.389 32.048C122.389 32.848 122.224 33.5627 121.893 34.192C121.573 34.8107 121.115 35.3013 120.517 35.664C119.931 36.016 119.243 36.192 118.453 36.192C117.803 36.192 117.221 36.0587 116.709 35.792C116.208 35.5253 115.824 35.152 115.557 34.672V39.52H114.213ZM118.309 35.024C118.843 35.024 119.312 34.9013 119.717 34.656C120.123 34.4 120.443 34.048 120.677 33.6C120.912 33.152 121.029 32.6293 121.029 32.032C121.029 31.4347 120.912 30.912 120.677 30.464C120.443 30.016 120.123 29.6693 119.717 29.424C119.312 29.168 118.843 29.04 118.309 29.04C117.776 29.04 117.307 29.168 116.901 29.424C116.496 29.6693 116.176 30.016 115.941 30.464C115.707 30.912 115.589 31.4347 115.589 32.032C115.589 32.6293 115.707 33.152 115.941 33.6C116.176 34.048 116.496 34.4 116.901 34.656C117.307 34.9013 117.776 35.024 118.309 35.024ZM125.076 26.304C124.81 26.304 124.586 26.2187 124.404 26.048C124.234 25.8667 124.148 25.6427 124.148 25.376C124.148 25.12 124.234 24.9067 124.404 24.736C124.586 24.5653 124.81 24.48 125.076 24.48C125.332 24.48 125.551 24.5653 125.732 24.736C125.914 24.9067 126.004 25.12 126.004 25.376C126.004 25.6427 125.914 25.8667 125.732 26.048C125.551 26.2187 125.332 26.304 125.076 26.304ZM124.404 36V28.064H125.748V36H124.404ZM131.224 36C130.499 36 129.928 35.824 129.512 35.472C129.096 35.12 128.888 34.4853 128.888 33.568V29.2H127.512V28.064H128.888L129.064 26.16H130.232V28.064H132.568V29.2H130.232V33.568C130.232 34.0693 130.334 34.4107 130.536 34.592C130.739 34.7627 131.096 34.848 131.608 34.848H132.44V36H131.224ZM138.942 36V29.2H137.742V28.064H138.942V26.688C138.942 25.92 139.134 25.36 139.518 25.008C139.902 24.656 140.462 24.48 141.198 24.48H141.998V25.632H141.406C141.001 25.632 140.713 25.7173 140.542 25.888C140.372 26.048 140.286 26.3253 140.286 26.72V28.064H142.238V29.2H140.286V36H138.942ZM147.142 36.192C146.395 36.192 145.723 36.0213 145.126 35.68C144.529 35.3387 144.054 34.8587 143.702 34.24C143.361 33.6107 143.19 32.8747 143.19 32.032C143.19 31.1893 143.366 30.4587 143.718 29.84C144.07 29.2107 144.545 28.7253 145.142 28.384C145.75 28.0427 146.427 27.872 147.174 27.872C147.921 27.872 148.593 28.0427 149.19 28.384C149.787 28.7253 150.257 29.2107 150.598 29.84C150.95 30.4587 151.126 31.1893 151.126 32.032C151.126 32.8747 150.95 33.6107 150.598 34.24C150.246 34.8587 149.766 35.3387 149.158 35.68C148.561 36.0213 147.889 36.192 147.142 36.192ZM147.142 35.04C147.601 35.04 148.027 34.928 148.422 34.704C148.817 34.48 149.137 34.144 149.382 33.696C149.627 33.248 149.75 32.6933 149.75 32.032C149.75 31.3707 149.627 30.816 149.382 30.368C149.147 29.92 148.833 29.584 148.438 29.36C148.043 29.136 147.622 29.024 147.174 29.024C146.715 29.024 146.289 29.136 145.894 29.36C145.499 29.584 145.179 29.92 144.934 30.368C144.689 30.816 144.566 31.3707 144.566 32.032C144.566 32.6933 144.689 33.248 144.934 33.696C145.179 34.144 145.494 34.48 145.878 34.704C146.273 34.928 146.694 35.04 147.142 35.04ZM152.995 36V28.064H154.211L154.323 29.584C154.568 29.0613 154.941 28.6453 155.443 28.336C155.944 28.0267 156.563 27.872 157.299 27.872V29.28H156.931C156.461 29.28 156.029 29.3653 155.635 29.536C155.24 29.696 154.925 29.9733 154.691 30.368C154.456 30.7627 154.339 31.3067 154.339 32V36H152.995ZM162.078 36.192C161.321 36.192 160.649 36.0213 160.062 35.68C159.476 35.328 159.012 34.8427 158.67 34.224C158.34 33.6053 158.174 32.8747 158.174 32.032C158.174 31.2 158.34 30.4747 158.67 29.856C159.001 29.2267 159.46 28.7413 160.046 28.4C160.644 28.048 161.332 27.872 162.11 27.872C162.878 27.872 163.54 28.048 164.094 28.4C164.66 28.7413 165.092 29.1947 165.39 29.76C165.689 30.3253 165.838 30.9333 165.838 31.584C165.838 31.7013 165.833 31.8187 165.822 31.936C165.822 32.0533 165.822 32.1867 165.822 32.336H159.502C159.534 32.944 159.673 33.4507 159.918 33.856C160.174 34.2507 160.489 34.5493 160.862 34.752C161.246 34.9547 161.652 35.056 162.078 35.056C162.633 35.056 163.097 34.928 163.47 34.672C163.844 34.416 164.116 34.0693 164.286 33.632H165.614C165.401 34.368 164.99 34.9813 164.382 35.472C163.785 35.952 163.017 36.192 162.078 36.192ZM162.078 29.008C161.438 29.008 160.868 29.2053 160.366 29.6C159.876 29.984 159.593 30.5493 159.518 31.296H164.51C164.478 30.5813 164.233 30.0213 163.774 29.616C163.316 29.2107 162.75 29.008 162.078 29.008ZM167.62 36V28.064H168.836L168.916 29.488C169.172 28.9867 169.54 28.592 170.02 28.304C170.5 28.016 171.044 27.872 171.652 27.872C172.59 27.872 173.337 28.16 173.892 28.736C174.457 29.3013 174.74 30.176 174.74 31.36V36H173.396V31.504C173.396 29.8507 172.713 29.024 171.348 29.024C170.665 29.024 170.094 29.2747 169.636 29.776C169.188 30.2667 168.964 30.9707 168.964 31.888V36H167.62ZM179.816 36.192C178.867 36.192 178.077 35.952 177.448 35.472C176.819 34.992 176.451 34.3413 176.344 33.52H177.72C177.805 33.936 178.024 34.2987 178.376 34.608C178.739 34.9067 179.224 35.056 179.832 35.056C180.397 35.056 180.813 34.9387 181.08 34.704C181.347 34.4587 181.48 34.1707 181.48 33.84C181.48 33.36 181.304 33.04 180.952 32.88C180.611 32.72 180.125 32.576 179.496 32.448C179.069 32.3627 178.643 32.24 178.216 32.08C177.789 31.92 177.432 31.696 177.144 31.408C176.856 31.1093 176.712 30.72 176.712 30.24C176.712 29.5467 176.968 28.9813 177.48 28.544C178.003 28.096 178.707 27.872 179.592 27.872C180.435 27.872 181.123 28.0853 181.656 28.512C182.2 28.928 182.515 29.5253 182.6 30.304H181.272C181.219 29.8987 181.043 29.584 180.744 29.36C180.456 29.1253 180.067 29.008 179.576 29.008C179.096 29.008 178.723 29.1093 178.456 29.312C178.2 29.5147 178.072 29.7813 178.072 30.112C178.072 30.432 178.237 30.6827 178.568 30.864C178.909 31.0453 179.368 31.2 179.944 31.328C180.435 31.4347 180.899 31.568 181.336 31.728C181.784 31.8773 182.147 32.1067 182.424 32.416C182.712 32.7147 182.856 33.152 182.856 33.728C182.867 34.4427 182.595 35.0347 182.04 35.504C181.496 35.9627 180.755 36.192 179.816 36.192ZM185.592 26.304C185.325 26.304 185.101 26.2187 184.92 26.048C184.749 25.8667 184.664 25.6427 184.664 25.376C184.664 25.12 184.749 24.9067 184.92 24.736C185.101 24.5653 185.325 24.48 185.592 24.48C185.848 24.48 186.067 24.5653 186.248 24.736C186.429 24.9067 186.52 25.12 186.52 25.376C186.52 25.6427 186.429 25.8667 186.248 26.048C186.067 26.2187 185.848 26.304 185.592 26.304ZM184.92 36V28.064H186.264V36H184.92ZM192.844 36.192C192.193 36.192 191.612 36.0587 191.1 35.792C190.599 35.5253 190.215 35.152 189.948 34.672L189.82 36H188.604V24.48H189.948V29.376C190.204 28.992 190.567 28.6453 191.036 28.336C191.516 28.0267 192.124 27.872 192.86 27.872C193.649 27.872 194.337 28.0533 194.924 28.416C195.511 28.7787 195.964 29.2747 196.284 29.904C196.615 30.5333 196.78 31.248 196.78 32.048C196.78 32.848 196.615 33.5627 196.284 34.192C195.964 34.8107 195.505 35.3013 194.908 35.664C194.321 36.016 193.633 36.192 192.844 36.192ZM192.7 35.024C193.233 35.024 193.703 34.9013 194.108 34.656C194.513 34.4 194.833 34.048 195.068 33.6C195.303 33.152 195.42 32.6293 195.42 32.032C195.42 31.4347 195.303 30.912 195.068 30.464C194.833 30.016 194.513 29.6693 194.108 29.424C193.703 29.168 193.233 29.04 192.7 29.04C192.167 29.04 191.697 29.168 191.292 29.424C190.887 29.6693 190.567 30.016 190.332 30.464C190.097 30.912 189.98 31.4347 189.98 32.032C189.98 32.6293 190.097 33.152 190.332 33.6C190.567 34.048 190.887 34.4 191.292 34.656C191.697 34.9013 192.167 35.024 192.7 35.024ZM205.595 28.064V36H204.379L204.299 34.576C204.043 35.0773 203.675 35.472 203.195 35.76C202.715 36.048 202.171 36.192 201.563 36.192C200.624 36.192 199.872 35.9093 199.307 35.344C198.752 34.768 198.475 33.888 198.475 32.704V28.064H199.819V32.56C199.819 34.2133 200.502 35.04 201.867 35.04C202.55 35.04 203.115 34.7947 203.563 34.304C204.022 33.8027 204.251 33.0933 204.251 32.176V28.064H205.595ZM210.847 36.192C209.898 36.192 209.108 35.952 208.479 35.472C207.85 34.992 207.482 34.3413 207.375 33.52H208.751C208.836 33.936 209.055 34.2987 209.407 34.608C209.77 34.9067 210.255 35.056 210.863 35.056C211.428 35.056 211.844 34.9387 212.111 34.704C212.378 34.4587 212.511 34.1707 212.511 33.84C212.511 33.36 212.335 33.04 211.983 32.88C211.642 32.72 211.156 32.576 210.527 32.448C210.1 32.3627 209.674 32.24 209.247 32.08C208.82 31.92 208.463 31.696 208.175 31.408C207.887 31.1093 207.743 30.72 207.743 30.24C207.743 29.5467 207.999 28.9813 208.511 28.544C209.034 28.096 209.738 27.872 210.623 27.872C211.466 27.872 212.154 28.0853 212.687 28.512C213.231 28.928 213.546 29.5253 213.631 30.304H212.303C212.25 29.8987 212.074 29.584 211.775 29.36C211.487 29.1253 211.098 29.008 210.607 29.008C210.127 29.008 209.754 29.1093 209.487 29.312C209.231 29.5147 209.103 29.7813 209.103 30.112C209.103 30.432 209.268 30.6827 209.599 30.864C209.94 31.0453 210.399 31.2 210.975 31.328C211.466 31.4347 211.93 31.568 212.367 31.728C212.815 31.8773 213.178 32.1067 213.455 32.416C213.743 32.7147 213.887 33.152 213.887 33.728C213.898 34.4427 213.626 35.0347 213.071 35.504C212.527 35.9627 211.786 36.192 210.847 36.192Z" fill="black" fill-opacity="0.5"/>
</svg>
