<svg width="467" height="53" viewBox="0 0 467 53" fill="none" xmlns="http://www.w3.org/2000/svg">
<path d="M16.2595 40.168L4.27547 6.792C4.01414 6.04533 3.65947 5.46667 3.21147 5.056C2.8008 4.608 2.22214 4.272 1.47547 4.048L0.131469 3.6V3.04H16.2595V3.6L14.5235 4.104C13.6648 4.328 13.1795 4.72 13.0675 5.28C12.9928 5.84 13.0861 6.53067 13.3475 7.352L21.6355 31.936L29.9795 7.296C30.2781 6.43733 30.4088 5.728 30.3715 5.168C30.3715 4.608 29.9421 4.216 29.0835 3.992L27.6275 3.6V3.04H35.4675V3.6L33.9555 4.048C33.2461 4.23467 32.7421 4.57067 32.4435 5.056C32.1448 5.504 31.8648 6.10133 31.6035 6.848L20.4035 40.168H16.2595ZM41.5548 9.312C40.2855 9.312 39.2028 8.92 38.3068 8.136C37.4482 7.31467 37.0188 6.288 37.0188 5.056C37.0188 3.78666 37.4482 2.76 38.3068 1.976C39.2028 1.192 40.2855 0.799997 41.5548 0.799997C42.8242 0.799997 43.8882 1.192 44.7468 1.976C45.6055 2.76 46.0348 3.78666 46.0348 5.056C46.0348 6.288 45.6055 7.31467 44.7468 8.136C43.8882 8.92 42.8242 9.312 41.5548 9.312ZM34.9468 40V39.44L35.7308 39.216C36.4775 38.992 36.9815 38.656 37.2428 38.208C37.5415 37.76 37.6908 37.1627 37.6908 36.416V18.888C37.6908 18.104 37.5415 17.5253 37.2428 17.152C36.9815 16.7413 36.4775 16.4613 35.7308 16.312L34.9468 16.144V15.584L45.1948 12.28L45.7548 12.84L45.5868 20.792V36.472C45.5868 37.2187 45.7175 37.816 45.9788 38.264C46.2775 38.712 46.7815 39.048 47.4908 39.272L48.0508 39.44V40H34.9468ZM62.582 40.168L52.67 16.368C52.1473 15.0987 51.2513 14.2587 49.982 13.848L49.198 13.624V13.064H63.702V13.624L62.694 13.848C61.238 14.2213 60.79 15.192 61.35 16.76L67.23 32.384L72.718 16.872C73.0166 16.1253 73.0913 15.5093 72.942 15.024C72.7926 14.5387 72.3446 14.184 71.598 13.96L70.198 13.624V13.064H78.318V13.624L76.694 14.016C75.9846 14.2027 75.4246 14.4827 75.014 14.856C74.6406 15.2293 74.3233 15.7893 74.062 16.536L65.83 40.168H62.582ZM92.3127 12.224C94.7394 12.224 96.8114 12.728 98.5287 13.736C100.246 14.7067 101.553 16.0507 102.449 17.768C103.382 19.448 103.849 21.3707 103.849 23.536C103.849 23.9467 103.83 24.376 103.793 24.824C103.755 25.2347 103.681 25.608 103.569 25.944H86.8807C86.9181 29.976 87.6274 32.888 89.0087 34.68C90.4274 36.4347 92.5181 37.312 95.2807 37.312C97.1474 37.312 98.6594 37.0133 99.8167 36.416C100.974 35.8187 102.057 34.9413 103.065 33.784L103.625 34.288C102.467 36.3413 100.918 37.9467 98.9767 39.104C97.0727 40.2613 94.7767 40.84 92.0887 40.84C89.4381 40.84 87.0861 40.28 85.0327 39.16C82.9794 38.0027 81.3741 36.36 80.2167 34.232C79.0594 32.104 78.4807 29.5653 78.4807 26.616C78.4807 23.5547 79.1527 20.96 80.4967 18.832C81.8407 16.6667 83.5581 15.024 85.6487 13.904C87.7767 12.784 89.9981 12.224 92.3127 12.224ZM92.1447 13.344C91.0621 13.344 90.1287 13.68 89.3447 14.352C88.5981 14.9867 88.0007 16.144 87.5527 17.824C87.1421 19.4667 86.9181 21.8 86.8807 24.824H96.4567C96.8301 20.7547 96.6807 17.824 96.0087 16.032C95.3367 14.24 94.0487 13.344 92.1447 13.344ZM106.64 40V39.44L107.424 39.216C108.73 38.8427 109.384 37.928 109.384 36.472V18.944C109.384 18.1227 109.253 17.5253 108.992 17.152C108.73 16.7413 108.226 16.4613 107.48 16.312L106.64 16.088V15.528L116.216 12.28L116.776 12.84L117.224 16.2C118.53 15.0427 120.005 14.0907 121.648 13.344C123.29 12.5973 124.914 12.224 126.52 12.224C128.984 12.224 130.869 12.896 132.176 14.24C133.52 15.584 134.192 17.6373 134.192 20.4V36.528C134.192 37.984 134.901 38.8987 136.32 39.272L136.824 39.44V40H123.608V39.44L124.336 39.216C125.642 38.8053 126.296 37.8907 126.296 36.472V18.608C126.296 16.2187 125.101 15.024 122.712 15.024C121.069 15.024 119.277 15.8453 117.336 17.488V36.528C117.336 37.984 117.989 38.8987 119.296 39.272L119.8 39.44V40H106.64ZM150.887 40.84C148.684 40.84 146.705 40.3547 144.951 39.384C143.196 38.376 141.796 36.8453 140.751 34.792C139.743 32.7013 139.239 30.032 139.239 26.784C139.239 23.4987 139.817 20.792 140.975 18.664C142.132 16.4987 143.663 14.8933 145.567 13.848C147.471 12.7653 149.543 12.224 151.783 12.224C153.089 12.224 154.34 12.3547 155.535 12.616C156.729 12.8773 157.793 13.2693 158.727 13.792V6.512C158.727 5.728 158.596 5.14933 158.335 4.776C158.111 4.40266 157.607 4.14133 156.823 3.992L155.759 3.768V3.208L165.951 0.743998L166.567 1.248L166.343 9.088V36.472C166.343 37.2187 166.473 37.8347 166.735 38.32C166.996 38.768 167.481 39.0853 168.191 39.272L168.695 39.44V40L159.119 40.616L158.615 38.6C157.607 39.272 156.449 39.8133 155.143 40.224C153.873 40.6347 152.455 40.84 150.887 40.84ZM154.135 38.768C155.703 38.768 157.14 38.3013 158.447 37.368V15.136C157.065 14.24 155.647 13.792 154.191 13.792C152.399 13.792 150.868 14.8373 149.599 16.928C148.329 18.9813 147.695 22.2293 147.695 26.672C147.695 31.1147 148.292 34.2507 149.487 36.08C150.681 37.872 152.231 38.768 154.135 38.768ZM185.339 40.84C182.501 40.84 180.037 40.2613 177.947 39.104C175.856 37.9093 174.232 36.2293 173.075 34.064C171.955 31.8987 171.395 29.36 171.395 26.448C171.395 23.536 171.992 21.016 173.187 18.888C174.419 16.76 176.08 15.1173 178.171 13.96C180.299 12.8027 182.688 12.224 185.339 12.224C187.989 12.224 190.36 12.8027 192.451 13.96C194.541 15.08 196.184 16.704 197.379 18.832C198.611 20.96 199.227 23.4987 199.227 26.448C199.227 29.3973 198.648 31.9547 197.491 34.12C196.371 36.248 194.765 37.9093 192.675 39.104C190.621 40.2613 188.176 40.84 185.339 40.84ZM185.339 39.72C186.645 39.72 187.691 39.3467 188.475 38.6C189.259 37.8533 189.819 36.528 190.155 34.624C190.528 32.72 190.715 30.032 190.715 26.56C190.715 23.0507 190.528 20.344 190.155 18.44C189.819 16.536 189.259 15.2107 188.475 14.464C187.691 13.7173 186.645 13.344 185.339 13.344C184.032 13.344 182.968 13.7173 182.147 14.464C181.363 15.2107 180.784 16.536 180.411 18.44C180.075 20.344 179.907 23.0507 179.907 26.56C179.907 30.032 180.075 32.72 180.411 34.624C180.784 36.528 181.363 37.8533 182.147 38.6C182.968 39.3467 184.032 39.72 185.339 39.72ZM228.05 40.84C225.212 40.84 222.748 40.2613 220.658 39.104C218.567 37.9093 216.943 36.2293 215.786 34.064C214.666 31.8987 214.106 29.36 214.106 26.448C214.106 23.536 214.703 21.016 215.898 18.888C217.13 16.76 218.791 15.1173 220.882 13.96C223.01 12.8027 225.399 12.224 228.05 12.224C230.7 12.224 233.071 12.8027 235.162 13.96C237.252 15.08 238.895 16.704 240.09 18.832C241.322 20.96 241.938 23.4987 241.938 26.448C241.938 29.3973 241.359 31.9547 240.202 34.12C239.082 36.248 237.476 37.9093 235.386 39.104C233.332 40.2613 230.887 40.84 228.05 40.84ZM228.05 39.72C229.356 39.72 230.402 39.3467 231.186 38.6C231.97 37.8533 232.53 36.528 232.866 34.624C233.239 32.72 233.426 30.032 233.426 26.56C233.426 23.0507 233.239 20.344 232.866 18.44C232.53 16.536 231.97 15.2107 231.186 14.464C230.402 13.7173 229.356 13.344 228.05 13.344C226.743 13.344 225.679 13.7173 224.858 14.464C224.074 15.2107 223.495 16.536 223.122 18.44C222.786 20.344 222.618 23.0507 222.618 26.56C222.618 30.032 222.786 32.72 223.122 34.624C223.495 36.528 224.074 37.8533 224.858 38.6C225.679 39.3467 226.743 39.72 228.05 39.72ZM244.397 40V39.44L245.181 39.216C245.891 39.0293 246.376 38.712 246.637 38.264C246.936 37.816 247.104 37.2187 247.141 36.472V18.944C247.141 18.1227 247.011 17.5253 246.749 17.152C246.488 16.7413 245.984 16.4613 245.237 16.312L244.397 16.088V15.528L253.973 12.28L254.533 12.84L254.981 16.648C256.213 15.416 257.613 14.3707 259.181 13.512C260.787 12.6533 262.448 12.224 264.165 12.224C265.957 12.224 267.395 12.5973 268.477 13.344C269.56 14.0533 270.381 15.1733 270.941 16.704C272.397 15.3227 273.965 14.24 275.645 13.456C277.363 12.6347 279.024 12.224 280.629 12.224C283.28 12.224 285.221 12.8587 286.453 14.128C287.723 15.3973 288.357 17.3947 288.357 20.12V36.528C288.357 37.984 289.029 38.8987 290.373 39.272L290.989 39.44V40H278.053V39.44L278.613 39.272C279.323 39.048 279.808 38.712 280.069 38.264C280.368 37.816 280.517 37.2187 280.517 36.472V19.336C280.517 17.768 280.237 16.704 279.677 16.144C279.117 15.5467 278.221 15.248 276.989 15.248C276.019 15.248 275.067 15.472 274.133 15.92C273.237 16.3307 272.285 16.9653 271.277 17.824C271.464 18.4213 271.576 19.0747 271.613 19.784C271.688 20.4933 271.725 21.24 271.725 22.024V36.528C271.763 37.984 272.435 38.8987 273.741 39.272L274.245 39.44V40H261.253V39.44L262.037 39.216C262.747 38.992 263.232 38.6747 263.493 38.264C263.792 37.816 263.941 37.2187 263.941 36.472V19.392C263.941 17.8987 263.661 16.8347 263.101 16.2C262.579 15.5653 261.664 15.248 260.357 15.248C259.499 15.248 258.64 15.472 257.781 15.92C256.923 16.3307 256.027 16.9467 255.093 17.768V36.528C255.093 37.984 255.747 38.8987 257.053 39.272L257.557 39.44V40H244.397ZM293.179 40V39.44L293.963 39.216C295.269 38.8427 295.923 37.928 295.923 36.472V18.944C295.923 18.1227 295.792 17.5253 295.531 17.152C295.269 16.7413 294.765 16.4613 294.019 16.312L293.179 16.088V15.528L302.755 12.28L303.315 12.84L303.763 16.2C305.069 15.0427 306.544 14.0907 308.187 13.344C309.829 12.5973 311.453 12.224 313.059 12.224C315.523 12.224 317.408 12.896 318.715 14.24C320.059 15.584 320.731 17.6373 320.731 20.4V36.528C320.731 37.984 321.44 38.8987 322.859 39.272L323.363 39.44V40H310.147V39.44L310.875 39.216C312.181 38.8053 312.835 37.8907 312.835 36.472V18.608C312.835 16.2187 311.64 15.024 309.251 15.024C307.608 15.024 305.816 15.8453 303.875 17.488V36.528C303.875 37.984 304.528 38.8987 305.835 39.272L306.339 39.44V40H293.179ZM339.61 12.224C342.036 12.224 344.108 12.728 345.826 13.736C347.543 14.7067 348.85 16.0507 349.746 17.768C350.679 19.448 351.146 21.3707 351.146 23.536C351.146 23.9467 351.127 24.376 351.09 24.824C351.052 25.2347 350.978 25.608 350.866 25.944H334.178C334.215 29.976 334.924 32.888 336.306 34.68C337.724 36.4347 339.815 37.312 342.578 37.312C344.444 37.312 345.956 37.0133 347.114 36.416C348.271 35.8187 349.354 34.9413 350.362 33.784L350.922 34.288C349.764 36.3413 348.215 37.9467 346.274 39.104C344.37 40.2613 342.074 40.84 339.386 40.84C336.735 40.84 334.383 40.28 332.33 39.16C330.276 38.0027 328.671 36.36 327.514 34.232C326.356 32.104 325.778 29.5653 325.778 26.616C325.778 23.5547 326.45 20.96 327.794 18.832C329.138 16.6667 330.855 15.024 332.946 13.904C335.074 12.784 337.295 12.224 339.61 12.224ZM339.442 13.344C338.359 13.344 337.426 13.68 336.642 14.352C335.895 14.9867 335.298 16.144 334.85 17.824C334.439 19.4667 334.215 21.8 334.178 24.824H343.754C344.127 20.7547 343.978 17.824 343.306 16.032C342.634 14.24 341.346 13.344 339.442 13.344ZM363.624 40.84C361.795 40.84 360.152 40.616 358.696 40.168C357.24 39.7573 355.896 39.2347 354.664 38.6L354.72 31.936H355.28L357.184 35.296C358.006 36.7893 358.902 37.9093 359.872 38.656C360.88 39.3653 362.15 39.72 363.68 39.72C365.472 39.72 366.91 39.328 367.992 38.544C369.112 37.7227 369.672 36.64 369.672 35.296C369.672 34.064 369.28 33.056 368.496 32.272C367.712 31.488 366.256 30.7787 364.128 30.144L361.776 29.416C359.499 28.744 357.707 27.6987 356.4 26.28C355.094 24.8613 354.44 23.1253 354.44 21.072C354.44 18.608 355.411 16.5173 357.352 14.8C359.294 13.0827 362.075 12.224 365.696 12.224C367.152 12.224 368.515 12.392 369.784 12.728C371.091 13.0267 372.342 13.4933 373.536 14.128L373.2 20.176H372.64L370.68 16.704C369.971 15.472 369.262 14.6133 368.552 14.128C367.88 13.6053 366.854 13.344 365.472 13.344C364.203 13.344 363.008 13.6987 361.888 14.408C360.768 15.1173 360.208 16.1253 360.208 17.432C360.208 18.7013 360.675 19.7093 361.608 20.456C362.579 21.2027 363.998 21.8933 365.864 22.528L368.384 23.256C371.072 24.0773 372.995 25.216 374.152 26.672C375.31 28.0907 375.888 29.808 375.888 31.824C375.888 34.5493 374.806 36.7333 372.64 38.376C370.512 40.0187 367.507 40.84 363.624 40.84ZM394.679 52.88V52.32L395.855 52.04C397.274 51.6293 397.983 50.696 397.983 49.24V38.096C396.9 38.9173 395.65 39.5707 394.231 40.056C392.85 40.5787 391.3 40.84 389.583 40.84C386.41 40.84 383.778 39.6453 381.687 37.256C379.596 34.8667 378.551 31.3947 378.551 26.84C378.551 23.704 379.074 21.0533 380.119 18.888C381.164 16.7227 382.602 15.08 384.431 13.96C386.298 12.8027 388.444 12.224 390.871 12.224C392.514 12.224 394.007 12.4667 395.351 12.952C396.732 13.4373 397.946 14.0533 398.991 14.8L405.375 12.224L405.935 12.784L405.767 20.344V49.408C405.767 50.9387 406.439 51.8533 407.783 52.152L408.287 52.32V52.88H394.679ZM393.279 38.6C394.847 38.6 396.359 38.0027 397.815 36.808V15.528C397.18 15.1173 396.527 14.8187 395.855 14.632C395.183 14.4453 394.38 14.352 393.447 14.352C391.468 14.352 389.9 15.3227 388.743 17.264C387.586 19.168 387.007 22.3227 387.007 26.728C387.007 31.0213 387.567 34.0827 388.687 35.912C389.807 37.704 391.338 38.6 393.279 38.6ZM419.963 40.84C418.507 40.84 417.163 40.56 415.931 40C414.736 39.44 413.784 38.544 413.075 37.312C412.403 36.0427 412.086 34.3813 412.123 32.328L412.291 17.936C412.291 17.0773 412.142 16.4613 411.843 16.088C411.544 15.7147 411.078 15.4533 410.443 15.304L409.771 15.08V14.52L419.795 12.56L420.355 13.12L420.075 21.072V34.568C420.075 35.7627 420.411 36.64 421.083 37.2C421.792 37.76 422.67 38.04 423.715 38.04C424.76 38.04 425.694 37.8907 426.515 37.592C427.336 37.2933 428.158 36.8453 428.979 36.248L429.203 17.992C429.203 17.1333 429.072 16.536 428.811 16.2C428.55 15.8267 428.064 15.5653 427.355 15.416L426.795 15.248V14.688L436.595 12.56L437.155 13.12L436.987 21.072V36.248C436.987 37.0693 437.099 37.704 437.323 38.152C437.547 38.6 438.032 38.9733 438.779 39.272L439.339 39.44V40L429.539 40.56L429.035 37.256C427.803 38.264 426.459 39.1227 425.003 39.832C423.584 40.504 421.904 40.84 419.963 40.84ZM455.438 12.224C457.864 12.224 459.936 12.728 461.654 13.736C463.371 14.7067 464.678 16.0507 465.574 17.768C466.507 19.448 466.974 21.3707 466.974 23.536C466.974 23.9467 466.955 24.376 466.918 24.824C466.88 25.2347 466.806 25.608 466.694 25.944H450.006C450.043 29.976 450.752 32.888 452.134 34.68C453.552 36.4347 455.643 37.312 458.406 37.312C460.272 37.312 461.784 37.0133 462.942 36.416C464.099 35.8187 465.182 34.9413 466.19 33.784L466.75 34.288C465.592 36.3413 464.043 37.9467 462.102 39.104C460.198 40.2613 457.902 40.84 455.214 40.84C452.563 40.84 450.211 40.28 448.158 39.16C446.104 38.0027 444.499 36.36 443.342 34.232C442.184 32.104 441.606 29.5653 441.606 26.616C441.606 23.5547 442.278 20.96 443.622 18.832C444.966 16.6667 446.683 15.024 448.774 13.904C450.902 12.784 453.123 12.224 455.438 12.224ZM455.27 13.344C454.187 13.344 453.254 13.68 452.47 14.352C451.723 14.9867 451.126 16.144 450.678 17.824C450.267 19.4667 450.043 21.8 450.006 24.824H459.582C459.955 20.7547 459.806 17.824 459.134 16.032C458.462 14.24 457.174 13.344 455.27 13.344Z" fill="black"/>
</svg>
