<svg width="66" height="15" viewBox="0 0 66 15" fill="none" xmlns="http://www.w3.org/2000/svg">
<path d="M6.272 12.192C5.17333 12.192 4.208 11.952 3.376 11.472C2.55467 10.9813 1.90933 10.2987 1.44 9.424C0.981333 8.54933 0.752 7.54133 0.752 6.4C0.752 5.25867 0.981333 4.256 1.44 3.392C1.90933 2.51733 2.55467 1.83467 3.376 1.344C4.208 0.853333 5.17333 0.608 6.272 0.608C7.38133 0.608 8.34667 0.853333 9.168 1.344C10 1.83467 10.6453 2.51733 11.104 3.392C11.5627 4.256 11.792 5.25867 11.792 6.4C11.792 7.54133 11.5627 8.54933 11.104 9.424C10.6453 10.288 10.016 10.96 9.216 11.44L12.048 14.16H10.304L8.032 11.952C7.488 12.112 6.90133 12.192 6.272 12.192ZM6.272 11.008C7.09333 11.008 7.81333 10.8267 8.432 10.464C9.06133 10.0907 9.54667 9.56267 9.888 8.88C10.24 8.18667 10.416 7.36 10.416 6.4C10.416 5.44 10.24 4.61867 9.888 3.936C9.54667 3.25333 9.06133 2.73067 8.432 2.368C7.81333 1.99467 7.09333 1.808 6.272 1.808C5.45067 1.808 4.72533 1.99467 4.096 2.368C3.47733 2.73067 2.992 3.25333 2.64 3.936C2.29867 4.61867 2.128 5.44 2.128 6.4C2.128 7.36 2.29867 8.18667 2.64 8.88C2.992 9.56267 3.47733 10.0907 4.096 10.464C4.72533 10.8267 5.45067 11.008 6.272 11.008ZM20.7199 4.064V12H19.5039L19.4239 10.576C19.1679 11.0773 18.7999 11.472 18.3199 11.76C17.8399 12.048 17.2959 12.192 16.6879 12.192C15.7492 12.192 14.9972 11.9093 14.4319 11.344C13.8772 10.768 13.5999 9.888 13.5999 8.704V4.064H14.9439V8.56C14.9439 10.2133 15.6265 11.04 16.9919 11.04C17.6745 11.04 18.2399 10.7947 18.6879 10.304C19.1465 9.80267 19.3759 9.09333 19.3759 8.176V4.064H20.7199ZM25.5721 12.192C24.9108 12.192 24.3615 12.08 23.9241 11.856C23.4868 11.632 23.1615 11.3333 22.9481 10.96C22.7348 10.5867 22.6281 10.1813 22.6281 9.744C22.6281 8.93333 22.9375 8.30933 23.5561 7.872C24.1748 7.43467 25.0175 7.216 26.0841 7.216H28.2281V7.12C28.2281 6.42667 28.0468 5.904 27.6841 5.552C27.3215 5.18933 26.8361 5.008 26.2281 5.008C25.7055 5.008 25.2521 5.14133 24.8681 5.408C24.4948 5.664 24.2601 6.04267 24.1641 6.544H22.7881C22.8415 5.968 23.0335 5.48267 23.3641 5.088C23.7055 4.69333 24.1268 4.39467 24.6281 4.192C25.1295 3.97867 25.6628 3.872 26.2281 3.872C27.3375 3.872 28.1695 4.17067 28.7241 4.768C29.2895 5.35467 29.5721 6.13867 29.5721 7.12V12H28.3721L28.2921 10.576C28.0681 11.024 27.7375 11.408 27.3001 11.728C26.8735 12.0373 26.2975 12.192 25.5721 12.192ZM25.7801 11.056C26.2921 11.056 26.7295 10.9227 27.0921 10.656C27.4655 10.3893 27.7481 10.0427 27.9401 9.616C28.1321 9.18933 28.2281 8.74133 28.2281 8.272V8.256H26.1961C25.4068 8.256 24.8468 8.39467 24.5161 8.672C24.1961 8.93867 24.0361 9.27467 24.0361 9.68C24.0361 10.096 24.1855 10.432 24.4841 10.688C24.7935 10.9333 25.2255 11.056 25.7801 11.056ZM35.1564 12.192C34.399 12.192 33.727 12.0213 33.1404 11.68C32.5537 11.328 32.0897 10.8427 31.7484 10.224C31.4177 9.60533 31.2524 8.87467 31.2524 8.032C31.2524 7.2 31.4177 6.47467 31.7484 5.856C32.079 5.22667 32.5377 4.74133 33.1244 4.4C33.7217 4.048 34.4097 3.872 35.1884 3.872C35.9564 3.872 36.6177 4.048 37.1724 4.4C37.7377 4.74133 38.1697 5.19467 38.4684 5.76C38.767 6.32533 38.9164 6.93333 38.9164 7.584C38.9164 7.70133 38.911 7.81867 38.9004 7.936C38.9004 8.05333 38.9004 8.18667 38.9004 8.336H32.5804C32.6124 8.944 32.751 9.45067 32.9964 9.856C33.2524 10.2507 33.567 10.5493 33.9404 10.752C34.3244 10.9547 34.7297 11.056 35.1564 11.056C35.711 11.056 36.175 10.928 36.5484 10.672C36.9217 10.416 37.1937 10.0693 37.3644 9.632H38.6924C38.479 10.368 38.0684 10.9813 37.4604 11.472C36.863 11.952 36.095 12.192 35.1564 12.192ZM35.1564 5.008C34.5164 5.008 33.9457 5.20533 33.4444 5.6C32.9537 5.984 32.671 6.54933 32.5964 7.296H37.5884C37.5564 6.58133 37.311 6.02133 36.8524 5.616C36.3937 5.21067 35.8284 5.008 35.1564 5.008ZM43.7378 12.192C42.7884 12.192 41.9991 11.952 41.3698 11.472C40.7404 10.992 40.3724 10.3413 40.2658 9.52H41.6418C41.7271 9.936 41.9458 10.2987 42.2978 10.608C42.6604 10.9067 43.1458 11.056 43.7538 11.056C44.3191 11.056 44.7351 10.9387 45.0018 10.704C45.2684 10.4587 45.4018 10.1707 45.4018 9.84C45.4018 9.36 45.2258 9.04 44.8738 8.88C44.5324 8.72 44.0471 8.576 43.4178 8.448C42.9911 8.36267 42.5644 8.24 42.1378 8.08C41.7111 7.92 41.3538 7.696 41.0658 7.408C40.7778 7.10933 40.6338 6.72 40.6338 6.24C40.6338 5.54667 40.8898 4.98133 41.4018 4.544C41.9244 4.096 42.6284 3.872 43.5138 3.872C44.3564 3.872 45.0444 4.08533 45.5778 4.512C46.1218 4.928 46.4364 5.52533 46.5218 6.304H45.1938C45.1404 5.89867 44.9644 5.584 44.6658 5.36C44.3778 5.12533 43.9884 5.008 43.4978 5.008C43.0178 5.008 42.6444 5.10933 42.3778 5.312C42.1218 5.51467 41.9938 5.78133 41.9938 6.112C41.9938 6.432 42.1591 6.68267 42.4898 6.864C42.8311 7.04533 43.2898 7.2 43.8658 7.328C44.3564 7.43467 44.8204 7.568 45.2578 7.728C45.7058 7.87733 46.0684 8.10667 46.3458 8.416C46.6338 8.71467 46.7778 9.152 46.7778 9.728C46.7884 10.4427 46.5164 11.0347 45.9618 11.504C45.4178 11.9627 44.6764 12.192 43.7378 12.192ZM51.4744 12C50.749 12 50.1784 11.824 49.7624 11.472C49.3464 11.12 49.1384 10.4853 49.1384 9.568V5.2H47.7624V4.064H49.1384L49.3144 2.16H50.4824V4.064H52.8184V5.2H50.4824V9.568C50.4824 10.0693 50.5837 10.4107 50.7864 10.592C50.989 10.7627 51.3464 10.848 51.8584 10.848H52.6904V12H51.4744ZM55.3419 2.304C55.0752 2.304 54.8512 2.21867 54.6699 2.048C54.4992 1.86667 54.4139 1.64267 54.4139 1.376C54.4139 1.12 54.4992 0.906666 54.6699 0.735999C54.8512 0.565333 55.0752 0.48 55.3419 0.48C55.5979 0.48 55.8165 0.565333 55.9979 0.735999C56.1792 0.906666 56.2699 1.12 56.2699 1.376C56.2699 1.64267 56.1792 1.86667 55.9979 2.048C55.8165 2.21867 55.5979 2.304 55.3419 2.304ZM54.6699 12V4.064H56.0139V12H54.6699ZM61.97 12.192C61.2233 12.192 60.5513 12.0213 59.954 11.68C59.3567 11.3387 58.882 10.8587 58.53 10.24C58.1887 9.61067 58.018 8.87467 58.018 8.032C58.018 7.18933 58.194 6.45867 58.546 5.84C58.898 5.21067 59.3727 4.72533 59.97 4.384C60.578 4.04267 61.2553 3.872 62.002 3.872C62.7487 3.872 63.4207 4.04267 64.018 4.384C64.6153 4.72533 65.0847 5.21067 65.426 5.84C65.778 6.45867 65.954 7.18933 65.954 8.032C65.954 8.87467 65.778 9.61067 65.426 10.24C65.074 10.8587 64.594 11.3387 63.986 11.68C63.3887 12.0213 62.7167 12.192 61.97 12.192ZM61.97 11.04C62.4287 11.04 62.8553 10.928 63.25 10.704C63.6447 10.48 63.9647 10.144 64.21 9.696C64.4553 9.248 64.578 8.69333 64.578 8.032C64.578 7.37067 64.4553 6.816 64.21 6.368C63.9753 5.92 63.6607 5.584 63.266 5.36C62.8713 5.136 62.45 5.024 62.002 5.024C61.5433 5.024 61.1167 5.136 60.722 5.36C60.3273 5.584 60.0073 5.92 59.762 6.368C59.5167 6.816 59.394 7.37067 59.394 8.032C59.394 8.69333 59.5167 9.248 59.762 9.696C60.0073 10.144 60.322 10.48 60.706 10.704C61.1007 10.928 61.522 11.04 61.97 11.04Z" fill="black" fill-opacity="0.5"/>
</svg>
