<svg width="58" height="13" viewBox="0 0 58 13" fill="none" xmlns="http://www.w3.org/2000/svg">
<path d="M6.16 12.192C5.02933 12.192 4.05867 11.952 3.248 11.472C2.43733 10.9813 1.81333 10.304 1.376 9.44C0.938667 8.56533 0.72 7.55733 0.72 6.416C0.72 5.27467 0.938667 4.26667 1.376 3.392C1.81333 2.51733 2.43733 1.83467 3.248 1.344C4.05867 0.853333 5.02933 0.608 6.16 0.608C7.504 0.608 8.60267 0.944 9.456 1.616C10.32 2.27733 10.8587 3.21067 11.072 4.416H8.816C8.67733 3.808 8.37867 3.33333 7.92 2.992C7.472 2.64 6.87467 2.464 6.128 2.464C5.09333 2.464 4.28267 2.816 3.696 3.52C3.10933 4.224 2.816 5.18933 2.816 6.416C2.816 7.64267 3.10933 8.608 3.696 9.312C4.28267 10.0053 5.09333 10.352 6.128 10.352C6.87467 10.352 7.472 10.192 7.92 9.872C8.37867 9.54133 8.67733 9.088 8.816 8.512H11.072C10.8587 9.664 10.32 10.5653 9.456 11.216C8.60267 11.8667 7.504 12.192 6.16 12.192ZM15.5729 12.192C14.8902 12.192 14.3302 12.0853 13.8929 11.872C13.4555 11.648 13.1302 11.3547 12.9169 10.992C12.7035 10.6293 12.5969 10.2293 12.5969 9.792C12.5969 9.056 12.8849 8.45867 13.4609 8C14.0369 7.54133 14.9009 7.312 16.0529 7.312H18.0689V7.12C18.0689 6.576 17.9142 6.176 17.6049 5.92C17.2955 5.664 16.9115 5.536 16.4529 5.536C16.0369 5.536 15.6742 5.63733 15.3649 5.84C15.0555 6.032 14.8635 6.32 14.7889 6.704H12.7889C12.8422 6.128 13.0342 5.62667 13.3649 5.2C13.7062 4.77333 14.1435 4.448 14.6769 4.224C15.2102 3.98933 15.8075 3.872 16.4689 3.872C17.5995 3.872 18.4902 4.15467 19.1409 4.72C19.7915 5.28533 20.1169 6.08533 20.1169 7.12V12H18.3729L18.1809 10.72C17.9462 11.1467 17.6155 11.4987 17.1889 11.776C16.7729 12.0533 16.2342 12.192 15.5729 12.192ZM16.0369 10.592C16.6235 10.592 17.0769 10.4 17.3969 10.016C17.7275 9.632 17.9355 9.15733 18.0209 8.592H16.2769C15.7329 8.592 15.3435 8.69333 15.1089 8.896C14.8742 9.088 14.7569 9.328 14.7569 9.616C14.7569 9.92533 14.8742 10.1653 15.1089 10.336C15.3435 10.5067 15.6529 10.592 16.0369 10.592ZM29.7193 4.064V12H27.9113L27.7513 10.656C27.5059 11.1253 27.1486 11.4987 26.6793 11.776C26.2206 12.0533 25.6766 12.192 25.0473 12.192C24.0659 12.192 23.3033 11.8827 22.7593 11.264C22.2153 10.6453 21.9433 9.73867 21.9433 8.544V4.064H23.9913V8.352C23.9913 9.03467 24.1299 9.55733 24.4073 9.92C24.6846 10.2827 25.1166 10.464 25.7033 10.464C26.2793 10.464 26.7486 10.2613 27.1113 9.856C27.4846 9.45067 27.6713 8.88533 27.6713 8.16V4.064H29.7193ZM35.0856 12.192C34.3816 12.192 33.763 12.08 33.2296 11.856C32.6963 11.6213 32.2696 11.3013 31.9496 10.896C31.6296 10.4907 31.4376 10.0213 31.3736 9.488H33.4376C33.5016 9.79733 33.6723 10.064 33.9496 10.288C34.2376 10.5013 34.6056 10.608 35.0536 10.608C35.5016 10.608 35.827 10.5173 36.0296 10.336C36.243 10.1547 36.3496 9.94667 36.3496 9.712C36.3496 9.37067 36.2003 9.14133 35.9016 9.024C35.603 8.896 35.187 8.77333 34.6536 8.656C34.3123 8.58133 33.9656 8.49067 33.6136 8.384C33.2616 8.27733 32.9363 8.144 32.6376 7.984C32.3496 7.81333 32.115 7.6 31.9336 7.344C31.7523 7.07733 31.6616 6.752 31.6616 6.368C31.6616 5.664 31.939 5.072 32.4936 4.592C33.059 4.112 33.8483 3.872 34.8616 3.872C35.8003 3.872 36.547 4.09067 37.1016 4.528C37.667 4.96533 38.003 5.568 38.1096 6.336H36.1736C36.0563 5.74933 35.6136 5.456 34.8456 5.456C34.4616 5.456 34.163 5.53067 33.9496 5.68C33.747 5.82933 33.6456 6.016 33.6456 6.24C33.6456 6.47467 33.8003 6.66133 34.1096 6.8C34.419 6.93867 34.8296 7.06667 35.3416 7.184C35.8963 7.312 36.403 7.456 36.8616 7.616C37.331 7.76533 37.7043 7.99467 37.9816 8.304C38.259 8.60267 38.3976 9.03467 38.3976 9.6C38.4083 10.0907 38.2803 10.5333 38.0136 10.928C37.747 11.3227 37.363 11.632 36.8616 11.856C36.3603 12.08 35.7683 12.192 35.0856 12.192ZM42.9479 12.192C42.2652 12.192 41.7052 12.0853 41.2679 11.872C40.8305 11.648 40.5052 11.3547 40.2919 10.992C40.0785 10.6293 39.9719 10.2293 39.9719 9.792C39.9719 9.056 40.2599 8.45867 40.8359 8C41.4119 7.54133 42.2759 7.312 43.4279 7.312H45.4439V7.12C45.4439 6.576 45.2892 6.176 44.9799 5.92C44.6705 5.664 44.2865 5.536 43.8279 5.536C43.4119 5.536 43.0492 5.63733 42.7399 5.84C42.4305 6.032 42.2385 6.32 42.1639 6.704H40.1639C40.2172 6.128 40.4092 5.62667 40.7399 5.2C41.0812 4.77333 41.5185 4.448 42.0519 4.224C42.5852 3.98933 43.1825 3.872 43.8439 3.872C44.9745 3.872 45.8652 4.15467 46.5159 4.72C47.1665 5.28533 47.4919 6.08533 47.4919 7.12V12H45.7479L45.5559 10.72C45.3212 11.1467 44.9905 11.4987 44.5639 11.776C44.1479 12.0533 43.6092 12.192 42.9479 12.192ZM43.4119 10.592C43.9985 10.592 44.4519 10.4 44.7719 10.016C45.1025 9.632 45.3105 9.15733 45.3959 8.592H43.6519C43.1079 8.592 42.7185 8.69333 42.4839 8.896C42.2492 9.088 42.1319 9.328 42.1319 9.616C42.1319 9.92533 42.2492 10.1653 42.4839 10.336C42.7185 10.5067 43.0279 10.592 43.4119 10.592ZM53.3023 12.192C52.5023 12.192 51.7929 12.0213 51.1743 11.68C50.5556 11.3387 50.0703 10.8587 49.7183 10.24C49.3663 9.62133 49.1903 8.90667 49.1903 8.096C49.1903 7.27467 49.3609 6.544 49.7023 5.904C50.0543 5.264 50.5343 4.768 51.1423 4.416C51.7609 4.05333 52.4863 3.872 53.3183 3.872C54.0969 3.872 54.7849 4.04267 55.3823 4.384C55.9796 4.72533 56.4436 5.19467 56.7743 5.792C57.1156 6.37867 57.2863 7.03467 57.2863 7.76C57.2863 7.87733 57.2809 8 57.2703 8.128C57.2703 8.256 57.2649 8.38933 57.2543 8.528H51.2223C51.2649 9.14667 51.4783 9.632 51.8623 9.984C52.2569 10.336 52.7316 10.512 53.2863 10.512C53.7023 10.512 54.0489 10.4213 54.3263 10.24C54.6143 10.048 54.8276 9.80267 54.9663 9.504H57.0463C56.8969 10.0053 56.6463 10.464 56.2943 10.88C55.9529 11.2853 55.5263 11.6053 55.0143 11.84C54.5129 12.0747 53.9423 12.192 53.3023 12.192ZM53.3183 5.536C52.8169 5.536 52.3743 5.68 51.9903 5.968C51.6063 6.24533 51.3609 6.672 51.2543 7.248H55.2063C55.1743 6.72533 54.9823 6.30933 54.6303 6C54.2783 5.69067 53.8409 5.536 53.3183 5.536Z" fill="black"/>
</svg>
