<svg width="56" height="16" viewBox="0 0 56 16" fill="none" xmlns="http://www.w3.org/2000/svg">
<path d="M0.184 12V0.799999H3.624C5.59733 0.799999 7.048 1.30133 7.976 2.304C8.91467 3.30667 9.384 4.68267 9.384 6.432C9.384 8.14933 8.91467 9.50933 7.976 10.512C7.048 11.504 5.59733 12 3.624 12H0.184ZM1.528 10.88H3.592C4.68 10.88 5.544 10.704 6.184 10.352C6.83467 9.98933 7.29867 9.47733 7.576 8.816C7.85333 8.144 7.992 7.34933 7.992 6.432C7.992 5.49333 7.85333 4.688 7.576 4.016C7.29867 3.344 6.83467 2.82667 6.184 2.464C5.544 2.10133 4.68 1.92 3.592 1.92H1.528V10.88ZM14.8606 12.192C14.114 12.192 13.442 12.0213 12.8446 11.68C12.2473 11.3387 11.7726 10.8587 11.4206 10.24C11.0793 9.61067 10.9086 8.87467 10.9086 8.032C10.9086 7.18933 11.0846 6.45867 11.4366 5.84C11.7886 5.21067 12.2633 4.72533 12.8606 4.384C13.4686 4.04267 14.146 3.872 14.8926 3.872C15.6393 3.872 16.3113 4.04267 16.9086 4.384C17.506 4.72533 17.9753 5.21067 18.3166 5.84C18.6686 6.45867 18.8446 7.18933 18.8446 8.032C18.8446 8.87467 18.6686 9.61067 18.3166 10.24C17.9646 10.8587 17.4846 11.3387 16.8766 11.68C16.2793 12.0213 15.6073 12.192 14.8606 12.192ZM14.8606 11.04C15.3193 11.04 15.746 10.928 16.1406 10.704C16.5353 10.48 16.8553 10.144 17.1006 9.696C17.346 9.248 17.4686 8.69333 17.4686 8.032C17.4686 7.37067 17.346 6.816 17.1006 6.368C16.866 5.92 16.5513 5.584 16.1566 5.36C15.762 5.136 15.3406 5.024 14.8926 5.024C14.434 5.024 14.0073 5.136 13.6126 5.36C13.218 5.584 12.898 5.92 12.6526 6.368C12.4073 6.816 12.2846 7.37067 12.2846 8.032C12.2846 8.69333 12.4073 9.248 12.6526 9.696C12.898 10.144 13.2126 10.48 13.5966 10.704C13.9913 10.928 14.4126 11.04 14.8606 11.04ZM20.7134 12V4.064H21.9294L22.0254 5.216C22.2814 4.78933 22.6227 4.45867 23.0494 4.224C23.476 3.98933 23.956 3.872 24.4894 3.872C25.1187 3.872 25.6574 4 26.1054 4.256C26.564 4.512 26.916 4.90133 27.1614 5.424C27.4387 4.944 27.8174 4.56533 28.2974 4.288C28.788 4.01067 29.316 3.872 29.8814 3.872C30.8307 3.872 31.588 4.16 32.1534 4.736C32.7187 5.30133 33.0014 6.176 33.0014 7.36V12H31.6734V7.504C31.6734 6.68267 31.508 6.064 31.1774 5.648C30.8467 5.232 30.372 5.024 29.7534 5.024C29.1134 5.024 28.58 5.27467 28.1534 5.776C27.7374 6.26667 27.5294 6.97067 27.5294 7.888V12H26.1854V7.504C26.1854 6.68267 26.02 6.064 25.6894 5.648C25.3587 5.232 24.884 5.024 24.2654 5.024C23.636 5.024 23.108 5.27467 22.6814 5.776C22.2654 6.26667 22.0574 6.97067 22.0574 7.888V12H20.7134ZM35.8419 2.304C35.5752 2.304 35.3512 2.21867 35.1699 2.048C34.9992 1.86667 34.9139 1.64267 34.9139 1.376C34.9139 1.12 34.9992 0.906666 35.1699 0.735999C35.3512 0.565333 35.5752 0.48 35.8419 0.48C36.0979 0.48 36.3165 0.565333 36.4979 0.735999C36.6792 0.906666 36.7699 1.12 36.7699 1.376C36.7699 1.64267 36.6792 1.86667 36.4979 2.048C36.3165 2.21867 36.0979 2.304 35.8419 2.304ZM35.1699 12V4.064H36.5139V12H35.1699ZM38.854 12V4.064H40.07L40.15 5.488C40.406 4.98667 40.774 4.592 41.254 4.304C41.734 4.016 42.278 3.872 42.886 3.872C43.8247 3.872 44.5713 4.16 45.126 4.736C45.6913 5.30133 45.974 6.176 45.974 7.36V12H44.63V7.504C44.63 5.85067 43.9473 5.024 42.582 5.024C41.8993 5.024 41.3287 5.27467 40.87 5.776C40.422 6.26667 40.198 6.97067 40.198 7.888V12H38.854ZM51.1463 9.504C50.6983 9.504 50.2876 9.44533 49.9143 9.328L49.1143 10.08C49.2316 10.1653 49.3756 10.24 49.5463 10.304C49.7276 10.3573 49.9836 10.4107 50.3143 10.464C50.6449 10.5067 51.1089 10.5547 51.7063 10.608C52.7729 10.6827 53.5356 10.928 53.9943 11.344C54.4529 11.76 54.6823 12.304 54.6823 12.976C54.6823 13.4347 54.5543 13.872 54.2983 14.288C54.0529 14.704 53.6689 15.0453 53.1463 15.312C52.6343 15.5787 51.9729 15.712 51.1623 15.712C50.4476 15.712 49.8129 15.616 49.2582 15.424C48.7036 15.2427 48.2716 14.96 47.9622 14.576C47.6529 14.2027 47.4983 13.728 47.4983 13.152C47.4983 12.8533 47.5783 12.528 47.7383 12.176C47.8983 11.8347 48.1969 11.5093 48.6343 11.2C48.3996 11.104 48.1969 11.0027 48.0263 10.896C47.8663 10.7787 47.7169 10.6507 47.5783 10.512V10.144L48.9383 8.8C48.3089 8.26667 47.9943 7.56267 47.9943 6.688C47.9943 6.16533 48.1169 5.69067 48.3623 5.264C48.6076 4.83733 48.9649 4.50133 49.4343 4.256C49.9036 4 50.4743 3.872 51.1463 3.872C51.6049 3.872 52.0209 3.936 52.3943 4.064H55.3223V5.072L53.8343 5.136C54.1436 5.584 54.2983 6.10133 54.2983 6.688C54.2983 7.21067 54.1703 7.68533 53.9143 8.112C53.6689 8.53867 53.3116 8.88 52.8423 9.136C52.3836 9.38133 51.8183 9.504 51.1463 9.504ZM51.1463 8.4C51.7116 8.4 52.1596 8.256 52.4903 7.968C52.8316 7.66933 53.0023 7.24267 53.0023 6.688C53.0023 6.144 52.8316 5.728 52.4903 5.44C52.1596 5.14133 51.7116 4.992 51.1463 4.992C50.5703 4.992 50.1116 5.14133 49.7703 5.44C49.4396 5.728 49.2743 6.144 49.2743 6.688C49.2743 7.24267 49.4396 7.66933 49.7703 7.968C50.1116 8.256 50.5703 8.4 51.1463 8.4ZM48.8103 13.024C48.8103 13.5573 49.0343 13.952 49.4823 14.208C49.9303 14.4747 50.4903 14.608 51.1623 14.608C51.8236 14.608 52.3516 14.464 52.7463 14.176C53.1516 13.888 53.3543 13.504 53.3543 13.024C53.3543 12.6827 53.2156 12.384 52.9383 12.128C52.6609 11.8827 52.1489 11.7387 51.4023 11.696C50.8156 11.6533 50.3089 11.6 49.8823 11.536C49.4449 11.7707 49.1569 12.0213 49.0182 12.288C48.8796 12.5653 48.8103 12.8107 48.8103 13.024Z" fill="black" fill-opacity="0.5"/>
</svg>
