<svg width="53" height="16" viewBox="0 0 53 16" fill="none" xmlns="http://www.w3.org/2000/svg">
<path d="M0.184 12V0.799999H7V1.904H1.528V5.84H6.184V6.928H1.528V12H0.184ZM11.8751 12.192C11.1178 12.192 10.4458 12.0213 9.85913 11.68C9.27246 11.328 8.80846 10.8427 8.46713 10.224C8.13646 9.60533 7.97113 8.87467 7.97113 8.032C7.97113 7.2 8.13646 6.47467 8.46713 5.856C8.79779 5.22667 9.25646 4.74133 9.84313 4.4C10.4405 4.048 11.1285 3.872 11.9071 3.872C12.6751 3.872 13.3365 4.048 13.8911 4.4C14.4565 4.74133 14.8885 5.19467 15.1871 5.76C15.4858 6.32533 15.6351 6.93333 15.6351 7.584C15.6351 7.70133 15.6298 7.81867 15.6191 7.936C15.6191 8.05333 15.6191 8.18667 15.6191 8.336H9.29913C9.33113 8.944 9.46979 9.45067 9.71513 9.856C9.97113 10.2507 10.2858 10.5493 10.6591 10.752C11.0431 10.9547 11.4485 11.056 11.8751 11.056C12.4298 11.056 12.8938 10.928 13.2671 10.672C13.6405 10.416 13.9125 10.0693 14.0831 9.632H15.4111C15.1978 10.368 14.7871 10.9813 14.1791 11.472C13.5818 11.952 12.8138 12.192 11.8751 12.192ZM11.8751 5.008C11.2351 5.008 10.6645 5.20533 10.1631 5.6C9.67246 5.984 9.38979 6.54933 9.31512 7.296H14.3071C14.2751 6.58133 14.0298 6.02133 13.5711 5.616C13.1125 5.21067 12.5471 5.008 11.8751 5.008ZM24.3605 4.064V12H23.1445L23.0645 10.576C22.8085 11.0773 22.4405 11.472 21.9605 11.76C21.4805 12.048 20.9365 12.192 20.3285 12.192C19.3898 12.192 18.6378 11.9093 18.0725 11.344C17.5178 10.768 17.2405 9.888 17.2405 8.704V4.064H18.5845V8.56C18.5845 10.2133 19.2672 11.04 20.6325 11.04C21.3152 11.04 21.8805 10.7947 22.3285 10.304C22.7872 9.80267 23.0165 9.09333 23.0165 8.176V4.064H24.3605ZM29.7088 9.504C29.2608 9.504 28.8501 9.44533 28.4768 9.328L27.6768 10.08C27.7941 10.1653 27.9381 10.24 28.1088 10.304C28.2901 10.3573 28.5461 10.4107 28.8768 10.464C29.2074 10.5067 29.6714 10.5547 30.2688 10.608C31.3354 10.6827 32.0981 10.928 32.5568 11.344C33.0154 11.76 33.2448 12.304 33.2448 12.976C33.2448 13.4347 33.1168 13.872 32.8608 14.288C32.6154 14.704 32.2314 15.0453 31.7088 15.312C31.1968 15.5787 30.5354 15.712 29.7248 15.712C29.0101 15.712 28.3754 15.616 27.8207 15.424C27.2661 15.2427 26.8341 14.96 26.5247 14.576C26.2154 14.2027 26.0608 13.728 26.0608 13.152C26.0608 12.8533 26.1408 12.528 26.3008 12.176C26.4608 11.8347 26.7594 11.5093 27.1968 11.2C26.9621 11.104 26.7594 11.0027 26.5888 10.896C26.4288 10.7787 26.2794 10.6507 26.1408 10.512V10.144L27.5008 8.8C26.8714 8.26667 26.5568 7.56267 26.5568 6.688C26.5568 6.16533 26.6794 5.69067 26.9248 5.264C27.1701 4.83733 27.5274 4.50133 27.9968 4.256C28.4661 4 29.0368 3.872 29.7088 3.872C30.1674 3.872 30.5834 3.936 30.9568 4.064H33.8848V5.072L32.3968 5.136C32.7061 5.584 32.8608 6.10133 32.8608 6.688C32.8608 7.21067 32.7328 7.68533 32.4768 8.112C32.2314 8.53867 31.8741 8.88 31.4048 9.136C30.9461 9.38133 30.3808 9.504 29.7088 9.504ZM29.7088 8.4C30.2741 8.4 30.7221 8.256 31.0528 7.968C31.3941 7.66933 31.5648 7.24267 31.5648 6.688C31.5648 6.144 31.3941 5.728 31.0528 5.44C30.7221 5.14133 30.2741 4.992 29.7088 4.992C29.1328 4.992 28.6741 5.14133 28.3328 5.44C28.0021 5.728 27.8368 6.144 27.8368 6.688C27.8368 7.24267 28.0021 7.66933 28.3328 7.968C28.6741 8.256 29.1328 8.4 29.7088 8.4ZM27.3728 13.024C27.3728 13.5573 27.5968 13.952 28.0448 14.208C28.4928 14.4747 29.0528 14.608 29.7248 14.608C30.3861 14.608 30.9141 14.464 31.3088 14.176C31.7141 13.888 31.9168 13.504 31.9168 13.024C31.9168 12.6827 31.7781 12.384 31.5008 12.128C31.2234 11.8827 30.7114 11.7387 29.9648 11.696C29.3781 11.6533 28.8714 11.6 28.4448 11.536C28.0074 11.7707 27.7194 12.0213 27.5807 12.288C27.4421 12.5653 27.3728 12.8107 27.3728 13.024ZM38.0409 12.192C37.3795 12.192 36.8302 12.08 36.3929 11.856C35.9555 11.632 35.6302 11.3333 35.4169 10.96C35.2035 10.5867 35.0969 10.1813 35.0969 9.744C35.0969 8.93333 35.4062 8.30933 36.0249 7.872C36.6435 7.43467 37.4862 7.216 38.5529 7.216H40.6969V7.12C40.6969 6.42667 40.5155 5.904 40.1529 5.552C39.7902 5.18933 39.3049 5.008 38.6969 5.008C38.1742 5.008 37.7209 5.14133 37.3369 5.408C36.9635 5.664 36.7289 6.04267 36.6329 6.544H35.2569C35.3102 5.968 35.5022 5.48267 35.8329 5.088C36.1742 4.69333 36.5955 4.39467 37.0969 4.192C37.5982 3.97867 38.1315 3.872 38.6969 3.872C39.8062 3.872 40.6382 4.17067 41.1929 4.768C41.7582 5.35467 42.0409 6.13867 42.0409 7.12V12H40.8409L40.7609 10.576C40.5369 11.024 40.2062 11.408 39.7689 11.728C39.3422 12.0373 38.7662 12.192 38.0409 12.192ZM38.2489 11.056C38.7609 11.056 39.1982 10.9227 39.5609 10.656C39.9342 10.3893 40.2169 10.0427 40.4089 9.616C40.6009 9.18933 40.6969 8.74133 40.6969 8.272V8.256H38.6649C37.8755 8.256 37.3155 8.39467 36.9849 8.672C36.6649 8.93867 36.5049 9.27467 36.5049 9.68C36.5049 10.096 36.6542 10.432 36.9529 10.688C37.2622 10.9333 37.6942 11.056 38.2489 11.056ZM44.8731 2.304C44.6065 2.304 44.3825 2.21867 44.2011 2.048C44.0305 1.86667 43.9451 1.64267 43.9451 1.376C43.9451 1.12 44.0305 0.906666 44.2011 0.735999C44.3825 0.565333 44.6065 0.48 44.8731 0.48C45.1291 0.48 45.3478 0.565333 45.5291 0.735999C45.7105 0.906666 45.8011 1.12 45.8011 1.376C45.8011 1.64267 45.7105 1.86667 45.5291 2.048C45.3478 2.21867 45.1291 2.304 44.8731 2.304ZM44.2011 12V4.064H45.5451V12H44.2011ZM51.0213 12C50.2959 12 49.7253 11.824 49.3093 11.472C48.8933 11.12 48.6853 10.4853 48.6853 9.568V5.2H47.3092V4.064H48.6853L48.8613 2.16H50.0293V4.064H52.3653V5.2H50.0293V9.568C50.0293 10.0693 50.1306 10.4107 50.3333 10.592C50.5359 10.7627 50.8933 10.848 51.4053 10.848H52.2373V12H51.0213Z" fill="black" fill-opacity="0.5"/>
</svg>
