<svg width="52" height="16" viewBox="0 0 52 16" fill="none" xmlns="http://www.w3.org/2000/svg">
<path d="M4.752 12.192C3.93067 12.192 3.216 12.0427 2.608 11.744C2 11.4453 1.53067 11.0293 1.2 10.496C0.869333 9.96267 0.704 9.344 0.704 8.64H2.112C2.112 9.07733 2.21333 9.48267 2.416 9.856C2.61867 10.2187 2.912 10.512 3.296 10.736C3.69067 10.9493 4.176 11.056 4.752 11.056C5.50933 11.056 6.096 10.8747 6.512 10.512C6.928 10.1493 7.136 9.696 7.136 9.152C7.136 8.704 7.04 8.34667 6.848 8.08C6.656 7.80267 6.39467 7.57867 6.064 7.408C5.744 7.23733 5.37067 7.088 4.944 6.96C4.528 6.832 4.09067 6.688 3.632 6.528C2.768 6.22933 2.128 5.86133 1.712 5.424C1.296 4.976 1.088 4.39467 1.088 3.68C1.07733 3.08267 1.216 2.55467 1.504 2.096C1.792 1.62667 2.19733 1.264 2.72 1.008C3.25333 0.741333 3.88267 0.608 4.608 0.608C5.32267 0.608 5.94133 0.741333 6.464 1.008C6.99733 1.27467 7.408 1.64267 7.696 2.112C7.99467 2.58133 8.14933 3.11467 8.16 3.712H6.752C6.752 3.40267 6.672 3.09867 6.512 2.8C6.352 2.49067 6.10667 2.24 5.776 2.048C5.456 1.856 5.05067 1.76 4.56 1.76C3.952 1.74933 3.45067 1.904 3.056 2.224C2.672 2.544 2.48 2.98667 2.48 3.552C2.48 4.032 2.61333 4.4 2.88 4.656C3.15733 4.912 3.54133 5.12533 4.032 5.296C4.52267 5.456 5.088 5.64267 5.728 5.856C6.26133 6.048 6.74133 6.272 7.168 6.528C7.59467 6.784 7.92533 7.11467 8.16 7.52C8.40533 7.92533 8.528 8.44267 8.528 9.072C8.528 9.60533 8.38933 10.112 8.112 10.592C7.83467 11.0613 7.41333 11.4453 6.848 11.744C6.29333 12.0427 5.59467 12.192 4.752 12.192ZM14.002 12.192C13.2447 12.192 12.562 12.0213 11.954 11.68C11.3567 11.328 10.882 10.8427 10.53 10.224C10.1887 9.59467 10.018 8.864 10.018 8.032C10.018 7.2 10.1887 6.47467 10.53 5.856C10.882 5.22667 11.3567 4.74133 11.954 4.4C12.562 4.048 13.2447 3.872 14.002 3.872C14.9407 3.872 15.73 4.11733 16.37 4.608C17.0207 5.09867 17.4313 5.75467 17.602 6.576H16.226C16.1193 6.08533 15.858 5.70667 15.442 5.44C15.026 5.16267 14.5407 5.024 13.986 5.024C13.538 5.024 13.1167 5.136 12.722 5.36C12.3273 5.584 12.0073 5.92 11.762 6.368C11.5167 6.816 11.394 7.37067 11.394 8.032C11.394 8.69333 11.5167 9.248 11.762 9.696C12.0073 10.144 12.3273 10.4853 12.722 10.72C13.1167 10.944 13.538 11.056 13.986 11.056C14.5407 11.056 15.026 10.9227 15.442 10.656C15.858 10.3787 16.1193 9.98933 16.226 9.488H17.602C17.442 10.288 17.0367 10.9387 16.386 11.44C15.7353 11.9413 14.9407 12.192 14.002 12.192ZM19.479 12V4.064H20.695L20.807 5.584C21.0523 5.06133 21.4257 4.64533 21.927 4.336C22.4283 4.02667 23.047 3.872 23.783 3.872V5.28H23.415C22.9457 5.28 22.5137 5.36533 22.119 5.536C21.7243 5.696 21.4097 5.97333 21.175 6.368C20.9403 6.76267 20.823 7.30667 20.823 8V12H19.479ZM26.1075 2.304C25.8408 2.304 25.6168 2.21867 25.4355 2.048C25.2648 1.86667 25.1795 1.64267 25.1795 1.376C25.1795 1.12 25.2648 0.906666 25.4355 0.735999C25.6168 0.565333 25.8408 0.48 26.1075 0.48C26.3635 0.48 26.5822 0.565333 26.7635 0.735999C26.9448 0.906666 27.0355 1.12 27.0355 1.376C27.0355 1.64267 26.9448 1.86667 26.7635 2.048C26.5822 2.21867 26.3635 2.304 26.1075 2.304ZM25.4355 12V4.064H26.7795V12H25.4355ZM29.1196 15.52V4.064H30.3356L30.4636 5.376C30.7196 4.992 31.0823 4.64533 31.5516 4.336C32.0316 4.02667 32.6396 3.872 33.3756 3.872C34.165 3.872 34.853 4.05333 35.4396 4.416C36.0263 4.77867 36.4796 5.27467 36.7996 5.904C37.1303 6.53333 37.2956 7.248 37.2956 8.048C37.2956 8.848 37.1303 9.56267 36.7996 10.192C36.4796 10.8107 36.021 11.3013 35.4236 11.664C34.837 12.016 34.149 12.192 33.3596 12.192C32.709 12.192 32.1276 12.0587 31.6156 11.792C31.1143 11.5253 30.7303 11.152 30.4636 10.672V15.52H29.1196ZM33.2156 11.024C33.749 11.024 34.2183 10.9013 34.6236 10.656C35.029 10.4 35.349 10.048 35.5836 9.6C35.8183 9.152 35.9356 8.62933 35.9356 8.032C35.9356 7.43467 35.8183 6.912 35.5836 6.464C35.349 6.016 35.029 5.66933 34.6236 5.424C34.2183 5.168 33.749 5.04 33.2156 5.04C32.6823 5.04 32.213 5.168 31.8076 5.424C31.4023 5.66933 31.0823 6.016 30.8476 6.464C30.613 6.912 30.4956 7.43467 30.4956 8.032C30.4956 8.62933 30.613 9.152 30.8476 9.6C31.0823 10.048 31.4023 10.4 31.8076 10.656C32.213 10.9013 32.6823 11.024 33.2156 11.024ZM41.99 12C41.2647 12 40.694 11.824 40.278 11.472C39.862 11.12 39.654 10.4853 39.654 9.568V5.2H38.278V4.064H39.654L39.83 2.16H40.998V4.064H43.334V5.2H40.998V9.568C40.998 10.0693 41.0993 10.4107 41.302 10.592C41.5047 10.7627 41.862 10.848 42.374 10.848H43.206V12H41.99ZM47.6815 12.192C47.0202 12.192 46.4708 12.08 46.0335 11.856C45.5962 11.632 45.2708 11.3333 45.0575 10.96C44.8442 10.5867 44.7375 10.1813 44.7375 9.744C44.7375 8.93333 45.0468 8.30933 45.6655 7.872C46.2842 7.43467 47.1268 7.216 48.1935 7.216H50.3375V7.12C50.3375 6.42667 50.1562 5.904 49.7935 5.552C49.4308 5.18933 48.9455 5.008 48.3375 5.008C47.8148 5.008 47.3615 5.14133 46.9775 5.408C46.6042 5.664 46.3695 6.04267 46.2735 6.544H44.8975C44.9508 5.968 45.1428 5.48267 45.4735 5.088C45.8148 4.69333 46.2362 4.39467 46.7375 4.192C47.2388 3.97867 47.7722 3.872 48.3375 3.872C49.4468 3.872 50.2788 4.17067 50.8335 4.768C51.3988 5.35467 51.6815 6.13867 51.6815 7.12V12H50.4815L50.4015 10.576C50.1775 11.024 49.8468 11.408 49.4095 11.728C48.9828 12.0373 48.4068 12.192 47.6815 12.192ZM47.8895 11.056C48.4015 11.056 48.8388 10.9227 49.2015 10.656C49.5748 10.3893 49.8575 10.0427 50.0495 9.616C50.2415 9.18933 50.3375 8.74133 50.3375 8.272V8.256H48.3055C47.5162 8.256 46.9562 8.39467 46.6255 8.672C46.3055 8.93867 46.1455 9.27467 46.1455 9.68C46.1455 10.096 46.2948 10.432 46.5935 10.688C46.9028 10.9333 47.3348 11.056 47.8895 11.056Z" fill="black" fill-opacity="0.5"/>
</svg>
