<svg width="237" height="40" viewBox="0 0 237 40" fill="none" xmlns="http://www.w3.org/2000/svg">
<path d="M0.184 12V0.799999H3.624C5.59733 0.799999 7.048 1.30133 7.976 2.304C8.91467 3.30667 9.384 4.68267 9.384 6.432C9.384 8.14933 8.91467 9.50933 7.976 10.512C7.048 11.504 5.59733 12 3.624 12H0.184ZM1.528 10.88H3.592C4.68 10.88 5.544 10.704 6.184 10.352C6.83467 9.98933 7.29867 9.47733 7.576 8.816C7.85333 8.144 7.992 7.34933 7.992 6.432C7.992 5.49333 7.85333 4.688 7.576 4.016C7.29867 3.344 6.83467 2.82667 6.184 2.464C5.544 2.10133 4.68 1.92 3.592 1.92H1.528V10.88ZM12.0606 2.304C11.794 2.304 11.57 2.21867 11.3886 2.048C11.218 1.86667 11.1326 1.64267 11.1326 1.376C11.1326 1.12 11.218 0.906666 11.3886 0.735999C11.57 0.565333 11.794 0.48 12.0606 0.48C12.3166 0.48 12.5353 0.565333 12.7166 0.735999C12.898 0.906666 12.9886 1.12 12.9886 1.376C12.9886 1.64267 12.898 1.86667 12.7166 2.048C12.5353 2.21867 12.3166 2.304 12.0606 2.304ZM11.3886 12V4.064H12.7326V12H11.3886ZM17.7128 12.192C17.0514 12.192 16.5021 12.08 16.0648 11.856C15.6274 11.632 15.3021 11.3333 15.0888 10.96C14.8754 10.5867 14.7688 10.1813 14.7688 9.744C14.7688 8.93333 15.0781 8.30933 15.6968 7.872C16.3154 7.43467 17.1581 7.216 18.2248 7.216H20.3688V7.12C20.3688 6.42667 20.1874 5.904 19.8248 5.552C19.4621 5.18933 18.9768 5.008 18.3688 5.008C17.8461 5.008 17.3928 5.14133 17.0088 5.408C16.6354 5.664 16.4008 6.04267 16.3048 6.544H14.9288C14.9821 5.968 15.1741 5.48267 15.5048 5.088C15.8461 4.69333 16.2674 4.39467 16.7688 4.192C17.2701 3.97867 17.8034 3.872 18.3688 3.872C19.4781 3.872 20.3101 4.17067 20.8648 4.768C21.4301 5.35467 21.7128 6.13867 21.7128 7.12V12H20.5128L20.4328 10.576C20.2088 11.024 19.8781 11.408 19.4408 11.728C19.0141 12.0373 18.4381 12.192 17.7128 12.192ZM17.9208 11.056C18.4328 11.056 18.8701 10.9227 19.2328 10.656C19.6061 10.3893 19.8888 10.0427 20.0808 9.616C20.2728 9.18933 20.3688 8.74133 20.3688 8.272V8.256H18.3368C17.5474 8.256 16.9874 8.39467 16.6568 8.672C16.3368 8.93867 16.1768 9.27467 16.1768 9.68C16.1768 10.096 16.3261 10.432 16.6248 10.688C16.9341 10.9333 17.3661 11.056 17.9208 11.056ZM23.729 12V4.064H24.945L25.041 5.216C25.297 4.78933 25.6383 4.45867 26.065 4.224C26.4917 3.98933 26.9717 3.872 27.505 3.872C28.1343 3.872 28.673 4 29.121 4.256C29.5797 4.512 29.9317 4.90133 30.177 5.424C30.4543 4.944 30.833 4.56533 31.313 4.288C31.8037 4.01067 32.3317 3.872 32.897 3.872C33.8463 3.872 34.6037 4.16 35.169 4.736C35.7343 5.30133 36.017 6.176 36.017 7.36V12H34.689V7.504C34.689 6.68267 34.5237 6.064 34.193 5.648C33.8623 5.232 33.3877 5.024 32.769 5.024C32.129 5.024 31.5957 5.27467 31.169 5.776C30.753 6.26667 30.545 6.97067 30.545 7.888V12H29.201V7.504C29.201 6.68267 29.0357 6.064 28.705 5.648C28.3743 5.232 27.8997 5.024 27.281 5.024C26.6517 5.024 26.1237 5.27467 25.697 5.776C25.281 6.26667 25.073 6.97067 25.073 7.888V12H23.729ZM42.7079 12V5.2H41.5079V4.064H42.7079V2.688C42.7079 1.92 42.8999 1.36 43.2839 1.008C43.6679 0.656 44.2279 0.48 44.9639 0.48H45.7639V1.632H45.1719C44.7665 1.632 44.4785 1.71733 44.3079 1.888C44.1372 2.048 44.0519 2.32533 44.0519 2.72V4.064H46.0039V5.2H44.0519V12H42.7079ZM49.9315 12.192C49.2702 12.192 48.7208 12.08 48.2835 11.856C47.8462 11.632 47.5208 11.3333 47.3075 10.96C47.0942 10.5867 46.9875 10.1813 46.9875 9.744C46.9875 8.93333 47.2968 8.30933 47.9155 7.872C48.5342 7.43467 49.3768 7.216 50.4435 7.216H52.5875V7.12C52.5875 6.42667 52.4062 5.904 52.0435 5.552C51.6808 5.18933 51.1955 5.008 50.5875 5.008C50.0648 5.008 49.6115 5.14133 49.2275 5.408C48.8542 5.664 48.6195 6.04267 48.5235 6.544H47.1475C47.2008 5.968 47.3928 5.48267 47.7235 5.088C48.0648 4.69333 48.4862 4.39467 48.9875 4.192C49.4888 3.97867 50.0222 3.872 50.5875 3.872C51.6968 3.872 52.5288 4.17067 53.0835 4.768C53.6488 5.35467 53.9315 6.13867 53.9315 7.12V12H52.7315L52.6515 10.576C52.4275 11.024 52.0968 11.408 51.6595 11.728C51.2328 12.0373 50.6568 12.192 49.9315 12.192ZM50.1395 11.056C50.6515 11.056 51.0888 10.9227 51.4515 10.656C51.8248 10.3893 52.1075 10.0427 52.2995 9.616C52.4915 9.18933 52.5875 8.74133 52.5875 8.272V8.256H50.5555C49.7662 8.256 49.2062 8.39467 48.8755 8.672C48.5555 8.93867 48.3955 9.27467 48.3955 9.68C48.3955 10.096 48.5448 10.432 48.8435 10.688C49.1528 10.9333 49.5848 11.056 50.1395 11.056ZM59.5958 12.192C58.8384 12.192 58.1558 12.0213 57.5478 11.68C56.9504 11.328 56.4758 10.8427 56.1238 10.224C55.7824 9.59467 55.6118 8.864 55.6118 8.032C55.6118 7.2 55.7824 6.47467 56.1238 5.856C56.4758 5.22667 56.9504 4.74133 57.5478 4.4C58.1558 4.048 58.8384 3.872 59.5958 3.872C60.5344 3.872 61.3238 4.11733 61.9638 4.608C62.6144 5.09867 63.0251 5.75467 63.1958 6.576H61.8198C61.7131 6.08533 61.4518 5.70667 61.0358 5.44C60.6198 5.16267 60.1344 5.024 59.5798 5.024C59.1318 5.024 58.7104 5.136 58.3158 5.36C57.9211 5.584 57.6011 5.92 57.3558 6.368C57.1104 6.816 56.9878 7.37067 56.9878 8.032C56.9878 8.69333 57.1104 9.248 57.3558 9.696C57.6011 10.144 57.9211 10.4853 58.3158 10.72C58.7104 10.944 59.1318 11.056 59.5798 11.056C60.1344 11.056 60.6198 10.9227 61.0358 10.656C61.4518 10.3787 61.7131 9.98933 61.8198 9.488H63.1958C63.0358 10.288 62.6304 10.9387 61.9798 11.44C61.3291 11.9413 60.5344 12.192 59.5958 12.192ZM65.8888 2.304C65.6221 2.304 65.3981 2.21867 65.2168 2.048C65.0461 1.86667 64.9608 1.64267 64.9608 1.376C64.9608 1.12 65.0461 0.906666 65.2168 0.735999C65.3981 0.565333 65.6221 0.48 65.8888 0.48C66.1448 0.48 66.3634 0.565333 66.5448 0.735999C66.7261 0.906666 66.8168 1.12 66.8168 1.376C66.8168 1.64267 66.7261 1.86667 66.5448 2.048C66.3634 2.21867 66.1448 2.304 65.8888 2.304ZM65.2168 12V4.064H66.5608V12H65.2168ZM68.9009 12V0.48H70.2449V12H68.9009ZM73.2638 2.304C72.9971 2.304 72.7731 2.21867 72.5918 2.048C72.4211 1.86667 72.3358 1.64267 72.3358 1.376C72.3358 1.12 72.4211 0.906666 72.5918 0.735999C72.7731 0.565333 72.9971 0.48 73.2638 0.48C73.5198 0.48 73.7384 0.565333 73.9198 0.735999C74.1011 0.906666 74.1918 1.12 74.1918 1.376C74.1918 1.64267 74.1011 1.86667 73.9198 2.048C73.7384 2.21867 73.5198 2.304 73.2638 2.304ZM72.5918 12V4.064H73.9358V12H72.5918ZM79.3159 12.192C78.3665 12.192 77.5772 11.952 76.9479 11.472C76.3185 10.992 75.9505 10.3413 75.8439 9.52H77.2199C77.3052 9.936 77.5239 10.2987 77.8759 10.608C78.2385 10.9067 78.7239 11.056 79.3319 11.056C79.8972 11.056 80.3132 10.9387 80.5799 10.704C80.8465 10.4587 80.9799 10.1707 80.9799 9.84C80.9799 9.36 80.8039 9.04 80.4519 8.88C80.1105 8.72 79.6252 8.576 78.9959 8.448C78.5692 8.36267 78.1425 8.24 77.7159 8.08C77.2892 7.92 76.9319 7.696 76.6439 7.408C76.3559 7.10933 76.2119 6.72 76.2119 6.24C76.2119 5.54667 76.4679 4.98133 76.9799 4.544C77.5025 4.096 78.2065 3.872 79.0919 3.872C79.9345 3.872 80.6225 4.08533 81.1559 4.512C81.6999 4.928 82.0145 5.52533 82.0999 6.304H80.7719C80.7185 5.89867 80.5425 5.584 80.2439 5.36C79.9559 5.12533 79.5665 5.008 79.0759 5.008C78.5959 5.008 78.2225 5.10933 77.9559 5.312C77.6999 5.51467 77.5719 5.78133 77.5719 6.112C77.5719 6.432 77.7372 6.68267 78.0679 6.864C78.4092 7.04533 78.8679 7.2 79.4439 7.328C79.9345 7.43467 80.3985 7.568 80.8359 7.728C81.2839 7.87733 81.6465 8.10667 81.9239 8.416C82.2119 8.71467 82.3559 9.152 82.3559 9.728C82.3665 10.4427 82.0945 11.0347 81.5399 11.504C80.9959 11.9627 80.2545 12.192 79.3159 12.192ZM85.0919 2.304C84.8252 2.304 84.6012 2.21867 84.4199 2.048C84.2492 1.86667 84.1639 1.64267 84.1639 1.376C84.1639 1.12 84.2492 0.906666 84.4199 0.735999C84.6012 0.565333 84.8252 0.48 85.0919 0.48C85.3479 0.48 85.5665 0.565333 85.7479 0.735999C85.9292 0.906666 86.0199 1.12 86.0199 1.376C86.0199 1.64267 85.9292 1.86667 85.7479 2.048C85.5665 2.21867 85.3479 2.304 85.0919 2.304ZM84.4199 12V4.064H85.7639V12H84.4199ZM93.1544 2.304C92.8877 2.304 92.6637 2.21867 92.4824 2.048C92.3117 1.86667 92.2264 1.64267 92.2264 1.376C92.2264 1.12 92.3117 0.906666 92.4824 0.735999C92.6637 0.565333 92.8877 0.48 93.1544 0.48C93.4104 0.48 93.629 0.565333 93.8104 0.735999C93.9917 0.906666 94.0824 1.12 94.0824 1.376C94.0824 1.64267 93.9917 1.86667 93.8104 2.048C93.629 2.21867 93.4104 2.304 93.1544 2.304ZM92.4824 12V4.064H93.8264V12H92.4824ZM96.1665 12V4.064H97.3825L97.4625 5.488C97.7185 4.98667 98.0865 4.592 98.5665 4.304C99.0465 4.016 99.5905 3.872 100.199 3.872C101.137 3.872 101.884 4.16 102.439 4.736C103.004 5.30133 103.286 6.176 103.286 7.36V12H101.943V7.504C101.943 5.85067 101.26 5.024 99.8945 5.024C99.2118 5.024 98.6412 5.27467 98.1825 5.776C97.7345 6.26667 97.5105 6.97067 97.5105 7.888V12H96.1665ZM108.363 12.192C107.413 12.192 106.624 11.952 105.995 11.472C105.365 10.992 104.997 10.3413 104.891 9.52H106.267C106.352 9.936 106.571 10.2987 106.923 10.608C107.285 10.9067 107.771 11.056 108.379 11.056C108.944 11.056 109.36 10.9387 109.627 10.704C109.893 10.4587 110.027 10.1707 110.027 9.84C110.027 9.36 109.851 9.04 109.499 8.88C109.157 8.72 108.672 8.576 108.043 8.448C107.616 8.36267 107.189 8.24 106.763 8.08C106.336 7.92 105.979 7.696 105.691 7.408C105.403 7.10933 105.259 6.72 105.259 6.24C105.259 5.54667 105.515 4.98133 106.027 4.544C106.549 4.096 107.253 3.872 108.139 3.872C108.981 3.872 109.669 4.08533 110.203 4.512C110.747 4.928 111.061 5.52533 111.147 6.304H109.819C109.765 5.89867 109.589 5.584 109.291 5.36C109.003 5.12533 108.613 5.008 108.123 5.008C107.643 5.008 107.269 5.10933 107.003 5.312C106.747 5.51467 106.619 5.78133 106.619 6.112C106.619 6.432 106.784 6.68267 107.115 6.864C107.456 7.04533 107.915 7.2 108.491 7.328C108.981 7.43467 109.445 7.568 109.883 7.728C110.331 7.87733 110.693 8.10667 110.971 8.416C111.259 8.71467 111.403 9.152 111.403 9.728C111.413 10.4427 111.141 11.0347 110.587 11.504C110.043 11.9627 109.301 12.192 108.363 12.192ZM116.939 12.192C116.192 12.192 115.52 12.0213 114.923 11.68C114.325 11.3387 113.851 10.8587 113.499 10.24C113.157 9.61067 112.987 8.87467 112.987 8.032C112.987 7.18933 113.163 6.45867 113.515 5.84C113.867 5.21067 114.341 4.72533 114.939 4.384C115.547 4.04267 116.224 3.872 116.971 3.872C117.717 3.872 118.389 4.04267 118.987 4.384C119.584 4.72533 120.053 5.21067 120.395 5.84C120.747 6.45867 120.923 7.18933 120.923 8.032C120.923 8.87467 120.747 9.61067 120.395 10.24C120.043 10.8587 119.563 11.3387 118.955 11.68C118.357 12.0213 117.685 12.192 116.939 12.192ZM116.939 11.04C117.397 11.04 117.824 10.928 118.219 10.704C118.613 10.48 118.933 10.144 119.179 9.696C119.424 9.248 119.547 8.69333 119.547 8.032C119.547 7.37067 119.424 6.816 119.179 6.368C118.944 5.92 118.629 5.584 118.235 5.36C117.84 5.136 117.419 5.024 116.971 5.024C116.512 5.024 116.085 5.136 115.691 5.36C115.296 5.584 114.976 5.92 114.731 6.368C114.485 6.816 114.363 7.37067 114.363 8.032C114.363 8.69333 114.485 9.248 114.731 9.696C114.976 10.144 115.291 10.48 115.675 10.704C116.069 10.928 116.491 11.04 116.939 11.04ZM122.792 12V0.48H124.136V12H122.792ZM129.906 12.192C129.149 12.192 128.477 12.0213 127.89 11.68C127.304 11.328 126.84 10.8427 126.498 10.224C126.168 9.60533 126.002 8.87467 126.002 8.032C126.002 7.2 126.168 6.47467 126.498 5.856C126.829 5.22667 127.288 4.74133 127.874 4.4C128.472 4.048 129.16 3.872 129.938 3.872C130.706 3.872 131.368 4.048 131.922 4.4C132.488 4.74133 132.92 5.19467 133.218 5.76C133.517 6.32533 133.666 6.93333 133.666 7.584C133.666 7.70133 133.661 7.81867 133.65 7.936C133.65 8.05333 133.65 8.18667 133.65 8.336H127.33C127.362 8.944 127.501 9.45067 127.746 9.856C128.002 10.2507 128.317 10.5493 128.69 10.752C129.074 10.9547 129.48 11.056 129.906 11.056C130.461 11.056 130.925 10.928 131.298 10.672C131.672 10.416 131.944 10.0693 132.114 9.632H133.442C133.229 10.368 132.818 10.9813 132.21 11.472C131.613 11.952 130.845 12.192 129.906 12.192ZM129.906 5.008C129.266 5.008 128.696 5.20533 128.194 5.6C127.704 5.984 127.421 6.54933 127.346 7.296H132.338C132.306 6.58133 132.061 6.02133 131.602 5.616C131.144 5.21067 130.578 5.008 129.906 5.008ZM135.448 12V4.064H136.664L136.744 5.488C137 4.98667 137.368 4.592 137.848 4.304C138.328 4.016 138.872 3.872 139.48 3.872C140.418 3.872 141.165 4.16 141.72 4.736C142.285 5.30133 142.568 6.176 142.568 7.36V12H141.224V7.504C141.224 5.85067 140.541 5.024 139.176 5.024C138.493 5.024 137.922 5.27467 137.464 5.776C137.016 6.26667 136.792 6.97067 136.792 7.888V12H135.448ZM147.644 12.192C146.695 12.192 145.905 11.952 145.276 11.472C144.647 10.992 144.279 10.3413 144.172 9.52H145.548C145.633 9.936 145.852 10.2987 146.204 10.608C146.567 10.9067 147.052 11.056 147.66 11.056C148.225 11.056 148.641 10.9387 148.908 10.704C149.175 10.4587 149.308 10.1707 149.308 9.84C149.308 9.36 149.132 9.04 148.78 8.88C148.439 8.72 147.953 8.576 147.324 8.448C146.897 8.36267 146.471 8.24 146.044 8.08C145.617 7.92 145.26 7.696 144.972 7.408C144.684 7.10933 144.54 6.72 144.54 6.24C144.54 5.54667 144.796 4.98133 145.308 4.544C145.831 4.096 146.535 3.872 147.42 3.872C148.263 3.872 148.951 4.08533 149.484 4.512C150.028 4.928 150.343 5.52533 150.428 6.304H149.1C149.047 5.89867 148.871 5.584 148.572 5.36C148.284 5.12533 147.895 5.008 147.404 5.008C146.924 5.008 146.551 5.10933 146.284 5.312C146.028 5.51467 145.9 5.78133 145.9 6.112C145.9 6.432 146.065 6.68267 146.396 6.864C146.737 7.04533 147.196 7.2 147.772 7.328C148.263 7.43467 148.727 7.568 149.164 7.728C149.612 7.87733 149.975 8.10667 150.252 8.416C150.54 8.71467 150.684 9.152 150.684 9.728C150.695 10.4427 150.423 11.0347 149.868 11.504C149.324 11.9627 148.583 12.192 147.644 12.192ZM156.838 15.52V4.064H158.054L158.182 5.376C158.438 4.992 158.801 4.64533 159.27 4.336C159.75 4.02667 160.358 3.872 161.094 3.872C161.884 3.872 162.572 4.05333 163.158 4.416C163.745 4.77867 164.198 5.27467 164.518 5.904C164.849 6.53333 165.014 7.248 165.014 8.048C165.014 8.848 164.849 9.56267 164.518 10.192C164.198 10.8107 163.74 11.3013 163.142 11.664C162.556 12.016 161.868 12.192 161.078 12.192C160.428 12.192 159.846 12.0587 159.334 11.792C158.833 11.5253 158.449 11.152 158.182 10.672V15.52H156.838ZM160.934 11.024C161.468 11.024 161.937 10.9013 162.342 10.656C162.748 10.4 163.068 10.048 163.302 9.6C163.537 9.152 163.654 8.62933 163.654 8.032C163.654 7.43467 163.537 6.912 163.302 6.464C163.068 6.016 162.748 5.66933 162.342 5.424C161.937 5.168 161.468 5.04 160.934 5.04C160.401 5.04 159.932 5.168 159.526 5.424C159.121 5.66933 158.801 6.016 158.566 6.464C158.332 6.912 158.214 7.43467 158.214 8.032C158.214 8.62933 158.332 9.152 158.566 9.6C158.801 10.048 159.121 10.4 159.526 10.656C159.932 10.9013 160.401 11.024 160.934 11.024ZM170.453 12.192C169.696 12.192 169.024 12.0213 168.437 11.68C167.851 11.328 167.387 10.8427 167.045 10.224C166.715 9.60533 166.549 8.87467 166.549 8.032C166.549 7.2 166.715 6.47467 167.045 5.856C167.376 5.22667 167.835 4.74133 168.421 4.4C169.019 4.048 169.707 3.872 170.485 3.872C171.253 3.872 171.915 4.048 172.469 4.4C173.035 4.74133 173.467 5.19467 173.765 5.76C174.064 6.32533 174.213 6.93333 174.213 7.584C174.213 7.70133 174.208 7.81867 174.197 7.936C174.197 8.05333 174.197 8.18667 174.197 8.336H167.877C167.909 8.944 168.048 9.45067 168.293 9.856C168.549 10.2507 168.864 10.5493 169.237 10.752C169.621 10.9547 170.027 11.056 170.453 11.056C171.008 11.056 171.472 10.928 171.845 10.672C172.219 10.416 172.491 10.0693 172.661 9.632H173.989C173.776 10.368 173.365 10.9813 172.757 11.472C172.16 11.952 171.392 12.192 170.453 12.192ZM170.453 5.008C169.813 5.008 169.243 5.20533 168.741 5.6C168.251 5.984 167.968 6.54933 167.893 7.296H172.885C172.853 6.58133 172.608 6.02133 172.149 5.616C171.691 5.21067 171.125 5.008 170.453 5.008ZM175.995 12V4.064H177.211L177.323 5.584C177.568 5.06133 177.941 4.64533 178.443 4.336C178.944 4.02667 179.563 3.872 180.299 3.872V5.28H179.931C179.461 5.28 179.029 5.36533 178.635 5.536C178.24 5.696 177.925 5.97333 177.691 6.368C177.456 6.76267 177.339 7.30667 177.339 8V12H175.995ZM189.69 12.192C188.932 12.192 188.25 12.0213 187.642 11.68C187.044 11.328 186.57 10.8427 186.218 10.224C185.876 9.59467 185.706 8.864 185.706 8.032C185.706 7.2 185.876 6.47467 186.218 5.856C186.57 5.22667 187.044 4.74133 187.642 4.4C188.25 4.048 188.932 3.872 189.69 3.872C190.628 3.872 191.418 4.11733 192.058 4.608C192.708 5.09867 193.119 5.75467 193.29 6.576H191.914C191.807 6.08533 191.546 5.70667 191.13 5.44C190.714 5.16267 190.228 5.024 189.674 5.024C189.226 5.024 188.804 5.136 188.41 5.36C188.015 5.584 187.695 5.92 187.45 6.368C187.204 6.816 187.082 7.37067 187.082 8.032C187.082 8.69333 187.204 9.248 187.45 9.696C187.695 10.144 188.015 10.4853 188.41 10.72C188.804 10.944 189.226 11.056 189.674 11.056C190.228 11.056 190.714 10.9227 191.13 10.656C191.546 10.3787 191.807 9.98933 191.914 9.488H193.29C193.13 10.288 192.724 10.9387 192.074 11.44C191.423 11.9413 190.628 12.192 189.69 12.192ZM202.111 4.064V12H200.895L200.815 10.576C200.559 11.0773 200.191 11.472 199.711 11.76C199.231 12.048 198.687 12.192 198.079 12.192C197.14 12.192 196.388 11.9093 195.823 11.344C195.268 10.768 194.991 9.888 194.991 8.704V4.064H196.335V8.56C196.335 10.2133 197.017 11.04 198.383 11.04C199.065 11.04 199.631 10.7947 200.079 10.304C200.537 9.80267 200.767 9.09333 200.767 8.176V4.064H202.111ZM203.251 13.904L204.179 10.368H205.571L204.179 13.904H203.251ZM214.969 12.192C214.212 12.192 213.54 12.0213 212.953 11.68C212.366 11.328 211.902 10.8427 211.561 10.224C211.23 9.60533 211.065 8.87467 211.065 8.032C211.065 7.2 211.23 6.47467 211.561 5.856C211.892 5.22667 212.35 4.74133 212.937 4.4C213.534 4.048 214.222 3.872 215.001 3.872C215.769 3.872 216.43 4.048 216.985 4.4C217.55 4.74133 217.982 5.19467 218.281 5.76C218.58 6.32533 218.729 6.93333 218.729 7.584C218.729 7.70133 218.724 7.81867 218.713 7.936C218.713 8.05333 218.713 8.18667 218.713 8.336H212.393C212.425 8.944 212.564 9.45067 212.809 9.856C213.065 10.2507 213.38 10.5493 213.753 10.752C214.137 10.9547 214.542 11.056 214.969 11.056C215.524 11.056 215.988 10.928 216.361 10.672C216.734 10.416 217.006 10.0693 217.177 9.632H218.505C218.292 10.368 217.881 10.9813 217.273 11.472C216.676 11.952 215.908 12.192 214.969 12.192ZM214.969 5.008C214.329 5.008 213.758 5.20533 213.257 5.6C212.766 5.984 212.484 6.54933 212.409 7.296H217.401C217.369 6.58133 217.124 6.02133 216.665 5.616C216.206 5.21067 215.641 5.008 214.969 5.008ZM224.126 12.192C223.38 12.192 222.708 12.0213 222.11 11.68C221.513 11.3387 221.038 10.8587 220.686 10.24C220.345 9.61067 220.174 8.87467 220.174 8.032C220.174 7.18933 220.35 6.45867 220.702 5.84C221.054 5.21067 221.529 4.72533 222.126 4.384C222.734 4.04267 223.412 3.872 224.158 3.872C224.905 3.872 225.577 4.04267 226.174 4.384C226.772 4.72533 227.241 5.21067 227.582 5.84C227.934 6.45867 228.11 7.18933 228.11 8.032C228.11 8.87467 227.934 9.61067 227.582 10.24C227.23 10.8587 226.75 11.3387 226.142 11.68C225.545 12.0213 224.873 12.192 224.126 12.192ZM224.126 11.04C224.585 11.04 225.012 10.928 225.406 10.704C225.801 10.48 226.121 10.144 226.366 9.696C226.612 9.248 226.734 8.69333 226.734 8.032C226.734 7.37067 226.612 6.816 226.366 6.368C226.132 5.92 225.817 5.584 225.422 5.36C225.028 5.136 224.606 5.024 224.158 5.024C223.7 5.024 223.273 5.136 222.878 5.36C222.484 5.584 222.164 5.92 221.918 6.368C221.673 6.816 221.55 7.37067 221.55 8.032C221.55 8.69333 221.673 9.248 221.918 9.696C222.164 10.144 222.478 10.48 222.862 10.704C223.257 10.928 223.678 11.04 224.126 11.04ZM233.019 12.192C232.07 12.192 231.28 11.952 230.651 11.472C230.022 10.992 229.654 10.3413 229.547 9.52H230.923C231.008 9.936 231.227 10.2987 231.579 10.608C231.942 10.9067 232.427 11.056 233.035 11.056C233.6 11.056 234.016 10.9387 234.283 10.704C234.55 10.4587 234.683 10.1707 234.683 9.84C234.683 9.36 234.507 9.04 234.155 8.88C233.814 8.72 233.328 8.576 232.699 8.448C232.272 8.36267 231.846 8.24 231.419 8.08C230.992 7.92 230.635 7.696 230.347 7.408C230.059 7.10933 229.915 6.72 229.915 6.24C229.915 5.54667 230.171 4.98133 230.683 4.544C231.206 4.096 231.91 3.872 232.795 3.872C233.638 3.872 234.326 4.08533 234.859 4.512C235.403 4.928 235.718 5.52533 235.803 6.304H234.475C234.422 5.89867 234.246 5.584 233.947 5.36C233.659 5.12533 233.27 5.008 232.779 5.008C232.299 5.008 231.926 5.10933 231.659 5.312C231.403 5.51467 231.275 5.78133 231.275 6.112C231.275 6.432 231.44 6.68267 231.771 6.864C232.112 7.04533 232.571 7.2 233.147 7.328C233.638 7.43467 234.102 7.568 234.539 7.728C234.987 7.87733 235.35 8.10667 235.627 8.416C235.915 8.71467 236.059 9.152 236.059 9.728C236.07 10.4427 235.798 11.0347 235.243 11.504C234.699 11.9627 233.958 12.192 233.019 12.192ZM0.104 36V28.064H1.32L1.416 29.216C1.672 28.7893 2.01333 28.4587 2.44 28.224C2.86667 27.9893 3.34667 27.872 3.88 27.872C4.50933 27.872 5.048 28 5.496 28.256C5.95467 28.512 6.30667 28.9013 6.552 29.424C6.82933 28.944 7.208 28.5653 7.688 28.288C8.17867 28.0107 8.70667 27.872 9.272 27.872C10.2213 27.872 10.9787 28.16 11.544 28.736C12.1093 29.3013 12.392 30.176 12.392 31.36V36H11.064V31.504C11.064 30.6827 10.8987 30.064 10.568 29.648C10.2373 29.232 9.76267 29.024 9.144 29.024C8.504 29.024 7.97067 29.2747 7.544 29.776C7.128 30.2667 6.92 30.9707 6.92 31.888V36H5.576V31.504C5.576 30.6827 5.41067 30.064 5.08 29.648C4.74933 29.232 4.27467 29.024 3.656 29.024C3.02667 29.024 2.49867 29.2747 2.072 29.776C1.656 30.2667 1.448 30.9707 1.448 31.888V36H0.104ZM17.0565 36.192C16.3952 36.192 15.8458 36.08 15.4085 35.856C14.9712 35.632 14.6458 35.3333 14.4325 34.96C14.2192 34.5867 14.1125 34.1813 14.1125 33.744C14.1125 32.9333 14.4218 32.3093 15.0405 31.872C15.6592 31.4347 16.5018 31.216 17.5685 31.216H19.7125V31.12C19.7125 30.4267 19.5312 29.904 19.1685 29.552C18.8058 29.1893 18.3205 29.008 17.7125 29.008C17.1898 29.008 16.7365 29.1413 16.3525 29.408C15.9792 29.664 15.7445 30.0427 15.6485 30.544H14.2725C14.3258 29.968 14.5178 29.4827 14.8485 29.088C15.1898 28.6933 15.6112 28.3947 16.1125 28.192C16.6138 27.9787 17.1472 27.872 17.7125 27.872C18.8218 27.872 19.6538 28.1707 20.2085 28.768C20.7738 29.3547 21.0565 30.1387 21.0565 31.12V36H19.8565L19.7765 34.576C19.5525 35.024 19.2218 35.408 18.7845 35.728C18.3578 36.0373 17.7818 36.192 17.0565 36.192ZM17.2645 35.056C17.7765 35.056 18.2138 34.9227 18.5765 34.656C18.9498 34.3893 19.2325 34.0427 19.4245 33.616C19.6165 33.1893 19.7125 32.7413 19.7125 32.272V32.256H17.6805C16.8912 32.256 16.3312 32.3947 16.0005 32.672C15.6805 32.9387 15.5205 33.2747 15.5205 33.68C15.5205 34.096 15.6698 34.432 15.9685 34.688C16.2778 34.9333 16.7098 35.056 17.2645 35.056ZM23.0728 36V24.48H24.4168V36H23.0728ZM30.2356 36.192C29.489 36.192 28.817 36.0213 28.2196 35.68C27.6223 35.3387 27.1476 34.8587 26.7956 34.24C26.4543 33.6107 26.2836 32.8747 26.2836 32.032C26.2836 31.1893 26.4596 30.4587 26.8116 29.84C27.1636 29.2107 27.6383 28.7253 28.2356 28.384C28.8436 28.0427 29.521 27.872 30.2676 27.872C31.0143 27.872 31.6863 28.0427 32.2836 28.384C32.881 28.7253 33.3503 29.2107 33.6916 29.84C34.0436 30.4587 34.2196 31.1893 34.2196 32.032C34.2196 32.8747 34.0436 33.6107 33.6916 34.24C33.3396 34.8587 32.8596 35.3387 32.2516 35.68C31.6543 36.0213 30.9823 36.192 30.2356 36.192ZM30.2356 35.04C30.6943 35.04 31.121 34.928 31.5156 34.704C31.9103 34.48 32.2303 34.144 32.4756 33.696C32.721 33.248 32.8436 32.6933 32.8436 32.032C32.8436 31.3707 32.721 30.816 32.4756 30.368C32.241 29.92 31.9263 29.584 31.5316 29.36C31.137 29.136 30.7156 29.024 30.2676 29.024C29.809 29.024 29.3823 29.136 28.9876 29.36C28.593 29.584 28.273 29.92 28.0276 30.368C27.7823 30.816 27.6596 31.3707 27.6596 32.032C27.6596 32.6933 27.7823 33.248 28.0276 33.696C28.273 34.144 28.5876 34.48 28.9716 34.704C29.3663 34.928 29.7876 35.04 30.2356 35.04ZM36.0884 36V28.064H37.3044L37.4164 29.584C37.6617 29.0613 38.035 28.6453 38.5364 28.336C39.0377 28.0267 39.6564 27.872 40.3924 27.872V29.28H40.0244C39.555 29.28 39.123 29.3653 38.7284 29.536C38.3337 29.696 38.019 29.9733 37.7844 30.368C37.5497 30.7627 37.4324 31.3067 37.4324 32V36H36.0884ZM48.8449 28.064V36H47.6289L47.5489 34.576C47.2929 35.0773 46.9249 35.472 46.4449 35.76C45.9649 36.048 45.4209 36.192 44.8129 36.192C43.8742 36.192 43.1222 35.9093 42.5569 35.344C42.0022 34.768 41.7249 33.888 41.7249 32.704V28.064H43.0689V32.56C43.0689 34.2133 43.7515 35.04 45.1169 35.04C45.7995 35.04 46.3649 34.7947 46.8129 34.304C47.2715 33.8027 47.5009 33.0933 47.5009 32.176V28.064H48.8449ZM51.0571 36V28.064H52.2731L52.3691 29.216C52.6251 28.7893 52.9665 28.4587 53.3931 28.224C53.8198 27.9893 54.2998 27.872 54.8331 27.872C55.4625 27.872 56.0011 28 56.4491 28.256C56.9078 28.512 57.2598 28.9013 57.5051 29.424C57.7825 28.944 58.1611 28.5653 58.6411 28.288C59.1318 28.0107 59.6598 27.872 60.2251 27.872C61.1745 27.872 61.9318 28.16 62.4971 28.736C63.0625 29.3013 63.3451 30.176 63.3451 31.36V36H62.0171V31.504C62.0171 30.6827 61.8518 30.064 61.5211 29.648C61.1905 29.232 60.7158 29.024 60.0971 29.024C59.4571 29.024 58.9238 29.2747 58.4971 29.776C58.0811 30.2667 57.8731 30.9707 57.8731 31.888V36H56.5291V31.504C56.5291 30.6827 56.3638 30.064 56.0331 29.648C55.7025 29.232 55.2278 29.024 54.6091 29.024C53.9798 29.024 53.4518 29.2747 53.0251 29.776C52.6091 30.2667 52.4011 30.9707 52.4011 31.888V36H51.0571ZM71.892 36L68.884 28.064H70.292L72.676 34.704L75.076 28.064H76.452L73.444 36H71.892ZM81.1575 36.192C80.4108 36.192 79.7388 36.0213 79.1415 35.68C78.5442 35.3387 78.0695 34.8587 77.7175 34.24C77.3762 33.6107 77.2055 32.8747 77.2055 32.032C77.2055 31.1893 77.3815 30.4587 77.7335 29.84C78.0855 29.2107 78.5602 28.7253 79.1575 28.384C79.7655 28.0427 80.4428 27.872 81.1895 27.872C81.9362 27.872 82.6082 28.0427 83.2055 28.384C83.8028 28.7253 84.2722 29.2107 84.6135 29.84C84.9655 30.4587 85.1415 31.1893 85.1415 32.032C85.1415 32.8747 84.9655 33.6107 84.6135 34.24C84.2615 34.8587 83.7815 35.3387 83.1735 35.68C82.5762 36.0213 81.9042 36.192 81.1575 36.192ZM81.1575 35.04C81.6162 35.04 82.0428 34.928 82.4375 34.704C82.8322 34.48 83.1522 34.144 83.3975 33.696C83.6428 33.248 83.7655 32.6933 83.7655 32.032C83.7655 31.3707 83.6428 30.816 83.3975 30.368C83.1628 29.92 82.8482 29.584 82.4535 29.36C82.0588 29.136 81.6375 29.024 81.1895 29.024C80.7308 29.024 80.3042 29.136 79.9095 29.36C79.5148 29.584 79.1948 29.92 78.9495 30.368C78.7042 30.816 78.5815 31.3707 78.5815 32.032C78.5815 32.6933 78.7042 33.248 78.9495 33.696C79.1948 34.144 79.5095 34.48 79.8935 34.704C80.2882 34.928 80.7095 35.04 81.1575 35.04ZM87.0103 36V24.48H88.3543V36H87.0103ZM97.5011 28.064V36H96.2851L96.2051 34.576C95.9491 35.0773 95.5811 35.472 95.1011 35.76C94.6211 36.048 94.0771 36.192 93.4691 36.192C92.5305 36.192 91.7785 35.9093 91.2131 35.344C90.6585 34.768 90.3811 33.888 90.3811 32.704V28.064H91.7251V32.56C91.7251 34.2133 92.4078 35.04 93.7731 35.04C94.4558 35.04 95.0211 34.7947 95.4691 34.304C95.9278 33.8027 96.1571 33.0933 96.1571 32.176V28.064H97.5011ZM99.7134 39.52V28.064H100.929L101.057 29.376C101.313 28.992 101.676 28.6453 102.145 28.336C102.625 28.0267 103.233 27.872 103.969 27.872C104.759 27.872 105.447 28.0533 106.033 28.416C106.62 28.7787 107.073 29.2747 107.393 29.904C107.724 30.5333 107.889 31.248 107.889 32.048C107.889 32.848 107.724 33.5627 107.393 34.192C107.073 34.8107 106.615 35.3013 106.017 35.664C105.431 36.016 104.743 36.192 103.953 36.192C103.303 36.192 102.721 36.0587 102.209 35.792C101.708 35.5253 101.324 35.152 101.057 34.672V39.52H99.7134ZM103.809 35.024C104.343 35.024 104.812 34.9013 105.217 34.656C105.623 34.4 105.943 34.048 106.177 33.6C106.412 33.152 106.529 32.6293 106.529 32.032C106.529 31.4347 106.412 30.912 106.177 30.464C105.943 30.016 105.623 29.6693 105.217 29.424C104.812 29.168 104.343 29.04 103.809 29.04C103.276 29.04 102.807 29.168 102.401 29.424C101.996 29.6693 101.676 30.016 101.441 30.464C101.207 30.912 101.089 31.4347 101.089 32.032C101.089 32.6293 101.207 33.152 101.441 33.6C101.676 34.048 101.996 34.4 102.401 34.656C102.807 34.9013 103.276 35.024 103.809 35.024ZM112.584 36C111.858 36 111.288 35.824 110.872 35.472C110.456 35.12 110.248 34.4853 110.248 33.568V29.2H108.872V28.064H110.248L110.424 26.16H111.592V28.064H113.928V29.2H111.592V33.568C111.592 34.0693 111.693 34.4107 111.896 34.592C112.098 34.7627 112.456 34.848 112.968 34.848H113.8V36H112.584ZM118.275 36.192C117.614 36.192 117.065 36.08 116.627 35.856C116.19 35.632 115.865 35.3333 115.651 34.96C115.438 34.5867 115.331 34.1813 115.331 33.744C115.331 32.9333 115.641 32.3093 116.259 31.872C116.878 31.4347 117.721 31.216 118.787 31.216H120.931V31.12C120.931 30.4267 120.75 29.904 120.387 29.552C120.025 29.1893 119.539 29.008 118.931 29.008C118.409 29.008 117.955 29.1413 117.571 29.408C117.198 29.664 116.963 30.0427 116.867 30.544H115.491C115.545 29.968 115.737 29.4827 116.067 29.088C116.409 28.6933 116.83 28.3947 117.331 28.192C117.833 27.9787 118.366 27.872 118.931 27.872C120.041 27.872 120.873 28.1707 121.427 28.768C121.993 29.3547 122.275 30.1387 122.275 31.12V36H121.075L120.995 34.576C120.771 35.024 120.441 35.408 120.003 35.728C119.577 36.0373 119.001 36.192 118.275 36.192ZM118.483 35.056C118.995 35.056 119.433 34.9227 119.795 34.656C120.169 34.3893 120.451 34.0427 120.643 33.616C120.835 33.1893 120.931 32.7413 120.931 32.272V32.256H118.899C118.11 32.256 117.55 32.3947 117.219 32.672C116.899 32.9387 116.739 33.2747 116.739 33.68C116.739 34.096 116.889 34.432 117.187 34.688C117.497 34.9333 117.929 35.056 118.483 35.056ZM124.292 36V28.064H125.508L125.62 29.584C125.865 29.0613 126.238 28.6453 126.74 28.336C127.241 28.0267 127.86 27.872 128.596 27.872V29.28H128.228C127.758 29.28 127.326 29.3653 126.932 29.536C126.537 29.696 126.222 29.9733 125.988 30.368C125.753 30.7627 125.636 31.3067 125.636 32V36H124.292ZM130.92 26.304C130.653 26.304 130.429 26.2187 130.248 26.048C130.077 25.8667 129.992 25.6427 129.992 25.376C129.992 25.12 130.077 24.9067 130.248 24.736C130.429 24.5653 130.653 24.48 130.92 24.48C131.176 24.48 131.395 24.5653 131.576 24.736C131.757 24.9067 131.848 25.12 131.848 25.376C131.848 25.6427 131.757 25.8667 131.576 26.048C131.395 26.2187 131.176 26.304 130.92 26.304ZM130.248 36V28.064H131.592V36H130.248ZM136.572 36.192C135.911 36.192 135.361 36.08 134.924 35.856C134.487 35.632 134.161 35.3333 133.948 34.96C133.735 34.5867 133.628 34.1813 133.628 33.744C133.628 32.9333 133.937 32.3093 134.556 31.872C135.175 31.4347 136.017 31.216 137.084 31.216H139.228V31.12C139.228 30.4267 139.047 29.904 138.684 29.552C138.321 29.1893 137.836 29.008 137.228 29.008C136.705 29.008 136.252 29.1413 135.868 29.408C135.495 29.664 135.26 30.0427 135.164 30.544H133.788C133.841 29.968 134.033 29.4827 134.364 29.088C134.705 28.6933 135.127 28.3947 135.628 28.192C136.129 27.9787 136.663 27.872 137.228 27.872C138.337 27.872 139.169 28.1707 139.724 28.768C140.289 29.3547 140.572 30.1387 140.572 31.12V36H139.372L139.292 34.576C139.068 35.024 138.737 35.408 138.3 35.728C137.873 36.0373 137.297 36.192 136.572 36.192ZM136.78 35.056C137.292 35.056 137.729 34.9227 138.092 34.656C138.465 34.3893 138.748 34.0427 138.94 33.616C139.132 33.1893 139.228 32.7413 139.228 32.272V32.256H137.196C136.407 32.256 135.847 32.3947 135.516 32.672C135.196 32.9387 135.036 33.2747 135.036 33.68C135.036 34.096 135.185 34.432 135.484 34.688C135.793 34.9333 136.225 35.056 136.78 35.056ZM150.391 36.192C149.633 36.192 148.961 36.0213 148.375 35.68C147.788 35.328 147.324 34.8427 146.983 34.224C146.652 33.6053 146.487 32.8747 146.487 32.032C146.487 31.2 146.652 30.4747 146.983 29.856C147.313 29.2267 147.772 28.7413 148.359 28.4C148.956 28.048 149.644 27.872 150.423 27.872C151.191 27.872 151.852 28.048 152.407 28.4C152.972 28.7413 153.404 29.1947 153.703 29.76C154.001 30.3253 154.151 30.9333 154.151 31.584C154.151 31.7013 154.145 31.8187 154.135 31.936C154.135 32.0533 154.135 32.1867 154.135 32.336H147.815C147.847 32.944 147.985 33.4507 148.231 33.856C148.487 34.2507 148.801 34.5493 149.175 34.752C149.559 34.9547 149.964 35.056 150.391 35.056C150.945 35.056 151.409 34.928 151.783 34.672C152.156 34.416 152.428 34.0693 152.599 33.632H153.927C153.713 34.368 153.303 34.9813 152.695 35.472C152.097 35.952 151.329 36.192 150.391 36.192ZM150.391 29.008C149.751 29.008 149.18 29.2053 148.679 29.6C148.188 29.984 147.905 30.5493 147.831 31.296H152.823C152.791 30.5813 152.545 30.0213 152.087 29.616C151.628 29.2107 151.063 29.008 150.391 29.008ZM156.748 26.304C156.481 26.304 156.257 26.2187 156.076 26.048C155.905 25.8667 155.82 25.6427 155.82 25.376C155.82 25.12 155.905 24.9067 156.076 24.736C156.257 24.5653 156.481 24.48 156.748 24.48C157.004 24.48 157.223 24.5653 157.404 24.736C157.585 24.9067 157.676 25.12 157.676 25.376C157.676 25.6427 157.585 25.8667 157.404 26.048C157.223 26.2187 157.004 26.304 156.748 26.304ZM156.076 36V28.064H157.42V36H156.076ZM160.224 36.08C159.958 36.08 159.734 35.9947 159.552 35.824C159.382 35.6427 159.296 35.424 159.296 35.168C159.296 34.912 159.382 34.6987 159.552 34.528C159.734 34.3467 159.958 34.256 160.224 34.256C160.48 34.256 160.694 34.3467 160.864 34.528C161.046 34.6987 161.136 34.912 161.136 35.168C161.136 35.424 161.046 35.6427 160.864 35.824C160.694 35.9947 160.48 36.08 160.224 36.08Z" fill="black" fill-opacity="0.5"/>
</svg>
