<svg width="454" height="84" viewBox="0 0 454 84" fill="none" xmlns="http://www.w3.org/2000/svg">
<path d="M1.48 15V0.999999H3.44L8.48 10.76L13.48 0.999999H15.46V15H13.78V4L9.1 13H7.84L3.16 4.02V15H1.48ZM22.7736 15.24C21.8269 15.24 20.9869 15.0267 20.2536 14.6C19.5203 14.16 18.9403 13.5533 18.5136 12.78C18.1003 12.0067 17.8936 11.0933 17.8936 10.04C17.8936 9 18.1003 8.09333 18.5136 7.32C18.9269 6.53333 19.5003 5.92667 20.2336 5.5C20.9803 5.06 21.8403 4.84 22.8136 4.84C23.7736 4.84 24.6003 5.06 25.2936 5.5C26.0003 5.92667 26.5403 6.49333 26.9136 7.2C27.2869 7.90667 27.4736 8.66667 27.4736 9.48C27.4736 9.62667 27.4669 9.77333 27.4536 9.92C27.4536 10.0667 27.4536 10.2333 27.4536 10.42H19.5536C19.5936 11.18 19.7669 11.8133 20.0736 12.32C20.3936 12.8133 20.7869 13.1867 21.2536 13.44C21.7336 13.6933 22.2403 13.82 22.7736 13.82C23.4669 13.82 24.0469 13.66 24.5136 13.34C24.9803 13.02 25.3203 12.5867 25.5336 12.04H27.1936C26.9269 12.96 26.4136 13.7267 25.6536 14.34C24.9069 14.94 23.9469 15.24 22.7736 15.24ZM22.7736 6.26C21.9736 6.26 21.2603 6.50667 20.6336 7C20.0203 7.48 19.6669 8.18667 19.5736 9.12H25.8136C25.7736 8.22667 25.4669 7.52667 24.8936 7.02C24.3203 6.51333 23.6136 6.26 22.7736 6.26ZM33.0003 15.24C32.1736 15.24 31.487 15.1 30.9403 14.82C30.3936 14.54 29.987 14.1667 29.7203 13.7C29.4536 13.2333 29.3203 12.7267 29.3203 12.18C29.3203 11.1667 29.707 10.3867 30.4803 9.84C31.2536 9.29333 32.307 9.02 33.6403 9.02H36.3203V8.9C36.3203 8.03333 36.0936 7.38 35.6403 6.94C35.187 6.48667 34.5803 6.26 33.8203 6.26C33.167 6.26 32.6003 6.42667 32.1203 6.76C31.6536 7.08 31.3603 7.55333 31.2403 8.18H29.5203C29.587 7.46 29.827 6.85333 30.2403 6.36C30.667 5.86667 31.1936 5.49333 31.8203 5.24C32.447 4.97333 33.1136 4.84 33.8203 4.84C35.207 4.84 36.247 5.21333 36.9403 5.96C37.647 6.69333 38.0003 7.67333 38.0003 8.9V15H36.5003L36.4003 13.22C36.1203 13.78 35.707 14.26 35.1603 14.66C34.627 15.0467 33.907 15.24 33.0003 15.24ZM33.2603 13.82C33.9003 13.82 34.447 13.6533 34.9003 13.32C35.367 12.9867 35.7203 12.5533 35.9603 12.02C36.2003 11.4867 36.3203 10.9267 36.3203 10.34V10.32H33.7803C32.7936 10.32 32.0936 10.4933 31.6803 10.84C31.2803 11.1733 31.0803 11.5933 31.0803 12.1C31.0803 12.62 31.267 13.04 31.6403 13.36C32.027 13.6667 32.567 13.82 33.2603 13.82ZM49.1136 15.24C48.2869 15.24 47.6003 15.1 47.0536 14.82C46.5069 14.54 46.1003 14.1667 45.8336 13.7C45.5669 13.2333 45.4336 12.7267 45.4336 12.18C45.4336 11.1667 45.8203 10.3867 46.5936 9.84C47.3669 9.29333 48.4203 9.02 49.7536 9.02H52.4336V8.9C52.4336 8.03333 52.2069 7.38 51.7536 6.94C51.3003 6.48667 50.6936 6.26 49.9336 6.26C49.2803 6.26 48.7136 6.42667 48.2336 6.76C47.7669 7.08 47.4736 7.55333 47.3536 8.18H45.6336C45.7003 7.46 45.9403 6.85333 46.3536 6.36C46.7803 5.86667 47.3069 5.49333 47.9336 5.24C48.5603 4.97333 49.2269 4.84 49.9336 4.84C51.3203 4.84 52.3603 5.21333 53.0536 5.96C53.7603 6.69333 54.1136 7.67333 54.1136 8.9V15H52.6136L52.5136 13.22C52.2336 13.78 51.8203 14.26 51.2736 14.66C50.7403 15.0467 50.0203 15.24 49.1136 15.24ZM49.3736 13.82C50.0136 13.82 50.5603 13.6533 51.0136 13.32C51.4803 12.9867 51.8336 12.5533 52.0736 12.02C52.3136 11.4867 52.4336 10.9267 52.4336 10.34V10.32H49.8936C48.9069 10.32 48.2069 10.4933 47.7936 10.84C47.3936 11.1733 47.1936 11.5933 47.1936 12.1C47.1936 12.62 47.3803 13.04 47.7536 13.36C48.1403 13.6667 48.6803 13.82 49.3736 13.82ZM56.6339 15V5.08H58.1539L58.2539 6.86C58.5739 6.23333 59.0339 5.74 59.6339 5.38C60.2339 5.02 60.9139 4.84 61.6739 4.84C62.8472 4.84 63.7806 5.2 64.4739 5.92C65.1806 6.62667 65.5339 7.72 65.5339 9.2V15H63.8539V9.38C63.8539 7.31333 63.0006 6.28 61.2939 6.28C60.4406 6.28 59.7272 6.59333 59.1539 7.22C58.5939 7.83333 58.3139 8.71333 58.3139 9.86V15H56.6339ZM77.8722 15.24C76.8855 15.24 76.0189 15.0133 75.2722 14.56C74.5389 14.1067 73.9655 13.4867 73.5522 12.7C73.1522 11.9133 72.9522 11.02 72.9522 10.02C72.9522 9.02 73.1589 8.13333 73.5722 7.36C73.9855 6.57333 74.5589 5.96 75.2922 5.52C76.0255 5.06667 76.8922 4.84 77.8922 4.84C78.7055 4.84 79.4255 5.00667 80.0522 5.34C80.6789 5.67333 81.1655 6.14 81.5122 6.74V0.599999H83.1922V15H81.6722L81.5122 13.36C81.1922 13.84 80.7322 14.2733 80.1322 14.66C79.5322 15.0467 78.7789 15.24 77.8722 15.24ZM78.0522 13.78C78.7189 13.78 79.3055 13.6267 79.8122 13.32C80.3322 13 80.7322 12.56 81.0122 12C81.3055 11.44 81.4522 10.7867 81.4522 10.04C81.4522 9.29333 81.3055 8.64 81.0122 8.08C80.7322 7.52 80.3322 7.08667 79.8122 6.78C79.3055 6.46 78.7189 6.3 78.0522 6.3C77.3989 6.3 76.8122 6.46 76.2922 6.78C75.7855 7.08667 75.3855 7.52 75.0922 8.08C74.8122 8.64 74.6722 9.29333 74.6722 10.04C74.6722 10.7867 74.8122 11.44 75.0922 12C75.3855 12.56 75.7855 13 76.2922 13.32C76.8122 13.6267 77.3989 13.78 78.0522 13.78ZM90.3908 15.24C89.4441 15.24 88.6041 15.0267 87.8708 14.6C87.1374 14.16 86.5574 13.5533 86.1308 12.78C85.7174 12.0067 85.5108 11.0933 85.5108 10.04C85.5108 9 85.7174 8.09333 86.1308 7.32C86.5441 6.53333 87.1174 5.92667 87.8508 5.5C88.5974 5.06 89.4574 4.84 90.4308 4.84C91.3908 4.84 92.2174 5.06 92.9108 5.5C93.6174 5.92667 94.1574 6.49333 94.5308 7.2C94.9041 7.90667 95.0908 8.66667 95.0908 9.48C95.0908 9.62667 95.0841 9.77333 95.0708 9.92C95.0708 10.0667 95.0708 10.2333 95.0708 10.42H87.1708C87.2108 11.18 87.3841 11.8133 87.6908 12.32C88.0108 12.8133 88.4041 13.1867 88.8708 13.44C89.3508 13.6933 89.8574 13.82 90.3908 13.82C91.0841 13.82 91.6641 13.66 92.1308 13.34C92.5974 13.02 92.9374 12.5867 93.1508 12.04H94.8108C94.5441 12.96 94.0308 13.7267 93.2708 14.34C92.5241 14.94 91.5641 15.24 90.3908 15.24ZM90.3908 6.26C89.5908 6.26 88.8774 6.50667 88.2508 7C87.6374 7.48 87.2841 8.18667 87.1908 9.12H93.4308C93.3908 8.22667 93.0841 7.52667 92.5108 7.02C91.9374 6.51333 91.2308 6.26 90.3908 6.26ZM101.878 15.24C100.931 15.24 100.078 15.0267 99.3175 14.6C98.5708 14.16 97.9775 13.5533 97.5375 12.78C97.1108 11.9933 96.8975 11.08 96.8975 10.04C96.8975 9 97.1108 8.09333 97.5375 7.32C97.9775 6.53333 98.5708 5.92667 99.3175 5.5C100.078 5.06 100.931 4.84 101.878 4.84C103.051 4.84 104.038 5.14667 104.838 5.76C105.651 6.37333 106.164 7.19333 106.378 8.22H104.658C104.524 7.60667 104.198 7.13333 103.678 6.8C103.158 6.45333 102.551 6.28 101.858 6.28C101.298 6.28 100.771 6.42 100.278 6.7C99.7842 6.98 99.3842 7.4 99.0775 7.96C98.7708 8.52 98.6175 9.21333 98.6175 10.04C98.6175 10.8667 98.7708 11.56 99.0775 12.12C99.3842 12.68 99.7842 13.1067 100.278 13.4C100.771 13.68 101.298 13.82 101.858 13.82C102.551 13.82 103.158 13.6533 103.678 13.32C104.198 12.9733 104.524 12.4867 104.658 11.86H106.378C106.178 12.86 105.671 13.6733 104.858 14.3C104.044 14.9267 103.051 15.24 101.878 15.24ZM113.244 15.24C112.31 15.24 111.47 15.0267 110.724 14.6C109.977 14.1733 109.384 13.5733 108.944 12.8C108.517 12.0133 108.304 11.0933 108.304 10.04C108.304 8.98667 108.524 8.07333 108.964 7.3C109.404 6.51333 109.997 5.90667 110.744 5.48C111.504 5.05333 112.35 4.84 113.284 4.84C114.217 4.84 115.057 5.05333 115.804 5.48C116.55 5.90667 117.137 6.51333 117.564 7.3C118.004 8.07333 118.224 8.98667 118.224 10.04C118.224 11.0933 118.004 12.0133 117.564 12.8C117.124 13.5733 116.524 14.1733 115.764 14.6C115.017 15.0267 114.177 15.24 113.244 15.24ZM113.244 13.8C113.817 13.8 114.35 13.66 114.844 13.38C115.337 13.1 115.737 12.68 116.044 12.12C116.35 11.56 116.504 10.8667 116.504 10.04C116.504 9.21333 116.35 8.52 116.044 7.96C115.75 7.4 115.357 6.98 114.864 6.7C114.37 6.42 113.844 6.28 113.284 6.28C112.71 6.28 112.177 6.42 111.684 6.7C111.19 6.98 110.79 7.4 110.484 7.96C110.177 8.52 110.024 9.21333 110.024 10.04C110.024 10.8667 110.177 11.56 110.484 12.12C110.79 12.68 111.184 13.1 111.664 13.38C112.157 13.66 112.684 13.8 113.244 13.8ZM120.56 15V5.08H122.08L122.22 6.98C122.526 6.32667 122.993 5.80667 123.62 5.42C124.246 5.03333 125.02 4.84 125.94 4.84V6.6H125.48C124.893 6.6 124.353 6.70667 123.86 6.92C123.366 7.12 122.973 7.46667 122.68 7.96C122.386 8.45333 122.24 9.13333 122.24 10V15H120.56ZM131.914 15.24C130.968 15.24 130.128 15.0267 129.394 14.6C128.661 14.16 128.081 13.5533 127.654 12.78C127.241 12.0067 127.034 11.0933 127.034 10.04C127.034 9 127.241 8.09333 127.654 7.32C128.068 6.53333 128.641 5.92667 129.374 5.5C130.121 5.06 130.981 4.84 131.954 4.84C132.914 4.84 133.741 5.06 134.434 5.5C135.141 5.92667 135.681 6.49333 136.054 7.2C136.428 7.90667 136.614 8.66667 136.614 9.48C136.614 9.62667 136.608 9.77333 136.594 9.92C136.594 10.0667 136.594 10.2333 136.594 10.42H128.694C128.734 11.18 128.908 11.8133 129.214 12.32C129.534 12.8133 129.928 13.1867 130.394 13.44C130.874 13.6933 131.381 13.82 131.914 13.82C132.608 13.82 133.188 13.66 133.654 13.34C134.121 13.02 134.461 12.5867 134.674 12.04H136.334C136.068 12.96 135.554 13.7267 134.794 14.34C134.048 14.94 133.088 15.24 131.914 15.24ZM131.914 6.26C131.114 6.26 130.401 6.50667 129.774 7C129.161 7.48 128.808 8.18667 128.714 9.12H134.954C134.914 8.22667 134.608 7.52667 134.034 7.02C133.461 6.51333 132.754 6.26 131.914 6.26ZM146.994 15L143.234 5.08H144.994L147.974 13.38L150.974 5.08H152.694L148.934 15H146.994ZM158.516 15.24C157.569 15.24 156.729 15.0267 155.996 14.6C155.262 14.16 154.682 13.5533 154.256 12.78C153.842 12.0067 153.636 11.0933 153.636 10.04C153.636 9 153.842 8.09333 154.256 7.32C154.669 6.53333 155.242 5.92667 155.976 5.5C156.722 5.06 157.582 4.84 158.556 4.84C159.516 4.84 160.342 5.06 161.036 5.5C161.742 5.92667 162.282 6.49333 162.656 7.2C163.029 7.90667 163.216 8.66667 163.216 9.48C163.216 9.62667 163.209 9.77333 163.196 9.92C163.196 10.0667 163.196 10.2333 163.196 10.42H155.296C155.336 11.18 155.509 11.8133 155.816 12.32C156.136 12.8133 156.529 13.1867 156.996 13.44C157.476 13.6933 157.982 13.82 158.516 13.82C159.209 13.82 159.789 13.66 160.256 13.34C160.722 13.02 161.062 12.5867 161.276 12.04H162.936C162.669 12.96 162.156 13.7267 161.396 14.34C160.649 14.94 159.689 15.24 158.516 15.24ZM158.516 6.26C157.716 6.26 157.002 6.50667 156.376 7C155.762 7.48 155.409 8.18667 155.316 9.12H161.556C161.516 8.22667 161.209 7.52667 160.636 7.02C160.062 6.51333 159.356 6.26 158.516 6.26ZM165.443 15V5.08H166.963L167.103 6.98C167.409 6.32667 167.876 5.80667 168.503 5.42C169.129 5.03333 169.903 4.84 170.823 4.84V6.6H170.363C169.776 6.6 169.236 6.70667 168.743 6.92C168.249 7.12 167.856 7.46667 167.563 7.96C167.269 8.45333 167.123 9.13333 167.123 10V15H165.443ZM173.728 2.88C173.395 2.88 173.115 2.77333 172.888 2.56C172.675 2.33333 172.568 2.05333 172.568 1.72C172.568 1.4 172.675 1.13333 172.888 0.919999C173.115 0.706666 173.395 0.599999 173.728 0.599999C174.048 0.599999 174.321 0.706666 174.548 0.919999C174.775 1.13333 174.888 1.4 174.888 1.72C174.888 2.05333 174.775 2.33333 174.548 2.56C174.321 2.77333 174.048 2.88 173.728 2.88ZM172.888 15V5.08H174.568V15H172.888ZM181.413 15C180.507 15 179.793 14.78 179.273 14.34C178.753 13.9 178.493 13.1067 178.493 11.96V6.5H176.773V5.08H178.493L178.713 2.7H180.173V5.08H183.093V6.5H180.173V11.96C180.173 12.5867 180.3 13.0133 180.553 13.24C180.807 13.4533 181.253 13.56 181.893 13.56H182.933V15H181.413ZM193.908 5.08V15H192.388L192.288 13.22C191.968 13.8467 191.508 14.34 190.908 14.7C190.308 15.06 189.628 15.24 188.868 15.24C187.694 15.24 186.754 14.8867 186.048 14.18C185.354 13.46 185.008 12.36 185.008 10.88V5.08H186.688V10.7C186.688 12.7667 187.541 13.8 189.248 13.8C190.101 13.8 190.808 13.4933 191.368 12.88C191.941 12.2533 192.228 11.3667 192.228 10.22V5.08H193.908ZM200.473 15.24C199.286 15.24 198.3 14.94 197.513 14.34C196.726 13.74 196.266 12.9267 196.133 11.9H197.853C197.96 12.42 198.233 12.8733 198.673 13.26C199.126 13.6333 199.733 13.82 200.493 13.82C201.2 13.82 201.72 13.6733 202.053 13.38C202.386 13.0733 202.553 12.7133 202.553 12.3C202.553 11.7 202.333 11.3 201.893 11.1C201.466 10.9 200.86 10.72 200.073 10.56C199.54 10.4533 199.006 10.3 198.473 10.1C197.94 9.9 197.493 9.62 197.133 9.26C196.773 8.88667 196.593 8.4 196.593 7.8C196.593 6.93333 196.913 6.22667 197.553 5.68C198.206 5.12 199.086 4.84 200.193 4.84C201.246 4.84 202.106 5.10667 202.773 5.64C203.453 6.16 203.846 6.90667 203.953 7.88H202.293C202.226 7.37333 202.006 6.98 201.633 6.7C201.273 6.40667 200.786 6.26 200.173 6.26C199.573 6.26 199.106 6.38667 198.773 6.64C198.453 6.89333 198.293 7.22667 198.293 7.64C198.293 8.04 198.5 8.35333 198.913 8.58C199.34 8.80667 199.913 9 200.633 9.16C201.246 9.29333 201.826 9.46 202.373 9.66C202.933 9.84667 203.386 10.1333 203.733 10.52C204.093 10.8933 204.273 11.44 204.273 12.16C204.286 13.0533 203.946 13.7933 203.253 14.38C202.573 14.9533 201.646 15.24 200.473 15.24ZM211.966 19.4V5.08H213.486L213.646 6.72C213.966 6.24 214.419 5.80667 215.006 5.42C215.606 5.03333 216.366 4.84 217.286 4.84C218.273 4.84 219.133 5.06667 219.866 5.52C220.599 5.97333 221.166 6.59333 221.566 7.38C221.979 8.16667 222.186 9.06 222.186 10.06C222.186 11.06 221.979 11.9533 221.566 12.74C221.166 13.5133 220.593 14.1267 219.846 14.58C219.113 15.02 218.253 15.24 217.266 15.24C216.453 15.24 215.726 15.0733 215.086 14.74C214.459 14.4067 213.979 13.94 213.646 13.34V19.4H211.966ZM217.086 13.78C217.753 13.78 218.339 13.6267 218.846 13.32C219.353 13 219.753 12.56 220.046 12C220.339 11.44 220.486 10.7867 220.486 10.04C220.486 9.29333 220.339 8.64 220.046 8.08C219.753 7.52 219.353 7.08667 218.846 6.78C218.339 6.46 217.753 6.3 217.086 6.3C216.419 6.3 215.833 6.46 215.326 6.78C214.819 7.08667 214.419 7.52 214.126 8.08C213.833 8.64 213.686 9.29333 213.686 10.04C213.686 10.7867 213.833 11.44 214.126 12C214.419 12.56 214.819 13 215.326 13.32C215.833 13.6267 216.419 13.78 217.086 13.78ZM224.525 15V5.08H226.045L226.185 6.98C226.491 6.32667 226.958 5.80667 227.585 5.42C228.211 5.03333 228.985 4.84 229.905 4.84V6.6H229.445C228.858 6.6 228.318 6.70667 227.825 6.92C227.331 7.12 226.938 7.46667 226.645 7.96C226.351 8.45333 226.205 9.13333 226.205 10V15H224.525ZM235.939 15.24C235.006 15.24 234.166 15.0267 233.419 14.6C232.672 14.1733 232.079 13.5733 231.639 12.8C231.212 12.0133 230.999 11.0933 230.999 10.04C230.999 8.98667 231.219 8.07333 231.659 7.3C232.099 6.51333 232.692 5.90667 233.439 5.48C234.199 5.05333 235.046 4.84 235.979 4.84C236.912 4.84 237.752 5.05333 238.499 5.48C239.246 5.90667 239.832 6.51333 240.259 7.3C240.699 8.07333 240.919 8.98667 240.919 10.04C240.919 11.0933 240.699 12.0133 240.259 12.8C239.819 13.5733 239.219 14.1733 238.459 14.6C237.712 15.0267 236.872 15.24 235.939 15.24ZM235.939 13.8C236.512 13.8 237.046 13.66 237.539 13.38C238.032 13.1 238.432 12.68 238.739 12.12C239.046 11.56 239.199 10.8667 239.199 10.04C239.199 9.21333 239.046 8.52 238.739 7.96C238.446 7.4 238.052 6.98 237.559 6.7C237.066 6.42 236.539 6.28 235.979 6.28C235.406 6.28 234.872 6.42 234.379 6.7C233.886 6.98 233.486 7.4 233.179 7.96C232.872 8.52 232.719 9.21333 232.719 10.04C232.719 10.8667 232.872 11.56 233.179 12.12C233.486 12.68 233.879 13.1 234.359 13.38C234.852 13.66 235.379 13.8 235.939 13.8ZM248.555 15.24C247.742 15.24 247.015 15.0733 246.375 14.74C245.748 14.4067 245.268 13.94 244.935 13.34L244.775 15H243.255V0.599999H244.935V6.72C245.255 6.24 245.708 5.80667 246.295 5.42C246.895 5.03333 247.655 4.84 248.575 4.84C249.562 4.84 250.422 5.06667 251.155 5.52C251.888 5.97333 252.455 6.59333 252.855 7.38C253.268 8.16667 253.475 9.06 253.475 10.06C253.475 11.06 253.268 11.9533 252.855 12.74C252.455 13.5133 251.882 14.1267 251.135 14.58C250.402 15.02 249.542 15.24 248.555 15.24ZM248.375 13.78C249.042 13.78 249.628 13.6267 250.135 13.32C250.642 13 251.042 12.56 251.335 12C251.628 11.44 251.775 10.7867 251.775 10.04C251.775 9.29333 251.628 8.64 251.335 8.08C251.042 7.52 250.642 7.08667 250.135 6.78C249.628 6.46 249.042 6.3 248.375 6.3C247.708 6.3 247.122 6.46 246.615 6.78C246.108 7.08667 245.708 7.52 245.415 8.08C245.122 8.64 244.975 9.29333 244.975 10.04C244.975 10.7867 245.122 11.44 245.415 12C245.708 12.56 246.108 13 246.615 13.32C247.122 13.6267 247.708 13.78 248.375 13.78ZM259.114 15.24C258.287 15.24 257.6 15.1 257.054 14.82C256.507 14.54 256.1 14.1667 255.834 13.7C255.567 13.2333 255.434 12.7267 255.434 12.18C255.434 11.1667 255.82 10.3867 256.594 9.84C257.367 9.29333 258.42 9.02 259.754 9.02H262.434V8.9C262.434 8.03333 262.207 7.38 261.754 6.94C261.3 6.48667 260.694 6.26 259.934 6.26C259.28 6.26 258.714 6.42667 258.234 6.76C257.767 7.08 257.474 7.55333 257.354 8.18H255.634C255.7 7.46 255.94 6.85333 256.354 6.36C256.78 5.86667 257.307 5.49333 257.934 5.24C258.56 4.97333 259.227 4.84 259.934 4.84C261.32 4.84 262.36 5.21333 263.054 5.96C263.76 6.69333 264.114 7.67333 264.114 8.9V15H262.614L262.514 13.22C262.234 13.78 261.82 14.26 261.274 14.66C260.74 15.0467 260.02 15.24 259.114 15.24ZM259.374 13.82C260.014 13.82 260.56 13.6533 261.014 13.32C261.48 12.9867 261.834 12.5533 262.074 12.02C262.314 11.4867 262.434 10.9267 262.434 10.34V10.32H259.894C258.907 10.32 258.207 10.4933 257.794 10.84C257.394 11.1733 257.194 11.5933 257.194 12.1C257.194 12.62 257.38 13.04 257.754 13.36C258.14 13.6667 258.68 13.82 259.374 13.82ZM270.28 15C269.374 15 268.66 14.78 268.14 14.34C267.62 13.9 267.36 13.1067 267.36 11.96V6.5H265.64V5.08H267.36L267.58 2.7H269.04V5.08H271.96V6.5H269.04V11.96C269.04 12.5867 269.167 13.0133 269.42 13.24C269.674 13.4533 270.12 13.56 270.76 13.56H271.8V15H270.28ZM282.775 5.08V15H281.255L281.155 13.22C280.835 13.8467 280.375 14.34 279.775 14.7C279.175 15.06 278.495 15.24 277.735 15.24C276.562 15.24 275.622 14.8867 274.915 14.18C274.222 13.46 273.875 12.36 273.875 10.88V5.08H275.555V10.7C275.555 12.7667 276.408 13.8 278.115 13.8C278.968 13.8 279.675 13.4933 280.235 12.88C280.808 12.2533 281.095 11.3667 281.095 10.22V5.08H282.775ZM289.34 15.24C288.153 15.24 287.167 14.94 286.38 14.34C285.593 13.74 285.133 12.9267 285 11.9H286.72C286.827 12.42 287.1 12.8733 287.54 13.26C287.993 13.6333 288.6 13.82 289.36 13.82C290.067 13.82 290.587 13.6733 290.92 13.38C291.253 13.0733 291.42 12.7133 291.42 12.3C291.42 11.7 291.2 11.3 290.76 11.1C290.333 10.9 289.727 10.72 288.94 10.56C288.407 10.4533 287.873 10.3 287.34 10.1C286.807 9.9 286.36 9.62 286 9.26C285.64 8.88667 285.46 8.4 285.46 7.8C285.46 6.93333 285.78 6.22667 286.42 5.68C287.073 5.12 287.953 4.84 289.06 4.84C290.113 4.84 290.973 5.10667 291.64 5.64C292.32 6.16 292.713 6.90667 292.82 7.88H291.16C291.093 7.37333 290.873 6.98 290.5 6.7C290.14 6.40667 289.653 6.26 289.04 6.26C288.44 6.26 287.973 6.38667 287.64 6.64C287.32 6.89333 287.16 7.22667 287.16 7.64C287.16 8.04 287.367 8.35333 287.78 8.58C288.207 8.80667 288.78 9 289.5 9.16C290.113 9.29333 290.693 9.46 291.24 9.66C291.8 9.84667 292.253 10.1333 292.6 10.52C292.96 10.8933 293.14 11.44 293.14 12.16C293.153 13.0533 292.813 13.7933 292.12 14.38C291.44 14.9533 290.513 15.24 289.34 15.24ZM296.12 15.1C295.787 15.1 295.507 14.9933 295.28 14.78C295.067 14.5533 294.96 14.28 294.96 13.96C294.96 13.64 295.067 13.3733 295.28 13.16C295.507 12.9333 295.787 12.82 296.12 12.82C296.44 12.82 296.707 12.9333 296.92 13.16C297.147 13.3733 297.26 13.64 297.26 13.96C297.26 14.28 297.147 14.5533 296.92 14.78C296.707 14.9933 296.44 15.1 296.12 15.1ZM304.839 15V0.999999H306.519L313.979 12.22V0.999999H315.659V15H313.979L306.519 3.78V15H304.839ZM322.988 15.24C322.042 15.24 321.202 15.0267 320.468 14.6C319.735 14.16 319.155 13.5533 318.728 12.78C318.315 12.0067 318.108 11.0933 318.108 10.04C318.108 9 318.315 8.09333 318.728 7.32C319.142 6.53333 319.715 5.92667 320.448 5.5C321.195 5.06 322.055 4.84 323.028 4.84C323.988 4.84 324.815 5.06 325.508 5.5C326.215 5.92667 326.755 6.49333 327.128 7.2C327.502 7.90667 327.688 8.66667 327.688 9.48C327.688 9.62667 327.682 9.77333 327.668 9.92C327.668 10.0667 327.668 10.2333 327.668 10.42H319.768C319.808 11.18 319.982 11.8133 320.288 12.32C320.608 12.8133 321.002 13.1867 321.468 13.44C321.948 13.6933 322.455 13.82 322.988 13.82C323.682 13.82 324.262 13.66 324.728 13.34C325.195 13.02 325.535 12.5867 325.748 12.04H327.408C327.142 12.96 326.628 13.7267 325.868 14.34C325.122 14.94 324.162 15.24 322.988 15.24ZM322.988 6.26C322.188 6.26 321.475 6.50667 320.848 7C320.235 7.48 319.882 8.18667 319.788 9.12H326.028C325.988 8.22667 325.682 7.52667 325.108 7.02C324.535 6.51333 323.828 6.26 322.988 6.26ZM334.475 15.24C333.528 15.24 332.675 15.0267 331.915 14.6C331.168 14.16 330.575 13.5533 330.135 12.78C329.708 11.9933 329.495 11.08 329.495 10.04C329.495 9 329.708 8.09333 330.135 7.32C330.575 6.53333 331.168 5.92667 331.915 5.5C332.675 5.06 333.528 4.84 334.475 4.84C335.648 4.84 336.635 5.14667 337.435 5.76C338.248 6.37333 338.762 7.19333 338.975 8.22H337.255C337.122 7.60667 336.795 7.13333 336.275 6.8C335.755 6.45333 335.148 6.28 334.455 6.28C333.895 6.28 333.368 6.42 332.875 6.7C332.382 6.98 331.982 7.4 331.675 7.96C331.368 8.52 331.215 9.21333 331.215 10.04C331.215 10.8667 331.368 11.56 331.675 12.12C331.982 12.68 332.382 13.1067 332.875 13.4C333.368 13.68 333.895 13.82 334.455 13.82C335.148 13.82 335.755 13.6533 336.275 13.32C336.795 12.9733 337.122 12.4867 337.255 11.86H338.975C338.775 12.86 338.268 13.6733 337.455 14.3C336.642 14.9267 335.648 15.24 334.475 15.24ZM351.074 15.24C350.128 15.24 349.288 15.0267 348.554 14.6C347.821 14.16 347.241 13.5533 346.814 12.78C346.401 12.0067 346.194 11.0933 346.194 10.04C346.194 9 346.401 8.09333 346.814 7.32C347.228 6.53333 347.801 5.92667 348.534 5.5C349.281 5.06 350.141 4.84 351.114 4.84C352.074 4.84 352.901 5.06 353.594 5.5C354.301 5.92667 354.841 6.49333 355.214 7.2C355.588 7.90667 355.774 8.66667 355.774 9.48C355.774 9.62667 355.768 9.77333 355.754 9.92C355.754 10.0667 355.754 10.2333 355.754 10.42H347.854C347.894 11.18 348.068 11.8133 348.374 12.32C348.694 12.8133 349.088 13.1867 349.554 13.44C350.034 13.6933 350.541 13.82 351.074 13.82C351.768 13.82 352.348 13.66 352.814 13.34C353.281 13.02 353.621 12.5867 353.834 12.04H355.494C355.228 12.96 354.714 13.7267 353.954 14.34C353.208 14.94 352.248 15.24 351.074 15.24ZM351.074 6.26C350.274 6.26 349.561 6.50667 348.934 7C348.321 7.48 347.968 8.18667 347.874 9.12H354.114C354.074 8.22667 353.768 7.52667 353.194 7.02C352.621 6.51333 351.914 6.26 351.074 6.26ZM361.301 15.24C360.474 15.24 359.788 15.1 359.241 14.82C358.694 14.54 358.288 14.1667 358.021 13.7C357.754 13.2333 357.621 12.7267 357.621 12.18C357.621 11.1667 358.008 10.3867 358.781 9.84C359.554 9.29333 360.608 9.02 361.941 9.02H364.621V8.9C364.621 8.03333 364.394 7.38 363.941 6.94C363.488 6.48667 362.881 6.26 362.121 6.26C361.468 6.26 360.901 6.42667 360.421 6.76C359.954 7.08 359.661 7.55333 359.541 8.18H357.821C357.888 7.46 358.128 6.85333 358.541 6.36C358.968 5.86667 359.494 5.49333 360.121 5.24C360.748 4.97333 361.414 4.84 362.121 4.84C363.508 4.84 364.548 5.21333 365.241 5.96C365.948 6.69333 366.301 7.67333 366.301 8.9V15H364.801L364.701 13.22C364.421 13.78 364.008 14.26 363.461 14.66C362.928 15.0467 362.208 15.24 361.301 15.24ZM361.561 13.82C362.201 13.82 362.748 13.6533 363.201 13.32C363.668 12.9867 364.021 12.5533 364.261 12.02C364.501 11.4867 364.621 10.9267 364.621 10.34V10.32H362.081C361.094 10.32 360.394 10.4933 359.981 10.84C359.581 11.1733 359.381 11.5933 359.381 12.1C359.381 12.62 359.568 13.04 359.941 13.36C360.328 13.6667 360.868 13.82 361.561 13.82ZM377.414 15.24C376.588 15.24 375.901 15.1 375.354 14.82C374.808 14.54 374.401 14.1667 374.134 13.7C373.868 13.2333 373.734 12.7267 373.734 12.18C373.734 11.1667 374.121 10.3867 374.894 9.84C375.668 9.29333 376.721 9.02 378.054 9.02H380.734V8.9C380.734 8.03333 380.508 7.38 380.054 6.94C379.601 6.48667 378.994 6.26 378.234 6.26C377.581 6.26 377.014 6.42667 376.534 6.76C376.068 7.08 375.774 7.55333 375.654 8.18H373.934C374.001 7.46 374.241 6.85333 374.654 6.36C375.081 5.86667 375.608 5.49333 376.234 5.24C376.861 4.97333 377.528 4.84 378.234 4.84C379.621 4.84 380.661 5.21333 381.354 5.96C382.061 6.69333 382.414 7.67333 382.414 8.9V15H380.914L380.814 13.22C380.534 13.78 380.121 14.26 379.574 14.66C379.041 15.0467 378.321 15.24 377.414 15.24ZM377.674 13.82C378.314 13.82 378.861 13.6533 379.314 13.32C379.781 12.9867 380.134 12.5533 380.374 12.02C380.614 11.4867 380.734 10.9267 380.734 10.34V10.32H378.194C377.208 10.32 376.508 10.4933 376.094 10.84C375.694 11.1733 375.494 11.5933 375.494 12.1C375.494 12.62 375.681 13.04 376.054 13.36C376.441 13.6667 376.981 13.82 377.674 13.82ZM385.475 15V6.5H383.975V5.08H385.475V3.36C385.475 2.4 385.715 1.7 386.195 1.26C386.675 0.819999 387.375 0.599999 388.295 0.599999H389.295V2.04H388.555C388.048 2.04 387.688 2.14667 387.475 2.36C387.261 2.56 387.155 2.90667 387.155 3.4V5.08H389.595V6.5H387.155V15H385.475ZM392.135 15V6.5H390.635V5.08H392.135V3.36C392.135 2.4 392.375 1.7 392.855 1.26C393.335 0.819999 394.035 0.599999 394.955 0.599999H395.955V2.04H395.215C394.708 2.04 394.348 2.14667 394.135 2.36C393.922 2.56 393.815 2.90667 393.815 3.4V5.08H396.255V6.5H393.815V15H392.135ZM402.324 15.24C401.378 15.24 400.538 15.0267 399.804 14.6C399.071 14.16 398.491 13.5533 398.064 12.78C397.651 12.0067 397.444 11.0933 397.444 10.04C397.444 9 397.651 8.09333 398.064 7.32C398.478 6.53333 399.051 5.92667 399.784 5.5C400.531 5.06 401.391 4.84 402.364 4.84C403.324 4.84 404.151 5.06 404.844 5.5C405.551 5.92667 406.091 6.49333 406.464 7.2C406.838 7.90667 407.024 8.66667 407.024 9.48C407.024 9.62667 407.018 9.77333 407.004 9.92C407.004 10.0667 407.004 10.2333 407.004 10.42H399.104C399.144 11.18 399.318 11.8133 399.624 12.32C399.944 12.8133 400.338 13.1867 400.804 13.44C401.284 13.6933 401.791 13.82 402.324 13.82C403.018 13.82 403.598 13.66 404.064 13.34C404.531 13.02 404.871 12.5867 405.084 12.04H406.744C406.478 12.96 405.964 13.7267 405.204 14.34C404.458 14.94 403.498 15.24 402.324 15.24ZM402.324 6.26C401.524 6.26 400.811 6.50667 400.184 7C399.571 7.48 399.218 8.18667 399.124 9.12H405.364C405.324 8.22667 405.018 7.52667 404.444 7.02C403.871 6.51333 403.164 6.26 402.324 6.26ZM409.251 15V5.08H410.771L410.911 6.98C411.218 6.32667 411.684 5.80667 412.311 5.42C412.938 5.03333 413.711 4.84 414.631 4.84V6.6H414.171C413.584 6.6 413.044 6.70667 412.551 6.92C412.058 7.12 411.664 7.46667 411.371 7.96C411.078 8.45333 410.931 9.13333 410.931 10V15H409.251ZM420.437 15C419.53 15 418.817 14.78 418.297 14.34C417.777 13.9 417.517 13.1067 417.517 11.96V6.5H415.797V5.08H417.517L417.737 2.7H419.197V5.08H422.117V6.5H419.197V11.96C419.197 12.5867 419.323 13.0133 419.577 13.24C419.83 13.4533 420.277 13.56 420.917 13.56H421.957V15H420.437ZM4.24 47L0.48 37.08H2.24L5.22 45.38L8.22 37.08H9.94L6.18 47H4.24ZM15.7619 47.24C14.8152 47.24 13.9752 47.0267 13.2419 46.6C12.5085 46.16 11.9285 45.5533 11.5019 44.78C11.0885 44.0067 10.8819 43.0933 10.8819 42.04C10.8819 41 11.0885 40.0933 11.5019 39.32C11.9152 38.5333 12.4885 37.9267 13.2219 37.5C13.9685 37.06 14.8285 36.84 15.8019 36.84C16.7619 36.84 17.5885 37.06 18.2819 37.5C18.9885 37.9267 19.5285 38.4933 19.9019 39.2C20.2752 39.9067 20.4619 40.6667 20.4619 41.48C20.4619 41.6267 20.4552 41.7733 20.4419 41.92C20.4419 42.0667 20.4419 42.2333 20.4419 42.42H12.5419C12.5819 43.18 12.7552 43.8133 13.0619 44.32C13.3819 44.8133 13.7752 45.1867 14.2419 45.44C14.7219 45.6933 15.2285 45.82 15.7619 45.82C16.4552 45.82 17.0352 45.66 17.5019 45.34C17.9685 45.02 18.3085 44.5867 18.5219 44.04H20.1819C19.9152 44.96 19.4019 45.7267 18.6419 46.34C17.8952 46.94 16.9352 47.24 15.7619 47.24ZM15.7619 38.26C14.9619 38.26 14.2485 38.5067 13.6219 39C13.0085 39.48 12.6552 40.1867 12.5619 41.12H18.8019C18.7619 40.2267 18.4552 39.5267 17.8819 39.02C17.3085 38.5133 16.6019 38.26 15.7619 38.26ZM22.6886 47V37.08H24.2086L24.3486 38.98C24.6553 38.3267 25.1219 37.8067 25.7486 37.42C26.3753 37.0333 27.1486 36.84 28.0686 36.84V38.6H27.6086C27.0219 38.6 26.4819 38.7067 25.9886 38.92C25.4953 39.12 25.1019 39.4667 24.8086 39.96C24.5153 40.4533 24.3686 41.1333 24.3686 42V47H22.6886ZM33.8742 47C32.9676 47 32.2542 46.78 31.7342 46.34C31.2142 45.9 30.9542 45.1067 30.9542 43.96V38.5H29.2342V37.08H30.9542L31.1742 34.7H32.6342V37.08H35.5542V38.5H32.6342V43.96C32.6342 44.5867 32.7609 45.0133 33.0142 45.24C33.2676 45.4533 33.7142 45.56 34.3542 45.56H35.3942V47H33.8742ZM41.8752 47.24C40.9285 47.24 40.0885 47.0267 39.3552 46.6C38.6218 46.16 38.0418 45.5533 37.6152 44.78C37.2018 44.0067 36.9952 43.0933 36.9952 42.04C36.9952 41 37.2018 40.0933 37.6152 39.32C38.0285 38.5333 38.6018 37.9267 39.3352 37.5C40.0818 37.06 40.9418 36.84 41.9152 36.84C42.8752 36.84 43.7018 37.06 44.3952 37.5C45.1018 37.9267 45.6418 38.4933 46.0152 39.2C46.3885 39.9067 46.5752 40.6667 46.5752 41.48C46.5752 41.6267 46.5685 41.7733 46.5552 41.92C46.5552 42.0667 46.5552 42.2333 46.5552 42.42H38.6552C38.6952 43.18 38.8685 43.8133 39.1752 44.32C39.4952 44.8133 39.8885 45.1867 40.3552 45.44C40.8352 45.6933 41.3418 45.82 41.8752 45.82C42.5685 45.82 43.1485 45.66 43.6152 45.34C44.0818 45.02 44.4218 44.5867 44.6352 44.04H46.2952C46.0285 44.96 45.5152 45.7267 44.7552 46.34C44.0085 46.94 43.0485 47.24 41.8752 47.24ZM41.8752 38.26C41.0752 38.26 40.3618 38.5067 39.7352 39C39.1218 39.48 38.7685 40.1867 38.6752 41.12H44.9152C44.8752 40.2267 44.5685 39.5267 43.9952 39.02C43.4218 38.5133 42.7152 38.26 41.8752 38.26ZM48.8019 47V37.08H50.3219L50.4619 38.98C50.7685 38.3267 51.2352 37.8067 51.8619 37.42C52.4885 37.0333 53.2619 36.84 54.1819 36.84V38.6H53.7219C53.1352 38.6 52.5952 38.7067 52.1019 38.92C51.6085 39.12 51.2152 39.4667 50.9219 39.96C50.6285 40.4533 50.4819 41.1333 50.4819 42V47H48.8019ZM60.1564 47.24C59.2097 47.24 58.3697 47.0267 57.6364 46.6C56.9031 46.16 56.3231 45.5533 55.8964 44.78C55.4831 44.0067 55.2764 43.0933 55.2764 42.04C55.2764 41 55.4831 40.0933 55.8964 39.32C56.3097 38.5333 56.8831 37.9267 57.6164 37.5C58.3631 37.06 59.2231 36.84 60.1964 36.84C61.1564 36.84 61.9831 37.06 62.6764 37.5C63.3831 37.9267 63.9231 38.4933 64.2964 39.2C64.6697 39.9067 64.8564 40.6667 64.8564 41.48C64.8564 41.6267 64.8497 41.7733 64.8364 41.92C64.8364 42.0667 64.8364 42.2333 64.8364 42.42H56.9364C56.9764 43.18 57.1497 43.8133 57.4564 44.32C57.7764 44.8133 58.1697 45.1867 58.6364 45.44C59.1164 45.6933 59.6231 45.82 60.1564 45.82C60.8497 45.82 61.4297 45.66 61.8964 45.34C62.3631 45.02 62.7031 44.5867 62.9164 44.04H64.5764C64.3097 44.96 63.7964 45.7267 63.0364 46.34C62.2897 46.94 61.3297 47.24 60.1564 47.24ZM60.1564 38.26C59.3564 38.26 58.6431 38.5067 58.0164 39C57.4031 39.48 57.0497 40.1867 56.9564 41.12H63.1964C63.1564 40.2267 62.8497 39.5267 62.2764 39.02C61.7031 38.5133 60.9964 38.26 60.1564 38.26ZM67.0831 47V37.08H68.6031L68.7231 38.52C69.0431 37.9867 69.4698 37.5733 70.0031 37.28C70.5365 36.9867 71.1365 36.84 71.8031 36.84C72.5898 36.84 73.2631 37 73.8231 37.32C74.3965 37.64 74.8365 38.1267 75.1431 38.78C75.4898 38.18 75.9631 37.7067 76.5631 37.36C77.1765 37.0133 77.8365 36.84 78.5431 36.84C79.7298 36.84 80.6765 37.2 81.3831 37.92C82.0898 38.6267 82.4431 39.72 82.4431 41.2V47H80.7831V41.38C80.7831 40.3533 80.5765 39.58 80.1631 39.06C79.7498 38.54 79.1565 38.28 78.3831 38.28C77.5831 38.28 76.9165 38.5933 76.3831 39.22C75.8631 39.8333 75.6031 40.7133 75.6031 41.86V47H73.9231V41.38C73.9231 40.3533 73.7165 39.58 73.3031 39.06C72.8898 38.54 72.2965 38.28 71.5231 38.28C70.7365 38.28 70.0765 38.5933 69.5431 39.22C69.0231 39.8333 68.7631 40.7133 68.7631 41.86V47H67.0831ZM85.5538 47.1C85.2204 47.1 84.9404 46.9933 84.7138 46.78C84.5004 46.5533 84.3938 46.28 84.3938 45.96C84.3938 45.64 84.5004 45.3733 84.7138 45.16C84.9404 44.9333 85.2204 44.82 85.5538 44.82C85.8738 44.82 86.1404 44.9333 86.3538 45.16C86.5804 45.3733 86.6938 45.64 86.6938 45.96C86.6938 46.28 86.5804 46.5533 86.3538 46.78C86.1404 46.9933 85.8738 47.1 85.5538 47.1ZM98.493 47L93.233 33H95.053L99.473 45.22L103.933 33H105.713L100.453 47H98.493ZM108.552 34.88C108.219 34.88 107.939 34.7733 107.712 34.56C107.499 34.3333 107.392 34.0533 107.392 33.72C107.392 33.4 107.499 33.1333 107.712 32.92C107.939 32.7067 108.219 32.6 108.552 32.6C108.872 32.6 109.146 32.7067 109.372 32.92C109.599 33.1333 109.712 33.4 109.712 33.72C109.712 34.0533 109.599 34.3333 109.372 34.56C109.146 34.7733 108.872 34.88 108.552 34.88ZM107.712 47V37.08H109.392V47H107.712ZM111.318 47L114.758 42.04L111.318 37.08H113.138L115.918 41.18L118.718 37.08H120.518L117.078 42.04L120.518 47H118.718L115.918 42.9L113.138 47H111.318ZM127.571 51.4V37.08H129.091L129.251 38.72C129.571 38.24 130.025 37.8067 130.611 37.42C131.211 37.0333 131.971 36.84 132.891 36.84C133.878 36.84 134.738 37.0667 135.471 37.52C136.205 37.9733 136.771 38.5933 137.171 39.38C137.585 40.1667 137.791 41.06 137.791 42.06C137.791 43.06 137.585 43.9533 137.171 44.74C136.771 45.5133 136.198 46.1267 135.451 46.58C134.718 47.02 133.858 47.24 132.871 47.24C132.058 47.24 131.331 47.0733 130.691 46.74C130.065 46.4067 129.585 45.94 129.251 45.34V51.4H127.571ZM132.691 45.78C133.358 45.78 133.945 45.6267 134.451 45.32C134.958 45 135.358 44.56 135.651 44C135.945 43.44 136.091 42.7867 136.091 42.04C136.091 41.2933 135.945 40.64 135.651 40.08C135.358 39.52 134.958 39.0867 134.451 38.78C133.945 38.46 133.358 38.3 132.691 38.3C132.025 38.3 131.438 38.46 130.931 38.78C130.425 39.0867 130.025 39.52 129.731 40.08C129.438 40.64 129.291 41.2933 129.291 42.04C129.291 42.7867 129.438 43.44 129.731 44C130.025 44.56 130.425 45 130.931 45.32C131.438 45.6267 132.025 45.78 132.691 45.78ZM140.13 47V37.08H141.65L141.79 38.98C142.097 38.3267 142.563 37.8067 143.19 37.42C143.817 37.0333 144.59 36.84 145.51 36.84V38.6H145.05C144.463 38.6 143.923 38.7067 143.43 38.92C142.937 39.12 142.543 39.4667 142.25 39.96C141.957 40.4533 141.81 41.1333 141.81 42V47H140.13ZM151.545 47.24C150.611 47.24 149.771 47.0267 149.025 46.6C148.278 46.1733 147.685 45.5733 147.245 44.8C146.818 44.0133 146.605 43.0933 146.605 42.04C146.605 40.9867 146.825 40.0733 147.265 39.3C147.705 38.5133 148.298 37.9067 149.045 37.48C149.805 37.0533 150.651 36.84 151.585 36.84C152.518 36.84 153.358 37.0533 154.105 37.48C154.851 37.9067 155.438 38.5133 155.865 39.3C156.305 40.0733 156.525 40.9867 156.525 42.04C156.525 43.0933 156.305 44.0133 155.865 44.8C155.425 45.5733 154.825 46.1733 154.065 46.6C153.318 47.0267 152.478 47.24 151.545 47.24ZM151.545 45.8C152.118 45.8 152.651 45.66 153.145 45.38C153.638 45.1 154.038 44.68 154.345 44.12C154.651 43.56 154.805 42.8667 154.805 42.04C154.805 41.2133 154.651 40.52 154.345 39.96C154.051 39.4 153.658 38.98 153.165 38.7C152.671 38.42 152.145 38.28 151.585 38.28C151.011 38.28 150.478 38.42 149.985 38.7C149.491 38.98 149.091 39.4 148.785 39.96C148.478 40.52 148.325 41.2133 148.325 42.04C148.325 42.8667 148.478 43.56 148.785 44.12C149.091 44.68 149.485 45.1 149.965 45.38C150.458 45.66 150.985 45.8 151.545 45.8ZM164.16 47.24C163.347 47.24 162.62 47.0733 161.98 46.74C161.354 46.4067 160.874 45.94 160.54 45.34L160.38 47H158.86V32.6H160.54V38.72C160.86 38.24 161.314 37.8067 161.9 37.42C162.5 37.0333 163.26 36.84 164.18 36.84C165.167 36.84 166.027 37.0667 166.76 37.52C167.494 37.9733 168.06 38.5933 168.46 39.38C168.874 40.1667 169.08 41.06 169.08 42.06C169.08 43.06 168.874 43.9533 168.46 44.74C168.06 45.5133 167.487 46.1267 166.74 46.58C166.007 47.02 165.147 47.24 164.16 47.24ZM163.98 45.78C164.647 45.78 165.234 45.6267 165.74 45.32C166.247 45 166.647 44.56 166.94 44C167.234 43.44 167.38 42.7867 167.38 42.04C167.38 41.2933 167.234 40.64 166.94 40.08C166.647 39.52 166.247 39.0867 165.74 38.78C165.234 38.46 164.647 38.3 163.98 38.3C163.314 38.3 162.727 38.46 162.22 38.78C161.714 39.0867 161.314 39.52 161.02 40.08C160.727 40.64 160.58 41.2933 160.58 42.04C160.58 42.7867 160.727 43.44 161.02 44C161.314 44.56 161.714 45 162.22 45.32C162.727 45.6267 163.314 45.78 163.98 45.78ZM175.939 47.24C175.006 47.24 174.166 47.0267 173.419 46.6C172.672 46.1733 172.079 45.5733 171.639 44.8C171.212 44.0133 170.999 43.0933 170.999 42.04C170.999 40.9867 171.219 40.0733 171.659 39.3C172.099 38.5133 172.692 37.9067 173.439 37.48C174.199 37.0533 175.046 36.84 175.979 36.84C176.912 36.84 177.752 37.0533 178.499 37.48C179.246 37.9067 179.832 38.5133 180.259 39.3C180.699 40.0733 180.919 40.9867 180.919 42.04C180.919 43.0933 180.699 44.0133 180.259 44.8C179.819 45.5733 179.219 46.1733 178.459 46.6C177.712 47.0267 176.872 47.24 175.939 47.24ZM175.939 45.8C176.512 45.8 177.046 45.66 177.539 45.38C178.032 45.1 178.432 44.68 178.739 44.12C179.046 43.56 179.199 42.8667 179.199 42.04C179.199 41.2133 179.046 40.52 178.739 39.96C178.446 39.4 178.052 38.98 177.559 38.7C177.066 38.42 176.539 38.28 175.979 38.28C175.406 38.28 174.872 38.42 174.379 38.7C173.886 38.98 173.486 39.4 173.179 39.96C172.872 40.52 172.719 41.2133 172.719 42.04C172.719 42.8667 172.872 43.56 173.179 44.12C173.486 44.68 173.879 45.1 174.359 45.38C174.852 45.66 175.379 45.8 175.939 45.8ZM192.348 47.24C191.161 47.24 190.175 46.94 189.388 46.34C188.601 45.74 188.141 44.9267 188.008 43.9H189.728C189.835 44.42 190.108 44.8733 190.548 45.26C191.001 45.6333 191.608 45.82 192.368 45.82C193.075 45.82 193.595 45.6733 193.928 45.38C194.261 45.0733 194.428 44.7133 194.428 44.3C194.428 43.7 194.208 43.3 193.768 43.1C193.341 42.9 192.735 42.72 191.948 42.56C191.415 42.4533 190.881 42.3 190.348 42.1C189.815 41.9 189.368 41.62 189.008 41.26C188.648 40.8867 188.468 40.4 188.468 39.8C188.468 38.9333 188.788 38.2267 189.428 37.68C190.081 37.12 190.961 36.84 192.068 36.84C193.121 36.84 193.981 37.1067 194.648 37.64C195.328 38.16 195.721 38.9067 195.828 39.88H194.168C194.101 39.3733 193.881 38.98 193.508 38.7C193.148 38.4067 192.661 38.26 192.048 38.26C191.448 38.26 190.981 38.3867 190.648 38.64C190.328 38.8933 190.168 39.2267 190.168 39.64C190.168 40.04 190.375 40.3533 190.788 40.58C191.215 40.8067 191.788 41 192.508 41.16C193.121 41.2933 193.701 41.46 194.248 41.66C194.808 41.8467 195.261 42.1333 195.608 42.52C195.968 42.8933 196.148 43.44 196.148 44.16C196.161 45.0533 195.821 45.7933 195.128 46.38C194.448 46.9533 193.521 47.24 192.348 47.24ZM203.008 47.24C202.061 47.24 201.221 47.0267 200.488 46.6C199.755 46.16 199.175 45.5533 198.748 44.78C198.335 44.0067 198.128 43.0933 198.128 42.04C198.128 41 198.335 40.0933 198.748 39.32C199.161 38.5333 199.735 37.9267 200.468 37.5C201.215 37.06 202.075 36.84 203.048 36.84C204.008 36.84 204.835 37.06 205.528 37.5C206.235 37.9267 206.775 38.4933 207.148 39.2C207.521 39.9067 207.708 40.6667 207.708 41.48C207.708 41.6267 207.701 41.7733 207.688 41.92C207.688 42.0667 207.688 42.2333 207.688 42.42H199.788C199.828 43.18 200.001 43.8133 200.308 44.32C200.628 44.8133 201.021 45.1867 201.488 45.44C201.968 45.6933 202.475 45.82 203.008 45.82C203.701 45.82 204.281 45.66 204.748 45.34C205.215 45.02 205.555 44.5867 205.768 44.04H207.428C207.161 44.96 206.648 45.7267 205.888 46.34C205.141 46.94 204.181 47.24 203.008 47.24ZM203.008 38.26C202.208 38.26 201.495 38.5067 200.868 39C200.255 39.48 199.901 40.1867 199.808 41.12H206.048C206.008 40.2267 205.701 39.5267 205.128 39.02C204.555 38.5133 203.848 38.26 203.008 38.26ZM209.935 47V37.08H211.455L211.575 38.52C211.895 37.9867 212.321 37.5733 212.855 37.28C213.388 36.9867 213.988 36.84 214.655 36.84C215.441 36.84 216.115 37 216.675 37.32C217.248 37.64 217.688 38.1267 217.995 38.78C218.341 38.18 218.815 37.7067 219.415 37.36C220.028 37.0133 220.688 36.84 221.395 36.84C222.581 36.84 223.528 37.2 224.235 37.92C224.941 38.6267 225.295 39.72 225.295 41.2V47H223.635V41.38C223.635 40.3533 223.428 39.58 223.015 39.06C222.601 38.54 222.008 38.28 221.235 38.28C220.435 38.28 219.768 38.5933 219.235 39.22C218.715 39.8333 218.455 40.7133 218.455 41.86V47H216.775V41.38C216.775 40.3533 216.568 39.58 216.155 39.06C215.741 38.54 215.148 38.28 214.375 38.28C213.588 38.28 212.928 38.5933 212.395 39.22C211.875 39.8333 211.615 40.7133 211.615 41.86V47H209.935ZM227.825 51.4V37.08H229.345L229.505 38.72C229.825 38.24 230.279 37.8067 230.865 37.42C231.465 37.0333 232.225 36.84 233.145 36.84C234.132 36.84 234.992 37.0667 235.725 37.52C236.459 37.9733 237.025 38.5933 237.425 39.38C237.839 40.1667 238.045 41.06 238.045 42.06C238.045 43.06 237.839 43.9533 237.425 44.74C237.025 45.5133 236.452 46.1267 235.705 46.58C234.972 47.02 234.112 47.24 233.125 47.24C232.312 47.24 231.585 47.0733 230.945 46.74C230.319 46.4067 229.839 45.94 229.505 45.34V51.4H227.825ZM232.945 45.78C233.612 45.78 234.199 45.6267 234.705 45.32C235.212 45 235.612 44.56 235.905 44C236.199 43.44 236.345 42.7867 236.345 42.04C236.345 41.2933 236.199 40.64 235.905 40.08C235.612 39.52 235.212 39.0867 234.705 38.78C234.199 38.46 233.612 38.3 232.945 38.3C232.279 38.3 231.692 38.46 231.185 38.78C230.679 39.0867 230.279 39.52 229.985 40.08C229.692 40.64 229.545 41.2933 229.545 42.04C229.545 42.7867 229.692 43.44 229.985 44C230.279 44.56 230.679 45 231.185 45.32C231.692 45.6267 232.279 45.78 232.945 45.78ZM244.844 47.24C243.897 47.24 243.057 47.0267 242.324 46.6C241.591 46.16 241.011 45.5533 240.584 44.78C240.171 44.0067 239.964 43.0933 239.964 42.04C239.964 41 240.171 40.0933 240.584 39.32C240.997 38.5333 241.571 37.9267 242.304 37.5C243.051 37.06 243.911 36.84 244.884 36.84C245.844 36.84 246.671 37.06 247.364 37.5C248.071 37.9267 248.611 38.4933 248.984 39.2C249.357 39.9067 249.544 40.6667 249.544 41.48C249.544 41.6267 249.537 41.7733 249.524 41.92C249.524 42.0667 249.524 42.2333 249.524 42.42H241.624C241.664 43.18 241.837 43.8133 242.144 44.32C242.464 44.8133 242.857 45.1867 243.324 45.44C243.804 45.6933 244.311 45.82 244.844 45.82C245.537 45.82 246.117 45.66 246.584 45.34C247.051 45.02 247.391 44.5867 247.604 44.04H249.264C248.997 44.96 248.484 45.7267 247.724 46.34C246.977 46.94 246.017 47.24 244.844 47.24ZM244.844 38.26C244.044 38.26 243.331 38.5067 242.704 39C242.091 39.48 241.737 40.1867 241.644 41.12H247.884C247.844 40.2267 247.537 39.5267 246.964 39.02C246.391 38.5133 245.684 38.26 244.844 38.26ZM251.771 47V37.08H253.291L253.431 38.98C253.737 38.3267 254.204 37.8067 254.831 37.42C255.457 37.0333 256.231 36.84 257.151 36.84V38.6H256.691C256.104 38.6 255.564 38.7067 255.071 38.92C254.577 39.12 254.184 39.4667 253.891 39.96C253.597 40.4533 253.451 41.1333 253.451 42V47H251.771ZM268.789 47.24C267.843 47.24 267.003 47.0267 266.269 46.6C265.536 46.16 264.956 45.5533 264.529 44.78C264.116 44.0067 263.909 43.0933 263.909 42.04C263.909 41 264.116 40.0933 264.529 39.32C264.943 38.5333 265.516 37.9267 266.249 37.5C266.996 37.06 267.856 36.84 268.829 36.84C269.789 36.84 270.616 37.06 271.309 37.5C272.016 37.9267 272.556 38.4933 272.929 39.2C273.303 39.9067 273.489 40.6667 273.489 41.48C273.489 41.6267 273.483 41.7733 273.469 41.92C273.469 42.0667 273.469 42.2333 273.469 42.42H265.569C265.609 43.18 265.783 43.8133 266.089 44.32C266.409 44.8133 266.803 45.1867 267.269 45.44C267.749 45.6933 268.256 45.82 268.789 45.82C269.483 45.82 270.063 45.66 270.529 45.34C270.996 45.02 271.336 44.5867 271.549 44.04H273.209C272.943 44.96 272.429 45.7267 271.669 46.34C270.923 46.94 269.963 47.24 268.789 47.24ZM268.789 38.26C267.989 38.26 267.276 38.5067 266.649 39C266.036 39.48 265.683 40.1867 265.589 41.12H271.829C271.789 40.2267 271.483 39.5267 270.909 39.02C270.336 38.5133 269.629 38.26 268.789 38.26ZM279.304 47C278.397 47 277.684 46.78 277.164 46.34C276.644 45.9 276.384 45.1067 276.384 43.96V38.5H274.664V37.08H276.384L276.604 34.7H278.064V37.08H280.984V38.5H278.064V43.96C278.064 44.5867 278.191 45.0133 278.444 45.24C278.697 45.4533 279.144 45.56 279.784 45.56H280.824V47H279.304ZM282.813 49.38L283.973 44.96H285.713L283.973 49.38H282.813ZM293.001 47V37.08H294.521L294.641 38.52C294.961 37.9867 295.388 37.5733 295.921 37.28C296.454 36.9867 297.054 36.84 297.721 36.84C298.508 36.84 299.181 37 299.741 37.32C300.314 37.64 300.754 38.1267 301.061 38.78C301.408 38.18 301.881 37.7067 302.481 37.36C303.094 37.0133 303.754 36.84 304.461 36.84C305.648 36.84 306.594 37.2 307.301 37.92C308.008 38.6267 308.361 39.72 308.361 41.2V47H306.701V41.38C306.701 40.3533 306.494 39.58 306.081 39.06C305.668 38.54 305.074 38.28 304.301 38.28C303.501 38.28 302.834 38.5933 302.301 39.22C301.781 39.8333 301.521 40.7133 301.521 41.86V47H299.841V41.38C299.841 40.3533 299.634 39.58 299.221 39.06C298.808 38.54 298.214 38.28 297.441 38.28C296.654 38.28 295.994 38.5933 295.461 39.22C294.941 39.8333 294.681 40.7133 294.681 41.86V47H293.001ZM315.352 47.24C314.405 47.24 313.565 47.0267 312.832 46.6C312.098 46.16 311.518 45.5533 311.092 44.78C310.678 44.0067 310.472 43.0933 310.472 42.04C310.472 41 310.678 40.0933 311.092 39.32C311.505 38.5333 312.078 37.9267 312.812 37.5C313.558 37.06 314.418 36.84 315.392 36.84C316.352 36.84 317.178 37.06 317.872 37.5C318.578 37.9267 319.118 38.4933 319.492 39.2C319.865 39.9067 320.052 40.6667 320.052 41.48C320.052 41.6267 320.045 41.7733 320.032 41.92C320.032 42.0667 320.032 42.2333 320.032 42.42H312.132C312.172 43.18 312.345 43.8133 312.652 44.32C312.972 44.8133 313.365 45.1867 313.832 45.44C314.312 45.6933 314.818 45.82 315.352 45.82C316.045 45.82 316.625 45.66 317.092 45.34C317.558 45.02 317.898 44.5867 318.112 44.04H319.772C319.505 44.96 318.992 45.7267 318.232 46.34C317.485 46.94 316.525 47.24 315.352 47.24ZM315.352 38.26C314.552 38.26 313.838 38.5067 313.212 39C312.598 39.48 312.245 40.1867 312.152 41.12H318.392C318.352 40.2267 318.045 39.5267 317.472 39.02C316.898 38.5133 316.192 38.26 315.352 38.26ZM325.578 47.24C324.752 47.24 324.065 47.1 323.518 46.82C322.972 46.54 322.565 46.1667 322.298 45.7C322.032 45.2333 321.898 44.7267 321.898 44.18C321.898 43.1667 322.285 42.3867 323.058 41.84C323.832 41.2933 324.885 41.02 326.218 41.02H328.898V40.9C328.898 40.0333 328.672 39.38 328.218 38.94C327.765 38.4867 327.158 38.26 326.398 38.26C325.745 38.26 325.178 38.4267 324.698 38.76C324.232 39.08 323.938 39.5533 323.818 40.18H322.098C322.165 39.46 322.405 38.8533 322.818 38.36C323.245 37.8667 323.772 37.4933 324.398 37.24C325.025 36.9733 325.692 36.84 326.398 36.84C327.785 36.84 328.825 37.2133 329.518 37.96C330.225 38.6933 330.578 39.6733 330.578 40.9V47H329.078L328.978 45.22C328.698 45.78 328.285 46.26 327.738 46.66C327.205 47.0467 326.485 47.24 325.578 47.24ZM325.838 45.82C326.478 45.82 327.025 45.6533 327.478 45.32C327.945 44.9867 328.298 44.5533 328.538 44.02C328.778 43.4867 328.898 42.9267 328.898 42.34V42.32H326.358C325.372 42.32 324.672 42.4933 324.258 42.84C323.858 43.1733 323.658 43.5933 323.658 44.1C323.658 44.62 323.845 45.04 324.218 45.36C324.605 45.6667 325.145 45.82 325.838 45.82ZM342.192 47.24C341.005 47.24 340.018 46.94 339.232 46.34C338.445 45.74 337.985 44.9267 337.852 43.9H339.572C339.678 44.42 339.952 44.8733 340.392 45.26C340.845 45.6333 341.452 45.82 342.212 45.82C342.918 45.82 343.438 45.6733 343.772 45.38C344.105 45.0733 344.272 44.7133 344.272 44.3C344.272 43.7 344.052 43.3 343.612 43.1C343.185 42.9 342.578 42.72 341.792 42.56C341.258 42.4533 340.725 42.3 340.192 42.1C339.658 41.9 339.212 41.62 338.852 41.26C338.492 40.8867 338.312 40.4 338.312 39.8C338.312 38.9333 338.632 38.2267 339.272 37.68C339.925 37.12 340.805 36.84 341.912 36.84C342.965 36.84 343.825 37.1067 344.492 37.64C345.172 38.16 345.565 38.9067 345.672 39.88H344.012C343.945 39.3733 343.725 38.98 343.352 38.7C342.992 38.4067 342.505 38.26 341.892 38.26C341.292 38.26 340.825 38.3867 340.492 38.64C340.172 38.8933 340.012 39.2267 340.012 39.64C340.012 40.04 340.218 40.3533 340.632 40.58C341.058 40.8067 341.632 41 342.352 41.16C342.965 41.2933 343.545 41.46 344.092 41.66C344.652 41.8467 345.105 42.1333 345.452 42.52C345.812 42.8933 345.992 43.44 345.992 44.16C346.005 45.0533 345.665 45.7933 344.972 46.38C344.292 46.9533 343.365 47.24 342.192 47.24ZM349.412 34.88C349.078 34.88 348.798 34.7733 348.572 34.56C348.358 34.3333 348.252 34.0533 348.252 33.72C348.252 33.4 348.358 33.1333 348.572 32.92C348.798 32.7067 349.078 32.6 349.412 32.6C349.732 32.6 350.005 32.7067 350.232 32.92C350.458 33.1333 350.572 33.4 350.572 33.72C350.572 34.0533 350.458 34.3333 350.232 34.56C350.005 34.7733 349.732 34.88 349.412 34.88ZM348.572 47V37.08H350.252V47H348.572ZM353.177 47V37.08H354.697L354.817 38.52C355.137 37.9867 355.564 37.5733 356.097 37.28C356.63 36.9867 357.23 36.84 357.897 36.84C358.684 36.84 359.357 37 359.917 37.32C360.49 37.64 360.93 38.1267 361.237 38.78C361.584 38.18 362.057 37.7067 362.657 37.36C363.27 37.0133 363.93 36.84 364.637 36.84C365.824 36.84 366.77 37.2 367.477 37.92C368.184 38.6267 368.537 39.72 368.537 41.2V47H366.877V41.38C366.877 40.3533 366.67 39.58 366.257 39.06C365.844 38.54 365.25 38.28 364.477 38.28C363.677 38.28 363.01 38.5933 362.477 39.22C361.957 39.8333 361.697 40.7133 361.697 41.86V47H360.017V41.38C360.017 40.3533 359.81 39.58 359.397 39.06C358.984 38.54 358.39 38.28 357.617 38.28C356.83 38.28 356.17 38.5933 355.637 39.22C355.117 39.8333 354.857 40.7133 354.857 41.86V47H353.177ZM379.748 37.08V47H378.228L378.128 45.22C377.808 45.8467 377.348 46.34 376.748 46.7C376.148 47.06 375.468 47.24 374.708 47.24C373.534 47.24 372.594 46.8867 371.888 46.18C371.194 45.46 370.848 44.36 370.848 42.88V37.08H372.528V42.7C372.528 44.7667 373.381 45.8 375.088 45.8C375.941 45.8 376.648 45.4933 377.208 44.88C377.781 44.2533 378.068 43.3667 378.068 42.22V37.08H379.748ZM382.513 47V32.6H384.193V47H382.513ZM396.159 43.88C395.599 43.88 395.086 43.8067 394.619 43.66L393.619 44.6C393.766 44.7067 393.946 44.8 394.159 44.88C394.386 44.9467 394.706 45.0133 395.119 45.08C395.533 45.1333 396.113 45.1933 396.859 45.26C398.193 45.3533 399.146 45.66 399.719 46.18C400.293 46.7 400.579 47.38 400.579 48.22C400.579 48.7933 400.419 49.34 400.099 49.86C399.793 50.38 399.313 50.8067 398.659 51.14C398.019 51.4733 397.193 51.64 396.179 51.64C395.286 51.64 394.493 51.52 393.799 51.28C393.106 51.0533 392.566 50.7 392.179 50.22C391.793 49.7533 391.599 49.16 391.599 48.44C391.599 48.0667 391.699 47.66 391.899 47.22C392.099 46.7933 392.473 46.3867 393.019 46C392.726 45.88 392.473 45.7533 392.259 45.62C392.059 45.4733 391.873 45.3133 391.699 45.14V44.68L393.399 43C392.613 42.3333 392.219 41.4533 392.219 40.36C392.219 39.7067 392.373 39.1133 392.679 38.58C392.986 38.0467 393.433 37.6267 394.019 37.32C394.606 37 395.319 36.84 396.159 36.84C396.733 36.84 397.253 36.92 397.719 37.08H401.379V38.34L399.519 38.42C399.906 38.98 400.099 39.6267 400.099 40.36C400.099 41.0133 399.939 41.6067 399.619 42.14C399.313 42.6733 398.866 43.1 398.279 43.42C397.706 43.7267 396.999 43.88 396.159 43.88ZM396.159 42.5C396.866 42.5 397.426 42.32 397.839 41.96C398.266 41.5867 398.479 41.0533 398.479 40.36C398.479 39.68 398.266 39.16 397.839 38.8C397.426 38.4267 396.866 38.24 396.159 38.24C395.439 38.24 394.866 38.4267 394.439 38.8C394.026 39.16 393.819 39.68 393.819 40.36C393.819 41.0533 394.026 41.5867 394.439 41.96C394.866 42.32 395.439 42.5 396.159 42.5ZM393.239 48.28C393.239 48.9467 393.519 49.44 394.079 49.76C394.639 50.0933 395.339 50.26 396.179 50.26C397.006 50.26 397.666 50.08 398.159 49.72C398.666 49.36 398.919 48.88 398.919 48.28C398.919 47.8533 398.746 47.48 398.399 47.16C398.053 46.8533 397.413 46.6733 396.479 46.62C395.746 46.5667 395.113 46.5 394.579 46.42C394.033 46.7133 393.673 47.0267 393.499 47.36C393.326 47.7067 393.239 48.0133 393.239 48.28ZM403.275 47V37.08H404.795L404.935 38.98C405.241 38.3267 405.708 37.8067 406.335 37.42C406.961 37.0333 407.735 36.84 408.655 36.84V38.6H408.195C407.608 38.6 407.068 38.7067 406.575 38.92C406.081 39.12 405.688 39.4667 405.395 39.96C405.101 40.4533 404.955 41.1333 404.955 42V47H403.275ZM413.84 47.24C413.013 47.24 412.327 47.1 411.78 46.82C411.233 46.54 410.827 46.1667 410.56 45.7C410.293 45.2333 410.16 44.7267 410.16 44.18C410.16 43.1667 410.547 42.3867 411.32 41.84C412.093 41.2933 413.147 41.02 414.48 41.02H417.16V40.9C417.16 40.0333 416.933 39.38 416.48 38.94C416.027 38.4867 415.42 38.26 414.66 38.26C414.007 38.26 413.44 38.4267 412.96 38.76C412.493 39.08 412.2 39.5533 412.08 40.18H410.36C410.427 39.46 410.667 38.8533 411.08 38.36C411.507 37.8667 412.033 37.4933 412.66 37.24C413.287 36.9733 413.953 36.84 414.66 36.84C416.047 36.84 417.087 37.2133 417.78 37.96C418.487 38.6933 418.84 39.6733 418.84 40.9V47H417.34L417.24 45.22C416.96 45.78 416.547 46.26 416 46.66C415.467 47.0467 414.747 47.24 413.84 47.24ZM414.1 45.82C414.74 45.82 415.287 45.6533 415.74 45.32C416.207 44.9867 416.56 44.5533 416.8 44.02C417.04 43.4867 417.16 42.9267 417.16 42.34V42.32H414.62C413.633 42.32 412.933 42.4933 412.52 42.84C412.12 43.1733 411.92 43.5933 411.92 44.1C411.92 44.62 412.107 45.04 412.48 45.36C412.867 45.6667 413.407 45.82 414.1 45.82ZM425.82 47.24C424.874 47.24 424.034 47.0267 423.3 46.6C422.567 46.16 421.987 45.5533 421.56 44.78C421.147 44.0067 420.94 43.0933 420.94 42.04C420.94 41 421.147 40.0933 421.56 39.32C421.974 38.5333 422.547 37.9267 423.28 37.5C424.027 37.06 424.887 36.84 425.86 36.84C426.82 36.84 427.647 37.06 428.34 37.5C429.047 37.9267 429.587 38.4933 429.96 39.2C430.334 39.9067 430.52 40.6667 430.52 41.48C430.52 41.6267 430.514 41.7733 430.5 41.92C430.5 42.0667 430.5 42.2333 430.5 42.42H422.6C422.64 43.18 422.814 43.8133 423.12 44.32C423.44 44.8133 423.834 45.1867 424.3 45.44C424.78 45.6933 425.287 45.82 425.82 45.82C426.514 45.82 427.094 45.66 427.56 45.34C428.027 45.02 428.367 44.5867 428.58 44.04H430.24C429.974 44.96 429.46 45.7267 428.7 46.34C427.954 46.94 426.994 47.24 425.82 47.24ZM425.82 38.26C425.02 38.26 424.307 38.5067 423.68 39C423.067 39.48 422.714 40.1867 422.62 41.12H428.86C428.82 40.2267 428.514 39.5267 427.94 39.02C427.367 38.5133 426.66 38.26 425.82 38.26ZM437.307 47.24C436.361 47.24 435.507 47.0267 434.747 46.6C434.001 46.16 433.407 45.5533 432.967 44.78C432.541 43.9933 432.327 43.08 432.327 42.04C432.327 41 432.541 40.0933 432.967 39.32C433.407 38.5333 434.001 37.9267 434.747 37.5C435.507 37.06 436.361 36.84 437.307 36.84C438.481 36.84 439.467 37.1467 440.267 37.76C441.081 38.3733 441.594 39.1933 441.807 40.22H440.087C439.954 39.6067 439.627 39.1333 439.107 38.8C438.587 38.4533 437.981 38.28 437.287 38.28C436.727 38.28 436.201 38.42 435.707 38.7C435.214 38.98 434.814 39.4 434.507 39.96C434.201 40.52 434.047 41.2133 434.047 42.04C434.047 42.8667 434.201 43.56 434.507 44.12C434.814 44.68 435.214 45.1067 435.707 45.4C436.201 45.68 436.727 45.82 437.287 45.82C437.981 45.82 438.587 45.6533 439.107 45.32C439.627 44.9733 439.954 44.4867 440.087 43.86H441.807C441.607 44.86 441.101 45.6733 440.287 46.3C439.474 46.9267 438.481 47.24 437.307 47.24ZM448.673 47.24C447.74 47.24 446.9 47.0267 446.153 46.6C445.407 46.1733 444.813 45.5733 444.373 44.8C443.947 44.0133 443.733 43.0933 443.733 42.04C443.733 40.9867 443.953 40.0733 444.393 39.3C444.833 38.5133 445.427 37.9067 446.173 37.48C446.933 37.0533 447.78 36.84 448.713 36.84C449.647 36.84 450.487 37.0533 451.233 37.48C451.98 37.9067 452.567 38.5133 452.993 39.3C453.433 40.0733 453.653 40.9867 453.653 42.04C453.653 43.0933 453.433 44.0133 452.993 44.8C452.553 45.5733 451.953 46.1733 451.193 46.6C450.447 47.0267 449.607 47.24 448.673 47.24ZM448.673 45.8C449.247 45.8 449.78 45.66 450.273 45.38C450.767 45.1 451.167 44.68 451.473 44.12C451.78 43.56 451.933 42.8667 451.933 42.04C451.933 41.2133 451.78 40.52 451.473 39.96C451.18 39.4 450.787 38.98 450.293 38.7C449.8 38.42 449.273 38.28 448.713 38.28C448.14 38.28 447.607 38.42 447.113 38.7C446.62 38.98 446.22 39.4 445.913 39.96C445.607 40.52 445.453 41.2133 445.453 42.04C445.453 42.8667 445.607 43.56 445.913 44.12C446.22 44.68 446.613 45.1 447.093 45.38C447.587 45.66 448.113 45.8 448.673 45.8ZM5.88 79.24C4.89333 79.24 4.02667 79.0133 3.28 78.56C2.54667 78.1067 1.97333 77.4867 1.56 76.7C1.16 75.9133 0.96 75.02 0.96 74.02C0.96 73.02 1.16667 72.1333 1.58 71.36C1.99333 70.5733 2.56667 69.96 3.3 69.52C4.03333 69.0667 4.9 68.84 5.9 68.84C6.71333 68.84 7.43333 69.0067 8.06 69.34C8.68667 69.6733 9.17333 70.14 9.52 70.74V64.6H11.2V79H9.68L9.52 77.36C9.2 77.84 8.74 78.2733 8.14 78.66C7.54 79.0467 6.78667 79.24 5.88 79.24ZM6.06 77.78C6.72667 77.78 7.31333 77.6267 7.82 77.32C8.34 77 8.74 76.56 9.02 76C9.31333 75.44 9.46 74.7867 9.46 74.04C9.46 73.2933 9.31333 72.64 9.02 72.08C8.74 71.52 8.34 71.0867 7.82 70.78C7.31333 70.46 6.72667 70.3 6.06 70.3C5.40667 70.3 4.82 70.46 4.3 70.78C3.79333 71.0867 3.39333 71.52 3.1 72.08C2.82 72.64 2.68 73.2933 2.68 74.04C2.68 74.7867 2.82 75.44 3.1 76C3.39333 76.56 3.79333 77 4.3 77.32C4.82 77.6267 5.40667 77.78 6.06 77.78ZM14.9586 66.88C14.6253 66.88 14.3453 66.7733 14.1186 66.56C13.9053 66.3333 13.7986 66.0533 13.7986 65.72C13.7986 65.4 13.9053 65.1333 14.1186 64.92C14.3453 64.7067 14.6253 64.6 14.9586 64.6C15.2786 64.6 15.5519 64.7067 15.7786 64.92C16.0053 65.1333 16.1186 65.4 16.1186 65.72C16.1186 66.0533 16.0053 66.3333 15.7786 66.56C15.5519 66.7733 15.2786 66.88 14.9586 66.88ZM14.1186 79V69.08H15.7986V79H14.1186ZM23.2838 79.24C22.3371 79.24 21.4838 79.0267 20.7238 78.6C19.9771 78.16 19.3838 77.5533 18.9438 76.78C18.5171 75.9933 18.3038 75.08 18.3038 74.04C18.3038 73 18.5171 72.0933 18.9438 71.32C19.3838 70.5333 19.9771 69.9267 20.7238 69.5C21.4838 69.06 22.3371 68.84 23.2838 68.84C24.4571 68.84 25.4438 69.1467 26.2438 69.76C27.0571 70.3733 27.5704 71.1933 27.7838 72.22H26.0638C25.9304 71.6067 25.6038 71.1333 25.0838 70.8C24.5638 70.4533 23.9571 70.28 23.2638 70.28C22.7038 70.28 22.1771 70.42 21.6838 70.7C21.1904 70.98 20.7904 71.4 20.4838 71.96C20.1771 72.52 20.0238 73.2133 20.0238 74.04C20.0238 74.8667 20.1771 75.56 20.4838 76.12C20.7904 76.68 21.1904 77.1067 21.6838 77.4C22.1771 77.68 22.7038 77.82 23.2638 77.82C23.9571 77.82 24.5638 77.6533 25.0838 77.32C25.6038 76.9733 25.9304 76.4867 26.0638 75.86H27.7838C27.5838 76.86 27.0771 77.6733 26.2638 78.3C25.4504 78.9267 24.4571 79.24 23.2838 79.24ZM34.59 79.24C33.6433 79.24 32.8033 79.0267 32.07 78.6C31.3367 78.16 30.7567 77.5533 30.33 76.78C29.9167 76.0067 29.71 75.0933 29.71 74.04C29.71 73 29.9167 72.0933 30.33 71.32C30.7433 70.5333 31.3167 69.9267 32.05 69.5C32.7967 69.06 33.6567 68.84 34.63 68.84C35.59 68.84 36.4167 69.06 37.11 69.5C37.8167 69.9267 38.3567 70.4933 38.73 71.2C39.1033 71.9067 39.29 72.6667 39.29 73.48C39.29 73.6267 39.2833 73.7733 39.27 73.92C39.27 74.0667 39.27 74.2333 39.27 74.42H31.37C31.41 75.18 31.5833 75.8133 31.89 76.32C32.21 76.8133 32.6033 77.1867 33.07 77.44C33.55 77.6933 34.0567 77.82 34.59 77.82C35.2833 77.82 35.8633 77.66 36.33 77.34C36.7967 77.02 37.1367 76.5867 37.35 76.04H39.01C38.7433 76.96 38.23 77.7267 37.47 78.34C36.7233 78.94 35.7633 79.24 34.59 79.24ZM34.59 70.26C33.79 70.26 33.0767 70.5067 32.45 71C31.8367 71.48 31.4833 72.1867 31.39 73.12H37.63C37.59 72.2267 37.2833 71.5267 36.71 71.02C36.1367 70.5133 35.43 70.26 34.59 70.26ZM41.5167 79V69.08H43.0367L43.1767 70.98C43.4834 70.3267 43.9501 69.8067 44.5767 69.42C45.2034 69.0333 45.9767 68.84 46.8967 68.84V70.6H46.4367C45.8501 70.6 45.3101 70.7067 44.8167 70.92C44.3234 71.12 43.9301 71.4667 43.6367 71.96C43.3434 72.4533 43.1967 73.1333 43.1967 74V79H41.5167ZM52.8713 79.24C51.9246 79.24 51.0846 79.0267 50.3513 78.6C49.6179 78.16 49.0379 77.5533 48.6113 76.78C48.1979 76.0067 47.9913 75.0933 47.9913 74.04C47.9913 73 48.1979 72.0933 48.6113 71.32C49.0246 70.5333 49.5979 69.9267 50.3313 69.5C51.0779 69.06 51.9379 68.84 52.9112 68.84C53.8713 68.84 54.6979 69.06 55.3913 69.5C56.0979 69.9267 56.6379 70.4933 57.0113 71.2C57.3846 71.9067 57.5713 72.6667 57.5713 73.48C57.5713 73.6267 57.5646 73.7733 57.5513 73.92C57.5513 74.0667 57.5513 74.2333 57.5513 74.42H49.6513C49.6913 75.18 49.8646 75.8133 50.1713 76.32C50.4913 76.8133 50.8846 77.1867 51.3513 77.44C51.8313 77.6933 52.3379 77.82 52.8713 77.82C53.5646 77.82 54.1446 77.66 54.6113 77.34C55.0779 77.02 55.4179 76.5867 55.6313 76.04H57.2913C57.0246 76.96 56.5113 77.7267 55.7513 78.34C55.0046 78.94 54.0446 79.24 52.8713 79.24ZM52.8713 70.26C52.0713 70.26 51.3579 70.5067 50.7313 71C50.1179 71.48 49.7646 72.1867 49.6712 73.12H55.9113C55.8713 72.2267 55.5646 71.5267 54.9913 71.02C54.4179 70.5133 53.7113 70.26 52.8713 70.26ZM63.3859 79C62.4793 79 61.7659 78.78 61.2459 78.34C60.7259 77.9 60.4659 77.1067 60.4659 75.96V70.5H58.7459V69.08H60.4659L60.6859 66.7H62.1459V69.08H65.0659V70.5H62.1459V75.96C62.1459 76.5867 62.2726 77.0133 62.5259 77.24C62.7793 77.4533 63.2259 77.56 63.8659 77.56H64.9059V79H63.3859ZM76.4133 79C75.5066 79 74.7933 78.78 74.2733 78.34C73.7533 77.9 73.4933 77.1067 73.4933 75.96V70.5H71.7733V69.08H73.4933L73.7133 66.7H75.1733V69.08H78.0933V70.5H75.1733V75.96C75.1733 76.5867 75.2999 77.0133 75.5533 77.24C75.8066 77.4533 76.2533 77.56 76.8933 77.56H77.9333V79H76.4133ZM84.4142 79.24C83.4676 79.24 82.6276 79.0267 81.8942 78.6C81.1609 78.16 80.5809 77.5533 80.1542 76.78C79.7409 76.0067 79.5342 75.0933 79.5342 74.04C79.5342 73 79.7409 72.0933 80.1542 71.32C80.5676 70.5333 81.1409 69.9267 81.8742 69.5C82.6209 69.06 83.4809 68.84 84.4542 68.84C85.4142 68.84 86.2409 69.06 86.9342 69.5C87.6409 69.9267 88.1809 70.4933 88.5542 71.2C88.9276 71.9067 89.1142 72.6667 89.1142 73.48C89.1142 73.6267 89.1076 73.7733 89.0942 73.92C89.0942 74.0667 89.0942 74.2333 89.0942 74.42H81.1942C81.2342 75.18 81.4076 75.8133 81.7142 76.32C82.0342 76.8133 82.4276 77.1867 82.8942 77.44C83.3742 77.6933 83.8809 77.82 84.4142 77.82C85.1076 77.82 85.6876 77.66 86.1542 77.34C86.6209 77.02 86.9609 76.5867 87.1742 76.04H88.8342C88.5676 76.96 88.0542 77.7267 87.2942 78.34C86.5476 78.94 85.5876 79.24 84.4142 79.24ZM84.4142 70.26C83.6142 70.26 82.9009 70.5067 82.2742 71C81.6609 71.48 81.3076 72.1867 81.2142 73.12H87.4542C87.4142 72.2267 87.1076 71.5267 86.5342 71.02C85.9609 70.5133 85.2542 70.26 84.4142 70.26ZM91.9209 79.1C91.5876 79.1 91.3076 78.9933 91.0809 78.78C90.8676 78.5533 90.7609 78.28 90.7609 77.96C90.7609 77.64 90.8676 77.3733 91.0809 77.16C91.3076 76.9333 91.5876 76.82 91.9209 76.82C92.2409 76.82 92.5076 76.9333 92.7209 77.16C92.9476 77.3733 93.0609 77.64 93.0609 77.96C93.0609 78.28 92.9476 78.5533 92.7209 78.78C92.5076 78.9933 92.2409 79.1 91.9209 79.1ZM107 79.24C105.627 79.24 104.42 78.94 103.38 78.34C102.353 77.7267 101.547 76.8733 100.96 75.78C100.387 74.6867 100.1 73.4267 100.1 72C100.1 70.5733 100.387 69.32 100.96 68.24C101.547 67.1467 102.353 66.2933 103.38 65.68C104.42 65.0667 105.627 64.76 107 64.76C108.387 64.76 109.593 65.0667 110.62 65.68C111.66 66.2933 112.467 67.1467 113.04 68.24C113.613 69.32 113.9 70.5733 113.9 72C113.9 73.4267 113.613 74.6867 113.04 75.78C112.467 76.86 111.68 77.7 110.68 78.3L114.22 81.7H112.04L109.2 78.94C108.52 79.14 107.787 79.24 107 79.24ZM107 77.76C108.027 77.76 108.927 77.5333 109.7 77.08C110.487 76.6133 111.093 75.9533 111.52 75.1C111.96 74.2333 112.18 73.2 112.18 72C112.18 70.8 111.96 69.7733 111.52 68.92C111.093 68.0667 110.487 67.4133 109.7 66.96C108.927 66.4933 108.027 66.26 107 66.26C105.973 66.26 105.067 66.4933 104.28 66.96C103.507 67.4133 102.9 68.0667 102.46 68.92C102.033 69.7733 101.82 70.8 101.82 72C101.82 73.2 102.033 74.2333 102.46 75.1C102.9 75.9533 103.507 76.6133 104.28 77.08C105.067 77.5333 105.973 77.76 107 77.76ZM125.06 69.08V79H123.54L123.44 77.22C123.12 77.8467 122.66 78.34 122.06 78.7C121.46 79.06 120.78 79.24 120.02 79.24C118.847 79.24 117.907 78.8867 117.2 78.18C116.507 77.46 116.16 76.36 116.16 74.88V69.08H117.84V74.7C117.84 76.7667 118.693 77.8 120.4 77.8C121.253 77.8 121.96 77.4933 122.52 76.88C123.093 76.2533 123.38 75.3667 123.38 74.22V69.08H125.06ZM128.845 66.88C128.512 66.88 128.232 66.7733 128.005 66.56C127.792 66.3333 127.685 66.0533 127.685 65.72C127.685 65.4 127.792 65.1333 128.005 64.92C128.232 64.7067 128.512 64.6 128.845 64.6C129.165 64.6 129.439 64.7067 129.665 64.92C129.892 65.1333 130.005 65.4 130.005 65.72C130.005 66.0533 129.892 66.3333 129.665 66.56C129.439 66.7733 129.165 66.88 128.845 66.88ZM128.005 79V69.08H129.685V79H128.005ZM137.903 79V69.08H139.423L139.523 70.86C139.843 70.2333 140.303 69.74 140.903 69.38C141.503 69.02 142.183 68.84 142.943 68.84C144.117 68.84 145.05 69.2 145.743 69.92C146.45 70.6267 146.803 71.72 146.803 73.2V79H145.123V73.38C145.123 71.3133 144.27 70.28 142.563 70.28C141.71 70.28 140.997 70.5933 140.423 71.22C139.863 71.8333 139.583 72.7133 139.583 73.86V79H137.903ZM153.869 79.24C152.935 79.24 152.095 79.0267 151.349 78.6C150.602 78.1733 150.009 77.5733 149.569 76.8C149.142 76.0133 148.929 75.0933 148.929 74.04C148.929 72.9867 149.149 72.0733 149.589 71.3C150.029 70.5133 150.622 69.9067 151.369 69.48C152.129 69.0533 152.975 68.84 153.909 68.84C154.842 68.84 155.682 69.0533 156.429 69.48C157.175 69.9067 157.762 70.5133 158.189 71.3C158.629 72.0733 158.849 72.9867 158.849 74.04C158.849 75.0933 158.629 76.0133 158.189 76.8C157.749 77.5733 157.149 78.1733 156.389 78.6C155.642 79.0267 154.802 79.24 153.869 79.24ZM153.869 77.8C154.442 77.8 154.975 77.66 155.469 77.38C155.962 77.1 156.362 76.68 156.669 76.12C156.975 75.56 157.129 74.8667 157.129 74.04C157.129 73.2133 156.975 72.52 156.669 71.96C156.375 71.4 155.982 70.98 155.489 70.7C154.995 70.42 154.469 70.28 153.909 70.28C153.335 70.28 152.802 70.42 152.309 70.7C151.815 70.98 151.415 71.4 151.109 71.96C150.802 72.52 150.649 73.2133 150.649 74.04C150.649 74.8667 150.802 75.56 151.109 76.12C151.415 76.68 151.809 77.1 152.289 77.38C152.782 77.66 153.309 77.8 153.869 77.8ZM170.278 79.24C169.091 79.24 168.104 78.94 167.318 78.34C166.531 77.74 166.071 76.9267 165.938 75.9H167.658C167.764 76.42 168.038 76.8733 168.478 77.26C168.931 77.6333 169.538 77.82 170.298 77.82C171.004 77.82 171.524 77.6733 171.858 77.38C172.191 77.0733 172.358 76.7133 172.358 76.3C172.358 75.7 172.138 75.3 171.698 75.1C171.271 74.9 170.664 74.72 169.878 74.56C169.344 74.4533 168.811 74.3 168.278 74.1C167.744 73.9 167.298 73.62 166.938 73.26C166.578 72.8867 166.398 72.4 166.398 71.8C166.398 70.9333 166.718 70.2267 167.358 69.68C168.011 69.12 168.891 68.84 169.998 68.84C171.051 68.84 171.911 69.1067 172.578 69.64C173.258 70.16 173.651 70.9067 173.758 71.88H172.098C172.031 71.3733 171.811 70.98 171.438 70.7C171.078 70.4067 170.591 70.26 169.978 70.26C169.378 70.26 168.911 70.3867 168.578 70.64C168.258 70.8933 168.098 71.2267 168.098 71.64C168.098 72.04 168.304 72.3533 168.718 72.58C169.144 72.8067 169.718 73 170.438 73.16C171.051 73.2933 171.631 73.46 172.178 73.66C172.738 73.8467 173.191 74.1333 173.538 74.52C173.898 74.8933 174.078 75.44 174.078 76.16C174.091 77.0533 173.751 77.7933 173.058 78.38C172.378 78.9533 171.451 79.24 170.278 79.24ZM179.948 79C179.042 79 178.328 78.78 177.808 78.34C177.288 77.9 177.028 77.1067 177.028 75.96V70.5H175.308V69.08H177.028L177.248 66.7H178.708V69.08H181.628V70.5H178.708V75.96C178.708 76.5867 178.835 77.0133 179.088 77.24C179.342 77.4533 179.788 77.56 180.428 77.56H181.468V79H179.948ZM187.949 79.24C187.003 79.24 186.163 79.0267 185.429 78.6C184.696 78.16 184.116 77.5533 183.689 76.78C183.276 76.0067 183.069 75.0933 183.069 74.04C183.069 73 183.276 72.0933 183.689 71.32C184.103 70.5333 184.676 69.9267 185.409 69.5C186.156 69.06 187.016 68.84 187.989 68.84C188.949 68.84 189.776 69.06 190.469 69.5C191.176 69.9267 191.716 70.4933 192.089 71.2C192.463 71.9067 192.649 72.6667 192.649 73.48C192.649 73.6267 192.643 73.7733 192.629 73.92C192.629 74.0667 192.629 74.2333 192.629 74.42H184.729C184.769 75.18 184.943 75.8133 185.249 76.32C185.569 76.8133 185.963 77.1867 186.429 77.44C186.909 77.6933 187.416 77.82 187.949 77.82C188.643 77.82 189.223 77.66 189.689 77.34C190.156 77.02 190.496 76.5867 190.709 76.04H192.369C192.103 76.96 191.589 77.7267 190.829 78.34C190.083 78.94 189.123 79.24 187.949 79.24ZM187.949 70.26C187.149 70.26 186.436 70.5067 185.809 71C185.196 71.48 184.843 72.1867 184.749 73.12H190.989C190.949 72.2267 190.643 71.5267 190.069 71.02C189.496 70.5133 188.789 70.26 187.949 70.26ZM198.464 79C197.557 79 196.844 78.78 196.324 78.34C195.804 77.9 195.544 77.1067 195.544 75.96V70.5H193.824V69.08H195.544L195.764 66.7H197.224V69.08H200.144V70.5H197.224V75.96C197.224 76.5867 197.351 77.0133 197.604 77.24C197.857 77.4533 198.304 77.56 198.944 77.56H199.984V79H198.464ZM208.111 79V70.5H206.611V69.08H208.111V67.36C208.111 66.4 208.351 65.7 208.831 65.26C209.311 64.82 210.011 64.6 210.931 64.6H211.931V66.04H211.191C210.685 66.04 210.325 66.1467 210.111 66.36C209.898 66.56 209.791 66.9067 209.791 67.4V69.08H212.231V70.5H209.791V79H208.111ZM218.301 79.24C217.354 79.24 216.514 79.0267 215.781 78.6C215.048 78.16 214.468 77.5533 214.041 76.78C213.628 76.0067 213.421 75.0933 213.421 74.04C213.421 73 213.628 72.0933 214.041 71.32C214.454 70.5333 215.028 69.9267 215.761 69.5C216.508 69.06 217.368 68.84 218.341 68.84C219.301 68.84 220.128 69.06 220.821 69.5C221.528 69.9267 222.068 70.4933 222.441 71.2C222.814 71.9067 223.001 72.6667 223.001 73.48C223.001 73.6267 222.994 73.7733 222.981 73.92C222.981 74.0667 222.981 74.2333 222.981 74.42H215.081C215.121 75.18 215.294 75.8133 215.601 76.32C215.921 76.8133 216.314 77.1867 216.781 77.44C217.261 77.6933 217.768 77.82 218.301 77.82C218.994 77.82 219.574 77.66 220.041 77.34C220.508 77.02 220.848 76.5867 221.061 76.04H222.721C222.454 76.96 221.941 77.7267 221.181 78.34C220.434 78.94 219.474 79.24 218.301 79.24ZM218.301 70.26C217.501 70.26 216.788 70.5067 216.161 71C215.548 71.48 215.194 72.1867 215.101 73.12H221.341C221.301 72.2267 220.994 71.5267 220.421 71.02C219.848 70.5133 219.141 70.26 218.301 70.26ZM225.228 79V69.08H226.748L226.888 70.98C227.194 70.3267 227.661 69.8067 228.288 69.42C228.914 69.0333 229.688 68.84 230.608 68.84V70.6H230.148C229.561 70.6 229.021 70.7067 228.528 70.92C228.034 71.12 227.641 71.4667 227.348 71.96C227.054 72.4533 226.908 73.1333 226.908 74V79H225.228ZM232.493 79V69.08H234.013L234.153 70.98C234.46 70.3267 234.927 69.8067 235.553 69.42C236.18 69.0333 236.953 68.84 237.873 68.84V70.6H237.413C236.827 70.6 236.287 70.7067 235.793 70.92C235.3 71.12 234.907 71.4667 234.613 71.96C234.32 72.4533 234.173 73.1333 234.173 74V79H232.493ZM240.779 66.88C240.446 66.88 240.166 66.7733 239.939 66.56C239.726 66.3333 239.619 66.0533 239.619 65.72C239.619 65.4 239.726 65.1333 239.939 64.92C240.166 64.7067 240.446 64.6 240.779 64.6C241.099 64.6 241.372 64.7067 241.599 64.92C241.826 65.1333 241.939 65.4 241.939 65.72C241.939 66.0533 241.826 66.3333 241.599 66.56C241.372 66.7733 241.099 66.88 240.779 66.88ZM239.939 79V69.08H241.619V79H239.939ZM257.977 83.4V77.36C257.657 77.84 257.197 78.2733 256.597 78.66C255.997 79.0467 255.244 79.24 254.337 79.24C253.35 79.24 252.484 79.0133 251.737 78.56C251.004 78.1067 250.43 77.4867 250.017 76.7C249.617 75.9133 249.417 75.02 249.417 74.02C249.417 73.02 249.624 72.1333 250.037 71.36C250.45 70.5733 251.024 69.96 251.757 69.52C252.49 69.0667 253.357 68.84 254.357 68.84C255.17 68.84 255.89 69.0067 256.517 69.34C257.144 69.6733 257.63 70.14 257.977 70.74L258.137 69.08H259.657V83.4H257.977ZM254.517 77.78C255.184 77.78 255.77 77.6267 256.277 77.32C256.797 77 257.197 76.56 257.477 76C257.77 75.44 257.917 74.7867 257.917 74.04C257.917 73.2933 257.77 72.64 257.477 72.08C257.197 71.52 256.797 71.0867 256.277 70.78C255.77 70.46 255.184 70.3 254.517 70.3C253.864 70.3 253.277 70.46 252.757 70.78C252.25 71.0867 251.85 71.52 251.557 72.08C251.277 72.64 251.137 73.2933 251.137 74.04C251.137 74.7867 251.277 75.44 251.557 76C251.85 76.56 252.25 77 252.757 77.32C253.277 77.6267 253.864 77.78 254.517 77.78ZM271.076 69.08V79H269.556L269.456 77.22C269.136 77.8467 268.676 78.34 268.076 78.7C267.476 79.06 266.796 79.24 266.036 79.24C264.862 79.24 263.922 78.8867 263.216 78.18C262.522 77.46 262.176 76.36 262.176 74.88V69.08H263.856V74.7C263.856 76.7667 264.709 77.8 266.416 77.8C267.269 77.8 267.976 77.4933 268.536 76.88C269.109 76.2533 269.396 75.3667 269.396 74.22V69.08H271.076ZM277.141 79.24C276.314 79.24 275.628 79.1 275.081 78.82C274.534 78.54 274.128 78.1667 273.861 77.7C273.594 77.2333 273.461 76.7267 273.461 76.18C273.461 75.1667 273.848 74.3867 274.621 73.84C275.394 73.2933 276.448 73.02 277.781 73.02H280.461V72.9C280.461 72.0333 280.234 71.38 279.781 70.94C279.328 70.4867 278.721 70.26 277.961 70.26C277.308 70.26 276.741 70.4267 276.261 70.76C275.794 71.08 275.501 71.5533 275.381 72.18H273.661C273.728 71.46 273.968 70.8533 274.381 70.36C274.808 69.8667 275.334 69.4933 275.961 69.24C276.588 68.9733 277.254 68.84 277.961 68.84C279.348 68.84 280.388 69.2133 281.081 69.96C281.788 70.6933 282.141 71.6733 282.141 72.9V79H280.641L280.541 77.22C280.261 77.78 279.848 78.26 279.301 78.66C278.768 79.0467 278.048 79.24 277.141 79.24ZM277.401 77.82C278.041 77.82 278.588 77.6533 279.041 77.32C279.508 76.9867 279.861 76.5533 280.101 76.02C280.341 75.4867 280.461 74.9267 280.461 74.34V74.32H277.921C276.934 74.32 276.234 74.4933 275.821 74.84C275.421 75.1733 275.221 75.5933 275.221 76.1C275.221 76.62 275.408 77.04 275.781 77.36C276.168 77.6667 276.708 77.82 277.401 77.82ZM284.661 79V64.6H286.341V79H284.661ZM290.115 66.88C289.782 66.88 289.502 66.7733 289.275 66.56C289.062 66.3333 288.955 66.0533 288.955 65.72C288.955 65.4 289.062 65.1333 289.275 64.92C289.502 64.7067 289.782 64.6 290.115 64.6C290.435 64.6 290.708 64.7067 290.935 64.92C291.162 65.1333 291.275 65.4 291.275 65.72C291.275 66.0533 291.162 66.3333 290.935 66.56C290.708 66.7733 290.435 66.88 290.115 66.88ZM289.275 79V69.08H290.955V79H289.275ZM297.68 79.24C296.493 79.24 295.507 78.94 294.72 78.34C293.933 77.74 293.473 76.9267 293.34 75.9H295.06C295.167 76.42 295.44 76.8733 295.88 77.26C296.333 77.6333 296.94 77.82 297.7 77.82C298.407 77.82 298.927 77.6733 299.26 77.38C299.593 77.0733 299.76 76.7133 299.76 76.3C299.76 75.7 299.54 75.3 299.1 75.1C298.673 74.9 298.067 74.72 297.28 74.56C296.747 74.4533 296.213 74.3 295.68 74.1C295.147 73.9 294.7 73.62 294.34 73.26C293.98 72.8867 293.8 72.4 293.8 71.8C293.8 70.9333 294.12 70.2267 294.76 69.68C295.413 69.12 296.293 68.84 297.4 68.84C298.453 68.84 299.313 69.1067 299.98 69.64C300.66 70.16 301.053 70.9067 301.16 71.88H299.5C299.433 71.3733 299.213 70.98 298.84 70.7C298.48 70.4067 297.993 70.26 297.38 70.26C296.78 70.26 296.313 70.3867 295.98 70.64C295.66 70.8933 295.5 71.2267 295.5 71.64C295.5 72.04 295.707 72.3533 296.12 72.58C296.547 72.8067 297.12 73 297.84 73.16C298.453 73.2933 299.033 73.46 299.58 73.66C300.14 73.8467 300.593 74.1333 300.94 74.52C301.3 74.8933 301.48 75.44 301.48 76.16C301.493 77.0533 301.153 77.7933 300.46 78.38C299.78 78.9533 298.853 79.24 297.68 79.24ZM312.02 83.4V77.36C311.7 77.84 311.24 78.2733 310.64 78.66C310.04 79.0467 309.287 79.24 308.38 79.24C307.393 79.24 306.527 79.0133 305.78 78.56C305.047 78.1067 304.473 77.4867 304.06 76.7C303.66 75.9133 303.46 75.02 303.46 74.02C303.46 73.02 303.667 72.1333 304.08 71.36C304.493 70.5733 305.067 69.96 305.8 69.52C306.533 69.0667 307.4 68.84 308.4 68.84C309.213 68.84 309.933 69.0067 310.56 69.34C311.187 69.6733 311.673 70.14 312.02 70.74L312.18 69.08H313.7V83.4H312.02ZM308.56 77.78C309.227 77.78 309.813 77.6267 310.32 77.32C310.84 77 311.24 76.56 311.52 76C311.813 75.44 311.96 74.7867 311.96 74.04C311.96 73.2933 311.813 72.64 311.52 72.08C311.24 71.52 310.84 71.0867 310.32 70.78C309.813 70.46 309.227 70.3 308.56 70.3C307.907 70.3 307.32 70.46 306.8 70.78C306.293 71.0867 305.893 71.52 305.6 72.08C305.32 72.64 305.18 73.2933 305.18 74.04C305.18 74.7867 305.32 75.44 305.6 76C305.893 76.56 306.293 77 306.8 77.32C307.32 77.6267 307.907 77.78 308.56 77.78ZM325.119 69.08V79H323.599L323.499 77.22C323.179 77.8467 322.719 78.34 322.119 78.7C321.519 79.06 320.839 79.24 320.079 79.24C318.905 79.24 317.965 78.8867 317.259 78.18C316.565 77.46 316.219 76.36 316.219 74.88V69.08H317.899V74.7C317.899 76.7667 318.752 77.8 320.459 77.8C321.312 77.8 322.019 77.4933 322.579 76.88C323.152 76.2533 323.439 75.3667 323.439 74.22V69.08H325.119ZM332.344 79.24C331.397 79.24 330.557 79.0267 329.824 78.6C329.091 78.16 328.511 77.5533 328.084 76.78C327.671 76.0067 327.464 75.0933 327.464 74.04C327.464 73 327.671 72.0933 328.084 71.32C328.497 70.5333 329.071 69.9267 329.804 69.5C330.551 69.06 331.411 68.84 332.384 68.84C333.344 68.84 334.171 69.06 334.864 69.5C335.571 69.9267 336.111 70.4933 336.484 71.2C336.857 71.9067 337.044 72.6667 337.044 73.48C337.044 73.6267 337.037 73.7733 337.024 73.92C337.024 74.0667 337.024 74.2333 337.024 74.42H329.124C329.164 75.18 329.337 75.8133 329.644 76.32C329.964 76.8133 330.357 77.1867 330.824 77.44C331.304 77.6933 331.811 77.82 332.344 77.82C333.037 77.82 333.617 77.66 334.084 77.34C334.551 77.02 334.891 76.5867 335.104 76.04H336.764C336.497 76.96 335.984 77.7267 335.224 78.34C334.477 78.94 333.517 79.24 332.344 79.24ZM332.344 70.26C331.544 70.26 330.831 70.5067 330.204 71C329.591 71.48 329.237 72.1867 329.144 73.12H335.384C335.344 72.2267 335.037 71.5267 334.464 71.02C333.891 70.5133 333.184 70.26 332.344 70.26ZM339.851 79.1C339.517 79.1 339.237 78.9933 339.011 78.78C338.797 78.5533 338.691 78.28 338.691 77.96C338.691 77.64 338.797 77.3733 339.011 77.16C339.237 76.9333 339.517 76.82 339.851 76.82C340.171 76.82 340.437 76.9333 340.651 77.16C340.877 77.3733 340.991 77.64 340.991 77.96C340.991 78.28 340.877 78.5533 340.651 78.78C340.437 78.9933 340.171 79.1 339.851 79.1Z" fill="white"/>
</svg>
