<svg width="329" height="102" viewBox="0 0 329 102" fill="none" xmlns="http://www.w3.org/2000/svg">
<path d="M17.984 38.008C15.1467 38.008 12.6267 37.504 10.424 36.496C8.25867 35.488 6.56 33.9013 5.328 31.736C4.13333 29.5333 3.536 26.64 3.536 23.056V3.736C3.536 2.31733 2.808 1.384 1.352 0.935997L0.12 0.599998V0.0399985H15.632V0.599998L14.008 1.048C12.6267 1.384 11.936 2.31733 11.936 3.848V24.512C11.936 27.984 12.664 30.56 14.12 32.24C15.576 33.8827 17.6667 34.704 20.392 34.704C23.2293 34.704 25.4693 33.8267 27.112 32.072C28.792 30.3173 29.632 27.8347 29.632 24.624V4.072C29.632 3.32533 29.5013 2.672 29.24 2.112C29.016 1.51466 28.5307 1.12266 27.784 0.935997L26.384 0.599998V0.0399985H34.224V0.599998L32.712 0.992C32.0027 1.14133 31.536 1.496 31.312 2.056C31.088 2.616 30.976 3.26933 30.976 4.016V24.512C30.976 27.2373 30.4347 29.6267 29.352 31.68C28.2693 33.696 26.7573 35.264 24.816 36.384C22.8747 37.4667 20.5973 38.008 17.984 38.008ZM34.7919 37V36.44L35.5759 36.216C36.8825 35.8427 37.5359 34.928 37.5359 33.472V15.944C37.5359 15.1227 37.4052 14.5253 37.1439 14.152C36.8825 13.7413 36.3785 13.4613 35.6319 13.312L34.7919 13.088V12.528L44.3679 9.28L44.9279 9.84L45.3759 13.2C46.6825 12.0427 48.1572 11.0907 49.7999 10.344C51.4425 9.59733 53.0665 9.224 54.6719 9.224C57.1359 9.224 59.0212 9.896 60.3279 11.24C61.6719 12.584 62.3439 14.6373 62.3439 17.4V33.528C62.3439 34.984 63.0532 35.8987 64.4719 36.272L64.9759 36.44V37H51.7599V36.44L52.4879 36.216C53.7945 35.8053 54.4479 34.8907 54.4479 33.472V15.608C54.4479 13.2187 53.2532 12.024 50.8639 12.024C49.2212 12.024 47.4292 12.8453 45.4879 14.488V33.528C45.4879 34.984 46.1412 35.8987 47.4479 36.272L47.9519 36.44V37H34.7919ZM77.0294 37.84C75.5734 37.84 74.2294 37.56 72.9974 37C71.8028 36.44 70.8508 35.544 70.1414 34.312C69.4694 33.0427 69.1521 31.3813 69.1894 29.328L69.3574 14.936C69.3574 14.0773 69.2081 13.4613 68.9094 13.088C68.6108 12.7147 68.1441 12.4533 67.5094 12.304L66.8374 12.08V11.52L76.8614 9.56L77.4214 10.12L77.1414 18.072V31.568C77.1414 32.7627 77.4774 33.64 78.1494 34.2C78.8588 34.76 79.7361 35.04 80.7814 35.04C81.8268 35.04 82.7601 34.8907 83.5814 34.592C84.4028 34.2933 85.2241 33.8453 86.0454 33.248L86.2694 14.992C86.2694 14.1333 86.1388 13.536 85.8774 13.2C85.6161 12.8267 85.1308 12.5653 84.4214 12.416L83.8614 12.248V11.688L93.6614 9.56L94.2214 10.12L94.0534 18.072V33.248C94.0534 34.0693 94.1654 34.704 94.3894 35.152C94.6134 35.6 95.0988 35.9733 95.8454 36.272L96.4054 36.44V37L86.6054 37.56L86.1014 34.256C84.8694 35.264 83.5254 36.1227 82.0694 36.832C80.6508 37.504 78.9708 37.84 77.0294 37.84ZM98.6669 37V36.44L99.4509 36.216C100.16 36.0293 100.646 35.712 100.907 35.264C101.206 34.816 101.374 34.2187 101.411 33.472V15.944C101.411 15.1227 101.28 14.5253 101.019 14.152C100.758 13.7413 100.254 13.4613 99.5069 13.312L98.6669 13.088V12.528L108.243 9.28L108.803 9.84L109.251 13.648C110.483 12.416 111.883 11.3707 113.451 10.512C115.056 9.65333 116.718 9.224 118.435 9.224C120.227 9.224 121.664 9.59733 122.747 10.344C123.83 11.0533 124.651 12.1733 125.211 13.704C126.667 12.3227 128.235 11.24 129.915 10.456C131.632 9.63467 133.294 9.224 134.899 9.224C137.55 9.224 139.491 9.85867 140.723 11.128C141.992 12.3973 142.627 14.3947 142.627 17.12V33.528C142.627 34.984 143.299 35.8987 144.643 36.272L145.259 36.44V37H132.323V36.44L132.883 36.272C133.592 36.048 134.078 35.712 134.339 35.264C134.638 34.816 134.787 34.2187 134.787 33.472V16.336C134.787 14.768 134.507 13.704 133.947 13.144C133.387 12.5467 132.491 12.248 131.259 12.248C130.288 12.248 129.336 12.472 128.403 12.92C127.507 13.3307 126.555 13.9653 125.547 14.824C125.734 15.4213 125.846 16.0747 125.883 16.784C125.958 17.4933 125.995 18.24 125.995 19.024V33.528C126.032 34.984 126.704 35.8987 128.011 36.272L128.515 36.44V37H115.523V36.44L116.307 36.216C117.016 35.992 117.502 35.6747 117.763 35.264C118.062 34.816 118.211 34.2187 118.211 33.472V16.392C118.211 14.8987 117.931 13.8347 117.371 13.2C116.848 12.5653 115.934 12.248 114.627 12.248C113.768 12.248 112.91 12.472 112.051 12.92C111.192 13.3307 110.296 13.9467 109.363 14.768V33.528C109.363 34.984 110.016 35.8987 111.323 36.272L111.827 36.44V37H98.6669ZM159.643 49.88V49.32L160.315 49.096C161.697 48.7227 162.387 47.8267 162.387 46.408V15.944C162.387 15.1227 162.238 14.5067 161.939 14.096C161.678 13.6853 161.174 13.4053 160.427 13.256L159.643 13.088V12.528L169.163 9.28L169.723 9.84L170.227 11.576C171.459 10.8293 172.822 10.2507 174.315 9.84C175.846 9.42933 177.414 9.224 179.019 9.224C182.23 9.224 184.769 10.456 186.635 12.92C188.539 15.3467 189.491 18.8373 189.491 23.392C189.491 27.872 188.446 31.4 186.355 33.976C184.302 36.552 181.39 37.84 177.619 37.84C174.67 37.84 172.187 37.4107 170.171 36.552V46.24C170.171 47.7333 170.843 48.6667 172.187 49.04L173.251 49.32V49.88H159.643ZM174.931 36.216C176.798 36.216 178.273 35.2453 179.355 33.304C180.475 31.3627 181.035 28.1333 181.035 23.616C181.035 19.0987 180.513 15.944 179.467 14.152C178.422 12.3227 176.91 11.408 174.931 11.408C173.55 11.408 172.019 11.856 170.339 12.752V35.32C171.758 35.9173 173.289 36.216 174.931 36.216ZM206.515 37.84C203.677 37.84 201.213 37.2613 199.123 36.104C197.032 34.9093 195.408 33.2293 194.251 31.064C193.131 28.8987 192.571 26.36 192.571 23.448C192.571 20.536 193.168 18.016 194.363 15.888C195.595 13.76 197.256 12.1173 199.347 10.96C201.475 9.80267 203.864 9.224 206.515 9.224C209.165 9.224 211.536 9.80267 213.627 10.96C215.717 12.08 217.36 13.704 218.555 15.832C219.787 17.96 220.403 20.4987 220.403 23.448C220.403 26.3973 219.824 28.9547 218.667 31.12C217.547 33.248 215.941 34.9093 213.851 36.104C211.797 37.2613 209.352 37.84 206.515 37.84ZM206.515 36.72C207.821 36.72 208.867 36.3467 209.651 35.6C210.435 34.8533 210.995 33.528 211.331 31.624C211.704 29.72 211.891 27.032 211.891 23.56C211.891 20.0507 211.704 17.344 211.331 15.44C210.995 13.536 210.435 12.2107 209.651 11.464C208.867 10.7173 207.821 10.344 206.515 10.344C205.208 10.344 204.144 10.7173 203.323 11.464C202.539 12.2107 201.96 13.536 201.587 15.44C201.251 17.344 201.083 20.0507 201.083 23.56C201.083 27.032 201.251 29.72 201.587 31.624C201.96 33.528 202.539 34.8533 203.323 35.6C204.144 36.3467 205.208 36.72 206.515 36.72ZM222.862 37V36.44L223.702 36.216C224.449 35.992 224.953 35.656 225.214 35.208C225.513 34.76 225.662 34.1813 225.662 33.472V15.944C225.662 15.1227 225.513 14.5253 225.214 14.152C224.953 13.7413 224.449 13.4613 223.702 13.312L222.862 13.088V12.528L232.494 9.28L233.054 9.84L233.558 14.656V15.104C234.081 14.0587 234.753 13.1067 235.574 12.248C236.433 11.352 237.366 10.624 238.374 10.064C239.42 9.504 240.446 9.224 241.454 9.224C242.873 9.224 243.956 9.616 244.702 10.4C245.449 11.184 245.822 12.1733 245.822 13.368C245.822 14.6373 245.449 15.6267 244.702 16.336C243.993 17.008 243.134 17.344 242.126 17.344C240.558 17.344 239.177 16.56 237.982 14.992L237.87 14.88C237.497 14.3573 237.068 14.0773 236.582 14.04C236.097 13.9653 235.649 14.1893 235.238 14.712C234.865 15.048 234.548 15.4587 234.286 15.944C234.062 16.392 233.838 16.9147 233.614 17.512V33.136C233.614 34.6293 234.268 35.5627 235.574 35.936L237.366 36.44V37H222.862ZM247.581 37V36.44L248.421 36.216C249.168 35.992 249.672 35.656 249.933 35.208C250.232 34.76 250.381 34.1813 250.381 33.472V15.944C250.381 15.1227 250.232 14.5253 249.933 14.152C249.672 13.7413 249.168 13.4613 248.421 13.312L247.581 13.088V12.528L257.213 9.28L257.773 9.84L258.277 14.656V15.104C258.8 14.0587 259.472 13.1067 260.293 12.248C261.152 11.352 262.085 10.624 263.093 10.064C264.138 9.504 265.165 9.224 266.173 9.224C267.592 9.224 268.674 9.616 269.421 10.4C270.168 11.184 270.541 12.1733 270.541 13.368C270.541 14.6373 270.168 15.6267 269.421 16.336C268.712 17.008 267.853 17.344 266.845 17.344C265.277 17.344 263.896 16.56 262.701 14.992L262.589 14.88C262.216 14.3573 261.786 14.0773 261.301 14.04C260.816 13.9653 260.368 14.1893 259.957 14.712C259.584 15.048 259.266 15.4587 259.005 15.944C258.781 16.392 258.557 16.9147 258.333 17.512V33.136C258.333 34.6293 258.986 35.5627 260.293 35.936L262.085 36.44V37H247.581ZM285.593 37.84C282.755 37.84 280.291 37.2613 278.201 36.104C276.11 34.9093 274.486 33.2293 273.329 31.064C272.209 28.8987 271.649 26.36 271.649 23.448C271.649 20.536 272.246 18.016 273.441 15.888C274.673 13.76 276.334 12.1173 278.425 10.96C280.553 9.80267 282.942 9.224 285.593 9.224C288.243 9.224 290.614 9.80267 292.705 10.96C294.795 12.08 296.438 13.704 297.633 15.832C298.865 17.96 299.481 20.4987 299.481 23.448C299.481 26.3973 298.902 28.9547 297.745 31.12C296.625 33.248 295.019 34.9093 292.929 36.104C290.875 37.2613 288.43 37.84 285.593 37.84ZM285.593 36.72C286.899 36.72 287.945 36.3467 288.729 35.6C289.513 34.8533 290.073 33.528 290.409 31.624C290.782 29.72 290.969 27.032 290.969 23.56C290.969 20.0507 290.782 17.344 290.409 15.44C290.073 13.536 289.513 12.2107 288.729 11.464C287.945 10.7173 286.899 10.344 285.593 10.344C284.286 10.344 283.222 10.7173 282.401 11.464C281.617 12.2107 281.038 13.536 280.665 15.44C280.329 17.344 280.161 20.0507 280.161 23.56C280.161 27.032 280.329 29.72 280.665 31.624C281.038 33.528 281.617 34.8533 282.401 35.6C283.222 36.3467 284.286 36.72 285.593 36.72ZM8.296 101.84C6.13067 101.84 4.30133 101.224 2.808 99.992C1.352 98.76 0.624 96.9867 0.624 94.672C0.624 92.9173 1.52 91.312 3.312 89.856C5.104 88.3627 7.92267 87.2427 11.768 86.496C12.3653 86.384 13.0373 86.272 13.784 86.16C14.5307 86.0107 15.3147 85.8613 16.136 85.712V81.288C16.136 78.7493 15.8187 76.976 15.184 75.968C14.5867 74.9227 13.6347 74.4 12.328 74.4C11.432 74.4 10.7227 74.6987 10.2 75.296C9.67733 75.856 9.34133 76.8453 9.192 78.264L9.08 78.88C9.00533 80.4853 8.61333 81.6613 7.904 82.408C7.19467 83.1547 6.31733 83.528 5.272 83.528C4.30133 83.528 3.49867 83.2293 2.864 82.632C2.22933 82.0347 1.912 81.232 1.912 80.224C1.912 78.6933 2.43467 77.4053 3.48 76.36C4.56267 75.3147 5.98133 74.5307 7.736 74.008C9.49067 73.4853 11.3947 73.224 13.448 73.224C16.7707 73.224 19.328 74.0453 21.12 75.688C22.9493 77.2933 23.864 79.9253 23.864 83.584V95.96C23.864 97.64 24.648 98.48 26.216 98.48H27.448L27.952 98.928C27.2427 99.824 26.4587 100.515 25.6 101C24.7787 101.485 23.6027 101.728 22.072 101.728C20.4293 101.728 19.1227 101.355 18.152 100.608C17.2187 99.824 16.6027 98.7973 16.304 97.528C15.184 98.7227 14.0267 99.7493 12.832 100.608C11.6747 101.429 10.1627 101.84 8.296 101.84ZM11.712 98.424C12.4587 98.424 13.1493 98.256 13.784 97.92C14.456 97.5467 15.24 96.9867 16.136 96.24V86.832C15.7627 86.9067 15.3893 86.9813 15.016 87.056C14.6427 87.1307 14.2133 87.2053 13.728 87.28C12.0107 87.728 10.6293 88.4933 9.584 89.576C8.576 90.6213 8.072 92.04 8.072 93.832C8.072 95.3627 8.42667 96.52 9.136 97.304C9.84533 98.0507 10.704 98.424 11.712 98.424ZM38.8029 101.84C37.3469 101.84 36.0029 101.56 34.7709 101C33.5762 100.44 32.6242 99.544 31.9149 98.312C31.2429 97.0427 30.9255 95.3813 30.9629 93.328L31.1309 78.936C31.1309 78.0773 30.9815 77.4613 30.6829 77.088C30.3842 76.7147 29.9175 76.4533 29.2829 76.304L28.6109 76.08V75.52L38.6349 73.56L39.1949 74.12L38.9149 82.072V95.568C38.9149 96.7627 39.2509 97.64 39.9229 98.2C40.6322 98.76 41.5095 99.04 42.5549 99.04C43.6002 99.04 44.5335 98.8907 45.3549 98.592C46.1762 98.2933 46.9975 97.8453 47.8189 97.248L48.0429 78.992C48.0429 78.1333 47.9122 77.536 47.6509 77.2C47.3895 76.8267 46.9042 76.5653 46.1949 76.416L45.6349 76.248V75.688L55.4349 73.56L55.9949 74.12L55.8269 82.072V97.248C55.8269 98.0693 55.9389 98.704 56.1629 99.152C56.3869 99.6 56.8722 99.9733 57.6189 100.272L58.1789 100.44V101L48.3789 101.56L47.8749 98.256C46.6429 99.264 45.2989 100.123 43.8429 100.832C42.4242 101.504 40.7442 101.84 38.8029 101.84ZM72.0936 101.84C69.8909 101.84 67.9122 101.355 66.1576 100.384C64.4029 99.376 63.0029 97.8453 61.9576 95.792C60.9496 93.7013 60.4456 91.032 60.4456 87.784C60.4456 84.4987 61.0242 81.792 62.1816 79.664C63.3389 77.4987 64.8696 75.8933 66.7736 74.848C68.6776 73.7653 70.7496 73.224 72.9896 73.224C74.2962 73.224 75.5469 73.3547 76.7416 73.616C77.9362 73.8773 79.0002 74.2693 79.9336 74.792V67.512C79.9336 66.728 79.8029 66.1493 79.5416 65.776C79.3176 65.4027 78.8136 65.1413 78.0296 64.992L76.9656 64.768V64.208L87.1576 61.744L87.7736 62.248L87.5496 70.088V97.472C87.5496 98.2187 87.6802 98.8347 87.9416 99.32C88.2029 99.768 88.6882 100.085 89.3976 100.272L89.9016 100.44V101L80.3256 101.616L79.8216 99.6C78.8136 100.272 77.6562 100.813 76.3496 101.224C75.0802 101.635 73.6616 101.84 72.0936 101.84ZM75.3416 99.768C76.9096 99.768 78.3469 99.3013 79.6536 98.368V76.136C78.2722 75.24 76.8536 74.792 75.3976 74.792C73.6056 74.792 72.0749 75.8373 70.8056 77.928C69.5362 79.9813 68.9016 83.2293 68.9016 87.672C68.9016 92.1147 69.4989 95.2507 70.6936 97.08C71.8882 98.872 73.4376 99.768 75.3416 99.768ZM99.0978 70.312C97.8285 70.312 96.7458 69.92 95.8498 69.136C94.9911 68.3147 94.5618 67.288 94.5618 66.056C94.5618 64.7867 94.9911 63.76 95.8498 62.976C96.7458 62.192 97.8285 61.8 99.0978 61.8C100.367 61.8 101.431 62.192 102.29 62.976C103.148 63.76 103.578 64.7867 103.578 66.056C103.578 67.288 103.148 68.3147 102.29 69.136C101.431 69.92 100.367 70.312 99.0978 70.312ZM92.4898 101V100.44L93.2738 100.216C94.0205 99.992 94.5245 99.656 94.7858 99.208C95.0845 98.76 95.2338 98.1627 95.2338 97.416V79.888C95.2338 79.104 95.0845 78.5253 94.7858 78.152C94.5245 77.7413 94.0205 77.4613 93.2738 77.312L92.4898 77.144V76.584L102.738 73.28L103.298 73.84L103.13 81.792V97.472C103.13 98.2187 103.26 98.816 103.522 99.264C103.82 99.712 104.324 100.048 105.034 100.272L105.594 100.44V101H92.4898ZM116.249 101.84C114.084 101.84 112.254 101.224 110.761 99.992C109.305 98.76 108.577 96.9867 108.577 94.672C108.577 92.9173 109.473 91.312 111.265 89.856C113.057 88.3627 115.876 87.2427 119.721 86.496C120.318 86.384 120.99 86.272 121.737 86.16C122.484 86.0107 123.268 85.8613 124.089 85.712V81.288C124.089 78.7493 123.772 76.976 123.137 75.968C122.54 74.9227 121.588 74.4 120.281 74.4C119.385 74.4 118.676 74.6987 118.153 75.296C117.63 75.856 117.294 76.8453 117.145 78.264L117.033 78.88C116.958 80.4853 116.566 81.6613 115.857 82.408C115.148 83.1547 114.27 83.528 113.225 83.528C112.254 83.528 111.452 83.2293 110.817 82.632C110.182 82.0347 109.865 81.232 109.865 80.224C109.865 78.6933 110.388 77.4053 111.433 76.36C112.516 75.3147 113.934 74.5307 115.689 74.008C117.444 73.4853 119.348 73.224 121.401 73.224C124.724 73.224 127.281 74.0453 129.073 75.688C130.902 77.2933 131.817 79.9253 131.817 83.584V95.96C131.817 97.64 132.601 98.48 134.169 98.48H135.401L135.905 98.928C135.196 99.824 134.412 100.515 133.553 101C132.732 101.485 131.556 101.728 130.025 101.728C128.382 101.728 127.076 101.355 126.105 100.608C125.172 99.824 124.556 98.7973 124.257 97.528C123.137 98.7227 121.98 99.7493 120.785 100.608C119.628 101.429 118.116 101.84 116.249 101.84ZM119.665 98.424C120.412 98.424 121.102 98.256 121.737 97.92C122.409 97.5467 123.193 96.9867 124.089 96.24V86.832C123.716 86.9067 123.342 86.9813 122.969 87.056C122.596 87.1307 122.166 87.2053 121.681 87.28C119.964 87.728 118.582 88.4933 117.537 89.576C116.529 90.6213 116.025 92.04 116.025 93.832C116.025 95.3627 116.38 96.52 117.089 97.304C117.798 98.0507 118.657 98.424 119.665 98.424ZM136.948 101V100.44L137.732 100.216C138.441 100.029 138.927 99.712 139.188 99.264C139.487 98.816 139.655 98.2187 139.692 97.472V79.944C139.692 79.1227 139.561 78.5253 139.3 78.152C139.039 77.7413 138.535 77.4613 137.788 77.312L136.948 77.088V76.528L146.524 73.28L147.084 73.84L147.532 77.648C148.764 76.416 150.164 75.3707 151.732 74.512C153.337 73.6533 154.999 73.224 156.716 73.224C158.508 73.224 159.945 73.5973 161.028 74.344C162.111 75.0533 162.932 76.1733 163.492 77.704C164.948 76.3227 166.516 75.24 168.196 74.456C169.913 73.6347 171.575 73.224 173.18 73.224C175.831 73.224 177.772 73.8587 179.004 75.128C180.273 76.3973 180.908 78.3947 180.908 81.12V97.528C180.908 98.984 181.58 99.8987 182.924 100.272L183.54 100.44V101H170.604V100.44L171.164 100.272C171.873 100.048 172.359 99.712 172.62 99.264C172.919 98.816 173.068 98.2187 173.068 97.472V80.336C173.068 78.768 172.788 77.704 172.228 77.144C171.668 76.5467 170.772 76.248 169.54 76.248C168.569 76.248 167.617 76.472 166.684 76.92C165.788 77.3307 164.836 77.9653 163.828 78.824C164.015 79.4213 164.127 80.0747 164.164 80.784C164.239 81.4933 164.276 82.24 164.276 83.024V97.528C164.313 98.984 164.985 99.8987 166.292 100.272L166.796 100.44V101H153.804V100.44L154.588 100.216C155.297 99.992 155.783 99.6747 156.044 99.264C156.343 98.816 156.492 98.2187 156.492 97.472V80.392C156.492 78.8987 156.212 77.8347 155.652 77.2C155.129 76.5653 154.215 76.248 152.908 76.248C152.049 76.248 151.191 76.472 150.332 76.92C149.473 77.3307 148.577 77.9467 147.644 78.768V97.528C147.644 98.984 148.297 99.8987 149.604 100.272L150.108 100.44V101H136.948ZM206.101 101.84C203.935 101.84 202.106 101.224 200.613 99.992C199.157 98.76 198.429 96.9867 198.429 94.672C198.429 92.9173 199.325 91.312 201.117 89.856C202.909 88.3627 205.727 87.2427 209.573 86.496C210.17 86.384 210.842 86.272 211.589 86.16C212.335 86.0107 213.119 85.8613 213.941 85.712V81.288C213.941 78.7493 213.623 76.976 212.989 75.968C212.391 74.9227 211.439 74.4 210.133 74.4C209.237 74.4 208.527 74.6987 208.005 75.296C207.482 75.856 207.146 76.8453 206.997 78.264L206.885 78.88C206.81 80.4853 206.418 81.6613 205.709 82.408C204.999 83.1547 204.122 83.528 203.077 83.528C202.106 83.528 201.303 83.2293 200.669 82.632C200.034 82.0347 199.717 81.232 199.717 80.224C199.717 78.6933 200.239 77.4053 201.285 76.36C202.367 75.3147 203.786 74.5307 205.541 74.008C207.295 73.4853 209.199 73.224 211.253 73.224C214.575 73.224 217.133 74.0453 218.925 75.688C220.754 77.2933 221.669 79.9253 221.669 83.584V95.96C221.669 97.64 222.453 98.48 224.021 98.48H225.253L225.757 98.928C225.047 99.824 224.263 100.515 223.405 101C222.583 101.485 221.407 101.728 219.877 101.728C218.234 101.728 216.927 101.355 215.957 100.608C215.023 99.824 214.407 98.7973 214.109 97.528C212.989 98.7227 211.831 99.7493 210.637 100.608C209.479 101.429 207.967 101.84 206.101 101.84ZM209.517 98.424C210.263 98.424 210.954 98.256 211.589 97.92C212.261 97.5467 213.045 96.9867 213.941 96.24V86.832C213.567 86.9067 213.194 86.9813 212.821 87.056C212.447 87.1307 212.018 87.2053 211.533 87.28C209.815 87.728 208.434 88.4933 207.389 89.576C206.381 90.6213 205.877 92.04 205.877 93.832C205.877 95.3627 206.231 96.52 206.941 97.304C207.65 98.0507 208.509 98.424 209.517 98.424ZM237.549 101.84C235.16 101.84 233.293 101.243 231.949 100.048C230.642 98.8533 229.989 96.9493 229.989 94.336V75.184H226.125V74.624L227.469 74.4C228.626 74.1387 229.616 73.7653 230.437 73.28C231.296 72.7947 232.136 72.1413 232.957 71.32L237.549 66.224H238.109L237.941 74.064H244.213V75.184H237.885V95.344C237.885 96.6507 238.165 97.64 238.725 98.312C239.322 98.984 240.069 99.32 240.965 99.32C241.749 99.32 242.44 99.1333 243.037 98.76C243.634 98.3493 244.232 97.808 244.829 97.136L245.389 97.696C244.642 98.9653 243.616 99.9733 242.309 100.72C241.002 101.467 239.416 101.84 237.549 101.84ZM271.883 101.168L261.971 77.368C261.448 76.0987 260.552 75.2587 259.283 74.848L258.499 74.624V74.064H273.003V74.624L271.995 74.848C270.539 75.2213 270.091 76.192 270.651 77.76L276.531 93.384L282.019 77.872C282.317 77.1253 282.392 76.5093 282.243 76.024C282.093 75.5387 281.645 75.184 280.899 74.96L279.499 74.624V74.064H287.619V74.624L285.995 75.016C285.285 75.2027 284.725 75.4827 284.315 75.856C283.941 76.2293 283.624 76.7893 283.363 77.536L275.131 101.168H271.883ZM301.614 73.224C304.04 73.224 306.112 73.728 307.83 74.736C309.547 75.7067 310.854 77.0507 311.75 78.768C312.683 80.448 313.15 82.3707 313.15 84.536C313.15 84.9467 313.131 85.376 313.094 85.824C313.056 86.2347 312.982 86.608 312.87 86.944H296.182C296.219 90.976 296.928 93.888 298.31 95.68C299.728 97.4347 301.819 98.312 304.582 98.312C306.448 98.312 307.96 98.0133 309.118 97.416C310.275 96.8187 311.358 95.9413 312.366 94.784L312.926 95.288C311.768 97.3413 310.219 98.9467 308.278 100.104C306.374 101.261 304.078 101.84 301.39 101.84C298.739 101.84 296.387 101.28 294.334 100.16C292.28 99.0027 290.675 97.36 289.518 95.232C288.36 93.104 287.782 90.5653 287.782 87.616C287.782 84.5547 288.454 81.96 289.798 79.832C291.142 77.6667 292.859 76.024 294.95 74.904C297.078 73.784 299.299 73.224 301.614 73.224ZM301.446 74.344C300.363 74.344 299.43 74.68 298.646 75.352C297.899 75.9867 297.302 77.144 296.854 78.824C296.443 80.4667 296.219 82.8 296.182 85.824H305.758C306.131 81.7547 305.982 78.824 305.31 77.032C304.638 75.24 303.35 74.344 301.446 74.344ZM315.233 101V100.44L315.905 100.216C317.249 99.768 317.921 98.8347 317.921 97.416V67.456C317.921 66.7093 317.772 66.1493 317.473 65.776C317.175 65.3653 316.652 65.0667 315.905 64.88L315.177 64.712V64.152L325.425 61.744L326.097 62.248L325.873 70.088V89.24C325.873 90.6213 325.873 92.0027 325.873 93.384C325.911 94.728 325.929 96.072 325.929 97.416C325.929 98.1627 326.079 98.7787 326.377 99.264C326.676 99.712 327.18 100.048 327.889 100.272L328.617 100.44V101H315.233Z" fill="white"/>
</svg>
