<svg width="341" height="64" viewBox="0 0 341 64" fill="none" xmlns="http://www.w3.org/2000/svg">
<path d="M1.088 12V0.799999H4.912C6.224 0.799999 7.30133 1.03467 8.144 1.504C8.99733 1.96267 9.62667 2.61333 10.032 3.456C10.448 4.288 10.656 5.26933 10.656 6.4C10.656 7.53067 10.448 8.51733 10.032 9.36C9.62667 10.192 8.99733 10.8427 8.144 11.312C7.30133 11.7707 6.224 12 4.912 12H1.088ZM3.136 10.24H4.816C5.75467 10.24 6.496 10.0907 7.04 9.792C7.584 9.48267 7.97333 9.04533 8.208 8.48C8.44267 7.904 8.56 7.21067 8.56 6.4C8.56 5.6 8.44267 4.912 8.208 4.336C7.97333 3.76 7.584 3.31733 7.04 3.008C6.496 2.69867 5.75467 2.544 4.816 2.544H3.136V10.24ZM20.063 4.064V12H18.255L18.095 10.656C17.8497 11.1253 17.4923 11.4987 17.023 11.776C16.5643 12.0533 16.0203 12.192 15.391 12.192C14.4097 12.192 13.647 11.8827 13.103 11.264C12.559 10.6453 12.287 9.73867 12.287 8.544V4.064H14.335V8.352C14.335 9.03467 14.4737 9.55733 14.751 9.92C15.0283 10.2827 15.4603 10.464 16.047 10.464C16.623 10.464 17.0923 10.2613 17.455 9.856C17.8283 9.45067 18.015 8.88533 18.015 8.16V4.064H20.063ZM25.9574 12.192C25.1894 12.192 24.496 12.016 23.8774 11.664C23.2694 11.312 22.784 10.8267 22.4214 10.208C22.0694 9.57867 21.8934 8.85333 21.8934 8.032C21.8934 7.21067 22.0747 6.49067 22.4374 5.872C22.8 5.24267 23.2854 4.752 23.8934 4.4C24.512 4.048 25.2054 3.872 25.9734 3.872C26.7307 3.872 27.4134 4.048 28.0214 4.4C28.64 4.752 29.1254 5.24267 29.4774 5.872C29.84 6.49067 30.0214 7.21067 30.0214 8.032C30.0214 8.85333 29.84 9.57867 29.4774 10.208C29.1254 10.8267 28.64 11.312 28.0214 11.664C27.4027 12.016 26.7147 12.192 25.9574 12.192ZM25.9574 10.416C26.4907 10.416 26.9547 10.2187 27.3494 9.824C27.744 9.41867 27.9414 8.82133 27.9414 8.032C27.9414 7.24267 27.744 6.65067 27.3494 6.256C26.9547 5.85067 26.496 5.648 25.9734 5.648C25.4294 5.648 24.96 5.85067 24.5654 6.256C24.1814 6.65067 23.9894 7.24267 23.9894 8.032C23.9894 8.82133 24.1814 9.41867 24.5654 9.824C24.96 10.2187 25.424 10.416 25.9574 10.416ZM38.945 12.192C38.241 12.192 37.6223 12.08 37.089 11.856C36.5557 11.6213 36.129 11.3013 35.809 10.896C35.489 10.4907 35.297 10.0213 35.233 9.488H37.297C37.361 9.79733 37.5317 10.064 37.809 10.288C38.097 10.5013 38.465 10.608 38.913 10.608C39.361 10.608 39.6863 10.5173 39.889 10.336C40.1023 10.1547 40.209 9.94667 40.209 9.712C40.209 9.37067 40.0597 9.14133 39.761 9.024C39.4623 8.896 39.0463 8.77333 38.513 8.656C38.1717 8.58133 37.825 8.49067 37.473 8.384C37.121 8.27733 36.7957 8.144 36.497 7.984C36.209 7.81333 35.9743 7.6 35.793 7.344C35.6117 7.07733 35.521 6.752 35.521 6.368C35.521 5.664 35.7983 5.072 36.353 4.592C36.9183 4.112 37.7077 3.872 38.721 3.872C39.6597 3.872 40.4063 4.09067 40.961 4.528C41.5263 4.96533 41.8623 5.568 41.969 6.336H40.033C39.9157 5.74933 39.473 5.456 38.705 5.456C38.321 5.456 38.0223 5.53067 37.809 5.68C37.6063 5.82933 37.505 6.016 37.505 6.24C37.505 6.47467 37.6597 6.66133 37.969 6.8C38.2783 6.93867 38.689 7.06667 39.201 7.184C39.7557 7.312 40.2623 7.456 40.721 7.616C41.1903 7.76533 41.5637 7.99467 41.841 8.304C42.1183 8.60267 42.257 9.03467 42.257 9.6C42.2677 10.0907 42.1397 10.5333 41.873 10.928C41.6063 11.3227 41.2223 11.632 40.721 11.856C40.2197 12.08 39.6277 12.192 38.945 12.192ZM47.3573 12C46.5253 12 45.8586 11.7973 45.3573 11.392C44.8559 10.9867 44.6053 10.2667 44.6053 9.232V5.776H43.2453V4.064H44.6053L44.8453 1.936H46.6533V4.064H48.7973V5.776H46.6533V9.248C46.6533 9.632 46.7333 9.89867 46.8932 10.048C47.0639 10.1867 47.3519 10.256 47.7573 10.256H48.7493V12H47.3573ZM54.2085 12.192C53.4085 12.192 52.6992 12.0213 52.0805 11.68C51.4618 11.3387 50.9765 10.8587 50.6245 10.24C50.2725 9.62133 50.0965 8.90667 50.0965 8.096C50.0965 7.27467 50.2672 6.544 50.6085 5.904C50.9605 5.264 51.4405 4.768 52.0485 4.416C52.6672 4.05333 53.3925 3.872 54.2245 3.872C55.0032 3.872 55.6912 4.04267 56.2885 4.384C56.8858 4.72533 57.3498 5.19467 57.6805 5.792C58.0218 6.37867 58.1925 7.03467 58.1925 7.76C58.1925 7.87733 58.1872 8 58.1765 8.128C58.1765 8.256 58.1712 8.38933 58.1605 8.528H52.1285C52.1712 9.14667 52.3845 9.632 52.7685 9.984C53.1632 10.336 53.6378 10.512 54.1925 10.512C54.6085 10.512 54.9552 10.4213 55.2325 10.24C55.5205 10.048 55.7338 9.80267 55.8725 9.504H57.9525C57.8032 10.0053 57.5525 10.464 57.2005 10.88C56.8592 11.2853 56.4325 11.6053 55.9205 11.84C55.4192 12.0747 54.8485 12.192 54.2085 12.192ZM54.2245 5.536C53.7232 5.536 53.2805 5.68 52.8965 5.968C52.5125 6.24533 52.2672 6.672 52.1605 7.248H56.1125C56.0805 6.72533 55.8885 6.30933 55.5365 6C55.1845 5.69067 54.7472 5.536 54.2245 5.536ZM63.3104 12C62.4784 12 61.8117 11.7973 61.3104 11.392C60.809 10.9867 60.5584 10.2667 60.5584 9.232V5.776H59.1984V4.064H60.5584L60.7984 1.936H62.6064V4.064H64.7504V5.776H62.6064V9.248C62.6064 9.632 62.6864 9.89867 62.8464 10.048C63.017 10.1867 63.305 10.256 63.7104 10.256H64.7024V12H63.3104ZM70.3213 15.52V4.064H72.1453L72.3693 5.2C72.6253 4.848 72.9613 4.53867 73.3773 4.272C73.8039 4.00533 74.3533 3.872 75.0253 3.872C75.7719 3.872 76.4386 4.05333 77.0253 4.416C77.6119 4.77867 78.0759 5.27467 78.4173 5.904C78.7586 6.53333 78.9293 7.248 78.9293 8.048C78.9293 8.848 78.7586 9.56267 78.4173 10.192C78.0759 10.8107 77.6119 11.3013 77.0253 11.664C76.4386 12.016 75.7719 12.192 75.0253 12.192C74.4279 12.192 73.9053 12.08 73.4573 11.856C73.0093 11.632 72.6466 11.3173 72.3693 10.912V15.52H70.3213ZM74.5933 10.4C75.2439 10.4 75.7826 10.1813 76.2093 9.744C76.6359 9.30667 76.8493 8.74133 76.8493 8.048C76.8493 7.35467 76.6359 6.784 76.2093 6.336C75.7826 5.888 75.2439 5.664 74.5933 5.664C73.9319 5.664 73.3879 5.888 72.9613 6.336C72.5453 6.77333 72.3373 7.33867 72.3373 8.032C72.3373 8.72533 72.5453 9.296 72.9613 9.744C73.3879 10.1813 73.9319 10.4 74.5933 10.4ZM84.5668 12.192C83.7988 12.192 83.1054 12.016 82.4868 11.664C81.8788 11.312 81.3934 10.8267 81.0308 10.208C80.6788 9.57867 80.5028 8.85333 80.5028 8.032C80.5028 7.21067 80.6841 6.49067 81.0468 5.872C81.4094 5.24267 81.8948 4.752 82.5028 4.4C83.1214 4.048 83.8148 3.872 84.5828 3.872C85.3401 3.872 86.0228 4.048 86.6308 4.4C87.2494 4.752 87.7348 5.24267 88.0868 5.872C88.4494 6.49067 88.6308 7.21067 88.6308 8.032C88.6308 8.85333 88.4494 9.57867 88.0868 10.208C87.7348 10.8267 87.2494 11.312 86.6308 11.664C86.0121 12.016 85.3241 12.192 84.5668 12.192ZM84.5668 10.416C85.1001 10.416 85.5641 10.2187 85.9588 9.824C86.3534 9.41867 86.5508 8.82133 86.5508 8.032C86.5508 7.24267 86.3534 6.65067 85.9588 6.256C85.5641 5.85067 85.1054 5.648 84.5828 5.648C84.0388 5.648 83.5694 5.85067 83.1748 6.256C82.7908 6.65067 82.5988 7.24267 82.5988 8.032C82.5988 8.82133 82.7908 9.41867 83.1748 9.824C83.5694 10.2187 84.0334 10.416 84.5668 10.416ZM93.7419 12.192C93.0379 12.192 92.4192 12.08 91.8859 11.856C91.3525 11.6213 90.9259 11.3013 90.6059 10.896C90.2859 10.4907 90.0939 10.0213 90.0299 9.488H92.0939C92.1579 9.79733 92.3285 10.064 92.6059 10.288C92.8939 10.5013 93.2619 10.608 93.7099 10.608C94.1579 10.608 94.4832 10.5173 94.6859 10.336C94.8992 10.1547 95.0059 9.94667 95.0059 9.712C95.0059 9.37067 94.8565 9.14133 94.5579 9.024C94.2592 8.896 93.8432 8.77333 93.3099 8.656C92.9685 8.58133 92.6219 8.49067 92.2699 8.384C91.9179 8.27733 91.5925 8.144 91.2939 7.984C91.0059 7.81333 90.7712 7.6 90.5899 7.344C90.4085 7.07733 90.3179 6.752 90.3179 6.368C90.3179 5.664 90.5952 5.072 91.1499 4.592C91.7152 4.112 92.5045 3.872 93.5179 3.872C94.4565 3.872 95.2032 4.09067 95.7579 4.528C96.3232 4.96533 96.6592 5.568 96.7659 6.336H94.8299C94.7125 5.74933 94.2699 5.456 93.5019 5.456C93.1179 5.456 92.8192 5.53067 92.6059 5.68C92.4032 5.82933 92.3019 6.016 92.3019 6.24C92.3019 6.47467 92.4565 6.66133 92.7659 6.8C93.0752 6.93867 93.4859 7.06667 93.9979 7.184C94.5525 7.312 95.0592 7.456 95.5179 7.616C95.9872 7.76533 96.3605 7.99467 96.6379 8.304C96.9152 8.60267 97.0539 9.03467 97.0539 9.6C97.0645 10.0907 96.9365 10.5333 96.6699 10.928C96.4032 11.3227 96.0192 11.632 95.5179 11.856C95.0165 12.08 94.4245 12.192 93.7419 12.192ZM102.148 12.192C101.444 12.192 100.825 12.08 100.292 11.856C99.7588 11.6213 99.3321 11.3013 99.0121 10.896C98.6921 10.4907 98.5001 10.0213 98.4361 9.488H100.5C100.564 9.79733 100.735 10.064 101.012 10.288C101.3 10.5013 101.668 10.608 102.116 10.608C102.564 10.608 102.889 10.5173 103.092 10.336C103.305 10.1547 103.412 9.94667 103.412 9.712C103.412 9.37067 103.263 9.14133 102.964 9.024C102.665 8.896 102.249 8.77333 101.716 8.656C101.375 8.58133 101.028 8.49067 100.676 8.384C100.324 8.27733 99.9988 8.144 99.7001 7.984C99.4121 7.81333 99.1775 7.6 98.9961 7.344C98.8148 7.07733 98.7241 6.752 98.7241 6.368C98.7241 5.664 99.0015 5.072 99.5561 4.592C100.121 4.112 100.911 3.872 101.924 3.872C102.863 3.872 103.609 4.09067 104.164 4.528C104.729 4.96533 105.065 5.568 105.172 6.336H103.236C103.119 5.74933 102.676 5.456 101.908 5.456C101.524 5.456 101.225 5.53067 101.012 5.68C100.809 5.82933 100.708 6.016 100.708 6.24C100.708 6.47467 100.863 6.66133 101.172 6.8C101.481 6.93867 101.892 7.06667 102.404 7.184C102.959 7.312 103.465 7.456 103.924 7.616C104.393 7.76533 104.767 7.99467 105.044 8.304C105.321 8.60267 105.46 9.03467 105.46 9.6C105.471 10.0907 105.343 10.5333 105.076 10.928C104.809 11.3227 104.425 11.632 103.924 11.856C103.423 12.08 102.831 12.192 102.148 12.192ZM108.378 2.832C108.005 2.832 107.696 2.72 107.45 2.496C107.216 2.272 107.098 1.98933 107.098 1.648C107.098 1.30667 107.216 1.02933 107.45 0.815999C107.696 0.591999 108.005 0.48 108.378 0.48C108.752 0.48 109.056 0.591999 109.29 0.815999C109.536 1.02933 109.658 1.30667 109.658 1.648C109.658 1.98933 109.536 2.272 109.29 2.496C109.056 2.72 108.752 2.832 108.378 2.832ZM107.354 12V4.064H109.402V12H107.354ZM111.54 12V4.064H113.348L113.524 5.136C113.78 4.752 114.116 4.448 114.532 4.224C114.959 3.98933 115.449 3.872 116.004 3.872C117.231 3.872 118.1 4.34667 118.612 5.296C118.9 4.85867 119.284 4.512 119.764 4.256C120.255 4 120.788 3.872 121.364 3.872C122.399 3.872 123.193 4.18133 123.748 4.8C124.303 5.41867 124.58 6.32533 124.58 7.52V12H122.532V7.712C122.532 7.02933 122.399 6.50667 122.132 6.144C121.876 5.78133 121.476 5.6 120.932 5.6C120.377 5.6 119.929 5.80267 119.588 6.208C119.257 6.61333 119.092 7.17867 119.092 7.904V12H117.044V7.712C117.044 7.02933 116.911 6.50667 116.644 6.144C116.377 5.78133 115.967 5.6 115.412 5.6C114.868 5.6 114.425 5.80267 114.084 6.208C113.753 6.61333 113.588 7.17867 113.588 7.904V12H111.54ZM136.641 15.52V10.864C136.385 11.216 136.044 11.5253 135.617 11.792C135.201 12.0587 134.657 12.192 133.985 12.192C133.238 12.192 132.572 12.0107 131.985 11.648C131.398 11.2853 130.934 10.7893 130.593 10.16C130.252 9.53067 130.081 8.816 130.081 8.016C130.081 7.216 130.252 6.50667 130.593 5.888C130.934 5.25867 131.398 4.768 131.985 4.416C132.572 4.05333 133.238 3.872 133.985 3.872C134.582 3.872 135.105 3.984 135.553 4.208C136.001 4.432 136.364 4.74667 136.641 5.152L136.865 4.064H138.689V15.52H136.641ZM134.417 10.4C135.078 10.4 135.617 10.1813 136.033 9.744C136.46 9.296 136.673 8.72533 136.673 8.032C136.673 7.33867 136.46 6.77333 136.033 6.336C135.617 5.888 135.078 5.664 134.417 5.664C133.766 5.664 133.228 5.88267 132.801 6.32C132.374 6.75733 132.161 7.32267 132.161 8.016C132.161 8.70933 132.374 9.28 132.801 9.728C133.228 10.176 133.766 10.4 134.417 10.4ZM148.422 4.064V12H146.614L146.454 10.656C146.209 11.1253 145.852 11.4987 145.382 11.776C144.924 12.0533 144.38 12.192 143.75 12.192C142.769 12.192 142.006 11.8827 141.462 11.264C140.918 10.6453 140.646 9.73867 140.646 8.544V4.064H142.694V8.352C142.694 9.03467 142.833 9.55733 143.11 9.92C143.388 10.2827 143.82 10.464 144.406 10.464C144.982 10.464 145.452 10.2613 145.814 9.856C146.188 9.45067 146.374 8.88533 146.374 8.16V4.064H148.422ZM153.245 12.192C152.562 12.192 152.002 12.0853 151.565 11.872C151.127 11.648 150.802 11.3547 150.589 10.992C150.375 10.6293 150.269 10.2293 150.269 9.792C150.269 9.056 150.557 8.45867 151.133 8C151.709 7.54133 152.573 7.312 153.725 7.312H155.741V7.12C155.741 6.576 155.586 6.176 155.277 5.92C154.967 5.664 154.583 5.536 154.125 5.536C153.709 5.536 153.346 5.63733 153.037 5.84C152.727 6.032 152.535 6.32 152.461 6.704H150.461C150.514 6.128 150.706 5.62667 151.037 5.2C151.378 4.77333 151.815 4.448 152.349 4.224C152.882 3.98933 153.479 3.872 154.141 3.872C155.271 3.872 156.162 4.15467 156.813 4.72C157.463 5.28533 157.789 6.08533 157.789 7.12V12H156.045L155.853 10.72C155.618 11.1467 155.287 11.4987 154.861 11.776C154.445 12.0533 153.906 12.192 153.245 12.192ZM153.709 10.592C154.295 10.592 154.749 10.4 155.069 10.016C155.399 9.632 155.607 9.15733 155.693 8.592H153.949C153.405 8.592 153.015 8.69333 152.781 8.896C152.546 9.088 152.429 9.328 152.429 9.616C152.429 9.92533 152.546 10.1653 152.781 10.336C153.015 10.5067 153.325 10.592 153.709 10.592ZM163.599 12.192C162.799 12.192 162.09 12.0213 161.471 11.68C160.852 11.3387 160.367 10.8587 160.015 10.24C159.663 9.62133 159.487 8.90667 159.487 8.096C159.487 7.27467 159.658 6.544 159.999 5.904C160.351 5.264 160.831 4.768 161.439 4.416C162.058 4.05333 162.783 3.872 163.615 3.872C164.394 3.872 165.082 4.04267 165.679 4.384C166.276 4.72533 166.74 5.19467 167.071 5.792C167.412 6.37867 167.583 7.03467 167.583 7.76C167.583 7.87733 167.578 8 167.567 8.128C167.567 8.256 167.562 8.38933 167.551 8.528H161.519C161.562 9.14667 161.775 9.632 162.159 9.984C162.554 10.336 163.028 10.512 163.583 10.512C163.999 10.512 164.346 10.4213 164.623 10.24C164.911 10.048 165.124 9.80267 165.263 9.504H167.343C167.194 10.0053 166.943 10.464 166.591 10.88C166.25 11.2853 165.823 11.6053 165.311 11.84C164.81 12.0747 164.239 12.192 163.599 12.192ZM163.615 5.536C163.114 5.536 162.671 5.68 162.287 5.968C161.903 6.24533 161.658 6.672 161.551 7.248H165.503C165.471 6.72533 165.279 6.30933 164.927 6C164.575 5.69067 164.138 5.536 163.615 5.536ZM169.306 12V4.064H171.13L171.322 5.552C171.61 5.04 171.999 4.63467 172.49 4.336C172.991 4.02667 173.578 3.872 174.25 3.872V6.032H173.674C173.226 6.032 172.826 6.10133 172.474 6.24C172.122 6.37867 171.844 6.61867 171.642 6.96C171.45 7.30133 171.354 7.776 171.354 8.384V12H169.306ZM179.365 12.192C178.565 12.192 177.855 12.0213 177.237 11.68C176.618 11.3387 176.133 10.8587 175.781 10.24C175.429 9.62133 175.253 8.90667 175.253 8.096C175.253 7.27467 175.423 6.544 175.765 5.904C176.117 5.264 176.597 4.768 177.205 4.416C177.823 4.05333 178.549 3.872 179.381 3.872C180.159 3.872 180.847 4.04267 181.445 4.384C182.042 4.72533 182.506 5.19467 182.837 5.792C183.178 6.37867 183.349 7.03467 183.349 7.76C183.349 7.87733 183.343 8 183.333 8.128C183.333 8.256 183.327 8.38933 183.317 8.528H177.285C177.327 9.14667 177.541 9.632 177.925 9.984C178.319 10.336 178.794 10.512 179.349 10.512C179.765 10.512 180.111 10.4213 180.389 10.24C180.677 10.048 180.89 9.80267 181.029 9.504H183.109C182.959 10.0053 182.709 10.464 182.357 10.88C182.015 11.2853 181.589 11.6053 181.077 11.84C180.575 12.0747 180.005 12.192 179.365 12.192ZM179.381 5.536C178.879 5.536 178.437 5.68 178.053 5.968C177.669 6.24533 177.423 6.672 177.317 7.248H181.269C181.237 6.72533 181.045 6.30933 180.693 6C180.341 5.69067 179.903 5.536 179.381 5.536ZM185.071 12V4.064H186.879L187.039 5.408C187.285 4.93867 187.637 4.56533 188.095 4.288C188.565 4.01067 189.114 3.872 189.743 3.872C190.725 3.872 191.487 4.18133 192.031 4.8C192.575 5.41867 192.847 6.32533 192.847 7.52V12H190.799V7.712C190.799 7.02933 190.661 6.50667 190.383 6.144C190.106 5.78133 189.674 5.6 189.087 5.6C188.511 5.6 188.037 5.80267 187.663 6.208C187.301 6.61333 187.119 7.17867 187.119 7.904V12H185.071ZM198.454 12.192C197.707 12.192 197.04 12.0107 196.454 11.648C195.867 11.2853 195.403 10.7893 195.062 10.16C194.72 9.53067 194.55 8.816 194.55 8.016C194.55 7.216 194.72 6.50667 195.062 5.888C195.403 5.25867 195.867 4.768 196.454 4.416C197.04 4.05333 197.707 3.872 198.454 3.872C199.051 3.872 199.574 3.984 200.022 4.208C200.47 4.432 200.832 4.74667 201.11 5.152V0.48H203.158V12H201.334L201.11 10.864C200.854 11.216 200.512 11.5253 200.086 11.792C199.67 12.0587 199.126 12.192 198.454 12.192ZM198.886 10.4C199.547 10.4 200.086 10.1813 200.502 9.744C200.928 9.296 201.142 8.72533 201.142 8.032C201.142 7.33867 200.928 6.77333 200.502 6.336C200.086 5.888 199.547 5.664 198.886 5.664C198.235 5.664 197.696 5.88267 197.27 6.32C196.843 6.75733 196.63 7.32267 196.63 8.016C196.63 8.70933 196.843 9.28 197.27 9.728C197.696 10.176 198.235 10.4 198.886 10.4ZM212.891 4.064V12H211.083L210.923 10.656C210.678 11.1253 210.32 11.4987 209.851 11.776C209.392 12.0533 208.848 12.192 208.219 12.192C207.238 12.192 206.475 11.8827 205.931 11.264C205.387 10.6453 205.115 9.73867 205.115 8.544V4.064H207.163V8.352C207.163 9.03467 207.302 9.55733 207.579 9.92C207.856 10.2827 208.288 10.464 208.875 10.464C209.451 10.464 209.92 10.2613 210.283 9.856C210.656 9.45067 210.843 8.88533 210.843 8.16V4.064H212.891ZM214.978 12V4.064H216.786L216.962 5.136C217.218 4.752 217.554 4.448 217.97 4.224C218.396 3.98933 218.887 3.872 219.442 3.872C220.668 3.872 221.538 4.34667 222.05 5.296C222.338 4.85867 222.722 4.512 223.202 4.256C223.692 4 224.226 3.872 224.802 3.872C225.836 3.872 226.631 4.18133 227.186 4.8C227.74 5.41867 228.018 6.32533 228.018 7.52V12H225.97V7.712C225.97 7.02933 225.836 6.50667 225.57 6.144C225.314 5.78133 224.914 5.6 224.37 5.6C223.815 5.6 223.367 5.80267 223.026 6.208C222.695 6.61333 222.53 7.17867 222.53 7.904V12H220.482V7.712C220.482 7.02933 220.348 6.50667 220.082 6.144C219.815 5.78133 219.404 5.6 218.85 5.6C218.306 5.6 217.863 5.80267 217.522 6.208C217.191 6.61333 217.026 7.17867 217.026 7.904V12H214.978ZM237.63 12.192C236.83 12.192 236.121 12.0213 235.502 11.68C234.884 11.3387 234.398 10.8587 234.046 10.24C233.694 9.62133 233.518 8.90667 233.518 8.096C233.518 7.27467 233.689 6.544 234.03 5.904C234.382 5.264 234.862 4.768 235.47 4.416C236.089 4.05333 236.814 3.872 237.646 3.872C238.425 3.872 239.113 4.04267 239.71 4.384C240.308 4.72533 240.772 5.19467 241.102 5.792C241.444 6.37867 241.614 7.03467 241.614 7.76C241.614 7.87733 241.609 8 241.598 8.128C241.598 8.256 241.593 8.38933 241.582 8.528H235.55C235.593 9.14667 235.806 9.632 236.19 9.984C236.585 10.336 237.06 10.512 237.614 10.512C238.03 10.512 238.377 10.4213 238.654 10.24C238.942 10.048 239.156 9.80267 239.294 9.504H241.374C241.225 10.0053 240.974 10.464 240.622 10.88C240.281 11.2853 239.854 11.6053 239.342 11.84C238.841 12.0747 238.27 12.192 237.63 12.192ZM237.646 5.536C237.145 5.536 236.702 5.68 236.318 5.968C235.934 6.24533 235.689 6.672 235.582 7.248H239.534C239.502 6.72533 239.31 6.30933 238.958 6C238.606 5.69067 238.169 5.536 237.646 5.536ZM250.985 4.064V12H249.177L249.017 10.656C248.772 11.1253 248.414 11.4987 247.945 11.776C247.486 12.0533 246.942 12.192 246.313 12.192C245.332 12.192 244.569 11.8827 244.025 11.264C243.481 10.6453 243.209 9.73867 243.209 8.544V4.064H245.257V8.352C245.257 9.03467 245.396 9.55733 245.673 9.92C245.95 10.2827 246.382 10.464 246.969 10.464C247.545 10.464 248.014 10.2613 248.377 9.856C248.75 9.45067 248.937 8.88533 248.937 8.16V4.064H250.985ZM252.255 13.856L253.167 9.872H255.151L253.599 13.856H252.255ZM264.475 12.192C263.664 12.192 262.95 12.016 262.331 11.664C261.712 11.312 261.222 10.8213 260.859 10.192C260.507 9.56267 260.331 8.84267 260.331 8.032C260.331 7.22133 260.507 6.50133 260.859 5.872C261.222 5.24267 261.712 4.752 262.331 4.4C262.95 4.048 263.664 3.872 264.475 3.872C265.488 3.872 266.342 4.13867 267.035 4.672C267.728 5.19467 268.171 5.92 268.363 6.848H266.203C266.096 6.464 265.883 6.16533 265.563 5.952C265.254 5.728 264.886 5.616 264.459 5.616C263.894 5.616 263.414 5.82933 263.019 6.256C262.624 6.68267 262.427 7.27467 262.427 8.032C262.427 8.78933 262.624 9.38133 263.019 9.808C263.414 10.2347 263.894 10.448 264.459 10.448C264.886 10.448 265.254 10.3413 265.563 10.128C265.883 9.91467 266.096 9.61067 266.203 9.216H268.363C268.171 10.112 267.728 10.832 267.035 11.376C266.342 11.92 265.488 12.192 264.475 12.192ZM277.829 4.064V12H276.021L275.861 10.656C275.615 11.1253 275.258 11.4987 274.789 11.776C274.33 12.0533 273.786 12.192 273.157 12.192C272.175 12.192 271.413 11.8827 270.869 11.264C270.325 10.6453 270.053 9.73867 270.053 8.544V4.064H272.101V8.352C272.101 9.03467 272.239 9.55733 272.517 9.92C272.794 10.2827 273.226 10.464 273.813 10.464C274.389 10.464 274.858 10.2613 275.221 9.856C275.594 9.45067 275.781 8.88533 275.781 8.16V4.064H277.829ZM279.915 12V4.064H281.723L281.899 5.136C282.155 4.752 282.491 4.448 282.907 4.224C283.334 3.98933 283.824 3.872 284.379 3.872C285.606 3.872 286.475 4.34667 286.987 5.296C287.275 4.85867 287.659 4.512 288.139 4.256C288.63 4 289.163 3.872 289.739 3.872C290.774 3.872 291.568 4.18133 292.123 4.8C292.678 5.41867 292.955 6.32533 292.955 7.52V12H290.907V7.712C290.907 7.02933 290.774 6.50667 290.507 6.144C290.251 5.78133 289.851 5.6 289.307 5.6C288.752 5.6 288.304 5.80267 287.963 6.208C287.632 6.61333 287.467 7.17867 287.467 7.904V12H285.419V7.712C285.419 7.02933 285.286 6.50667 285.019 6.144C284.752 5.78133 284.342 5.6 283.787 5.6C283.243 5.6 282.8 5.80267 282.459 6.208C282.128 6.61333 281.963 7.17867 281.963 7.904V12H279.915ZM299.816 2.832C299.443 2.832 299.133 2.72 298.888 2.496C298.653 2.272 298.536 1.98933 298.536 1.648C298.536 1.30667 298.653 1.02933 298.888 0.815999C299.133 0.591999 299.443 0.48 299.816 0.48C300.189 0.48 300.493 0.591999 300.728 0.815999C300.973 1.02933 301.096 1.30667 301.096 1.648C301.096 1.98933 300.973 2.272 300.728 2.496C300.493 2.72 300.189 2.832 299.816 2.832ZM298.792 12V4.064H300.84V12H298.792ZM302.978 12V4.064H304.786L304.946 5.408C305.191 4.93867 305.543 4.56533 306.002 4.288C306.471 4.01067 307.02 3.872 307.65 3.872C308.631 3.872 309.394 4.18133 309.938 4.8C310.481 5.41867 310.753 6.32533 310.753 7.52V12H308.706V7.712C308.706 7.02933 308.567 6.50667 308.29 6.144C308.012 5.78133 307.58 5.6 306.994 5.6C306.418 5.6 305.943 5.80267 305.57 6.208C305.207 6.61333 305.026 7.17867 305.026 7.904V12H302.978ZM2.144 26.832C1.77067 26.832 1.46133 26.72 1.216 26.496C0.981333 26.272 0.864 25.9893 0.864 25.648C0.864 25.3067 0.981333 25.0293 1.216 24.816C1.46133 24.592 1.77067 24.48 2.144 24.48C2.51733 24.48 2.82133 24.592 3.056 24.816C3.30133 25.0293 3.424 25.3067 3.424 25.648C3.424 25.9893 3.30133 26.272 3.056 26.496C2.82133 26.72 2.51733 26.832 2.144 26.832ZM1.12 36V28.064H3.168V36H1.12ZM5.30563 36V28.064H7.11363L7.27363 29.408C7.51896 28.9387 7.87096 28.5653 8.32963 28.288C8.79896 28.0107 9.34829 27.872 9.97763 27.872C10.959 27.872 11.7216 28.1813 12.2656 28.8C12.8096 29.4187 13.0816 30.3253 13.0816 31.52V36H11.0336V31.712C11.0336 31.0293 10.895 30.5067 10.6176 30.144C10.3403 29.7813 9.90829 29.6 9.32163 29.6C8.74563 29.6 8.27096 29.8027 7.89763 30.208C7.53496 30.6133 7.35363 31.1787 7.35363 31.904V36H5.30563ZM17.1059 36L14.1939 28.064H16.3379L18.3539 34.064L20.3699 28.064H22.5139L19.5859 36H17.1059ZM27.271 36.192C26.471 36.192 25.7617 36.0213 25.143 35.68C24.5243 35.3387 24.039 34.8587 23.687 34.24C23.335 33.6213 23.159 32.9067 23.159 32.096C23.159 31.2747 23.3297 30.544 23.671 29.904C24.023 29.264 24.503 28.768 25.111 28.416C25.7297 28.0533 26.455 27.872 27.287 27.872C28.0657 27.872 28.7537 28.0427 29.351 28.384C29.9483 28.7253 30.4123 29.1947 30.743 29.792C31.0843 30.3787 31.255 31.0347 31.255 31.76C31.255 31.8773 31.2497 32 31.239 32.128C31.239 32.256 31.2337 32.3893 31.223 32.528H25.191C25.2337 33.1467 25.447 33.632 25.831 33.984C26.2257 34.336 26.7003 34.512 27.255 34.512C27.671 34.512 28.0177 34.4213 28.295 34.24C28.583 34.048 28.7963 33.8027 28.935 33.504H31.015C30.8657 34.0053 30.615 34.464 30.263 34.88C29.9217 35.2853 29.495 35.6053 28.983 35.84C28.4817 36.0747 27.911 36.192 27.271 36.192ZM27.287 29.536C26.7857 29.536 26.343 29.68 25.959 29.968C25.575 30.2453 25.3297 30.672 25.223 31.248H29.175C29.143 30.7253 28.951 30.3093 28.599 30C28.247 29.6907 27.8097 29.536 27.287 29.536ZM32.9775 36V28.064H34.7855L34.9455 29.408C35.1908 28.9387 35.5428 28.5653 36.0015 28.288C36.4708 28.0107 37.0202 27.872 37.6495 27.872C38.6308 27.872 39.3935 28.1813 39.9375 28.8C40.4815 29.4187 40.7535 30.3253 40.7535 31.52V36H38.7055V31.712C38.7055 31.0293 38.5668 30.5067 38.2895 30.144C38.0122 29.7813 37.5802 29.6 36.9935 29.6C36.4175 29.6 35.9428 29.8027 35.5695 30.208C35.2068 30.6133 35.0255 31.1787 35.0255 31.904V36H32.9775ZM43.8159 26.832C43.4425 26.832 43.1332 26.72 42.8879 26.496C42.6532 26.272 42.5359 25.9893 42.5359 25.648C42.5359 25.3067 42.6532 25.0293 42.8879 24.816C43.1332 24.592 43.4425 24.48 43.8159 24.48C44.1892 24.48 44.4932 24.592 44.7279 24.816C44.9732 25.0293 45.0959 25.3067 45.0959 25.648C45.0959 25.9893 44.9732 26.272 44.7279 26.496C44.4932 26.72 44.1892 26.832 43.8159 26.832ZM42.7919 36V28.064H44.8399V36H42.7919ZM46.9775 36V28.064H48.8015L48.9935 29.552C49.2815 29.04 49.6708 28.6347 50.1615 28.336C50.6628 28.0267 51.2495 27.872 51.9215 27.872V30.032H51.3455C50.8975 30.032 50.4975 30.1013 50.1455 30.24C49.7935 30.3787 49.5162 30.6187 49.3135 30.96C49.1215 31.3013 49.0255 31.776 49.0255 32.384V36H46.9775ZM57.0366 36.192C56.2366 36.192 55.5273 36.0213 54.9086 35.68C54.29 35.3387 53.8046 34.8587 53.4526 34.24C53.1006 33.6213 52.9246 32.9067 52.9246 32.096C52.9246 31.2747 53.0953 30.544 53.4366 29.904C53.7886 29.264 54.2686 28.768 54.8766 28.416C55.4953 28.0533 56.2206 27.872 57.0526 27.872C57.8313 27.872 58.5193 28.0427 59.1166 28.384C59.714 28.7253 60.178 29.1947 60.5086 29.792C60.85 30.3787 61.0206 31.0347 61.0206 31.76C61.0206 31.8773 61.0153 32 61.0046 32.128C61.0046 32.256 60.9993 32.3893 60.9886 32.528H54.9566C54.9993 33.1467 55.2126 33.632 55.5966 33.984C55.9913 34.336 56.466 34.512 57.0206 34.512C57.4366 34.512 57.7833 34.4213 58.0606 34.24C58.3486 34.048 58.562 33.8027 58.7006 33.504H60.7806C60.6313 34.0053 60.3806 34.464 60.0286 34.88C59.6873 35.2853 59.2606 35.6053 58.7486 35.84C58.2473 36.0747 57.6766 36.192 57.0366 36.192ZM57.0526 29.536C56.5513 29.536 56.1086 29.68 55.7246 29.968C55.3406 30.2453 55.0953 30.672 54.9886 31.248H58.9406C58.9086 30.7253 58.7166 30.3093 58.3646 30C58.0126 29.6907 57.5753 29.536 57.0526 29.536ZM66.5556 39.52V28.064H68.3796L68.6036 29.2C68.8596 28.848 69.1956 28.5387 69.6116 28.272C70.0383 28.0053 70.5876 27.872 71.2596 27.872C72.0063 27.872 72.673 28.0533 73.2596 28.416C73.8463 28.7787 74.3103 29.2747 74.6516 29.904C74.993 30.5333 75.1636 31.248 75.1636 32.048C75.1636 32.848 74.993 33.5627 74.6516 34.192C74.3103 34.8107 73.8463 35.3013 73.2596 35.664C72.673 36.016 72.0063 36.192 71.2596 36.192C70.6623 36.192 70.1396 36.08 69.6916 35.856C69.2436 35.632 68.881 35.3173 68.6036 34.912V39.52H66.5556ZM70.8276 34.4C71.4783 34.4 72.017 34.1813 72.4436 33.744C72.8703 33.3067 73.0836 32.7413 73.0836 32.048C73.0836 31.3547 72.8703 30.784 72.4436 30.336C72.017 29.888 71.4783 29.664 70.8276 29.664C70.1663 29.664 69.6223 29.888 69.1956 30.336C68.7796 30.7733 68.5716 31.3387 68.5716 32.032C68.5716 32.7253 68.7796 33.296 69.1956 33.744C69.6223 34.1813 70.1663 34.4 70.8276 34.4ZM76.9931 36V24.48H79.0411V36H76.9931ZM83.8698 36.192C83.1871 36.192 82.6271 36.0853 82.1898 35.872C81.7524 35.648 81.4271 35.3547 81.2138 34.992C81.0004 34.6293 80.8938 34.2293 80.8938 33.792C80.8938 33.056 81.1818 32.4587 81.7578 32C82.3338 31.5413 83.1978 31.312 84.3498 31.312H86.3658V31.12C86.3658 30.576 86.2111 30.176 85.9018 29.92C85.5924 29.664 85.2084 29.536 84.7498 29.536C84.3338 29.536 83.9711 29.6373 83.6618 29.84C83.3524 30.032 83.1604 30.32 83.0858 30.704H81.0858C81.1391 30.128 81.3311 29.6267 81.6618 29.2C82.0031 28.7733 82.4404 28.448 82.9738 28.224C83.5071 27.9893 84.1044 27.872 84.7658 27.872C85.8964 27.872 86.7871 28.1547 87.4378 28.72C88.0884 29.2853 88.4138 30.0853 88.4138 31.12V36H86.6698L86.4778 34.72C86.2431 35.1467 85.9124 35.4987 85.4858 35.776C85.0698 36.0533 84.5311 36.192 83.8698 36.192ZM84.3338 34.592C84.9204 34.592 85.3738 34.4 85.6938 34.016C86.0244 33.632 86.2324 33.1573 86.3178 32.592H84.5738C84.0298 32.592 83.6404 32.6933 83.4058 32.896C83.1711 33.088 83.0538 33.328 83.0538 33.616C83.0538 33.9253 83.1711 34.1653 83.4058 34.336C83.6404 34.5067 83.9498 34.592 84.3338 34.592ZM93.7948 36C92.9628 36 92.2961 35.7973 91.7948 35.392C91.2934 34.9867 91.0428 34.2667 91.0428 33.232V29.776H89.6828V28.064H91.0428L91.2828 25.936H93.0908V28.064H95.2348V29.776H93.0908V33.248C93.0908 33.632 93.1708 33.8987 93.3307 34.048C93.5014 34.1867 93.7894 34.256 94.1948 34.256H95.1868V36H93.7948ZM100.598 36.192C99.83 36.192 99.1367 36.016 98.518 35.664C97.91 35.312 97.4247 34.8267 97.062 34.208C96.71 33.5787 96.534 32.8533 96.534 32.032C96.534 31.2107 96.7153 30.4907 97.078 29.872C97.4407 29.2427 97.926 28.752 98.534 28.4C99.1527 28.048 99.846 27.872 100.614 27.872C101.371 27.872 102.054 28.048 102.662 28.4C103.281 28.752 103.766 29.2427 104.118 29.872C104.481 30.4907 104.662 31.2107 104.662 32.032C104.662 32.8533 104.481 33.5787 104.118 34.208C103.766 34.8267 103.281 35.312 102.662 35.664C102.043 36.016 101.355 36.192 100.598 36.192ZM100.598 34.416C101.131 34.416 101.595 34.2187 101.99 33.824C102.385 33.4187 102.582 32.8213 102.582 32.032C102.582 31.2427 102.385 30.6507 101.99 30.256C101.595 29.8507 101.137 29.648 100.614 29.648C100.07 29.648 99.6007 29.8507 99.206 30.256C98.822 30.6507 98.63 31.2427 98.63 32.032C98.63 32.8213 98.822 33.4187 99.206 33.824C99.6007 34.2187 100.065 34.416 100.598 34.416ZM106.493 36V28.064H108.301L108.461 29.408C108.706 28.9387 109.058 28.5653 109.517 28.288C109.986 28.0107 110.536 27.872 111.165 27.872C112.146 27.872 112.909 28.1813 113.453 28.8C113.997 29.4187 114.269 30.3253 114.269 31.52V36H112.221V31.712C112.221 31.0293 112.082 30.5067 111.805 30.144C111.528 29.7813 111.096 29.6 110.509 29.6C109.933 29.6 109.458 29.8027 109.085 30.208C108.722 30.6133 108.541 31.1787 108.541 31.904V36H106.493ZM120.084 36.192C119.284 36.192 118.574 36.0213 117.956 35.68C117.337 35.3387 116.852 34.8587 116.5 34.24C116.148 33.6213 115.972 32.9067 115.972 32.096C115.972 31.2747 116.142 30.544 116.484 29.904C116.836 29.264 117.316 28.768 117.924 28.416C118.542 28.0533 119.268 27.872 120.1 27.872C120.878 27.872 121.566 28.0427 122.164 28.384C122.761 28.7253 123.225 29.1947 123.556 29.792C123.897 30.3787 124.068 31.0347 124.068 31.76C124.068 31.8773 124.062 32 124.052 32.128C124.052 32.256 124.046 32.3893 124.036 32.528H118.004C118.046 33.1467 118.26 33.632 118.644 33.984C119.038 34.336 119.513 34.512 120.068 34.512C120.484 34.512 120.83 34.4213 121.108 34.24C121.396 34.048 121.609 33.8027 121.748 33.504H123.828C123.678 34.0053 123.428 34.464 123.076 34.88C122.734 35.2853 122.308 35.6053 121.796 35.84C121.294 36.0747 120.724 36.192 120.084 36.192ZM120.1 29.536C119.598 29.536 119.156 29.68 118.772 29.968C118.388 30.2453 118.142 30.672 118.036 31.248H121.988C121.956 30.7253 121.764 30.3093 121.412 30C121.06 29.6907 120.622 29.536 120.1 29.536ZM125.79 36V28.064H127.598L127.774 29.136C128.03 28.752 128.366 28.448 128.782 28.224C129.209 27.9893 129.699 27.872 130.254 27.872C131.481 27.872 132.35 28.3467 132.862 29.296C133.15 28.8587 133.534 28.512 134.014 28.256C134.505 28 135.038 27.872 135.614 27.872C136.649 27.872 137.443 28.1813 137.998 28.8C138.553 29.4187 138.83 30.3253 138.83 31.52V36H136.782V31.712C136.782 31.0293 136.649 30.5067 136.382 30.144C136.126 29.7813 135.726 29.6 135.182 29.6C134.627 29.6 134.179 29.8027 133.838 30.208C133.507 30.6133 133.342 31.1787 133.342 31.904V36H131.294V31.712C131.294 31.0293 131.161 30.5067 130.894 30.144C130.627 29.7813 130.217 29.6 129.662 29.6C129.118 29.6 128.675 29.8027 128.334 30.208C128.003 30.6133 127.838 31.1787 127.838 31.904V36H125.79ZM141.654 36.112C141.281 36.112 140.972 35.9947 140.726 35.76C140.492 35.5253 140.374 35.2427 140.374 34.912C140.374 34.5707 140.492 34.2827 140.726 34.048C140.972 33.8133 141.281 33.696 141.654 33.696C142.028 33.696 142.332 33.8133 142.566 34.048C142.812 34.2827 142.934 34.5707 142.934 34.912C142.934 35.2427 142.812 35.5253 142.566 35.76C142.332 35.9947 142.028 36.112 141.654 36.112ZM147.759 36L151.855 24.8H154.159L158.255 36H156.079L155.183 33.408H150.815L149.903 36H147.759ZM151.375 31.808H154.623L152.991 27.152L151.375 31.808ZM159.649 36V28.064H161.457L161.617 29.408C161.863 28.9387 162.215 28.5653 162.673 28.288C163.143 28.0107 163.692 27.872 164.321 27.872C165.303 27.872 166.065 28.1813 166.609 28.8C167.153 29.4187 167.425 30.3253 167.425 31.52V36H165.377V31.712C165.377 31.0293 165.239 30.5067 164.961 30.144C164.684 29.7813 164.252 29.6 163.665 29.6C163.089 29.6 162.615 29.8027 162.241 30.208C161.879 30.6133 161.697 31.1787 161.697 31.904V36H159.649ZM175.932 36.192C175.25 36.192 174.69 36.0853 174.252 35.872C173.815 35.648 173.49 35.3547 173.276 34.992C173.063 34.6293 172.956 34.2293 172.956 33.792C172.956 33.056 173.244 32.4587 173.82 32C174.396 31.5413 175.26 31.312 176.412 31.312H178.428V31.12C178.428 30.576 178.274 30.176 177.964 29.92C177.655 29.664 177.271 29.536 176.812 29.536C176.396 29.536 176.034 29.6373 175.724 29.84C175.415 30.032 175.223 30.32 175.148 30.704H173.148C173.202 30.128 173.394 29.6267 173.724 29.2C174.066 28.7733 174.503 28.448 175.036 28.224C175.57 27.9893 176.167 27.872 176.828 27.872C177.959 27.872 178.85 28.1547 179.5 28.72C180.151 29.2853 180.476 30.0853 180.476 31.12V36H178.732L178.54 34.72C178.306 35.1467 177.975 35.4987 177.548 35.776C177.132 36.0533 176.594 36.192 175.932 36.192ZM176.396 34.592C176.983 34.592 177.436 34.4 177.756 34.016C178.087 33.632 178.295 33.1573 178.38 32.592H176.636C176.092 32.592 175.703 32.6933 175.468 32.896C175.234 33.088 175.116 33.328 175.116 33.616C175.116 33.9253 175.234 34.1653 175.468 34.336C175.703 34.5067 176.012 34.592 176.396 34.592ZM182.431 36V28.064H184.239L184.399 29.408C184.644 28.9387 184.996 28.5653 185.455 28.288C185.924 28.0107 186.473 27.872 187.103 27.872C188.084 27.872 188.847 28.1813 189.391 28.8C189.935 29.4187 190.207 30.3253 190.207 31.52V36H188.159V31.712C188.159 31.0293 188.02 30.5067 187.743 30.144C187.465 29.7813 187.033 29.6 186.447 29.6C185.871 29.6 185.396 29.8027 185.023 30.208C184.66 30.6133 184.479 31.1787 184.479 31.904V36H182.431ZM193.269 26.832C192.896 26.832 192.586 26.72 192.341 26.496C192.106 26.272 191.989 25.9893 191.989 25.648C191.989 25.3067 192.106 25.0293 192.341 24.816C192.586 24.592 192.896 24.48 193.269 24.48C193.642 24.48 193.946 24.592 194.181 24.816C194.426 25.0293 194.549 25.3067 194.549 25.648C194.549 25.9893 194.426 26.272 194.181 26.496C193.946 26.72 193.642 26.832 193.269 26.832ZM192.245 36V28.064H194.293V36H192.245ZM196.431 36V28.064H198.239L198.415 29.136C198.671 28.752 199.007 28.448 199.423 28.224C199.849 27.9893 200.34 27.872 200.895 27.872C202.121 27.872 202.991 28.3467 203.503 29.296C203.791 28.8587 204.175 28.512 204.655 28.256C205.145 28 205.679 27.872 206.255 27.872C207.289 27.872 208.084 28.1813 208.639 28.8C209.193 29.4187 209.471 30.3253 209.471 31.52V36H207.423V31.712C207.423 31.0293 207.289 30.5067 207.023 30.144C206.767 29.7813 206.367 29.6 205.823 29.6C205.268 29.6 204.82 29.8027 204.479 30.208C204.148 30.6133 203.983 31.1787 203.983 31.904V36H201.935V31.712C201.935 31.0293 201.801 30.5067 201.535 30.144C201.268 29.7813 200.857 29.6 200.303 29.6C199.759 29.6 199.316 29.8027 198.975 30.208C198.644 30.6133 198.479 31.1787 198.479 31.904V36H196.431ZM214.151 36.192C213.468 36.192 212.908 36.0853 212.471 35.872C212.034 35.648 211.708 35.3547 211.495 34.992C211.282 34.6293 211.175 34.2293 211.175 33.792C211.175 33.056 211.463 32.4587 212.039 32C212.615 31.5413 213.479 31.312 214.631 31.312H216.647V31.12C216.647 30.576 216.492 30.176 216.183 29.92C215.874 29.664 215.49 29.536 215.031 29.536C214.615 29.536 214.252 29.6373 213.943 29.84C213.634 30.032 213.442 30.32 213.367 30.704H211.367C211.42 30.128 211.612 29.6267 211.943 29.2C212.284 28.7733 212.722 28.448 213.255 28.224C213.788 27.9893 214.386 27.872 215.047 27.872C216.178 27.872 217.068 28.1547 217.719 28.72C218.37 29.2853 218.695 30.0853 218.695 31.12V36H216.951L216.759 34.72C216.524 35.1467 216.194 35.4987 215.767 35.776C215.351 36.0533 214.812 36.192 214.151 36.192ZM214.615 34.592C215.202 34.592 215.655 34.4 215.975 34.016C216.306 33.632 216.514 33.1573 216.599 32.592H214.855C214.311 32.592 213.922 32.6933 213.687 32.896C213.452 33.088 213.335 33.328 213.335 33.616C213.335 33.9253 213.452 34.1653 213.687 34.336C213.922 34.5067 214.231 34.592 214.615 34.592ZM220.649 36V24.48H222.697V36H220.649ZM231.339 36.192C230.656 36.192 230.096 36.0853 229.659 35.872C229.221 35.648 228.896 35.3547 228.683 34.992C228.469 34.6293 228.363 34.2293 228.363 33.792C228.363 33.056 228.651 32.4587 229.227 32C229.803 31.5413 230.667 31.312 231.819 31.312H233.835V31.12C233.835 30.576 233.68 30.176 233.371 29.92C233.061 29.664 232.677 29.536 232.219 29.536C231.803 29.536 231.44 29.6373 231.131 29.84C230.821 30.032 230.629 30.32 230.555 30.704H228.555C228.608 30.128 228.8 29.6267 229.131 29.2C229.472 28.7733 229.909 28.448 230.443 28.224C230.976 27.9893 231.573 27.872 232.235 27.872C233.365 27.872 234.256 28.1547 234.907 28.72C235.557 29.2853 235.883 30.0853 235.883 31.12V36H234.139L233.947 34.72C233.712 35.1467 233.381 35.4987 232.955 35.776C232.539 36.0533 232 36.192 231.339 36.192ZM231.803 34.592C232.389 34.592 232.843 34.4 233.163 34.016C233.493 33.632 233.701 33.1573 233.787 32.592H232.043C231.499 32.592 231.109 32.6933 230.875 32.896C230.64 33.088 230.523 33.328 230.523 33.616C230.523 33.9253 230.64 34.1653 230.875 34.336C231.109 34.5067 231.419 34.592 231.803 34.592ZM241.117 36.192C240.413 36.192 239.794 36.08 239.261 35.856C238.728 35.6213 238.301 35.3013 237.981 34.896C237.661 34.4907 237.469 34.0213 237.405 33.488H239.469C239.533 33.7973 239.704 34.064 239.981 34.288C240.269 34.5013 240.637 34.608 241.085 34.608C241.533 34.608 241.858 34.5173 242.061 34.336C242.274 34.1547 242.381 33.9467 242.381 33.712C242.381 33.3707 242.232 33.1413 241.933 33.024C241.634 32.896 241.218 32.7733 240.685 32.656C240.344 32.5813 239.997 32.4907 239.645 32.384C239.293 32.2773 238.968 32.144 238.669 31.984C238.381 31.8133 238.146 31.6 237.965 31.344C237.784 31.0773 237.693 30.752 237.693 30.368C237.693 29.664 237.97 29.072 238.525 28.592C239.09 28.112 239.88 27.872 240.893 27.872C241.832 27.872 242.578 28.0907 243.133 28.528C243.698 28.9653 244.034 29.568 244.141 30.336H242.205C242.088 29.7493 241.645 29.456 240.877 29.456C240.493 29.456 240.194 29.5307 239.981 29.68C239.778 29.8293 239.677 30.016 239.677 30.24C239.677 30.4747 239.832 30.6613 240.141 30.8C240.45 30.9387 240.861 31.0667 241.373 31.184C241.928 31.312 242.434 31.456 242.893 31.616C243.362 31.7653 243.736 31.9947 244.013 32.304C244.29 32.6027 244.429 33.0347 244.429 33.6C244.44 34.0907 244.312 34.5333 244.045 34.928C243.778 35.3227 243.394 35.632 242.893 35.856C242.392 36.08 241.8 36.192 241.117 36.192ZM249.523 36.192C248.819 36.192 248.2 36.08 247.667 35.856C247.134 35.6213 246.707 35.3013 246.387 34.896C246.067 34.4907 245.875 34.0213 245.811 33.488H247.875C247.939 33.7973 248.11 34.064 248.387 34.288C248.675 34.5013 249.043 34.608 249.491 34.608C249.939 34.608 250.264 34.5173 250.467 34.336C250.68 34.1547 250.787 33.9467 250.787 33.712C250.787 33.3707 250.638 33.1413 250.339 33.024C250.04 32.896 249.624 32.7733 249.091 32.656C248.75 32.5813 248.403 32.4907 248.051 32.384C247.699 32.2773 247.374 32.144 247.075 31.984C246.787 31.8133 246.552 31.6 246.371 31.344C246.19 31.0773 246.099 30.752 246.099 30.368C246.099 29.664 246.376 29.072 246.931 28.592C247.496 28.112 248.286 27.872 249.299 27.872C250.238 27.872 250.984 28.0907 251.539 28.528C252.104 28.9653 252.44 29.568 252.547 30.336H250.611C250.494 29.7493 250.051 29.456 249.283 29.456C248.899 29.456 248.6 29.5307 248.387 29.68C248.184 29.8293 248.083 30.016 248.083 30.24C248.083 30.4747 248.238 30.6613 248.547 30.8C248.856 30.9387 249.267 31.0667 249.779 31.184C250.334 31.312 250.84 31.456 251.299 31.616C251.768 31.7653 252.142 31.9947 252.419 32.304C252.696 32.6027 252.835 33.0347 252.835 33.6C252.846 34.0907 252.718 34.5333 252.451 34.928C252.184 35.3227 251.8 35.632 251.299 35.856C250.798 36.08 250.206 36.192 249.523 36.192ZM258.505 36.192C257.705 36.192 256.996 36.0213 256.377 35.68C255.759 35.3387 255.273 34.8587 254.921 34.24C254.569 33.6213 254.393 32.9067 254.393 32.096C254.393 31.2747 254.564 30.544 254.905 29.904C255.257 29.264 255.737 28.768 256.345 28.416C256.964 28.0533 257.689 27.872 258.521 27.872C259.3 27.872 259.988 28.0427 260.585 28.384C261.183 28.7253 261.647 29.1947 261.977 29.792C262.319 30.3787 262.489 31.0347 262.489 31.76C262.489 31.8773 262.484 32 262.473 32.128C262.473 32.256 262.468 32.3893 262.457 32.528H256.425C256.468 33.1467 256.681 33.632 257.065 33.984C257.46 34.336 257.935 34.512 258.489 34.512C258.905 34.512 259.252 34.4213 259.529 34.24C259.817 34.048 260.031 33.8027 260.169 33.504H262.249C262.1 34.0053 261.849 34.464 261.497 34.88C261.156 35.2853 260.729 35.6053 260.217 35.84C259.716 36.0747 259.145 36.192 258.505 36.192ZM258.521 29.536C258.02 29.536 257.577 29.68 257.193 29.968C256.809 30.2453 256.564 30.672 256.457 31.248H260.409C260.377 30.7253 260.185 30.3093 259.833 30C259.481 29.6907 259.044 29.536 258.521 29.536ZM264.212 36V28.064H266.02L266.18 29.408C266.425 28.9387 266.777 28.5653 267.236 28.288C267.705 28.0107 268.255 27.872 268.884 27.872C269.865 27.872 270.628 28.1813 271.172 28.8C271.716 29.4187 271.988 30.3253 271.988 31.52V36H269.94V31.712C269.94 31.0293 269.801 30.5067 269.524 30.144C269.247 29.7813 268.815 29.6 268.228 29.6C267.652 29.6 267.177 29.8027 266.804 30.208C266.441 30.6133 266.26 31.1787 266.26 31.904V36H264.212ZM277.482 36C276.65 36 275.984 35.7973 275.482 35.392C274.981 34.9867 274.73 34.2667 274.73 33.232V29.776H273.37V28.064H274.73L274.97 25.936H276.778V28.064H278.922V29.776H276.778V33.248C276.778 33.632 276.858 33.8987 277.018 34.048C277.189 34.1867 277.477 34.256 277.882 34.256H278.874V36H277.482ZM281.785 26.832C281.411 26.832 281.102 26.72 280.857 26.496C280.622 26.272 280.505 25.9893 280.505 25.648C280.505 25.3067 280.622 25.0293 280.857 24.816C281.102 24.592 281.411 24.48 281.785 24.48C282.158 24.48 282.462 24.592 282.697 24.816C282.942 25.0293 283.065 25.3067 283.065 25.648C283.065 25.9893 282.942 26.272 282.697 26.496C282.462 26.72 282.158 26.832 281.785 26.832ZM280.761 36V28.064H282.809V36H280.761ZM288.754 36.192C287.986 36.192 287.293 36.016 286.674 35.664C286.066 35.312 285.581 34.8267 285.218 34.208C284.866 33.5787 284.69 32.8533 284.69 32.032C284.69 31.2107 284.872 30.4907 285.234 29.872C285.597 29.2427 286.082 28.752 286.69 28.4C287.309 28.048 288.002 27.872 288.77 27.872C289.528 27.872 290.21 28.048 290.818 28.4C291.437 28.752 291.922 29.2427 292.274 29.872C292.637 30.4907 292.818 31.2107 292.818 32.032C292.818 32.8533 292.637 33.5787 292.274 34.208C291.922 34.8267 291.437 35.312 290.818 35.664C290.2 36.016 289.512 36.192 288.754 36.192ZM288.754 34.416C289.288 34.416 289.752 34.2187 290.146 33.824C290.541 33.4187 290.738 32.8213 290.738 32.032C290.738 31.2427 290.541 30.6507 290.146 30.256C289.752 29.8507 289.293 29.648 288.77 29.648C288.226 29.648 287.757 29.8507 287.362 30.256C286.978 30.6507 286.786 31.2427 286.786 32.032C286.786 32.8213 286.978 33.4187 287.362 33.824C287.757 34.2187 288.221 34.416 288.754 34.416ZM294.649 36V28.064H296.473L296.665 29.552C296.953 29.04 297.343 28.6347 297.833 28.336C298.335 28.0267 298.921 27.872 299.593 27.872V30.032H299.017C298.569 30.032 298.169 30.1013 297.817 30.24C297.465 30.3787 297.188 30.6187 296.985 30.96C296.793 31.3013 296.697 31.776 296.697 32.384V36H294.649ZM304.806 36V28.064H306.614L306.774 29.408C307.019 28.9387 307.371 28.5653 307.83 28.288C308.299 28.0107 308.848 27.872 309.478 27.872C310.459 27.872 311.222 28.1813 311.766 28.8C312.31 29.4187 312.582 30.3253 312.582 31.52V36H310.534V31.712C310.534 31.0293 310.395 30.5067 310.118 30.144C309.84 29.7813 309.408 29.6 308.822 29.6C308.246 29.6 307.771 29.8027 307.398 30.208C307.035 30.6133 306.854 31.1787 306.854 31.904V36H304.806ZM317.276 36.192C316.593 36.192 316.033 36.0853 315.596 35.872C315.159 35.648 314.833 35.3547 314.62 34.992C314.407 34.6293 314.3 34.2293 314.3 33.792C314.3 33.056 314.588 32.4587 315.164 32C315.74 31.5413 316.604 31.312 317.756 31.312H319.772V31.12C319.772 30.576 319.617 30.176 319.308 29.92C318.999 29.664 318.615 29.536 318.156 29.536C317.74 29.536 317.377 29.6373 317.068 29.84C316.759 30.032 316.567 30.32 316.492 30.704H314.492C314.545 30.128 314.737 29.6267 315.068 29.2C315.409 28.7733 315.847 28.448 316.38 28.224C316.913 27.9893 317.511 27.872 318.172 27.872C319.303 27.872 320.193 28.1547 320.844 28.72C321.495 29.2853 321.82 30.0853 321.82 31.12V36H320.076L319.884 34.72C319.649 35.1467 319.319 35.4987 318.892 35.776C318.476 36.0533 317.937 36.192 317.276 36.192ZM317.74 34.592C318.327 34.592 318.78 34.4 319.1 34.016C319.431 33.632 319.639 33.1573 319.724 32.592H317.98C317.436 32.592 317.047 32.6933 316.812 32.896C316.577 33.088 316.46 33.328 316.46 33.616C316.46 33.9253 316.577 34.1653 316.812 34.336C317.047 34.5067 317.356 34.592 317.74 34.592ZM323.774 36V28.064H325.582L325.758 29.136C326.014 28.752 326.35 28.448 326.766 28.224C327.193 27.9893 327.684 27.872 328.238 27.872C329.465 27.872 330.334 28.3467 330.846 29.296C331.134 28.8587 331.518 28.512 331.998 28.256C332.489 28 333.022 27.872 333.598 27.872C334.633 27.872 335.428 28.1813 335.982 28.8C336.537 29.4187 336.814 30.3253 336.814 31.52V36H334.766V31.712C334.766 31.0293 334.633 30.5067 334.366 30.144C334.11 29.7813 333.71 29.6 333.166 29.6C332.612 29.6 332.164 29.8027 331.822 30.208C331.492 30.6133 331.326 31.1787 331.326 31.904V36H329.278V31.712C329.278 31.0293 329.145 30.5067 328.878 30.144C328.612 29.7813 328.201 29.6 327.646 29.6C327.102 29.6 326.66 29.8027 326.318 30.208C325.988 30.6133 325.822 31.1787 325.822 31.904V36H323.774ZM337.943 37.856L338.855 33.872H340.839L339.287 37.856H337.943ZM4.32 60.192C3.616 60.192 2.99733 60.08 2.464 59.856C1.93067 59.6213 1.504 59.3013 1.184 58.896C0.864 58.4907 0.672 58.0213 0.608 57.488H2.672C2.736 57.7973 2.90667 58.064 3.184 58.288C3.472 58.5013 3.84 58.608 4.288 58.608C4.736 58.608 5.06133 58.5173 5.264 58.336C5.47733 58.1547 5.584 57.9467 5.584 57.712C5.584 57.3707 5.43467 57.1413 5.136 57.024C4.83733 56.896 4.42133 56.7733 3.888 56.656C3.54667 56.5813 3.2 56.4907 2.848 56.384C2.496 56.2773 2.17067 56.144 1.872 55.984C1.584 55.8133 1.34933 55.6 1.168 55.344C0.986667 55.0773 0.896 54.752 0.896 54.368C0.896 53.664 1.17333 53.072 1.728 52.592C2.29333 52.112 3.08267 51.872 4.096 51.872C5.03467 51.872 5.78133 52.0907 6.336 52.528C6.90133 52.9653 7.23733 53.568 7.344 54.336H5.408C5.29067 53.7493 4.848 53.456 4.08 53.456C3.696 53.456 3.39733 53.5307 3.184 53.68C2.98133 53.8293 2.88 54.016 2.88 54.24C2.88 54.4747 3.03467 54.6613 3.344 54.8C3.65333 54.9387 4.064 55.0667 4.576 55.184C5.13067 55.312 5.63733 55.456 6.096 55.616C6.56533 55.7653 6.93867 55.9947 7.216 56.304C7.49333 56.6027 7.632 57.0347 7.632 57.6C7.64267 58.0907 7.51467 58.5333 7.248 58.928C6.98133 59.3227 6.59733 59.632 6.096 59.856C5.59467 60.08 5.00267 60.192 4.32 60.192ZM13.3023 60.192C12.5023 60.192 11.7929 60.0213 11.1743 59.68C10.5556 59.3387 10.0703 58.8587 9.71825 58.24C9.36625 57.6213 9.19025 56.9067 9.19025 56.096C9.19025 55.2747 9.36092 54.544 9.70225 53.904C10.0543 53.264 10.5343 52.768 11.1423 52.416C11.7609 52.0533 12.4863 51.872 13.3183 51.872C14.0969 51.872 14.7849 52.0427 15.3823 52.384C15.9796 52.7253 16.4436 53.1947 16.7743 53.792C17.1156 54.3787 17.2863 55.0347 17.2863 55.76C17.2863 55.8773 17.2809 56 17.2703 56.128C17.2703 56.256 17.2649 56.3893 17.2543 56.528H11.2223C11.2649 57.1467 11.4783 57.632 11.8623 57.984C12.2569 58.336 12.7316 58.512 13.2863 58.512C13.7023 58.512 14.0489 58.4213 14.3263 58.24C14.6143 58.048 14.8276 57.8027 14.9663 57.504H17.0463C16.8969 58.0053 16.6463 58.464 16.2943 58.88C15.9529 59.2853 15.5263 59.6053 15.0143 59.84C14.5129 60.0747 13.9423 60.192 13.3023 60.192ZM13.3183 53.536C12.8169 53.536 12.3743 53.68 11.9903 53.968C11.6063 54.2453 11.3609 54.672 11.2543 55.248H15.2063C15.1743 54.7253 14.9823 54.3093 14.6303 54C14.2783 53.6907 13.8409 53.536 13.3183 53.536ZM22.6568 60.192C21.9101 60.192 21.2434 60.0107 20.6568 59.648C20.0701 59.2853 19.6061 58.7893 19.2648 58.16C18.9234 57.5307 18.7528 56.816 18.7528 56.016C18.7528 55.216 18.9234 54.5067 19.2648 53.888C19.6061 53.2587 20.0701 52.768 20.6568 52.416C21.2434 52.0533 21.9101 51.872 22.6568 51.872C23.2541 51.872 23.7768 51.984 24.2248 52.208C24.6728 52.432 25.0354 52.7467 25.3128 53.152V48.48H27.3608V60H25.5368L25.3128 58.864C25.0568 59.216 24.7154 59.5253 24.2888 59.792C23.8728 60.0587 23.3288 60.192 22.6568 60.192ZM23.0888 58.4C23.7501 58.4 24.2888 58.1813 24.7048 57.744C25.1314 57.296 25.3448 56.7253 25.3448 56.032C25.3448 55.3387 25.1314 54.7733 24.7048 54.336C24.2888 53.888 23.7501 53.664 23.0888 53.664C22.4381 53.664 21.8994 53.8827 21.4728 54.32C21.0461 54.7573 20.8328 55.3227 20.8328 56.016C20.8328 56.7093 21.0461 57.28 21.4728 57.728C21.8994 58.176 22.4381 58.4 23.0888 58.4ZM39.5628 63.52V58.864C39.3068 59.216 38.9654 59.5253 38.5388 59.792C38.1228 60.0587 37.5788 60.192 36.9068 60.192C36.1601 60.192 35.4934 60.0107 34.9068 59.648C34.3201 59.2853 33.8561 58.7893 33.5148 58.16C33.1734 57.5307 33.0028 56.816 33.0028 56.016C33.0028 55.216 33.1734 54.5067 33.5148 53.888C33.8561 53.2587 34.3201 52.768 34.9068 52.416C35.4934 52.0533 36.1601 51.872 36.9068 51.872C37.5041 51.872 38.0268 51.984 38.4748 52.208C38.9228 52.432 39.2854 52.7467 39.5628 53.152L39.7868 52.064H41.6108V63.52H39.5628ZM37.3388 58.4C38.0001 58.4 38.5388 58.1813 38.9548 57.744C39.3814 57.296 39.5948 56.7253 39.5948 56.032C39.5948 55.3387 39.3814 54.7733 38.9548 54.336C38.5388 53.888 38.0001 53.664 37.3388 53.664C36.6881 53.664 36.1494 53.8827 35.7228 54.32C35.2961 54.7573 35.0828 55.3227 35.0828 56.016C35.0828 56.7093 35.2961 57.28 35.7228 57.728C36.1494 58.176 36.6881 58.4 37.3388 58.4ZM51.3443 52.064V60H49.5363L49.3763 58.656C49.1309 59.1253 48.7736 59.4987 48.3043 59.776C47.8456 60.0533 47.3016 60.192 46.6723 60.192C45.6909 60.192 44.9283 59.8827 44.3843 59.264C43.8403 58.6453 43.5683 57.7387 43.5683 56.544V52.064H45.6163V56.352C45.6163 57.0347 45.7549 57.5573 46.0323 57.92C46.3096 58.2827 46.7416 58.464 47.3283 58.464C47.9043 58.464 48.3736 58.2613 48.7363 57.856C49.1096 57.4507 49.2963 56.8853 49.2963 56.16V52.064H51.3443ZM56.1666 60.192C55.484 60.192 54.924 60.0853 54.4866 59.872C54.0493 59.648 53.724 59.3547 53.5106 58.992C53.2973 58.6293 53.1906 58.2293 53.1906 57.792C53.1906 57.056 53.4786 56.4587 54.0546 56C54.6306 55.5413 55.4946 55.312 56.6466 55.312H58.6626V55.12C58.6626 54.576 58.508 54.176 58.1986 53.92C57.8893 53.664 57.5053 53.536 57.0466 53.536C56.6306 53.536 56.268 53.6373 55.9586 53.84C55.6493 54.032 55.4573 54.32 55.3826 54.704H53.3826C53.436 54.128 53.628 53.6267 53.9586 53.2C54.3 52.7733 54.7373 52.448 55.2706 52.224C55.804 51.9893 56.4013 51.872 57.0626 51.872C58.1933 51.872 59.084 52.1547 59.7346 52.72C60.3853 53.2853 60.7106 54.0853 60.7106 55.12V60H58.9666L58.7746 58.72C58.54 59.1467 58.2093 59.4987 57.7826 59.776C57.3666 60.0533 56.828 60.192 56.1666 60.192ZM56.6306 58.592C57.2173 58.592 57.6706 58.4 57.9906 58.016C58.3213 57.632 58.5293 57.1573 58.6146 56.592H56.8706C56.3266 56.592 55.9373 56.6933 55.7026 56.896C55.468 57.088 55.3506 57.328 55.3506 57.616C55.3506 57.9253 55.468 58.1653 55.7026 58.336C55.9373 58.5067 56.2466 58.592 56.6306 58.592ZM62.665 60V48.48H64.713V60H62.665ZM67.9096 50.832C67.5363 50.832 67.227 50.72 66.9816 50.496C66.747 50.272 66.6296 49.9893 66.6296 49.648C66.6296 49.3067 66.747 49.0293 66.9816 48.816C67.227 48.592 67.5363 48.48 67.9096 48.48C68.283 48.48 68.587 48.592 68.8216 48.816C69.067 49.0293 69.1896 49.3067 69.1896 49.648C69.1896 49.9893 69.067 50.272 68.8216 50.496C68.587 50.72 68.283 50.832 67.9096 50.832ZM66.8856 60V52.064H68.9336V60H66.8856ZM74.3513 60.192C73.6473 60.192 73.0286 60.08 72.4953 59.856C71.9619 59.6213 71.5353 59.3013 71.2153 58.896C70.8953 58.4907 70.7033 58.0213 70.6393 57.488H72.7033C72.7673 57.7973 72.9379 58.064 73.2153 58.288C73.5033 58.5013 73.8713 58.608 74.3193 58.608C74.7673 58.608 75.0926 58.5173 75.2953 58.336C75.5086 58.1547 75.6153 57.9467 75.6153 57.712C75.6153 57.3707 75.4659 57.1413 75.1673 57.024C74.8686 56.896 74.4526 56.7733 73.9193 56.656C73.5779 56.5813 73.2313 56.4907 72.8793 56.384C72.5273 56.2773 72.2019 56.144 71.9033 55.984C71.6153 55.8133 71.3806 55.6 71.1993 55.344C71.0179 55.0773 70.9273 54.752 70.9273 54.368C70.9273 53.664 71.2046 53.072 71.7593 52.592C72.3246 52.112 73.1139 51.872 74.1273 51.872C75.0659 51.872 75.8126 52.0907 76.3673 52.528C76.9326 52.9653 77.2686 53.568 77.3753 54.336H75.4393C75.3219 53.7493 74.8793 53.456 74.1113 53.456C73.7273 53.456 73.4286 53.5307 73.2153 53.68C73.0126 53.8293 72.9113 54.016 72.9113 54.24C72.9113 54.4747 73.0659 54.6613 73.3753 54.8C73.6846 54.9387 74.0953 55.0667 74.6073 55.184C75.1619 55.312 75.6686 55.456 76.1273 55.616C76.5966 55.7653 76.9699 55.9947 77.2473 56.304C77.5246 56.6027 77.6633 57.0347 77.6633 57.6C77.6739 58.0907 77.5459 58.5333 77.2793 58.928C77.0126 59.3227 76.6286 59.632 76.1273 59.856C75.6259 60.08 75.0339 60.192 74.3513 60.192ZM85.7815 63.52V58.864C85.5255 59.216 85.1842 59.5253 84.7575 59.792C84.3415 60.0587 83.7975 60.192 83.1255 60.192C82.3788 60.192 81.7122 60.0107 81.1255 59.648C80.5388 59.2853 80.0748 58.7893 79.7335 58.16C79.3922 57.5307 79.2215 56.816 79.2215 56.016C79.2215 55.216 79.3922 54.5067 79.7335 53.888C80.0748 53.2587 80.5388 52.768 81.1255 52.416C81.7122 52.0533 82.3788 51.872 83.1255 51.872C83.7228 51.872 84.2455 51.984 84.6935 52.208C85.1415 52.432 85.5042 52.7467 85.7815 53.152L86.0055 52.064H87.8295V63.52H85.7815ZM83.5575 58.4C84.2188 58.4 84.7575 58.1813 85.1735 57.744C85.6002 57.296 85.8135 56.7253 85.8135 56.032C85.8135 55.3387 85.6002 54.7733 85.1735 54.336C84.7575 53.888 84.2188 53.664 83.5575 53.664C82.9068 53.664 82.3682 53.8827 81.9415 54.32C81.5148 54.7573 81.3015 55.3227 81.3015 56.016C81.3015 56.7093 81.5148 57.28 81.9415 57.728C82.3682 58.176 82.9068 58.4 83.5575 58.4ZM97.563 52.064V60H95.755L95.595 58.656C95.3497 59.1253 94.9923 59.4987 94.523 59.776C94.0643 60.0533 93.5203 60.192 92.891 60.192C91.9097 60.192 91.147 59.8827 90.603 59.264C90.059 58.6453 89.787 57.7387 89.787 56.544V52.064H91.835V56.352C91.835 57.0347 91.9737 57.5573 92.251 57.92C92.5283 58.2827 92.9603 58.464 93.547 58.464C94.123 58.464 94.5923 58.2613 94.955 57.856C95.3283 57.4507 95.515 56.8853 95.515 56.16V52.064H97.563ZM103.505 60.192C102.705 60.192 101.996 60.0213 101.377 59.68C100.759 59.3387 100.273 58.8587 99.9214 58.24C99.5694 57.6213 99.3934 56.9067 99.3934 56.096C99.3934 55.2747 99.564 54.544 99.9054 53.904C100.257 53.264 100.737 52.768 101.345 52.416C101.964 52.0533 102.689 51.872 103.521 51.872C104.3 51.872 104.988 52.0427 105.585 52.384C106.183 52.7253 106.647 53.1947 106.977 53.792C107.319 54.3787 107.489 55.0347 107.489 55.76C107.489 55.8773 107.484 56 107.473 56.128C107.473 56.256 107.468 56.3893 107.457 56.528H101.425C101.468 57.1467 101.681 57.632 102.065 57.984C102.46 58.336 102.935 58.512 103.489 58.512C103.905 58.512 104.252 58.4213 104.529 58.24C104.817 58.048 105.031 57.8027 105.169 57.504H107.249C107.1 58.0053 106.849 58.464 106.497 58.88C106.156 59.2853 105.729 59.6053 105.217 59.84C104.716 60.0747 104.145 60.192 103.505 60.192ZM103.521 53.536C103.02 53.536 102.577 53.68 102.193 53.968C101.809 54.2453 101.564 54.672 101.457 55.248H105.409C105.377 54.7253 105.185 54.3093 104.833 54C104.481 53.6907 104.044 53.536 103.521 53.536ZM116.672 60.192C115.926 60.192 115.259 60.0107 114.672 59.648C114.086 59.2853 113.622 58.7893 113.28 58.16C112.939 57.5307 112.768 56.816 112.768 56.016C112.768 55.216 112.939 54.5067 113.28 53.888C113.622 53.2587 114.086 52.768 114.672 52.416C115.259 52.0533 115.926 51.872 116.672 51.872C117.27 51.872 117.792 51.984 118.24 52.208C118.688 52.432 119.051 52.7467 119.328 53.152V48.48H121.376V60H119.552L119.328 58.864C119.072 59.216 118.731 59.5253 118.304 59.792C117.888 60.0587 117.344 60.192 116.672 60.192ZM117.104 58.4C117.766 58.4 118.304 58.1813 118.72 57.744C119.147 57.296 119.36 56.7253 119.36 56.032C119.36 55.3387 119.147 54.7733 118.72 54.336C118.304 53.888 117.766 53.664 117.104 53.664C116.454 53.664 115.915 53.8827 115.488 54.32C115.062 54.7573 114.848 55.3227 114.848 56.016C114.848 56.7093 115.062 57.28 115.488 57.728C115.915 58.176 116.454 58.4 117.104 58.4ZM127.318 60.192C126.518 60.192 125.809 60.0213 125.19 59.68C124.571 59.3387 124.086 58.8587 123.734 58.24C123.382 57.6213 123.206 56.9067 123.206 56.096C123.206 55.2747 123.377 54.544 123.718 53.904C124.07 53.264 124.55 52.768 125.158 52.416C125.777 52.0533 126.502 51.872 127.334 51.872C128.113 51.872 128.801 52.0427 129.398 52.384C129.995 52.7253 130.459 53.1947 130.79 53.792C131.131 54.3787 131.302 55.0347 131.302 55.76C131.302 55.8773 131.297 56 131.286 56.128C131.286 56.256 131.281 56.3893 131.27 56.528H125.238C125.281 57.1467 125.494 57.632 125.878 57.984C126.273 58.336 126.747 58.512 127.302 58.512C127.718 58.512 128.065 58.4213 128.342 58.24C128.63 58.048 128.843 57.8027 128.982 57.504H131.062C130.913 58.0053 130.662 58.464 130.31 58.88C129.969 59.2853 129.542 59.6053 129.03 59.84C128.529 60.0747 127.958 60.192 127.318 60.192ZM127.334 53.536C126.833 53.536 126.39 53.68 126.006 53.968C125.622 54.2453 125.377 54.672 125.27 55.248H129.222C129.19 54.7253 128.998 54.3093 128.646 54C128.294 53.6907 127.857 53.536 127.334 53.536ZM136.42 60C135.588 60 134.921 59.7973 134.42 59.392C133.918 58.9867 133.668 58.2667 133.668 57.232V53.776H132.308V52.064H133.668L133.908 49.936H135.716V52.064H137.86V53.776H135.716V57.248C135.716 57.632 135.796 57.8987 135.956 58.048C136.126 58.1867 136.414 58.256 136.82 58.256H137.812V60H136.42ZM143.271 60.192C142.471 60.192 141.762 60.0213 141.143 59.68C140.524 59.3387 140.039 58.8587 139.687 58.24C139.335 57.6213 139.159 56.9067 139.159 56.096C139.159 55.2747 139.33 54.544 139.671 53.904C140.023 53.264 140.503 52.768 141.111 52.416C141.73 52.0533 142.455 51.872 143.287 51.872C144.066 51.872 144.754 52.0427 145.351 52.384C145.948 52.7253 146.412 53.1947 146.743 53.792C147.084 54.3787 147.255 55.0347 147.255 55.76C147.255 55.8773 147.25 56 147.239 56.128C147.239 56.256 147.234 56.3893 147.223 56.528H141.191C141.234 57.1467 141.447 57.632 141.831 57.984C142.226 58.336 142.7 58.512 143.255 58.512C143.671 58.512 144.018 58.4213 144.295 58.24C144.583 58.048 144.796 57.8027 144.935 57.504H147.015C146.866 58.0053 146.615 58.464 146.263 58.88C145.922 59.2853 145.495 59.6053 144.983 59.84C144.482 60.0747 143.911 60.192 143.271 60.192ZM143.287 53.536C142.786 53.536 142.343 53.68 141.959 53.968C141.575 54.2453 141.33 54.672 141.223 55.248H145.175C145.143 54.7253 144.951 54.3093 144.599 54C144.247 53.6907 143.81 53.536 143.287 53.536ZM148.978 60V52.064H150.802L150.994 53.552C151.282 53.04 151.671 52.6347 152.161 52.336C152.663 52.0267 153.25 51.872 153.922 51.872V54.032H153.346C152.898 54.032 152.498 54.1013 152.146 54.24C151.794 54.3787 151.516 54.6187 151.314 54.96C151.122 55.3013 151.026 55.776 151.026 56.384V60H148.978ZM155.321 60V52.064H157.145L157.337 53.552C157.625 53.04 158.015 52.6347 158.505 52.336C159.007 52.0267 159.593 51.872 160.265 51.872V54.032H159.689C159.241 54.032 158.841 54.1013 158.489 54.24C158.137 54.3787 157.86 54.6187 157.657 54.96C157.465 55.3013 157.369 55.776 157.369 56.384V60H155.321ZM169.313 52.064V60H167.505L167.345 58.656C167.1 59.1253 166.742 59.4987 166.273 59.776C165.814 60.0533 165.27 60.192 164.641 60.192C163.66 60.192 162.897 59.8827 162.353 59.264C161.809 58.6453 161.537 57.7387 161.537 56.544V52.064H163.585V56.352C163.585 57.0347 163.724 57.5573 164.001 57.92C164.278 58.2827 164.71 58.464 165.297 58.464C165.873 58.464 166.342 58.2613 166.705 57.856C167.078 57.4507 167.265 56.8853 167.265 56.16V52.064H169.313ZM172.503 50.832C172.13 50.832 171.821 50.72 171.575 50.496C171.341 50.272 171.223 49.9893 171.223 49.648C171.223 49.3067 171.341 49.0293 171.575 48.816C171.821 48.592 172.13 48.48 172.503 48.48C172.877 48.48 173.181 48.592 173.415 48.816C173.661 49.0293 173.783 49.3067 173.783 49.648C173.783 49.9893 173.661 50.272 173.415 50.496C173.181 50.72 172.877 50.832 172.503 50.832ZM171.479 60V52.064H173.527V60H171.479ZM178.945 60.192C178.241 60.192 177.622 60.08 177.089 59.856C176.556 59.6213 176.129 59.3013 175.809 58.896C175.489 58.4907 175.297 58.0213 175.233 57.488H177.297C177.361 57.7973 177.532 58.064 177.809 58.288C178.097 58.5013 178.465 58.608 178.913 58.608C179.361 58.608 179.686 58.5173 179.889 58.336C180.102 58.1547 180.209 57.9467 180.209 57.712C180.209 57.3707 180.06 57.1413 179.761 57.024C179.462 56.896 179.046 56.7733 178.513 56.656C178.172 56.5813 177.825 56.4907 177.473 56.384C177.121 56.2773 176.796 56.144 176.497 55.984C176.209 55.8133 175.974 55.6 175.793 55.344C175.612 55.0773 175.521 54.752 175.521 54.368C175.521 53.664 175.798 53.072 176.353 52.592C176.918 52.112 177.708 51.872 178.721 51.872C179.66 51.872 180.406 52.0907 180.961 52.528C181.526 52.9653 181.862 53.568 181.969 54.336H180.033C179.916 53.7493 179.473 53.456 178.705 53.456C178.321 53.456 178.022 53.5307 177.809 53.68C177.606 53.8293 177.505 54.016 177.505 54.24C177.505 54.4747 177.66 54.6613 177.969 54.8C178.278 54.9387 178.689 55.0667 179.201 55.184C179.756 55.312 180.262 55.456 180.721 55.616C181.19 55.7653 181.564 55.9947 181.841 56.304C182.118 56.6027 182.257 57.0347 182.257 57.6C182.268 58.0907 182.14 58.5333 181.873 58.928C181.606 59.3227 181.222 59.632 180.721 59.856C180.22 60.08 179.628 60.192 178.945 60.192ZM187.351 60.192C186.647 60.192 186.029 60.08 185.495 59.856C184.962 59.6213 184.535 59.3013 184.215 58.896C183.895 58.4907 183.703 58.0213 183.639 57.488H185.703C185.767 57.7973 185.938 58.064 186.215 58.288C186.503 58.5013 186.871 58.608 187.319 58.608C187.767 58.608 188.093 58.5173 188.295 58.336C188.509 58.1547 188.615 57.9467 188.615 57.712C188.615 57.3707 188.466 57.1413 188.167 57.024C187.869 56.896 187.453 56.7733 186.919 56.656C186.578 56.5813 186.231 56.4907 185.879 56.384C185.527 56.2773 185.202 56.144 184.903 55.984C184.615 55.8133 184.381 55.6 184.199 55.344C184.018 55.0773 183.927 54.752 183.927 54.368C183.927 53.664 184.205 53.072 184.759 52.592C185.325 52.112 186.114 51.872 187.127 51.872C188.066 51.872 188.813 52.0907 189.367 52.528C189.933 52.9653 190.269 53.568 190.375 54.336H188.439C188.322 53.7493 187.879 53.456 187.111 53.456C186.727 53.456 186.429 53.5307 186.215 53.68C186.013 53.8293 185.911 54.016 185.911 54.24C185.911 54.4747 186.066 54.6613 186.375 54.8C186.685 54.9387 187.095 55.0667 187.607 55.184C188.162 55.312 188.669 55.456 189.127 55.616C189.597 55.7653 189.97 55.9947 190.247 56.304C190.525 56.6027 190.663 57.0347 190.663 57.6C190.674 58.0907 190.546 58.5333 190.279 58.928C190.013 59.3227 189.629 59.632 189.127 59.856C188.626 60.08 188.034 60.192 187.351 60.192ZM196.334 60.192C195.534 60.192 194.824 60.0213 194.206 59.68C193.587 59.3387 193.102 58.8587 192.75 58.24C192.398 57.6213 192.222 56.9067 192.222 56.096C192.222 55.2747 192.392 54.544 192.734 53.904C193.086 53.264 193.566 52.768 194.174 52.416C194.792 52.0533 195.518 51.872 196.35 51.872C197.128 51.872 197.816 52.0427 198.414 52.384C199.011 52.7253 199.475 53.1947 199.806 53.792C200.147 54.3787 200.318 55.0347 200.318 55.76C200.318 55.8773 200.312 56 200.302 56.128C200.302 56.256 200.296 56.3893 200.286 56.528H194.254C194.296 57.1467 194.51 57.632 194.894 57.984C195.288 58.336 195.763 58.512 196.318 58.512C196.734 58.512 197.08 58.4213 197.358 58.24C197.646 58.048 197.859 57.8027 197.998 57.504H200.078C199.928 58.0053 199.678 58.464 199.326 58.88C198.984 59.2853 198.558 59.6053 198.046 59.84C197.544 60.0747 196.974 60.192 196.334 60.192ZM196.35 53.536C195.848 53.536 195.406 53.68 195.022 53.968C194.638 54.2453 194.392 54.672 194.286 55.248H198.238C198.206 54.7253 198.014 54.3093 197.662 54C197.31 53.6907 196.872 53.536 196.35 53.536ZM205.435 60C204.603 60 203.937 59.7973 203.435 59.392C202.934 58.9867 202.683 58.2667 202.683 57.232V53.776H201.323V52.064H202.683L202.923 49.936H204.731V52.064H206.875V53.776H204.731V57.248C204.731 57.632 204.811 57.8987 204.971 58.048C205.142 58.1867 205.43 58.256 205.835 58.256H206.827V60H205.435ZM216.302 60.192C215.502 60.192 214.793 60.0213 214.174 59.68C213.556 59.3387 213.07 58.8587 212.718 58.24C212.366 57.6213 212.19 56.9067 212.19 56.096C212.19 55.2747 212.361 54.544 212.702 53.904C213.054 53.264 213.534 52.768 214.142 52.416C214.761 52.0533 215.486 51.872 216.318 51.872C217.097 51.872 217.785 52.0427 218.382 52.384C218.98 52.7253 219.444 53.1947 219.774 53.792C220.116 54.3787 220.286 55.0347 220.286 55.76C220.286 55.8773 220.281 56 220.27 56.128C220.27 56.256 220.265 56.3893 220.254 56.528H214.222C214.265 57.1467 214.478 57.632 214.862 57.984C215.257 58.336 215.732 58.512 216.286 58.512C216.702 58.512 217.049 58.4213 217.326 58.24C217.614 58.048 217.828 57.8027 217.966 57.504H220.046C219.897 58.0053 219.646 58.464 219.294 58.88C218.953 59.2853 218.526 59.6053 218.014 59.84C217.513 60.0747 216.942 60.192 216.302 60.192ZM216.318 53.536C215.817 53.536 215.374 53.68 214.99 53.968C214.606 54.2453 214.361 54.672 214.254 55.248H218.206C218.174 54.7253 217.982 54.3093 217.63 54C217.278 53.6907 216.841 53.536 216.318 53.536ZM224.745 60.192C224.062 60.192 223.502 60.0853 223.065 59.872C222.627 59.648 222.302 59.3547 222.089 58.992C221.875 58.6293 221.769 58.2293 221.769 57.792C221.769 57.056 222.057 56.4587 222.633 56C223.209 55.5413 224.073 55.312 225.225 55.312H227.241V55.12C227.241 54.576 227.086 54.176 226.777 53.92C226.467 53.664 226.083 53.536 225.625 53.536C225.209 53.536 224.846 53.6373 224.537 53.84C224.227 54.032 224.035 54.32 223.961 54.704H221.961C222.014 54.128 222.206 53.6267 222.537 53.2C222.878 52.7733 223.315 52.448 223.849 52.224C224.382 51.9893 224.979 51.872 225.641 51.872C226.771 51.872 227.662 52.1547 228.313 52.72C228.963 53.2853 229.289 54.0853 229.289 55.12V60H227.545L227.353 58.72C227.118 59.1467 226.787 59.4987 226.361 59.776C225.945 60.0533 225.406 60.192 224.745 60.192ZM225.209 58.592C225.795 58.592 226.249 58.4 226.569 58.016C226.899 57.632 227.107 57.1573 227.193 56.592H225.449C224.905 56.592 224.515 56.6933 224.281 56.896C224.046 57.088 223.929 57.328 223.929 57.616C223.929 57.9253 224.046 58.1653 224.281 58.336C224.515 58.5067 224.825 58.592 225.209 58.592ZM232.123 60.112C231.75 60.112 231.44 59.9947 231.195 59.76C230.96 59.5253 230.843 59.2427 230.843 58.912C230.843 58.5707 230.96 58.2827 231.195 58.048C231.44 57.8133 231.75 57.696 232.123 57.696C232.496 57.696 232.8 57.8133 233.035 58.048C233.28 58.2827 233.403 58.5707 233.403 58.912C233.403 59.2427 233.28 59.5253 233.035 59.76C232.8 59.9947 232.496 60.112 232.123 60.112Z" fill="white"/>
</svg>
