<svg width="225" height="40" viewBox="0 0 225 40" fill="none" xmlns="http://www.w3.org/2000/svg">
<path d="M0.48 12L4.608 0.799999H6.032L10.144 12H8.72L7.696 9.12H2.928L1.888 12H0.48ZM3.328 8.032H7.296L5.312 2.496L3.328 8.032ZM11.729 12V0.48H13.073V12H11.729ZM18.4119 12C17.6865 12 17.1159 11.824 16.6999 11.472C16.2839 11.12 16.0759 10.4853 16.0759 9.568V5.2H14.6999V4.064H16.0759L16.2519 2.16H17.4199V4.064H19.7559V5.2H17.4199V9.568C17.4199 10.0693 17.5212 10.4107 17.7239 10.592C17.9265 10.7627 18.2839 10.848 18.7959 10.848H19.6279V12H18.4119ZM24.8126 12.192C24.0553 12.192 23.3833 12.0213 22.7966 11.68C22.21 11.328 21.746 10.8427 21.4046 10.224C21.074 9.60533 20.9086 8.87467 20.9086 8.032C20.9086 7.2 21.074 6.47467 21.4046 5.856C21.7353 5.22667 22.194 4.74133 22.7806 4.4C23.378 4.048 24.066 3.872 24.8446 3.872C25.6126 3.872 26.274 4.048 26.8286 4.4C27.394 4.74133 27.826 5.19467 28.1246 5.76C28.4233 6.32533 28.5726 6.93333 28.5726 7.584C28.5726 7.70133 28.5673 7.81867 28.5566 7.936C28.5566 8.05333 28.5566 8.18667 28.5566 8.336H22.2366C22.2686 8.944 22.4073 9.45067 22.6526 9.856C22.9086 10.2507 23.2233 10.5493 23.5966 10.752C23.9806 10.9547 24.386 11.056 24.8126 11.056C25.3673 11.056 25.8313 10.928 26.2046 10.672C26.578 10.416 26.85 10.0693 27.0206 9.632H28.3486C28.1353 10.368 27.7246 10.9813 27.1166 11.472C26.5193 11.952 25.7513 12.192 24.8126 12.192ZM24.8126 5.008C24.1726 5.008 23.602 5.20533 23.1006 5.6C22.61 5.984 22.3273 6.54933 22.2526 7.296H27.2446C27.2126 6.58133 26.9673 6.02133 26.5086 5.616C26.05 5.21067 25.4846 5.008 24.8126 5.008ZM30.354 12V4.064H31.57L31.682 5.584C31.9273 5.06133 32.3007 4.64533 32.802 4.336C33.3033 4.02667 33.922 3.872 34.658 3.872V5.28H34.29C33.8207 5.28 33.3887 5.36533 32.994 5.536C32.5993 5.696 32.2847 5.97333 32.05 6.368C31.8153 6.76267 31.698 7.30667 31.698 8V12H30.354ZM38.8065 12.192C38.1452 12.192 37.5958 12.08 37.1585 11.856C36.7212 11.632 36.3958 11.3333 36.1825 10.96C35.9692 10.5867 35.8625 10.1813 35.8625 9.744C35.8625 8.93333 36.1718 8.30933 36.7905 7.872C37.4092 7.43467 38.2518 7.216 39.3185 7.216H41.4625V7.12C41.4625 6.42667 41.2812 5.904 40.9185 5.552C40.5558 5.18933 40.0705 5.008 39.4625 5.008C38.9398 5.008 38.4865 5.14133 38.1025 5.408C37.7292 5.664 37.4945 6.04267 37.3985 6.544H36.0225C36.0758 5.968 36.2678 5.48267 36.5985 5.088C36.9398 4.69333 37.3612 4.39467 37.8625 4.192C38.3638 3.97867 38.8972 3.872 39.4625 3.872C40.5718 3.872 41.4038 4.17067 41.9585 4.768C42.5238 5.35467 42.8065 6.13867 42.8065 7.12V12H41.6065L41.5265 10.576C41.3025 11.024 40.9718 11.408 40.5345 11.728C40.1078 12.0373 39.5318 12.192 38.8065 12.192ZM39.0145 11.056C39.5265 11.056 39.9638 10.9227 40.3265 10.656C40.6998 10.3893 40.9825 10.0427 41.1745 9.616C41.3665 9.18933 41.4625 8.74133 41.4625 8.272V8.256H39.4305C38.6412 8.256 38.0812 8.39467 37.7505 8.672C37.4305 8.93867 37.2705 9.27467 37.2705 9.68C37.2705 10.096 37.4198 10.432 37.7185 10.688C38.0278 10.9333 38.4598 11.056 39.0145 11.056ZM49.8731 2.304C49.6065 2.304 49.3825 2.21867 49.2011 2.048C49.0305 1.86667 48.9451 1.64267 48.9451 1.376C48.9451 1.12 49.0305 0.906666 49.2011 0.735999C49.3825 0.565333 49.6065 0.48 49.8731 0.48C50.1291 0.48 50.3478 0.565333 50.5291 0.735999C50.7105 0.906666 50.8011 1.12 50.8011 1.376C50.8011 1.64267 50.7105 1.86667 50.5291 2.048C50.3478 2.21867 50.1291 2.304 49.8731 2.304ZM49.2011 12V4.064H50.5451V12H49.2011ZM52.8853 12V4.064H54.1013L54.1813 5.488C54.4373 4.98667 54.8053 4.592 55.2853 4.304C55.7653 4.016 56.3093 3.872 56.9173 3.872C57.8559 3.872 58.6026 4.16 59.1573 4.736C59.7226 5.30133 60.0052 6.176 60.0052 7.36V12H58.6613V7.504C58.6613 5.85067 57.9786 5.024 56.6133 5.024C55.9306 5.024 55.3599 5.27467 54.9013 5.776C54.4533 6.26667 54.2293 6.97067 54.2293 7.888V12H52.8853ZM65.1775 12C64.4522 12 63.8815 11.824 63.4655 11.472C63.0495 11.12 62.8415 10.4853 62.8415 9.568V5.2H61.4655V4.064H62.8415L63.0175 2.16H64.1855V4.064H66.5215V5.2H64.1855V9.568C64.1855 10.0693 64.2868 10.4107 64.4895 10.592C64.6922 10.7627 65.0495 10.848 65.5615 10.848H66.3935V12H65.1775ZM71.5783 12.192C70.8209 12.192 70.1489 12.0213 69.5623 11.68C68.9756 11.328 68.5116 10.8427 68.1703 10.224C67.8396 9.60533 67.6743 8.87467 67.6743 8.032C67.6743 7.2 67.8396 6.47467 68.1703 5.856C68.5009 5.22667 68.9596 4.74133 69.5463 4.4C70.1436 4.048 70.8316 3.872 71.6102 3.872C72.3783 3.872 73.0396 4.048 73.5943 4.4C74.1596 4.74133 74.5916 5.19467 74.8903 5.76C75.1889 6.32533 75.3383 6.93333 75.3383 7.584C75.3383 7.70133 75.3329 7.81867 75.3223 7.936C75.3223 8.05333 75.3223 8.18667 75.3223 8.336H69.0023C69.0343 8.944 69.1729 9.45067 69.4183 9.856C69.6743 10.2507 69.9889 10.5493 70.3623 10.752C70.7463 10.9547 71.1516 11.056 71.5783 11.056C72.1329 11.056 72.5969 10.928 72.9703 10.672C73.3436 10.416 73.6156 10.0693 73.7863 9.632H75.1143C74.9009 10.368 74.4903 10.9813 73.8823 11.472C73.2849 11.952 72.5169 12.192 71.5783 12.192ZM71.5783 5.008C70.9383 5.008 70.3676 5.20533 69.8663 5.6C69.3756 5.984 69.0929 6.54933 69.0182 7.296H74.0103C73.9783 6.58133 73.7329 6.02133 73.2743 5.616C72.8156 5.21067 72.2503 5.008 71.5783 5.008ZM80.2088 9.504C79.7608 9.504 79.3501 9.44533 78.9768 9.328L78.1768 10.08C78.2941 10.1653 78.4381 10.24 78.6088 10.304C78.7901 10.3573 79.0461 10.4107 79.3768 10.464C79.7074 10.5067 80.1714 10.5547 80.7688 10.608C81.8354 10.6827 82.5981 10.928 83.0568 11.344C83.5154 11.76 83.7448 12.304 83.7448 12.976C83.7448 13.4347 83.6168 13.872 83.3608 14.288C83.1154 14.704 82.7314 15.0453 82.2088 15.312C81.6968 15.5787 81.0354 15.712 80.2248 15.712C79.5101 15.712 78.8754 15.616 78.3207 15.424C77.7661 15.2427 77.3341 14.96 77.0247 14.576C76.7154 14.2027 76.5608 13.728 76.5608 13.152C76.5608 12.8533 76.6408 12.528 76.8008 12.176C76.9608 11.8347 77.2594 11.5093 77.6968 11.2C77.4621 11.104 77.2594 11.0027 77.0888 10.896C76.9288 10.7787 76.7794 10.6507 76.6408 10.512V10.144L78.0008 8.8C77.3714 8.26667 77.0568 7.56267 77.0568 6.688C77.0568 6.16533 77.1794 5.69067 77.4248 5.264C77.6701 4.83733 78.0274 4.50133 78.4968 4.256C78.9661 4 79.5368 3.872 80.2088 3.872C80.6674 3.872 81.0834 3.936 81.4568 4.064H84.3848V5.072L82.8968 5.136C83.2061 5.584 83.3608 6.10133 83.3608 6.688C83.3608 7.21067 83.2328 7.68533 82.9768 8.112C82.7314 8.53867 82.3741 8.88 81.9048 9.136C81.4461 9.38133 80.8808 9.504 80.2088 9.504ZM80.2088 8.4C80.7741 8.4 81.2221 8.256 81.5528 7.968C81.8941 7.66933 82.0648 7.24267 82.0648 6.688C82.0648 6.144 81.8941 5.728 81.5528 5.44C81.2221 5.14133 80.7741 4.992 80.2088 4.992C79.6328 4.992 79.1741 5.14133 78.8328 5.44C78.5021 5.728 78.3368 6.144 78.3368 6.688C78.3368 7.24267 78.5021 7.66933 78.8328 7.968C79.1741 8.256 79.6328 8.4 80.2088 8.4ZM77.8728 13.024C77.8728 13.5573 78.0968 13.952 78.5448 14.208C78.9928 14.4747 79.5528 14.608 80.2248 14.608C80.8861 14.608 81.4141 14.464 81.8088 14.176C82.2141 13.888 82.4168 13.504 82.4168 13.024C82.4168 12.6827 82.2781 12.384 82.0008 12.128C81.7234 11.8827 81.2114 11.7387 80.4648 11.696C79.8781 11.6533 79.3714 11.6 78.9448 11.536C78.5074 11.7707 78.2194 12.0213 78.0807 12.288C77.9421 12.5653 77.8728 12.8107 77.8728 13.024ZM85.9009 12V4.064H87.1169L87.2289 5.584C87.4742 5.06133 87.8475 4.64533 88.3489 4.336C88.8502 4.02667 89.4689 3.872 90.2049 3.872V5.28H89.8369C89.3675 5.28 88.9355 5.36533 88.5409 5.536C88.1462 5.696 87.8315 5.97333 87.5969 6.368C87.3622 6.76267 87.2449 7.30667 87.2449 8V12H85.9009ZM94.9845 12.192C94.2272 12.192 93.5552 12.0213 92.9685 11.68C92.3818 11.328 91.9178 10.8427 91.5765 10.224C91.2458 9.60533 91.0805 8.87467 91.0805 8.032C91.0805 7.2 91.2458 6.47467 91.5765 5.856C91.9072 5.22667 92.3658 4.74133 92.9525 4.4C93.5498 4.048 94.2378 3.872 95.0165 3.872C95.7845 3.872 96.4458 4.048 97.0005 4.4C97.5658 4.74133 97.9978 5.19467 98.2965 5.76C98.5952 6.32533 98.7445 6.93333 98.7445 7.584C98.7445 7.70133 98.7392 7.81867 98.7285 7.936C98.7285 8.05333 98.7285 8.18667 98.7285 8.336H92.4085C92.4405 8.944 92.5792 9.45067 92.8245 9.856C93.0805 10.2507 93.3952 10.5493 93.7685 10.752C94.1525 10.9547 94.5578 11.056 94.9845 11.056C95.5392 11.056 96.0032 10.928 96.3765 10.672C96.7498 10.416 97.0218 10.0693 97.1925 9.632H98.5205C98.3072 10.368 97.8965 10.9813 97.2885 11.472C96.6912 11.952 95.9232 12.192 94.9845 12.192ZM94.9845 5.008C94.3445 5.008 93.7738 5.20533 93.2725 5.6C92.7818 5.984 92.4992 6.54933 92.4245 7.296H97.4165C97.3845 6.58133 97.1392 6.02133 96.6805 5.616C96.2218 5.21067 95.6565 5.008 94.9845 5.008ZM107.8 12.192C106.851 12.192 106.062 11.952 105.432 11.472C104.803 10.992 104.435 10.3413 104.328 9.52H105.704C105.79 9.936 106.008 10.2987 106.36 10.608C106.723 10.9067 107.208 11.056 107.816 11.056C108.382 11.056 108.798 10.9387 109.064 10.704C109.331 10.4587 109.464 10.1707 109.464 9.84C109.464 9.36 109.288 9.04 108.936 8.88C108.595 8.72 108.11 8.576 107.48 8.448C107.054 8.36267 106.627 8.24 106.2 8.08C105.774 7.92 105.416 7.696 105.128 7.408C104.84 7.10933 104.696 6.72 104.696 6.24C104.696 5.54667 104.952 4.98133 105.464 4.544C105.987 4.096 106.691 3.872 107.576 3.872C108.419 3.872 109.107 4.08533 109.64 4.512C110.184 4.928 110.499 5.52533 110.584 6.304H109.256C109.203 5.89867 109.027 5.584 108.728 5.36C108.44 5.12533 108.051 5.008 107.56 5.008C107.08 5.008 106.707 5.10933 106.44 5.312C106.184 5.51467 106.056 5.78133 106.056 6.112C106.056 6.432 106.222 6.68267 106.552 6.864C106.894 7.04533 107.352 7.2 107.928 7.328C108.419 7.43467 108.883 7.568 109.32 7.728C109.768 7.87733 110.131 8.10667 110.408 8.416C110.696 8.71467 110.84 9.152 110.84 9.728C110.851 10.4427 110.579 11.0347 110.024 11.504C109.48 11.9627 108.739 12.192 107.8 12.192ZM119.704 4.064V12H118.488L118.408 10.576C118.152 11.0773 117.784 11.472 117.304 11.76C116.824 12.048 116.28 12.192 115.672 12.192C114.734 12.192 113.982 11.9093 113.416 11.344C112.862 10.768 112.584 9.888 112.584 8.704V4.064H113.928V8.56C113.928 10.2133 114.611 11.04 115.976 11.04C116.659 11.04 117.224 10.7947 117.672 10.304C118.131 9.80267 118.36 9.09333 118.36 8.176V4.064H119.704ZM124.557 12.192C123.895 12.192 123.346 12.08 122.909 11.856C122.471 11.632 122.146 11.3333 121.933 10.96C121.719 10.5867 121.613 10.1813 121.613 9.744C121.613 8.93333 121.922 8.30933 122.541 7.872C123.159 7.43467 124.002 7.216 125.069 7.216H127.213V7.12C127.213 6.42667 127.031 5.904 126.669 5.552C126.306 5.18933 125.821 5.008 125.213 5.008C124.69 5.008 124.237 5.14133 123.853 5.408C123.479 5.664 123.245 6.04267 123.149 6.544H121.773C121.826 5.968 122.018 5.48267 122.349 5.088C122.69 4.69333 123.111 4.39467 123.613 4.192C124.114 3.97867 124.647 3.872 125.213 3.872C126.322 3.872 127.154 4.17067 127.709 4.768C128.274 5.35467 128.557 6.13867 128.557 7.12V12H127.357L127.277 10.576C127.053 11.024 126.722 11.408 126.285 11.728C125.858 12.0373 125.282 12.192 124.557 12.192ZM124.765 11.056C125.277 11.056 125.714 10.9227 126.077 10.656C126.45 10.3893 126.733 10.0427 126.925 9.616C127.117 9.18933 127.213 8.74133 127.213 8.272V8.256H125.181C124.391 8.256 123.831 8.39467 123.501 8.672C123.181 8.93867 123.021 9.27467 123.021 9.68C123.021 10.096 123.17 10.432 123.469 10.688C123.778 10.9333 124.21 11.056 124.765 11.056ZM132.564 12L129.556 4.064H130.964L133.348 10.704L135.748 4.064H137.124L134.116 12H132.564ZM139.436 2.304C139.169 2.304 138.945 2.21867 138.764 2.048C138.593 1.86667 138.508 1.64267 138.508 1.376C138.508 1.12 138.593 0.906666 138.764 0.735999C138.945 0.565333 139.169 0.48 139.436 0.48C139.692 0.48 139.91 0.565333 140.092 0.735999C140.273 0.906666 140.364 1.12 140.364 1.376C140.364 1.64267 140.273 1.86667 140.092 2.048C139.91 2.21867 139.692 2.304 139.436 2.304ZM138.764 12V4.064H140.108V12H138.764ZM145.584 12C144.858 12 144.288 11.824 143.872 11.472C143.456 11.12 143.248 10.4853 143.248 9.568V5.2H141.872V4.064H143.248L143.424 2.16H144.592V4.064H146.928V5.2H144.592V9.568C144.592 10.0693 144.693 10.4107 144.896 10.592C145.098 10.7627 145.456 10.848 145.968 10.848H146.8V12H145.584ZM151.275 12.192C150.614 12.192 150.065 12.08 149.627 11.856C149.19 11.632 148.865 11.3333 148.651 10.96C148.438 10.5867 148.331 10.1813 148.331 9.744C148.331 8.93333 148.641 8.30933 149.259 7.872C149.878 7.43467 150.721 7.216 151.787 7.216H153.931V7.12C153.931 6.42667 153.75 5.904 153.387 5.552C153.025 5.18933 152.539 5.008 151.931 5.008C151.409 5.008 150.955 5.14133 150.571 5.408C150.198 5.664 149.963 6.04267 149.867 6.544H148.491C148.545 5.968 148.737 5.48267 149.067 5.088C149.409 4.69333 149.83 4.39467 150.331 4.192C150.833 3.97867 151.366 3.872 151.931 3.872C153.041 3.872 153.873 4.17067 154.427 4.768C154.993 5.35467 155.275 6.13867 155.275 7.12V12H154.075L153.995 10.576C153.771 11.024 153.441 11.408 153.003 11.728C152.577 12.0373 152.001 12.192 151.275 12.192ZM151.483 11.056C151.995 11.056 152.433 10.9227 152.795 10.656C153.169 10.3893 153.451 10.0427 153.643 9.616C153.835 9.18933 153.931 8.74133 153.931 8.272V8.256H151.899C151.11 8.256 150.55 8.39467 150.219 8.672C149.899 8.93867 149.739 9.27467 149.739 9.68C149.739 10.096 149.889 10.432 150.187 10.688C150.497 10.9333 150.929 11.056 151.483 11.056ZM160.209 12C159.483 12 158.913 11.824 158.497 11.472C158.081 11.12 157.873 10.4853 157.873 9.568V5.2H156.497V4.064H157.873L158.049 2.16H159.217V4.064H161.553V5.2H159.217V9.568C159.217 10.0693 159.318 10.4107 159.521 10.592C159.723 10.7627 160.081 10.848 160.593 10.848H161.425V12H160.209ZM166.61 12.192C165.852 12.192 165.18 12.0213 164.594 11.68C164.007 11.328 163.543 10.8427 163.202 10.224C162.871 9.60533 162.706 8.87467 162.706 8.032C162.706 7.2 162.871 6.47467 163.202 5.856C163.532 5.22667 163.991 4.74133 164.578 4.4C165.175 4.048 165.863 3.872 166.641 3.872C167.41 3.872 168.071 4.048 168.626 4.4C169.191 4.74133 169.623 5.19467 169.922 5.76C170.22 6.32533 170.37 6.93333 170.37 7.584C170.37 7.70133 170.364 7.81867 170.354 7.936C170.354 8.05333 170.354 8.18667 170.354 8.336H164.034C164.066 8.944 164.204 9.45067 164.45 9.856C164.706 10.2507 165.02 10.5493 165.394 10.752C165.778 10.9547 166.183 11.056 166.61 11.056C167.164 11.056 167.628 10.928 168.002 10.672C168.375 10.416 168.647 10.0693 168.818 9.632H170.146C169.932 10.368 169.522 10.9813 168.914 11.472C168.316 11.952 167.548 12.192 166.61 12.192ZM166.61 5.008C165.97 5.008 165.399 5.20533 164.898 5.6C164.407 5.984 164.124 6.54933 164.049 7.296H169.042C169.01 6.58133 168.764 6.02133 168.306 5.616C167.847 5.21067 167.282 5.008 166.61 5.008ZM176.385 15.52V4.064H177.601L177.729 5.376C177.985 4.992 178.348 4.64533 178.817 4.336C179.297 4.02667 179.905 3.872 180.641 3.872C181.431 3.872 182.119 4.05333 182.705 4.416C183.292 4.77867 183.745 5.27467 184.065 5.904C184.396 6.53333 184.561 7.248 184.561 8.048C184.561 8.848 184.396 9.56267 184.065 10.192C183.745 10.8107 183.287 11.3013 182.689 11.664C182.103 12.016 181.415 12.192 180.625 12.192C179.975 12.192 179.393 12.0587 178.881 11.792C178.38 11.5253 177.996 11.152 177.729 10.672V15.52H176.385ZM180.481 11.024C181.015 11.024 181.484 10.9013 181.889 10.656C182.295 10.4 182.615 10.048 182.849 9.6C183.084 9.152 183.201 8.62933 183.201 8.032C183.201 7.43467 183.084 6.912 182.849 6.464C182.615 6.016 182.295 5.66933 181.889 5.424C181.484 5.168 181.015 5.04 180.481 5.04C179.948 5.04 179.479 5.168 179.073 5.424C178.668 5.66933 178.348 6.016 178.113 6.464C177.879 6.912 177.761 7.43467 177.761 8.032C177.761 8.62933 177.879 9.152 178.113 9.6C178.348 10.048 178.668 10.4 179.073 10.656C179.479 10.9013 179.948 11.024 180.481 11.024ZM190 12.192C189.243 12.192 188.571 12.0213 187.984 11.68C187.397 11.328 186.933 10.8427 186.592 10.224C186.261 9.60533 186.096 8.87467 186.096 8.032C186.096 7.2 186.261 6.47467 186.592 5.856C186.923 5.22667 187.381 4.74133 187.968 4.4C188.565 4.048 189.253 3.872 190.032 3.872C190.8 3.872 191.461 4.048 192.016 4.4C192.581 4.74133 193.013 5.19467 193.312 5.76C193.611 6.32533 193.76 6.93333 193.76 7.584C193.76 7.70133 193.755 7.81867 193.744 7.936C193.744 8.05333 193.744 8.18667 193.744 8.336H187.424C187.456 8.944 187.595 9.45067 187.84 9.856C188.096 10.2507 188.411 10.5493 188.784 10.752C189.168 10.9547 189.573 11.056 190 11.056C190.555 11.056 191.019 10.928 191.392 10.672C191.765 10.416 192.037 10.0693 192.208 9.632H193.536C193.323 10.368 192.912 10.9813 192.304 11.472C191.707 11.952 190.939 12.192 190 12.192ZM190 5.008C189.36 5.008 188.789 5.20533 188.288 5.6C187.797 5.984 187.515 6.54933 187.44 7.296H192.432C192.4 6.58133 192.155 6.02133 191.696 5.616C191.237 5.21067 190.672 5.008 190 5.008ZM195.542 12V4.064H196.758L196.87 5.584C197.115 5.06133 197.488 4.64533 197.99 4.336C198.491 4.02667 199.11 3.872 199.846 3.872V5.28H199.478C199.008 5.28 198.576 5.36533 198.182 5.536C197.787 5.696 197.472 5.97333 197.238 6.368C197.003 6.76267 196.886 7.30667 196.886 8V12H195.542ZM208.228 12.192C207.567 12.192 207.018 12.08 206.58 11.856C206.143 11.632 205.818 11.3333 205.604 10.96C205.391 10.5867 205.284 10.1813 205.284 9.744C205.284 8.93333 205.594 8.30933 206.212 7.872C206.831 7.43467 207.674 7.216 208.74 7.216H210.884V7.12C210.884 6.42667 210.703 5.904 210.34 5.552C209.978 5.18933 209.492 5.008 208.884 5.008C208.362 5.008 207.908 5.14133 207.524 5.408C207.151 5.664 206.916 6.04267 206.82 6.544H205.444C205.498 5.968 205.69 5.48267 206.02 5.088C206.362 4.69333 206.783 4.39467 207.284 4.192C207.786 3.97867 208.319 3.872 208.884 3.872C209.994 3.872 210.826 4.17067 211.38 4.768C211.946 5.35467 212.228 6.13867 212.228 7.12V12H211.028L210.948 10.576C210.724 11.024 210.394 11.408 209.956 11.728C209.53 12.0373 208.954 12.192 208.228 12.192ZM208.436 11.056C208.948 11.056 209.386 10.9227 209.748 10.656C210.122 10.3893 210.404 10.0427 210.596 9.616C210.788 9.18933 210.884 8.74133 210.884 8.272V8.256H208.852C208.063 8.256 207.503 8.39467 207.172 8.672C206.852 8.93867 206.692 9.27467 206.692 9.68C206.692 10.096 206.842 10.432 207.14 10.688C207.45 10.9333 207.882 11.056 208.436 11.056ZM214.245 12V4.064H215.461L215.541 5.488C215.797 4.98667 216.165 4.592 216.645 4.304C217.125 4.016 217.669 3.872 218.277 3.872C219.215 3.872 219.962 4.16 220.517 4.736C221.082 5.30133 221.365 6.176 221.365 7.36V12H220.021V7.504C220.021 5.85067 219.338 5.024 217.973 5.024C217.29 5.024 216.719 5.27467 216.261 5.776C215.813 6.26667 215.589 6.97067 215.589 7.888V12H214.245ZM222.329 13.904L223.257 10.368H224.649L223.257 13.904H222.329ZM3.744 36.192C3.08267 36.192 2.53333 36.08 2.096 35.856C1.65867 35.632 1.33333 35.3333 1.12 34.96C0.906667 34.5867 0.8 34.1813 0.8 33.744C0.8 32.9333 1.10933 32.3093 1.728 31.872C2.34667 31.4347 3.18933 31.216 4.256 31.216H6.4V31.12C6.4 30.4267 6.21867 29.904 5.856 29.552C5.49333 29.1893 5.008 29.008 4.4 29.008C3.87733 29.008 3.424 29.1413 3.04 29.408C2.66667 29.664 2.432 30.0427 2.336 30.544H0.96C1.01333 29.968 1.20533 29.4827 1.536 29.088C1.87733 28.6933 2.29867 28.3947 2.8 28.192C3.30133 27.9787 3.83467 27.872 4.4 27.872C5.50933 27.872 6.34133 28.1707 6.896 28.768C7.46133 29.3547 7.744 30.1387 7.744 31.12V36H6.544L6.464 34.576C6.24 35.024 5.90933 35.408 5.472 35.728C5.04533 36.0373 4.46933 36.192 3.744 36.192ZM3.952 35.056C4.464 35.056 4.90133 34.9227 5.264 34.656C5.63733 34.3893 5.92 34.0427 6.112 33.616C6.304 33.1893 6.4 32.7413 6.4 32.272V32.256H4.368C3.57867 32.256 3.01867 32.3947 2.688 32.672C2.368 32.9387 2.208 33.2747 2.208 33.68C2.208 34.096 2.35733 34.432 2.656 34.688C2.96533 34.9333 3.39733 35.056 3.952 35.056ZM9.76025 36V24.48H11.1043V36H9.76025ZM14.1231 26.304C13.8565 26.304 13.6325 26.2187 13.4511 26.048C13.2805 25.8667 13.1951 25.6427 13.1951 25.376C13.1951 25.12 13.2805 24.9067 13.4511 24.736C13.6325 24.5653 13.8565 24.48 14.1231 24.48C14.3791 24.48 14.5978 24.5653 14.7791 24.736C14.9605 24.9067 15.0511 25.12 15.0511 25.376C15.0511 25.6427 14.9605 25.8667 14.7791 26.048C14.5978 26.2187 14.3791 26.304 14.1231 26.304ZM13.4511 36V28.064H14.7951V36H13.4511ZM20.7033 36.192C19.9459 36.192 19.2739 36.0213 18.6873 35.68C18.1006 35.328 17.6366 34.8427 17.2953 34.224C16.9646 33.6053 16.7993 32.8747 16.7993 32.032C16.7993 31.2 16.9646 30.4747 17.2953 29.856C17.6259 29.2267 18.0846 28.7413 18.6713 28.4C19.2686 28.048 19.9566 27.872 20.7352 27.872C21.5033 27.872 22.1646 28.048 22.7193 28.4C23.2846 28.7413 23.7166 29.1947 24.0153 29.76C24.3139 30.3253 24.4633 30.9333 24.4633 31.584C24.4633 31.7013 24.4579 31.8187 24.4473 31.936C24.4473 32.0533 24.4473 32.1867 24.4473 32.336H18.1273C18.1593 32.944 18.2979 33.4507 18.5433 33.856C18.7993 34.2507 19.1139 34.5493 19.4873 34.752C19.8713 34.9547 20.2766 35.056 20.7033 35.056C21.2579 35.056 21.7219 34.928 22.0953 34.672C22.4686 34.416 22.7406 34.0693 22.9113 33.632H24.2393C24.0259 34.368 23.6153 34.9813 23.0073 35.472C22.4099 35.952 21.6419 36.192 20.7033 36.192ZM20.7033 29.008C20.0633 29.008 19.4926 29.2053 18.9913 29.6C18.5006 29.984 18.2179 30.5493 18.1432 31.296H23.1353C23.1033 30.5813 22.8579 30.0213 22.3993 29.616C21.9406 29.2107 21.3753 29.008 20.7033 29.008ZM26.2446 36V28.064H27.4606L27.5406 29.488C27.7966 28.9867 28.1646 28.592 28.6446 28.304C29.1246 28.016 29.6686 27.872 30.2766 27.872C31.2153 27.872 31.962 28.16 32.5166 28.736C33.082 29.3013 33.3646 30.176 33.3646 31.36V36H32.0206V31.504C32.0206 29.8507 31.338 29.024 29.9726 29.024C29.29 29.024 28.7193 29.2747 28.2606 29.776C27.8126 30.2667 27.5886 30.9707 27.5886 31.888V36H26.2446ZM42.3449 28.064V36H41.1289L41.0489 34.576C40.7929 35.0773 40.4249 35.472 39.9449 35.76C39.4649 36.048 38.9209 36.192 38.3129 36.192C37.3742 36.192 36.6222 35.9093 36.0569 35.344C35.5022 34.768 35.2249 33.888 35.2249 32.704V28.064H36.5689V32.56C36.5689 34.2133 37.2515 35.04 38.6169 35.04C39.2995 35.04 39.8649 34.7947 40.3129 34.304C40.7715 33.8027 41.0009 33.0933 41.0009 32.176V28.064H42.3449ZM44.5571 36V28.064H45.7731L45.8691 29.216C46.1251 28.7893 46.4665 28.4587 46.8931 28.224C47.3198 27.9893 47.7998 27.872 48.3331 27.872C48.9625 27.872 49.5011 28 49.9491 28.256C50.4078 28.512 50.7598 28.9013 51.0051 29.424C51.2825 28.944 51.6611 28.5653 52.1411 28.288C52.6318 28.0107 53.1598 27.872 53.7251 27.872C54.6745 27.872 55.4318 28.16 55.9971 28.736C56.5625 29.3013 56.8451 30.176 56.8451 31.36V36H55.5171V31.504C55.5171 30.6827 55.3518 30.064 55.0211 29.648C54.6905 29.232 54.2158 29.024 53.5971 29.024C52.9571 29.024 52.4238 29.2747 51.9971 29.776C51.5811 30.2667 51.3731 30.9707 51.3731 31.888V36H50.0291V31.504C50.0291 30.6827 49.8638 30.064 49.5331 29.648C49.2025 29.232 48.7278 29.024 48.1091 29.024C47.4798 29.024 46.9518 29.2747 46.5251 29.776C46.1091 30.2667 45.9011 30.9707 45.9011 31.888V36H44.5571ZM63.104 39.52V28.064H64.32L64.448 29.376C64.704 28.992 65.0667 28.6453 65.536 28.336C66.016 28.0267 66.624 27.872 67.36 27.872C68.1493 27.872 68.8373 28.0533 69.424 28.416C70.0107 28.7787 70.464 29.2747 70.784 29.904C71.1147 30.5333 71.28 31.248 71.28 32.048C71.28 32.848 71.1147 33.5627 70.784 34.192C70.464 34.8107 70.0053 35.3013 69.408 35.664C68.8213 36.016 68.1333 36.192 67.344 36.192C66.6933 36.192 66.112 36.0587 65.6 35.792C65.0987 35.5253 64.7147 35.152 64.448 34.672V39.52H63.104ZM67.2 35.024C67.7333 35.024 68.2027 34.9013 68.608 34.656C69.0133 34.4 69.3333 34.048 69.568 33.6C69.8027 33.152 69.92 32.6293 69.92 32.032C69.92 31.4347 69.8027 30.912 69.568 30.464C69.3333 30.016 69.0133 29.6693 68.608 29.424C68.2027 29.168 67.7333 29.04 67.2 29.04C66.6667 29.04 66.1973 29.168 65.792 29.424C65.3867 29.6693 65.0667 30.016 64.832 30.464C64.5973 30.912 64.48 31.4347 64.48 32.032C64.48 32.6293 64.5973 33.152 64.832 33.6C65.0667 34.048 65.3867 34.4 65.792 34.656C66.1973 34.9013 66.6667 35.024 67.2 35.024ZM73.1509 36V24.48H74.4949V29.424C74.7615 28.9333 75.1402 28.5547 75.6309 28.288C76.1215 28.0107 76.6549 27.872 77.2309 27.872C78.1482 27.872 78.8842 28.16 79.4389 28.736C79.9935 29.3013 80.2709 30.176 80.2709 31.36V36H78.9429V31.504C78.9429 29.8507 78.2762 29.024 76.9429 29.024C76.2495 29.024 75.6682 29.2747 75.1989 29.776C74.7295 30.2667 74.4949 30.9707 74.4949 31.888V36H73.1509ZM84.9471 36.192C84.2858 36.192 83.7365 36.08 83.2991 35.856C82.8618 35.632 82.5365 35.3333 82.3231 34.96C82.1098 34.5867 82.0031 34.1813 82.0031 33.744C82.0031 32.9333 82.3125 32.3093 82.9311 31.872C83.5498 31.4347 84.3925 31.216 85.4591 31.216H87.6031V31.12C87.6031 30.4267 87.4218 29.904 87.0591 29.552C86.6965 29.1893 86.2111 29.008 85.6031 29.008C85.0805 29.008 84.6271 29.1413 84.2431 29.408C83.8698 29.664 83.6351 30.0427 83.5391 30.544H82.1631C82.2165 29.968 82.4085 29.4827 82.7391 29.088C83.0805 28.6933 83.5018 28.3947 84.0031 28.192C84.5045 27.9787 85.0378 27.872 85.6031 27.872C86.7125 27.872 87.5445 28.1707 88.0991 28.768C88.6645 29.3547 88.9471 30.1387 88.9471 31.12V36H87.7471L87.6671 34.576C87.4431 35.024 87.1125 35.408 86.6751 35.728C86.2485 36.0373 85.6725 36.192 84.9471 36.192ZM85.1551 35.056C85.6671 35.056 86.1045 34.9227 86.4671 34.656C86.8405 34.3893 87.1231 34.0427 87.3151 33.616C87.5071 33.1893 87.6031 32.7413 87.6031 32.272V32.256H85.5711C84.7818 32.256 84.2218 32.3947 83.8911 32.672C83.5711 32.9387 83.4111 33.2747 83.4111 33.68C83.4111 34.096 83.5605 34.432 83.8591 34.688C84.1685 34.9333 84.6005 35.056 85.1551 35.056ZM94.5314 36.192C93.774 36.192 93.102 36.0213 92.5154 35.68C91.9287 35.328 91.4647 34.8427 91.1234 34.224C90.7927 33.6053 90.6274 32.8747 90.6274 32.032C90.6274 31.2 90.7927 30.4747 91.1234 29.856C91.454 29.2267 91.9127 28.7413 92.4994 28.4C93.0967 28.048 93.7847 27.872 94.5634 27.872C95.3314 27.872 95.9927 28.048 96.5474 28.4C97.1127 28.7413 97.5447 29.1947 97.8434 29.76C98.142 30.3253 98.2914 30.9333 98.2914 31.584C98.2914 31.7013 98.286 31.8187 98.2754 31.936C98.2754 32.0533 98.2754 32.1867 98.2754 32.336H91.9554C91.9874 32.944 92.126 33.4507 92.3714 33.856C92.6274 34.2507 92.942 34.5493 93.3154 34.752C93.6994 34.9547 94.1047 35.056 94.5314 35.056C95.086 35.056 95.55 34.928 95.9234 34.672C96.2967 34.416 96.5687 34.0693 96.7394 33.632H98.0674C97.854 34.368 97.4434 34.9813 96.8354 35.472C96.238 35.952 95.47 36.192 94.5314 36.192ZM94.5314 29.008C93.8914 29.008 93.3207 29.2053 92.8194 29.6C92.3287 29.984 92.046 30.5493 91.9714 31.296H96.9634C96.9314 30.5813 96.686 30.0213 96.2274 29.616C95.7687 29.2107 95.2034 29.008 94.5314 29.008ZM103.673 36.192C102.883 36.192 102.19 36.0107 101.593 35.648C101.006 35.2853 100.547 34.7893 100.217 34.16C99.8968 33.5307 99.7368 32.816 99.7368 32.016C99.7368 31.216 99.9021 30.5067 100.233 29.888C100.563 29.2587 101.022 28.768 101.609 28.416C102.195 28.0533 102.889 27.872 103.689 27.872C104.339 27.872 104.915 28.0053 105.417 28.272C105.918 28.5387 106.307 28.912 106.585 29.392V24.48H107.929V36H106.713L106.585 34.688C106.329 35.072 105.961 35.4187 105.481 35.728C105.001 36.0373 104.398 36.192 103.673 36.192ZM103.817 35.024C104.35 35.024 104.819 34.9013 105.225 34.656C105.641 34.4 105.961 34.048 106.185 33.6C106.419 33.152 106.537 32.6293 106.537 32.032C106.537 31.4347 106.419 30.912 106.185 30.464C105.961 30.016 105.641 29.6693 105.225 29.424C104.819 29.168 104.35 29.04 103.817 29.04C103.294 29.04 102.825 29.168 102.409 29.424C102.003 29.6693 101.683 30.016 101.449 30.464C101.225 30.912 101.113 31.4347 101.113 32.032C101.113 32.6293 101.225 33.152 101.449 33.6C101.683 34.048 102.003 34.4 102.409 34.656C102.825 34.9013 103.294 35.024 103.817 35.024ZM110.12 36V28.064H111.336L111.448 29.584C111.693 29.0613 112.066 28.6453 112.568 28.336C113.069 28.0267 113.688 27.872 114.424 27.872V29.28H114.056C113.586 29.28 113.154 29.3653 112.76 29.536C112.365 29.696 112.05 29.9733 111.816 30.368C111.581 30.7627 111.464 31.3067 111.464 32V36H110.12ZM122.876 28.064V36H121.66L121.58 34.576C121.324 35.0773 120.956 35.472 120.476 35.76C119.996 36.048 119.452 36.192 118.844 36.192C117.905 36.192 117.153 35.9093 116.588 35.344C116.033 34.768 115.756 33.888 115.756 32.704V28.064H117.1V32.56C117.1 34.2133 117.783 35.04 119.148 35.04C119.831 35.04 120.396 34.7947 120.844 34.304C121.303 33.8027 121.532 33.0933 121.532 32.176V28.064H122.876ZM125.088 36V28.064H126.304L126.4 29.216C126.656 28.7893 126.998 28.4587 127.424 28.224C127.851 27.9893 128.331 27.872 128.864 27.872C129.494 27.872 130.032 28 130.48 28.256C130.939 28.512 131.291 28.9013 131.536 29.424C131.814 28.944 132.192 28.5653 132.672 28.288C133.163 28.0107 133.691 27.872 134.256 27.872C135.206 27.872 135.963 28.16 136.528 28.736C137.094 29.3013 137.376 30.176 137.376 31.36V36H136.048V31.504C136.048 30.6827 135.883 30.064 135.552 29.648C135.222 29.232 134.747 29.024 134.128 29.024C133.488 29.024 132.955 29.2747 132.528 29.776C132.112 30.2667 131.904 30.9707 131.904 31.888V36H130.56V31.504C130.56 30.6827 130.395 30.064 130.064 29.648C129.734 29.232 129.259 29.024 128.64 29.024C128.011 29.024 127.483 29.2747 127.056 29.776C126.64 30.2667 126.432 30.9707 126.432 31.888V36H125.088ZM146.771 36C146.046 36 145.475 35.824 145.059 35.472C144.643 35.12 144.435 34.4853 144.435 33.568V29.2H143.059V28.064H144.435L144.611 26.16H145.779V28.064H148.115V29.2H145.779V33.568C145.779 34.0693 145.881 34.4107 146.083 34.592C146.286 34.7627 146.643 34.848 147.155 34.848H147.987V36H146.771ZM153.172 36.192C152.415 36.192 151.743 36.0213 151.156 35.68C150.569 35.328 150.105 34.8427 149.764 34.224C149.433 33.6053 149.268 32.8747 149.268 32.032C149.268 31.2 149.433 30.4747 149.764 29.856C150.095 29.2267 150.553 28.7413 151.14 28.4C151.737 28.048 152.425 27.872 153.204 27.872C153.972 27.872 154.633 28.048 155.188 28.4C155.753 28.7413 156.185 29.1947 156.484 29.76C156.783 30.3253 156.932 30.9333 156.932 31.584C156.932 31.7013 156.927 31.8187 156.916 31.936C156.916 32.0533 156.916 32.1867 156.916 32.336H150.596C150.628 32.944 150.767 33.4507 151.012 33.856C151.268 34.2507 151.583 34.5493 151.956 34.752C152.34 34.9547 152.745 35.056 153.172 35.056C153.727 35.056 154.191 34.928 154.564 34.672C154.937 34.416 155.209 34.0693 155.38 33.632H156.708C156.495 34.368 156.084 34.9813 155.476 35.472C154.879 35.952 154.111 36.192 153.172 36.192ZM153.172 29.008C152.532 29.008 151.961 29.2053 151.46 29.6C150.969 29.984 150.687 30.5493 150.612 31.296H155.604C155.572 30.5813 155.327 30.0213 154.868 29.616C154.409 29.2107 153.844 29.008 153.172 29.008ZM165.988 36.192C165.038 36.192 164.249 35.952 163.62 35.472C162.99 34.992 162.622 34.3413 162.516 33.52H163.892C163.977 33.936 164.196 34.2987 164.548 34.608C164.91 34.9067 165.396 35.056 166.004 35.056C166.569 35.056 166.985 34.9387 167.252 34.704C167.518 34.4587 167.652 34.1707 167.652 33.84C167.652 33.36 167.476 33.04 167.124 32.88C166.782 32.72 166.297 32.576 165.668 32.448C165.241 32.3627 164.814 32.24 164.388 32.08C163.961 31.92 163.604 31.696 163.316 31.408C163.028 31.1093 162.884 30.72 162.884 30.24C162.884 29.5467 163.14 28.9813 163.652 28.544C164.174 28.096 164.878 27.872 165.764 27.872C166.606 27.872 167.294 28.0853 167.828 28.512C168.372 28.928 168.686 29.5253 168.772 30.304H167.444C167.39 29.8987 167.214 29.584 166.916 29.36C166.628 29.1253 166.238 29.008 165.748 29.008C165.268 29.008 164.894 29.1093 164.628 29.312C164.372 29.5147 164.244 29.7813 164.244 30.112C164.244 30.432 164.409 30.6827 164.74 30.864C165.081 31.0453 165.54 31.2 166.116 31.328C166.606 31.4347 167.07 31.568 167.508 31.728C167.956 31.8773 168.318 32.1067 168.596 32.416C168.884 32.7147 169.028 33.152 169.028 33.728C169.038 34.4427 168.766 35.0347 168.212 35.504C167.668 35.9627 166.926 36.192 165.988 36.192ZM174.516 36.192C173.758 36.192 173.086 36.0213 172.5 35.68C171.913 35.328 171.449 34.8427 171.108 34.224C170.777 33.6053 170.612 32.8747 170.612 32.032C170.612 31.2 170.777 30.4747 171.108 29.856C171.438 29.2267 171.897 28.7413 172.484 28.4C173.081 28.048 173.769 27.872 174.548 27.872C175.316 27.872 175.977 28.048 176.532 28.4C177.097 28.7413 177.529 29.1947 177.828 29.76C178.126 30.3253 178.276 30.9333 178.276 31.584C178.276 31.7013 178.27 31.8187 178.26 31.936C178.26 32.0533 178.26 32.1867 178.26 32.336H171.94C171.972 32.944 172.11 33.4507 172.356 33.856C172.612 34.2507 172.926 34.5493 173.3 34.752C173.684 34.9547 174.089 35.056 174.516 35.056C175.07 35.056 175.534 34.928 175.908 34.672C176.281 34.416 176.553 34.0693 176.724 33.632H178.052C177.838 34.368 177.428 34.9813 176.82 35.472C176.222 35.952 175.454 36.192 174.516 36.192ZM174.516 29.008C173.876 29.008 173.305 29.2053 172.804 29.6C172.313 29.984 172.03 30.5493 171.956 31.296H176.948C176.916 30.5813 176.67 30.0213 176.212 29.616C175.753 29.2107 175.188 29.008 174.516 29.008ZM182.697 36.192C182.036 36.192 181.486 36.08 181.049 35.856C180.612 35.632 180.286 35.3333 180.073 34.96C179.86 34.5867 179.753 34.1813 179.753 33.744C179.753 32.9333 180.062 32.3093 180.681 31.872C181.3 31.4347 182.142 31.216 183.209 31.216H185.353V31.12C185.353 30.4267 185.172 29.904 184.809 29.552C184.446 29.1893 183.961 29.008 183.353 29.008C182.83 29.008 182.377 29.1413 181.993 29.408C181.62 29.664 181.385 30.0427 181.289 30.544H179.913C179.966 29.968 180.158 29.4827 180.489 29.088C180.83 28.6933 181.252 28.3947 181.753 28.192C182.254 27.9787 182.788 27.872 183.353 27.872C184.462 27.872 185.294 28.1707 185.849 28.768C186.414 29.3547 186.697 30.1387 186.697 31.12V36H185.497L185.417 34.576C185.193 35.024 184.862 35.408 184.425 35.728C183.998 36.0373 183.422 36.192 182.697 36.192ZM182.905 35.056C183.417 35.056 183.854 34.9227 184.217 34.656C184.59 34.3893 184.873 34.0427 185.065 33.616C185.257 33.1893 185.353 32.7413 185.353 32.272V32.256H183.321C182.532 32.256 181.972 32.3947 181.641 32.672C181.321 32.9387 181.161 33.2747 181.161 33.68C181.161 34.096 181.31 34.432 181.609 34.688C181.918 34.9333 182.35 35.056 182.905 35.056Z" fill="black" fill-opacity="0.5"/>
</svg>
